G04*
G04 #@! TF.GenerationSoftware,Altium Limited,Altium Designer,23.5.1 (21)*
G04*
G04 Layer_Color=255*
%FSLAX26Y26*%
%MOIN*%
G70*
G04*
G04 #@! TF.SameCoordinates,6A5F5C75-F477-485A-9627-383C203D1060*
G04*
G04*
G04 #@! TF.FilePolarity,Positive*
G04*
G01*
G75*
%ADD56C,0.200000*%
%ADD57C,0.059055*%
%ADD58C,0.082677*%
%ADD59R,0.059055X0.059055*%
%ADD60C,0.078740*%
%ADD61R,0.059055X0.059055*%
D56*
X4910000Y150000D02*
D03*
X5410000Y650000D02*
D03*
Y8100000D02*
D03*
X4910000Y8600000D02*
D03*
X650000Y150000D02*
D03*
X150000Y650000D02*
D03*
Y8100000D02*
D03*
X650000Y8600000D02*
D03*
X150000D02*
D03*
Y150000D02*
D03*
X5410000Y8600000D02*
D03*
Y150000D02*
D03*
D57*
X4710000Y4660000D02*
D03*
X2465000Y5215000D02*
D03*
Y2160000D02*
D03*
X4710000Y1685000D02*
D03*
X2930000Y3755000D02*
D03*
Y700000D02*
D03*
X645000Y3920000D02*
D03*
X4130000Y6555000D02*
D03*
X4030000D02*
D03*
X2030000Y6355000D02*
D03*
X1930000D02*
D03*
X1370000Y8255000D02*
D03*
X4830000Y4660000D02*
D03*
X1340000Y4895000D02*
D03*
X1440000Y4995000D02*
D03*
X1340000D02*
D03*
X1440000Y5095000D02*
D03*
X1340000D02*
D03*
Y1840000D02*
D03*
X1440000Y1940000D02*
D03*
X1340000D02*
D03*
X1440000Y2040000D02*
D03*
X1340000D02*
D03*
X2585000Y2160000D02*
D03*
X3050000Y700000D02*
D03*
X1760000Y1975000D02*
D03*
X3900000Y355000D02*
D03*
X3800000D02*
D03*
X3700000D02*
D03*
X3600000D02*
D03*
X3500000D02*
D03*
X2500000Y1100000D02*
D03*
X2775000Y1240000D02*
D03*
X1340000Y1590000D02*
D03*
X1440000Y1470000D02*
D03*
X4245000Y1920000D02*
D03*
X4145000Y1800000D02*
D03*
X4245000Y1590000D02*
D03*
X4145000Y1470000D02*
D03*
X2775000Y4295000D02*
D03*
X1760000Y5030000D02*
D03*
X4245000Y4645000D02*
D03*
X4145000Y4525000D02*
D03*
X4245000Y4975000D02*
D03*
X4145000Y4855000D02*
D03*
X1340000Y4645000D02*
D03*
X1440000Y4525000D02*
D03*
X2500000Y4155000D02*
D03*
X3900000Y3410000D02*
D03*
X3800000D02*
D03*
X3700000D02*
D03*
X3600000D02*
D03*
X3500000D02*
D03*
X3050000Y3755000D02*
D03*
X2585000Y5215000D02*
D03*
X4790000Y2565000D02*
D03*
X805000Y2635000D02*
D03*
X905000Y3055000D02*
D03*
Y3275000D02*
D03*
X4830000Y1685000D02*
D03*
X2430000Y6355000D02*
D03*
X2630000D02*
D03*
X2530000D02*
D03*
X2830000D02*
D03*
X2730000D02*
D03*
X3030000D02*
D03*
X2930000D02*
D03*
X2330000D02*
D03*
X4130000Y6655000D02*
D03*
X4030000D02*
D03*
X4130000Y6955000D02*
D03*
Y6855000D02*
D03*
Y6755000D02*
D03*
Y7055000D02*
D03*
X4030000Y6955000D02*
D03*
Y6855000D02*
D03*
Y6755000D02*
D03*
Y7055000D02*
D03*
X4130000Y7455000D02*
D03*
Y7355000D02*
D03*
X4030000D02*
D03*
X4130000Y7255000D02*
D03*
X4030000D02*
D03*
X4130000Y7155000D02*
D03*
X4030000D02*
D03*
Y7455000D02*
D03*
X4130000Y7755000D02*
D03*
Y7655000D02*
D03*
Y7555000D02*
D03*
Y7855000D02*
D03*
X4030000Y7755000D02*
D03*
Y7655000D02*
D03*
Y7555000D02*
D03*
Y7855000D02*
D03*
X3130000Y8255000D02*
D03*
X3330000D02*
D03*
X3230000D02*
D03*
X3530000D02*
D03*
X3430000D02*
D03*
X3730000D02*
D03*
X3630000D02*
D03*
X3030000D02*
D03*
X2230000D02*
D03*
X2430000D02*
D03*
X2330000D02*
D03*
X2630000D02*
D03*
X2530000D02*
D03*
X2830000D02*
D03*
X2730000D02*
D03*
X1570000D02*
D03*
X1470000D02*
D03*
X1770000D02*
D03*
X1670000D02*
D03*
X1170000D02*
D03*
X1070000D02*
D03*
X1270000D02*
D03*
X1970000D02*
D03*
X1870000D02*
D03*
X2130000D02*
D03*
X4130000D02*
D03*
Y8155000D02*
D03*
X4030000D02*
D03*
X4130000Y8055000D02*
D03*
X4030000D02*
D03*
X4130000Y7955000D02*
D03*
X4030000D02*
D03*
Y8255000D02*
D03*
X3330000Y6355000D02*
D03*
X3530000D02*
D03*
X3430000D02*
D03*
X3730000D02*
D03*
X3630000D02*
D03*
X3930000D02*
D03*
X3830000D02*
D03*
X3230000D02*
D03*
X1530000D02*
D03*
X1730000D02*
D03*
X1630000D02*
D03*
X1830000D02*
D03*
X2130000D02*
D03*
X1430000D02*
D03*
D58*
X3545000Y5200000D02*
D03*
X3345000D02*
D03*
X3545000Y5000000D02*
D03*
X3345000Y4700000D02*
D03*
Y5000000D02*
D03*
X3545000Y4500000D02*
D03*
Y4700000D02*
D03*
X3550000Y4200000D02*
D03*
X3350000D02*
D03*
X3345000Y4500000D02*
D03*
X3550000Y4000000D02*
D03*
X3350000D02*
D03*
X2845000Y5200000D02*
D03*
X2290000Y5665000D02*
D03*
Y5865000D02*
D03*
X3045000Y5200000D02*
D03*
Y5000000D02*
D03*
X2845000D02*
D03*
X2125000Y5165000D02*
D03*
Y5365000D02*
D03*
X2465000Y3620000D02*
D03*
Y3820000D02*
D03*
X2265000Y3620000D02*
D03*
Y3820000D02*
D03*
X3545000Y1645000D02*
D03*
Y1945000D02*
D03*
X3550000Y1145000D02*
D03*
Y945000D02*
D03*
X3545000Y2145000D02*
D03*
X3345000Y1645000D02*
D03*
Y1945000D02*
D03*
X3545000Y1445000D02*
D03*
X3350000Y1145000D02*
D03*
X3345000Y1445000D02*
D03*
Y2145000D02*
D03*
X3350000Y945000D02*
D03*
X2845000Y2145000D02*
D03*
X2290000Y2610000D02*
D03*
Y2810000D02*
D03*
X3045000Y2145000D02*
D03*
Y1945000D02*
D03*
X2845000D02*
D03*
X2125000Y2110000D02*
D03*
Y2310000D02*
D03*
X2465000Y565000D02*
D03*
Y765000D02*
D03*
X2265000Y565000D02*
D03*
Y765000D02*
D03*
X2090000Y5865000D02*
D03*
Y5665000D02*
D03*
X1925000Y5165000D02*
D03*
Y5365000D02*
D03*
X2090000Y2810000D02*
D03*
Y2610000D02*
D03*
X1965000Y3820000D02*
D03*
Y3620000D02*
D03*
X1925000Y2110000D02*
D03*
Y2310000D02*
D03*
X1765000Y3620000D02*
D03*
Y3820000D02*
D03*
X1965000Y765000D02*
D03*
Y565000D02*
D03*
X1765000D02*
D03*
Y765000D02*
D03*
D59*
X1440000Y4895000D02*
D03*
Y1840000D02*
D03*
X645000Y3820000D02*
D03*
X905000Y3175000D02*
D03*
D60*
X2365000Y665000D02*
D03*
X2025000Y2210000D02*
D03*
X1865000Y665000D02*
D03*
X2945000Y2045000D02*
D03*
X2190000Y2710000D02*
D03*
X3445000Y2045000D02*
D03*
X3450000Y1045000D02*
D03*
X3445000Y1545000D02*
D03*
X3450000Y4100000D02*
D03*
X3445000Y4600000D02*
D03*
X2190000Y5765000D02*
D03*
X3445000Y5100000D02*
D03*
X1865000Y3720000D02*
D03*
X2945000Y5100000D02*
D03*
X2365000Y3720000D02*
D03*
X2025000Y5265000D02*
D03*
D61*
X4000000Y355000D02*
D03*
X1440000Y1590000D02*
D03*
X1340000Y1470000D02*
D03*
X4145000Y1920000D02*
D03*
X4245000Y1800000D02*
D03*
X4145000Y1590000D02*
D03*
X4245000Y1470000D02*
D03*
X4145000Y4645000D02*
D03*
X4245000Y4525000D02*
D03*
X4145000Y4975000D02*
D03*
X4245000Y4855000D02*
D03*
X1440000Y4645000D02*
D03*
X1340000Y4525000D02*
D03*
X4000000Y3410000D02*
D03*
X4690000Y2565000D02*
D03*
X905000Y2635000D02*
D03*
X805000Y3055000D02*
D03*
M02*
