G04*
G04 #@! TF.GenerationSoftware,Altium Limited,Altium Designer,23.5.1 (21)*
G04*
G04 Layer_Color=128*
%FSLAX44Y44*%
%MOMM*%
G71*
G04*
G04 #@! TF.SameCoordinates,C4CE3DB5-CAAC-4FC5-883F-B4FCA082C57B*
G04*
G04*
G04 #@! TF.FilePolarity,Positive*
G04*
G01*
G75*
%ADD76C,0.1270*%
D76*
X1234440Y38100D02*
X1259840D01*
X1247140Y25400D02*
Y50800D01*
X1361440Y165100D02*
X1386840D01*
X1374140Y152400D02*
Y177800D01*
X1361440Y2057400D02*
X1386840D01*
X1374140Y2044700D02*
Y2070100D01*
X1234440Y2184400D02*
X1259840D01*
X1247140Y2171700D02*
Y2197100D01*
X152400Y38100D02*
X177800D01*
X165100Y25400D02*
Y50800D01*
X25400Y165100D02*
X50800D01*
X38100Y152400D02*
Y177800D01*
X25400Y2057400D02*
X50800D01*
X38100Y2044700D02*
Y2070100D01*
X152400Y2184400D02*
X177800D01*
X165100Y2171700D02*
Y2197100D01*
X1191840Y1183640D02*
X1200840D01*
X1196340Y1179140D02*
Y1188140D01*
X621610Y1324610D02*
X630610D01*
X626110Y1320110D02*
Y1329110D01*
X621610Y548640D02*
X630610D01*
X626110Y544140D02*
Y553140D01*
X1191840Y427990D02*
X1200840D01*
X1196340Y423490D02*
Y432490D01*
X739720Y953770D02*
X748720D01*
X744220Y949270D02*
Y958270D01*
X739720Y177800D02*
X748720D01*
X744220Y173300D02*
Y182300D01*
X25400Y2184400D02*
X50800D01*
X38100Y2171700D02*
Y2197100D01*
X25400Y38100D02*
X50800D01*
X38100Y25400D02*
Y50800D01*
X159330Y995680D02*
X168330D01*
X163830Y991180D02*
Y1000180D01*
X1361440Y2184400D02*
X1386840D01*
X1374140Y2171700D02*
Y2197100D01*
X1044520Y1664970D02*
X1053520D01*
X1049020Y1660470D02*
Y1669470D01*
X1019120Y1664970D02*
X1028120D01*
X1023620Y1660470D02*
Y1669470D01*
X892430Y1320800D02*
X908430D01*
X900430Y1312800D02*
Y1328800D01*
X841630Y1320800D02*
X857630D01*
X849630Y1312800D02*
Y1328800D01*
X892430Y1270000D02*
X908430D01*
X900430Y1262000D02*
Y1278000D01*
X841630Y1193800D02*
X857630D01*
X849630Y1185800D02*
Y1201800D01*
X841630Y1270000D02*
X857630D01*
X849630Y1262000D02*
Y1278000D01*
X892430Y1143000D02*
X908430D01*
X900430Y1135000D02*
Y1151000D01*
X892430Y1193800D02*
X908430D01*
X900430Y1185800D02*
Y1201800D01*
X893700Y1066800D02*
X909700D01*
X901700Y1058800D02*
Y1074800D01*
X842900Y1066800D02*
X858900D01*
X850900Y1058800D02*
Y1074800D01*
X841630Y1143000D02*
X857630D01*
X849630Y1135000D02*
Y1151000D01*
X893700Y1016000D02*
X909700D01*
X901700Y1008000D02*
Y1024000D01*
X842900Y1016000D02*
X858900D01*
X850900Y1008000D02*
Y1024000D01*
X714630Y1320800D02*
X730630D01*
X722630Y1312800D02*
Y1328800D01*
X573660Y1438910D02*
X589660D01*
X581660Y1430910D02*
Y1446910D01*
X573660Y1489710D02*
X589660D01*
X581660Y1481710D02*
Y1497710D01*
X765430Y1320800D02*
X781430D01*
X773430Y1312800D02*
Y1328800D01*
X765430Y1270000D02*
X781430D01*
X773430Y1262000D02*
Y1278000D01*
X714630Y1270000D02*
X730630D01*
X722630Y1262000D02*
Y1278000D01*
X531750Y1311910D02*
X547750D01*
X539750Y1303910D02*
Y1319910D01*
X531750Y1362710D02*
X547750D01*
X539750Y1354710D02*
Y1370710D01*
X618110Y919480D02*
X634110D01*
X626110Y911480D02*
Y927480D01*
X618110Y970280D02*
X634110D01*
X626110Y962280D02*
Y978280D01*
X567310Y919480D02*
X583310D01*
X575310Y911480D02*
Y927480D01*
X567310Y970280D02*
X583310D01*
X575310Y962280D02*
Y978280D01*
X892430Y417830D02*
X908430D01*
X900430Y409830D02*
Y425830D01*
X892430Y494030D02*
X908430D01*
X900430Y486030D02*
Y502030D01*
X1361440Y38100D02*
X1386840D01*
X1374140Y25400D02*
Y50800D01*
X893700Y290830D02*
X909700D01*
X901700Y282830D02*
Y298830D01*
X893700Y240030D02*
X909700D01*
X901700Y232030D02*
Y248030D01*
X892430Y544830D02*
X908430D01*
X900430Y536830D02*
Y552830D01*
X841630Y417830D02*
X857630D01*
X849630Y409830D02*
Y425830D01*
X841630Y494030D02*
X857630D01*
X849630Y486030D02*
Y502030D01*
X892430Y367030D02*
X908430D01*
X900430Y359030D02*
Y375030D01*
X842900Y290830D02*
X858900D01*
X850900Y282830D02*
Y298830D01*
X841630Y367030D02*
X857630D01*
X849630Y359030D02*
Y375030D01*
X841630Y544830D02*
X857630D01*
X849630Y536830D02*
Y552830D01*
X842900Y240030D02*
X858900D01*
X850900Y232030D02*
Y248030D01*
X714630Y544830D02*
X730630D01*
X722630Y536830D02*
Y552830D01*
X573660Y662940D02*
X589660D01*
X581660Y654940D02*
Y670940D01*
X573660Y713740D02*
X589660D01*
X581660Y705740D02*
Y721740D01*
X765430Y544830D02*
X781430D01*
X773430Y536830D02*
Y552830D01*
X765430Y494030D02*
X781430D01*
X773430Y486030D02*
Y502030D01*
X714630Y494030D02*
X730630D01*
X722630Y486030D02*
Y502030D01*
X531750Y535940D02*
X547750D01*
X539750Y527940D02*
Y543940D01*
X531750Y586740D02*
X547750D01*
X539750Y578740D02*
Y594740D01*
X618110Y143510D02*
X634110D01*
X626110Y135510D02*
Y151510D01*
X618110Y194310D02*
X634110D01*
X626110Y186310D02*
Y202310D01*
X567310Y143510D02*
X583310D01*
X575310Y135510D02*
Y151510D01*
X567310Y194310D02*
X583310D01*
X575310Y186310D02*
Y202310D01*
X522860Y1489710D02*
X538860D01*
X530860Y1481710D02*
Y1497710D01*
X522860Y1438910D02*
X538860D01*
X530860Y1430910D02*
Y1446910D01*
X511120Y1614170D02*
X520120D01*
X515620Y1609670D02*
Y1618670D01*
X480950Y1311910D02*
X496950D01*
X488950Y1303910D02*
Y1319910D01*
X485720Y1614170D02*
X494720D01*
X490220Y1609670D02*
Y1618670D01*
X480950Y1362710D02*
X496950D01*
X488950Y1354710D02*
Y1370710D01*
X522860Y713740D02*
X538860D01*
X530860Y705740D02*
Y721740D01*
X522860Y662940D02*
X538860D01*
X530860Y654940D02*
Y670940D01*
X491110Y970280D02*
X507110D01*
X499110Y962280D02*
Y978280D01*
X491110Y919480D02*
X507110D01*
X499110Y911480D02*
Y927480D01*
X480950Y535940D02*
X496950D01*
X488950Y527940D02*
Y543940D01*
X480950Y586740D02*
X496950D01*
X488950Y578740D02*
Y594740D01*
X440310Y919480D02*
X456310D01*
X448310Y911480D02*
Y927480D01*
X440310Y970280D02*
X456310D01*
X448310Y962280D02*
Y978280D01*
X343480Y2096770D02*
X352480D01*
X347980Y2092270D02*
Y2101270D01*
X491110Y194310D02*
X507110D01*
X499110Y186310D02*
Y202310D01*
X491110Y143510D02*
X507110D01*
X499110Y135510D02*
Y151510D01*
X440310Y143510D02*
X456310D01*
X448310Y135510D02*
Y151510D01*
X440310Y194310D02*
X456310D01*
X448310Y186310D02*
Y202310D01*
X1222320Y1183640D02*
X1231320D01*
X1226820Y1179140D02*
Y1188140D01*
X361260Y1243330D02*
X370260D01*
X365760Y1238830D02*
Y1247830D01*
X335860Y1243330D02*
X344860D01*
X340360Y1238830D02*
Y1247830D01*
X361260Y1268730D02*
X370260D01*
X365760Y1264230D02*
Y1273230D01*
X335860Y1268730D02*
X344860D01*
X340360Y1264230D02*
Y1273230D01*
X361260Y1294130D02*
X370260D01*
X365760Y1289630D02*
Y1298630D01*
X335860Y1294130D02*
X344860D01*
X340360Y1289630D02*
Y1298630D01*
X361260Y467360D02*
X370260D01*
X365760Y462860D02*
Y471860D01*
X335860Y467360D02*
X344860D01*
X340360Y462860D02*
Y471860D01*
X361260Y492760D02*
X370260D01*
X365760Y488260D02*
Y497260D01*
X335860Y492760D02*
X344860D01*
X340360Y488260D02*
Y497260D01*
X361260Y518160D02*
X370260D01*
X365760Y513660D02*
Y522660D01*
X335860Y518160D02*
X344860D01*
X340360Y513660D02*
Y522660D01*
X652090Y548640D02*
X661090D01*
X656590Y544140D02*
Y553140D01*
X593210Y168910D02*
X608210D01*
X600710Y161410D02*
Y176410D01*
X506850Y561340D02*
X521850D01*
X514350Y553840D02*
Y568840D01*
X770200Y177800D02*
X779200D01*
X774700Y173300D02*
Y182300D01*
X466210Y168910D02*
X481210D01*
X473710Y161410D02*
Y176410D01*
X740530Y519430D02*
X755530D01*
X748030Y511930D02*
Y526930D01*
X548760Y688340D02*
X563760D01*
X556260Y680840D02*
Y695840D01*
X867530Y519430D02*
X882530D01*
X875030Y511930D02*
Y526930D01*
X868800Y265430D02*
X883800D01*
X876300Y257930D02*
Y272930D01*
X867530Y392430D02*
X882530D01*
X875030Y384930D02*
Y399930D01*
X442540Y501650D02*
X451540D01*
X447040Y497150D02*
Y506150D01*
X1011500Y90170D02*
X1020500D01*
X1016000Y85670D02*
Y94670D01*
X986100Y90170D02*
X995100D01*
X990600Y85670D02*
Y94670D01*
X960700Y90170D02*
X969700D01*
X965200Y85670D02*
Y94670D01*
X935300Y90170D02*
X944300D01*
X939800Y85670D02*
Y94670D01*
X909900Y90170D02*
X918900D01*
X914400Y85670D02*
Y94670D01*
X884500Y90170D02*
X893500D01*
X889000Y85670D02*
Y94670D01*
X630500Y279400D02*
X639500D01*
X635000Y274900D02*
Y283900D01*
X700350Y314960D02*
X709350D01*
X704850Y310460D02*
Y319460D01*
X361260Y403860D02*
X370260D01*
X365760Y399360D02*
Y408360D01*
X335860Y403860D02*
X344860D01*
X340360Y399360D02*
Y408360D01*
X335860Y373380D02*
X344860D01*
X340360Y368880D02*
Y377880D01*
X361260Y373380D02*
X370260D01*
X365760Y368880D02*
Y377880D01*
X1048330Y487680D02*
X1057330D01*
X1052830Y483180D02*
Y492180D01*
X1073730Y487680D02*
X1082730D01*
X1078230Y483180D02*
Y492180D01*
X1073730Y457200D02*
X1082730D01*
X1078230Y452700D02*
Y461700D01*
X1048330Y457200D02*
X1057330D01*
X1052830Y452700D02*
Y461700D01*
X1048330Y403860D02*
X1057330D01*
X1052830Y399360D02*
Y408360D01*
X1073730Y403860D02*
X1082730D01*
X1078230Y399360D02*
Y408360D01*
X1073730Y373380D02*
X1082730D01*
X1078230Y368880D02*
Y377880D01*
X1048330Y373380D02*
X1057330D01*
X1052830Y368880D02*
Y377880D01*
X700350Y1090930D02*
X709350D01*
X704850Y1086430D02*
Y1095430D01*
X442540Y1277620D02*
X451540D01*
X447040Y1273120D02*
Y1282120D01*
X1073730Y1179830D02*
X1082730D01*
X1078230Y1175330D02*
Y1184330D01*
X1048330Y1179830D02*
X1057330D01*
X1052830Y1175330D02*
Y1184330D01*
X1048330Y1149350D02*
X1057330D01*
X1052830Y1144850D02*
Y1153850D01*
X1073730Y1149350D02*
X1082730D01*
X1078230Y1144850D02*
Y1153850D01*
X1073730Y1263650D02*
X1082730D01*
X1078230Y1259150D02*
Y1268150D01*
X1048330Y1263650D02*
X1057330D01*
X1052830Y1259150D02*
Y1268150D01*
X1048330Y1233170D02*
X1057330D01*
X1052830Y1228670D02*
Y1237670D01*
X1073730Y1233170D02*
X1082730D01*
X1078230Y1228670D02*
Y1237670D01*
X335860Y1179830D02*
X344860D01*
X340360Y1175330D02*
Y1184330D01*
X361260Y1179830D02*
X370260D01*
X365760Y1175330D02*
Y1184330D01*
X361260Y1149350D02*
X370260D01*
X365760Y1144850D02*
Y1153850D01*
X335860Y1149350D02*
X344860D01*
X340360Y1144850D02*
Y1153850D01*
X630500Y1055370D02*
X639500D01*
X635000Y1050870D02*
Y1059870D01*
X1011500Y866140D02*
X1020500D01*
X1016000Y861640D02*
Y870640D01*
X986100Y866140D02*
X995100D01*
X990600Y861640D02*
Y870640D01*
X960700Y866140D02*
X969700D01*
X965200Y861640D02*
Y870640D01*
X935300Y866140D02*
X944300D01*
X939800Y861640D02*
Y870640D01*
X909900Y866140D02*
X918900D01*
X914400Y861640D02*
Y870640D01*
X884500Y866140D02*
X893500D01*
X889000Y861640D02*
Y870640D01*
X770200Y953770D02*
X779200D01*
X774700Y949270D02*
Y958270D01*
X652090Y1324610D02*
X661090D01*
X656590Y1320110D02*
Y1329110D01*
X868800Y1041400D02*
X883800D01*
X876300Y1033900D02*
Y1048900D01*
X867530Y1168400D02*
X882530D01*
X875030Y1160900D02*
Y1175900D01*
X548760Y1464310D02*
X563760D01*
X556260Y1456810D02*
Y1471810D01*
X867530Y1295400D02*
X882530D01*
X875030Y1287900D02*
Y1302900D01*
X466210Y944880D02*
X481210D01*
X473710Y937380D02*
Y952380D01*
X740530Y1295400D02*
X755530D01*
X748030Y1287900D02*
Y1302900D01*
X593210Y944880D02*
X608210D01*
X600710Y937380D02*
Y952380D01*
X506850Y1337310D02*
X521850D01*
X514350Y1329810D02*
Y1344810D01*
X1186760Y651510D02*
X1195760D01*
X1191260Y647010D02*
Y656010D01*
X1212160Y651510D02*
X1221160D01*
X1216660Y647010D02*
Y656010D01*
X199970Y669290D02*
X208970D01*
X204470Y664790D02*
Y673790D01*
X225370Y669290D02*
X234370D01*
X229870Y664790D02*
Y673790D01*
X159330Y970280D02*
X168330D01*
X163830Y965780D02*
Y974780D01*
X225370Y775970D02*
X234370D01*
X229870Y771470D02*
Y780470D01*
X199970Y775970D02*
X208970D01*
X204470Y771470D02*
Y780470D01*
X225370Y831850D02*
X234370D01*
X229870Y827350D02*
Y836350D01*
X225370Y806450D02*
X234370D01*
X229870Y801950D02*
Y810950D01*
X1222320Y427990D02*
X1231320D01*
X1226820Y423490D02*
Y432490D01*
X612720Y1614170D02*
X621720D01*
X617220Y1609670D02*
Y1618670D01*
X663520Y1614170D02*
X672520D01*
X668020Y1609670D02*
Y1618670D01*
X638120Y1614170D02*
X647120D01*
X642620Y1609670D02*
Y1618670D01*
X714320Y1614170D02*
X723320D01*
X718820Y1609670D02*
Y1618670D01*
X688920Y1614170D02*
X697920D01*
X693420Y1609670D02*
Y1618670D01*
X765120Y1614170D02*
X774120D01*
X769620Y1609670D02*
Y1618670D01*
X739720Y1614170D02*
X748720D01*
X744220Y1609670D02*
Y1618670D01*
X587320Y1614170D02*
X596320D01*
X591820Y1609670D02*
Y1618670D01*
X1044520Y1690370D02*
X1053520D01*
X1049020Y1685870D02*
Y1694870D01*
X1019120Y1690370D02*
X1028120D01*
X1023620Y1685870D02*
Y1694870D01*
X1044520Y1766570D02*
X1053520D01*
X1049020Y1762070D02*
Y1771070D01*
X1044520Y1741170D02*
X1053520D01*
X1049020Y1736670D02*
Y1745670D01*
X1044520Y1715770D02*
X1053520D01*
X1049020Y1711270D02*
Y1720270D01*
X1044520Y1791970D02*
X1053520D01*
X1049020Y1787470D02*
Y1796470D01*
X1019120Y1766570D02*
X1028120D01*
X1023620Y1762070D02*
Y1771070D01*
X1019120Y1741170D02*
X1028120D01*
X1023620Y1736670D02*
Y1745670D01*
X1019120Y1715770D02*
X1028120D01*
X1023620Y1711270D02*
Y1720270D01*
X1019120Y1791970D02*
X1028120D01*
X1023620Y1787470D02*
Y1796470D01*
X1044520Y1893570D02*
X1053520D01*
X1049020Y1889070D02*
Y1898070D01*
X1044520Y1868170D02*
X1053520D01*
X1049020Y1863670D02*
Y1872670D01*
X1019120Y1868170D02*
X1028120D01*
X1023620Y1863670D02*
Y1872670D01*
X1044520Y1842770D02*
X1053520D01*
X1049020Y1838270D02*
Y1847270D01*
X1019120Y1842770D02*
X1028120D01*
X1023620Y1838270D02*
Y1847270D01*
X1044520Y1817370D02*
X1053520D01*
X1049020Y1812870D02*
Y1821870D01*
X1019120Y1817370D02*
X1028120D01*
X1023620Y1812870D02*
Y1821870D01*
X1019120Y1893570D02*
X1028120D01*
X1023620Y1889070D02*
Y1898070D01*
X1044520Y1969770D02*
X1053520D01*
X1049020Y1965270D02*
Y1974270D01*
X1044520Y1944370D02*
X1053520D01*
X1049020Y1939870D02*
Y1948870D01*
X1044520Y1918970D02*
X1053520D01*
X1049020Y1914470D02*
Y1923470D01*
X1044520Y1995170D02*
X1053520D01*
X1049020Y1990670D02*
Y1999670D01*
X1019120Y1969770D02*
X1028120D01*
X1023620Y1965270D02*
Y1974270D01*
X1019120Y1944370D02*
X1028120D01*
X1023620Y1939870D02*
Y1948870D01*
X1019120Y1918970D02*
X1028120D01*
X1023620Y1914470D02*
Y1923470D01*
X1019120Y1995170D02*
X1028120D01*
X1023620Y1990670D02*
Y1999670D01*
X790520Y2096770D02*
X799520D01*
X795020Y2092270D02*
Y2101270D01*
X841320Y2096770D02*
X850320D01*
X845820Y2092270D02*
Y2101270D01*
X815920Y2096770D02*
X824920D01*
X820420Y2092270D02*
Y2101270D01*
X892120Y2096770D02*
X901120D01*
X896620Y2092270D02*
Y2101270D01*
X866720Y2096770D02*
X875720D01*
X871220Y2092270D02*
Y2101270D01*
X942920Y2096770D02*
X951920D01*
X947420Y2092270D02*
Y2101270D01*
X917520Y2096770D02*
X926520D01*
X922020Y2092270D02*
Y2101270D01*
X765120Y2096770D02*
X774120D01*
X769620Y2092270D02*
Y2101270D01*
X561920Y2096770D02*
X570920D01*
X566420Y2092270D02*
Y2101270D01*
X612720Y2096770D02*
X621720D01*
X617220Y2092270D02*
Y2101270D01*
X587320Y2096770D02*
X596320D01*
X591820Y2092270D02*
Y2101270D01*
X663520Y2096770D02*
X672520D01*
X668020Y2092270D02*
Y2101270D01*
X638120Y2096770D02*
X647120D01*
X642620Y2092270D02*
Y2101270D01*
X714320Y2096770D02*
X723320D01*
X718820Y2092270D02*
Y2101270D01*
X688920Y2096770D02*
X697920D01*
X693420Y2092270D02*
Y2101270D01*
X394280Y2096770D02*
X403280D01*
X398780Y2092270D02*
Y2101270D01*
X368880Y2096770D02*
X377880D01*
X373380Y2092270D02*
Y2101270D01*
X445080Y2096770D02*
X454080D01*
X449580Y2092270D02*
Y2101270D01*
X419680Y2096770D02*
X428680D01*
X424180Y2092270D02*
Y2101270D01*
X292680Y2096770D02*
X301680D01*
X297180Y2092270D02*
Y2101270D01*
X267280Y2096770D02*
X276280D01*
X271780Y2092270D02*
Y2101270D01*
X318080Y2096770D02*
X327080D01*
X322580Y2092270D02*
Y2101270D01*
X495880Y2096770D02*
X504880D01*
X500380Y2092270D02*
Y2101270D01*
X470480Y2096770D02*
X479480D01*
X474980Y2092270D02*
Y2101270D01*
X536520Y2096770D02*
X545520D01*
X541020Y2092270D02*
Y2101270D01*
X1044520Y2096770D02*
X1053520D01*
X1049020Y2092270D02*
Y2101270D01*
X1044520Y2071370D02*
X1053520D01*
X1049020Y2066870D02*
Y2075870D01*
X1019120Y2071370D02*
X1028120D01*
X1023620Y2066870D02*
Y2075870D01*
X1044520Y2045970D02*
X1053520D01*
X1049020Y2041470D02*
Y2050470D01*
X1019120Y2045970D02*
X1028120D01*
X1023620Y2041470D02*
Y2050470D01*
X1044520Y2020570D02*
X1053520D01*
X1049020Y2016070D02*
Y2025070D01*
X1019120Y2020570D02*
X1028120D01*
X1023620Y2016070D02*
Y2025070D01*
X1019120Y2096770D02*
X1028120D01*
X1023620Y2092270D02*
Y2101270D01*
X841320Y1614170D02*
X850320D01*
X845820Y1609670D02*
Y1618670D01*
X892120Y1614170D02*
X901120D01*
X896620Y1609670D02*
Y1618670D01*
X866720Y1614170D02*
X875720D01*
X871220Y1609670D02*
Y1618670D01*
X942920Y1614170D02*
X951920D01*
X947420Y1609670D02*
Y1618670D01*
X917520Y1614170D02*
X926520D01*
X922020Y1609670D02*
Y1618670D01*
X993720Y1614170D02*
X1002720D01*
X998220Y1609670D02*
Y1618670D01*
X968320Y1614170D02*
X977320D01*
X972820Y1609670D02*
Y1618670D01*
X815920Y1614170D02*
X824920D01*
X820420Y1609670D02*
Y1618670D01*
X384120Y1614170D02*
X393120D01*
X388620Y1609670D02*
Y1618670D01*
X434920Y1614170D02*
X443920D01*
X439420Y1609670D02*
Y1618670D01*
X409520Y1614170D02*
X418520D01*
X414020Y1609670D02*
Y1618670D01*
X460320Y1614170D02*
X469320D01*
X464820Y1609670D02*
Y1618670D01*
X536520Y1614170D02*
X545520D01*
X541020Y1609670D02*
Y1618670D01*
X358720Y1614170D02*
X367720D01*
X363220Y1609670D02*
Y1618670D01*
X513305Y389030D02*
X517115D01*
X515210Y387125D02*
Y390935D01*
X524305Y389030D02*
X528115D01*
X526210Y387125D02*
Y390935D01*
X535305Y389030D02*
X539115D01*
X537210Y387125D02*
Y390935D01*
X546305Y389030D02*
X550115D01*
X548210Y387125D02*
Y390935D01*
X557305Y389030D02*
X561115D01*
X559210Y387125D02*
Y390935D01*
X513305Y378030D02*
X517115D01*
X515210Y376125D02*
Y379935D01*
X524305Y378030D02*
X528115D01*
X526210Y376125D02*
Y379935D01*
X535305Y378030D02*
X539115D01*
X537210Y376125D02*
Y379935D01*
X546305Y378030D02*
X550115D01*
X548210Y376125D02*
Y379935D01*
X557305Y378030D02*
X561115D01*
X559210Y376125D02*
Y379935D01*
X513305Y367030D02*
X517115D01*
X515210Y365125D02*
Y368935D01*
X524305Y367030D02*
X528115D01*
X526210Y365125D02*
Y368935D01*
X535305Y367030D02*
X539115D01*
X537210Y365125D02*
Y368935D01*
X546305Y367030D02*
X550115D01*
X548210Y365125D02*
Y368935D01*
X557305Y367030D02*
X561115D01*
X559210Y365125D02*
Y368935D01*
X513305Y356030D02*
X517115D01*
X515210Y354125D02*
Y357935D01*
X524305Y356030D02*
X528115D01*
X526210Y354125D02*
Y357935D01*
X535305Y356030D02*
X539115D01*
X537210Y354125D02*
Y357935D01*
X546305Y356030D02*
X550115D01*
X548210Y354125D02*
Y357935D01*
X557305Y356030D02*
X561115D01*
X559210Y354125D02*
Y357935D01*
X513305Y345030D02*
X517115D01*
X515210Y343125D02*
Y346935D01*
X524305Y345030D02*
X528115D01*
X526210Y343125D02*
Y346935D01*
X535305Y345030D02*
X539115D01*
X537210Y343125D02*
Y346935D01*
X546305Y345030D02*
X550115D01*
X548210Y343125D02*
Y346935D01*
X557305Y345030D02*
X561115D01*
X559210Y343125D02*
Y346935D01*
X513305Y1165000D02*
X517115D01*
X515210Y1163095D02*
Y1166905D01*
X524305Y1165000D02*
X528115D01*
X526210Y1163095D02*
Y1166905D01*
X535305Y1165000D02*
X539115D01*
X537210Y1163095D02*
Y1166905D01*
X546305Y1165000D02*
X550115D01*
X548210Y1163095D02*
Y1166905D01*
X557305Y1165000D02*
X561115D01*
X559210Y1163095D02*
Y1166905D01*
X513305Y1154000D02*
X517115D01*
X515210Y1152095D02*
Y1155905D01*
X524305Y1154000D02*
X528115D01*
X526210Y1152095D02*
Y1155905D01*
X535305Y1154000D02*
X539115D01*
X537210Y1152095D02*
Y1155905D01*
X546305Y1154000D02*
X550115D01*
X548210Y1152095D02*
Y1155905D01*
X557305Y1154000D02*
X561115D01*
X559210Y1152095D02*
Y1155905D01*
X513305Y1143000D02*
X517115D01*
X515210Y1141095D02*
Y1144905D01*
X524305Y1143000D02*
X528115D01*
X526210Y1141095D02*
Y1144905D01*
X535305Y1143000D02*
X539115D01*
X537210Y1141095D02*
Y1144905D01*
X546305Y1143000D02*
X550115D01*
X548210Y1141095D02*
Y1144905D01*
X557305Y1143000D02*
X561115D01*
X559210Y1141095D02*
Y1144905D01*
X513305Y1132000D02*
X517115D01*
X515210Y1130095D02*
Y1133905D01*
X524305Y1132000D02*
X528115D01*
X526210Y1130095D02*
Y1133905D01*
X535305Y1132000D02*
X539115D01*
X537210Y1130095D02*
Y1133905D01*
X546305Y1132000D02*
X550115D01*
X548210Y1130095D02*
Y1133905D01*
X557305Y1132000D02*
X561115D01*
X559210Y1130095D02*
Y1133905D01*
X513305Y1121000D02*
X517115D01*
X515210Y1119095D02*
Y1122905D01*
X524305Y1121000D02*
X528115D01*
X526210Y1119095D02*
Y1122905D01*
X535305Y1121000D02*
X539115D01*
X537210Y1119095D02*
Y1122905D01*
X546305Y1121000D02*
X550115D01*
X548210Y1119095D02*
Y1122905D01*
X557305Y1121000D02*
X561115D01*
X559210Y1119095D02*
Y1122905D01*
X337185Y1046480D02*
X340995D01*
X339090Y1044575D02*
Y1048385D01*
X772795Y261620D02*
X776605D01*
X774700Y259715D02*
Y263525D01*
X260930Y636270D02*
X269930D01*
X265430Y631770D02*
Y640770D01*
X871059Y578624D02*
X874869D01*
X872964Y576719D02*
Y580529D01*
X993394Y1009650D02*
X1000506D01*
X996950Y1006094D02*
Y1013206D01*
X865124Y967740D02*
X872236D01*
X868680Y964184D02*
Y971296D01*
X804167Y877265D02*
X811279D01*
X807723Y873709D02*
Y880821D01*
X1091184Y1082040D02*
X1098296D01*
X1094740Y1078484D02*
Y1085596D01*
X1176274Y1614170D02*
X1183386D01*
X1179830Y1610614D02*
Y1617726D01*
X1092454Y1391920D02*
X1099566D01*
X1096010Y1388364D02*
Y1395476D01*
X1034034Y715010D02*
X1041146D01*
X1037590Y711454D02*
Y718566D01*
X826135Y742950D02*
X829945D01*
X828040Y741045D02*
Y744855D01*
X845185Y721360D02*
X848995D01*
X847090Y719455D02*
Y723265D01*
X876554Y728980D02*
X883666D01*
X880110Y725424D02*
Y732536D01*
X687324Y763270D02*
X694436D01*
X690880Y759714D02*
Y766826D01*
X1347724Y1501140D02*
X1354836D01*
X1351280Y1497584D02*
Y1504696D01*
X1220724Y1626870D02*
X1227836D01*
X1224280Y1623314D02*
Y1630426D01*
X1275334Y284480D02*
X1282446D01*
X1278890Y280924D02*
Y288036D01*
X950375Y321208D02*
X954185D01*
X952280Y319303D02*
Y323113D01*
X1268984Y1657350D02*
X1276096D01*
X1272540Y1653794D02*
Y1660906D01*
X1284605Y533400D02*
X1288415D01*
X1286510Y531495D02*
Y535305D01*
X1280414Y857250D02*
X1287526D01*
X1283970Y853694D02*
Y860806D01*
X1285875Y1267460D02*
X1289685D01*
X1287780Y1265555D02*
Y1269365D01*
X1285875Y1289050D02*
X1289685D01*
X1287780Y1287145D02*
Y1290955D01*
X1285875Y1245870D02*
X1289685D01*
X1287780Y1243965D02*
Y1247775D01*
X1264285Y581660D02*
X1268095D01*
X1266190Y579755D02*
Y583565D01*
X1034034Y1465580D02*
X1041146D01*
X1037590Y1462024D02*
Y1469136D01*
X1032764Y1621790D02*
X1039876D01*
X1036320Y1618234D02*
Y1625346D01*
X929894Y1188720D02*
X937006D01*
X933450Y1185164D02*
Y1192276D01*
X769874Y1049020D02*
X776986D01*
X773430Y1045464D02*
Y1052576D01*
X929894Y1125220D02*
X937006D01*
X933450Y1121664D02*
Y1128776D01*
X960374Y1225550D02*
X967486D01*
X963930Y1221994D02*
Y1229106D01*
X989584Y1273810D02*
X996696D01*
X993140Y1270254D02*
Y1277366D01*
X1022604Y1301750D02*
X1029716D01*
X1026160Y1298194D02*
Y1305306D01*
X1083659Y1655174D02*
X1087469D01*
X1085564Y1653269D02*
Y1657079D01*
X719455Y1644650D02*
X723265D01*
X721360Y1642745D02*
Y1646555D01*
X719728Y1693180D02*
X723538D01*
X721633Y1691275D02*
Y1695085D01*
X730885Y1634490D02*
X734695D01*
X732790Y1632585D02*
Y1636395D01*
X732155Y1681480D02*
X735965D01*
X734060Y1679575D02*
Y1683385D01*
X639147Y1380634D02*
X642957D01*
X641052Y1378729D02*
Y1382539D01*
X1096645Y1667510D02*
X1100455D01*
X1098550Y1665605D02*
Y1669415D01*
X1214755Y1713865D02*
X1218565D01*
X1216660Y1711960D02*
Y1715770D01*
X1113155Y1720365D02*
X1116965D01*
X1115060Y1718460D02*
Y1722270D01*
X1162304Y1720850D02*
X1169416D01*
X1165860Y1717294D02*
Y1724406D01*
X1147445Y1821180D02*
X1151255D01*
X1149350Y1819275D02*
Y1823085D01*
X1169035Y1821180D02*
X1172845D01*
X1170940Y1819275D02*
Y1823085D01*
X1190625Y1821180D02*
X1194435D01*
X1192530Y1819275D02*
Y1823085D01*
X1113155Y1700530D02*
X1116965D01*
X1115060Y1698625D02*
Y1702435D01*
X1243584Y1314450D02*
X1250696D01*
X1247140Y1310894D02*
Y1318006D01*
X1284605Y490220D02*
X1288415D01*
X1286510Y488315D02*
Y492125D01*
X1284605Y511810D02*
X1288415D01*
X1286510Y509905D02*
Y513715D01*
X203835Y336550D02*
X207645D01*
X205740Y334645D02*
Y338455D01*
X161206Y438174D02*
X165016D01*
X163111Y436269D02*
Y440079D01*
X160655Y403860D02*
X164465D01*
X162560Y401955D02*
Y405765D01*
X170815Y360680D02*
X174625D01*
X172720Y358775D02*
Y362585D01*
X1044194Y932180D02*
X1051306D01*
X1047750Y928624D02*
Y935736D01*
X1044194Y953770D02*
X1051306D01*
X1047750Y950214D02*
Y957326D01*
X1044194Y975360D02*
X1051306D01*
X1047750Y971804D02*
Y978916D01*
X1044194Y156210D02*
X1051306D01*
X1047750Y152654D02*
Y159766D01*
X1044194Y177800D02*
X1051306D01*
X1047750Y174244D02*
Y181356D01*
X1044194Y198120D02*
X1051306D01*
X1047750Y194564D02*
Y201676D01*
X185768Y337062D02*
X189578D01*
X187673Y335157D02*
Y338967D01*
X226408Y337062D02*
X230218D01*
X228313Y335157D02*
Y338967D01*
X203835Y314325D02*
X207645D01*
X205740Y312420D02*
Y316230D01*
X191135Y319405D02*
X194945D01*
X193040Y317500D02*
Y321310D01*
X256794Y313055D02*
X263906D01*
X260350Y309499D02*
Y316611D01*
X703685Y624433D02*
X707495D01*
X705590Y622528D02*
Y626338D01*
X703475Y645795D02*
X707285D01*
X705380Y643890D02*
Y647700D01*
X703729Y1399540D02*
X707539D01*
X705634Y1397635D02*
Y1401445D01*
X702945Y1421130D02*
X706755D01*
X704850Y1419225D02*
Y1423035D01*
X229235Y1112520D02*
X233045D01*
X231140Y1110615D02*
Y1114425D01*
X207645Y1112520D02*
X211455D01*
X209550Y1110615D02*
Y1114425D01*
X186055Y1112520D02*
X189865D01*
X187960Y1110615D02*
Y1114425D01*
X545084Y251460D02*
X552196D01*
X548640Y247904D02*
Y255016D01*
X524764Y251460D02*
X531876D01*
X528320Y247904D02*
Y255016D01*
X503174Y251460D02*
X510286D01*
X506730Y247904D02*
Y255016D01*
X481584Y251460D02*
X488696D01*
X485140Y247904D02*
Y255016D01*
X458724Y228600D02*
X465836D01*
X462280Y225044D02*
Y232156D01*
X545084Y1029970D02*
X552196D01*
X548640Y1026414D02*
Y1033526D01*
X524764Y1029970D02*
X531876D01*
X528320Y1026414D02*
Y1033526D01*
X503174Y1029970D02*
X510286D01*
X506730Y1026414D02*
Y1033526D01*
X481584Y1029970D02*
X488696D01*
X485140Y1026414D02*
Y1033526D01*
X426085Y351790D02*
X429895D01*
X427990Y349885D02*
Y353695D01*
X426085Y373380D02*
X429895D01*
X427990Y371475D02*
Y375285D01*
X426085Y417195D02*
X429895D01*
X427990Y415290D02*
Y419100D01*
X426085Y396240D02*
X429895D01*
X427990Y394335D02*
Y398145D01*
X442214Y1233170D02*
X449326D01*
X445770Y1229614D02*
Y1236726D01*
X426085Y1192530D02*
X429895D01*
X427990Y1190625D02*
Y1194435D01*
X426085Y1170940D02*
X429895D01*
X427990Y1169035D02*
Y1172845D01*
X426085Y1127760D02*
X429895D01*
X427990Y1125855D02*
Y1129665D01*
X426085Y1149350D02*
X429895D01*
X427990Y1147445D02*
Y1151255D01*
X474345Y1176020D02*
X478155D01*
X476250Y1174115D02*
Y1177925D01*
X477253Y1187695D02*
X481063D01*
X479158Y1185790D02*
Y1189601D01*
X437515Y1494155D02*
X441325D01*
X439420Y1492250D02*
Y1496060D01*
X423545Y1494155D02*
X427355D01*
X425450Y1492250D02*
Y1496060D01*
X409575Y1494155D02*
X413385D01*
X411480Y1492250D02*
Y1496060D01*
X395605Y1494155D02*
X399415D01*
X397510Y1492250D02*
Y1496060D01*
X451485Y1494155D02*
X455295D01*
X453390Y1492250D02*
Y1496060D01*
X428244Y1318260D02*
X435356D01*
X431800Y1314704D02*
Y1321816D01*
X338455Y1502410D02*
X342265D01*
X340360Y1500505D02*
Y1504315D01*
X34925Y1437640D02*
X38735D01*
X36830Y1435735D02*
Y1439545D01*
X67945Y1430020D02*
X71755D01*
X69850Y1428115D02*
Y1431925D01*
X34925Y1493520D02*
X38735D01*
X36830Y1491615D02*
Y1495425D01*
X34925Y1479550D02*
X38735D01*
X36830Y1477645D02*
Y1481455D01*
X34925Y1465580D02*
X38735D01*
X36830Y1463675D02*
Y1467485D01*
X34925Y1451610D02*
X38735D01*
X36830Y1449705D02*
Y1453515D01*
X449834Y1319530D02*
X456946D01*
X453390Y1315974D02*
Y1323086D01*
X501015Y1201420D02*
X504825D01*
X502920Y1199515D02*
Y1203325D01*
X479425Y1201420D02*
X483235D01*
X481330Y1199515D02*
Y1203325D01*
X419354Y1304290D02*
X426466D01*
X422910Y1300734D02*
Y1307846D01*
X409829Y1286510D02*
X416941D01*
X413385Y1282954D02*
Y1290066D01*
X1143254Y1113790D02*
X1150366D01*
X1146810Y1110234D02*
Y1117346D01*
X1178814Y1134110D02*
X1185926D01*
X1182370Y1130554D02*
Y1137666D01*
X1190244Y943610D02*
X1197356D01*
X1193800Y940054D02*
Y947166D01*
X1178814Y869950D02*
X1185926D01*
X1182370Y866394D02*
Y873506D01*
X853694Y808990D02*
X860806D01*
X857250Y805434D02*
Y812546D01*
X840994Y855980D02*
X848106D01*
X844550Y852424D02*
Y859536D01*
X776298Y891714D02*
X780108D01*
X778203Y889809D02*
Y893620D01*
X736484Y934720D02*
X740294D01*
X738389Y932815D02*
Y936625D01*
X704215Y703580D02*
X708025D01*
X706120Y701675D02*
Y705485D01*
X686054Y678180D02*
X693166D01*
X689610Y674624D02*
Y681736D01*
X703528Y662047D02*
X707338D01*
X705433Y660142D02*
Y663952D01*
X1241171Y563880D02*
X1248283D01*
X1244727Y560324D02*
Y567436D01*
X251714Y349250D02*
X258826D01*
X255270Y345694D02*
Y352806D01*
X393954Y1281430D02*
X401066D01*
X397510Y1277874D02*
Y1284986D01*
X536575Y1080770D02*
X540385D01*
X538480Y1078865D02*
Y1082675D01*
X192024Y217170D02*
X199136D01*
X195580Y213614D02*
Y220726D01*
X184404Y231140D02*
X191516D01*
X187960Y227584D02*
Y234696D01*
X147574Y273050D02*
X154686D01*
X151130Y269494D02*
Y276606D01*
X161544Y259080D02*
X168656D01*
X165100Y255524D02*
Y262636D01*
X212725Y276860D02*
X216535D01*
X214630Y274955D02*
Y278765D01*
X171704Y242570D02*
X178816D01*
X175260Y239014D02*
Y246126D01*
X251714Y279400D02*
X258826D01*
X255270Y275844D02*
Y282956D01*
X256223Y297751D02*
X263335D01*
X259779Y294195D02*
Y301307D01*
X514754Y309245D02*
X518564D01*
X516659Y307340D02*
Y311150D01*
X315595Y275590D02*
X319405D01*
X317500Y273685D02*
Y277495D01*
X535305Y303530D02*
X539115D01*
X537210Y301625D02*
Y305435D01*
X526415Y312420D02*
X530225D01*
X528320Y310515D02*
Y314325D01*
X202023Y283806D02*
X205833D01*
X203928Y281901D02*
Y285711D01*
X303017Y212212D02*
X306827D01*
X304922Y210307D02*
Y214117D01*
X235204Y288290D02*
X242316D01*
X238760Y284734D02*
Y291846D01*
X203835Y303530D02*
X207645D01*
X205740Y301625D02*
Y305435D01*
X274574Y330200D02*
X281686D01*
X278130Y326644D02*
Y333756D01*
X477261Y414392D02*
X481071D01*
X479165Y412487D02*
Y416297D01*
X476885Y384810D02*
X480695D01*
X478790Y382905D02*
Y386715D01*
X476885Y1160780D02*
X480695D01*
X478790Y1158875D02*
Y1162685D01*
X527685Y1092200D02*
X531495D01*
X529590Y1090295D02*
Y1094105D01*
X474329Y400330D02*
X478139D01*
X476234Y398425D02*
Y402235D01*
X99695Y1027430D02*
X103505D01*
X101600Y1025525D02*
Y1029335D01*
X135255Y1027430D02*
X139065D01*
X137160Y1025525D02*
Y1029335D01*
X90805Y1016000D02*
X94615D01*
X92710Y1014095D02*
Y1017905D01*
X126365Y1016000D02*
X130175D01*
X128270Y1014095D02*
Y1017905D01*
X117475Y1027430D02*
X121285D01*
X119380Y1025525D02*
Y1029335D01*
X108585Y1016000D02*
X112395D01*
X110490Y1014095D02*
Y1017905D01*
X116205Y939800D02*
X120015D01*
X118110Y937895D02*
Y941705D01*
X143720Y950506D02*
X147530D01*
X145625Y948601D02*
Y952411D01*
X125095Y951230D02*
X128905D01*
X127000Y949325D02*
Y953135D01*
X133985Y939800D02*
X137795D01*
X135890Y937895D02*
Y941705D01*
X107315Y951230D02*
X111125D01*
X109220Y949325D02*
Y953135D01*
X98425Y939800D02*
X102235D01*
X100330Y937895D02*
Y941705D01*
X233045Y527050D02*
X236855D01*
X234950Y525145D02*
Y528955D01*
X233045Y513080D02*
X236855D01*
X234950Y511175D02*
Y514985D01*
X234315Y496570D02*
X238125D01*
X236220Y494665D02*
Y498475D01*
X235585Y546100D02*
X239395D01*
X237490Y544195D02*
Y548005D01*
X227965Y562610D02*
X231775D01*
X229870Y560705D02*
Y564515D01*
X231775Y581660D02*
X235585D01*
X233680Y579755D02*
Y583565D01*
X294005Y516890D02*
X297815D01*
X295910Y514985D02*
Y518795D01*
X277495Y527050D02*
X281305D01*
X279400Y525145D02*
Y528955D01*
X290195Y537210D02*
X294005D01*
X292100Y535305D02*
Y539115D01*
X277495Y546100D02*
X281305D01*
X279400Y544195D02*
Y548005D01*
X288925Y558800D02*
X292735D01*
X290830Y556895D02*
Y560705D01*
X278765Y571500D02*
X282575D01*
X280670Y569595D02*
Y573405D01*
X432435Y725170D02*
X436245D01*
X434340Y723265D02*
Y727075D01*
X429895Y701040D02*
X433705D01*
X431800Y699135D02*
Y702945D01*
X716915Y721360D02*
X720725D01*
X718820Y719455D02*
Y723265D01*
X216535Y1023620D02*
X220345D01*
X218440Y1021715D02*
Y1025525D01*
X208915Y1009650D02*
X212725D01*
X210820Y1007745D02*
Y1011555D01*
X225425Y1010920D02*
X229235D01*
X227330Y1009015D02*
Y1012825D01*
X224155Y1037590D02*
X227965D01*
X226060Y1035685D02*
Y1039495D01*
X213995Y1047750D02*
X217805D01*
X215900Y1045845D02*
Y1049655D01*
X225425Y1057910D02*
X229235D01*
X227330Y1056005D02*
Y1059815D01*
X172085Y1046480D02*
X175895D01*
X173990Y1044575D02*
Y1048385D01*
X174625Y1031240D02*
X178435D01*
X176530Y1029335D02*
Y1033145D01*
X133604Y886460D02*
X140716D01*
X137160Y882904D02*
Y890016D01*
X258445Y990600D02*
X262255D01*
X260350Y988695D02*
Y992505D01*
X259715Y1005840D02*
X263525D01*
X261620Y1003935D02*
Y1007745D01*
X254635Y1018540D02*
X258445D01*
X256540Y1016635D02*
Y1020445D01*
X257175Y1032510D02*
X260985D01*
X259080Y1030605D02*
Y1034415D01*
X258445Y1046480D02*
X262255D01*
X260350Y1044575D02*
Y1048385D01*
X266065Y1057910D02*
X269875D01*
X267970Y1056005D02*
Y1059815D01*
X1264285Y572770D02*
X1268095D01*
X1266190Y570865D02*
Y574675D01*
X1204595Y554990D02*
X1208405D01*
X1206500Y553085D02*
Y556895D01*
X1204595Y568960D02*
X1208405D01*
X1206500Y567055D02*
Y570865D01*
X149225Y1179830D02*
X153035D01*
X151130Y1177925D02*
Y1181735D01*
X292105Y1166636D02*
X295915D01*
X294010Y1164731D02*
Y1168541D01*
X307019Y1162471D02*
X310829D01*
X308924Y1160566D02*
Y1164376D01*
X1141984Y937260D02*
X1149096D01*
X1145540Y933704D02*
Y940816D01*
X926084Y171450D02*
X933196D01*
X929640Y167894D02*
Y175006D01*
X940054Y226060D02*
X947166D01*
X943610Y222504D02*
Y229616D01*
X767230Y132565D02*
X771040D01*
X769135Y130660D02*
Y134470D01*
X723265Y104775D02*
X727075D01*
X725170Y102870D02*
Y106680D01*
X771808Y111255D02*
X775619D01*
X773714Y109349D02*
Y113160D01*
X804164Y97790D02*
X811276D01*
X807720Y94234D02*
Y101346D01*
X765175Y142240D02*
X768985D01*
X767080Y140335D02*
Y144145D01*
X257175Y439420D02*
X260985D01*
X259080Y437515D02*
Y441325D01*
X257175Y420370D02*
X260985D01*
X259080Y418465D02*
Y422275D01*
X230505Y471170D02*
X234315D01*
X232410Y469265D02*
Y473075D01*
X230505Y453390D02*
X234315D01*
X232410Y451485D02*
Y455295D01*
X200025Y650240D02*
X203835D01*
X201930Y648335D02*
Y652145D01*
X716915Y182880D02*
X720725D01*
X718820Y180975D02*
Y184785D01*
X727075Y158750D02*
X730885D01*
X728980Y156845D02*
Y160655D01*
X718416Y960351D02*
X722226D01*
X720321Y958446D02*
Y962256D01*
X767230Y908535D02*
X771040D01*
X769135Y906630D02*
Y910440D01*
X749300Y928370D02*
X753110D01*
X751205Y926465D02*
Y930275D01*
X896220Y950614D02*
X903332D01*
X899776Y947058D02*
Y954170D01*
X940054Y1016000D02*
X947166D01*
X943610Y1012444D02*
Y1019556D01*
X723265Y880745D02*
X727075D01*
X725170Y878840D02*
Y882650D01*
X765175Y918210D02*
X768985D01*
X767080Y916305D02*
Y920115D01*
X945134Y538480D02*
X952246D01*
X948690Y534924D02*
Y542036D01*
X631825Y675640D02*
X635635D01*
X633730Y673735D02*
Y677545D01*
X687705Y817880D02*
X691515D01*
X689610Y815975D02*
Y819785D01*
X1171575Y1183640D02*
X1175385D01*
X1173480Y1181735D02*
Y1185545D01*
X1213104Y755650D02*
X1220216D01*
X1216660Y752094D02*
Y759206D01*
X1055624Y557530D02*
X1062736D01*
X1059180Y553974D02*
Y561086D01*
X1222078Y670560D02*
X1225888D01*
X1223983Y668655D02*
Y672465D01*
X1156627Y487083D02*
X1163739D01*
X1160183Y483527D02*
Y490639D01*
X1105154Y535940D02*
X1112266D01*
X1108710Y532384D02*
Y539496D01*
X1217295Y775970D02*
X1221105D01*
X1219200Y774065D02*
Y777875D01*
X1026414Y824230D02*
X1033526D01*
X1029970Y820674D02*
Y827786D01*
X1051814Y781050D02*
X1058926D01*
X1055370Y777494D02*
Y784606D01*
X1006094Y1071880D02*
X1013206D01*
X1009650Y1068324D02*
Y1075436D01*
X1004824Y294640D02*
X1011936D01*
X1008380Y291084D02*
Y298196D01*
X612775Y847090D02*
X616585D01*
X614680Y845185D02*
Y848995D01*
X842264Y765810D02*
X849376D01*
X845820Y762254D02*
Y769366D01*
X704215Y820420D02*
X708025D01*
X706120Y818515D02*
Y822325D01*
X749554Y853440D02*
X756666D01*
X753110Y849884D02*
Y856996D01*
X704215Y889000D02*
X708025D01*
X706120Y887095D02*
Y890905D01*
X702945Y44450D02*
X706755D01*
X704850Y42545D02*
Y46355D01*
X704215Y113030D02*
X708025D01*
X706120Y111125D02*
Y114935D01*
X190500Y862330D02*
X194310D01*
X192405Y860425D02*
Y864235D01*
X196160Y886460D02*
X205160D01*
X200660Y881960D02*
Y890960D01*
X338061Y917673D02*
X345173D01*
X341617Y914117D02*
Y921229D01*
X339725Y1036955D02*
X343535D01*
X341630Y1035050D02*
Y1038860D01*
X318135Y1000760D02*
X321945D01*
X320040Y998855D02*
Y1002665D01*
X305435Y988060D02*
X309245D01*
X307340Y986155D02*
Y989965D01*
X311907Y1006988D02*
X315717D01*
X313812Y1005083D02*
Y1008893D01*
X323465Y1020830D02*
X327275D01*
X325370Y1018925D02*
Y1022735D01*
X315595Y250190D02*
X319405D01*
X317500Y248285D02*
Y252095D01*
X302895Y262890D02*
X306705D01*
X304800Y260985D02*
Y264795D01*
X315595Y224790D02*
X319405D01*
X317500Y222885D02*
Y226695D01*
X302895Y237490D02*
X306705D01*
X304800Y235585D02*
Y239395D01*
X200480Y410514D02*
X207592D01*
X204036Y406958D02*
Y414070D01*
X133604Y674370D02*
X140716D01*
X137160Y670814D02*
Y677926D01*
X133604Y781050D02*
X140716D01*
X137160Y777494D02*
Y784606D01*
X162814Y1139190D02*
X169926D01*
X166370Y1135634D02*
Y1142746D01*
X1280414Y646430D02*
X1287526D01*
X1283970Y642874D02*
Y649986D01*
X1280414Y751840D02*
X1287526D01*
X1283970Y748284D02*
Y755396D01*
X200025Y756920D02*
X203835D01*
X201930Y755015D02*
Y758825D01*
X998474Y125730D02*
X1005586D01*
X1002030Y122174D02*
Y129286D01*
X655955Y74930D02*
X659765D01*
X657860Y73025D02*
Y76835D01*
X687705Y41910D02*
X691515D01*
X689610Y40005D02*
Y43815D01*
X788035Y759460D02*
X791845D01*
X789940Y757555D02*
Y761365D01*
X442214Y311150D02*
X449326D01*
X445770Y307594D02*
Y314706D01*
X629920Y457200D02*
X633730D01*
X631825Y455295D02*
Y459105D01*
X643443Y446641D02*
X647253D01*
X645348Y444736D02*
Y448546D01*
X986155Y389890D02*
X989965D01*
X988060Y387985D02*
Y391795D01*
X634757Y397702D02*
X638567D01*
X636662Y395798D02*
Y399608D01*
X655955Y408940D02*
X659765D01*
X657860Y407035D02*
Y410845D01*
X442214Y457200D02*
X449326D01*
X445770Y453644D02*
Y460756D01*
X639147Y604664D02*
X642957D01*
X641052Y602759D02*
Y606569D01*
X581025Y613410D02*
X584835D01*
X582930Y611505D02*
Y615315D01*
X639147Y588154D02*
X642957D01*
X641052Y586249D02*
Y590059D01*
X581025Y596900D02*
X584835D01*
X582930Y594995D02*
Y598805D01*
X578485Y539750D02*
X582295D01*
X580390Y537845D02*
Y541655D01*
X755904Y224790D02*
X763016D01*
X759460Y221234D02*
Y228346D01*
X747395Y152400D02*
X751205D01*
X749300Y150495D02*
Y154305D01*
X696595Y262890D02*
X700405D01*
X698500Y260985D02*
Y264795D01*
X714375Y273050D02*
X718185D01*
X716280Y271145D02*
Y274955D01*
X788035Y637540D02*
X791845D01*
X789940Y635635D02*
Y639445D01*
X788035Y576580D02*
X791845D01*
X789940Y574675D02*
Y578485D01*
X661035Y109220D02*
X664845D01*
X662940Y107315D02*
Y111125D01*
X792734Y124460D02*
X799846D01*
X796290Y120904D02*
Y128016D01*
X749554Y77470D02*
X756666D01*
X753110Y73914D02*
Y81026D01*
X612775Y71120D02*
X616585D01*
X614680Y69215D02*
Y73025D01*
X758444Y60960D02*
X765556D01*
X762000Y57404D02*
Y64516D01*
X788035Y698500D02*
X791845D01*
X789940Y696595D02*
Y700405D01*
X845185Y660400D02*
X848995D01*
X847090Y658495D02*
Y662305D01*
X845185Y599440D02*
X848995D01*
X847090Y597535D02*
Y601345D01*
X687705Y402590D02*
X691515D01*
X689610Y400685D02*
Y404495D01*
X687705Y377190D02*
X691515D01*
X689610Y375285D02*
Y379095D01*
X687705Y351790D02*
X691515D01*
X689610Y349885D02*
Y353695D01*
X476885Y330200D02*
X480695D01*
X478790Y328295D02*
Y332105D01*
X476885Y351790D02*
X480695D01*
X478790Y349885D02*
Y353695D01*
X479425Y425450D02*
X483235D01*
X481330Y423545D02*
Y427355D01*
X501015Y425450D02*
X504825D01*
X502920Y423545D02*
Y427355D01*
X606425Y292100D02*
X610235D01*
X608330Y290195D02*
Y294005D01*
X629920Y1233170D02*
X633730D01*
X631825Y1231265D02*
Y1235075D01*
X581025Y1389380D02*
X584835D01*
X582930Y1387475D02*
Y1391285D01*
X639147Y1364124D02*
X642957D01*
X641052Y1362219D02*
Y1366029D01*
X581025Y1372870D02*
X584835D01*
X582930Y1370965D02*
Y1374775D01*
X758444Y836930D02*
X765556D01*
X762000Y833374D02*
Y840486D01*
X696595Y1038860D02*
X700405D01*
X698500Y1036955D02*
Y1040765D01*
X755904Y1000760D02*
X763016D01*
X759460Y997204D02*
Y1004316D01*
X998474Y901700D02*
X1005586D01*
X1002030Y898144D02*
Y905256D01*
X655955Y1184910D02*
X659765D01*
X657860Y1183005D02*
Y1186815D01*
X661035Y885190D02*
X664845D01*
X662940Y883285D02*
Y887095D01*
X631825Y1451610D02*
X635635D01*
X633730Y1449705D02*
Y1453515D01*
X708025Y1454150D02*
X711835D01*
X709930Y1452245D02*
Y1456055D01*
X687705Y1127760D02*
X691515D01*
X689610Y1125855D02*
Y1129665D01*
X687705Y1153160D02*
X691515D01*
X689610Y1151255D02*
Y1155065D01*
X687705Y1178560D02*
X691515D01*
X689610Y1176655D02*
Y1180465D01*
X643443Y1222611D02*
X647253D01*
X645348Y1220706D02*
Y1224516D01*
X578485Y1315720D02*
X582295D01*
X580390Y1313815D02*
Y1317625D01*
X1171575Y427990D02*
X1175385D01*
X1173480Y426085D02*
Y429895D01*
X1217295Y881380D02*
X1221105D01*
X1219200Y879475D02*
Y883285D01*
X476885Y373380D02*
X480695D01*
X478790Y371475D02*
Y375285D01*
X826135Y681990D02*
X829945D01*
X828040Y680085D02*
Y683895D01*
X826135Y621030D02*
X829945D01*
X828040Y619125D02*
Y622935D01*
X495935Y308610D02*
X499745D01*
X497840Y306705D02*
Y310515D01*
X945134Y355600D02*
X952246D01*
X948690Y352044D02*
Y359156D01*
X606425Y1068070D02*
X610235D01*
X608330Y1066165D02*
Y1069975D01*
X514985Y1084580D02*
X518795D01*
X516890Y1082675D02*
Y1086485D01*
X476885Y1106170D02*
X480695D01*
X478790Y1104265D02*
Y1108075D01*
X476885Y1127760D02*
X480695D01*
X478790Y1125855D02*
Y1129665D01*
X458724Y1004570D02*
X465836D01*
X462280Y1001014D02*
Y1008126D01*
X845185Y1375410D02*
X848995D01*
X847090Y1373505D02*
Y1377315D01*
X845185Y1436370D02*
X848995D01*
X847090Y1434465D02*
Y1438275D01*
X845185Y1497330D02*
X848995D01*
X847090Y1495425D02*
Y1499235D01*
X993775Y1294130D02*
X997585D01*
X995680Y1292225D02*
Y1296035D01*
X714375Y1049020D02*
X718185D01*
X716280Y1047115D02*
Y1050925D01*
X634757Y1173672D02*
X638567D01*
X636662Y1171768D02*
Y1175577D01*
X655955Y850900D02*
X659765D01*
X657860Y848995D02*
Y852805D01*
X788035Y1474470D02*
X791845D01*
X789940Y1472565D02*
Y1476375D01*
X788035Y1413510D02*
X791845D01*
X789940Y1411605D02*
Y1415415D01*
X826135Y1457960D02*
X829945D01*
X828040Y1456055D02*
Y1459865D01*
X687324Y1454150D02*
X694436D01*
X690880Y1450594D02*
Y1457706D01*
X826135Y1397000D02*
X829945D01*
X828040Y1395095D02*
Y1398905D01*
X788035Y1352550D02*
X791845D01*
X789940Y1350645D02*
Y1354455D01*
X788035Y1535430D02*
X791845D01*
X789940Y1533525D02*
Y1537335D01*
X826135Y1518920D02*
X829945D01*
X828040Y1517015D02*
Y1520825D01*
X945134Y1131570D02*
X952246D01*
X948690Y1128014D02*
Y1135126D01*
X950375Y1097178D02*
X954185D01*
X952280Y1095273D02*
Y1099083D01*
X986155Y1165860D02*
X989965D01*
X988060Y1163955D02*
Y1167765D01*
X942594Y1304290D02*
X949706D01*
X946150Y1300734D02*
Y1307846D01*
X476885Y1149350D02*
X480695D01*
X478790Y1147445D02*
Y1151255D01*
X495935Y1084580D02*
X499745D01*
X497840Y1082675D02*
Y1086485D01*
X442214Y1087120D02*
X449326D01*
X445770Y1083564D02*
Y1090676D01*
M02*
