G04*
G04 #@! TF.GenerationSoftware,Altium Limited,Altium Designer,23.5.1 (21)*
G04*
G04 Layer_Color=128*
%FSLAX26Y26*%
%MOIN*%
G70*
G04*
G04 #@! TF.SameCoordinates,6A5F5C75-F477-485A-9627-383C203D1060*
G04*
G04*
G04 #@! TF.FilePolarity,Positive*
G04*
G01*
G75*
%ADD76C,0.005000*%
D76*
X4860000Y150000D02*
X4960000D01*
X4910000Y100000D02*
Y200000D01*
X5360000Y650000D02*
X5460000D01*
X5410000Y600000D02*
Y700000D01*
X5360000Y8100000D02*
X5460000D01*
X5410000Y8050000D02*
Y8150000D01*
X4860000Y8600000D02*
X4960000D01*
X4910000Y8550000D02*
Y8650000D01*
X600000Y150000D02*
X700000D01*
X650000Y100000D02*
Y200000D01*
X100000Y650000D02*
X200000D01*
X150000Y600000D02*
Y700000D01*
X100000Y8100000D02*
X200000D01*
X150000Y8050000D02*
Y8150000D01*
X600000Y8600000D02*
X700000D01*
X650000Y8550000D02*
Y8650000D01*
X4692283Y4660000D02*
X4727717D01*
X4710000Y4642283D02*
Y4677717D01*
X2447284Y5215000D02*
X2482716D01*
X2465000Y5197283D02*
Y5232717D01*
X2447284Y2160000D02*
X2482716D01*
X2465000Y2142284D02*
Y2177716D01*
X4692283Y1685000D02*
X4727717D01*
X4710000Y1667284D02*
Y1702716D01*
X2912284Y3755000D02*
X2947716D01*
X2930000Y3737284D02*
Y3772716D01*
X2912284Y700000D02*
X2947716D01*
X2930000Y682284D02*
Y717716D01*
X100000Y8600000D02*
X200000D01*
X150000Y8550000D02*
Y8650000D01*
X100000Y150000D02*
X200000D01*
X150000Y100000D02*
Y200000D01*
X627284Y3920000D02*
X662716D01*
X645000Y3902284D02*
Y3937716D01*
X5360000Y8600000D02*
X5460000D01*
X5410000Y8550000D02*
Y8650000D01*
X4112283Y6555000D02*
X4147717D01*
X4130000Y6537283D02*
Y6572717D01*
X4012284Y6555000D02*
X4047716D01*
X4030000Y6537283D02*
Y6572717D01*
X3513504Y5200000D02*
X3576496D01*
X3545000Y5168504D02*
Y5231496D01*
X3313504Y5200000D02*
X3376496D01*
X3345000Y5168504D02*
Y5231496D01*
X3513504Y5000000D02*
X3576496D01*
X3545000Y4968504D02*
Y5031496D01*
X3313504Y4700000D02*
X3376496D01*
X3345000Y4668504D02*
Y4731496D01*
X3313504Y5000000D02*
X3376496D01*
X3345000Y4968504D02*
Y5031496D01*
X3513504Y4500000D02*
X3576496D01*
X3545000Y4468504D02*
Y4531496D01*
X3513504Y4700000D02*
X3576496D01*
X3545000Y4668504D02*
Y4731496D01*
X3518504Y4200000D02*
X3581496D01*
X3550000Y4168504D02*
Y4231496D01*
X3318504Y4200000D02*
X3381496D01*
X3350000Y4168504D02*
Y4231496D01*
X3313504Y4500000D02*
X3376496D01*
X3345000Y4468504D02*
Y4531496D01*
X3518504Y4000000D02*
X3581496D01*
X3550000Y3968504D02*
Y4031496D01*
X3318504Y4000000D02*
X3381496D01*
X3350000Y3968504D02*
Y4031496D01*
X2813504Y5200000D02*
X2876496D01*
X2845000Y5168504D02*
Y5231496D01*
X2258504Y5665000D02*
X2321496D01*
X2290000Y5633504D02*
Y5696496D01*
X2258504Y5865000D02*
X2321496D01*
X2290000Y5833504D02*
Y5896496D01*
X3013504Y5200000D02*
X3076496D01*
X3045000Y5168504D02*
Y5231496D01*
X3013504Y5000000D02*
X3076496D01*
X3045000Y4968504D02*
Y5031496D01*
X2813504Y5000000D02*
X2876496D01*
X2845000Y4968504D02*
Y5031496D01*
X2093504Y5165000D02*
X2156496D01*
X2125000Y5133504D02*
Y5196496D01*
X2093504Y5365000D02*
X2156496D01*
X2125000Y5333504D02*
Y5396496D01*
X2433504Y3620000D02*
X2496496D01*
X2465000Y3588504D02*
Y3651496D01*
X2433504Y3820000D02*
X2496496D01*
X2465000Y3788504D02*
Y3851496D01*
X2233504Y3620000D02*
X2296496D01*
X2265000Y3588504D02*
Y3651496D01*
X2233504Y3820000D02*
X2296496D01*
X2265000Y3788504D02*
Y3851496D01*
X3513504Y1645000D02*
X3576496D01*
X3545000Y1613504D02*
Y1676496D01*
X3513504Y1945000D02*
X3576496D01*
X3545000Y1913504D02*
Y1976496D01*
X5360000Y150000D02*
X5460000D01*
X5410000Y100000D02*
Y200000D01*
X3518504Y1145000D02*
X3581496D01*
X3550000Y1113504D02*
Y1176496D01*
X3518504Y945000D02*
X3581496D01*
X3550000Y913504D02*
Y976496D01*
X3513504Y2145000D02*
X3576496D01*
X3545000Y2113504D02*
Y2176496D01*
X3313504Y1645000D02*
X3376496D01*
X3345000Y1613504D02*
Y1676496D01*
X3313504Y1945000D02*
X3376496D01*
X3345000Y1913504D02*
Y1976496D01*
X3513504Y1445000D02*
X3576496D01*
X3545000Y1413504D02*
Y1476496D01*
X3318504Y1145000D02*
X3381496D01*
X3350000Y1113504D02*
Y1176496D01*
X3313504Y1445000D02*
X3376496D01*
X3345000Y1413504D02*
Y1476496D01*
X3313504Y2145000D02*
X3376496D01*
X3345000Y2113504D02*
Y2176496D01*
X3318504Y945000D02*
X3381496D01*
X3350000Y913504D02*
Y976496D01*
X2813504Y2145000D02*
X2876496D01*
X2845000Y2113504D02*
Y2176496D01*
X2258504Y2610000D02*
X2321496D01*
X2290000Y2578504D02*
Y2641496D01*
X2258504Y2810000D02*
X2321496D01*
X2290000Y2778504D02*
Y2841496D01*
X3013504Y2145000D02*
X3076496D01*
X3045000Y2113504D02*
Y2176496D01*
X3013504Y1945000D02*
X3076496D01*
X3045000Y1913504D02*
Y1976496D01*
X2813504Y1945000D02*
X2876496D01*
X2845000Y1913504D02*
Y1976496D01*
X2093504Y2110000D02*
X2156496D01*
X2125000Y2078504D02*
Y2141496D01*
X2093504Y2310000D02*
X2156496D01*
X2125000Y2278504D02*
Y2341496D01*
X2433504Y565000D02*
X2496496D01*
X2465000Y533504D02*
Y596496D01*
X2433504Y765000D02*
X2496496D01*
X2465000Y733504D02*
Y796496D01*
X2233504Y565000D02*
X2296496D01*
X2265000Y533504D02*
Y596496D01*
X2233504Y765000D02*
X2296496D01*
X2265000Y733504D02*
Y796496D01*
X2058504Y5865000D02*
X2121496D01*
X2090000Y5833504D02*
Y5896496D01*
X2058504Y5665000D02*
X2121496D01*
X2090000Y5633504D02*
Y5696496D01*
X2012284Y6355000D02*
X2047716D01*
X2030000Y6337283D02*
Y6372717D01*
X1893504Y5165000D02*
X1956496D01*
X1925000Y5133504D02*
Y5196496D01*
X1912284Y6355000D02*
X1947716D01*
X1930000Y6337283D02*
Y6372717D01*
X1893504Y5365000D02*
X1956496D01*
X1925000Y5333504D02*
Y5396496D01*
X2058504Y2810000D02*
X2121496D01*
X2090000Y2778504D02*
Y2841496D01*
X2058504Y2610000D02*
X2121496D01*
X2090000Y2578504D02*
Y2641496D01*
X1933504Y3820000D02*
X1996496D01*
X1965000Y3788504D02*
Y3851496D01*
X1933504Y3620000D02*
X1996496D01*
X1965000Y3588504D02*
Y3651496D01*
X1893504Y2110000D02*
X1956496D01*
X1925000Y2078504D02*
Y2141496D01*
X1893504Y2310000D02*
X1956496D01*
X1925000Y2278504D02*
Y2341496D01*
X1733504Y3620000D02*
X1796496D01*
X1765000Y3588504D02*
Y3651496D01*
X1733504Y3820000D02*
X1796496D01*
X1765000Y3788504D02*
Y3851496D01*
X1352284Y8255000D02*
X1387716D01*
X1370000Y8237283D02*
Y8272717D01*
X1933504Y765000D02*
X1996496D01*
X1965000Y733504D02*
Y796496D01*
X1933504Y565000D02*
X1996496D01*
X1965000Y533504D02*
Y596496D01*
X1733504Y565000D02*
X1796496D01*
X1765000Y533504D02*
Y596496D01*
X1733504Y765000D02*
X1796496D01*
X1765000Y733504D02*
Y796496D01*
X4812283Y4660000D02*
X4847717D01*
X4830000Y4642283D02*
Y4677717D01*
X1422284Y4895000D02*
X1457716D01*
X1440000Y4877283D02*
Y4912717D01*
X1322284Y4895000D02*
X1357716D01*
X1340000Y4877283D02*
Y4912717D01*
X1422284Y4995000D02*
X1457716D01*
X1440000Y4977283D02*
Y5012717D01*
X1322284Y4995000D02*
X1357716D01*
X1340000Y4977283D02*
Y5012717D01*
X1422284Y5095000D02*
X1457716D01*
X1440000Y5077283D02*
Y5112717D01*
X1322284Y5095000D02*
X1357716D01*
X1340000Y5077283D02*
Y5112717D01*
X1422284Y1840000D02*
X1457716D01*
X1440000Y1822284D02*
Y1857716D01*
X1322284Y1840000D02*
X1357716D01*
X1340000Y1822284D02*
Y1857716D01*
X1422284Y1940000D02*
X1457716D01*
X1440000Y1922284D02*
Y1957716D01*
X1322284Y1940000D02*
X1357716D01*
X1340000Y1922284D02*
Y1957716D01*
X1422284Y2040000D02*
X1457716D01*
X1440000Y2022284D02*
Y2057716D01*
X1322284Y2040000D02*
X1357716D01*
X1340000Y2022284D02*
Y2057716D01*
X2567284Y2160000D02*
X2602716D01*
X2585000Y2142284D02*
Y2177716D01*
X2335472Y665000D02*
X2394528D01*
X2365000Y635472D02*
Y694528D01*
X1995473Y2210000D02*
X2054528D01*
X2025000Y2180472D02*
Y2239528D01*
X3032284Y700000D02*
X3067716D01*
X3050000Y682284D02*
Y717716D01*
X1835473Y665000D02*
X1894527D01*
X1865000Y635472D02*
Y694528D01*
X2915472Y2045000D02*
X2974528D01*
X2945000Y2015473D02*
Y2074528D01*
X2160472Y2710000D02*
X2219528D01*
X2190000Y2680472D02*
Y2739528D01*
X3415472Y2045000D02*
X3474528D01*
X3445000Y2015473D02*
Y2074528D01*
X3420472Y1045000D02*
X3479528D01*
X3450000Y1015472D02*
Y1074527D01*
X3415472Y1545000D02*
X3474528D01*
X3445000Y1515473D02*
Y1574527D01*
X1742284Y1975000D02*
X1777716D01*
X1760000Y1957284D02*
Y1992716D01*
X3982284Y355000D02*
X4017716D01*
X4000000Y337284D02*
Y372716D01*
X3882284Y355000D02*
X3917716D01*
X3900000Y337284D02*
Y372716D01*
X3782284Y355000D02*
X3817716D01*
X3800000Y337284D02*
Y372716D01*
X3682284Y355000D02*
X3717716D01*
X3700000Y337284D02*
Y372716D01*
X3582284Y355000D02*
X3617716D01*
X3600000Y337284D02*
Y372716D01*
X3482284Y355000D02*
X3517716D01*
X3500000Y337284D02*
Y372716D01*
X2482284Y1100000D02*
X2517716D01*
X2500000Y1082284D02*
Y1117716D01*
X2757284Y1240000D02*
X2792716D01*
X2775000Y1222284D02*
Y1257716D01*
X1422284Y1590000D02*
X1457716D01*
X1440000Y1572284D02*
Y1607716D01*
X1322284Y1590000D02*
X1357716D01*
X1340000Y1572284D02*
Y1607716D01*
X1322284Y1470000D02*
X1357716D01*
X1340000Y1452284D02*
Y1487716D01*
X1422284Y1470000D02*
X1457716D01*
X1440000Y1452284D02*
Y1487716D01*
X4127283Y1920000D02*
X4162717D01*
X4145000Y1902284D02*
Y1937716D01*
X4227283Y1920000D02*
X4262717D01*
X4245000Y1902284D02*
Y1937716D01*
X4227283Y1800000D02*
X4262717D01*
X4245000Y1782284D02*
Y1817716D01*
X4127283Y1800000D02*
X4162717D01*
X4145000Y1782284D02*
Y1817716D01*
X4127283Y1590000D02*
X4162717D01*
X4145000Y1572284D02*
Y1607716D01*
X4227283Y1590000D02*
X4262717D01*
X4245000Y1572284D02*
Y1607716D01*
X4227283Y1470000D02*
X4262717D01*
X4245000Y1452284D02*
Y1487716D01*
X4127283Y1470000D02*
X4162717D01*
X4145000Y1452284D02*
Y1487716D01*
X2757284Y4295000D02*
X2792716D01*
X2775000Y4277283D02*
Y4312717D01*
X1742284Y5030000D02*
X1777716D01*
X1760000Y5012283D02*
Y5047717D01*
X4227283Y4645000D02*
X4262717D01*
X4245000Y4627283D02*
Y4662717D01*
X4127283Y4645000D02*
X4162717D01*
X4145000Y4627283D02*
Y4662717D01*
X4127283Y4525000D02*
X4162717D01*
X4145000Y4507283D02*
Y4542717D01*
X4227283Y4525000D02*
X4262717D01*
X4245000Y4507283D02*
Y4542717D01*
X4227283Y4975000D02*
X4262717D01*
X4245000Y4957283D02*
Y4992717D01*
X4127283Y4975000D02*
X4162717D01*
X4145000Y4957283D02*
Y4992717D01*
X4127283Y4855000D02*
X4162717D01*
X4145000Y4837283D02*
Y4872717D01*
X4227283Y4855000D02*
X4262717D01*
X4245000Y4837283D02*
Y4872717D01*
X1322284Y4645000D02*
X1357716D01*
X1340000Y4627283D02*
Y4662717D01*
X1422284Y4645000D02*
X1457716D01*
X1440000Y4627283D02*
Y4662717D01*
X1422284Y4525000D02*
X1457716D01*
X1440000Y4507283D02*
Y4542717D01*
X1322284Y4525000D02*
X1357716D01*
X1340000Y4507283D02*
Y4542717D01*
X2482284Y4155000D02*
X2517716D01*
X2500000Y4137283D02*
Y4172717D01*
X3982284Y3410000D02*
X4017716D01*
X4000000Y3392284D02*
Y3427716D01*
X3882284Y3410000D02*
X3917716D01*
X3900000Y3392284D02*
Y3427716D01*
X3782284Y3410000D02*
X3817716D01*
X3800000Y3392284D02*
Y3427716D01*
X3682284Y3410000D02*
X3717716D01*
X3700000Y3392284D02*
Y3427716D01*
X3582284Y3410000D02*
X3617716D01*
X3600000Y3392284D02*
Y3427716D01*
X3482284Y3410000D02*
X3517716D01*
X3500000Y3392284D02*
Y3427716D01*
X3032284Y3755000D02*
X3067716D01*
X3050000Y3737284D02*
Y3772716D01*
X2567284Y5215000D02*
X2602716D01*
X2585000Y5197283D02*
Y5232717D01*
X3420472Y4100000D02*
X3479528D01*
X3450000Y4070472D02*
Y4129528D01*
X3415472Y4600000D02*
X3474528D01*
X3445000Y4570472D02*
Y4629528D01*
X2160472Y5765000D02*
X2219528D01*
X2190000Y5735472D02*
Y5794528D01*
X3415472Y5100000D02*
X3474528D01*
X3445000Y5070472D02*
Y5129528D01*
X1835473Y3720000D02*
X1894527D01*
X1865000Y3690472D02*
Y3749528D01*
X2915472Y5100000D02*
X2974528D01*
X2945000Y5070472D02*
Y5129528D01*
X2335472Y3720000D02*
X2394528D01*
X2365000Y3690472D02*
Y3749528D01*
X1995473Y5265000D02*
X2054528D01*
X2025000Y5235472D02*
Y5294528D01*
X4672283Y2565000D02*
X4707717D01*
X4690000Y2547284D02*
Y2582716D01*
X4772283Y2565000D02*
X4807717D01*
X4790000Y2547284D02*
Y2582716D01*
X787284Y2635000D02*
X822716D01*
X805000Y2617284D02*
Y2652716D01*
X887284Y2635000D02*
X922716D01*
X905000Y2617284D02*
Y2652716D01*
X627284Y3820000D02*
X662716D01*
X645000Y3802284D02*
Y3837716D01*
X887284Y3055000D02*
X922716D01*
X905000Y3037284D02*
Y3072716D01*
X787284Y3055000D02*
X822716D01*
X805000Y3037284D02*
Y3072716D01*
X887284Y3275000D02*
X922716D01*
X905000Y3257284D02*
Y3292716D01*
X887284Y3175000D02*
X922716D01*
X905000Y3157284D02*
Y3192716D01*
X4812283Y1685000D02*
X4847717D01*
X4830000Y1667284D02*
Y1702716D01*
X2412284Y6355000D02*
X2447716D01*
X2430000Y6337283D02*
Y6372717D01*
X2612284Y6355000D02*
X2647716D01*
X2630000Y6337283D02*
Y6372717D01*
X2512284Y6355000D02*
X2547716D01*
X2530000Y6337283D02*
Y6372717D01*
X2812284Y6355000D02*
X2847716D01*
X2830000Y6337283D02*
Y6372717D01*
X2712284Y6355000D02*
X2747716D01*
X2730000Y6337283D02*
Y6372717D01*
X3012284Y6355000D02*
X3047716D01*
X3030000Y6337283D02*
Y6372717D01*
X2912284Y6355000D02*
X2947716D01*
X2930000Y6337283D02*
Y6372717D01*
X2312284Y6355000D02*
X2347716D01*
X2330000Y6337283D02*
Y6372717D01*
X4112283Y6655000D02*
X4147717D01*
X4130000Y6637283D02*
Y6672717D01*
X4012284Y6655000D02*
X4047716D01*
X4030000Y6637283D02*
Y6672717D01*
X4112283Y6955000D02*
X4147717D01*
X4130000Y6937283D02*
Y6972717D01*
X4112283Y6855000D02*
X4147717D01*
X4130000Y6837283D02*
Y6872717D01*
X4112283Y6755000D02*
X4147717D01*
X4130000Y6737283D02*
Y6772717D01*
X4112283Y7055000D02*
X4147717D01*
X4130000Y7037283D02*
Y7072717D01*
X4012284Y6955000D02*
X4047716D01*
X4030000Y6937283D02*
Y6972717D01*
X4012284Y6855000D02*
X4047716D01*
X4030000Y6837283D02*
Y6872717D01*
X4012284Y6755000D02*
X4047716D01*
X4030000Y6737283D02*
Y6772717D01*
X4012284Y7055000D02*
X4047716D01*
X4030000Y7037283D02*
Y7072717D01*
X4112283Y7455000D02*
X4147717D01*
X4130000Y7437283D02*
Y7472717D01*
X4112283Y7355000D02*
X4147717D01*
X4130000Y7337283D02*
Y7372717D01*
X4012284Y7355000D02*
X4047716D01*
X4030000Y7337283D02*
Y7372717D01*
X4112283Y7255000D02*
X4147717D01*
X4130000Y7237283D02*
Y7272717D01*
X4012284Y7255000D02*
X4047716D01*
X4030000Y7237283D02*
Y7272717D01*
X4112283Y7155000D02*
X4147717D01*
X4130000Y7137283D02*
Y7172717D01*
X4012284Y7155000D02*
X4047716D01*
X4030000Y7137283D02*
Y7172717D01*
X4012284Y7455000D02*
X4047716D01*
X4030000Y7437283D02*
Y7472717D01*
X4112283Y7755000D02*
X4147717D01*
X4130000Y7737283D02*
Y7772717D01*
X4112283Y7655000D02*
X4147717D01*
X4130000Y7637283D02*
Y7672717D01*
X4112283Y7555000D02*
X4147717D01*
X4130000Y7537283D02*
Y7572717D01*
X4112283Y7855000D02*
X4147717D01*
X4130000Y7837283D02*
Y7872717D01*
X4012284Y7755000D02*
X4047716D01*
X4030000Y7737283D02*
Y7772717D01*
X4012284Y7655000D02*
X4047716D01*
X4030000Y7637283D02*
Y7672717D01*
X4012284Y7555000D02*
X4047716D01*
X4030000Y7537283D02*
Y7572717D01*
X4012284Y7855000D02*
X4047716D01*
X4030000Y7837283D02*
Y7872717D01*
X3112284Y8255000D02*
X3147716D01*
X3130000Y8237283D02*
Y8272717D01*
X3312284Y8255000D02*
X3347716D01*
X3330000Y8237283D02*
Y8272717D01*
X3212284Y8255000D02*
X3247716D01*
X3230000Y8237283D02*
Y8272717D01*
X3512284Y8255000D02*
X3547716D01*
X3530000Y8237283D02*
Y8272717D01*
X3412284Y8255000D02*
X3447716D01*
X3430000Y8237283D02*
Y8272717D01*
X3712284Y8255000D02*
X3747716D01*
X3730000Y8237283D02*
Y8272717D01*
X3612284Y8255000D02*
X3647716D01*
X3630000Y8237283D02*
Y8272717D01*
X3012284Y8255000D02*
X3047716D01*
X3030000Y8237283D02*
Y8272717D01*
X2212284Y8255000D02*
X2247716D01*
X2230000Y8237283D02*
Y8272717D01*
X2412284Y8255000D02*
X2447716D01*
X2430000Y8237283D02*
Y8272717D01*
X2312284Y8255000D02*
X2347716D01*
X2330000Y8237283D02*
Y8272717D01*
X2612284Y8255000D02*
X2647716D01*
X2630000Y8237283D02*
Y8272717D01*
X2512284Y8255000D02*
X2547716D01*
X2530000Y8237283D02*
Y8272717D01*
X2812284Y8255000D02*
X2847716D01*
X2830000Y8237283D02*
Y8272717D01*
X2712284Y8255000D02*
X2747716D01*
X2730000Y8237283D02*
Y8272717D01*
X1552284Y8255000D02*
X1587716D01*
X1570000Y8237283D02*
Y8272717D01*
X1452284Y8255000D02*
X1487716D01*
X1470000Y8237283D02*
Y8272717D01*
X1752284Y8255000D02*
X1787716D01*
X1770000Y8237283D02*
Y8272717D01*
X1652284Y8255000D02*
X1687716D01*
X1670000Y8237283D02*
Y8272717D01*
X1152284Y8255000D02*
X1187716D01*
X1170000Y8237283D02*
Y8272717D01*
X1052284Y8255000D02*
X1087716D01*
X1070000Y8237283D02*
Y8272717D01*
X1252284Y8255000D02*
X1287716D01*
X1270000Y8237283D02*
Y8272717D01*
X1952284Y8255000D02*
X1987716D01*
X1970000Y8237283D02*
Y8272717D01*
X1852284Y8255000D02*
X1887716D01*
X1870000Y8237283D02*
Y8272717D01*
X2112284Y8255000D02*
X2147716D01*
X2130000Y8237283D02*
Y8272717D01*
X4112283Y8255000D02*
X4147717D01*
X4130000Y8237283D02*
Y8272717D01*
X4112283Y8155000D02*
X4147717D01*
X4130000Y8137283D02*
Y8172717D01*
X4012284Y8155000D02*
X4047716D01*
X4030000Y8137283D02*
Y8172717D01*
X4112283Y8055000D02*
X4147717D01*
X4130000Y8037283D02*
Y8072717D01*
X4012284Y8055000D02*
X4047716D01*
X4030000Y8037283D02*
Y8072717D01*
X4112283Y7955000D02*
X4147717D01*
X4130000Y7937283D02*
Y7972717D01*
X4012284Y7955000D02*
X4047716D01*
X4030000Y7937283D02*
Y7972717D01*
X4012284Y8255000D02*
X4047716D01*
X4030000Y8237283D02*
Y8272717D01*
X3312284Y6355000D02*
X3347716D01*
X3330000Y6337283D02*
Y6372717D01*
X3512284Y6355000D02*
X3547716D01*
X3530000Y6337283D02*
Y6372717D01*
X3412284Y6355000D02*
X3447716D01*
X3430000Y6337283D02*
Y6372717D01*
X3712284Y6355000D02*
X3747716D01*
X3730000Y6337283D02*
Y6372717D01*
X3612284Y6355000D02*
X3647716D01*
X3630000Y6337283D02*
Y6372717D01*
X3912284Y6355000D02*
X3947716D01*
X3930000Y6337283D02*
Y6372717D01*
X3812284Y6355000D02*
X3847716D01*
X3830000Y6337283D02*
Y6372717D01*
X3212284Y6355000D02*
X3247716D01*
X3230000Y6337283D02*
Y6372717D01*
X1512284Y6355000D02*
X1547716D01*
X1530000Y6337283D02*
Y6372717D01*
X1712284Y6355000D02*
X1747716D01*
X1730000Y6337283D02*
Y6372717D01*
X1612284Y6355000D02*
X1647716D01*
X1630000Y6337283D02*
Y6372717D01*
X1812284Y6355000D02*
X1847716D01*
X1830000Y6337283D02*
Y6372717D01*
X2112284Y6355000D02*
X2147716D01*
X2130000Y6337283D02*
Y6372717D01*
X1412284Y6355000D02*
X1447716D01*
X1430000Y6337283D02*
Y6372717D01*
X4347644Y6956413D02*
X4362644D01*
X4355144Y6948913D02*
Y6963913D01*
X2020886Y1531614D02*
X2035886D01*
X2028386Y1524114D02*
Y1539114D01*
X2064193Y1531614D02*
X2079193D01*
X2071693Y1524114D02*
Y1539114D01*
X2107500Y1531614D02*
X2122500D01*
X2115000Y1524114D02*
Y1539114D01*
X2150807Y1531614D02*
X2165807D01*
X2158307Y1524114D02*
Y1539114D01*
X2194114Y1531614D02*
X2209114D01*
X2201614Y1524114D02*
Y1539114D01*
X2020886Y1488307D02*
X2035886D01*
X2028386Y1480807D02*
Y1495807D01*
X2064193Y1488307D02*
X2079193D01*
X2071693Y1480807D02*
Y1495807D01*
X2107500Y1488307D02*
X2122500D01*
X2115000Y1480807D02*
Y1495807D01*
X2150807Y1488307D02*
X2165807D01*
X2158307Y1480807D02*
Y1495807D01*
X2194114Y1488307D02*
X2209114D01*
X2201614Y1480807D02*
Y1495807D01*
X2020886Y1445000D02*
X2035886D01*
X2028386Y1437500D02*
Y1452500D01*
X2064193Y1445000D02*
X2079193D01*
X2071693Y1437500D02*
Y1452500D01*
X2107500Y1445000D02*
X2122500D01*
X2115000Y1437500D02*
Y1452500D01*
X2150807Y1445000D02*
X2165807D01*
X2158307Y1437500D02*
Y1452500D01*
X2194114Y1445000D02*
X2209114D01*
X2201614Y1437500D02*
Y1452500D01*
X2020886Y1401693D02*
X2035886D01*
X2028386Y1394193D02*
Y1409193D01*
X2064193Y1401693D02*
X2079193D01*
X2071693Y1394193D02*
Y1409193D01*
X2107500Y1401693D02*
X2122500D01*
X2115000Y1394193D02*
Y1409193D01*
X2150807Y1401693D02*
X2165807D01*
X2158307Y1394193D02*
Y1409193D01*
X2194114Y1401693D02*
X2209114D01*
X2201614Y1394193D02*
Y1409193D01*
X2020886Y1358386D02*
X2035886D01*
X2028386Y1350886D02*
Y1365886D01*
X2064193Y1358386D02*
X2079193D01*
X2071693Y1350886D02*
Y1365886D01*
X2107500Y1358386D02*
X2122500D01*
X2115000Y1350886D02*
Y1365886D01*
X2150807Y1358386D02*
X2165807D01*
X2158307Y1350886D02*
Y1365886D01*
X2194114Y1358386D02*
X2209114D01*
X2201614Y1350886D02*
Y1365886D01*
X2020886Y4586614D02*
X2035886D01*
X2028386Y4579114D02*
Y4594114D01*
X2064193Y4586614D02*
X2079193D01*
X2071693Y4579114D02*
Y4594114D01*
X2107500Y4586614D02*
X2122500D01*
X2115000Y4579114D02*
Y4594114D01*
X2150807Y4586614D02*
X2165807D01*
X2158307Y4579114D02*
Y4594114D01*
X2194114Y4586614D02*
X2209114D01*
X2201614Y4579114D02*
Y4594114D01*
X2020886Y4543307D02*
X2035886D01*
X2028386Y4535807D02*
Y4550807D01*
X2064193Y4543307D02*
X2079193D01*
X2071693Y4535807D02*
Y4550807D01*
X2107500Y4543307D02*
X2122500D01*
X2115000Y4535807D02*
Y4550807D01*
X2150807Y4543307D02*
X2165807D01*
X2158307Y4535807D02*
Y4550807D01*
X2194114Y4543307D02*
X2209114D01*
X2201614Y4535807D02*
Y4550807D01*
X2020886Y4500000D02*
X2035886D01*
X2028386Y4492500D02*
Y4507500D01*
X2064193Y4500000D02*
X2079193D01*
X2071693Y4492500D02*
Y4507500D01*
X2107500Y4500000D02*
X2122500D01*
X2115000Y4492500D02*
Y4507500D01*
X2150807Y4500000D02*
X2165807D01*
X2158307Y4492500D02*
Y4507500D01*
X2194114Y4500000D02*
X2209114D01*
X2201614Y4492500D02*
Y4507500D01*
X2020886Y4456693D02*
X2035886D01*
X2028386Y4449193D02*
Y4464193D01*
X2064193Y4456693D02*
X2079193D01*
X2071693Y4449193D02*
Y4464193D01*
X2107500Y4456693D02*
X2122500D01*
X2115000Y4449193D02*
Y4464193D01*
X2150807Y4456693D02*
X2165807D01*
X2158307Y4449193D02*
Y4464193D01*
X2194114Y4456693D02*
X2209114D01*
X2201614Y4449193D02*
Y4464193D01*
X2020886Y4413386D02*
X2035886D01*
X2028386Y4405886D02*
Y4420886D01*
X2064193Y4413386D02*
X2079193D01*
X2071693Y4405886D02*
Y4420886D01*
X2107500Y4413386D02*
X2122500D01*
X2115000Y4405886D02*
Y4420886D01*
X2150807Y4413386D02*
X2165807D01*
X2158307Y4405886D02*
Y4420886D01*
X2194114Y4413386D02*
X2209114D01*
X2201614Y4405886D02*
Y4420886D01*
X1327500Y4120000D02*
X1342500D01*
X1335000Y4112500D02*
Y4127500D01*
X3042500Y1030000D02*
X3057500D01*
X3050000Y1022500D02*
Y1037500D01*
X1027284Y2505000D02*
X1062716D01*
X1045000Y2487284D02*
Y2522716D01*
X3429367Y2278048D02*
X3444367D01*
X3436867Y2270548D02*
Y2285548D01*
X3911000Y3975000D02*
X3939000D01*
X3925000Y3961000D02*
Y3989000D01*
X3406000Y3810000D02*
X3434000D01*
X3420000Y3796000D02*
Y3824000D01*
X3166012Y3453800D02*
X3194012D01*
X3180012Y3439800D02*
Y3467800D01*
X4296000Y4260000D02*
X4324000D01*
X4310000Y4246000D02*
Y4274000D01*
X4631000Y6355000D02*
X4659000D01*
X4645000Y6341000D02*
Y6369000D01*
X4301000Y5480000D02*
X4329000D01*
X4315000Y5466000D02*
Y5494000D01*
X4071000Y2815000D02*
X4099000D01*
X4085000Y2801000D02*
Y2829000D01*
X3252500Y2925000D02*
X3267500D01*
X3260000Y2917500D02*
Y2932500D01*
X3327500Y2840000D02*
X3342500D01*
X3335000Y2832500D02*
Y2847500D01*
X3451000Y2870000D02*
X3479000D01*
X3465000Y2856000D02*
Y2884000D01*
X2706000Y3005000D02*
X2734000D01*
X2720000Y2991000D02*
Y3019000D01*
X5306000Y5910000D02*
X5334000D01*
X5320000Y5896000D02*
Y5924000D01*
X4806000Y6405000D02*
X4834000D01*
X4820000Y6391000D02*
Y6419000D01*
X5021000Y1120000D02*
X5049000D01*
X5035000Y1106000D02*
Y1134000D01*
X3741634Y1264598D02*
X3756634D01*
X3749134Y1257098D02*
Y1272098D01*
X4996000Y6525000D02*
X5024000D01*
X5010000Y6511000D02*
Y6539000D01*
X5057500Y2100000D02*
X5072500D01*
X5065000Y2092500D02*
Y2107500D01*
X5041000Y3375000D02*
X5069000D01*
X5055000Y3361000D02*
Y3389000D01*
X5062500Y4990000D02*
X5077500D01*
X5070000Y4982500D02*
Y4997500D01*
X5062500Y5075000D02*
X5077500D01*
X5070000Y5067500D02*
Y5082500D01*
X5062500Y4905000D02*
X5077500D01*
X5070000Y4897500D02*
Y4912500D01*
X4977500Y2290000D02*
X4992500D01*
X4985000Y2282500D02*
Y2297500D01*
X4071000Y5770000D02*
X4099000D01*
X4085000Y5756000D02*
Y5784000D01*
X4066000Y6385000D02*
X4094000D01*
X4080000Y6371000D02*
Y6399000D01*
X3661000Y4680000D02*
X3689000D01*
X3675000Y4666000D02*
Y4694000D01*
X3031000Y4130000D02*
X3059000D01*
X3045000Y4116000D02*
Y4144000D01*
X3661000Y4430000D02*
X3689000D01*
X3675000Y4416000D02*
Y4444000D01*
X3781000Y4825000D02*
X3809000D01*
X3795000Y4811000D02*
Y4839000D01*
X3896000Y5015000D02*
X3924000D01*
X3910000Y5001000D02*
Y5029000D01*
X4026000Y5125000D02*
X4054000D01*
X4040000Y5111000D02*
Y5139000D01*
X4266373Y6516434D02*
X4281373D01*
X4273873Y6508934D02*
Y6523934D01*
X2832500Y6475000D02*
X2847500D01*
X2840000Y6467500D02*
Y6482500D01*
X2833575Y6666063D02*
X2848575D01*
X2841075Y6658563D02*
Y6673563D01*
X2877500Y6435000D02*
X2892500D01*
X2885000Y6427500D02*
Y6442500D01*
X2882500Y6620000D02*
X2897500D01*
X2890000Y6612500D02*
Y6627500D01*
X2516326Y5435566D02*
X2531326D01*
X2523826Y5428066D02*
Y5443066D01*
X4317500Y6565000D02*
X4332500D01*
X4325000Y6557500D02*
Y6572500D01*
X4782500Y6747500D02*
X4797500D01*
X4790000Y6740000D02*
Y6755000D01*
X4382500Y6773091D02*
X4397500D01*
X4390000Y6765591D02*
Y6780591D01*
X4576000Y6775000D02*
X4604000D01*
X4590000Y6761000D02*
Y6789000D01*
X4517500Y7170000D02*
X4532500D01*
X4525000Y7162500D02*
Y7177500D01*
X4602500Y7170000D02*
X4617500D01*
X4610000Y7162500D02*
Y7177500D01*
X4687500Y7170000D02*
X4702500D01*
X4695000Y7162500D02*
Y7177500D01*
X4382500Y6695000D02*
X4397500D01*
X4390000Y6687500D02*
Y6702500D01*
X4896000Y5175000D02*
X4924000D01*
X4910000Y5161000D02*
Y5189000D01*
X5057500Y1930000D02*
X5072500D01*
X5065000Y1922500D02*
Y1937500D01*
X5057500Y2015000D02*
X5072500D01*
X5065000Y2007500D02*
Y2022500D01*
X802500Y1325000D02*
X817500D01*
X810000Y1317500D02*
Y1332500D01*
X634669Y1725093D02*
X649669D01*
X642169Y1717593D02*
Y1732593D01*
X632500Y1590000D02*
X647500D01*
X640000Y1582500D02*
Y1597500D01*
X672500Y1420000D02*
X687500D01*
X680000Y1412500D02*
Y1427500D01*
X4111000Y3670000D02*
X4139000D01*
X4125000Y3656000D02*
Y3684000D01*
X4111000Y3755000D02*
X4139000D01*
X4125000Y3741000D02*
Y3769000D01*
X4111000Y3840000D02*
X4139000D01*
X4125000Y3826000D02*
Y3854000D01*
X4111000Y615000D02*
X4139000D01*
X4125000Y601000D02*
Y629000D01*
X4111000Y700000D02*
X4139000D01*
X4125000Y686000D02*
Y714000D01*
X4111000Y780000D02*
X4139000D01*
X4125000Y766000D02*
Y794000D01*
X731370Y1327017D02*
X746370D01*
X738870Y1319517D02*
Y1334517D01*
X891370Y1327017D02*
X906370D01*
X898870Y1319517D02*
Y1334517D01*
X802500Y1237500D02*
X817500D01*
X810000Y1230000D02*
Y1245000D01*
X752500Y1257500D02*
X767500D01*
X760000Y1250000D02*
Y1265000D01*
X1011000Y1232500D02*
X1039000D01*
X1025000Y1218500D02*
Y1246500D01*
X2770414Y2458399D02*
X2785414D01*
X2777914Y2450899D02*
Y2465899D01*
X2769586Y2542500D02*
X2784586D01*
X2777086Y2535000D02*
Y2550000D01*
X2770587Y5510000D02*
X2785587D01*
X2778087Y5502500D02*
Y5517500D01*
X2767500Y5595000D02*
X2782500D01*
X2775000Y5587500D02*
Y5602500D01*
X902500Y4380000D02*
X917500D01*
X910000Y4372500D02*
Y4387500D01*
X817500Y4380000D02*
X832500D01*
X825000Y4372500D02*
Y4387500D01*
X732500Y4380000D02*
X747500D01*
X740000Y4372500D02*
Y4387500D01*
X2146000Y990000D02*
X2174000D01*
X2160000Y976000D02*
Y1004000D01*
X2066000Y990000D02*
X2094000D01*
X2080000Y976000D02*
Y1004000D01*
X1981000Y990000D02*
X2009000D01*
X1995000Y976000D02*
Y1004000D01*
X1896000Y990000D02*
X1924000D01*
X1910000Y976000D02*
Y1004000D01*
X1806000Y900000D02*
X1834000D01*
X1820000Y886000D02*
Y914000D01*
X2146000Y4055000D02*
X2174000D01*
X2160000Y4041000D02*
Y4069000D01*
X2066000Y4055000D02*
X2094000D01*
X2080000Y4041000D02*
Y4069000D01*
X1981000Y4055000D02*
X2009000D01*
X1995000Y4041000D02*
Y4069000D01*
X1896000Y4055000D02*
X1924000D01*
X1910000Y4041000D02*
Y4069000D01*
X1677500Y1385000D02*
X1692500D01*
X1685000Y1377500D02*
Y1392500D01*
X1677500Y1470000D02*
X1692500D01*
X1685000Y1462500D02*
Y1477500D01*
X1677500Y1642500D02*
X1692500D01*
X1685000Y1635000D02*
Y1650000D01*
X1677500Y1560000D02*
X1692500D01*
X1685000Y1552500D02*
Y1567500D01*
X1741000Y4855000D02*
X1769000D01*
X1755000Y4841000D02*
Y4869000D01*
X1677500Y4695000D02*
X1692500D01*
X1685000Y4687500D02*
Y4702500D01*
X1677500Y4610000D02*
X1692500D01*
X1685000Y4602500D02*
Y4617500D01*
X1677500Y4440000D02*
X1692500D01*
X1685000Y4432500D02*
Y4447500D01*
X1677500Y4525000D02*
X1692500D01*
X1685000Y4517500D02*
Y4532500D01*
X1867500Y4630000D02*
X1882500D01*
X1875000Y4622500D02*
Y4637500D01*
X1878948Y4675966D02*
X1893948D01*
X1886448Y4668466D02*
Y4683466D01*
X1722500Y5882500D02*
X1737500D01*
X1730000Y5875000D02*
Y5890000D01*
X1667500Y5882500D02*
X1682500D01*
X1675000Y5875000D02*
Y5890000D01*
X1612500Y5882500D02*
X1627500D01*
X1620000Y5875000D02*
Y5890000D01*
X1557500Y5882500D02*
X1572500D01*
X1565000Y5875000D02*
Y5890000D01*
X1777500Y5882500D02*
X1792500D01*
X1785000Y5875000D02*
Y5890000D01*
X1686000Y5190000D02*
X1714000D01*
X1700000Y5176000D02*
Y5204000D01*
X1332500Y5915000D02*
X1347500D01*
X1340000Y5907500D02*
Y5922500D01*
X137500Y5660000D02*
X152500D01*
X145000Y5652500D02*
Y5667500D01*
X267500Y5630000D02*
X282500D01*
X275000Y5622500D02*
Y5637500D01*
X137500Y5880000D02*
X152500D01*
X145000Y5872500D02*
Y5887500D01*
X137500Y5825000D02*
X152500D01*
X145000Y5817500D02*
Y5832500D01*
X137500Y5770000D02*
X152500D01*
X145000Y5762500D02*
Y5777500D01*
X137500Y5715000D02*
X152500D01*
X145000Y5707500D02*
Y5722500D01*
X1771000Y5195000D02*
X1799000D01*
X1785000Y5181000D02*
Y5209000D01*
X1972500Y4730000D02*
X1987500D01*
X1980000Y4722500D02*
Y4737500D01*
X1887500Y4730000D02*
X1902500D01*
X1895000Y4722500D02*
Y4737500D01*
X1651000Y5135000D02*
X1679000D01*
X1665000Y5121000D02*
Y5149000D01*
X1613500Y5065000D02*
X1641500D01*
X1627500Y5051000D02*
Y5079000D01*
X4501000Y4385000D02*
X4529000D01*
X4515000Y4371000D02*
Y4399000D01*
X4641000Y4465000D02*
X4669000D01*
X4655000Y4451000D02*
Y4479000D01*
X4686000Y3715000D02*
X4714000D01*
X4700000Y3701000D02*
Y3729000D01*
X4641000Y3425000D02*
X4669000D01*
X4655000Y3411000D02*
Y3439000D01*
X3361000Y3185000D02*
X3389000D01*
X3375000Y3171000D02*
Y3199000D01*
X3311000Y3370000D02*
X3339000D01*
X3325000Y3356000D02*
Y3384000D01*
X3056293Y3510687D02*
X3071293D01*
X3063793Y3503187D02*
Y3518187D01*
X2899542Y3680000D02*
X2914542D01*
X2907042Y3672500D02*
Y3687500D01*
X2772500Y2770000D02*
X2787500D01*
X2780000Y2762500D02*
Y2777500D01*
X2701000Y2670000D02*
X2729000D01*
X2715000Y2656000D02*
Y2684000D01*
X2769794Y2606484D02*
X2784794D01*
X2777294Y2598984D02*
Y2613984D01*
X4886502Y2220000D02*
X4914502D01*
X4900502Y2206000D02*
Y2234000D01*
X991000Y1375000D02*
X1019000D01*
X1005000Y1361000D02*
Y1389000D01*
X1551000Y5045000D02*
X1579000D01*
X1565000Y5031000D02*
Y5059000D01*
X2112500Y4255000D02*
X2127500D01*
X2120000Y4247500D02*
Y4262500D01*
X756000Y855000D02*
X784000D01*
X770000Y841000D02*
Y869000D01*
X726000Y910000D02*
X754000D01*
X740000Y896000D02*
Y924000D01*
X581000Y1075000D02*
X609000D01*
X595000Y1061000D02*
Y1089000D01*
X636000Y1020000D02*
X664000D01*
X650000Y1006000D02*
Y1034000D01*
X837500Y1090000D02*
X852500D01*
X845000Y1082500D02*
Y1097500D01*
X676000Y955000D02*
X704000D01*
X690000Y941000D02*
Y969000D01*
X991000Y1100000D02*
X1019000D01*
X1005000Y1086000D02*
Y1114000D01*
X1008751Y1172249D02*
X1036751D01*
X1022751Y1158249D02*
Y1186249D01*
X2026590Y1217500D02*
X2041590D01*
X2034090Y1210000D02*
Y1225000D01*
X1242500Y1085000D02*
X1257500D01*
X1250000Y1077500D02*
Y1092500D01*
X2107500Y1195000D02*
X2122500D01*
X2115000Y1187500D02*
Y1202500D01*
X2072500Y1230000D02*
X2087500D01*
X2080000Y1222500D02*
Y1237500D01*
X795365Y1117346D02*
X810365D01*
X802865Y1109846D02*
Y1124846D01*
X1192981Y835481D02*
X1207981D01*
X1200481Y827981D02*
Y842981D01*
X926000Y1135000D02*
X954000D01*
X940000Y1121000D02*
Y1149000D01*
X802500Y1195000D02*
X817500D01*
X810000Y1187500D02*
Y1202500D01*
X1081000Y1300000D02*
X1109000D01*
X1095000Y1286000D02*
Y1314000D01*
X1878978Y1631464D02*
X1893978D01*
X1886478Y1623964D02*
Y1638964D01*
X1877500Y1515000D02*
X1892500D01*
X1885000Y1507500D02*
Y1522500D01*
X1877500Y4570000D02*
X1892500D01*
X1885000Y4562500D02*
Y4577500D01*
X2077500Y4300000D02*
X2092500D01*
X2085000Y4292500D02*
Y4307500D01*
X1867438Y1576102D02*
X1882438D01*
X1874938Y1568602D02*
Y1583602D01*
X392500Y4045000D02*
X407500D01*
X400000Y4037500D02*
Y4052500D01*
X532500Y4045000D02*
X547500D01*
X540000Y4037500D02*
Y4052500D01*
X357500Y4000000D02*
X372500D01*
X365000Y3992500D02*
Y4007500D01*
X497500Y4000000D02*
X512500D01*
X505000Y3992500D02*
Y4007500D01*
X462500Y4045000D02*
X477500D01*
X470000Y4037500D02*
Y4052500D01*
X427500Y4000000D02*
X442500D01*
X435000Y3992500D02*
Y4007500D01*
X457500Y3700000D02*
X472500D01*
X465000Y3692500D02*
Y3707500D01*
X565826Y3742148D02*
X580826D01*
X573326Y3734648D02*
Y3749648D01*
X492500Y3745000D02*
X507500D01*
X500000Y3737500D02*
Y3752500D01*
X527500Y3700000D02*
X542500D01*
X535000Y3692500D02*
Y3707500D01*
X422500Y3745000D02*
X437500D01*
X430000Y3737500D02*
Y3752500D01*
X387500Y3700000D02*
X402500D01*
X395000Y3692500D02*
Y3707500D01*
X917500Y2075000D02*
X932500D01*
X925000Y2067500D02*
Y2082500D01*
X917500Y2020000D02*
X932500D01*
X925000Y2012500D02*
Y2027500D01*
X922500Y1955000D02*
X937500D01*
X930000Y1947500D02*
Y1962500D01*
X927500Y2150000D02*
X942500D01*
X935000Y2142500D02*
Y2157500D01*
X897500Y2215000D02*
X912500D01*
X905000Y2207500D02*
Y2222500D01*
X912500Y2290000D02*
X927500D01*
X920000Y2282500D02*
Y2297500D01*
X1157500Y2035000D02*
X1172500D01*
X1165000Y2027500D02*
Y2042500D01*
X1092500Y2075000D02*
X1107500D01*
X1100000Y2067500D02*
Y2082500D01*
X1142500Y2115000D02*
X1157500D01*
X1150000Y2107500D02*
Y2122500D01*
X1092500Y2150000D02*
X1107500D01*
X1100000Y2142500D02*
Y2157500D01*
X1137500Y2200000D02*
X1152500D01*
X1145000Y2192500D02*
Y2207500D01*
X1097500Y2250000D02*
X1112500D01*
X1105000Y2242500D02*
Y2257500D01*
X1702500Y2855000D02*
X1717500D01*
X1710000Y2847500D02*
Y2862500D01*
X1692500Y2760000D02*
X1707500D01*
X1700000Y2752500D02*
Y2767500D01*
X2822500Y2840000D02*
X2837500D01*
X2830000Y2832500D02*
Y2847500D01*
X852500Y4030000D02*
X867500D01*
X860000Y4022500D02*
Y4037500D01*
X822500Y3975000D02*
X837500D01*
X830000Y3967500D02*
Y3982500D01*
X887500Y3980000D02*
X902500D01*
X895000Y3972500D02*
Y3987500D01*
X882500Y4085000D02*
X897500D01*
X890000Y4077500D02*
Y4092500D01*
X842500Y4125000D02*
X857500D01*
X850000Y4117500D02*
Y4132500D01*
X887500Y4165000D02*
X902500D01*
X895000Y4157500D02*
Y4172500D01*
X677500Y4120000D02*
X692500D01*
X685000Y4112500D02*
Y4127500D01*
X687500Y4060000D02*
X702500D01*
X695000Y4052500D02*
Y4067500D01*
X526000Y3490000D02*
X554000D01*
X540000Y3476000D02*
Y3504000D01*
X1017500Y3900000D02*
X1032500D01*
X1025000Y3892500D02*
Y3907500D01*
X1022500Y3960000D02*
X1037500D01*
X1030000Y3952500D02*
Y3967500D01*
X1002500Y4010000D02*
X1017500D01*
X1010000Y4002500D02*
Y4017500D01*
X1012500Y4065000D02*
X1027500D01*
X1020000Y4057500D02*
Y4072500D01*
X1017500Y4120000D02*
X1032500D01*
X1025000Y4112500D02*
Y4127500D01*
X1047500Y4165000D02*
X1062500D01*
X1055000Y4157500D02*
Y4172500D01*
X4977500Y2255000D02*
X4992500D01*
X4985000Y2247500D02*
Y2262500D01*
X4742500Y2185000D02*
X4757500D01*
X4750000Y2177500D02*
Y2192500D01*
X4742500Y2240000D02*
X4757500D01*
X4750000Y2232500D02*
Y2247500D01*
X587500Y4645000D02*
X602500D01*
X595000Y4637500D02*
Y4652500D01*
X1150018Y4593056D02*
X1165018D01*
X1157518Y4585556D02*
Y4600556D01*
X1208736Y4576658D02*
X1223736D01*
X1216236Y4569158D02*
Y4584158D01*
X4496000Y3690000D02*
X4524000D01*
X4510000Y3676000D02*
Y3704000D01*
X3646000Y675000D02*
X3674000D01*
X3660000Y661000D02*
Y689000D01*
X3701000Y890000D02*
X3729000D01*
X3715000Y876000D02*
Y904000D01*
X3020592Y521908D02*
X3035592D01*
X3028092Y514408D02*
Y529408D01*
X2847500Y412500D02*
X2862500D01*
X2855000Y405000D02*
Y420000D01*
X3038616Y438010D02*
X3053616D01*
X3046116Y430510D02*
Y445510D01*
X3166000Y385000D02*
X3194000D01*
X3180000Y371000D02*
Y399000D01*
X3012500Y560000D02*
X3027500D01*
X3020000Y552500D02*
Y567500D01*
X1012500Y1730000D02*
X1027500D01*
X1020000Y1722500D02*
Y1737500D01*
X1012500Y1655000D02*
X1027500D01*
X1020000Y1647500D02*
Y1662500D01*
X907500Y1855000D02*
X922500D01*
X915000Y1847500D02*
Y1862500D01*
X907500Y1785000D02*
X922500D01*
X915000Y1777500D02*
Y1792500D01*
X787500Y2560000D02*
X802500D01*
X795000Y2552500D02*
Y2567500D01*
X2822500Y720000D02*
X2837500D01*
X2830000Y712500D02*
Y727500D01*
X2862500Y625000D02*
X2877500D01*
X2870000Y617500D02*
Y632500D01*
X2828410Y3780910D02*
X2843410D01*
X2835910Y3773410D02*
Y3788410D01*
X3020592Y3576908D02*
X3035592D01*
X3028092Y3569408D02*
Y3584408D01*
X2950000Y3655000D02*
X2965000D01*
X2957500Y3647500D02*
Y3662500D01*
X3528426Y3742574D02*
X3556426D01*
X3542426Y3728574D02*
Y3756574D01*
X3701000Y4000000D02*
X3729000D01*
X3715000Y3986000D02*
Y4014000D01*
X2847500Y3467500D02*
X2862500D01*
X2855000Y3460000D02*
Y3475000D01*
X3012500Y3615000D02*
X3027500D01*
X3020000Y3607500D02*
Y3622500D01*
X3721000Y2120000D02*
X3749000D01*
X3735000Y2106000D02*
Y2134000D01*
X2487500Y2660000D02*
X2502500D01*
X2495000Y2652500D02*
Y2667500D01*
X2707500Y3220000D02*
X2722500D01*
X2715000Y3212500D02*
Y3227500D01*
X4612500Y4660000D02*
X4627500D01*
X4620000Y4652500D02*
Y4667500D01*
X4776000Y2975000D02*
X4804000D01*
X4790000Y2961000D02*
Y2989000D01*
X4156000Y2195000D02*
X4184000D01*
X4170000Y2181000D02*
Y2209000D01*
X4811332Y2640000D02*
X4826332D01*
X4818832Y2632500D02*
Y2647500D01*
X4553648Y1917648D02*
X4581648D01*
X4567648Y1903648D02*
Y1931648D01*
X4351000Y2110000D02*
X4379000D01*
X4365000Y2096000D02*
Y2124000D01*
X4792500Y3055000D02*
X4807500D01*
X4800000Y3047500D02*
Y3062500D01*
X4041000Y3245000D02*
X4069000D01*
X4055000Y3231000D02*
Y3259000D01*
X4141000Y3075000D02*
X4169000D01*
X4155000Y3061000D02*
Y3089000D01*
X3961000Y4220000D02*
X3989000D01*
X3975000Y4206000D02*
Y4234000D01*
X3956000Y1160000D02*
X3984000D01*
X3970000Y1146000D02*
Y1174000D01*
X2412500Y3335000D02*
X2427500D01*
X2420000Y3327500D02*
Y3342500D01*
X3316000Y3015000D02*
X3344000D01*
X3330000Y3001000D02*
Y3029000D01*
X2772500Y3230000D02*
X2787500D01*
X2780000Y3222500D02*
Y3237500D01*
X2951000Y3360000D02*
X2979000D01*
X2965000Y3346000D02*
Y3374000D01*
X2772500Y3500000D02*
X2787500D01*
X2780000Y3492500D02*
Y3507500D01*
X2767500Y175000D02*
X2782500D01*
X2775000Y167500D02*
Y182500D01*
X2772500Y445000D02*
X2787500D01*
X2780000Y437500D02*
Y452500D01*
X750000Y3395000D02*
X765000D01*
X757500Y3387500D02*
Y3402500D01*
X772284Y3490000D02*
X807716D01*
X790000Y3472284D02*
Y3507716D01*
X1330950Y3612886D02*
X1358950D01*
X1344950Y3598886D02*
Y3626886D01*
X1337500Y4082500D02*
X1352500D01*
X1345000Y4075000D02*
Y4090000D01*
X1252500Y3940000D02*
X1267500D01*
X1260000Y3932500D02*
Y3947500D01*
X1202500Y3890000D02*
X1217500D01*
X1210000Y3882500D02*
Y3897500D01*
X1227980Y3964520D02*
X1242980D01*
X1235480Y3957020D02*
Y3972020D01*
X1273484Y4019016D02*
X1288484D01*
X1280984Y4011516D02*
Y4026516D01*
X1242500Y985000D02*
X1257500D01*
X1250000Y977500D02*
Y992500D01*
X1192500Y1035000D02*
X1207500D01*
X1200000Y1027500D02*
Y1042500D01*
X1242500Y885000D02*
X1257500D01*
X1250000Y877500D02*
Y892500D01*
X1192500Y935000D02*
X1207500D01*
X1200000Y927500D02*
Y942500D01*
X789290Y1616198D02*
X817290D01*
X803290Y1602198D02*
Y1630198D01*
X526000Y2655000D02*
X554000D01*
X540000Y2641000D02*
Y2669000D01*
X526000Y3075000D02*
X554000D01*
X540000Y3061000D02*
Y3089000D01*
X641000Y4485000D02*
X669000D01*
X655000Y4471000D02*
Y4499000D01*
X5041000Y2545000D02*
X5069000D01*
X5055000Y2531000D02*
Y2559000D01*
X5041000Y2960000D02*
X5069000D01*
X5055000Y2946000D02*
Y2974000D01*
X787500Y2980000D02*
X802500D01*
X795000Y2972500D02*
Y2987500D01*
X3931000Y495000D02*
X3959000D01*
X3945000Y481000D02*
Y509000D01*
X2582500Y295000D02*
X2597500D01*
X2590000Y287500D02*
Y302500D01*
X2707500Y165000D02*
X2722500D01*
X2715000Y157500D02*
Y172500D01*
X3102500Y2990000D02*
X3117500D01*
X3110000Y2982500D02*
Y2997500D01*
X1741000Y1225000D02*
X1769000D01*
X1755000Y1211000D02*
Y1239000D01*
X2480000Y1800000D02*
X2495000D01*
X2487500Y1792500D02*
Y1807500D01*
X2533238Y1758430D02*
X2548238D01*
X2540738Y1750930D02*
Y1765930D01*
X3882500Y1535000D02*
X3897500D01*
X3890000Y1527500D02*
Y1542500D01*
X2499042Y1565758D02*
X2514042D01*
X2506542Y1558258D02*
Y1573258D01*
X2582500Y1610000D02*
X2597500D01*
X2590000Y1602500D02*
Y1617500D01*
X1741000Y1800000D02*
X1769000D01*
X1755000Y1786000D02*
Y1814000D01*
X2516326Y2380566D02*
X2531326D01*
X2523826Y2373066D02*
Y2388066D01*
X2287500Y2415000D02*
X2302500D01*
X2295000Y2407500D02*
Y2422500D01*
X2516326Y2315566D02*
X2531326D01*
X2523826Y2308066D02*
Y2323066D01*
X2287500Y2350000D02*
X2302500D01*
X2295000Y2342500D02*
Y2357500D01*
X2277500Y2125000D02*
X2292500D01*
X2285000Y2117500D02*
Y2132500D01*
X2976000Y885000D02*
X3004000D01*
X2990000Y871000D02*
Y899000D01*
X2942500Y600000D02*
X2957500D01*
X2950000Y592500D02*
Y607500D01*
X2742500Y1035000D02*
X2757500D01*
X2750000Y1027500D02*
Y1042500D01*
X2812500Y1075000D02*
X2827500D01*
X2820000Y1067500D02*
Y1082500D01*
X3102500Y2510000D02*
X3117500D01*
X3110000Y2502500D02*
Y2517500D01*
X3102500Y2270000D02*
X3117500D01*
X3110000Y2262500D02*
Y2277500D01*
X2602500Y430000D02*
X2617500D01*
X2610000Y422500D02*
Y437500D01*
X3121000Y490000D02*
X3149000D01*
X3135000Y476000D02*
Y504000D01*
X2951000Y305000D02*
X2979000D01*
X2965000Y291000D02*
Y319000D01*
X2412500Y280000D02*
X2427500D01*
X2420000Y272500D02*
Y287500D01*
X2986000Y240000D02*
X3014000D01*
X3000000Y226000D02*
Y254000D01*
X3102500Y2750000D02*
X3117500D01*
X3110000Y2742500D02*
Y2757500D01*
X3327500Y2600000D02*
X3342500D01*
X3335000Y2592500D02*
Y2607500D01*
X3327500Y2360000D02*
X3342500D01*
X3335000Y2352500D02*
Y2367500D01*
X2707500Y1585000D02*
X2722500D01*
X2715000Y1577500D02*
Y1592500D01*
X2707500Y1485000D02*
X2722500D01*
X2715000Y1477500D02*
Y1492500D01*
X2707500Y1385000D02*
X2722500D01*
X2715000Y1377500D02*
Y1392500D01*
X1877500Y1300000D02*
X1892500D01*
X1885000Y1292500D02*
Y1307500D01*
X1877500Y1385000D02*
X1892500D01*
X1885000Y1377500D02*
Y1392500D01*
X1887500Y1675000D02*
X1902500D01*
X1895000Y1667500D02*
Y1682500D01*
X1972500Y1675000D02*
X1987500D01*
X1980000Y1667500D02*
Y1682500D01*
X2387500Y1150000D02*
X2402500D01*
X2395000Y1142500D02*
Y1157500D01*
X2480000Y4855000D02*
X2495000D01*
X2487500Y4847500D02*
Y4862500D01*
X2287500Y5470000D02*
X2302500D01*
X2295000Y5462500D02*
Y5477500D01*
X2516326Y5370566D02*
X2531326D01*
X2523826Y5363066D02*
Y5378066D01*
X2287500Y5405000D02*
X2302500D01*
X2295000Y5397500D02*
Y5412500D01*
X2986000Y3295000D02*
X3014000D01*
X3000000Y3281000D02*
Y3309000D01*
X2742500Y4090000D02*
X2757500D01*
X2750000Y4082500D02*
Y4097500D01*
X2976000Y3940000D02*
X3004000D01*
X2990000Y3926000D02*
Y3954000D01*
X3931000Y3550000D02*
X3959000D01*
X3945000Y3536000D02*
Y3564000D01*
X2582500Y4665000D02*
X2597500D01*
X2590000Y4657500D02*
Y4672500D01*
X2602500Y3485000D02*
X2617500D01*
X2610000Y3477500D02*
Y3492500D01*
X2487500Y5715000D02*
X2502500D01*
X2495000Y5707500D02*
Y5722500D01*
X2787500Y5725000D02*
X2802500D01*
X2795000Y5717500D02*
Y5732500D01*
X2707500Y4440000D02*
X2722500D01*
X2715000Y4432500D02*
Y4447500D01*
X2707500Y4540000D02*
X2722500D01*
X2715000Y4532500D02*
Y4547500D01*
X2707500Y4640000D02*
X2722500D01*
X2715000Y4632500D02*
Y4647500D01*
X2533238Y4813430D02*
X2548238D01*
X2540738Y4805930D02*
Y4820930D01*
X2277500Y5180000D02*
X2292500D01*
X2285000Y5172500D02*
Y5187500D01*
X4612500Y1685000D02*
X4627500D01*
X4620000Y1677500D02*
Y1692500D01*
X4792500Y3470000D02*
X4807500D01*
X4800000Y3462500D02*
Y3477500D01*
X1877500Y1470000D02*
X1892500D01*
X1885000Y1462500D02*
Y1477500D01*
X3252500Y2685000D02*
X3267500D01*
X3260000Y2677500D02*
Y2692500D01*
X3252500Y2445000D02*
X3267500D01*
X3260000Y2437500D02*
Y2452500D01*
X1952500Y1215000D02*
X1967500D01*
X1960000Y1207500D02*
Y1222500D01*
X3721000Y1400000D02*
X3749000D01*
X3735000Y1386000D02*
Y1414000D01*
X2387500Y4205000D02*
X2402500D01*
X2395000Y4197500D02*
Y4212500D01*
X2027500Y4270000D02*
X2042500D01*
X2035000Y4262500D02*
Y4277500D01*
X1877500Y4355000D02*
X1892500D01*
X1885000Y4347500D02*
Y4362500D01*
X1877500Y4440000D02*
X1892500D01*
X1885000Y4432500D02*
Y4447500D01*
X1806000Y3955000D02*
X1834000D01*
X1820000Y3941000D02*
Y3969000D01*
X3327500Y5415000D02*
X3342500D01*
X3335000Y5407500D02*
Y5422500D01*
X3327500Y5655000D02*
X3342500D01*
X3335000Y5647500D02*
Y5662500D01*
X3327500Y5895000D02*
X3342500D01*
X3335000Y5887500D02*
Y5902500D01*
X3912500Y5095000D02*
X3927500D01*
X3920000Y5087500D02*
Y5102500D01*
X2812500Y4130000D02*
X2827500D01*
X2820000Y4122500D02*
Y4137500D01*
X2499042Y4620758D02*
X2514042D01*
X2506542Y4613258D02*
Y4628258D01*
X2582500Y3350000D02*
X2597500D01*
X2590000Y3342500D02*
Y3357500D01*
X3102500Y5805000D02*
X3117500D01*
X3110000Y5797500D02*
Y5812500D01*
X3102500Y5565000D02*
X3117500D01*
X3110000Y5557500D02*
Y5572500D01*
X3252500Y5740000D02*
X3267500D01*
X3260000Y5732500D02*
Y5747500D01*
X2706000Y5725000D02*
X2734000D01*
X2720000Y5711000D02*
Y5739000D01*
X3252500Y5500000D02*
X3267500D01*
X3260000Y5492500D02*
Y5507500D01*
X3102500Y5325000D02*
X3117500D01*
X3110000Y5317500D02*
Y5332500D01*
X3102500Y6045000D02*
X3117500D01*
X3110000Y6037500D02*
Y6052500D01*
X3252500Y5980000D02*
X3267500D01*
X3260000Y5972500D02*
Y5987500D01*
X3721000Y4455000D02*
X3749000D01*
X3735000Y4441000D02*
Y4469000D01*
X3741634Y4319598D02*
X3756634D01*
X3749134Y4312098D02*
Y4327098D01*
X3882500Y4590000D02*
X3897500D01*
X3890000Y4582500D02*
Y4597500D01*
X3711000Y5135000D02*
X3739000D01*
X3725000Y5121000D02*
Y5149000D01*
X1877500Y4525000D02*
X1892500D01*
X1885000Y4517500D02*
Y4532500D01*
X1952500Y4270000D02*
X1967500D01*
X1960000Y4262500D02*
Y4277500D01*
X1741000Y4280000D02*
X1769000D01*
X1755000Y4266000D02*
Y4294000D01*
M02*
