G04*
G04 #@! TF.GenerationSoftware,Altium Limited,Altium Designer,23.5.1 (21)*
G04*
G04 Layer_Physical_Order=1*
G04 Layer_Color=255*
%FSLAX26Y26*%
%MOIN*%
G70*
G04*
G04 #@! TF.SameCoordinates,6A5F5C75-F477-485A-9627-383C203D1060*
G04*
G04*
G04 #@! TF.FilePolarity,Positive*
G04*
G01*
G75*
%ADD11C,0.010000*%
%ADD13C,0.020000*%
%ADD17O,0.029528X0.009842*%
%ADD18O,0.009842X0.029528*%
%ADD19R,0.233858X0.233858*%
%ADD20R,0.041339X0.037402*%
%ADD21R,0.037402X0.031496*%
%ADD22R,0.031496X0.037402*%
%ADD23R,0.058071X0.017716*%
%ADD24R,0.037402X0.041339*%
%ADD25R,0.033465X0.011811*%
G04:AMPARAMS|DCode=26|XSize=23.622mil|YSize=39.37mil|CornerRadius=2.008mil|HoleSize=0mil|Usage=FLASHONLY|Rotation=270.000|XOffset=0mil|YOffset=0mil|HoleType=Round|Shape=RoundedRectangle|*
%AMROUNDEDRECTD26*
21,1,0.023622,0.035354,0,0,270.0*
21,1,0.019606,0.039370,0,0,270.0*
1,1,0.004016,-0.017677,-0.009803*
1,1,0.004016,-0.017677,0.009803*
1,1,0.004016,0.017677,0.009803*
1,1,0.004016,0.017677,-0.009803*
%
%ADD26ROUNDEDRECTD26*%
%ADD27R,0.017716X0.058071*%
%ADD28R,0.011811X0.033465*%
%ADD29R,0.035433X0.035433*%
%ADD30R,0.035433X0.035433*%
%ADD36R,0.062992X0.013780*%
%ADD54C,0.015000*%
%ADD55C,0.030000*%
%ADD56C,0.200000*%
%ADD57C,0.059055*%
%ADD58C,0.082677*%
%ADD59R,0.059055X0.059055*%
%ADD60C,0.078740*%
%ADD61R,0.059055X0.059055*%
%ADD62C,0.025000*%
%ADD63C,0.050000*%
G36*
X4715000Y6915000D02*
X4655000D01*
Y6685000D01*
X4525000D01*
Y6915000D01*
X4505000D01*
Y6950000D01*
X4715000D01*
Y6915000D01*
D02*
G37*
G36*
X3265000Y5930000D02*
Y5900000D01*
X3105000D01*
Y5910000D01*
X3165000D01*
Y5995000D01*
X3265000D01*
Y5930000D01*
D02*
G37*
G36*
Y5690000D02*
Y5660000D01*
X3105000D01*
Y5670000D01*
X3165000D01*
Y5755000D01*
X3265000D01*
Y5690000D01*
D02*
G37*
G36*
X2740000Y5525000D02*
X2670000D01*
Y5460000D01*
X2640000D01*
Y5750000D01*
X2740000D01*
Y5525000D01*
D02*
G37*
G36*
X3265000Y5450000D02*
Y5420000D01*
X3105000D01*
Y5430000D01*
X3165000D01*
Y5515000D01*
X3265000D01*
Y5450000D01*
D02*
G37*
G36*
X4985000Y4965000D02*
X4915000D01*
Y4900000D01*
X4885000D01*
Y5100000D01*
X4985000D01*
Y4965000D01*
D02*
G37*
G36*
X965000Y4610000D02*
X905000D01*
Y4495000D01*
X930000D01*
Y4460000D01*
X865000D01*
Y4650000D01*
X965000D01*
Y4610000D01*
D02*
G37*
G36*
X845000Y4460000D02*
X720000D01*
Y4495000D01*
X755000D01*
Y4610000D01*
X680000D01*
Y4625000D01*
X845000D01*
Y4460000D01*
D02*
G37*
G36*
X3910000Y4405000D02*
X3970000D01*
Y4375000D01*
X3810000D01*
Y4385000D01*
X3870000D01*
Y4480000D01*
X3910000D01*
Y4405000D01*
D02*
G37*
G36*
X3205000Y4075000D02*
X3135000D01*
Y4000000D01*
X3085000D01*
Y4100000D01*
X3165000D01*
Y4115000D01*
X3205000D01*
Y4075000D01*
D02*
G37*
G36*
X3735000Y3835000D02*
X3850000D01*
Y3965000D01*
X3885000D01*
Y3795000D01*
X3695000D01*
Y4025000D01*
X3735000D01*
Y3835000D01*
D02*
G37*
G36*
X3885000Y3650000D02*
X3850000D01*
Y3685000D01*
X3735000D01*
Y3610000D01*
X3720000D01*
Y3775000D01*
X3885000D01*
Y3650000D01*
D02*
G37*
G36*
X5130000Y3420000D02*
X4965000D01*
Y3440000D01*
X5095000D01*
Y3500000D01*
X4965000D01*
Y3520000D01*
X5130000D01*
Y3420000D01*
D02*
G37*
G36*
X630000Y3425000D02*
X500000D01*
Y3365000D01*
X630000D01*
Y3345000D01*
X465000D01*
Y3445000D01*
X630000D01*
Y3425000D01*
D02*
G37*
G36*
X2705000Y3440000D02*
X2775000D01*
Y3400000D01*
X2725000D01*
Y3340000D01*
X2695000D01*
Y3500000D01*
X2705000D01*
Y3440000D01*
D02*
G37*
G36*
X2515000Y3290000D02*
X2585000D01*
Y3250000D01*
X2535000D01*
Y3190000D01*
X2505000D01*
Y3350000D01*
X2515000D01*
Y3290000D01*
D02*
G37*
G36*
X5130000Y3005000D02*
X4965000D01*
Y3025000D01*
X5095000D01*
Y3085000D01*
X4965000D01*
Y3105000D01*
X5130000D01*
Y3005000D01*
D02*
G37*
G36*
X840000D02*
X700000D01*
Y3110000D01*
X840000D01*
Y3005000D01*
D02*
G37*
G36*
X630000Y3010000D02*
X500000D01*
Y2950000D01*
X630000D01*
Y2930000D01*
X465000D01*
Y3030000D01*
X630000D01*
Y3010000D01*
D02*
G37*
G36*
X3265000Y2875000D02*
Y2845000D01*
X3105000D01*
Y2855000D01*
X3165000D01*
Y2940000D01*
X3265000D01*
Y2875000D01*
D02*
G37*
G36*
Y2635000D02*
Y2605000D01*
X3105000D01*
Y2615000D01*
X3165000D01*
Y2700000D01*
X3265000D01*
Y2635000D01*
D02*
G37*
G36*
X5130000Y2590000D02*
X4965000D01*
Y2610000D01*
X5095000D01*
Y2670000D01*
X4965000D01*
Y2690000D01*
X5130000D01*
Y2590000D01*
D02*
G37*
G36*
X840000Y2585000D02*
X700000D01*
Y2690000D01*
X840000D01*
Y2585000D01*
D02*
G37*
G36*
X4895000Y2510000D02*
X4765000D01*
Y2615000D01*
X4895000D01*
Y2510000D01*
D02*
G37*
G36*
X630000Y2590000D02*
X500000D01*
Y2530000D01*
X630000D01*
Y2510000D01*
X465000D01*
Y2610000D01*
X630000D01*
Y2590000D01*
D02*
G37*
G36*
X2740000Y2470000D02*
X2670000D01*
Y2405000D01*
X2640000D01*
Y2695000D01*
X2740000D01*
Y2470000D01*
D02*
G37*
G36*
X3265000Y2395000D02*
Y2365000D01*
X3105000D01*
Y2375000D01*
X3165000D01*
Y2460000D01*
X3265000D01*
Y2395000D01*
D02*
G37*
G36*
X4985000Y1990000D02*
X4915000D01*
Y1925000D01*
X4885000D01*
Y2125000D01*
X4985000D01*
Y1990000D01*
D02*
G37*
G36*
X965000Y1555000D02*
X905000D01*
Y1440000D01*
X930000D01*
Y1405000D01*
X865000D01*
Y1595000D01*
X965000D01*
Y1555000D01*
D02*
G37*
G36*
X845000Y1405000D02*
X720000D01*
Y1440000D01*
X755000D01*
Y1555000D01*
X680000D01*
Y1570000D01*
X845000D01*
Y1405000D01*
D02*
G37*
G36*
X3910000Y1350000D02*
X3970000D01*
Y1320000D01*
X3810000D01*
Y1330000D01*
X3870000D01*
Y1425000D01*
X3910000D01*
Y1350000D01*
D02*
G37*
G36*
X3205000Y1020000D02*
X3135000D01*
Y945000D01*
X3085000D01*
Y1045000D01*
X3165000D01*
Y1060000D01*
X3205000D01*
Y1020000D01*
D02*
G37*
G36*
X3885000Y740000D02*
X3695000D01*
Y840000D01*
X3735000D01*
Y780000D01*
X3850000D01*
Y910000D01*
X3885000D01*
Y740000D01*
D02*
G37*
G36*
Y595000D02*
X3850000D01*
Y630000D01*
X3735000D01*
Y555000D01*
X3720000D01*
Y720000D01*
X3885000D01*
Y595000D01*
D02*
G37*
G36*
X2705000Y385000D02*
X2775000D01*
Y345000D01*
X2725000D01*
Y285000D01*
X2695000D01*
Y445000D01*
X2705000D01*
Y385000D01*
D02*
G37*
G36*
X2515000Y235000D02*
X2585000D01*
Y195000D01*
X2535000D01*
Y135000D01*
X2505000D01*
Y295000D01*
X2515000D01*
Y235000D01*
D02*
G37*
D11*
X1290000Y4165000D02*
X1335000Y4120000D01*
X1055000Y4165000D02*
X1290000D01*
X3681952Y2278048D02*
X3980000Y1980000D01*
X3436867Y2278048D02*
X3681952D01*
X3679528Y2330472D02*
X4015000Y1995000D01*
X4030000Y1305472D02*
Y2001214D01*
X3247008Y2570472D02*
X3460740D01*
X4015000Y1311684D02*
Y1995000D01*
X3460740Y2570472D02*
X4030000Y2001214D01*
X3247008Y2330472D02*
X3679528D01*
X3420000Y3810000D02*
X3427654Y3817654D01*
Y3849536D01*
X3487822Y3909704D01*
X3381668Y3655454D02*
Y3676668D01*
X3180012Y3453800D02*
X3381668Y3655454D01*
X4825000Y5255000D02*
X5080000Y5510000D01*
Y6995000D01*
X4825000Y4864224D02*
Y5255000D01*
X4985000Y2290000D02*
X5138786D01*
X4985000Y2255000D02*
X5125000D01*
X5200000Y2330000D01*
X5185000Y2336214D02*
Y2554793D01*
X5138786Y2290000D02*
X5185000Y2336214D01*
X5200000Y2330000D02*
Y2548579D01*
X5252244Y3907759D02*
X5252245Y3907758D01*
X5207244Y6971748D02*
X5207244Y6971748D01*
X4970147Y7755000D02*
X5207244Y7517903D01*
X5267245Y1972245D02*
Y4473622D01*
X5215000Y2542366D02*
X5222245Y2549611D01*
X4891360Y7855000D02*
X5222244Y7524117D01*
X5222244Y3555036D02*
X5222245Y3555035D01*
X5222244Y6972913D02*
X5222244D01*
X5252245Y1987245D02*
Y3907758D01*
X5090590Y1880590D02*
X5215000Y2005000D01*
X5192244Y6969078D02*
Y7511690D01*
X5267244Y4473623D02*
Y7542756D01*
X5215000Y2005000D02*
Y2542366D01*
X5207244Y6971748D02*
Y7517903D01*
X5237245Y2002245D02*
Y3561248D01*
X5185000Y2554793D02*
X5192245Y2562037D01*
X5267244Y4473623D02*
X5267245Y4473622D01*
X5192244Y3542610D02*
Y6969078D01*
X5048934Y7655000D02*
X5192244Y7511690D01*
X5090000Y1855000D02*
X5237245Y2002245D01*
X5207244Y3548823D02*
X5207245Y3548822D01*
X5192244Y6969078D02*
X5192244Y6969078D01*
X5207244Y3548823D02*
Y6971748D01*
X5192244Y3542610D02*
X5192245Y3542609D01*
X5237244Y3561249D02*
X5237245Y3561248D01*
X5200000Y2548579D02*
X5207245Y2555824D01*
X5073228Y1778228D02*
X5267245Y1972245D01*
X5222244Y6972913D02*
Y7524117D01*
X5222244Y3555036D02*
Y6972913D01*
X5068818Y1803818D02*
X5252245Y1987245D01*
X5252244Y3907759D02*
Y7536543D01*
X5222245Y2549611D02*
Y3555035D01*
X5192245Y2562037D02*
Y3542609D01*
X5207245Y2555824D02*
Y3548822D01*
X5237244Y3561249D02*
Y6971360D01*
X5237244D02*
Y7530330D01*
Y6971360D02*
X5237244D01*
X5135000Y4900000D02*
Y7240000D01*
X4885670Y4753228D02*
X5013228D01*
X5160000Y4900000D02*
Y7236213D01*
X5013818Y4778818D02*
X5135000Y4900000D01*
X5013228Y4753228D02*
X5160000Y4900000D01*
X4841213Y7555000D02*
X5160000Y7236213D01*
X4885670Y4778818D02*
X5013818D01*
X4920000Y7455000D02*
X5135000Y7240000D01*
X4660000Y8150000D02*
X5267244Y7542756D01*
X4733787Y8055000D02*
X5252244Y7536543D01*
X4654330Y1906182D02*
X4658190Y1910040D01*
X4684634D02*
X4750000Y1975406D01*
Y2185000D01*
X4658190Y1910040D02*
X4684634D01*
X2489850Y4477716D02*
X2489852D01*
X3694025Y4399528D02*
X3827992D01*
X3689497Y4395000D02*
X3694025Y4399528D01*
X2572568Y4395000D02*
X3689497D01*
X2489852Y4477716D02*
X2572568Y4395000D01*
X3258740Y5864566D02*
X3651870Y5471437D01*
Y5463632D02*
X4045000Y5070503D01*
X3651870Y5463632D02*
Y5471437D01*
X3247008Y5865472D02*
X3247914Y5864566D01*
X3258740D01*
X4045000Y4354258D02*
Y5070503D01*
X3460740Y5625472D02*
X4030000Y5056214D01*
X3247008Y5385472D02*
X3679528D01*
X4015000Y5050000D01*
Y4366684D02*
Y5050000D01*
X4030000Y4360472D02*
Y5056214D01*
X3247008Y5625472D02*
X3460740D01*
X4272500Y6512500D02*
X4673576Y6111424D01*
Y4910630D02*
Y6111424D01*
X2840000Y6400900D02*
X2869528Y6371373D01*
X2840000Y6400900D02*
Y6475000D01*
X2835870Y6660870D02*
X3130000Y6955000D01*
X4030000D01*
X2869528Y6294528D02*
Y6371373D01*
X3125000Y6855000D02*
X4030000D01*
X2895875Y6625875D02*
X3125000Y6855000D01*
X2885000Y6288787D02*
Y6435000D01*
X4325000Y6560000D02*
Y6565000D01*
Y6560000D02*
X4693366Y6191634D01*
X4820000Y7255000D02*
X5080000Y6995000D01*
X4840000Y5230000D02*
X5100000Y5490000D01*
Y7025000D01*
X4770000Y7355000D02*
X5100000Y7025000D01*
X4654330Y4881182D02*
X4658190Y4885040D01*
X4684634D01*
X4693366Y4893772D01*
X4654330Y4906772D02*
X4669718D01*
X4673576Y4910630D01*
X4693366Y6191634D02*
X4693366Y4893772D01*
X4130000Y7255000D02*
X4820000D01*
X4130000Y7355000D02*
X4770000D01*
X4840000Y4874814D02*
Y5230000D01*
X4881812Y4859448D02*
X4885670Y4855590D01*
X4881812Y4833858D02*
X4885670Y4830000D01*
X4840000Y4874814D02*
X4855366Y4859448D01*
X4825000Y4864224D02*
X4855366Y4833858D01*
X4881812D01*
X4855366Y4859448D02*
X4881812D01*
X4885670Y1880590D02*
X5090590D01*
X4885670Y1855000D02*
X5090000D01*
X4885670Y1803818D02*
X5068818D01*
X4885670Y1778228D02*
X5073228D01*
X3016924Y5444528D02*
X3122992D01*
X2905000Y5353816D02*
Y5484142D01*
X2793662Y5221266D02*
X3016924Y5444528D01*
X2793662Y5217888D02*
Y5221266D01*
X2742478Y5166704D02*
X2793662Y5217888D01*
X2905000Y5484142D02*
X3104480Y5683622D01*
X2778662Y5227478D02*
X2905000Y5353816D01*
X2890000Y5360030D02*
Y5709142D01*
X3104480Y5923622D01*
X2763662Y5233692D02*
X2890000Y5360030D01*
X2835000Y6238787D02*
X2885000Y6288787D01*
X2835000Y5453188D02*
Y6238787D01*
X2695040Y5313228D02*
X2835000Y5453188D01*
X2820000Y5459402D02*
Y6245000D01*
X2640670Y5338818D02*
X2699418D01*
X2820000Y5459402D01*
Y6245000D02*
X2869528Y6294528D01*
X1827245Y4735170D02*
X1886448Y4675966D01*
X1934462Y4627952D01*
X4130000Y7455000D02*
X4920000D01*
X4130000Y7555000D02*
X4841213D01*
X4130000Y7655000D02*
X5048934D01*
X4130000Y7755000D02*
X4970147D01*
X4130000Y7855000D02*
X4891360D01*
X4130000Y7955000D02*
X4812574D01*
X4130000Y8055000D02*
X4733787D01*
X4130000Y8155000D02*
X4135000Y8150000D01*
X4660000D01*
X4812574Y7955000D02*
X5237244Y7530330D01*
X2225000Y6495000D02*
X2785000Y7055000D01*
X2225000Y6222416D02*
Y6495000D01*
X1955000Y5952416D02*
X2225000Y6222416D01*
X2210000Y6228629D02*
Y6501213D01*
X2863787Y7155000D02*
X4030000D01*
X2195000Y6234842D02*
Y6507426D01*
X2210000Y6501213D02*
X2863787Y7155000D01*
X2180000Y6513640D02*
X3021360Y7355000D01*
X2942574Y7255000D02*
X4030000D01*
X2785000Y7055000D02*
X4030000D01*
X3021360Y7355000D02*
X4030000D01*
X2180000Y6241056D02*
Y6513640D01*
X2195000Y6507426D02*
X2942574Y7255000D01*
X1955000Y5657500D02*
Y5952416D01*
X1925000Y5964842D02*
X2195000Y6234842D01*
X1940000Y5958629D02*
X2210000Y6228629D01*
X1910000Y5971056D02*
X2180000Y6241056D01*
X1940000Y5627500D02*
Y5958629D01*
X1910000Y5570000D02*
Y5971056D01*
X1925000Y5601622D02*
Y5964842D01*
X670000Y6286213D02*
X1938787Y7555000D01*
X4030000D01*
X655000Y6292426D02*
X2017574Y7655000D01*
X4030000D01*
X572500Y6231140D02*
X2096360Y7755000D01*
X4030000D01*
X2175147Y7855000D02*
X4030000D01*
X555000Y6234853D02*
X2175147Y7855000D01*
X3985000Y7910000D02*
X4030000Y7955000D01*
X530000Y6231066D02*
X2208934Y7910000D01*
X3985000D01*
X510000Y6232279D02*
X2202721Y7925000D01*
X3900000D02*
X4030000Y8055000D01*
X2202721Y7925000D02*
X3900000D01*
X495000Y6238492D02*
X2196508Y7940000D01*
X3815000D02*
X4030000Y8155000D01*
X2196508Y7940000D02*
X3815000D01*
X465000Y6250918D02*
X2184081Y7970000D01*
X435000Y6263345D02*
X2171655Y8000000D01*
X480000Y6244706D02*
X2190294Y7955000D01*
X390000Y6281984D02*
X2153015Y8045000D01*
X375000Y6288198D02*
X2146802Y8060000D01*
X2220900Y8090000D02*
X2385472Y8254572D01*
X2820000Y8045000D02*
X3030000Y8255000D01*
X450000Y6257132D02*
X2177868Y7985000D01*
X405000Y6275771D02*
X2159228Y8030000D01*
X2165442Y8015000D02*
X2990000D01*
X2171655Y8000000D02*
X3075000D01*
X2159228Y8030000D02*
X2905000D01*
X2435000Y8060000D02*
X2630000Y8255000D01*
X3075000Y8000000D02*
X3330000Y8255000D01*
X360000Y6294411D02*
X2140589Y8075000D01*
X2350000D02*
X2530000Y8255000D01*
X3160000Y7985000D02*
X3430000Y8255000D01*
X2177868Y7985000D02*
X3160000D01*
X2140589Y8075000D02*
X2350000D01*
X2146802Y8060000D02*
X2435000D01*
X420000Y6269558D02*
X2165442Y8015000D01*
X3330000Y7955000D02*
X3630000Y8255000D01*
X2990000Y8015000D02*
X3230000Y8255000D01*
X2190294Y7955000D02*
X3330000D01*
X2905000Y8030000D02*
X3130000Y8255000D01*
X2134376Y8090000D02*
X2220900D01*
X345000Y6300624D02*
X2134376Y8090000D01*
X2184081Y7970000D02*
X3245000D01*
X3530000Y8255000D01*
X2153015Y8045000D02*
X2820000D01*
X330000Y5652782D02*
Y6306837D01*
X572500Y4635680D02*
Y6231140D01*
X330000Y6306837D02*
X2197069Y8173907D01*
X465000Y4456967D02*
Y6250918D01*
X530000Y4635754D02*
Y6231066D01*
X405000Y4432114D02*
Y6275771D01*
X510000Y4528180D02*
Y6232279D01*
X670000Y4706862D02*
Y6286213D01*
X480000Y4463180D02*
Y6244706D01*
X555000Y4631968D02*
Y6234853D01*
X299999Y6284999D02*
Y6319263D01*
X315000Y5646569D02*
Y6313051D01*
X495000Y4480000D02*
Y6238492D01*
X345000Y5658995D02*
Y6300624D01*
X450000Y4450754D02*
Y6257132D01*
X375000Y5671422D02*
Y6288198D01*
X709330Y4719566D02*
Y6304330D01*
X435000Y4444541D02*
Y6263345D01*
X1860000Y7455000D02*
X4029999D01*
X2197069Y8173907D02*
X2248907D01*
X420000Y4438328D02*
Y6269558D01*
X655000Y4696272D02*
Y6292426D01*
X390000Y5677635D02*
Y6281984D01*
X2145000Y8143051D02*
Y8170000D01*
X299999Y6319263D02*
X2130000Y8149264D01*
X709330Y6304330D02*
X1860000Y7455000D01*
X360000Y5665208D02*
Y6294411D01*
X315000Y6313051D02*
X2145000Y8143051D01*
X2130000Y8149264D02*
Y8255000D01*
X655000Y4696272D02*
X679028Y4672244D01*
X2145000Y8170000D02*
X2230000Y8255000D01*
X620943Y4566024D02*
X709330D01*
X555000Y4631968D02*
X557500Y4629468D01*
Y4629467D02*
Y4629468D01*
X610353Y4576614D02*
X610353D01*
X620943Y4566024D01*
X557500Y4629467D02*
X610353Y4576614D01*
X705472Y1617244D02*
X709330Y1613386D01*
X315000Y1838180D02*
Y5646569D01*
X679028Y1617244D02*
X705472D01*
X330000Y1966272D02*
X679028Y1617244D01*
X315000Y1838180D02*
X616566Y1536614D01*
X709330D01*
X330000Y5652782D02*
X330000Y5652782D01*
X405000Y4158787D02*
X505000Y4058787D01*
X345000Y4020000D02*
Y5658995D01*
X315000Y5646569D02*
X315000Y5646569D01*
X360000Y4085000D02*
Y5665208D01*
X330000Y1966272D02*
Y5652782D01*
X390000Y5677635D02*
X390000Y5677635D01*
X345000Y5658995D02*
X345000Y5658995D01*
X375000Y4118787D02*
Y5671421D01*
X390000Y4125000D02*
Y5677635D01*
X375000Y5671422D02*
X375000Y5671421D01*
X505000Y4000000D02*
Y4058787D01*
X360000Y5665208D02*
X360000Y5665208D01*
X405000Y4158787D02*
Y4432114D01*
X420000Y4165000D02*
Y4438327D01*
X375000Y4118787D02*
X435000Y4058787D01*
X405000Y4432114D02*
X405000Y4432114D01*
X435000Y4000000D02*
Y4058787D01*
X420000Y4438328D02*
X420000Y4438327D01*
X4029999Y7455000D02*
X4030000Y7455000D01*
X189999Y6838785D02*
X1450607Y8099393D01*
X234999Y6820146D02*
X1549853Y8135000D01*
X190000Y1565000D02*
X870000Y885000D01*
X189999Y6838785D02*
X190000Y1565000D01*
X219999Y6826359D02*
X220000Y1585000D01*
X174999Y6844999D02*
X175000Y1555000D01*
X234999Y6820146D02*
X235000Y1593431D01*
X793432Y1035000D01*
X205000Y1575000D02*
X845000Y935000D01*
X175000Y1555000D02*
X895000Y835000D01*
X204999Y6832572D02*
X205000Y1575000D01*
X174999Y6844999D02*
X1440000Y8110000D01*
X220000Y1585000D02*
X820000Y985000D01*
X204999Y6832572D02*
X1461213Y8088787D01*
X219999Y6826359D02*
X1471820Y8078180D01*
X1549853Y8135000D02*
X1750000D01*
X250000Y1599645D02*
Y6813932D01*
Y1599645D02*
X794645Y1055000D01*
X250000Y6813932D02*
X1556068Y8120000D01*
X1925000Y5601622D02*
X1927500Y5599122D01*
X1940000Y5627500D02*
X1942500Y5625000D01*
X1955000Y5657500D02*
X1957500Y5655000D01*
X679028Y4672244D02*
X705472D01*
X709330Y4668386D01*
X2248907Y8173907D02*
X2330000Y8255000D01*
X2385472Y8254572D02*
X2429572D01*
X2430000Y8255000D01*
X613976Y1511024D02*
X709330D01*
X300000Y1825000D02*
X613976Y1511024D01*
X299999Y6284999D02*
X300000Y1825000D01*
X1450607Y8099393D02*
X1567543Y8216330D01*
Y8252543D02*
X1570000Y8255000D01*
X1567543Y8216330D02*
Y8252543D01*
X1835000Y8120000D02*
X1970000Y8255000D01*
X1556068Y8120000D02*
X1835000D01*
X1750000Y8135000D02*
X1870000Y8255000D01*
X1539627Y8167200D02*
X1582200D01*
X1670000Y8255000D01*
X1667200Y8152200D02*
X1770000Y8255000D01*
X1461213Y8088787D02*
X1539627Y8167200D01*
X1471820Y8078180D02*
X1545840Y8152200D01*
X1667200D01*
X1470000Y8140000D02*
Y8255000D01*
X1440000Y8110000D02*
X1470000Y8140000D01*
X1200000Y835000D02*
X1200481Y835481D01*
X895000Y835000D02*
X1200000D01*
X870000Y885000D02*
X1250000D01*
X858180Y4085000D02*
X890000D01*
X480000Y4463180D02*
X858180Y4085000D01*
X435000Y4401967D02*
X830000Y4006967D01*
X435000Y4401967D02*
Y4444540D01*
X435000Y4444541D02*
X435000Y4444540D01*
X530000Y4635754D02*
X625320Y4540434D01*
X616566Y4591614D02*
X709330D01*
X572500Y4635680D02*
X616566Y4591614D01*
X450000Y4408180D02*
Y4450754D01*
X450000Y4450754D02*
X450000Y4450754D01*
X465000Y4456967D02*
X851967Y4070000D01*
X625320Y4540434D02*
X709330D01*
X679028Y4697834D02*
X705472D01*
X709330Y4693976D01*
X670000Y4706862D02*
X679028Y4697834D01*
X1813544Y1638032D02*
X1898308Y1553268D01*
X1827244Y1695512D02*
X1949804Y1572952D01*
X851968Y4070000D02*
X860000Y4061968D01*
X851967Y4070000D02*
X851968D01*
X830000Y3975000D02*
Y4006967D01*
X1980000Y4740000D02*
X2046102Y4673898D01*
X1980000Y4740000D02*
Y4801456D01*
X1697130Y2757130D02*
X1700000Y2760000D01*
X1145000Y2200000D02*
X1697130Y2752130D01*
Y2757130D01*
X2907042Y3680000D02*
X3030900D01*
X3066663Y3538043D02*
X3453324Y3924704D01*
X3063793Y3510687D02*
X3066663Y3513557D01*
Y3538043D01*
X2780000Y2765006D02*
X2815000Y2730006D01*
Y2635954D02*
Y2730006D01*
X2780000Y2765006D02*
Y2770000D01*
X2640670Y2283818D02*
X2734771D01*
X2640670Y2258228D02*
X2730395D01*
X2815000Y2635954D02*
X2830787Y2620167D01*
Y2379833D02*
Y2620167D01*
X2734771Y2283818D02*
X2830787Y2379833D01*
X2730395Y2258228D02*
X2845787Y2373620D01*
X2910787Y2346696D02*
Y2434929D01*
X2830000Y2642167D02*
X2845787Y2626380D01*
X2830000Y2642167D02*
Y2840000D01*
X2905000Y2298816D02*
Y2340910D01*
X2845787Y2373620D02*
Y2626380D01*
X2910787Y2434929D02*
X3104480Y2628622D01*
X2890000Y2305030D02*
Y2347123D01*
X2905000Y2340910D02*
X2910787Y2346696D01*
X2895787Y2659929D02*
X3104480Y2868622D01*
X2890000Y2347123D02*
X2895787Y2352910D01*
Y2659929D01*
X3122086Y2628622D02*
X3122992Y2629528D01*
X3104480Y2628622D02*
X3122086D01*
X793432Y1035000D02*
X1200000D01*
X794645Y1055000D02*
X1010000D01*
X360000Y2410000D02*
Y3725000D01*
Y2410000D02*
X915000Y1855000D01*
X345000Y2355000D02*
X915000Y1785000D01*
X345000Y2355000D02*
Y3785000D01*
X673054Y4113054D01*
X360000Y3725000D02*
X695000Y4060000D01*
X1897870Y4722130D02*
X1930000Y4690000D01*
X1895942Y4725000D02*
X1897870Y4723072D01*
Y4722130D02*
Y4723072D01*
X1895000Y4725000D02*
Y4801456D01*
Y4725000D02*
X1895942D01*
X1934462Y4627952D02*
X1959488D01*
X1813544Y4780000D02*
X1827245Y4766299D01*
Y4735170D02*
Y4766299D01*
X1930000Y4690000D02*
X2008786D01*
X2124763Y4259763D02*
Y4344409D01*
X2124842Y4344488D01*
X2120000Y4255000D02*
X2124763Y4259763D01*
X2164212Y4283983D02*
X2234410Y4213785D01*
X2155000Y4206576D02*
Y4269497D01*
X2144528Y4279969D02*
X2155000Y4269497D01*
Y4206576D02*
X2163032Y4198544D01*
X2164212Y4283983D02*
Y4344488D01*
X2234410Y4130000D02*
Y4213785D01*
X2144528Y4279969D02*
Y4344488D01*
X2183976Y4285434D02*
X2325708Y4143700D01*
X2339410Y4130000D02*
Y4132952D01*
X2328662Y4143700D02*
X2339410Y4132952D01*
X2325708Y4143700D02*
X2328662D01*
X2183976Y4285434D02*
Y4344410D01*
X450000Y4408180D02*
X856406Y4001776D01*
X873224D01*
X820000Y985000D02*
X1250000D01*
X845000Y935000D02*
X1200000D01*
X1010000Y1055000D02*
X1012500Y1057500D01*
X1000000Y1095000D02*
X1005000Y1100000D01*
X850000Y1095000D02*
X1000000D01*
X845000Y1090000D02*
X850000Y1095000D01*
X1012500Y1057500D02*
X1222500D01*
X1250000Y1085000D01*
X2034090Y1214090D02*
Y1217500D01*
X1995000Y1175000D02*
X2034090Y1214090D01*
X2150000Y1156576D02*
X2163032Y1143544D01*
X2150000Y1156576D02*
Y1212309D01*
X2144528Y1217781D02*
X2150000Y1212309D01*
X2115000Y1195000D02*
Y1205824D01*
X2144528Y1217781D02*
Y1289488D01*
X2124842Y1215666D02*
Y1289488D01*
X2115000Y1205824D02*
X2124842Y1215666D01*
X2164212Y1219310D02*
X2234410Y1149114D01*
Y1075000D02*
Y1149114D01*
X2164212Y1219310D02*
Y1289488D01*
X2183976Y1230434D02*
Y1289410D01*
X2339410Y1075000D02*
Y1077952D01*
X2325708Y1088700D02*
X2328662D01*
X2339410Y1077952D01*
X2183976Y1230434D02*
X2325708Y1088700D01*
X2080000Y1143544D02*
Y1230000D01*
X2105158Y1255158D02*
Y1289488D01*
X2080000Y1230000D02*
X2105158Y1255158D01*
X802865Y1117346D02*
X806448D01*
X824102Y1135000D02*
X940000D01*
X806448Y1117346D02*
X824102Y1135000D01*
X940670Y1511024D02*
X944528Y1507166D01*
X1500000Y730000D02*
Y978138D01*
X970972Y1532756D02*
X1515000Y988728D01*
Y740000D02*
Y988728D01*
X970974Y1507166D02*
X1500000Y978138D01*
X940670Y1536614D02*
X944528Y1532756D01*
X970972D01*
X944528Y1507166D02*
X970974D01*
X1006614Y1613386D02*
X1445000Y1175000D01*
X1813034D01*
X940670Y1613386D02*
X1006614D01*
X1020000Y1655000D02*
X1485000Y1190000D01*
X1806820D01*
X1306330Y1430472D02*
X1309528D01*
X1395000Y1345000D02*
X1876820D01*
X1020000Y1730000D02*
X1022870Y1727130D01*
Y1717130D02*
Y1727130D01*
X1300472Y1436330D02*
X1306330Y1430472D01*
X1300472Y1436330D02*
Y1439528D01*
X1309528Y1430472D02*
X1395000Y1345000D01*
X1022870Y1717130D02*
X1300472Y1439528D01*
X1818070Y1474528D02*
X1959488D01*
X1980000Y1685000D02*
X2046102Y1618898D01*
X1818070Y4529528D02*
X1959488D01*
X1895000Y1670000D02*
X1895942D01*
X1895000D02*
Y1746456D01*
X1924564Y1169564D02*
X2005000Y1250000D01*
X1924564Y4224564D02*
X2005000Y4305000D01*
X1052586Y4693976D02*
X1501562Y4245000D01*
X920492Y4719566D02*
X1073328D01*
X2065788Y1289488D02*
Y1395788D01*
X1959488Y1454842D02*
X2105158D01*
Y1600512D01*
X2065788Y4344488D02*
Y4450788D01*
X1959488Y4509842D02*
X2105158D01*
Y4655512D01*
X1813544Y1553032D02*
X1852500Y1514076D01*
X1884076D02*
X1885000Y1515000D01*
X1852500Y1514076D02*
X1884076D01*
X1959410Y1513976D02*
X1959488Y1513898D01*
X1886024Y1513976D02*
X1959410D01*
X1885000Y1515000D02*
X1886024Y1513976D01*
X1813544Y4608032D02*
X1852500Y4569076D01*
X1884076D01*
X1885000Y4570000D01*
X1959410Y4568976D02*
X1959488Y4568898D01*
X1886024Y4568976D02*
X1959410D01*
X1885000Y4570000D02*
X1886024Y4568976D01*
X1896732Y4608268D02*
X1959488D01*
X1813544Y4693032D02*
X1875000Y4631574D01*
X1813544Y4693032D02*
Y4695000D01*
X1875000Y4630000D02*
X1896732Y4608268D01*
X1875000Y4630000D02*
Y4631574D01*
X2085000Y4203544D02*
Y4300000D01*
X2105158Y4320158D02*
Y4344488D01*
X2085000Y4300000D02*
X2105158Y4320158D01*
X2080000Y4198544D02*
X2085000Y4203544D01*
X345000Y4020000D02*
X365000Y4000000D01*
X390000Y4125000D02*
X470000Y4045000D01*
X420000Y4165000D02*
X540000Y4045000D01*
X360000Y4085000D02*
X400000Y4045000D01*
X450000Y3580000D02*
X573326Y3703326D01*
X450000Y2510858D02*
Y3580000D01*
X573326Y3703326D02*
Y3742148D01*
X533786Y3700000D02*
X535000D01*
X435000Y3601214D02*
X533786Y3700000D01*
X420000Y3623180D02*
X500000Y3703180D01*
Y3745000D01*
X405000Y3640000D02*
X465000Y3700000D01*
X420000Y2498432D02*
Y3623180D01*
X405000Y2492218D02*
Y3640000D01*
X390000Y3647970D02*
X430000Y3687970D01*
Y3745000D01*
X390000Y2486006D02*
Y3647970D01*
X375000Y3680000D02*
X395000Y3700000D01*
X375000Y2479792D02*
Y3680000D01*
X435000Y2504644D02*
Y3601214D01*
X375000Y2479792D02*
X899792Y1955000D01*
X390000Y2486006D02*
X856006Y2020000D01*
X925000D01*
X899792Y1955000D02*
X930000D01*
X405000Y2492218D02*
X822218Y2075000D01*
X925000D01*
X420000Y2498432D02*
X768432Y2150000D01*
X935000D01*
X435000Y2504644D02*
X724644Y2215000D01*
X905000D01*
X450000Y2510858D02*
X670858Y2290000D01*
X920000D01*
X673996Y4113054D02*
X680942Y4120000D01*
X685000D01*
X673054Y4113054D02*
X673996D01*
X1165000Y2035000D02*
X1230000D01*
X1660000Y2465000D01*
X1100000Y2075000D02*
X1245000D01*
X1655000Y2485000D01*
X1150000Y2115000D02*
X1245022D01*
X1640022Y2510000D01*
X1100000Y2150000D02*
X1210000D01*
X1595000Y2535000D01*
X1105000Y2250000D02*
X1710000Y2855000D01*
X495000Y4480000D02*
X850000Y4125000D01*
X510000Y4528180D02*
X873180Y4165000D01*
X860000Y4030000D02*
Y4061968D01*
X873180Y4165000D02*
X895000D01*
X873224Y4001776D02*
X895000Y3980000D01*
X1025000Y3900000D02*
X1145000D01*
X1155000Y3890000D01*
X1030000Y3960000D02*
X1130000D01*
X1150000Y3940000D01*
X1190000Y4010000D02*
X1235480Y3964520D01*
X1010000Y4010000D02*
X1190000D01*
X1020000Y4065000D02*
X1235000D01*
X1280984Y4019016D01*
X1139816Y4120000D02*
X1177316Y4082500D01*
X1025000Y4120000D02*
X1139816D01*
X1177316Y4082500D02*
X1345000D01*
X4654330Y2144330D02*
X4750000Y2240000D01*
X4654330Y1931772D02*
Y2144330D01*
X2640670Y5313228D02*
X2695040D01*
X1501562Y4245000D02*
X1806820D01*
X940670Y4693976D02*
X1052586D01*
X1029156Y4668386D02*
X1467542Y4230000D01*
X940670Y4668386D02*
X1029156D01*
X1467542Y4230000D02*
X1813034D01*
X1073328Y4719566D02*
X1216236Y4576658D01*
Y4575568D02*
Y4576658D01*
Y4575568D02*
X1391802Y4400000D01*
X1876820D01*
X970972Y4587756D02*
X1525000Y4033728D01*
X1510000Y3775000D02*
Y4023138D01*
X940670Y4591614D02*
X944528Y4587756D01*
X1525000Y3785000D02*
Y4033728D01*
X944528Y4587756D02*
X970972D01*
X970974Y4562166D02*
X1510000Y4023138D01*
X3698346Y588190D02*
Y636654D01*
X3660000Y675000D02*
X3698346Y636654D01*
Y588190D02*
X3702204Y584330D01*
X3539812Y815670D02*
X3625434D01*
X3050592Y515000D02*
X3065000D01*
X3180000Y455858D02*
X3539812Y815670D01*
X3180000Y385000D02*
Y455858D01*
X3065000Y458016D02*
Y470000D01*
X3046116Y439132D02*
X3065000Y458016D01*
X3046116Y438010D02*
Y439132D01*
X3046554Y519038D02*
X3050592Y515000D01*
X3030962Y519038D02*
X3046554D01*
X3028092Y521908D02*
X3030962Y519038D01*
X3065000Y470000D02*
X3464704Y869704D01*
X3753386Y815670D02*
Y1050070D01*
X4015000Y1311684D01*
X3676614Y815670D02*
Y1020906D01*
X3941182Y1285472D01*
X3020000Y560000D02*
X3159704Y699704D01*
X3065000Y515000D02*
X3174704Y624704D01*
X2870000Y625000D02*
X3030900D01*
X3030962Y3574038D02*
X3046554D01*
X3028092Y3576908D02*
X3030962Y3574038D01*
X3046554D02*
X3050592Y3570000D01*
X2957500Y3655000D02*
X3027114D01*
X3579926Y3748098D02*
X3586828Y3755000D01*
X3547950Y3748098D02*
X3579926D01*
X3542426Y3742574D02*
X3547950Y3748098D01*
X3050592Y3570000D02*
X3065000D01*
X3453324Y3924704D02*
X3547308D01*
X3065000Y3570000D02*
X3174704Y3679704D01*
Y3913000D01*
X3575670Y3870670D02*
X3625434D01*
X3381668Y3676668D02*
X3575670Y3870670D01*
X3660000Y4037396D02*
Y4085244D01*
X3547308Y3924704D02*
X3660000Y4037396D01*
X3675000Y4074292D02*
X3941182Y4340472D01*
X3660000Y4085244D02*
X3934008Y4359252D01*
X3675000Y3955584D02*
Y4074292D01*
X3753386Y4105070D02*
X4015000Y4366684D01*
X3753386Y3870670D02*
Y4105070D01*
X3675000Y3955584D02*
X3676614Y3953970D01*
Y3870670D02*
Y3953970D01*
X3487822Y3909704D02*
X3638434D01*
X3586828Y3755000D02*
X3612980D01*
X3020000Y3615000D02*
X3159704Y3754704D01*
X2494644Y3165000D02*
X2870000D01*
X2500858Y3180000D02*
X2730000D01*
X2870000Y3165000D02*
X3000000Y3295000D01*
X2730000Y3180000D02*
X2780000Y3230000D01*
X2644566Y280590D02*
Y323866D01*
X2650424Y329724D02*
X2670520D01*
X2644566Y323866D02*
X2650424Y329724D01*
Y3384724D02*
X2670520D01*
X2644566Y3335590D02*
Y3378866D01*
X2650424Y3384724D01*
X1731338Y3553662D02*
X2492478D01*
X1741338Y3568662D02*
X2486266D01*
X1525000Y3785000D02*
X1741338Y3568662D01*
X1510000Y3775000D02*
X1731338Y3553662D01*
X940670Y4566024D02*
X944528Y4562166D01*
X970974D01*
X2695000Y3315000D02*
X2780000Y3230000D01*
X2644566Y3335590D02*
X2665156Y3315000D01*
X2670520Y3384724D02*
X2679252Y3375992D01*
X2665156Y3315000D02*
X2695000D01*
X2671370Y3330000D02*
X2935000D01*
X2965000Y3360000D01*
X2661378Y3339992D02*
X2671370Y3330000D01*
X3934008Y4359252D02*
X3951102D01*
X3952008Y4360158D01*
X2763996Y168054D02*
X2772130Y176190D01*
X2720000Y125000D02*
X2763054Y168054D01*
X2500858Y125000D02*
X2720000D01*
X2772130Y176190D02*
Y182870D01*
X2763054Y168054D02*
X2763996D01*
X2644566Y280590D02*
X2665156Y260000D01*
X2670520Y329724D02*
X2679252Y320992D01*
X2665156Y260000D02*
X2695000D01*
X2772130Y182870D01*
X3464704Y869704D02*
X3547308D01*
X3661614Y984010D01*
Y1031858D01*
X3934008Y1304252D01*
X3951102D01*
X3952008Y1305158D01*
X3499704Y854704D02*
X3638434D01*
X3135000Y490000D02*
X3499704Y854704D01*
X2679252Y303898D02*
Y320992D01*
Y303898D02*
X2680158Y302992D01*
X2491064Y134794D02*
Y152086D01*
Y134794D02*
X2500858Y125000D01*
X2471378Y133266D02*
X2494644Y110000D01*
X2490158Y152992D02*
X2491064Y152086D01*
X2870000Y110000D02*
X3000000Y240000D01*
X2471378Y133266D02*
Y152086D01*
X2494644Y110000D02*
X2870000D01*
X2679252Y3358898D02*
Y3375992D01*
Y3358898D02*
X2680158Y3357992D01*
X2491064Y3189794D02*
Y3207086D01*
X2490158Y3207992D02*
X2491064Y3207086D01*
Y3189794D02*
X2500858Y3180000D01*
X2471378Y3188266D02*
X2494644Y3165000D01*
X2471378Y3188266D02*
Y3207086D01*
X1500000Y730000D02*
X1731338Y498662D01*
X1515000Y740000D02*
X1741338Y513662D01*
X2486266D01*
X1155000Y3890000D02*
X1210000D01*
X1150000Y3940000D02*
X1260000D01*
X2416456Y1668032D02*
Y1670000D01*
Y1533032D02*
Y1535000D01*
X2065000Y1746456D02*
X2066968D01*
X3109528Y896732D02*
X3135972D01*
X3105670Y900590D02*
X3109528Y896732D01*
X3174704Y624704D02*
Y858000D01*
X3135972Y896732D02*
X3174704Y858000D01*
X3109528Y871142D02*
X3135972D01*
X3105670Y875000D02*
X3109528Y871142D01*
X3159704Y699704D02*
Y847410D01*
X3135972Y871142D02*
X3159704Y847410D01*
X3109528Y819960D02*
X3135972D01*
X3105670Y823818D02*
X3109528Y819960D01*
X3144704Y717592D02*
Y811228D01*
X3027114Y600000D02*
X3144704Y717592D01*
X3135972Y819960D02*
X3144704Y811228D01*
X2950000Y600000D02*
X3027114D01*
X3105670Y699768D02*
Y798228D01*
X3030900Y625000D02*
X3105670Y699768D01*
X2757654Y1016412D02*
Y1027346D01*
X2870472Y930040D02*
X2874330Y926182D01*
X2844028Y930040D02*
X2870472D01*
X2750000Y1035000D02*
X2757654Y1027346D01*
Y1016412D02*
X2844028Y930040D01*
X2874330Y951772D02*
Y1020670D01*
X2820000Y1075000D02*
X2874330Y1020670D01*
X3112166Y2570472D02*
X3122992D01*
X3111260Y2569566D02*
X3112166Y2570472D01*
X3111260Y2511260D02*
Y2569566D01*
X3110000Y2510000D02*
X3111260Y2511260D01*
X3778976Y1054448D02*
X4030000Y1305472D01*
X3778976Y815670D02*
Y1054448D01*
X3112166Y2330472D02*
X3122992D01*
X3111260Y2329566D02*
X3112166Y2330472D01*
X3111260Y2271260D02*
Y2329566D01*
X3110000Y2270000D02*
X3111260Y2271260D01*
X3647166Y819528D02*
Y845974D01*
Y819528D02*
X3651024Y815670D01*
X3638434Y854704D02*
X3647166Y845974D01*
X2660472Y302992D02*
X2661378Y302086D01*
Y284992D02*
Y302086D01*
X2935000Y275000D02*
X2965000Y305000D01*
X2661378Y284992D02*
X2671370Y275000D01*
X2935000D01*
X2470472Y152992D02*
X2471378Y152086D01*
X3804566Y1058826D02*
X4045000Y1299258D01*
Y2023308D01*
X3804566Y815670D02*
Y1058826D01*
X3247008Y2810472D02*
X3257834D01*
X4045000Y2023308D01*
X3112166Y2810472D02*
X3122992D01*
X3111260Y2809566D02*
X3112166Y2810472D01*
X3111260Y2751260D02*
Y2809566D01*
X3110000Y2750000D02*
X3111260Y2751260D01*
X3941182Y1285472D02*
X3952008D01*
X3980000Y1315858D02*
Y1980000D01*
X3970206Y1306064D02*
X3980000Y1315858D01*
X3952914Y1306064D02*
X3970206D01*
X3952008Y1305158D02*
X3952914Y1306064D01*
X3330942Y2360000D02*
X3335000D01*
X3330942Y2600000D02*
X3335000D01*
X3321098Y2590158D02*
X3330942Y2600000D01*
X3321098Y2350158D02*
X3330942Y2360000D01*
X3247008Y2590158D02*
X3321098D01*
X3247008Y2350158D02*
X3321098D01*
X2115000Y1445000D02*
X2158308Y1488308D01*
X2071692D02*
X2105158Y1454842D01*
X2158308Y1401692D02*
X2201614Y1358386D01*
X2115000Y1445000D02*
X2158308Y1401692D01*
X2071692D02*
X2115000Y1445000D01*
X2065788Y1395788D02*
X2071692Y1401692D01*
X2028386Y1358386D02*
X2065788Y1395788D01*
X2252716Y1279724D02*
X2332440Y1200000D01*
X2455900D01*
X2242952Y1279804D02*
X2243032Y1279724D01*
X2252716D01*
X2539528Y566924D02*
Y1116372D01*
X2486266Y513662D02*
X2539528Y566924D01*
X2455900Y1200000D02*
X2539528Y1116372D01*
X2242952Y1279804D02*
Y1289488D01*
X2496300Y1103700D02*
X2500000Y1100000D01*
X2346300Y1103700D02*
X2496300D01*
X2203582Y1246418D02*
Y1289488D01*
Y1246418D02*
X2346300Y1103700D01*
X2183898Y1289488D02*
X2183976Y1289410D01*
X2046102Y1230162D02*
Y1289488D01*
X2035000Y1219060D02*
X2046102Y1230162D01*
X1995000Y1143544D02*
Y1175000D01*
X2026418Y1271418D02*
Y1289488D01*
X2005000Y1250000D02*
X2026418Y1271418D01*
X1924564Y1157244D02*
Y1169564D01*
X1910000Y1143544D02*
X1910862D01*
X1924564Y1157244D01*
X2001968Y1275040D02*
X2006732Y1279804D01*
Y1289488D01*
X1966004Y1237500D02*
X2001968Y1273466D01*
Y1275040D01*
X1875534Y1237500D02*
X1966004D01*
X1813034Y1175000D02*
X1875534Y1237500D01*
X1906308Y1289488D02*
X1987048D01*
X1806820Y1190000D02*
X1906308Y1289488D01*
X1959488Y1336732D02*
X2006732D01*
X2028386Y1358386D01*
X1885000Y1300000D02*
X1941418Y1356418D01*
X1959488D01*
X1813544Y1300000D02*
X1885000D01*
X1927608Y1395788D02*
X1959488D01*
X1876820Y1345000D02*
X1927608Y1395788D01*
X1935158Y1435158D02*
X1959488D01*
X1885000Y1385000D02*
X1935158Y1435158D01*
X1813544Y1385000D02*
X1885000D01*
X2105158Y1454842D02*
X2115000Y1445000D01*
X1813544Y1470000D02*
X1818070Y1474528D01*
X1813544Y1553032D02*
Y1555000D01*
X1898308Y1553268D02*
X1959488D01*
X1813544Y1638032D02*
Y1640000D01*
X1949804Y1572952D02*
X1959488D01*
X1813544Y1725000D02*
X1827244Y1711300D01*
Y1695512D02*
Y1711300D01*
X2028386Y1531614D02*
X2071692Y1488308D01*
X1987048Y1572952D02*
Y1600512D01*
Y1572952D02*
X2028386Y1531614D01*
X2026338Y1600590D02*
Y1617448D01*
Y1600590D02*
X2026418Y1600512D01*
X2008786Y1635000D02*
X2026338Y1617448D01*
X1930000Y1635000D02*
X2008786D01*
X1897870Y1667130D02*
X1930000Y1635000D01*
X1895942Y1670000D02*
X1897870Y1668072D01*
Y1667130D02*
Y1668072D01*
X2046102Y1600512D02*
Y1618898D01*
X1980000Y1685000D02*
Y1746456D01*
X2085472Y1600512D02*
Y1727952D01*
X2066968Y1746456D02*
X2085472Y1727952D01*
X2183898Y1600512D02*
Y1693898D01*
X2225000Y1735000D01*
X3122086Y2868622D02*
X3122992Y2869528D01*
X3104480Y2868622D02*
X3122086D01*
X2763662Y2178692D02*
X2890000Y2305030D01*
X2763662Y2175314D02*
Y2178692D01*
X2557820Y1955252D02*
Y1969472D01*
X2763662Y2175314D01*
X2309850Y1707284D02*
X2557820Y1955252D01*
X2203662Y1653662D02*
X2257284Y1707284D01*
X2309850D01*
X2203582Y1600512D02*
X2203662Y1600590D01*
Y1653662D01*
X2242952Y1572952D02*
X2270512D01*
X2201614Y1531614D02*
X2242952Y1572952D01*
Y1600512D01*
X2158308Y1488308D02*
X2201614Y1531614D01*
X2301692Y1553268D02*
X2416456Y1668032D01*
X2270512Y1553268D02*
X2301692D01*
X2778662Y2172478D02*
X2905000Y2298816D01*
X2778662Y2169100D02*
Y2172478D01*
X2639256Y2029696D02*
X2778662Y2169100D01*
X2457724Y1600670D02*
X2639256Y1782200D01*
Y2029696D01*
X2401780Y1600670D02*
X2457724D01*
X2334692Y1533582D02*
X2401780Y1600670D01*
X2270512Y1533582D02*
X2334692D01*
X3016924Y2389528D02*
X3122992D01*
X2793662Y2166266D02*
X3016924Y2389528D01*
X2793662Y2162888D02*
Y2166266D01*
X2742478Y2111704D02*
X2793662Y2162888D01*
X2742478Y1864210D02*
Y2111704D01*
X2463938Y1585670D02*
X2742478Y1864210D01*
X2407992Y1585670D02*
X2463938D01*
X2270512Y1513898D02*
X2336220D01*
X2407992Y1585670D01*
X2377638Y1494212D02*
X2416456Y1533032D01*
X2270512Y1494212D02*
X2377638D01*
X2397356Y1492716D02*
X2420000D01*
X2379166Y1474528D02*
X2397356Y1492716D01*
X2270512Y1474528D02*
X2379166D01*
X2393568Y1467716D02*
X2420000D01*
X2380694Y1454842D02*
X2393568Y1467716D01*
X2270512Y1454842D02*
X2380694D01*
X2417126Y1439842D02*
X2420000Y1442716D01*
X2379054Y1439842D02*
X2417126D01*
X2374370Y1435158D02*
X2379054Y1439842D01*
X2270512Y1435158D02*
X2374370D01*
X2489850Y1422716D02*
X2568040Y1344528D01*
X2383142Y1422716D02*
X2489850D01*
X2568040Y1344528D02*
X3827992D01*
X2375898Y1415472D02*
X2383142Y1422716D01*
X2270512Y1415472D02*
X2375898D01*
X2404212Y1395788D02*
X2405000Y1395000D01*
X2270512Y1395788D02*
X2404212D01*
X2593308Y715648D02*
Y1126232D01*
Y715648D02*
X2719528Y589428D01*
X2467090Y1252450D02*
X2593308Y1126232D01*
X2719528Y427008D02*
Y589428D01*
X2280276Y1376102D02*
X2301012D01*
X2424662Y1252450D02*
X2467090D01*
X2301012Y1376102D02*
X2424662Y1252450D01*
X2569528Y327834D02*
Y1128800D01*
X2530434Y288740D02*
X2569528Y327834D01*
X2460876Y1237450D02*
X2569528Y1128800D01*
X2529528Y277008D02*
X2530434Y277914D01*
Y288740D01*
X2270590Y1356338D02*
X2299562D01*
X2270512Y1356418D02*
X2270590Y1356338D01*
X2418450Y1237450D02*
X2460876D01*
X2299562Y1356338D02*
X2418450Y1237450D01*
X2201614Y1358386D02*
X2223268Y1336732D01*
X2270512D01*
X2280196Y1317048D02*
X2380574Y1216670D01*
X2460444D01*
X2270512Y1317048D02*
X2280196D01*
X2554528Y560710D02*
Y1122586D01*
X2492478Y498662D02*
X2554528Y560710D01*
X2460444Y1216670D02*
X2554528Y1122586D01*
X1731338Y498662D02*
X2492478D01*
X2223268Y1256732D02*
Y1289488D01*
X2330000Y1150000D02*
X2395000D01*
X2223268Y1256732D02*
X2330000Y1150000D01*
X2593308Y3770648D02*
Y4181232D01*
Y3770648D02*
X2719528Y3644428D01*
Y3482008D02*
Y3644428D01*
X2424662Y4307450D02*
X2467090D01*
X2301012Y4431102D02*
X2424662Y4307450D01*
X2280276Y4431102D02*
X2301012D01*
X2467090Y4307450D02*
X2593308Y4181232D01*
X2460876Y4292450D02*
X2569528Y4183800D01*
Y3382834D02*
Y4183800D01*
X2418450Y4292450D02*
X2460876D01*
X2380574Y4271670D02*
X2460444D01*
X2554528Y4177586D01*
X2280196Y4372048D02*
X2380574Y4271670D01*
X3027114Y3655000D02*
X3144704Y3772592D01*
X3030900Y3680000D02*
X3105670Y3754768D01*
X3159704Y3754704D02*
Y3902410D01*
X3144704Y3772592D02*
Y3866228D01*
X3135972Y3926142D02*
X3159704Y3902410D01*
X3135972Y3951732D02*
X3174704Y3913000D01*
X2750000Y4090000D02*
X2757654Y4082346D01*
Y4071412D02*
Y4082346D01*
X3105670Y3754768D02*
Y3853228D01*
X2071692Y4456692D02*
X2115000Y4500000D01*
X2065788Y4450788D02*
X2071692Y4456692D01*
X2028386Y4413386D02*
X2065788Y4450788D01*
X2006732Y4391732D02*
X2028386Y4413386D01*
X1959488Y4391732D02*
X2006732D01*
X2201614Y4413386D02*
X2223268Y4391732D01*
X2158308Y4456692D02*
X2201614Y4413386D01*
X2115000Y4500000D02*
X2158308Y4456692D01*
X2223268Y4391732D02*
X2270512D01*
X2242952Y4627952D02*
X2270512D01*
X2201614Y4586614D02*
X2242952Y4627952D01*
X2158308Y4543308D02*
X2201614Y4586614D01*
X2115000Y4500000D02*
X2158308Y4543308D01*
X2242952Y4627952D02*
Y4655512D01*
X2105158Y4509842D02*
X2115000Y4500000D01*
X2071692Y4543308D02*
X2105158Y4509842D01*
X2028386Y4586614D02*
X2071692Y4543308D01*
X1987048Y4627952D02*
X2028386Y4586614D01*
X1987048Y4627952D02*
Y4655512D01*
X3612980Y3755000D02*
X3698346Y3669634D01*
Y3643190D02*
X3702204Y3639330D01*
X3698346Y3643190D02*
Y3669634D01*
X3111260Y5384566D02*
X3112166Y5385472D01*
X3111260Y5326260D02*
Y5384566D01*
X3110000Y5325000D02*
X3111260Y5326260D01*
X3112166Y5385472D02*
X3122992D01*
X3111260Y5864566D02*
X3112166Y5865472D01*
X3110000Y5805000D02*
X3111260Y5806260D01*
X3112166Y5865472D02*
X3122992D01*
X3111260Y5806260D02*
Y5864566D01*
Y5624566D02*
X3112166Y5625472D01*
X3122992D01*
X3111260Y5566260D02*
Y5624566D01*
X3110000Y5565000D02*
X3111260Y5566260D01*
X2223268Y4311732D02*
X2330000Y4205000D01*
X2395000D01*
X2223268Y4311732D02*
Y4344488D01*
X2242952Y4334804D02*
X2243032Y4334724D01*
X2455900Y4255000D02*
X2539528Y4171372D01*
X2486266Y3568662D02*
X2539528Y3621924D01*
Y4171372D01*
X2243032Y4334724D02*
X2252716D01*
X2242952Y4334804D02*
Y4344488D01*
X2332440Y4255000D02*
X2455900D01*
X2252716Y4334724D02*
X2332440Y4255000D01*
X2203582Y4301418D02*
X2346300Y4158700D01*
X2203582Y4301418D02*
Y4344488D01*
X2346300Y4158700D02*
X2496300D01*
X2500000Y4155000D01*
X2183898Y4344488D02*
X2183976Y4344410D01*
X1995000Y4198544D02*
Y4230000D01*
X2035000Y4270000D02*
Y4274060D01*
X1995000Y4230000D02*
X2035000Y4270000D01*
Y4274060D02*
X2046102Y4285162D01*
Y4344488D01*
X1910862Y4198544D02*
X1924564Y4212244D01*
X1910000Y4198544D02*
X1910862D01*
X1924564Y4212244D02*
Y4224564D01*
X2005000Y4305000D02*
X2026418Y4326418D01*
Y4344488D01*
X1813034Y4230000D02*
X1875534Y4292500D01*
X1966004D01*
X2001968Y4328466D02*
Y4330040D01*
X1966004Y4292500D02*
X2001968Y4328466D01*
X2006732Y4334804D02*
Y4344488D01*
X2001968Y4330040D02*
X2006732Y4334804D01*
X1806820Y4245000D02*
X1906308Y4344488D01*
X1987048D01*
X1813544Y4355000D02*
X1885000D01*
X1941418Y4411418D02*
X1959488D01*
X1885000Y4355000D02*
X1941418Y4411418D01*
X1876820Y4400000D02*
X1927608Y4450788D01*
X1959488D01*
X1813544Y4440000D02*
X1885000D01*
X1935158Y4490158D01*
X1959488D01*
X1813544Y4525000D02*
X1818070Y4529528D01*
X1813544Y4608032D02*
Y4610000D01*
X2026338Y4655590D02*
Y4672448D01*
X2008786Y4690000D02*
X2026338Y4672448D01*
Y4655590D02*
X2026418Y4655512D01*
X2046102D02*
Y4673898D01*
X2085472Y4655512D02*
Y4782952D01*
X2066968Y4801456D02*
X2085472Y4782952D01*
X2183898Y4655512D02*
Y4748898D01*
X2225000Y4790000D01*
X2203662Y4655590D02*
Y4708662D01*
X2203582Y4655512D02*
X2203662Y4655590D01*
X2257284Y4762284D02*
X2309850D01*
X2203662Y4708662D02*
X2257284Y4762284D01*
X2309850D02*
X2557820Y5010252D01*
Y5024472D01*
X2763662Y5230314D01*
Y5233692D01*
X3104480Y5923622D02*
X3122086D01*
X3122992Y5924528D01*
X2270512Y4608268D02*
X2301692D01*
X2416456Y4723032D01*
Y4725000D01*
X2270512Y4588582D02*
X2334692D01*
X2401780Y4655670D01*
X2457724D01*
X2639256Y4837200D02*
Y5084696D01*
X2457724Y4655670D02*
X2639256Y4837200D01*
Y5084696D02*
X2778662Y5224100D01*
Y5227478D01*
X3104480Y5683622D02*
X3122086D01*
X3122992Y5684528D01*
X2336220Y4568898D02*
X2407992Y4640670D01*
X2270512Y4568898D02*
X2336220D01*
X2407992Y4640670D02*
X2463938D01*
X2742478Y4919210D01*
Y5166704D01*
X2377638Y4549212D02*
X2416456Y4588032D01*
X2270512Y4549212D02*
X2377638D01*
X2270512Y4529528D02*
X2379166D01*
X2397356Y4547716D01*
X2420000D01*
X2270512Y4509842D02*
X2380694D01*
X2393568Y4522716D01*
X2420000D01*
X2270512Y4490158D02*
X2374370D01*
X2379054Y4494842D01*
X2417126D01*
X2420000Y4497716D01*
X2270512Y4470472D02*
X2375898D01*
X2383142Y4477716D01*
X2489850D01*
X2270512Y4450788D02*
X2404212D01*
X2405000Y4450000D01*
X2299562Y4411338D02*
X2418450Y4292450D01*
X2270512Y4411418D02*
X2270590Y4411338D01*
X2299562D01*
X2530434Y3332914D02*
Y3343740D01*
X2529528Y3332008D02*
X2530434Y3332914D01*
Y3343740D02*
X2569528Y3382834D01*
X2492478Y3553662D02*
X2554528Y3615710D01*
Y4177586D01*
X2270512Y4372048D02*
X2280196D01*
X3941182Y4340472D02*
X3952008D01*
X3247008Y5405158D02*
X3321098D01*
X3247008Y5645158D02*
X3321098D01*
X3247008Y5885158D02*
X3321098D01*
Y5405158D02*
X3330942Y5415000D01*
X3321098Y5645158D02*
X3330942Y5655000D01*
Y5415000D02*
X3335000D01*
X3330942Y5655000D02*
X3335000D01*
X3321098Y5885158D02*
X3330942Y5895000D01*
X3335000D01*
X3952008Y4360158D02*
X3952914Y4361064D01*
X3970206D01*
X3980000Y4370858D01*
Y5035000D01*
X3920000Y5095000D02*
X3980000Y5035000D01*
X3804566Y3870670D02*
Y4113826D01*
X4045000Y4354258D01*
X2470472Y3207992D02*
X2471378Y3207086D01*
X2660472Y3357992D02*
X2661378Y3357086D01*
Y3339992D02*
Y3357086D01*
X3647166Y3874528D02*
X3651024Y3870670D01*
X3647166Y3874528D02*
Y3900974D01*
X3638434Y3909704D02*
X3647166Y3900974D01*
X3778976Y3870670D02*
Y4109448D01*
X4030000Y4360472D01*
X3105670Y3955590D02*
X3109528Y3951732D01*
X3135972D01*
X3105670Y3930000D02*
X3109528Y3926142D01*
X3135972D01*
X3105670Y3878818D02*
X3109528Y3874960D01*
X3135972D02*
X3144704Y3866228D01*
X3109528Y3874960D02*
X3135972D01*
X2870472Y3985040D02*
X2874330Y3981182D01*
X2844028Y3985040D02*
X2870472D01*
X2757654Y4071412D02*
X2844028Y3985040D01*
X2874330Y4006772D02*
Y4075670D01*
X2820000Y4130000D02*
X2874330Y4075670D01*
X2065000Y4801456D02*
X2066968D01*
X2416456Y4588032D02*
Y4590000D01*
D13*
X2930000Y881568D02*
X3044260Y995828D01*
Y1024260D02*
X3050000Y1030000D01*
X3044260Y995828D02*
Y1024260D01*
X2930000Y855784D02*
Y881568D01*
X4829999Y4802678D02*
Y4823099D01*
Y4782257D02*
Y4802678D01*
X4831731Y4804410D02*
X4885670D01*
X4829999Y4802678D02*
X4831731Y4804410D01*
X4829999Y4782257D02*
X4830000Y4782256D01*
X4785000Y4868098D02*
X4829999Y4823099D01*
X4830000Y4660000D02*
Y4782256D01*
Y1830000D02*
Y2228077D01*
Y1830000D02*
X4830590Y1829410D01*
X4885670D01*
X3925000Y3975000D02*
X4105000D01*
X2879542Y3656048D02*
X3121789Y3413800D01*
X3281200D01*
X3325000Y3370000D01*
X4312500Y4262500D02*
Y5477500D01*
X4310000Y4260000D02*
X4312500Y4262500D01*
X4751299Y6580709D02*
Y6583661D01*
X4757047Y6589409D02*
X4760000D01*
X4751299Y6583661D02*
X4757047Y6589409D01*
X4645000Y6474409D02*
X4751299Y6580709D01*
X4645000Y6355000D02*
Y6474409D01*
X4312500Y5477500D02*
X4315000Y5480000D01*
X4105000Y3975000D02*
X4515000Y4385000D01*
X3465000Y2870000D02*
X3520000Y2815000D01*
X4085000D01*
X2465000Y2290000D02*
X2496326Y2321326D01*
Y2391957D01*
X2522500Y2418131D01*
Y2807500D01*
X2720000Y3005000D01*
X2940000Y3135000D02*
X3325000D01*
X2752500Y2947500D02*
X2940000Y3135000D01*
X2752500Y2758609D02*
Y2947500D01*
X5325000Y1410000D02*
Y5905000D01*
X5320000Y5910000D02*
X5325000Y5905000D01*
X5035000Y1120000D02*
X5325000Y1410000D01*
X4820000Y6405000D02*
Y6589409D01*
X4880000Y5690000D02*
Y6589409D01*
X4740000Y5550000D02*
X4880000Y5690000D01*
X4740000Y4818820D02*
Y5550000D01*
X4710000Y4788820D02*
X4740000Y4818820D01*
X4785000Y5310000D02*
X5060000Y5585000D01*
Y6940000D01*
X4785000Y4868098D02*
Y5310000D01*
X4940000Y6589409D02*
X4942953D01*
X5007362Y6525000D02*
X5010000D01*
X4942953Y6589409D02*
X5007362Y6525000D01*
X5024272Y2100000D02*
X5065000D01*
X5023544Y2099272D02*
X5024272Y2100000D01*
X5023544D02*
X5024272D01*
X5023544Y4905000D02*
X5024272Y4905728D01*
X5023544Y4990000D02*
X5070000D01*
X5023544Y4905000D02*
X5070000D01*
X5023544Y5075000D02*
X5070000D01*
X4830000Y2228077D02*
X5172245Y2570322D01*
Y3534325D01*
X4830000Y3876569D02*
X5172245Y3534325D01*
X4830000Y3876569D02*
Y4660000D01*
X4085000Y5170000D02*
Y5770000D01*
X4040000Y5125000D02*
X4085000Y5170000D01*
X4264409Y6569277D02*
Y6725000D01*
X4080133Y6385000D02*
X4264409Y6569277D01*
X4080000Y6385000D02*
X4080133D01*
X3675000Y4430000D02*
Y4680000D01*
X2930000Y3755000D02*
Y3945941D01*
X3045000Y4060941D01*
Y4130000D01*
X2964300Y4204372D02*
X2973630Y4213700D01*
X2995590Y4180000D02*
X3219126D01*
X2944410D02*
Y4182952D01*
X2964300Y4202844D02*
Y4204372D01*
X3333040Y4200000D02*
X3350000D01*
X3319338Y4213700D02*
X3333040Y4200000D01*
X2944410Y4182952D02*
X2964300Y4202844D01*
X2973630Y4213700D02*
X3319338D01*
X3219126Y4180000D02*
X3299126Y4100000D01*
X3795000Y4825000D02*
Y4900000D01*
X3910000Y5015000D01*
X2585472Y5622972D02*
Y6373444D01*
X2496326Y5533826D02*
X2585472Y5622972D01*
Y6373444D02*
X2798750Y6586722D01*
X2895613D01*
X3108891Y6800000D01*
X4264410D01*
X2496326Y5440784D02*
Y5533826D01*
X2465000Y5409458D02*
X2496326Y5440784D01*
X2874330Y3904410D02*
X2925000D01*
X2465000Y5215000D02*
Y5409458D01*
X2409330Y5364410D02*
X2460000D01*
X2874330Y849410D02*
X2923626D01*
X2930000Y700000D02*
Y855784D01*
X2445590Y2309410D02*
X2465000Y2290000D01*
Y2160000D02*
Y2290000D01*
X2409330Y2309410D02*
X2445590D01*
X4710000Y1685000D02*
Y1815000D01*
X4695590Y1829410D02*
X4710000Y1815000D01*
X4654330Y1829410D02*
X4695590D01*
X4710000Y4660000D02*
Y4788820D01*
X4654330Y4804410D02*
X4694410D01*
X4710000Y4788820D01*
X4645591Y6800591D02*
X4700236D01*
X4645000Y6800000D02*
X4645591Y6800591D01*
X4795330Y6851772D02*
X4940000Y6707101D01*
X4700236Y6851772D02*
X4795330D01*
X4940000Y6640591D02*
Y6707101D01*
X4700236Y6826181D02*
X4785565D01*
X4880000Y6731746D01*
Y6640591D02*
Y6731746D01*
X4700236Y6775000D02*
X4801391D01*
X4820000Y6640591D02*
Y6756391D01*
X4801391Y6775000D02*
X4820000Y6756391D01*
X4786738Y6749409D02*
X4788647Y6747500D01*
X4700236Y6749409D02*
X4786738D01*
X4788647Y6747500D02*
X4790000D01*
X4700236Y6723819D02*
X4735591D01*
X4760000Y6699409D01*
Y6640591D02*
Y6699409D01*
X4780000Y7220000D02*
X5060000Y6940000D01*
X4646772Y6698228D02*
X4700236D01*
X4640000Y6705000D02*
X4646772Y6698228D01*
X4479764Y6749409D02*
X4534409D01*
X4535000Y6750000D01*
X4479764Y6826181D02*
X4538819D01*
X4540000Y6825000D01*
X4391353Y6773091D02*
X4393262Y6775000D01*
X4390000Y6773091D02*
X4391353D01*
X4393262Y6775000D02*
X4479764D01*
X4390000Y6695000D02*
X4391353D01*
X4394581Y6698228D02*
X4479764D01*
X4391353Y6695000D02*
X4394581Y6698228D01*
X4695000Y6988543D02*
Y7170000D01*
X4610000Y6988543D02*
Y7170000D01*
X4525000Y6988543D02*
Y7170000D01*
X4316181Y6800591D02*
X4479764D01*
X4315590Y6800000D02*
X4316181Y6800591D01*
X4316181Y6724409D02*
X4479173D01*
X4315591Y6725000D02*
X4316181Y6724409D01*
X4461378Y6851772D02*
X4479764D01*
X4130000Y7055000D02*
X4258150D01*
X4461378Y6851772D01*
X4195000Y7220000D02*
X4780000D01*
X4130000Y7155000D02*
X4195000Y7220000D01*
X5023544Y1930000D02*
X5065000D01*
X5023544Y2014272D02*
X5024272Y2015000D01*
X5023544Y2015728D02*
X5024272Y2015000D01*
X5065000D01*
X810957Y1325957D02*
Y1352413D01*
X823032Y1366456D02*
X825000D01*
X814331Y1355787D02*
Y1357755D01*
X810000Y1325000D02*
X810957Y1325957D01*
Y1352413D02*
X814331Y1355787D01*
Y1357755D02*
X823032Y1366456D01*
X642169Y1725093D02*
X643125Y1724136D01*
X691436Y1664566D02*
X709330D01*
X643125Y1712877D02*
X691436Y1664566D01*
X643125Y1712877D02*
Y1724136D01*
X3923544Y3670000D02*
X4125000D01*
X3923544Y3755000D02*
X4125000D01*
X3923544Y3840000D02*
X4125000D01*
X3923544Y615000D02*
X4125000D01*
X3923544Y700000D02*
X4125000D01*
X3926044Y782500D02*
X4122500D01*
X3923544Y785000D02*
X3926044Y782500D01*
X4122500D02*
X4125000Y780000D01*
X1756772Y4856772D02*
X1978228D01*
X1755728Y4780728D02*
Y4854272D01*
Y4780728D02*
X1756456Y4780000D01*
X1756772Y1801772D02*
X1978228D01*
X1755000Y1800000D02*
X1755728Y1799272D01*
Y1725728D02*
X1756456Y1725000D01*
X1755728Y1725728D02*
Y1799272D01*
X1754913Y1641543D02*
X1756456Y1640000D01*
X1685957Y1641543D02*
X1754913D01*
X1685000Y1642500D02*
X1685957Y1641543D01*
X899826Y1357755D02*
X908527Y1366456D01*
X899826Y1327974D02*
Y1357755D01*
X898870Y1327017D02*
X899826Y1327974D01*
X908527Y1366456D02*
X910000D01*
X739272Y1365728D02*
X739435Y1365565D01*
Y1327582D02*
Y1365565D01*
X738870Y1327017D02*
X739435Y1327582D01*
X2777500Y2458813D02*
X2777914Y2458399D01*
X2777086Y2500000D02*
X2777500Y2499586D01*
Y2415414D02*
Y2457985D01*
X2777914Y2458399D01*
X2777086Y2415000D02*
X2777500Y2415414D01*
X2777086Y2500000D02*
Y2542500D01*
X2777586Y5509500D02*
X2778087Y5510000D01*
X2777086Y5470000D02*
X2777586Y5470500D01*
Y5509500D01*
X2775957Y5555000D02*
X2778087Y5552870D01*
X2775957Y5555000D02*
Y5594043D01*
Y5638871D02*
X2777086Y5640000D01*
X2775000Y5595000D02*
X2775957Y5595957D01*
X2775000Y5595000D02*
X2775957Y5594043D01*
X910000Y4380000D02*
Y4421456D01*
X825000Y4380000D02*
Y4421456D01*
X739272Y4420728D02*
X740000Y4420000D01*
Y4380000D02*
Y4420000D01*
X2162500Y992500D02*
Y1083956D01*
X2165000Y1086456D01*
X2160000Y990000D02*
X2162500Y992500D01*
X2080000Y990000D02*
Y1086456D01*
X1995000Y990000D02*
Y1086456D01*
X1910000Y990000D02*
Y1086456D01*
X2228662Y953307D02*
Y1066300D01*
X2140000Y900000D02*
X2200670Y960670D01*
Y1121128D01*
X1820000Y900000D02*
X2140000D01*
X1995326Y875000D02*
X2150355D01*
X2228662Y953307D01*
X2234410Y1072048D02*
Y1075000D01*
X2228662Y1066300D02*
X2234410Y1072048D01*
X2162500Y4057500D02*
Y4138956D01*
X2160000Y4055000D02*
X2162500Y4057500D01*
Y4138956D02*
X2165000Y4141456D01*
X2080000Y4055000D02*
Y4141456D01*
X1995000Y4055000D02*
Y4141456D01*
X1910000Y4055000D02*
Y4141456D01*
X2120000Y3955000D02*
X2200670Y4035670D01*
X1820000Y3955000D02*
X2120000D01*
X2200670Y4035670D02*
Y4176128D01*
X2228662Y4023662D02*
Y4121300D01*
X1995326Y3930000D02*
X2135000D01*
X2228662Y4023662D01*
Y4121300D02*
X2234410Y4127048D01*
Y4130000D01*
X1686885Y1383695D02*
X1755841D01*
X1681885Y1468695D02*
X1750841D01*
X1681885Y1558695D02*
X1750841D01*
X1755728Y4440728D02*
X1756456Y4440000D01*
X142500Y1412500D02*
Y5660000D01*
X140000Y5713647D02*
Y5715000D01*
X142500Y1412500D02*
X480000Y1075000D01*
X115000Y5688647D02*
X140000Y5713647D01*
X115000Y1400000D02*
Y5688647D01*
Y1400000D02*
X495000Y1020000D01*
X90000Y1385000D02*
X520000Y955000D01*
X90000Y5720000D02*
X140000Y5770000D01*
X90000Y1385000D02*
Y5720000D01*
X65000Y1374645D02*
Y5750000D01*
Y1374645D02*
X529645Y910000D01*
X40000Y1364290D02*
Y5780000D01*
X65000Y5750000D02*
X140000Y5825000D01*
X40000Y1364290D02*
X549289Y855000D01*
X40000Y5780000D02*
X140000Y5880000D01*
X1755000Y4855000D02*
X1755728Y4854272D01*
X1755000Y4855000D02*
X1756772Y4856772D01*
X3325000Y3135000D02*
X3375000Y3185000D01*
X2898623Y3710472D02*
X2948444D01*
X2990472Y3752501D01*
X3047501D02*
X3050000Y3755000D01*
X2990472Y3752501D02*
X3047501D01*
X2879542Y3691391D02*
X2898623Y3710472D01*
X2879542Y3656048D02*
Y3691391D01*
X2790000Y2632669D02*
Y2721109D01*
X2752500Y2758609D02*
X2790000Y2721109D01*
Y2632669D02*
X2810787Y2611883D01*
X2777190Y2606380D02*
X2777294Y2606484D01*
X2777190Y2585104D02*
Y2606380D01*
X2777086Y2585000D02*
X2777190Y2585104D01*
X2810787Y2388117D02*
Y2611883D01*
X2640670Y2309410D02*
X2732079D01*
X2810787Y2388117D01*
X549289Y855000D02*
X770000D01*
X529645Y910000D02*
X740000D01*
X495000Y1020000D02*
X650000D01*
X480000Y1075000D02*
X595000D01*
X520000Y955000D02*
X690000D01*
X739272Y1365728D02*
X740000Y1366456D01*
X2511072Y1429780D02*
X3050892D01*
X2511072Y4484780D02*
X3050892D01*
X739272Y4420728D02*
X740000Y4421456D01*
X669330Y2560000D02*
X795000D01*
X2495000Y2658648D02*
Y2660000D01*
X2490590Y2585000D02*
Y2654238D01*
X2495000Y2658648D01*
X2590956Y295956D02*
Y310956D01*
X2645000Y365000D02*
X2695000D01*
X2590000Y295000D02*
X2590956Y295956D01*
Y310956D02*
X2645000Y365000D01*
X2650000Y3420000D02*
X2710000D01*
X2590956Y3350956D02*
Y3360956D01*
X2590000Y3350000D02*
X2590956Y3350956D01*
Y3360956D02*
X2650000Y3420000D01*
X4818832Y2640000D02*
X4925670D01*
X4800000Y3055000D02*
X4925670D01*
X669330Y3395000D02*
X757500D01*
X669330Y2560000D02*
Y2696370D01*
X678660Y2705700D01*
X610866Y2560000D02*
X669330D01*
Y2423630D02*
Y2560000D01*
X678660Y2705700D02*
X680188D01*
X703032Y2728544D02*
X705000D01*
X680188Y2705700D02*
X703032Y2728544D01*
X538544Y2560000D02*
X610866D01*
X669330Y2980000D02*
X795000D01*
X3203496Y1083544D02*
X3234842Y1052198D01*
Y1048700D02*
Y1052198D01*
X3105000Y1083544D02*
X3203496D01*
X3234842Y1048700D02*
X3243544Y1040000D01*
Y955000D02*
Y1040000D01*
X3184272Y2989272D02*
X3185000Y2988544D01*
X3110728Y2989272D02*
X3184272D01*
X3110000Y2990000D02*
X3110728Y2989272D01*
X1755728Y1225728D02*
Y1299272D01*
X1756456Y1300000D01*
X1755000Y1225000D02*
X1755728Y1225728D01*
X2539782Y1757472D02*
X2540738Y1758430D01*
X2539782Y1738206D02*
Y1757472D01*
X2473544Y1670000D02*
Y1671968D01*
X2539782Y1738206D01*
X3890000Y1463544D02*
Y1535000D01*
X1978228Y1801772D02*
X1980000Y1803544D01*
X1755000Y1800000D02*
X1756772Y1801772D01*
X1755728Y1385728D02*
X1756456Y1385000D01*
X2054830Y1812244D02*
X2063530Y1803544D01*
X2621044Y2307678D02*
X2622776Y2309410D01*
X2640670D01*
X3104528Y950630D02*
X3105670Y951772D01*
X3055630Y950630D02*
X3104528D01*
X2990000Y885000D02*
X3055630Y950630D01*
X3087776Y849410D02*
X3105670D01*
X3086044Y847678D02*
X3087776Y849410D01*
X3184272Y2509272D02*
X3185000Y2508544D01*
X3110728Y2509272D02*
X3184272D01*
X3110000Y2510000D02*
X3110728Y2509272D01*
X3184272Y2749272D02*
X3185000Y2748544D01*
X3110728Y2749272D02*
X3184272D01*
X3110000Y2750000D02*
X3110728Y2749272D01*
X2054830Y1812244D02*
Y1835170D01*
X1925000Y1965000D02*
X2054830Y1835170D01*
X2063530Y1803544D02*
X2065000D01*
X1925000Y1965000D02*
Y2110000D01*
X3319338Y1158700D02*
X3333040Y1145000D01*
X3243544Y955000D02*
X3248544Y950000D01*
X3345000D02*
X3350000Y945000D01*
X3248544Y950000D02*
X3345000D01*
X2605420Y2307678D02*
X2621044D01*
X2585000Y2160000D02*
Y2287256D01*
X2605420Y2307678D01*
X3070420Y847678D02*
X3086044D01*
X3050000Y700000D02*
Y827256D01*
X3070420Y847678D01*
X2094410Y1937442D02*
Y2010000D01*
Y1937442D02*
X2150000Y1881850D01*
X2094410Y2010000D02*
Y2060916D01*
X2150000Y1803544D02*
Y1881850D01*
X2025000Y2130326D02*
Y2210000D01*
Y2130326D02*
X2094410Y2060916D01*
X2145590Y2010000D02*
Y2072450D01*
X2125000Y2093040D02*
Y2110000D01*
Y2093040D02*
X2145590Y2072450D01*
X2390590Y839410D02*
Y1075000D01*
Y839410D02*
X2465000Y765000D01*
X2339410Y706486D02*
X2365000Y680896D01*
Y665000D02*
Y680896D01*
X2339410Y706486D02*
Y1075000D01*
X2945000Y1802628D02*
Y2045000D01*
X2782152Y1639780D02*
X2945000Y1802628D01*
X2779198Y1639780D02*
X2782152D01*
X2719952Y1588600D02*
X2779198D01*
X2716354Y1585000D02*
X2719952Y1588600D01*
X2715000Y1585000D02*
X2716354D01*
X1865000Y744674D02*
X1995326Y875000D01*
X1865000Y665000D02*
Y744674D01*
X2285590Y802550D02*
Y1075000D01*
X2265000Y781960D02*
X2285590Y802550D01*
X2265000Y765000D02*
Y781960D01*
X3445000Y1965326D02*
Y2045000D01*
X2779198Y1534780D02*
X3014454D01*
X3445000Y1965326D01*
X2778498Y1484300D02*
X2779198Y1483600D01*
X2715700Y1484300D02*
X2778498D01*
X2715000Y1485000D02*
X2715700Y1484300D01*
X2439410Y2585000D02*
X2442204Y2582204D01*
Y2528386D02*
Y2582204D01*
X2439410Y2585000D02*
Y2587952D01*
X2442204Y2528386D02*
X2445000Y2525590D01*
X2190000Y2710000D02*
X2317362D01*
X2439410Y2587952D01*
X2722754Y1378600D02*
X2779198D01*
X2716354Y1385000D02*
X2722754Y1378600D01*
X2715000Y1385000D02*
X2716354D01*
X2995590Y1125000D02*
X3219126D01*
X3299126Y1045000D01*
X3450000D01*
X2973630Y1158700D02*
X3319338D01*
X3333040Y1145000D02*
X3350000D01*
X2964300Y1149372D02*
X2973630Y1158700D01*
X2964300Y1147844D02*
Y1149372D01*
X2944410Y1125000D02*
Y1127952D01*
X2964300Y1147844D01*
X2330000Y2335000D02*
X2409330D01*
X2225000Y1797992D02*
Y2230000D01*
X2330000Y2335000D01*
X2839672Y876142D02*
X2873190D01*
X2657396Y1058418D02*
X2839672Y876142D01*
X2873190D02*
X2874330Y875000D01*
X2467992Y1395000D02*
X2657396Y1205596D01*
Y1058418D02*
Y1205596D01*
X2186954Y1134842D02*
X2200670Y1121128D01*
X2173700Y1134842D02*
X2186954D01*
X2165000Y1143544D02*
X2173700Y1134842D01*
X2689780Y1639780D02*
X2779198D01*
X2542716Y1492716D02*
X2689780Y1639780D01*
X2420000Y1492716D02*
X2542716D01*
X2630140Y1534780D02*
X2779198D01*
X2560358Y1465000D02*
X2630140Y1534780D01*
X2508490Y1467716D02*
X2511206Y1465000D01*
X2560358D01*
X2420000Y1467716D02*
X2508490D01*
X3166112Y1545000D02*
X3445000D01*
X2498136Y1442716D02*
X2511072Y1429780D01*
X3050892D02*
X3166112Y1545000D01*
X2420000Y1442716D02*
X2498136D01*
X2657396Y4113418D02*
Y4260596D01*
X2467992Y4450000D02*
X2657396Y4260596D01*
Y4113418D02*
X2839672Y3931142D01*
X2990000Y3940000D02*
X3055630Y4005630D01*
X2490590Y5709238D02*
X2495000Y5713648D01*
Y5715000D01*
X2490590Y5640000D02*
Y5709238D01*
X2777086Y5640000D02*
Y5705734D01*
X2795000Y5723648D01*
Y5725000D01*
X3248544Y4005000D02*
X3345000D01*
X3350000Y4000000D01*
X3243544Y4010000D02*
X3248544Y4005000D01*
X3243544Y4010000D02*
Y4095000D01*
X3203496Y4138544D02*
X3234842Y4107198D01*
X3105000Y4138544D02*
X3203496D01*
X3234842Y4103700D02*
Y4107198D01*
Y4103700D02*
X3243544Y4095000D01*
X2722754Y4433600D02*
X2779198D01*
X2716354Y4440000D02*
X2722754Y4433600D01*
X2715000Y4440000D02*
X2716354D01*
X2715000Y4540000D02*
X2715700Y4539300D01*
X2778498D02*
X2779198Y4538600D01*
X2715700Y4539300D02*
X2778498D01*
X2715000Y4640000D02*
X2716354D01*
X2719952Y4643600D02*
X2779198D01*
X2716354Y4640000D02*
X2719952Y4643600D01*
X2539782Y4793206D02*
Y4812472D01*
X2473544Y4725000D02*
Y4726968D01*
X2539782Y4793206D01*
Y4812472D02*
X2540738Y4813430D01*
X2542716Y4547716D02*
X2689780Y4694780D01*
X2779198D01*
X2420000Y4547716D02*
X2542716D01*
X1978228Y4856772D02*
X1980000Y4858544D01*
X2063530D02*
X2065000D01*
X2054830Y4867244D02*
X2063530Y4858544D01*
X1925000Y5020000D02*
Y5165000D01*
X2054830Y4867244D02*
Y4890170D01*
X1925000Y5020000D02*
X2054830Y4890170D01*
X2125000Y5148040D02*
X2145590Y5127450D01*
Y5065000D02*
Y5127450D01*
X2125000Y5148040D02*
Y5165000D01*
X669330Y2980000D02*
Y3116370D01*
Y2843630D02*
Y2980000D01*
X610866D02*
X669330D01*
Y3395000D02*
Y3531370D01*
Y3258630D02*
Y3395000D01*
X610866D02*
X669330D01*
X4925670Y3470000D02*
Y3606370D01*
Y3333630D02*
Y3470000D01*
X4984134D01*
X4800000D02*
X4925670D01*
Y3055000D02*
Y3191370D01*
Y2918630D02*
Y3055000D01*
X4984134D01*
X4925670Y2640000D02*
Y2776370D01*
Y2503630D02*
Y2640000D01*
X4984134D01*
X4891968Y2471456D02*
X4915354Y2494842D01*
X4916882D01*
X4925670Y2503630D01*
X4916340Y2785700D02*
X4925670Y2776370D01*
X4914812Y2785700D02*
X4916340D01*
X4891968Y2808544D02*
X4914812Y2785700D01*
X4890000Y2808544D02*
X4891968D01*
X4890000Y2471456D02*
X4891968D01*
X4915354Y2909842D02*
X4916882D01*
X4891968Y2886456D02*
X4915354Y2909842D01*
X4916882D02*
X4925670Y2918630D01*
X4890000Y2886456D02*
X4891968D01*
X4914812Y3200700D02*
X4916340D01*
X4925670Y3191370D01*
X4891968Y3223544D02*
X4914812Y3200700D01*
X4890000Y3223544D02*
X4891968D01*
Y3301456D02*
X4915354Y3324842D01*
X4916340Y3615700D02*
X4925670Y3606370D01*
X4914812Y3615700D02*
X4916340D01*
X4915354Y3324842D02*
X4916882D01*
X4891968Y3638544D02*
X4914812Y3615700D01*
X4916882Y3324842D02*
X4925670Y3333630D01*
X4890000Y3638544D02*
X4891968D01*
X4890000Y3301456D02*
X4891968D01*
X679646Y2414842D02*
X703032Y2391456D01*
X678118Y2414842D02*
X679646D01*
X669330Y2423630D02*
X678118Y2414842D01*
X703032Y2391456D02*
X705000D01*
X703032Y2811456D02*
X705000D01*
X679646Y2834842D02*
X703032Y2811456D01*
X678118Y2834842D02*
X679646D01*
X669330Y2843630D02*
X678118Y2834842D01*
X678660Y3125700D02*
X680188D01*
X669330Y3116370D02*
X678660Y3125700D01*
X680188D02*
X703032Y3148544D01*
X705000D01*
X703032Y3226456D02*
X705000D01*
X678118Y3249842D02*
X679646D01*
X703032Y3226456D01*
X669330Y3258630D02*
X678118Y3249842D01*
X678660Y3540700D02*
X680188D01*
X669330Y3531370D02*
X678660Y3540700D01*
X680188D02*
X703032Y3563544D01*
X705000D01*
X4984134Y3470000D02*
X5056456D01*
X4984134Y3055000D02*
X5056456D01*
X4984134Y2640000D02*
X5056456D01*
X538544Y2980000D02*
X610866D01*
X538544Y3395000D02*
X610866D01*
X4966456Y4903032D02*
Y4905000D01*
X4944606Y4881182D02*
X4966456Y4903032D01*
X4885670Y4881182D02*
X4944606D01*
X4966456Y1928032D02*
Y1930000D01*
X4885670Y1906182D02*
X4944606D01*
X4966456Y1928032D01*
X4830000Y1685000D02*
Y1830000D01*
X2390590Y3894410D02*
X2465000Y3820000D01*
X2390590Y3894410D02*
Y4130000D01*
X2285590Y3857550D02*
Y4130000D01*
X2265000Y3836960D02*
X2285590Y3857550D01*
X2265000Y3820000D02*
Y3836960D01*
X1865000Y3799674D02*
X1995326Y3930000D01*
X2165000Y4198544D02*
X2173700Y4189842D01*
X2186954D01*
X2200670Y4176128D01*
X1755728Y4280728D02*
Y4354272D01*
X1756456Y4355000D01*
X1755000Y4280000D02*
X1755728Y4280728D01*
X3890000Y4518544D02*
Y4590000D01*
X3110728Y5564272D02*
X3184272D01*
X3110000Y5565000D02*
X3110728Y5564272D01*
X3184272D02*
X3185000Y5563544D01*
X3110728Y5804272D02*
X3184272D01*
X3185000Y5803544D01*
X3110000Y5805000D02*
X3110728Y5804272D01*
X3184272Y6044272D02*
X3185000Y6043544D01*
X3110728Y6044272D02*
X3184272D01*
X3110000Y6045000D02*
X3110728Y6044272D01*
X2420000Y4522716D02*
X2508490D01*
X2511206Y4520000D02*
X2560358D01*
X2508490Y4522716D02*
X2511206Y4520000D01*
X2560358D02*
X2630140Y4589780D01*
X2779198D01*
X2420000Y4497716D02*
X2498136D01*
X3050892Y4484780D02*
X3166112Y4600000D01*
X2498136Y4497716D02*
X2511072Y4484780D01*
X3166112Y4600000D02*
X3445000D01*
X2873190Y3931142D02*
X2874330Y3930000D01*
X2839672Y3931142D02*
X2873190D01*
X2225000Y4852992D02*
Y5285000D01*
X2330000Y5390000D01*
X2409330D01*
X3299126Y4100000D02*
X3450000D01*
X2317362Y5765000D02*
X2439410Y5642952D01*
X2190000Y5765000D02*
X2317362D01*
X2442204Y5583386D02*
X2445000Y5580590D01*
X2439410Y5640000D02*
Y5642952D01*
X2442204Y5583386D02*
Y5637204D01*
X2439410Y5640000D02*
X2442204Y5637204D01*
X2779198Y4589780D02*
X3014454D01*
X3445000Y5020326D01*
Y5100000D01*
X1865000Y3720000D02*
Y3799674D01*
X2779198Y4694780D02*
X2782152D01*
X2945000Y4857628D01*
Y5100000D01*
X2339410Y3761486D02*
X2365000Y3735896D01*
Y3720000D02*
Y3735896D01*
X2339410Y3761486D02*
Y4130000D01*
X2025000Y5185326D02*
X2094410Y5115916D01*
X2025000Y5185326D02*
Y5265000D01*
X2150000Y4858544D02*
Y4936850D01*
X2094410Y5065000D02*
Y5115916D01*
Y4992442D02*
X2150000Y4936850D01*
X2094410Y4992442D02*
Y5065000D01*
X3050000Y3755000D02*
Y3882256D01*
X3070420Y3902678D01*
X3086044D01*
X2585000Y5342256D02*
X2605420Y5362678D01*
X2585000Y5215000D02*
Y5342256D01*
X2605420Y5362678D02*
X2621044D01*
X3055630Y4005630D02*
X3104528D01*
X3105670Y4006772D01*
X3086044Y3902678D02*
X3087776Y3904410D01*
X3105670D01*
X2621044Y5362678D02*
X2622776Y5364410D01*
X2640670D01*
X4890000Y3513662D02*
Y3581456D01*
X4875866Y3507402D02*
X4883740D01*
X4890000Y3513662D01*
Y3098662D02*
Y3166456D01*
X4875866Y3092402D02*
X4883740D01*
X4890000Y3098662D01*
X4883740Y2677402D02*
X4890000Y2683662D01*
Y2751456D01*
X4875866Y2677402D02*
X4883740D01*
X711260Y3357598D02*
X719134D01*
X705000Y3351338D02*
X711260Y3357598D01*
X705000Y3283544D02*
Y3351338D01*
X711260Y2942598D02*
X719134D01*
X705000Y2936338D02*
X711260Y2942598D01*
X705000Y2868544D02*
Y2936338D01*
X711260Y2522598D02*
X719134D01*
X705000Y2448544D02*
Y2516338D01*
X711260Y2522598D01*
D17*
X1959488Y1572953D02*
D03*
Y1553268D02*
D03*
Y1533583D02*
D03*
Y1513898D02*
D03*
Y1494213D02*
D03*
Y1474527D02*
D03*
Y1454842D02*
D03*
Y1435158D02*
D03*
Y1415472D02*
D03*
Y1395787D02*
D03*
Y1376102D02*
D03*
Y1356417D02*
D03*
Y1336732D02*
D03*
Y1317047D02*
D03*
X2270512D02*
D03*
Y1336732D02*
D03*
Y1356417D02*
D03*
Y1376102D02*
D03*
Y1395787D02*
D03*
Y1415472D02*
D03*
Y1435158D02*
D03*
Y1454842D02*
D03*
Y1474527D02*
D03*
Y1494213D02*
D03*
Y1513898D02*
D03*
Y1533583D02*
D03*
Y1553268D02*
D03*
Y1572953D02*
D03*
X1959488Y4627953D02*
D03*
Y4608268D02*
D03*
Y4588583D02*
D03*
Y4568898D02*
D03*
Y4549213D02*
D03*
Y4529528D02*
D03*
Y4509842D02*
D03*
Y4490158D02*
D03*
Y4470472D02*
D03*
Y4450787D02*
D03*
Y4431102D02*
D03*
Y4411417D02*
D03*
Y4391732D02*
D03*
Y4372047D02*
D03*
X2270512D02*
D03*
Y4391732D02*
D03*
Y4411417D02*
D03*
Y4431102D02*
D03*
Y4450787D02*
D03*
Y4470472D02*
D03*
Y4490158D02*
D03*
Y4509842D02*
D03*
Y4529528D02*
D03*
Y4549213D02*
D03*
Y4568898D02*
D03*
Y4588583D02*
D03*
Y4608268D02*
D03*
Y4627953D02*
D03*
D18*
X1987047Y1289488D02*
D03*
X2006732D02*
D03*
X2026417D02*
D03*
X2046102D02*
D03*
X2065787D02*
D03*
X2085472D02*
D03*
X2105157D02*
D03*
X2124843D02*
D03*
X2144528D02*
D03*
X2164213D02*
D03*
X2183898D02*
D03*
X2203583D02*
D03*
X2223268D02*
D03*
X2242953D02*
D03*
Y1600512D02*
D03*
X2223268D02*
D03*
X2203583D02*
D03*
X2183898D02*
D03*
X2164213D02*
D03*
X2144528D02*
D03*
X2124843D02*
D03*
X2105157D02*
D03*
X2085472D02*
D03*
X2065787D02*
D03*
X2046102D02*
D03*
X2026417D02*
D03*
X2006732D02*
D03*
X1987047D02*
D03*
Y4344488D02*
D03*
X2006732D02*
D03*
X2026417D02*
D03*
X2046102D02*
D03*
X2065787D02*
D03*
X2085472D02*
D03*
X2105157D02*
D03*
X2124843D02*
D03*
X2144528D02*
D03*
X2164213D02*
D03*
X2183898D02*
D03*
X2203583D02*
D03*
X2223268D02*
D03*
X2242953D02*
D03*
Y4655512D02*
D03*
X2223268D02*
D03*
X2203583D02*
D03*
X2183898D02*
D03*
X2164213D02*
D03*
X2144528D02*
D03*
X2124843D02*
D03*
X2105157D02*
D03*
X2085472D02*
D03*
X2065787D02*
D03*
X2046102D02*
D03*
X2026417D02*
D03*
X2006732D02*
D03*
X1987047D02*
D03*
D19*
X2115000Y1445000D02*
D03*
Y4500000D02*
D03*
D20*
X4695000Y6931457D02*
D03*
Y6988543D02*
D03*
X4610000Y6931457D02*
D03*
Y6988543D02*
D03*
X4525000Y6931457D02*
D03*
Y6988543D02*
D03*
X1895000Y4801456D02*
D03*
X1910000Y4198544D02*
D03*
X1895000Y1746456D02*
D03*
X1910000Y1143544D02*
D03*
X3890000Y4518544D02*
D03*
X3185000Y6043544D02*
D03*
Y5803544D02*
D03*
Y5563544D02*
D03*
X3105000Y4138544D02*
D03*
X4890000Y3301456D02*
D03*
Y3638544D02*
D03*
Y3223544D02*
D03*
X2165000Y4141456D02*
D03*
X2080000D02*
D03*
X4890000Y2886456D02*
D03*
Y2808544D02*
D03*
X3185000Y2988544D02*
D03*
Y2748544D02*
D03*
Y2508544D02*
D03*
X4890000Y2471456D02*
D03*
X3890000Y1463544D02*
D03*
X3105000Y1083544D02*
D03*
X2165000Y1086456D02*
D03*
X2080000D02*
D03*
X2065000Y4858544D02*
D03*
X1895000D02*
D03*
X1980000D02*
D03*
X1995000Y4141456D02*
D03*
X1910000D02*
D03*
X910000Y4421456D02*
D03*
X740000D02*
D03*
X825000D02*
D03*
X705000Y3563544D02*
D03*
Y3148544D02*
D03*
Y3226456D02*
D03*
Y2728544D02*
D03*
Y2811456D02*
D03*
Y2391456D02*
D03*
X2065000Y1803544D02*
D03*
X1980000D02*
D03*
X1895000D02*
D03*
X1995000Y1086456D02*
D03*
X1910000D02*
D03*
X825000Y1366456D02*
D03*
X910000D02*
D03*
X740000D02*
D03*
X2150000Y1803544D02*
D03*
Y1746456D02*
D03*
X3105000Y1026456D02*
D03*
X3185000Y2691456D02*
D03*
Y2451456D02*
D03*
Y2931456D02*
D03*
X1995000Y1143544D02*
D03*
X1980000Y1746456D02*
D03*
X3890000Y1406456D02*
D03*
X2080000Y1143544D02*
D03*
X2065000Y1746456D02*
D03*
X2165000Y1143544D02*
D03*
Y4198544D02*
D03*
X2065000Y4801456D02*
D03*
X2080000Y4198544D02*
D03*
X3890000Y4461456D02*
D03*
X1980000Y4801456D02*
D03*
X1995000Y4198544D02*
D03*
X3185000Y5986456D02*
D03*
Y5506456D02*
D03*
Y5746456D02*
D03*
X3105000Y4081456D02*
D03*
X2150000Y4858544D02*
D03*
Y4801456D02*
D03*
X4890000Y2528544D02*
D03*
X705000Y2671456D02*
D03*
X4890000Y2751456D02*
D03*
X705000Y2448544D02*
D03*
X4890000Y3358544D02*
D03*
Y2943544D02*
D03*
Y3581456D02*
D03*
Y3166456D02*
D03*
X705000Y3506456D02*
D03*
Y3091456D02*
D03*
Y3283544D02*
D03*
Y2868544D02*
D03*
X740000Y4478544D02*
D03*
X825000D02*
D03*
X910000D02*
D03*
X740000Y1423544D02*
D03*
X825000D02*
D03*
X910000D02*
D03*
D21*
X4940000Y6589409D02*
D03*
Y6640591D02*
D03*
X4820000Y6589409D02*
D03*
Y6640591D02*
D03*
X4880000Y6589409D02*
D03*
Y6640591D02*
D03*
X4760000Y6589409D02*
D03*
Y6640591D02*
D03*
X2779198Y4643600D02*
D03*
Y4538600D02*
D03*
Y4433600D02*
D03*
Y1588600D02*
D03*
Y1483600D02*
D03*
Y1378600D02*
D03*
Y1639780D02*
D03*
X2445000Y2525590D02*
D03*
Y2474410D02*
D03*
X2779198Y1534780D02*
D03*
X2990000Y1065590D02*
D03*
Y1014410D02*
D03*
X2779198Y1429780D02*
D03*
Y4484780D02*
D03*
X2990000Y4120590D02*
D03*
Y4069410D02*
D03*
X2779198Y4589780D02*
D03*
X2445000Y5580590D02*
D03*
Y5529410D02*
D03*
X2779198Y4694780D02*
D03*
D22*
X4264409Y6725000D02*
D03*
X4315591D02*
D03*
X4315590Y6800000D02*
D03*
X4264410D02*
D03*
X2490590Y5640000D02*
D03*
X2145590Y5065000D02*
D03*
X2944410Y4180000D02*
D03*
X2285590Y4130000D02*
D03*
X2390590D02*
D03*
X2490590Y2585000D02*
D03*
X2145590Y2010000D02*
D03*
X2944410Y1125000D02*
D03*
X2285590Y1075000D02*
D03*
X2390590D02*
D03*
X2094410Y2010000D02*
D03*
X2339410Y1075000D02*
D03*
X2234410D02*
D03*
X2439410Y2585000D02*
D03*
X2995590Y1125000D02*
D03*
Y4180000D02*
D03*
X2439410Y5640000D02*
D03*
X2234410Y4130000D02*
D03*
X2339410D02*
D03*
X2094410Y5065000D02*
D03*
D23*
X4654330Y4804410D02*
D03*
X2409330Y5364410D02*
D03*
Y2309410D02*
D03*
X4654330Y1829410D02*
D03*
X2874330Y3904410D02*
D03*
Y849410D02*
D03*
X4654330Y4753228D02*
D03*
X2409330Y5313228D02*
D03*
X2874330Y3853228D02*
D03*
X4654330Y1778228D02*
D03*
X2409330Y2258228D02*
D03*
X2874330Y798228D02*
D03*
X709330Y4642796D02*
D03*
Y1664566D02*
D03*
Y1638976D02*
D03*
Y1587796D02*
D03*
Y1485434D02*
D03*
X4654330Y4906772D02*
D03*
Y4881182D02*
D03*
Y4855590D02*
D03*
Y4830000D02*
D03*
Y4778818D02*
D03*
X4885670Y4753228D02*
D03*
Y4778818D02*
D03*
Y4804410D02*
D03*
Y4830000D02*
D03*
Y4855590D02*
D03*
Y4881182D02*
D03*
Y4906772D02*
D03*
X2409330Y2411772D02*
D03*
Y2386182D02*
D03*
Y2360590D02*
D03*
Y2335000D02*
D03*
Y2283818D02*
D03*
X2640670Y2258228D02*
D03*
Y2283818D02*
D03*
Y2309410D02*
D03*
Y2335000D02*
D03*
Y2360590D02*
D03*
Y2386182D02*
D03*
Y2411772D02*
D03*
X2874330Y951772D02*
D03*
Y926182D02*
D03*
Y900590D02*
D03*
Y875000D02*
D03*
Y823818D02*
D03*
X3105670Y798228D02*
D03*
Y823818D02*
D03*
Y849410D02*
D03*
Y875000D02*
D03*
Y900590D02*
D03*
Y926182D02*
D03*
Y951772D02*
D03*
X2874330Y4006772D02*
D03*
Y3981182D02*
D03*
Y3955590D02*
D03*
Y3930000D02*
D03*
Y3878818D02*
D03*
X3105670Y3853228D02*
D03*
Y3878818D02*
D03*
Y3904410D02*
D03*
Y3930000D02*
D03*
Y3955590D02*
D03*
Y3981182D02*
D03*
Y4006772D02*
D03*
X2409330Y5466772D02*
D03*
Y5441182D02*
D03*
Y5415590D02*
D03*
Y5390000D02*
D03*
Y5338818D02*
D03*
X2640670Y5313228D02*
D03*
Y5338818D02*
D03*
Y5364410D02*
D03*
Y5390000D02*
D03*
Y5415590D02*
D03*
Y5441182D02*
D03*
Y5466772D02*
D03*
X4885670Y1931772D02*
D03*
Y1906182D02*
D03*
Y1880590D02*
D03*
Y1855000D02*
D03*
Y1829410D02*
D03*
Y1803818D02*
D03*
Y1778228D02*
D03*
X4654330Y1803818D02*
D03*
Y1855000D02*
D03*
Y1880590D02*
D03*
Y1906182D02*
D03*
Y1931772D02*
D03*
X940670Y4540434D02*
D03*
Y4566024D02*
D03*
Y4591614D02*
D03*
Y4617204D02*
D03*
Y4642796D02*
D03*
Y4668386D02*
D03*
Y4693976D02*
D03*
Y4719566D02*
D03*
X709330D02*
D03*
Y4693976D02*
D03*
Y4668386D02*
D03*
Y4617204D02*
D03*
Y4591614D02*
D03*
Y4566024D02*
D03*
Y4540434D02*
D03*
Y1511024D02*
D03*
Y1536614D02*
D03*
Y1562204D02*
D03*
Y1613386D02*
D03*
X940670Y1664566D02*
D03*
Y1638976D02*
D03*
Y1613386D02*
D03*
Y1587796D02*
D03*
Y1562204D02*
D03*
Y1536614D02*
D03*
Y1511024D02*
D03*
Y1485434D02*
D03*
D24*
X1813544Y4440000D02*
D03*
Y1385000D02*
D03*
X5023544Y5075000D02*
D03*
Y4990000D02*
D03*
Y4905000D02*
D03*
X3243544Y4095000D02*
D03*
X5056456Y3470000D02*
D03*
X3923544Y3840000D02*
D03*
Y3755000D02*
D03*
X3243544Y4010000D02*
D03*
X3923544Y3670000D02*
D03*
X2777086Y5555000D02*
D03*
Y5640000D02*
D03*
Y5470000D02*
D03*
X2473544Y4590000D02*
D03*
Y4725000D02*
D03*
X2838544Y3420000D02*
D03*
X2648544Y3270000D02*
D03*
X5056456Y3055000D02*
D03*
Y2640000D02*
D03*
X5023544Y2015000D02*
D03*
Y2100000D02*
D03*
Y1930000D02*
D03*
X3923544Y700000D02*
D03*
Y785000D02*
D03*
Y615000D02*
D03*
X3243544Y955000D02*
D03*
Y1040000D02*
D03*
X2777086Y2500000D02*
D03*
Y2585000D02*
D03*
Y2415000D02*
D03*
X2473544Y1535000D02*
D03*
Y1670000D02*
D03*
X2838544Y365000D02*
D03*
X2648544Y215000D02*
D03*
X1756456Y4780000D02*
D03*
Y4610000D02*
D03*
Y4695000D02*
D03*
Y4440000D02*
D03*
Y4525000D02*
D03*
Y4355000D02*
D03*
X538544Y3395000D02*
D03*
Y2980000D02*
D03*
Y2560000D02*
D03*
X1756456Y1725000D02*
D03*
Y1640000D02*
D03*
Y1555000D02*
D03*
Y1470000D02*
D03*
Y1385000D02*
D03*
Y1300000D02*
D03*
X4966456Y5075000D02*
D03*
Y4905000D02*
D03*
Y4990000D02*
D03*
X2720000Y2585000D02*
D03*
Y2500000D02*
D03*
Y2415000D02*
D03*
X3186456Y1040000D02*
D03*
Y955000D02*
D03*
X3866456Y785000D02*
D03*
Y700000D02*
D03*
Y615000D02*
D03*
X2781456Y365000D02*
D03*
X2591456Y215000D02*
D03*
X1813544Y1470000D02*
D03*
Y1300000D02*
D03*
X2416456Y1670000D02*
D03*
X1813544Y1555000D02*
D03*
Y1640000D02*
D03*
Y1725000D02*
D03*
X2416456Y1535000D02*
D03*
X1813544Y4780000D02*
D03*
Y4695000D02*
D03*
Y4610000D02*
D03*
X2416456Y4590000D02*
D03*
Y4725000D02*
D03*
X1813544Y4355000D02*
D03*
Y4525000D02*
D03*
X2591456Y3270000D02*
D03*
X2781456Y3420000D02*
D03*
X3866456Y3670000D02*
D03*
Y3755000D02*
D03*
Y3840000D02*
D03*
X3186456Y4010000D02*
D03*
Y4095000D02*
D03*
X2720000Y5470000D02*
D03*
Y5555000D02*
D03*
Y5640000D02*
D03*
X5113544Y2640000D02*
D03*
X481456Y2560000D02*
D03*
X5113544Y3470000D02*
D03*
Y3055000D02*
D03*
X481456Y3395000D02*
D03*
Y2980000D02*
D03*
X4966456Y1930000D02*
D03*
Y2015000D02*
D03*
Y2100000D02*
D03*
D25*
X3827992Y4340472D02*
D03*
X3122992Y5865472D02*
D03*
Y5385472D02*
D03*
Y5625472D02*
D03*
Y2810472D02*
D03*
Y2570472D02*
D03*
X3827992Y1285472D02*
D03*
X3122992Y2330472D02*
D03*
X3247008Y2629528D02*
D03*
Y2609842D02*
D03*
Y2590158D02*
D03*
Y2570472D02*
D03*
X3122992Y2590158D02*
D03*
Y2609842D02*
D03*
Y2629528D02*
D03*
X3247008Y2389528D02*
D03*
Y2369842D02*
D03*
Y2350158D02*
D03*
Y2330472D02*
D03*
X3122992Y2350158D02*
D03*
Y2369842D02*
D03*
Y2389528D02*
D03*
X3247008Y2869528D02*
D03*
Y2849842D02*
D03*
Y2830158D02*
D03*
Y2810472D02*
D03*
X3122992Y2830158D02*
D03*
Y2849842D02*
D03*
Y2869528D02*
D03*
X3952008Y1344528D02*
D03*
Y1324842D02*
D03*
Y1305158D02*
D03*
Y1285472D02*
D03*
X3827992Y1305158D02*
D03*
Y1324842D02*
D03*
Y1344528D02*
D03*
X3952008Y4399528D02*
D03*
Y4379842D02*
D03*
Y4360158D02*
D03*
Y4340472D02*
D03*
X3827992Y4360158D02*
D03*
Y4379842D02*
D03*
Y4399528D02*
D03*
X3122992Y5924528D02*
D03*
Y5904842D02*
D03*
Y5885158D02*
D03*
X3247008Y5865472D02*
D03*
Y5885158D02*
D03*
Y5904842D02*
D03*
Y5924528D02*
D03*
X3122992Y5444528D02*
D03*
Y5424842D02*
D03*
Y5405158D02*
D03*
X3247008Y5385472D02*
D03*
Y5405158D02*
D03*
Y5424842D02*
D03*
Y5444528D02*
D03*
X3122992Y5684528D02*
D03*
Y5664842D02*
D03*
Y5645158D02*
D03*
X3247008Y5625472D02*
D03*
Y5645158D02*
D03*
Y5664842D02*
D03*
Y5684528D02*
D03*
D26*
X4984134Y3470000D02*
D03*
Y3055000D02*
D03*
Y2640000D02*
D03*
X610866Y3395000D02*
D03*
Y2980000D02*
D03*
Y2560000D02*
D03*
X4875866Y2602598D02*
D03*
Y2677402D02*
D03*
X4984134D02*
D03*
Y2602598D02*
D03*
X610866Y2597402D02*
D03*
Y2522598D02*
D03*
X719134D02*
D03*
Y2597402D02*
D03*
X4984134Y3432598D02*
D03*
Y3507402D02*
D03*
X4875866D02*
D03*
Y3432598D02*
D03*
Y3017598D02*
D03*
Y3092402D02*
D03*
X4984134D02*
D03*
Y3017598D02*
D03*
X610866Y3432402D02*
D03*
Y3357598D02*
D03*
X719134D02*
D03*
Y3432402D02*
D03*
X610866Y3017402D02*
D03*
Y2942598D02*
D03*
X719134D02*
D03*
Y3017402D02*
D03*
D27*
X3702204Y3639330D02*
D03*
Y584330D02*
D03*
X3804566Y815670D02*
D03*
X3778976D02*
D03*
X3753386D02*
D03*
X3727796D02*
D03*
X3702204D02*
D03*
X3676614D02*
D03*
X3651024D02*
D03*
X3625434D02*
D03*
Y584330D02*
D03*
X3651024D02*
D03*
X3676614D02*
D03*
X3727796D02*
D03*
X3753386D02*
D03*
X3778976D02*
D03*
X3804566D02*
D03*
Y3870670D02*
D03*
X3778976D02*
D03*
X3753386D02*
D03*
X3727796D02*
D03*
X3702204D02*
D03*
X3676614D02*
D03*
X3651024D02*
D03*
X3625434D02*
D03*
Y3639330D02*
D03*
X3651024D02*
D03*
X3676614D02*
D03*
X3727796D02*
D03*
X3753386D02*
D03*
X3778976D02*
D03*
X3804566D02*
D03*
D28*
X2660472Y3482008D02*
D03*
X2470472Y3332008D02*
D03*
X2660472Y427008D02*
D03*
X2470472Y277008D02*
D03*
X2719528Y302992D02*
D03*
X2699842D02*
D03*
X2680158D02*
D03*
X2660472D02*
D03*
X2680158Y427008D02*
D03*
X2699842D02*
D03*
X2719528D02*
D03*
X2529528Y152992D02*
D03*
X2509842D02*
D03*
X2490158D02*
D03*
X2470472D02*
D03*
X2490158Y277008D02*
D03*
X2509842D02*
D03*
X2529528D02*
D03*
Y3207992D02*
D03*
X2509842D02*
D03*
X2490158D02*
D03*
X2470472D02*
D03*
X2490158Y3332008D02*
D03*
X2509842D02*
D03*
X2529528D02*
D03*
X2719528Y3357992D02*
D03*
X2699842D02*
D03*
X2680158D02*
D03*
X2660472D02*
D03*
X2680158Y3482008D02*
D03*
X2699842D02*
D03*
X2719528D02*
D03*
D29*
X2225000Y1735000D02*
D03*
X2287992D02*
D03*
X2225000Y1797992D02*
D03*
Y4790000D02*
D03*
X2287992D02*
D03*
X2225000Y4852992D02*
D03*
D30*
X2405000Y1395000D02*
D03*
Y1332008D02*
D03*
X2467992Y1395000D02*
D03*
X2405000Y4450000D02*
D03*
Y4387008D02*
D03*
X2467992Y4450000D02*
D03*
D36*
X4700236Y6851772D02*
D03*
Y6826181D02*
D03*
Y6800591D02*
D03*
Y6775000D02*
D03*
Y6749409D02*
D03*
Y6723819D02*
D03*
Y6698228D02*
D03*
X4479764D02*
D03*
Y6723819D02*
D03*
Y6749409D02*
D03*
Y6775000D02*
D03*
Y6800591D02*
D03*
Y6826181D02*
D03*
Y6851772D02*
D03*
D54*
X3332294Y2840000D02*
X3335000D01*
X3247008Y2830158D02*
X3322452D01*
X3332294Y2840000D01*
X3751840Y1264598D02*
X3772714Y1285472D01*
X3749134Y1264598D02*
X3751840D01*
X3772714Y1285472D02*
X3827992D01*
X2905670Y901948D02*
X2979882Y976162D01*
Y1006162D02*
X2988130Y1014410D01*
X2874330Y900590D02*
X2875690Y901948D01*
X2979882Y976162D02*
Y1006162D01*
X2875690Y901948D02*
X2905670D01*
X2988130Y1014410D02*
X2990000D01*
X2526532Y5435566D02*
X2546508Y5415590D01*
X2640670D01*
X2523826Y5435566D02*
X2526532D01*
X2545966Y5390000D02*
X2640670D01*
X2526532Y5370566D02*
X2545966Y5390000D01*
X2523826Y5370566D02*
X2526532D01*
X2979882Y4031162D02*
Y4061162D01*
X2875690Y3956948D02*
X2905670D01*
X2988130Y4069410D02*
X2990000D01*
X2905670Y3956948D02*
X2979882Y4031162D01*
Y4061162D02*
X2988130Y4069410D01*
X2874330Y3955590D02*
X2875690Y3956948D01*
X640000Y1590000D02*
X641102Y1588898D01*
X708228D01*
X709330Y1587796D01*
X680000Y1420000D02*
Y1420592D01*
X709330Y1449922D02*
Y1485434D01*
X680000Y1420592D02*
X709330Y1449922D01*
X1685000Y4695000D02*
X1756456D01*
X760000Y1257500D02*
X760355Y1257855D01*
X795000D01*
X799645Y1262500D01*
X926886D01*
X847500Y1237500D02*
X852500Y1232500D01*
X926886Y1262500D02*
X964386Y1300000D01*
X852500Y1232500D02*
X1025000D01*
X964386Y1300000D02*
X1095000D01*
X810000Y1237500D02*
X847500D01*
X1682318Y4439348D02*
X1753046D01*
X1682318Y4524348D02*
X1753046D01*
X1683292Y4610000D02*
X1755728D01*
X1785000Y5195000D02*
Y5882500D01*
X1730000Y5227175D02*
Y5882500D01*
X1620000Y5879794D02*
Y5882500D01*
X1675000Y5879794D02*
Y5882500D01*
X1662500Y5137500D02*
Y5867294D01*
X1627500Y5065000D02*
Y5872294D01*
X1565000Y5045000D02*
Y5882500D01*
X1620000Y5879794D02*
X1627500Y5872294D01*
X1662500Y5867294D02*
X1675000Y5879794D01*
X1700000Y5197175D02*
X1730000Y5227175D01*
X1700000Y5190000D02*
Y5197175D01*
X1662500Y5137500D02*
X1665000Y5135000D01*
X1470000Y8255000D02*
X1472028Y8252972D01*
X1670000Y8255000D02*
X1672028Y8252972D01*
X1770000Y8255000D02*
X1772028Y8252972D01*
X1910000Y5570000D02*
X1960000Y5520000D01*
X1927500Y5596622D02*
Y5599122D01*
Y5596622D02*
X1980000Y5544122D01*
X1942500Y5622500D02*
X2000000Y5565000D01*
X1942500Y5622500D02*
Y5625000D01*
X1957500Y5652500D02*
Y5655000D01*
Y5652500D02*
X2020000Y5590000D01*
X2265926D01*
X1980000Y5544122D02*
X2220878D01*
X1960000Y5520000D02*
X2205000D01*
X2000000Y5565000D02*
X2255532D01*
X1013280Y1172249D02*
X1022751D01*
X990529Y1195000D02*
X1013280Y1172249D01*
X810000Y1195000D02*
X990529D01*
X1595000Y2535000D02*
X2265926D01*
X595000Y4645000D02*
X596102Y4643898D01*
X708228D01*
X709330Y4642796D01*
X940670Y4540434D02*
X960846D01*
X1370000Y4131280D01*
Y3880000D02*
Y4131280D01*
X2220878Y5544122D02*
X2295000Y5470000D01*
X2849744Y404538D02*
X2855000Y409794D01*
X2849744Y376200D02*
Y404538D01*
X2855000Y409794D02*
Y412500D01*
X2838544Y365000D02*
X2849744Y376200D01*
X2830000Y720000D02*
X2874330Y764330D01*
X2835910Y3780910D02*
X2874330Y3819330D01*
X2855000Y3464794D02*
Y3467500D01*
X2849744Y3459538D02*
X2855000Y3464794D01*
X2849744Y3431200D02*
Y3459538D01*
X2838544Y3420000D02*
X2849744Y3431200D01*
X2694662Y3221914D02*
X2713086D01*
X2715000Y3220000D01*
X2648544Y3268032D02*
X2694662Y3221914D01*
X4620000Y4660000D02*
X4654330Y4694330D01*
Y4753228D01*
X4567648Y1917648D02*
X4572352D01*
X4609410Y1880590D01*
X4654330D01*
X4575000Y1830000D02*
X4600000Y1855000D01*
X4654330D01*
X1882550Y3367452D02*
X2351328D01*
X2490000Y3225000D02*
Y3228780D01*
X1370000Y3880000D02*
X1882550Y3367452D01*
X2351328D02*
X2490000Y3228780D01*
X2468976Y3333504D02*
X2470472Y3332008D01*
X2420000Y3335000D02*
X2421496Y3333504D01*
X2468976D01*
X4613642Y4828642D02*
X4652972D01*
X4654330Y4830000D01*
X4570000Y4785000D02*
X4613642Y4828642D01*
X4622992Y4856948D02*
X4652972D01*
X4654330Y4855590D01*
X4585000Y4894940D02*
X4622992Y4856948D01*
X4585000Y4894940D02*
Y4990000D01*
X2648544Y213032D02*
X2694662Y166914D01*
X2713086D02*
X2715000Y165000D01*
X2694662Y166914D02*
X2713086D01*
X2648544Y213032D02*
Y215000D01*
X2497920Y1567672D02*
X2504630D01*
X2497422Y1568170D02*
X2497920Y1567672D01*
X2504630D02*
X2506542Y1565758D01*
X2416456Y1536968D02*
X2447658Y1568170D01*
X2497422D01*
X2416456Y1535000D02*
Y1536968D01*
X2515000Y1535000D02*
X2590000Y1610000D01*
X2473544Y1535000D02*
X2515000D01*
X2063032Y1746456D02*
X2065000D01*
X2720000Y2413032D02*
Y2415000D01*
X2693150Y2386182D02*
X2720000Y2413032D01*
X2640670Y2386182D02*
X2693150D01*
X2523826Y2380566D02*
X2526532D01*
X2546508Y2360590D01*
X2640670D01*
X1655000Y2485000D02*
X2225000D01*
X2295000Y2415000D01*
X2545966Y2335000D02*
X2640670D01*
X2295000Y2350000D02*
Y2375000D01*
X2526532Y2315566D02*
X2545966Y2335000D01*
X2523826Y2315566D02*
X2526532D01*
X1660000Y2465000D02*
X2205000D01*
X2295000Y2375000D01*
X2286914Y2155988D02*
X2389154Y2258228D01*
X2409330D01*
X2286914Y2126914D02*
Y2155988D01*
X2285000Y2125000D02*
X2286914Y2126914D01*
X2379008Y2390414D02*
X2381882Y2387540D01*
X2407972D01*
X2375118Y2390414D02*
X2379008D01*
X2407972Y2387540D02*
X2409330Y2386182D01*
X2255532Y2510000D02*
X2375118Y2390414D01*
X1640022Y2510000D02*
X2255532D01*
X2389154Y2411772D02*
X2409330D01*
X2265926Y2535000D02*
X2389154Y2411772D01*
X3186456Y953032D02*
Y955000D01*
X3159606Y926182D02*
X3186456Y953032D01*
X3105670Y926182D02*
X3159606D01*
X2874330Y764330D02*
Y798228D01*
X2610000Y430000D02*
X2611496Y428504D01*
X2658976D01*
X2660472Y427008D01*
X2468976Y278504D02*
X2470472Y277008D01*
X2421496Y278504D02*
X2468976D01*
X2420000Y280000D02*
X2421496Y278504D01*
X3625434Y480434D02*
Y584330D01*
X3500000Y355000D02*
X3625434Y480434D01*
X3651024Y406024D02*
Y584330D01*
X3600000Y355000D02*
X3651024Y406024D01*
X3676614Y385814D02*
X3700000Y362428D01*
X3676614Y385814D02*
Y584330D01*
X3700000Y355000D02*
Y362428D01*
X3790000Y355000D02*
X3800000D01*
X3753386Y391614D02*
Y584330D01*
Y391614D02*
X3790000Y355000D01*
X3778976Y476024D02*
X3900000Y355000D01*
X3778976Y476024D02*
Y584330D01*
X3805926Y549074D02*
X4000000Y355000D01*
X3805926Y549074D02*
Y582972D01*
X3804566Y584330D02*
X3805926Y582972D01*
X2445000Y2431674D02*
X2450866Y2425808D01*
X2445000Y2431674D02*
Y2474410D01*
X2440670Y2361948D02*
X2450866Y2372146D01*
Y2425808D01*
X2410690Y2361948D02*
X2440670D01*
X2409330Y2360590D02*
X2410690Y2361948D01*
X2992796Y1122204D02*
X2995590Y1125000D01*
X2992796Y1068386D02*
Y1122204D01*
X2990000Y1065590D02*
X2992796Y1068386D01*
X2146792Y1743248D02*
X2150000Y1746456D01*
X2146792Y1602776D02*
Y1743248D01*
X2144528Y1600512D02*
X2146792Y1602776D01*
X1760000Y1975000D02*
X1865592D01*
X2028838Y1811752D01*
Y1780650D02*
X2063032Y1746456D01*
X2028838Y1780650D02*
Y1811752D01*
X2205000Y5520000D02*
X2295000Y5430000D01*
Y5405000D02*
Y5430000D01*
X2874330Y3819330D02*
Y3853228D01*
X2515000Y4590000D02*
X2590000Y4665000D01*
X2473544Y4590000D02*
X2515000D01*
X2648544Y3268032D02*
Y3270000D01*
X2611496Y3483504D02*
X2658976D01*
X2610000Y3485000D02*
X2611496Y3483504D01*
X2658976D02*
X2660472Y3482008D01*
X1865592Y5030000D02*
X2028838Y4866752D01*
Y4835650D02*
Y4866752D01*
X1760000Y5030000D02*
X1865592D01*
X2028838Y4835650D02*
X2063032Y4801456D01*
X2285000Y5180000D02*
X2286914Y5181914D01*
X2389154Y5313228D02*
X2409330D01*
X2286914Y5210988D02*
X2389154Y5313228D01*
X2286914Y5181914D02*
Y5210988D01*
X4654330Y1719330D02*
Y1778228D01*
X4620000Y1685000D02*
X4654330Y1719330D01*
X709330Y1638976D02*
X710690Y1637618D01*
X709330Y1587796D02*
X710690Y1589154D01*
X709330Y1638976D02*
Y1664566D01*
X3772714Y4340472D02*
X3827992D01*
X3751840Y4319598D02*
X3772714Y4340472D01*
X3749134Y4319598D02*
X3751840D01*
X2144528Y4655512D02*
X2146792Y4657776D01*
Y4798248D01*
X2150000Y4801456D01*
X2990000Y4120590D02*
X2992796Y4123386D01*
Y4177204D02*
X2995590Y4180000D01*
X2992796Y4123386D02*
Y4177204D01*
X2409330Y5415590D02*
X2410690Y5416948D01*
X2440670D01*
X2450866Y5427146D02*
Y5480808D01*
X2440670Y5416948D02*
X2450866Y5427146D01*
X2445000Y5486674D02*
Y5529410D01*
Y5486674D02*
X2450866Y5480808D01*
X3500000Y3410000D02*
X3625434Y3535434D01*
Y3639330D01*
X3600000Y3410000D02*
X3651024Y3461024D01*
Y3639330D01*
X3700000Y3410000D02*
Y3417428D01*
X3676614Y3440814D02*
Y3639330D01*
Y3440814D02*
X3700000Y3417428D01*
X3753386Y3446614D02*
Y3639330D01*
Y3446614D02*
X3790000Y3410000D01*
X3800000D01*
X3778976Y3531024D02*
X3900000Y3410000D01*
X3778976Y3531024D02*
Y3639330D01*
X3804566D02*
X3805926Y3637972D01*
Y3604074D02*
Y3637972D01*
Y3604074D02*
X4000000Y3410000D01*
X3105670Y3981182D02*
X3159606D01*
X3186456Y4008032D01*
Y4010000D01*
X2640670Y5441182D02*
X2693150D01*
X2720000Y5468032D01*
Y5470000D01*
X2255532Y5565000D02*
X2375118Y5445414D01*
X2407972Y5442540D02*
X2409330Y5441182D01*
X2375118Y5445414D02*
X2379008D01*
X2381882Y5442540D02*
X2407972D01*
X2379008Y5445414D02*
X2381882Y5442540D01*
X2265926Y5590000D02*
X2389154Y5466772D01*
X2409330D01*
X2063032Y4801456D02*
X2065000D01*
X2416456Y4590000D02*
Y4591968D01*
X2447658Y4623170D01*
X2497422D02*
X2497920Y4622672D01*
X2447658Y4623170D02*
X2497422D01*
X2504630Y4622672D02*
X2506542Y4620758D01*
X2497920Y4622672D02*
X2504630D01*
D55*
X3335000Y2840000D02*
Y2995858D01*
X3333827Y2997031D02*
X3335000Y2995858D01*
X3333827Y2997031D02*
Y3011173D01*
X3330000Y3015000D02*
X3333827Y3011173D01*
X1045000Y1765000D02*
Y2505000D01*
X3735000Y1400000D02*
X3738228Y1403228D01*
X3886772D02*
X3890000Y1406456D01*
X3738228Y1403228D02*
X3886772D01*
X1440000Y1470000D02*
Y1590000D01*
X3945000Y3550000D02*
X4370000D01*
X4510000Y3690000D01*
X4029498Y3060000D02*
X4570000Y3600502D01*
Y4785000D01*
X3010000Y3060000D02*
X4029498D01*
X4155000Y2320000D02*
Y3075000D01*
Y2320000D02*
X4365000Y2110000D01*
X2875000Y2674498D02*
Y2925000D01*
X3010000Y3060000D01*
X5055000Y3375000D02*
Y3420000D01*
X2985000Y6090000D02*
X3985000D01*
X4585000Y5490000D01*
X2865000Y5970000D02*
X2985000Y6090000D01*
X4910000Y5095000D02*
Y5175000D01*
X2620000Y3780000D02*
Y4209448D01*
X3155000Y3245000D02*
X4055000D01*
X2620000Y3780000D02*
X3155000Y3245000D01*
X595000Y1290000D02*
X915495D01*
X1000495Y1375000D01*
X275000Y1610000D02*
X595000Y1290000D01*
X2738662Y5321494D02*
X2865000Y5447832D01*
Y5970000D01*
X1340000Y5095000D02*
Y5915000D01*
Y4995000D02*
Y5095000D01*
X275000Y1610000D02*
Y5630000D01*
X4655000Y3425000D02*
Y4465000D01*
X4881198Y3715000D02*
X4984134Y3612064D01*
X4700000Y3715000D02*
X4881198D01*
X2738662Y2185670D02*
Y2231140D01*
X2870787Y2363265D02*
Y2670285D01*
X2875000Y2674498D01*
X2738662Y2231140D02*
X2870787Y2363265D01*
X4900502Y2144498D02*
Y2220000D01*
X4910000Y2100000D02*
Y2135000D01*
X4900502Y2144498D02*
X4910000Y2135000D01*
X1000495Y1375000D02*
X1005000D01*
X655000Y4485000D02*
X785000D01*
X980000Y1770076D02*
Y2460000D01*
X891634Y1681710D02*
X980000Y1770076D01*
X805000Y2635000D02*
X980000Y2460000D01*
X950670Y3504708D02*
Y4448442D01*
X911968Y4478544D02*
X930354Y4460158D01*
X938954D02*
X950670Y4448442D01*
X910000Y4478544D02*
X911968D01*
X820472Y3374510D02*
X950670Y3504708D01*
X540000Y3440000D02*
Y3490000D01*
X2738662Y5240670D02*
Y5321494D01*
X4984134Y3507402D02*
Y3612064D01*
X3738228Y4458228D02*
X3886772D01*
X3890000Y4461456D01*
X3735000Y4455000D02*
X3738228Y4458228D01*
X3715000Y840000D02*
Y890000D01*
X2620000Y818164D02*
Y1154448D01*
X3253164Y185000D02*
X4160000D01*
X2620000Y818164D02*
X3253164Y185000D01*
X891634Y1596244D02*
Y1681710D01*
X1045000Y1765000D02*
X1340000Y1470000D01*
X891634Y1596244D02*
X903350Y1584528D01*
X805000Y2635000D02*
Y2784424D01*
X903350Y1584528D02*
X915000D01*
X4655000Y3425000D02*
X4660412D01*
X4666712Y3431300D01*
X4874568D01*
X4875866Y3432598D01*
X3735000Y1400000D02*
Y2120000D01*
X4795412Y2975000D02*
X4836120Y3015708D01*
X4790000Y2975000D02*
X4795412D01*
X4739528Y2924528D02*
X4790000Y2975000D01*
X4194528Y1850472D02*
Y2007766D01*
X4170000Y2032294D02*
X4194528Y2007766D01*
Y1850472D02*
X4245000Y1800000D01*
X4170000Y2032294D02*
Y2195000D01*
X4739528Y2365030D02*
Y2924528D01*
X4245000Y1470000D02*
X4522648Y1747648D01*
Y2148150D02*
X4739528Y2365030D01*
X4522648Y1747648D02*
Y2148150D01*
X4245000Y1920000D02*
X4690000Y2365000D01*
Y2565000D01*
X4836120Y3015708D02*
X4873976D01*
X4875866Y3017598D01*
X4575000Y600000D02*
Y1830000D01*
X4160000Y185000D02*
X4575000Y600000D01*
X3865000Y4110000D02*
X3975000Y4220000D01*
X3865000Y895000D02*
Y1055000D01*
X3970000Y1160000D01*
X3865000Y3950000D02*
Y4110000D01*
X2780000Y3421456D02*
Y3500000D01*
Y366456D02*
Y445000D01*
Y366456D02*
X2781456Y365000D01*
X735590Y3435590D02*
X790000Y3490000D01*
X722322Y3435590D02*
X735590D01*
X719134Y3432402D02*
X722322Y3435590D01*
X820472Y3172188D02*
X886308Y3106352D01*
X855472Y3224528D02*
Y3295516D01*
Y3224528D02*
X905000Y3175000D01*
X1172844Y3612886D02*
X1344950D01*
X855472Y3295516D02*
X1172844Y3612886D01*
X820472Y3172188D02*
Y3374510D01*
X803290Y1616198D02*
X805000Y1614486D01*
Y1565000D02*
Y1614486D01*
X540000Y2605000D02*
Y2655000D01*
Y3025000D02*
Y3075000D01*
X785000Y4485000D02*
X800000Y4500000D01*
X5055000Y2545000D02*
Y2595000D01*
Y2960000D02*
Y3005000D01*
X4585000Y4990000D02*
Y5490000D01*
X930354Y4460158D02*
X938954D01*
X886308Y3106352D02*
X923690D01*
X954528Y2933952D02*
Y3075516D01*
X805000Y2784424D02*
X954528Y2933952D01*
X923690Y3106352D02*
X954528Y3075516D01*
X905000Y3275000D02*
X989528Y3190472D01*
X905000Y2635000D02*
X989528Y2719528D01*
Y3190472D01*
X3870158Y569842D02*
X3945000Y495000D01*
X3870158Y569842D02*
Y611300D01*
X3866456Y615000D02*
X3870158Y611300D01*
X2590000Y216456D02*
Y295000D01*
Y216456D02*
X2591456Y215000D01*
X2475000Y1800000D02*
X2487500D01*
X2416456Y1670000D02*
Y1741456D01*
X2475000Y1800000D01*
X3888032Y1406456D02*
X3890000D01*
X2287992Y1735000D02*
X2738662Y2185670D01*
X2407716Y1334724D02*
X2439724D01*
X2405000Y1332008D02*
X2407716Y1334724D01*
X2439724D02*
X2620000Y1154448D01*
X1340000Y1840000D02*
Y1940000D01*
Y2040000D01*
X2475000Y4855000D02*
X2487500D01*
X2416456Y4796456D02*
X2475000Y4855000D01*
X2439724Y4389724D02*
X2620000Y4209448D01*
X2407716Y4389724D02*
X2439724D01*
X2405000Y4387008D02*
X2407716Y4389724D01*
X3866456Y3670000D02*
X3870158Y3666300D01*
Y3624842D02*
Y3666300D01*
Y3624842D02*
X3945000Y3550000D01*
X1340000Y4895000D02*
Y4995000D01*
X2416456Y4725000D02*
Y4796456D01*
X2287992Y4790000D02*
X2738662Y5240670D01*
X3888032Y4461456D02*
X3890000D01*
X2590000Y3271456D02*
X2591456Y3270000D01*
X2590000Y3271456D02*
Y3350000D01*
X2780000Y3421456D02*
X2781456Y3420000D01*
X4875866Y3370708D02*
Y3432598D01*
X4888032Y3358544D02*
X4890000D01*
X4875866Y3370708D02*
X4888032Y3358544D01*
X4875866Y2955708D02*
X4888032Y2943544D01*
X4875866Y2955708D02*
Y3017598D01*
X4888032Y2943544D02*
X4890000D01*
X705000Y3445040D02*
Y3506456D01*
X3725000Y4470412D02*
X3735000Y4460412D01*
X3725000Y4470412D02*
Y5135000D01*
D56*
X4910000Y150000D02*
D03*
X5410000Y650000D02*
D03*
Y8100000D02*
D03*
X4910000Y8600000D02*
D03*
X650000Y150000D02*
D03*
X150000Y650000D02*
D03*
Y8100000D02*
D03*
X650000Y8600000D02*
D03*
X150000D02*
D03*
Y150000D02*
D03*
X5410000Y8600000D02*
D03*
Y150000D02*
D03*
D57*
X4710000Y4660000D02*
D03*
X2465000Y5215000D02*
D03*
Y2160000D02*
D03*
X4710000Y1685000D02*
D03*
X2930000Y3755000D02*
D03*
Y700000D02*
D03*
X645000Y3920000D02*
D03*
X4130000Y6555000D02*
D03*
X4030000D02*
D03*
X2030000Y6355000D02*
D03*
X1930000D02*
D03*
X1370000Y8255000D02*
D03*
X4830000Y4660000D02*
D03*
X1340000Y4895000D02*
D03*
X1440000Y4995000D02*
D03*
X1340000D02*
D03*
X1440000Y5095000D02*
D03*
X1340000D02*
D03*
Y1840000D02*
D03*
X1440000Y1940000D02*
D03*
X1340000D02*
D03*
X1440000Y2040000D02*
D03*
X1340000D02*
D03*
X2585000Y2160000D02*
D03*
X3050000Y700000D02*
D03*
X1760000Y1975000D02*
D03*
X3900000Y355000D02*
D03*
X3800000D02*
D03*
X3700000D02*
D03*
X3600000D02*
D03*
X3500000D02*
D03*
X2500000Y1100000D02*
D03*
X2775000Y1240000D02*
D03*
X1340000Y1590000D02*
D03*
X1440000Y1470000D02*
D03*
X4245000Y1920000D02*
D03*
X4145000Y1800000D02*
D03*
X4245000Y1590000D02*
D03*
X4145000Y1470000D02*
D03*
X2775000Y4295000D02*
D03*
X1760000Y5030000D02*
D03*
X4245000Y4645000D02*
D03*
X4145000Y4525000D02*
D03*
X4245000Y4975000D02*
D03*
X4145000Y4855000D02*
D03*
X1340000Y4645000D02*
D03*
X1440000Y4525000D02*
D03*
X2500000Y4155000D02*
D03*
X3900000Y3410000D02*
D03*
X3800000D02*
D03*
X3700000D02*
D03*
X3600000D02*
D03*
X3500000D02*
D03*
X3050000Y3755000D02*
D03*
X2585000Y5215000D02*
D03*
X4790000Y2565000D02*
D03*
X805000Y2635000D02*
D03*
X905000Y3055000D02*
D03*
Y3275000D02*
D03*
X4830000Y1685000D02*
D03*
X2430000Y6355000D02*
D03*
X2630000D02*
D03*
X2530000D02*
D03*
X2830000D02*
D03*
X2730000D02*
D03*
X3030000D02*
D03*
X2930000D02*
D03*
X2330000D02*
D03*
X4130000Y6655000D02*
D03*
X4030000D02*
D03*
X4130000Y6955000D02*
D03*
Y6855000D02*
D03*
Y6755000D02*
D03*
Y7055000D02*
D03*
X4030000Y6955000D02*
D03*
Y6855000D02*
D03*
Y6755000D02*
D03*
Y7055000D02*
D03*
X4130000Y7455000D02*
D03*
Y7355000D02*
D03*
X4030000D02*
D03*
X4130000Y7255000D02*
D03*
X4030000D02*
D03*
X4130000Y7155000D02*
D03*
X4030000D02*
D03*
Y7455000D02*
D03*
X4130000Y7755000D02*
D03*
Y7655000D02*
D03*
Y7555000D02*
D03*
Y7855000D02*
D03*
X4030000Y7755000D02*
D03*
Y7655000D02*
D03*
Y7555000D02*
D03*
Y7855000D02*
D03*
X3130000Y8255000D02*
D03*
X3330000D02*
D03*
X3230000D02*
D03*
X3530000D02*
D03*
X3430000D02*
D03*
X3730000D02*
D03*
X3630000D02*
D03*
X3030000D02*
D03*
X2230000D02*
D03*
X2430000D02*
D03*
X2330000D02*
D03*
X2630000D02*
D03*
X2530000D02*
D03*
X2830000D02*
D03*
X2730000D02*
D03*
X1570000D02*
D03*
X1470000D02*
D03*
X1770000D02*
D03*
X1670000D02*
D03*
X1170000D02*
D03*
X1070000D02*
D03*
X1270000D02*
D03*
X1970000D02*
D03*
X1870000D02*
D03*
X2130000D02*
D03*
X4130000D02*
D03*
Y8155000D02*
D03*
X4030000D02*
D03*
X4130000Y8055000D02*
D03*
X4030000D02*
D03*
X4130000Y7955000D02*
D03*
X4030000D02*
D03*
Y8255000D02*
D03*
X3330000Y6355000D02*
D03*
X3530000D02*
D03*
X3430000D02*
D03*
X3730000D02*
D03*
X3630000D02*
D03*
X3930000D02*
D03*
X3830000D02*
D03*
X3230000D02*
D03*
X1530000D02*
D03*
X1730000D02*
D03*
X1630000D02*
D03*
X1830000D02*
D03*
X2130000D02*
D03*
X1430000D02*
D03*
X1045000Y2505000D02*
D03*
X790000Y3490000D02*
D03*
D58*
X3545000Y5200000D02*
D03*
X3345000D02*
D03*
X3545000Y5000000D02*
D03*
X3345000Y4700000D02*
D03*
Y5000000D02*
D03*
X3545000Y4500000D02*
D03*
Y4700000D02*
D03*
X3550000Y4200000D02*
D03*
X3350000D02*
D03*
X3345000Y4500000D02*
D03*
X3550000Y4000000D02*
D03*
X3350000D02*
D03*
X2845000Y5200000D02*
D03*
X2290000Y5665000D02*
D03*
Y5865000D02*
D03*
X3045000Y5200000D02*
D03*
Y5000000D02*
D03*
X2845000D02*
D03*
X2125000Y5165000D02*
D03*
Y5365000D02*
D03*
X2465000Y3620000D02*
D03*
Y3820000D02*
D03*
X2265000Y3620000D02*
D03*
Y3820000D02*
D03*
X3545000Y1645000D02*
D03*
Y1945000D02*
D03*
X3550000Y1145000D02*
D03*
Y945000D02*
D03*
X3545000Y2145000D02*
D03*
X3345000Y1645000D02*
D03*
Y1945000D02*
D03*
X3545000Y1445000D02*
D03*
X3350000Y1145000D02*
D03*
X3345000Y1445000D02*
D03*
Y2145000D02*
D03*
X3350000Y945000D02*
D03*
X2845000Y2145000D02*
D03*
X2290000Y2610000D02*
D03*
Y2810000D02*
D03*
X3045000Y2145000D02*
D03*
Y1945000D02*
D03*
X2845000D02*
D03*
X2125000Y2110000D02*
D03*
Y2310000D02*
D03*
X2465000Y565000D02*
D03*
Y765000D02*
D03*
X2265000Y565000D02*
D03*
Y765000D02*
D03*
X2090000Y5865000D02*
D03*
Y5665000D02*
D03*
X1925000Y5165000D02*
D03*
Y5365000D02*
D03*
X2090000Y2810000D02*
D03*
Y2610000D02*
D03*
X1965000Y3820000D02*
D03*
Y3620000D02*
D03*
X1925000Y2110000D02*
D03*
Y2310000D02*
D03*
X1765000Y3620000D02*
D03*
Y3820000D02*
D03*
X1965000Y765000D02*
D03*
Y565000D02*
D03*
X1765000D02*
D03*
Y765000D02*
D03*
D59*
X1440000Y4895000D02*
D03*
Y1840000D02*
D03*
X645000Y3820000D02*
D03*
X905000Y3175000D02*
D03*
D60*
X2365000Y665000D02*
D03*
X2025000Y2210000D02*
D03*
X1865000Y665000D02*
D03*
X2945000Y2045000D02*
D03*
X2190000Y2710000D02*
D03*
X3445000Y2045000D02*
D03*
X3450000Y1045000D02*
D03*
X3445000Y1545000D02*
D03*
X3450000Y4100000D02*
D03*
X3445000Y4600000D02*
D03*
X2190000Y5765000D02*
D03*
X3445000Y5100000D02*
D03*
X1865000Y3720000D02*
D03*
X2945000Y5100000D02*
D03*
X2365000Y3720000D02*
D03*
X2025000Y5265000D02*
D03*
D61*
X4000000Y355000D02*
D03*
X1440000Y1590000D02*
D03*
X1340000Y1470000D02*
D03*
X4145000Y1920000D02*
D03*
X4245000Y1800000D02*
D03*
X4145000Y1590000D02*
D03*
X4245000Y1470000D02*
D03*
X4145000Y4645000D02*
D03*
X4245000Y4525000D02*
D03*
X4145000Y4975000D02*
D03*
X4245000Y4855000D02*
D03*
X1440000Y4645000D02*
D03*
X1340000Y4525000D02*
D03*
X4000000Y3410000D02*
D03*
X4690000Y2565000D02*
D03*
X905000Y2635000D02*
D03*
X805000Y3055000D02*
D03*
D62*
X4355144Y6956413D02*
D03*
X2028386Y1531614D02*
D03*
X2071693D02*
D03*
X2115000D02*
D03*
X2158307D02*
D03*
X2201614D02*
D03*
X2028386Y1488307D02*
D03*
X2071693D02*
D03*
X2115000D02*
D03*
X2158307D02*
D03*
X2201614D02*
D03*
X2028386Y1445000D02*
D03*
X2071693D02*
D03*
X2115000D02*
D03*
X2158307D02*
D03*
X2201614D02*
D03*
X2028386Y1401693D02*
D03*
X2071693D02*
D03*
X2115000D02*
D03*
X2158307D02*
D03*
X2201614D02*
D03*
X2028386Y1358386D02*
D03*
X2071693D02*
D03*
X2115000D02*
D03*
X2158307D02*
D03*
X2201614D02*
D03*
X2028386Y4586614D02*
D03*
X2071693D02*
D03*
X2115000D02*
D03*
X2158307D02*
D03*
X2201614D02*
D03*
X2028386Y4543307D02*
D03*
X2071693D02*
D03*
X2115000D02*
D03*
X2158307D02*
D03*
X2201614D02*
D03*
X2028386Y4500000D02*
D03*
X2071693D02*
D03*
X2115000D02*
D03*
X2158307D02*
D03*
X2201614D02*
D03*
X2028386Y4456693D02*
D03*
X2071693D02*
D03*
X2115000D02*
D03*
X2158307D02*
D03*
X2201614D02*
D03*
X2028386Y4413386D02*
D03*
X2071693D02*
D03*
X2115000D02*
D03*
X2158307D02*
D03*
X2201614D02*
D03*
X1335000Y4120000D02*
D03*
X3050000Y1030000D02*
D03*
X3436867Y2278048D02*
D03*
X3260000Y2925000D02*
D03*
X3335000Y2840000D02*
D03*
X3749134Y1264598D02*
D03*
X5065000Y2100000D02*
D03*
X5070000Y4990000D02*
D03*
Y5075000D02*
D03*
Y4905000D02*
D03*
X4985000Y2290000D02*
D03*
X4273873Y6516434D02*
D03*
X2840000Y6475000D02*
D03*
X2841075Y6666063D02*
D03*
X2885000Y6435000D02*
D03*
X2890000Y6620000D02*
D03*
X2523826Y5435566D02*
D03*
X4325000Y6565000D02*
D03*
X4790000Y6747500D02*
D03*
X4390000Y6773091D02*
D03*
X4525000Y7170000D02*
D03*
X4610000D02*
D03*
X4695000D02*
D03*
X4390000Y6695000D02*
D03*
X5065000Y1930000D02*
D03*
Y2015000D02*
D03*
X810000Y1325000D02*
D03*
X642169Y1725093D02*
D03*
X640000Y1590000D02*
D03*
X680000Y1420000D02*
D03*
X738870Y1327017D02*
D03*
X898870D02*
D03*
X810000Y1237500D02*
D03*
X760000Y1257500D02*
D03*
X2777914Y2458399D02*
D03*
X2777086Y2542500D02*
D03*
X2778087Y5510000D02*
D03*
X2775000Y5595000D02*
D03*
X910000Y4380000D02*
D03*
X825000D02*
D03*
X740000D02*
D03*
X1685000Y1385000D02*
D03*
Y1470000D02*
D03*
Y1642500D02*
D03*
Y1560000D02*
D03*
Y4695000D02*
D03*
Y4610000D02*
D03*
Y4440000D02*
D03*
Y4525000D02*
D03*
X1875000Y4630000D02*
D03*
X1886448Y4675966D02*
D03*
X1730000Y5882500D02*
D03*
X1675000D02*
D03*
X1620000D02*
D03*
X1565000D02*
D03*
X1785000D02*
D03*
X1340000Y5915000D02*
D03*
X145000Y5660000D02*
D03*
X275000Y5630000D02*
D03*
X145000Y5880000D02*
D03*
Y5825000D02*
D03*
Y5770000D02*
D03*
Y5715000D02*
D03*
X1980000Y4730000D02*
D03*
X1895000D02*
D03*
X3063793Y3510687D02*
D03*
X2907042Y3680000D02*
D03*
X2780000Y2770000D02*
D03*
X2777294Y2606484D02*
D03*
X2120000Y4255000D02*
D03*
X845000Y1090000D02*
D03*
X2034090Y1217500D02*
D03*
X1250000Y1085000D02*
D03*
X2115000Y1195000D02*
D03*
X2080000Y1230000D02*
D03*
X802865Y1117346D02*
D03*
X1200481Y835481D02*
D03*
X810000Y1195000D02*
D03*
X1886478Y1631464D02*
D03*
X1885000Y1515000D02*
D03*
Y4570000D02*
D03*
X2085000Y4300000D02*
D03*
X1874938Y1576102D02*
D03*
X400000Y4045000D02*
D03*
X540000D02*
D03*
X365000Y4000000D02*
D03*
X505000D02*
D03*
X470000Y4045000D02*
D03*
X435000Y4000000D02*
D03*
X465000Y3700000D02*
D03*
X573326Y3742148D02*
D03*
X500000Y3745000D02*
D03*
X535000Y3700000D02*
D03*
X430000Y3745000D02*
D03*
X395000Y3700000D02*
D03*
X925000Y2075000D02*
D03*
Y2020000D02*
D03*
X930000Y1955000D02*
D03*
X935000Y2150000D02*
D03*
X905000Y2215000D02*
D03*
X920000Y2290000D02*
D03*
X1165000Y2035000D02*
D03*
X1100000Y2075000D02*
D03*
X1150000Y2115000D02*
D03*
X1100000Y2150000D02*
D03*
X1145000Y2200000D02*
D03*
X1105000Y2250000D02*
D03*
X1710000Y2855000D02*
D03*
X1700000Y2760000D02*
D03*
X2830000Y2840000D02*
D03*
X860000Y4030000D02*
D03*
X830000Y3975000D02*
D03*
X895000Y3980000D02*
D03*
X890000Y4085000D02*
D03*
X850000Y4125000D02*
D03*
X895000Y4165000D02*
D03*
X685000Y4120000D02*
D03*
X695000Y4060000D02*
D03*
X1025000Y3900000D02*
D03*
X1030000Y3960000D02*
D03*
X1010000Y4010000D02*
D03*
X1020000Y4065000D02*
D03*
X1025000Y4120000D02*
D03*
X1055000Y4165000D02*
D03*
X4985000Y2255000D02*
D03*
X4750000Y2185000D02*
D03*
Y2240000D02*
D03*
X595000Y4645000D02*
D03*
X1157518Y4593056D02*
D03*
X1216236Y4576658D02*
D03*
X3028092Y521908D02*
D03*
X2855000Y412500D02*
D03*
X3046116Y438010D02*
D03*
X3020000Y560000D02*
D03*
X1020000Y1730000D02*
D03*
Y1655000D02*
D03*
X915000Y1855000D02*
D03*
Y1785000D02*
D03*
X795000Y2560000D02*
D03*
X2830000Y720000D02*
D03*
X2870000Y625000D02*
D03*
X2835910Y3780910D02*
D03*
X3028092Y3576908D02*
D03*
X2957500Y3655000D02*
D03*
X2855000Y3467500D02*
D03*
X3020000Y3615000D02*
D03*
X2495000Y2660000D02*
D03*
X2715000Y3220000D02*
D03*
X4620000Y4660000D02*
D03*
X4818832Y2640000D02*
D03*
X4800000Y3055000D02*
D03*
X2420000Y3335000D02*
D03*
X2780000Y3230000D02*
D03*
Y3500000D02*
D03*
X2775000Y175000D02*
D03*
X2780000Y445000D02*
D03*
X757500Y3395000D02*
D03*
X1345000Y4082500D02*
D03*
X1260000Y3940000D02*
D03*
X1210000Y3890000D02*
D03*
X1235480Y3964520D02*
D03*
X1280984Y4019016D02*
D03*
X1250000Y985000D02*
D03*
X1200000Y1035000D02*
D03*
X1250000Y885000D02*
D03*
X1200000Y935000D02*
D03*
X795000Y2980000D02*
D03*
X2590000Y295000D02*
D03*
X2715000Y165000D02*
D03*
X3110000Y2990000D02*
D03*
X2487500Y1800000D02*
D03*
X2540738Y1758430D02*
D03*
X3890000Y1535000D02*
D03*
X2506542Y1565758D02*
D03*
X2590000Y1610000D02*
D03*
X2523826Y2380566D02*
D03*
X2295000Y2415000D02*
D03*
X2523826Y2315566D02*
D03*
X2295000Y2350000D02*
D03*
X2285000Y2125000D02*
D03*
X2950000Y600000D02*
D03*
X2750000Y1035000D02*
D03*
X2820000Y1075000D02*
D03*
X3110000Y2510000D02*
D03*
Y2270000D02*
D03*
X2610000Y430000D02*
D03*
X2420000Y280000D02*
D03*
X3110000Y2750000D02*
D03*
X3335000Y2600000D02*
D03*
Y2360000D02*
D03*
X2715000Y1585000D02*
D03*
Y1485000D02*
D03*
Y1385000D02*
D03*
X1885000Y1300000D02*
D03*
Y1385000D02*
D03*
X1895000Y1675000D02*
D03*
X1980000D02*
D03*
X2395000Y1150000D02*
D03*
X2487500Y4855000D02*
D03*
X2295000Y5470000D02*
D03*
X2523826Y5370566D02*
D03*
X2295000Y5405000D02*
D03*
X2750000Y4090000D02*
D03*
X2590000Y4665000D02*
D03*
X2610000Y3485000D02*
D03*
X2495000Y5715000D02*
D03*
X2795000Y5725000D02*
D03*
X2715000Y4440000D02*
D03*
Y4540000D02*
D03*
Y4640000D02*
D03*
X2540738Y4813430D02*
D03*
X2285000Y5180000D02*
D03*
X4620000Y1685000D02*
D03*
X4800000Y3470000D02*
D03*
X1885000Y1470000D02*
D03*
X3260000Y2685000D02*
D03*
Y2445000D02*
D03*
X1960000Y1215000D02*
D03*
X2395000Y4205000D02*
D03*
X2035000Y4270000D02*
D03*
X1885000Y4355000D02*
D03*
Y4440000D02*
D03*
X3335000Y5415000D02*
D03*
Y5655000D02*
D03*
Y5895000D02*
D03*
X3920000Y5095000D02*
D03*
X2820000Y4130000D02*
D03*
X2506542Y4620758D02*
D03*
X2590000Y3350000D02*
D03*
X3110000Y5805000D02*
D03*
Y5565000D02*
D03*
X3260000Y5740000D02*
D03*
Y5500000D02*
D03*
X3110000Y5325000D02*
D03*
Y6045000D02*
D03*
X3260000Y5980000D02*
D03*
X3749134Y4319598D02*
D03*
X3890000Y4590000D02*
D03*
X1885000Y4525000D02*
D03*
X1960000Y4270000D02*
D03*
D63*
X3925000Y3975000D02*
D03*
X3420000Y3810000D02*
D03*
X3180012Y3453800D02*
D03*
X4310000Y4260000D02*
D03*
X4645000Y6355000D02*
D03*
X4315000Y5480000D02*
D03*
X4085000Y2815000D02*
D03*
X3465000Y2870000D02*
D03*
X2720000Y3005000D02*
D03*
X5320000Y5910000D02*
D03*
X4820000Y6405000D02*
D03*
X5035000Y1120000D02*
D03*
X5010000Y6525000D02*
D03*
X5055000Y3375000D02*
D03*
X4085000Y5770000D02*
D03*
X4080000Y6385000D02*
D03*
X3675000Y4680000D02*
D03*
X3045000Y4130000D02*
D03*
X3675000Y4430000D02*
D03*
X3795000Y4825000D02*
D03*
X3910000Y5015000D02*
D03*
X4040000Y5125000D02*
D03*
X4590000Y6775000D02*
D03*
X4910000Y5175000D02*
D03*
X4125000Y3670000D02*
D03*
Y3755000D02*
D03*
Y3840000D02*
D03*
Y615000D02*
D03*
Y700000D02*
D03*
Y780000D02*
D03*
X1025000Y1232500D02*
D03*
X2160000Y990000D02*
D03*
X2080000D02*
D03*
X1995000D02*
D03*
X1910000D02*
D03*
X1820000Y900000D02*
D03*
X2160000Y4055000D02*
D03*
X2080000D02*
D03*
X1995000D02*
D03*
X1910000D02*
D03*
X1755000Y4855000D02*
D03*
X1700000Y5190000D02*
D03*
X1785000Y5195000D02*
D03*
X1665000Y5135000D02*
D03*
X1627500Y5065000D02*
D03*
X4515000Y4385000D02*
D03*
X4655000Y4465000D02*
D03*
X4700000Y3715000D02*
D03*
X4655000Y3425000D02*
D03*
X3375000Y3185000D02*
D03*
X3325000Y3370000D02*
D03*
X2715000Y2670000D02*
D03*
X4900502Y2220000D02*
D03*
X1005000Y1375000D02*
D03*
X1565000Y5045000D02*
D03*
X770000Y855000D02*
D03*
X740000Y910000D02*
D03*
X595000Y1075000D02*
D03*
X650000Y1020000D02*
D03*
X690000Y955000D02*
D03*
X1005000Y1100000D02*
D03*
X1022751Y1172249D02*
D03*
X940000Y1135000D02*
D03*
X1095000Y1300000D02*
D03*
X540000Y3490000D02*
D03*
X4510000Y3690000D02*
D03*
X3660000Y675000D02*
D03*
X3715000Y890000D02*
D03*
X3180000Y385000D02*
D03*
X3542426Y3742574D02*
D03*
X3715000Y4000000D02*
D03*
X3735000Y2120000D02*
D03*
X4790000Y2975000D02*
D03*
X4170000Y2195000D02*
D03*
X4567648Y1917648D02*
D03*
X4365000Y2110000D02*
D03*
X4055000Y3245000D02*
D03*
X4155000Y3075000D02*
D03*
X3975000Y4220000D02*
D03*
X3970000Y1160000D02*
D03*
X3330000Y3015000D02*
D03*
X2965000Y3360000D02*
D03*
X1344950Y3612886D02*
D03*
X803290Y1616198D02*
D03*
X540000Y2655000D02*
D03*
Y3075000D02*
D03*
X655000Y4485000D02*
D03*
X5055000Y2545000D02*
D03*
Y2960000D02*
D03*
X3945000Y495000D02*
D03*
X1755000Y1225000D02*
D03*
Y1800000D02*
D03*
X2990000Y885000D02*
D03*
X3135000Y490000D02*
D03*
X2965000Y305000D02*
D03*
X3000000Y240000D02*
D03*
Y3295000D02*
D03*
X2990000Y3940000D02*
D03*
X3945000Y3550000D02*
D03*
X3735000Y1400000D02*
D03*
X1820000Y3955000D02*
D03*
X2720000Y5725000D02*
D03*
X3735000Y4455000D02*
D03*
X3725000Y5135000D02*
D03*
X1755000Y4280000D02*
D03*
M02*
