G04*
G04 #@! TF.GenerationSoftware,Altium Limited,Altium Designer,23.5.1 (21)*
G04*
G04 Layer_Color=65535*
%FSLAX44Y44*%
%MOMM*%
G71*
G04*
G04 #@! TF.SameCoordinates,C4CE3DB5-CAAC-4FC5-883F-B4FCA082C57B*
G04*
G04*
G04 #@! TF.FilePolarity,Positive*
G04*
G01*
G75*
%ADD10C,0.2500*%
%ADD11C,0.2540*%
%ADD12C,0.2000*%
%ADD13C,0.1524*%
D10*
X490460Y407030D02*
G03*
X490460Y407030I-1250J0D01*
G01*
Y1183000D02*
G03*
X490460Y1183000I-1250J0D01*
G01*
X1125110Y1740350D02*
G03*
X1125110Y1740350I-1250J0D01*
G01*
X1267220Y652560D02*
G03*
X1267220Y652560I-1250J0D01*
G01*
X156410Y668240D02*
G03*
X156410Y668240I-1250J0D01*
G01*
X1267220Y863380D02*
G03*
X1267220Y863380I-1250J0D01*
G01*
Y757970D02*
G03*
X1267220Y757970I-1250J0D01*
G01*
X156410Y880330D02*
G03*
X156410Y880330I-1250J0D01*
G01*
Y774920D02*
G03*
X156410Y774920I-1250J0D01*
G01*
D11*
X1149350Y593090D02*
X1370330D01*
X1149350Y965200D02*
X1370330D01*
Y593090D02*
Y965200D01*
X1149350Y593090D02*
Y965200D01*
X49530Y571500D02*
X270510D01*
X49530Y943610D02*
X270510D01*
Y571500D02*
Y943610D01*
X49530Y571500D02*
Y943610D01*
X807720Y1601470D02*
X1010920D01*
X807720Y1626870D02*
X1010920D01*
Y1601470D02*
Y1626870D01*
X807720Y1601470D02*
Y1626870D01*
X756920Y2084070D02*
X960120D01*
X756920Y2109470D02*
X960120D01*
Y2084070D02*
Y2109470D01*
X756920Y2084070D02*
Y2109470D01*
X579120Y1601470D02*
X782320D01*
X579120Y1626870D02*
X782320D01*
Y1601470D02*
Y1626870D01*
X579120Y1601470D02*
Y1626870D01*
X528320Y2084070D02*
X731520D01*
X528320Y2109470D02*
X731520D01*
Y2084070D02*
Y2109470D01*
X528320Y2084070D02*
Y2109470D01*
X350520Y1601470D02*
X553720D01*
X350520Y1626870D02*
X553720D01*
Y1601470D02*
Y1626870D01*
X350520Y1601470D02*
Y1626870D01*
X259080Y2084070D02*
X513080D01*
X259080Y2109470D02*
X513080D01*
Y2084070D02*
Y2109470D01*
X259080Y2084070D02*
Y2109470D01*
X1010920Y1652370D02*
Y2109570D01*
X1061720Y1652370D02*
Y2109570D01*
X1010920D02*
X1061720D01*
X1010920Y1652370D02*
X1061720D01*
X88900Y848788D02*
X82129D01*
X78743Y852173D01*
X82129Y855559D01*
X88900D01*
X83822D01*
Y848788D01*
X78743Y864023D02*
Y860637D01*
X80436Y858944D01*
X87207D01*
X88900Y860637D01*
Y864023D01*
X87207Y865716D01*
X80436D01*
X78743Y864023D01*
X88900Y869101D02*
X78743D01*
X88900Y875872D01*
X78743D01*
X1332230Y899154D02*
X1342387D01*
X1339001Y895769D01*
X1342387Y892383D01*
X1332230D01*
Y888997D02*
X1339001D01*
X1342387Y885612D01*
X1339001Y882226D01*
X1332230D01*
X1337308D01*
Y888997D01*
X1342387Y878841D02*
Y875455D01*
Y877148D01*
X1332230D01*
Y878841D01*
Y875455D01*
Y870377D02*
X1342387D01*
X1332230Y863606D01*
X1342387D01*
X78743Y738299D02*
Y745070D01*
Y741685D01*
X88900D01*
X78743Y755227D02*
Y748456D01*
X88900D01*
Y755227D01*
X83822Y748456D02*
Y751842D01*
X80436Y765384D02*
X78743Y763691D01*
Y760306D01*
X80436Y758613D01*
X82129D01*
X83822Y760306D01*
Y763691D01*
X85514Y765384D01*
X87207D01*
X88900Y763691D01*
Y760306D01*
X87207Y758613D01*
X78743Y768770D02*
Y775541D01*
Y772155D01*
X88900D01*
X80436Y634159D02*
X78743Y632466D01*
Y629080D01*
X80436Y627387D01*
X82129D01*
X83822Y629080D01*
Y632466D01*
X85514Y634159D01*
X87207D01*
X88900Y632466D01*
Y629080D01*
X87207Y627387D01*
X78743Y637544D02*
X88900D01*
X83822D01*
Y644315D01*
X78743D01*
X88900D01*
X78743Y647701D02*
Y651086D01*
Y649394D01*
X88900D01*
Y647701D01*
Y651086D01*
X78743Y662936D02*
Y656165D01*
X83822D01*
Y659550D01*
Y656165D01*
X88900D01*
X78743Y666321D02*
Y673093D01*
Y669707D01*
X88900D01*
X185420Y1003298D02*
Y993141D01*
X190498Y988063D01*
X195577Y993141D01*
Y1003298D01*
X200655D02*
Y988063D01*
X208273D01*
X210812Y990602D01*
Y1000758D01*
X208273Y1003298D01*
X200655D01*
X215890D02*
Y988063D01*
X223508D01*
X226047Y990602D01*
Y1000758D01*
X223508Y1003298D01*
X215890D01*
X231125D02*
Y988063D01*
Y995680D01*
X241282D01*
Y1003298D01*
Y988063D01*
X246360Y1003298D02*
Y993141D01*
X251439Y988063D01*
X256517Y993141D01*
Y1003298D01*
X185420Y975358D02*
X187959Y977897D01*
X193037D01*
X195577Y975358D01*
Y972819D01*
X193037Y970280D01*
X190498D01*
X193037D01*
X195577Y967741D01*
Y965202D01*
X193037Y962663D01*
X187959D01*
X185420Y965202D01*
X200655Y975358D02*
X203194Y977897D01*
X208273D01*
X210812Y975358D01*
Y972819D01*
X208273Y970280D01*
X205733D01*
X208273D01*
X210812Y967741D01*
Y965202D01*
X208273Y962663D01*
X203194D01*
X200655Y965202D01*
X215890Y962663D02*
Y977897D01*
X223508D01*
X226047Y975358D01*
Y970280D01*
X223508Y967741D01*
X215890D01*
X241282Y975358D02*
X238743Y977897D01*
X233664D01*
X231125Y975358D01*
Y972819D01*
X233664Y970280D01*
X238743D01*
X241282Y967741D01*
Y965202D01*
X238743Y962663D01*
X233664D01*
X231125Y965202D01*
X246360Y977897D02*
Y965202D01*
X248899Y962663D01*
X253978D01*
X256517Y965202D01*
Y977897D01*
X1342387Y708648D02*
X1332230D01*
Y703569D01*
X1333923Y701877D01*
X1340694D01*
X1342387Y703569D01*
Y708648D01*
Y698491D02*
Y695105D01*
Y696798D01*
X1332230D01*
Y698491D01*
Y695105D01*
X1340694Y683256D02*
X1342387Y684949D01*
Y688334D01*
X1340694Y690027D01*
X1339001D01*
X1337308Y688334D01*
Y684949D01*
X1335616Y683256D01*
X1333923D01*
X1332230Y684949D01*
Y688334D01*
X1333923Y690027D01*
X1340694Y673099D02*
X1342387Y674792D01*
Y678177D01*
X1340694Y679870D01*
X1333923D01*
X1332230Y678177D01*
Y674792D01*
X1333923Y673099D01*
X1332230Y669714D02*
X1342387D01*
Y664635D01*
X1340694Y662942D01*
X1337308D01*
X1335616Y664635D01*
Y669714D01*
Y666328D02*
X1332230Y662942D01*
X1342387Y652786D02*
Y659557D01*
X1332230D01*
Y652786D01*
X1337308Y659557D02*
Y656171D01*
X1342387Y649400D02*
Y642629D01*
Y646015D01*
X1332230D01*
X1342387Y632472D02*
Y639243D01*
X1332230D01*
Y632472D01*
X1337308Y639243D02*
Y635858D01*
X1340694Y792898D02*
X1342387Y794591D01*
Y797976D01*
X1340694Y799669D01*
X1339001D01*
X1337308Y797976D01*
Y794591D01*
X1335616Y792898D01*
X1333923D01*
X1332230Y794591D01*
Y797976D01*
X1333923Y799669D01*
X1332230Y789512D02*
X1342387D01*
X1339001Y786127D01*
X1342387Y782741D01*
X1332230D01*
Y779356D02*
X1339001D01*
X1342387Y775970D01*
X1339001Y772584D01*
X1332230D01*
X1337308D01*
Y779356D01*
X1342387Y769199D02*
X1332230D01*
Y762428D01*
X1342387Y759042D02*
X1332230D01*
Y752271D01*
X489204Y438399D02*
Y423164D01*
X496822D01*
X499361Y425703D01*
Y435860D01*
X496822Y438399D01*
X489204D01*
X504439D02*
Y425703D01*
X506978Y423164D01*
X512057D01*
X514596Y425703D01*
Y438399D01*
X519674D02*
X529831D01*
X524753D01*
Y423164D01*
X534909Y420625D02*
X545066D01*
X550144Y433321D02*
X560301Y423164D01*
X555223Y428242D01*
X560301Y433321D01*
X550144Y423164D01*
X565379D02*
X570458D01*
X567919D01*
Y438399D01*
X565379Y435860D01*
X489204Y1214369D02*
Y1199134D01*
X496822D01*
X499361Y1201673D01*
Y1211830D01*
X496822Y1214369D01*
X489204D01*
X504439D02*
Y1201673D01*
X506978Y1199134D01*
X512057D01*
X514596Y1201673D01*
Y1214369D01*
X519674D02*
X529831D01*
X524753D01*
Y1199134D01*
X534909Y1196595D02*
X545066D01*
X550144Y1209291D02*
X560301Y1199134D01*
X555223Y1204212D01*
X560301Y1209291D01*
X550144Y1199134D01*
X565379Y1211830D02*
X567919Y1214369D01*
X572997D01*
X575536Y1211830D01*
Y1201673D01*
X572997Y1199134D01*
X567919D01*
X565379Y1201673D01*
Y1211830D01*
X260350Y2128517D02*
Y2120899D01*
X262889Y2118360D01*
X270507D01*
Y2128517D01*
X275585Y2118360D02*
Y2133595D01*
X283203D01*
X285742Y2131056D01*
Y2125977D01*
X283203Y2123438D01*
X275585D01*
X290820Y2118360D02*
X295898D01*
X293359D01*
Y2133595D01*
X290820Y2131056D01*
D12*
X495710Y404780D02*
Y408530D01*
X499460D01*
X574960D02*
X578710D01*
Y404780D02*
Y408530D01*
Y325530D02*
Y329280D01*
X574960Y325530D02*
X578710D01*
X495710D02*
Y329280D01*
Y325530D02*
X499460D01*
X495710Y1180750D02*
Y1184500D01*
X499460D01*
X574960D02*
X578710D01*
Y1180750D02*
Y1184500D01*
Y1101500D02*
Y1105250D01*
X574960Y1101500D02*
X578710D01*
X495710D02*
Y1105250D01*
Y1101500D02*
X499460D01*
X1143360Y1745850D02*
Y1746350D01*
Y1695350D02*
Y1695850D01*
Y1695350D02*
X1188360D01*
Y1745850D02*
Y1746350D01*
Y1695350D02*
Y1695850D01*
X1143360Y1746350D02*
X1188360D01*
X1193080Y1251820D02*
X1230080D01*
Y1201820D02*
Y1251820D01*
X1193080Y1201820D02*
X1230080D01*
X1193080D02*
Y1251820D01*
X1174830Y1252070D02*
X1189580D01*
X1214320Y1171140D02*
Y1196140D01*
X1239320Y1171140D02*
Y1196140D01*
X1214320D02*
X1239320D01*
X1214320Y1171140D02*
X1239320D01*
X1183840D02*
Y1196140D01*
X1208840Y1171140D02*
Y1196140D01*
X1183840D02*
X1208840D01*
X1183840Y1171140D02*
X1208840D01*
X327660Y1306830D02*
X378460D01*
X327660Y1230630D02*
X378460D01*
X327660D02*
Y1306830D01*
X378460Y1230630D02*
Y1306830D01*
Y1258147D02*
Y1306830D01*
X327660Y530860D02*
X378460D01*
X327660Y454660D02*
X378460D01*
X327660D02*
Y530860D01*
X378460Y454660D02*
Y530860D01*
Y482177D02*
Y530860D01*
X622850Y618090D02*
X659850D01*
Y568090D02*
Y618090D01*
X622850Y568090D02*
X659850D01*
X622850D02*
Y618090D01*
X604600Y618340D02*
X619350D01*
X740960Y247250D02*
X777960D01*
Y197250D02*
Y247250D01*
X740960Y197250D02*
X777960D01*
X740960D02*
Y247250D01*
X722710Y247500D02*
X737460D01*
X788990Y672900D02*
X797490D01*
X800990Y650400D02*
Y670400D01*
Y650400D02*
X816990D01*
Y670400D01*
X800990D02*
X816990D01*
X788990Y611940D02*
X797490D01*
X800990Y589440D02*
Y609440D01*
Y589440D02*
X816990D01*
Y609440D01*
X800990D02*
X816990D01*
X695760Y104210D02*
Y112710D01*
X673260Y100710D02*
X693260D01*
X673260Y84710D02*
Y100710D01*
Y84710D02*
X693260D01*
Y100710D01*
X647500Y66110D02*
Y74610D01*
X625000Y62610D02*
X645000D01*
X625000Y46610D02*
Y62610D01*
Y46610D02*
X645000D01*
Y62610D01*
X788990Y733860D02*
X797490D01*
X800990Y711360D02*
Y731360D01*
Y711360D02*
X816990D01*
Y731360D01*
X800990D02*
X816990D01*
X968060Y346510D02*
X976560D01*
X980060Y324010D02*
Y344010D01*
Y324010D02*
X996060D01*
Y344010D01*
X980060D02*
X996060D01*
X644090Y536140D02*
X669090D01*
X644090Y561140D02*
X669090D01*
X644090Y536140D02*
Y561140D01*
X669090Y536140D02*
Y561140D01*
X613610Y536140D02*
X638610D01*
X613610Y561140D02*
X638610D01*
X613610Y536140D02*
Y561140D01*
X638610Y536140D02*
Y561140D01*
X568710Y156420D02*
Y181400D01*
X588220Y136910D02*
X613200D01*
X632710Y156420D02*
Y181400D01*
X588220Y200910D02*
X613200D01*
X482350Y548850D02*
Y573830D01*
X501860Y529340D02*
X526840D01*
X546350Y548850D02*
Y573830D01*
X501860Y593340D02*
X526840D01*
X762200Y165300D02*
X787200D01*
X762200Y190300D02*
X787200D01*
X762200Y165300D02*
Y190300D01*
X787200Y165300D02*
Y190300D01*
X731720Y165300D02*
X756720D01*
X731720Y190300D02*
X756720D01*
X731720Y165300D02*
Y190300D01*
X756720Y165300D02*
Y190300D01*
X441710Y156420D02*
Y181400D01*
X461220Y136910D02*
X486200D01*
X505710Y156420D02*
Y181400D01*
X461220Y200910D02*
X486200D01*
X716030Y506940D02*
Y531920D01*
X735540Y487430D02*
X760520D01*
X780030Y506940D02*
Y531920D01*
X735540Y551430D02*
X760520D01*
X524260Y675850D02*
Y700830D01*
X543770Y656340D02*
X568750D01*
X588260Y675850D02*
Y700830D01*
X543770Y720340D02*
X568750D01*
X843030Y506940D02*
Y531920D01*
X862540Y487430D02*
X887520D01*
X907030Y506940D02*
Y531920D01*
X862540Y551430D02*
X887520D01*
X844300Y252940D02*
Y277920D01*
X863810Y233430D02*
X888790D01*
X908300Y252940D02*
Y277920D01*
X863810Y297430D02*
X888790D01*
X843030Y379940D02*
Y404920D01*
X862540Y360430D02*
X887520D01*
X907030Y379940D02*
Y404920D01*
X862540Y424430D02*
X887520D01*
X434540Y489150D02*
X459540D01*
X434540Y514150D02*
X459540D01*
X434540Y489150D02*
Y514150D01*
X459540Y489150D02*
Y514150D01*
X968610Y159300D02*
Y196300D01*
X918610Y159300D02*
X968610D01*
X918610D02*
Y196300D01*
X968610D01*
X972110Y199800D02*
Y214550D01*
X876300Y77470D02*
Y102870D01*
X1028700Y77470D02*
Y102870D01*
X876300Y77470D02*
X1028700D01*
X876300Y102870D02*
X1028700D01*
X622500Y266900D02*
X647500D01*
X622500Y291900D02*
X647500D01*
X622500Y266900D02*
Y291900D01*
X647500Y266900D02*
Y291900D01*
X692350Y302460D02*
X717350D01*
X692350Y327460D02*
X717350D01*
X692350Y302460D02*
Y327460D01*
X717350Y302460D02*
Y327460D01*
X327660Y391160D02*
Y416560D01*
X378460D01*
Y391160D02*
Y416560D01*
X327660Y391160D02*
X378460D01*
Y360680D02*
Y386080D01*
X327660Y360680D02*
X378460D01*
X327660D02*
Y386080D01*
X378460D01*
X1090930Y474980D02*
Y500380D01*
X1040130Y474980D02*
X1090930D01*
X1040130D02*
Y500380D01*
X1090930D01*
X1040130Y444500D02*
Y469900D01*
X1090930D01*
Y444500D02*
Y469900D01*
X1040130Y444500D02*
X1090930D01*
Y391160D02*
Y416560D01*
X1040130Y391160D02*
X1090930D01*
X1040130D02*
Y416560D01*
X1090930D01*
X1040130Y360680D02*
Y386080D01*
X1090930D01*
Y360680D02*
Y386080D01*
X1040130Y360680D02*
X1090930D01*
X717350Y1078430D02*
Y1103430D01*
X692350Y1078430D02*
Y1103430D01*
X717350D01*
X692350Y1078430D02*
X717350D01*
X459540Y1265120D02*
Y1290120D01*
X434540Y1265120D02*
Y1290120D01*
X459540D01*
X434540Y1265120D02*
X459540D01*
X1040130Y1192530D02*
X1090930D01*
X1040130Y1167130D02*
Y1192530D01*
Y1167130D02*
X1090930D01*
Y1192530D01*
X1040130Y1136650D02*
X1090930D01*
Y1162050D01*
X1040130D02*
X1090930D01*
X1040130Y1136650D02*
Y1162050D01*
Y1276350D02*
X1090930D01*
X1040130Y1250950D02*
Y1276350D01*
Y1250950D02*
X1090930D01*
Y1276350D01*
X1040130Y1220470D02*
X1090930D01*
Y1245870D01*
X1040130D02*
X1090930D01*
X1040130Y1220470D02*
Y1245870D01*
X327660Y1167130D02*
X378460D01*
Y1192530D01*
X327660D02*
X378460D01*
X327660Y1167130D02*
Y1192530D01*
Y1162050D02*
X378460D01*
X327660Y1136650D02*
Y1162050D01*
Y1136650D02*
X378460D01*
Y1162050D01*
X647500Y1042870D02*
Y1067870D01*
X622500Y1042870D02*
Y1067870D01*
X647500D01*
X622500Y1042870D02*
X647500D01*
X876300Y853440D02*
Y878840D01*
X1028700Y853440D02*
Y878840D01*
X876300Y853440D02*
X1028700D01*
X876300Y878840D02*
X1028700D01*
X762200Y941270D02*
X787200D01*
X762200Y966270D02*
X787200D01*
X762200Y941270D02*
Y966270D01*
X787200Y941270D02*
Y966270D01*
X731720Y941270D02*
X756720D01*
X731720Y966270D02*
X756720D01*
X731720Y941270D02*
Y966270D01*
X756720Y941270D02*
Y966270D01*
X644090Y1312110D02*
X669090D01*
X644090Y1337110D02*
X669090D01*
X644090Y1312110D02*
Y1337110D01*
X669090Y1312110D02*
Y1337110D01*
X613610Y1312110D02*
X638610D01*
X613610Y1337110D02*
X638610D01*
X613610Y1312110D02*
Y1337110D01*
X638610Y1312110D02*
Y1337110D01*
X844300Y1028910D02*
Y1053890D01*
X863810Y1009400D02*
X888790D01*
X908300Y1028910D02*
Y1053890D01*
X863810Y1073400D02*
X888790D01*
X843030Y1155910D02*
Y1180890D01*
X862540Y1136400D02*
X887520D01*
X907030Y1155910D02*
Y1180890D01*
X862540Y1200400D02*
X887520D01*
X524260Y1451820D02*
Y1476800D01*
X543770Y1432310D02*
X568750D01*
X588260Y1451820D02*
Y1476800D01*
X543770Y1496310D02*
X568750D01*
X843030Y1282910D02*
Y1307890D01*
X862540Y1263400D02*
X887520D01*
X907030Y1282910D02*
Y1307890D01*
X862540Y1327400D02*
X887520D01*
X441710Y932390D02*
Y957370D01*
X461220Y912880D02*
X486200D01*
X505710Y932390D02*
Y957370D01*
X461220Y976880D02*
X486200D01*
X716030Y1282910D02*
Y1307890D01*
X735540Y1263400D02*
X760520D01*
X780030Y1282910D02*
Y1307890D01*
X735540Y1327400D02*
X760520D01*
X568710Y932390D02*
Y957370D01*
X588220Y912880D02*
X613200D01*
X632710Y932390D02*
Y957370D01*
X588220Y976880D02*
X613200D01*
X482350Y1324820D02*
Y1349800D01*
X501860Y1305310D02*
X526840D01*
X546350Y1324820D02*
Y1349800D01*
X501860Y1369310D02*
X526840D01*
X968060Y1122480D02*
X976560D01*
X980060Y1099980D02*
Y1119980D01*
Y1099980D02*
X996060D01*
Y1119980D01*
X980060D02*
X996060D01*
X800990Y1507330D02*
X816990D01*
Y1487330D02*
Y1507330D01*
X800990Y1487330D02*
X816990D01*
X800990D02*
Y1507330D01*
X788990Y1509830D02*
X797490D01*
X647500Y842080D02*
Y850580D01*
X625000Y838580D02*
X645000D01*
X625000Y822580D02*
Y838580D01*
Y822580D02*
X645000D01*
Y838580D01*
X695760Y880180D02*
Y888680D01*
X673260Y876680D02*
X693260D01*
X673260Y860680D02*
Y876680D01*
Y860680D02*
X693260D01*
Y876680D01*
X800990Y1385410D02*
X816990D01*
Y1365410D02*
Y1385410D01*
X800990Y1365410D02*
X816990D01*
X800990D02*
Y1385410D01*
X788990Y1387910D02*
X797490D01*
X968610Y935270D02*
Y972270D01*
X918610Y935270D02*
X968610D01*
X918610D02*
Y972270D01*
X968610D01*
X972110Y975770D02*
Y990520D01*
X800990Y1446370D02*
X816990D01*
Y1426370D02*
Y1446370D01*
X800990Y1426370D02*
X816990D01*
X800990D02*
Y1446370D01*
X788990Y1448870D02*
X797490D01*
X740960Y1023220D02*
X777960D01*
Y973220D02*
Y1023220D01*
X740960Y973220D02*
X777960D01*
X740960D02*
Y1023220D01*
X722710Y1023470D02*
X737460D01*
X622850Y1394060D02*
X659850D01*
Y1344060D02*
Y1394060D01*
X622850Y1344060D02*
X659850D01*
X622850D02*
Y1394060D01*
X604600Y1394310D02*
X619350D01*
X1174830Y496420D02*
X1189580D01*
X1193080Y446170D02*
Y496170D01*
Y446170D02*
X1230080D01*
Y496170D01*
X1193080D02*
X1230080D01*
X191050Y1151020D02*
X228050D01*
X191050D02*
Y1201020D01*
X228050D01*
Y1151020D02*
Y1201020D01*
X231550Y1147520D02*
X246300D01*
X231550Y371550D02*
X246300D01*
X228050Y375050D02*
Y425050D01*
X191050D02*
X228050D01*
X191050Y375050D02*
Y425050D01*
Y375050D02*
X228050D01*
X1229360Y638810D02*
Y664210D01*
X1178560Y638810D02*
X1229360D01*
X1178560D02*
Y664210D01*
X1229360D01*
X191770Y656590D02*
X242570D01*
Y681990D01*
X191770D02*
X242570D01*
X191770Y656590D02*
Y681990D01*
X151130Y1008380D02*
X176530D01*
Y957580D02*
Y1008380D01*
X151130Y957580D02*
X176530D01*
X151130D02*
Y1008380D01*
X191770Y788670D02*
X242570D01*
X191770Y763270D02*
Y788670D01*
Y763270D02*
X242570D01*
Y788670D01*
X217170Y793750D02*
Y844550D01*
Y793750D02*
X242570D01*
Y844550D01*
X217170D02*
X242570D01*
X1214320Y415490D02*
X1239320D01*
X1214320Y440490D02*
X1239320D01*
Y415490D02*
Y440490D01*
X1214320Y415490D02*
Y440490D01*
X1183840Y415490D02*
X1208840D01*
X1183840Y440490D02*
X1208840D01*
Y415490D02*
Y440490D01*
X1183840Y415490D02*
Y440490D01*
X1247220Y655060D02*
Y686060D01*
X1257220Y655060D02*
Y686060D01*
X1247220D02*
X1257220D01*
X1247220Y655060D02*
X1257220D01*
X163910Y665740D02*
X173910D01*
X163910Y634740D02*
X173910D01*
X163910D02*
Y665740D01*
X173910Y634740D02*
Y665740D01*
X1247220Y865880D02*
X1257220D01*
X1247220Y896880D02*
X1257220D01*
Y865880D02*
Y896880D01*
X1247220Y865880D02*
Y896880D01*
Y760470D02*
Y791470D01*
X1257220Y760470D02*
Y791470D01*
X1247220D02*
X1257220D01*
X1247220Y760470D02*
X1257220D01*
X163910Y877830D02*
X173910D01*
X163910Y846830D02*
X173910D01*
X163910D02*
Y877830D01*
X173910Y846830D02*
Y877830D01*
X163910Y772420D02*
X173910D01*
X163910Y741420D02*
X173910D01*
X163910D02*
Y772420D01*
X173910Y741420D02*
Y772420D01*
D13*
X200661Y735083D02*
X208279D01*
Y740161D01*
X200661Y742700D02*
X208279D01*
Y746509D01*
X207009Y747778D01*
X201931D01*
X200661Y746509D01*
Y742700D01*
Y754126D02*
Y751587D01*
X201931Y750318D01*
X207009D01*
X208279Y751587D01*
Y754126D01*
X207009Y755396D01*
X201931D01*
X200661Y754126D01*
X233679Y852424D02*
X226061D01*
Y856233D01*
X227331Y857502D01*
X229870D01*
X231140Y856233D01*
Y852424D01*
X227331Y865120D02*
X226061Y863850D01*
Y861311D01*
X227331Y860042D01*
X228600D01*
X229870Y861311D01*
Y863850D01*
X231140Y865120D01*
X232409D01*
X233679Y863850D01*
Y861311D01*
X232409Y860042D01*
X226061Y867659D02*
X232409D01*
X233679Y868929D01*
Y871468D01*
X232409Y872737D01*
X226061D01*
X233679Y628403D02*
X226061D01*
Y632211D01*
X227331Y633481D01*
X229870D01*
X231140Y632211D01*
Y628403D01*
X227331Y641098D02*
X226061Y639829D01*
Y637290D01*
X227331Y636020D01*
X228600D01*
X229870Y637290D01*
Y639829D01*
X231140Y641098D01*
X232409D01*
X233679Y639829D01*
Y637290D01*
X232409Y636020D01*
X226061Y643638D02*
X232409D01*
X233679Y644907D01*
Y647446D01*
X232409Y648716D01*
X226061D01*
X1220469Y630936D02*
X1212851D01*
Y625858D01*
X1220469Y623318D02*
X1212851D01*
Y619510D01*
X1214121Y618240D01*
X1219199D01*
X1220469Y619510D01*
Y623318D01*
Y611892D02*
Y614431D01*
X1219199Y615701D01*
X1214121D01*
X1212851Y614431D01*
Y611892D01*
X1214121Y610623D01*
X1219199D01*
X1220469Y611892D01*
X1187451Y630936D02*
X1195069D01*
Y627127D01*
X1193799Y625858D01*
X1191260D01*
X1189990Y627127D01*
Y630936D01*
X1193799Y618240D02*
X1195069Y619510D01*
Y622049D01*
X1193799Y623318D01*
X1192530D01*
X1191260Y622049D01*
Y619510D01*
X1189990Y618240D01*
X1188721D01*
X1187451Y619510D01*
Y622049D01*
X1188721Y623318D01*
X1195069Y615701D02*
X1188721D01*
X1187451Y614431D01*
Y611892D01*
X1188721Y610623D01*
X1195069D01*
X995044Y845566D02*
X987426D01*
Y840488D01*
X995044Y832870D02*
Y837949D01*
X987426D01*
Y832870D01*
X991235Y837949D02*
Y835409D01*
X995044Y830331D02*
X987426D01*
Y826522D01*
X988696Y825253D01*
X993774D01*
X995044Y826522D01*
Y830331D01*
X986156Y822713D02*
Y817635D01*
X993774Y810017D02*
X995044Y811287D01*
Y813826D01*
X993774Y815096D01*
X992504D01*
X991235Y813826D01*
Y811287D01*
X989965Y810017D01*
X988696D01*
X987426Y811287D01*
Y813826D01*
X988696Y815096D01*
X987426Y807478D02*
X995044D01*
X992504Y804939D01*
X995044Y802400D01*
X987426D01*
Y799861D02*
X992504D01*
X995044Y797322D01*
X992504Y794782D01*
X987426D01*
X991235D01*
Y799861D01*
X995044Y792243D02*
X987426D01*
Y787165D01*
X995044Y784626D02*
X987426D01*
Y779547D01*
X1019174Y840488D02*
X1020444Y841757D01*
Y844296D01*
X1019174Y845566D01*
X1014096D01*
X1012826Y844296D01*
Y841757D01*
X1014096Y840488D01*
X1020444Y832870D02*
Y837949D01*
X1016635D01*
Y835409D01*
Y837949D01*
X1012826D01*
X1020444Y830331D02*
X1012826D01*
Y826522D01*
X1014096Y825253D01*
X1019174D01*
X1020444Y826522D01*
Y830331D01*
X1011556Y822713D02*
Y817635D01*
X1019174Y810017D02*
X1020444Y811287D01*
Y813826D01*
X1019174Y815096D01*
X1017904D01*
X1016635Y813826D01*
Y811287D01*
X1015365Y810017D01*
X1014096D01*
X1012826Y811287D01*
Y813826D01*
X1014096Y815096D01*
X1012826Y807478D02*
X1020444D01*
X1017904Y804939D01*
X1020444Y802400D01*
X1012826D01*
Y799861D02*
X1017904D01*
X1020444Y797322D01*
X1017904Y794782D01*
X1012826D01*
X1016635D01*
Y799861D01*
X1020444Y792243D02*
X1012826D01*
Y787165D01*
X1020444Y784626D02*
X1012826D01*
Y779547D01*
X918844Y845566D02*
X911226D01*
Y840488D01*
X918844Y832870D02*
Y837948D01*
X911226D01*
Y832870D01*
X915035Y837948D02*
Y835409D01*
X918844Y830331D02*
X911226D01*
Y826522D01*
X912496Y825253D01*
X917574D01*
X918844Y826522D01*
Y830331D01*
X909956Y822713D02*
Y817635D01*
X911226Y815096D02*
X918844D01*
X916304Y812557D01*
X918844Y810017D01*
X911226D01*
Y807478D02*
X916304D01*
X918844Y804939D01*
X916304Y802400D01*
X911226D01*
X915035D01*
Y807478D01*
X918844Y799861D02*
Y797322D01*
Y798591D01*
X911226D01*
Y799861D01*
Y797322D01*
Y793513D02*
X918844D01*
X911226Y788435D01*
X918844D01*
X967739Y840488D02*
X969009Y841757D01*
Y844296D01*
X967739Y845566D01*
X966470D01*
X965200Y844296D01*
Y841757D01*
X963930Y840488D01*
X962661D01*
X961391Y841757D01*
Y844296D01*
X962661Y845566D01*
X961391Y837949D02*
X969009D01*
X966470Y835409D01*
X969009Y832870D01*
X961391D01*
Y830331D02*
X966470D01*
X969009Y827792D01*
X966470Y825253D01*
X961391D01*
X965200D01*
Y830331D01*
X969009Y822713D02*
X961391D01*
Y817635D01*
X969009Y815096D02*
X961391D01*
Y810017D01*
X885191Y845566D02*
X892809D01*
X890270Y843027D01*
X892809Y840488D01*
X885191D01*
Y837948D02*
X890270D01*
X892809Y835409D01*
X890270Y832870D01*
X885191D01*
X889000D01*
Y837948D01*
X892809Y830331D02*
Y827792D01*
Y829061D01*
X885191D01*
Y830331D01*
Y827792D01*
Y823983D02*
X892809D01*
X885191Y818905D01*
X892809D01*
X942974Y840488D02*
X944244Y841757D01*
Y844296D01*
X942974Y845566D01*
X937896D01*
X936626Y844296D01*
Y841757D01*
X937896Y840488D01*
X944244Y832870D02*
Y837948D01*
X940435D01*
Y835409D01*
Y837948D01*
X936626D01*
X944244Y830331D02*
X936626D01*
Y826522D01*
X937896Y825253D01*
X942974D01*
X944244Y826522D01*
Y830331D01*
X935356Y822713D02*
Y817635D01*
X936626Y815096D02*
X944244D01*
X941704Y812557D01*
X944244Y810017D01*
X936626D01*
Y807478D02*
X941704D01*
X944244Y804939D01*
X941704Y802400D01*
X936626D01*
X940435D01*
Y807478D01*
X944244Y799861D02*
Y797322D01*
Y798591D01*
X936626D01*
Y799861D01*
Y797322D01*
Y793513D02*
X944244D01*
X936626Y788435D01*
X944244D01*
X1096264Y1176021D02*
Y1183639D01*
X1100073D01*
X1101342Y1182369D01*
Y1179830D01*
X1100073Y1178560D01*
X1096264D01*
X1108960Y1182369D02*
X1107690Y1183639D01*
X1105151D01*
X1103882Y1182369D01*
Y1181100D01*
X1105151Y1179830D01*
X1107690D01*
X1108960Y1178560D01*
Y1177291D01*
X1107690Y1176021D01*
X1105151D01*
X1103882Y1177291D01*
X1111499Y1183639D02*
Y1177291D01*
X1112769Y1176021D01*
X1115308D01*
X1116577Y1177291D01*
Y1183639D01*
X1096264Y1153159D02*
Y1145541D01*
X1101342D01*
X1103882Y1153159D02*
Y1145541D01*
X1107690D01*
X1108960Y1146811D01*
Y1151889D01*
X1107690Y1153159D01*
X1103882D01*
X1115308D02*
X1112769D01*
X1111499Y1151889D01*
Y1146811D01*
X1112769Y1145541D01*
X1115308D01*
X1116577Y1146811D01*
Y1151889D01*
X1115308Y1153159D01*
X1098804Y1236979D02*
Y1229361D01*
X1103882D01*
X1106422Y1236979D02*
Y1229361D01*
X1110230D01*
X1111500Y1230631D01*
Y1235709D01*
X1110230Y1236979D01*
X1106422D01*
X1117848D02*
X1115309D01*
X1114039Y1235709D01*
Y1230631D01*
X1115309Y1229361D01*
X1117848D01*
X1119117Y1230631D01*
Y1235709D01*
X1117848Y1236979D01*
X1098804Y1259841D02*
Y1267459D01*
X1102613D01*
X1103882Y1266189D01*
Y1263650D01*
X1102613Y1262380D01*
X1098804D01*
X1111500Y1266189D02*
X1110230Y1267459D01*
X1107691D01*
X1106422Y1266189D01*
Y1264920D01*
X1107691Y1263650D01*
X1110230D01*
X1111500Y1262380D01*
Y1261111D01*
X1110230Y1259841D01*
X1107691D01*
X1106422Y1261111D01*
X1114039Y1267459D02*
Y1261111D01*
X1115309Y1259841D01*
X1117848D01*
X1119117Y1261111D01*
Y1267459D01*
X299473Y1153159D02*
Y1145541D01*
X304551D01*
X307090Y1153159D02*
Y1145541D01*
X310899D01*
X312169Y1146811D01*
Y1151889D01*
X310899Y1153159D01*
X307090D01*
X318516D02*
X315977D01*
X314708Y1151889D01*
Y1146811D01*
X315977Y1145541D01*
X318516D01*
X319786Y1146811D01*
Y1151889D01*
X318516Y1153159D01*
X299473Y1176021D02*
Y1183639D01*
X303281D01*
X304551Y1182369D01*
Y1179830D01*
X303281Y1178560D01*
X299473D01*
X312169Y1182369D02*
X310899Y1183639D01*
X308360D01*
X307090Y1182369D01*
Y1181100D01*
X308360Y1179830D01*
X310899D01*
X312169Y1178560D01*
Y1177291D01*
X310899Y1176021D01*
X308360D01*
X307090Y1177291D01*
X314708Y1183639D02*
Y1177291D01*
X315977Y1176021D01*
X318516D01*
X319786Y1177291D01*
Y1183639D01*
X1122934Y1764028D02*
Y1757680D01*
X1124204Y1756410D01*
X1126743D01*
X1128012Y1757680D01*
Y1764028D01*
X1130552D02*
X1135630D01*
Y1762758D01*
X1130552Y1757680D01*
Y1756410D01*
X1212850Y1641348D02*
X1205232D01*
Y1645157D01*
X1206502Y1646426D01*
X1209041D01*
X1210311Y1645157D01*
Y1641348D01*
Y1643887D02*
X1212850Y1646426D01*
Y1648965D02*
Y1651505D01*
Y1650235D01*
X1205232D01*
X1206502Y1648965D01*
Y1655314D02*
X1205232Y1656583D01*
Y1659122D01*
X1206502Y1660392D01*
X1207772D01*
X1209041Y1659122D01*
X1210311Y1660392D01*
X1211580D01*
X1212850Y1659122D01*
Y1656583D01*
X1211580Y1655314D01*
X1210311D01*
X1209041Y1656583D01*
X1207772Y1655314D01*
X1206502D01*
X1209041Y1656583D02*
Y1659122D01*
X1082294Y1686052D02*
Y1693669D01*
X1086103D01*
X1087372Y1692400D01*
Y1689861D01*
X1086103Y1688591D01*
X1082294D01*
X1084833D02*
X1087372Y1686052D01*
X1089911D02*
X1092451D01*
X1091181D01*
Y1693669D01*
X1089911Y1692400D01*
X1096260Y1693669D02*
X1101338D01*
Y1692400D01*
X1096260Y1687322D01*
Y1686052D01*
X1243330Y1641348D02*
X1235713D01*
Y1645157D01*
X1236982Y1646426D01*
X1239521D01*
X1240791Y1645157D01*
Y1641348D01*
Y1643887D02*
X1243330Y1646426D01*
Y1648965D02*
Y1651505D01*
Y1650235D01*
X1235713D01*
X1236982Y1648965D01*
X1235713Y1660392D02*
X1236982Y1657853D01*
X1239521Y1655314D01*
X1242060D01*
X1243330Y1656583D01*
Y1659122D01*
X1242060Y1660392D01*
X1240791D01*
X1239521Y1659122D01*
Y1655314D01*
X1228090Y1641348D02*
X1220472D01*
Y1645157D01*
X1221742Y1646426D01*
X1224281D01*
X1225551Y1645157D01*
Y1641348D01*
Y1643887D02*
X1228090Y1646426D01*
Y1648965D02*
Y1651505D01*
Y1650235D01*
X1220472D01*
X1221742Y1648965D01*
X1220472Y1660392D02*
Y1655314D01*
X1224281D01*
X1223012Y1657853D01*
Y1659122D01*
X1224281Y1660392D01*
X1226820D01*
X1228090Y1659122D01*
Y1656583D01*
X1226820Y1655314D01*
X1258570Y1641348D02*
X1250953D01*
Y1645157D01*
X1252222Y1646426D01*
X1254761D01*
X1256031Y1645157D01*
Y1641348D01*
Y1643887D02*
X1258570Y1646426D01*
Y1648965D02*
Y1651505D01*
Y1650235D01*
X1250953D01*
X1252222Y1648965D01*
X1258570Y1659122D02*
X1250953D01*
X1254761Y1655314D01*
Y1660392D01*
X1189992Y1796794D02*
X1188723Y1795525D01*
Y1792986D01*
X1189992Y1791716D01*
X1195070D01*
X1196340Y1792986D01*
Y1795525D01*
X1195070Y1796794D01*
X1188723Y1804412D02*
X1189992Y1801873D01*
X1192531Y1799333D01*
X1195070D01*
X1196340Y1800603D01*
Y1803142D01*
X1195070Y1804412D01*
X1193801D01*
X1192531Y1803142D01*
Y1799333D01*
X1196340Y1810760D02*
X1188723D01*
X1192531Y1806951D01*
Y1812029D01*
X1168402Y1796794D02*
X1167132Y1795525D01*
Y1792986D01*
X1168402Y1791716D01*
X1173480D01*
X1174750Y1792986D01*
Y1795525D01*
X1173480Y1796794D01*
X1167132Y1804412D02*
X1168402Y1801873D01*
X1170941Y1799333D01*
X1173480D01*
X1174750Y1800603D01*
Y1803142D01*
X1173480Y1804412D01*
X1172211D01*
X1170941Y1803142D01*
Y1799333D01*
X1168402Y1806951D02*
X1167132Y1808221D01*
Y1810760D01*
X1168402Y1812029D01*
X1169672D01*
X1170941Y1810760D01*
Y1809490D01*
Y1810760D01*
X1172211Y1812029D01*
X1173480D01*
X1174750Y1810760D01*
Y1808221D01*
X1173480Y1806951D01*
X1146812Y1796794D02*
X1145543Y1795525D01*
Y1792986D01*
X1146812Y1791716D01*
X1151890D01*
X1153160Y1792986D01*
Y1795525D01*
X1151890Y1796794D01*
X1145543Y1804412D02*
X1146812Y1801873D01*
X1149351Y1799333D01*
X1151890D01*
X1153160Y1800603D01*
Y1803142D01*
X1151890Y1804412D01*
X1150621D01*
X1149351Y1803142D01*
Y1799333D01*
X1153160Y1812029D02*
Y1806951D01*
X1148082Y1812029D01*
X1146812D01*
X1145543Y1810760D01*
Y1808221D01*
X1146812Y1806951D01*
X622677Y335962D02*
Y343580D01*
X626486D01*
X627756Y342310D01*
Y339771D01*
X626486Y338502D01*
X622677D01*
X625216D02*
X627756Y335962D01*
X630295D02*
X632834D01*
X631564D01*
Y343580D01*
X630295Y342310D01*
X636643D02*
X637912Y343580D01*
X640452D01*
X641721Y342310D01*
Y341041D01*
X640452Y339771D01*
X639182D01*
X640452D01*
X641721Y338502D01*
Y337232D01*
X640452Y335962D01*
X637912D01*
X636643Y337232D01*
X644260Y334693D02*
X649339D01*
X651878Y341041D02*
X656956Y335962D01*
X654417Y338502D01*
X656956Y341041D01*
X651878Y335962D01*
X659495D02*
X662035D01*
X660765D01*
Y343580D01*
X659495Y342310D01*
X577222Y452756D02*
Y460374D01*
X581031D01*
X582300Y459104D01*
Y456565D01*
X581031Y455295D01*
X577222D01*
X579761D02*
X582300Y452756D01*
X584839D02*
X587379D01*
X586109D01*
Y460374D01*
X584839Y459104D01*
X596266Y452756D02*
X591187D01*
X596266Y457834D01*
Y459104D01*
X594996Y460374D01*
X592457D01*
X591187Y459104D01*
X598805Y451486D02*
X603883D01*
X606422Y457834D02*
X611501Y452756D01*
X608961Y455295D01*
X611501Y457834D01*
X606422Y452756D01*
X614040D02*
X616579D01*
X615309D01*
Y460374D01*
X614040Y459104D01*
X693928Y282702D02*
Y290319D01*
X697737D01*
X699006Y289050D01*
Y286511D01*
X697737Y285241D01*
X693928D01*
X696467D02*
X699006Y282702D01*
X701545D02*
X704085D01*
X702815D01*
Y290319D01*
X701545Y289050D01*
X707894Y282702D02*
X710433D01*
X709163D01*
Y290319D01*
X707894Y289050D01*
X714241Y281432D02*
X719320D01*
X721859Y287780D02*
X726937Y282702D01*
X724398Y285241D01*
X726937Y287780D01*
X721859Y282702D01*
X729476D02*
X732016D01*
X730746D01*
Y290319D01*
X729476Y289050D01*
X720344Y353568D02*
Y361185D01*
X724153D01*
X725422Y359916D01*
Y357377D01*
X724153Y356107D01*
X720344D01*
X722883D02*
X725422Y353568D01*
X727962D02*
X730501D01*
X729231D01*
Y361185D01*
X727962Y359916D01*
X734309D02*
X735579Y361185D01*
X738118D01*
X739388Y359916D01*
Y354838D01*
X738118Y353568D01*
X735579D01*
X734309Y354838D01*
Y359916D01*
X741927Y352298D02*
X747005D01*
X749545Y358646D02*
X754623Y353568D01*
X752084Y356107D01*
X754623Y358646D01*
X749545Y353568D01*
X757162D02*
X759701D01*
X758432D01*
Y361185D01*
X757162Y359916D01*
X711206Y257176D02*
Y264794D01*
X715014D01*
X716284Y263524D01*
Y260985D01*
X715014Y259715D01*
X711206D01*
X713745D02*
X716284Y257176D01*
X718823Y258446D02*
X720093Y257176D01*
X722632D01*
X723902Y258446D01*
Y263524D01*
X722632Y264794D01*
X720093D01*
X718823Y263524D01*
Y262254D01*
X720093Y260985D01*
X723902D01*
X726441Y255906D02*
X731519D01*
X734058Y262254D02*
X739137Y257176D01*
X736598Y259715D01*
X739137Y262254D01*
X734058Y257176D01*
X741676D02*
X744215D01*
X742945D01*
Y264794D01*
X741676Y263524D01*
X645922Y653542D02*
Y661160D01*
X649731D01*
X651000Y659890D01*
Y657351D01*
X649731Y656081D01*
X645922D01*
X648461D02*
X651000Y653542D01*
X653540Y659890D02*
X654809Y661160D01*
X657348D01*
X658618Y659890D01*
Y658620D01*
X657348Y657351D01*
X658618Y656081D01*
Y654812D01*
X657348Y653542D01*
X654809D01*
X653540Y654812D01*
Y656081D01*
X654809Y657351D01*
X653540Y658620D01*
Y659890D01*
X654809Y657351D02*
X657348D01*
X661157Y652272D02*
X666235D01*
X668775Y658620D02*
X673853Y653542D01*
X671314Y656081D01*
X673853Y658620D01*
X668775Y653542D01*
X676392D02*
X678931D01*
X677662D01*
Y661160D01*
X676392Y659890D01*
X720344Y380238D02*
Y387855D01*
X724153D01*
X725422Y386586D01*
Y384047D01*
X724153Y382777D01*
X720344D01*
X722883D02*
X725422Y380238D01*
X727962Y387855D02*
X733040D01*
Y386586D01*
X727962Y381508D01*
Y380238D01*
X735579Y378968D02*
X740657D01*
X743197Y385316D02*
X748275Y380238D01*
X745736Y382777D01*
X748275Y385316D01*
X743197Y380238D01*
X750814D02*
X753353D01*
X752084D01*
Y387855D01*
X750814Y386586D01*
X635508Y631952D02*
Y639570D01*
X639317D01*
X640586Y638300D01*
Y635761D01*
X639317Y634491D01*
X635508D01*
X638047D02*
X640586Y631952D01*
X648204Y639570D02*
X645665Y638300D01*
X643126Y635761D01*
Y633222D01*
X644395Y631952D01*
X646934D01*
X648204Y633222D01*
Y634491D01*
X646934Y635761D01*
X643126D01*
X650743Y630682D02*
X655821D01*
X658361Y637030D02*
X663439Y631952D01*
X660900Y634491D01*
X663439Y637030D01*
X658361Y631952D01*
X665978D02*
X668517D01*
X667248D01*
Y639570D01*
X665978Y638300D01*
X577088Y223266D02*
X569470D01*
Y227075D01*
X570740Y228344D01*
X573279D01*
X574549Y227075D01*
Y223266D01*
Y225805D02*
X577088Y228344D01*
X569470Y235962D02*
Y230884D01*
X573279D01*
X572010Y233423D01*
Y234692D01*
X573279Y235962D01*
X575818D01*
X577088Y234692D01*
Y232153D01*
X575818Y230884D01*
X578358Y238501D02*
Y243579D01*
X572010Y246119D02*
X577088Y251197D01*
X574549Y248658D01*
X572010Y251197D01*
X577088Y246119D01*
Y253736D02*
Y256275D01*
Y255006D01*
X569470D01*
X570740Y253736D01*
X720344Y406908D02*
Y414525D01*
X724153D01*
X725422Y413256D01*
Y410717D01*
X724153Y409447D01*
X720344D01*
X722883D02*
X725422Y406908D01*
X731770D02*
Y414525D01*
X727962Y410717D01*
X733040D01*
X735579Y405638D02*
X740657D01*
X743197Y411986D02*
X748275Y406908D01*
X745736Y409447D01*
X748275Y411986D01*
X743197Y406908D01*
X750814D02*
X753353D01*
X752084D01*
Y414525D01*
X750814Y413256D01*
X603758Y223266D02*
X596141D01*
Y227075D01*
X597410Y228344D01*
X599949D01*
X601219Y227075D01*
Y223266D01*
Y225805D02*
X603758Y228344D01*
X597410Y230884D02*
X596141Y232153D01*
Y234692D01*
X597410Y235962D01*
X598680D01*
X599949Y234692D01*
Y233423D01*
Y234692D01*
X601219Y235962D01*
X602488D01*
X603758Y234692D01*
Y232153D01*
X602488Y230884D01*
X605028Y238501D02*
Y243579D01*
X598680Y246119D02*
X603758Y251197D01*
X601219Y248658D01*
X598680Y251197D01*
X603758Y246119D01*
Y253736D02*
Y256275D01*
Y255006D01*
X596141D01*
X597410Y253736D01*
X558292Y507492D02*
Y515109D01*
X562101D01*
X563370Y513840D01*
Y511301D01*
X562101Y510031D01*
X558292D01*
X560831D02*
X563370Y507492D01*
X570988D02*
X565910D01*
X570988Y512570D01*
Y513840D01*
X569718Y515109D01*
X567179D01*
X565910Y513840D01*
X573527Y506222D02*
X578605D01*
X581145Y512570D02*
X586223Y507492D01*
X583684Y510031D01*
X586223Y512570D01*
X581145Y507492D01*
X588762D02*
X591301D01*
X590032D01*
Y515109D01*
X588762Y513840D01*
X963930Y314195D02*
X966469D01*
X965200D01*
Y306578D01*
X963930D01*
X966469D01*
X975356Y312926D02*
X974087Y314195D01*
X971547D01*
X970278Y312926D01*
Y307848D01*
X971547Y306578D01*
X974087D01*
X975356Y307848D01*
X977896Y306578D02*
X980435D01*
X979165D01*
Y314195D01*
X977896Y312926D01*
X984243D02*
X985513Y314195D01*
X988052D01*
X989322Y312926D01*
Y311656D01*
X988052Y310387D01*
X986783D01*
X988052D01*
X989322Y309117D01*
Y307848D01*
X988052Y306578D01*
X985513D01*
X984243Y307848D01*
X991861Y305308D02*
X996939D01*
X999479Y311656D02*
X1004557Y306578D01*
X1002018Y309117D01*
X1004557Y311656D01*
X999479Y306578D01*
X1007096D02*
X1009635D01*
X1008366D01*
Y314195D01*
X1007096Y312926D01*
X770639Y709676D02*
Y712215D01*
Y710946D01*
X778256D01*
Y709676D01*
Y712215D01*
X771908Y721102D02*
X770639Y719833D01*
Y717293D01*
X771908Y716024D01*
X776986D01*
X778256Y717293D01*
Y719833D01*
X776986Y721102D01*
X778256Y723642D02*
Y726181D01*
Y724911D01*
X770639D01*
X771908Y723642D01*
X778256Y735068D02*
Y729989D01*
X773178Y735068D01*
X771908D01*
X770639Y733798D01*
Y731259D01*
X771908Y729989D01*
X779526Y737607D02*
Y742685D01*
X773178Y745225D02*
X778256Y750303D01*
X775717Y747764D01*
X773178Y750303D01*
X778256Y745225D01*
Y752842D02*
Y755381D01*
Y754112D01*
X770639D01*
X771908Y752842D01*
X599948Y92962D02*
X602487D01*
X601218D01*
Y85344D01*
X599948D01*
X602487D01*
X611374Y91692D02*
X610105Y92962D01*
X607565D01*
X606296Y91692D01*
Y86614D01*
X607565Y85344D01*
X610105D01*
X611374Y86614D01*
X613913Y85344D02*
X616453D01*
X615183D01*
Y92962D01*
X613913Y91692D01*
X620261Y85344D02*
X622801D01*
X621531D01*
Y92962D01*
X620261Y91692D01*
X626609Y84074D02*
X631688D01*
X634227Y90422D02*
X639305Y85344D01*
X636766Y87883D01*
X639305Y90422D01*
X634227Y85344D01*
X641844D02*
X644384D01*
X643114D01*
Y92962D01*
X641844Y91692D01*
X646938Y131061D02*
X649477D01*
X648208D01*
Y123444D01*
X646938D01*
X649477D01*
X658364Y129792D02*
X657095Y131061D01*
X654556D01*
X653286Y129792D01*
Y124714D01*
X654556Y123444D01*
X657095D01*
X658364Y124714D01*
X660903Y123444D02*
X663443D01*
X662173D01*
Y131061D01*
X660903Y129792D01*
X667251D02*
X668521Y131061D01*
X671060D01*
X672330Y129792D01*
Y124714D01*
X671060Y123444D01*
X668521D01*
X667251Y124714D01*
Y129792D01*
X674869Y122174D02*
X679947D01*
X682486Y128522D02*
X687565Y123444D01*
X685026Y125983D01*
X687565Y128522D01*
X682486Y123444D01*
X690104D02*
X692643D01*
X691374D01*
Y131061D01*
X690104Y129792D01*
X770639Y587756D02*
Y590295D01*
Y589026D01*
X778256D01*
Y587756D01*
Y590295D01*
X771908Y599182D02*
X770639Y597913D01*
Y595373D01*
X771908Y594104D01*
X776986D01*
X778256Y595373D01*
Y597913D01*
X776986Y599182D01*
Y601721D02*
X778256Y602991D01*
Y605530D01*
X776986Y606800D01*
X771908D01*
X770639Y605530D01*
Y602991D01*
X771908Y601721D01*
X773178D01*
X774447Y602991D01*
Y606800D01*
X779526Y609339D02*
Y614417D01*
X773178Y616957D02*
X778256Y622035D01*
X775717Y619496D01*
X773178Y622035D01*
X778256Y616957D01*
Y624574D02*
Y627113D01*
Y625844D01*
X770639D01*
X771908Y624574D01*
X916940Y232915D02*
X919479D01*
X918210D01*
Y225298D01*
X916940D01*
X919479D01*
X928366Y231646D02*
X927097Y232915D01*
X924557D01*
X923288Y231646D01*
Y226568D01*
X924557Y225298D01*
X927097D01*
X928366Y226568D01*
X930906Y231646D02*
X932175Y232915D01*
X934714D01*
X935984Y231646D01*
Y230376D01*
X934714Y229107D01*
X935984Y227837D01*
Y226568D01*
X934714Y225298D01*
X932175D01*
X930906Y226568D01*
Y227837D01*
X932175Y229107D01*
X930906Y230376D01*
Y231646D01*
X932175Y229107D02*
X934714D01*
X938523Y224028D02*
X943601D01*
X946141Y230376D02*
X951219Y225298D01*
X948680Y227837D01*
X951219Y230376D01*
X946141Y225298D01*
X953758D02*
X956297D01*
X955028D01*
Y232915D01*
X953758Y231646D01*
X770639Y648716D02*
Y651255D01*
Y649986D01*
X778256D01*
Y648716D01*
Y651255D01*
X771908Y660142D02*
X770639Y658873D01*
Y656333D01*
X771908Y655064D01*
X776986D01*
X778256Y656333D01*
Y658873D01*
X776986Y660142D01*
X770639Y662682D02*
Y667760D01*
X771908D01*
X776986Y662682D01*
X778256D01*
X779526Y670299D02*
Y675377D01*
X773178Y677917D02*
X778256Y682995D01*
X775717Y680456D01*
X773178Y682995D01*
X778256Y677917D01*
Y685534D02*
Y688073D01*
Y686804D01*
X770639D01*
X771908Y685534D01*
X704344Y195580D02*
Y198119D01*
Y196850D01*
X711962D01*
Y195580D01*
Y198119D01*
X705614Y207006D02*
X704344Y205737D01*
Y203197D01*
X705614Y201928D01*
X710692D01*
X711962Y203197D01*
Y205737D01*
X710692Y207006D01*
X704344Y214624D02*
X705614Y212085D01*
X708153Y209545D01*
X710692D01*
X711962Y210815D01*
Y213354D01*
X710692Y214624D01*
X709423D01*
X708153Y213354D01*
Y209545D01*
X713232Y217163D02*
Y222241D01*
X706884Y224781D02*
X711962Y229859D01*
X709423Y227320D01*
X706884Y229859D01*
X711962Y224781D01*
Y232398D02*
Y234937D01*
Y233668D01*
X704344D01*
X705614Y232398D01*
X586235Y566420D02*
Y568959D01*
Y567690D01*
X593852D01*
Y566420D01*
Y568959D01*
X587504Y577846D02*
X586235Y576577D01*
Y574038D01*
X587504Y572768D01*
X592582D01*
X593852Y574038D01*
Y576577D01*
X592582Y577846D01*
X586235Y585464D02*
Y580386D01*
X590043D01*
X588774Y582925D01*
Y584194D01*
X590043Y585464D01*
X592582D01*
X593852Y584194D01*
Y581655D01*
X592582Y580386D01*
X595122Y588003D02*
Y593081D01*
X588774Y595621D02*
X593852Y600699D01*
X591313Y598160D01*
X588774Y600699D01*
X593852Y595621D01*
Y603238D02*
Y605777D01*
Y604508D01*
X586235D01*
X587504Y603238D01*
X546610Y222502D02*
X545340Y221233D01*
Y218694D01*
X546610Y217424D01*
X551688D01*
X552958Y218694D01*
Y221233D01*
X551688Y222502D01*
X545340Y230120D02*
X546610Y227581D01*
X549149Y225042D01*
X551688D01*
X552958Y226311D01*
Y228850D01*
X551688Y230120D01*
X550419D01*
X549149Y228850D01*
Y225042D01*
X552958Y232659D02*
Y235198D01*
Y233929D01*
X545340D01*
X546610Y232659D01*
X554228Y239007D02*
Y244085D01*
X547880Y246625D02*
X552958Y251703D01*
X550419Y249164D01*
X547880Y251703D01*
X552958Y246625D01*
Y254242D02*
Y256781D01*
Y255512D01*
X545340D01*
X546610Y254242D01*
X649984Y393190D02*
X648715Y394459D01*
X646176D01*
X644906Y393190D01*
Y388112D01*
X646176Y386842D01*
X648715D01*
X649984Y388112D01*
X657602Y394459D02*
X655063Y393190D01*
X652523Y390651D01*
Y388112D01*
X653793Y386842D01*
X656332D01*
X657602Y388112D01*
Y389381D01*
X656332Y390651D01*
X652523D01*
X660141Y393190D02*
X661411Y394459D01*
X663950D01*
X665219Y393190D01*
Y388112D01*
X663950Y386842D01*
X661411D01*
X660141Y388112D01*
Y393190D01*
X667759Y385572D02*
X672837D01*
X675376Y391920D02*
X680454Y386842D01*
X677915Y389381D01*
X680454Y391920D01*
X675376Y386842D01*
X682994D02*
X685533D01*
X684263D01*
Y394459D01*
X682994Y393190D01*
X522310Y478112D02*
X521464Y477265D01*
Y475572D01*
X522310Y474726D01*
X525696D01*
X526542Y475572D01*
Y477265D01*
X525696Y478112D01*
X521464Y483190D02*
Y479804D01*
X524003D01*
X523156Y481497D01*
Y482343D01*
X524003Y483190D01*
X525696D01*
X526542Y482343D01*
Y480651D01*
X525696Y479804D01*
Y484883D02*
X526542Y485729D01*
Y487422D01*
X525696Y488268D01*
X522310D01*
X521464Y487422D01*
Y485729D01*
X522310Y484883D01*
X523156D01*
X524003Y485729D01*
Y488268D01*
X527388Y489961D02*
Y493347D01*
X523156Y495039D02*
X526542Y498425D01*
X524849Y496732D01*
X523156Y498425D01*
X526542Y495039D01*
Y500118D02*
Y501810D01*
Y500964D01*
X521464D01*
X522310Y500118D01*
X391412Y441450D02*
X390143Y442719D01*
X387604D01*
X386334Y441450D01*
Y436372D01*
X387604Y435102D01*
X390143D01*
X391412Y436372D01*
X399030Y442719D02*
X393951D01*
Y438911D01*
X396491Y440180D01*
X397760D01*
X399030Y438911D01*
Y436372D01*
X397760Y435102D01*
X395221D01*
X393951Y436372D01*
X401569Y441450D02*
X402839Y442719D01*
X405378D01*
X406647Y441450D01*
Y440180D01*
X405378Y438911D01*
X406647Y437641D01*
Y436372D01*
X405378Y435102D01*
X402839D01*
X401569Y436372D01*
Y437641D01*
X402839Y438911D01*
X401569Y440180D01*
Y441450D01*
X402839Y438911D02*
X405378D01*
X409187Y433832D02*
X414265D01*
X416804Y440180D02*
X421883Y435102D01*
X419343Y437641D01*
X421883Y440180D01*
X416804Y435102D01*
X424422D02*
X426961D01*
X425691D01*
Y442719D01*
X424422Y441450D01*
X391412Y419860D02*
X390143Y421129D01*
X387604D01*
X386334Y419860D01*
Y414782D01*
X387604Y413512D01*
X390143D01*
X391412Y414782D01*
X399030Y421129D02*
X393951D01*
Y417321D01*
X396491Y418590D01*
X397760D01*
X399030Y417321D01*
Y414782D01*
X397760Y413512D01*
X395221D01*
X393951Y414782D01*
X401569Y421129D02*
X406647D01*
Y419860D01*
X401569Y414782D01*
Y413512D01*
X409187Y412242D02*
X414265D01*
X416804Y418590D02*
X421883Y413512D01*
X419343Y416051D01*
X421883Y418590D01*
X416804Y413512D01*
X424422D02*
X426961D01*
X425691D01*
Y421129D01*
X424422Y419860D01*
X391412Y398270D02*
X390143Y399539D01*
X387604D01*
X386334Y398270D01*
Y393192D01*
X387604Y391922D01*
X390143D01*
X391412Y393192D01*
X399030Y399539D02*
X393951D01*
Y395731D01*
X396491Y397000D01*
X397760D01*
X399030Y395731D01*
Y393192D01*
X397760Y391922D01*
X395221D01*
X393951Y393192D01*
X406647Y399539D02*
X404108Y398270D01*
X401569Y395731D01*
Y393192D01*
X402839Y391922D01*
X405378D01*
X406647Y393192D01*
Y394461D01*
X405378Y395731D01*
X401569D01*
X409187Y390652D02*
X414265D01*
X416804Y397000D02*
X421883Y391922D01*
X419343Y394461D01*
X421883Y397000D01*
X416804Y391922D01*
X424422D02*
X426961D01*
X425691D01*
Y399539D01*
X424422Y398270D01*
X525020Y221232D02*
X523750Y219963D01*
Y217424D01*
X525020Y216154D01*
X530098D01*
X531368Y217424D01*
Y219963D01*
X530098Y221232D01*
X523750Y228850D02*
Y223771D01*
X527559D01*
X526290Y226311D01*
Y227580D01*
X527559Y228850D01*
X530098D01*
X531368Y227580D01*
Y225041D01*
X530098Y223771D01*
X523750Y236467D02*
Y231389D01*
X527559D01*
X526290Y233928D01*
Y235198D01*
X527559Y236467D01*
X530098D01*
X531368Y235198D01*
Y232659D01*
X530098Y231389D01*
X532638Y239007D02*
Y244085D01*
X526290Y246624D02*
X531368Y251702D01*
X528829Y249163D01*
X526290Y251702D01*
X531368Y246624D01*
Y254242D02*
Y256781D01*
Y255511D01*
X523750D01*
X525020Y254242D01*
X478030Y479804D02*
X476760Y478535D01*
Y475996D01*
X478030Y474726D01*
X483108D01*
X484378Y475996D01*
Y478535D01*
X483108Y479804D01*
X476760Y487422D02*
Y482343D01*
X480569D01*
X479300Y484883D01*
Y486152D01*
X480569Y487422D01*
X483108D01*
X484378Y486152D01*
Y483613D01*
X483108Y482343D01*
X484378Y493770D02*
X476760D01*
X480569Y489961D01*
Y495039D01*
X485648Y497579D02*
Y502657D01*
X479300Y505196D02*
X484378Y510275D01*
X481839Y507735D01*
X479300Y510275D01*
X484378Y505196D01*
Y512814D02*
Y515353D01*
Y514083D01*
X476760D01*
X478030Y512814D01*
X481840Y221232D02*
X480570Y219963D01*
Y217424D01*
X481840Y216154D01*
X486918D01*
X488188Y217424D01*
Y219963D01*
X486918Y221232D01*
X480570Y228850D02*
Y223771D01*
X484379D01*
X483110Y226311D01*
Y227580D01*
X484379Y228850D01*
X486918D01*
X488188Y227580D01*
Y225041D01*
X486918Y223771D01*
X481840Y231389D02*
X480570Y232659D01*
Y235198D01*
X481840Y236467D01*
X483110D01*
X484379Y235198D01*
Y233928D01*
Y235198D01*
X485649Y236467D01*
X486918D01*
X488188Y235198D01*
Y232659D01*
X486918Y231389D01*
X489458Y239007D02*
Y244085D01*
X483110Y246624D02*
X488188Y251702D01*
X485649Y249163D01*
X483110Y251702D01*
X488188Y246624D01*
Y254242D02*
Y256781D01*
Y255511D01*
X480570D01*
X481840Y254242D01*
X391412Y355090D02*
X390143Y356359D01*
X387604D01*
X386334Y355090D01*
Y350012D01*
X387604Y348742D01*
X390143D01*
X391412Y350012D01*
X399030Y356359D02*
X393951D01*
Y352551D01*
X396491Y353820D01*
X397760D01*
X399030Y352551D01*
Y350012D01*
X397760Y348742D01*
X395221D01*
X393951Y350012D01*
X406647Y348742D02*
X401569D01*
X406647Y353820D01*
Y355090D01*
X405378Y356359D01*
X402839D01*
X401569Y355090D01*
X409187Y347472D02*
X414265D01*
X416804Y353820D02*
X421883Y348742D01*
X419343Y351281D01*
X421883Y353820D01*
X416804Y348742D01*
X424422D02*
X426961D01*
X425691D01*
Y356359D01*
X424422Y355090D01*
X964566Y354970D02*
X963296Y353701D01*
Y351161D01*
X964566Y349892D01*
X969644D01*
X970914Y351161D01*
Y353701D01*
X969644Y354970D01*
X963296Y362588D02*
Y357509D01*
X967105D01*
X965836Y360048D01*
Y361318D01*
X967105Y362588D01*
X969644D01*
X970914Y361318D01*
Y358779D01*
X969644Y357509D01*
X970914Y365127D02*
Y367666D01*
Y366396D01*
X963296D01*
X964566Y365127D01*
X972184Y371475D02*
Y376553D01*
X965836Y379092D02*
X970914Y384171D01*
X968375Y381632D01*
X965836Y384171D01*
X970914Y379092D01*
Y386710D02*
Y389249D01*
Y387980D01*
X963296D01*
X964566Y386710D01*
X649984Y427480D02*
X648715Y428750D01*
X646176D01*
X644906Y427480D01*
Y422402D01*
X646176Y421132D01*
X648715D01*
X649984Y422402D01*
X657602Y428750D02*
X652523D01*
Y424941D01*
X655063Y426210D01*
X656332D01*
X657602Y424941D01*
Y422402D01*
X656332Y421132D01*
X653793D01*
X652523Y422402D01*
X660141Y427480D02*
X661411Y428750D01*
X663950D01*
X665219Y427480D01*
Y422402D01*
X663950Y421132D01*
X661411D01*
X660141Y422402D01*
Y427480D01*
X667759Y419862D02*
X672837D01*
X675376Y426210D02*
X680454Y421132D01*
X677915Y423671D01*
X680454Y426210D01*
X675376Y421132D01*
X682994D02*
X685533D01*
X684263D01*
Y428750D01*
X682994Y427480D01*
X499620Y479804D02*
X498350Y478535D01*
Y475996D01*
X499620Y474726D01*
X504698D01*
X505968Y475996D01*
Y478535D01*
X504698Y479804D01*
X505968Y486152D02*
X498350D01*
X502159Y482343D01*
Y487422D01*
X504698Y489961D02*
X505968Y491231D01*
Y493770D01*
X504698Y495039D01*
X499620D01*
X498350Y493770D01*
Y491231D01*
X499620Y489961D01*
X500890D01*
X502159Y491231D01*
Y495039D01*
X507238Y497579D02*
Y502657D01*
X500890Y505196D02*
X505968Y510275D01*
X503429Y507735D01*
X500890Y510275D01*
X505968Y505196D01*
Y512814D02*
Y515353D01*
Y514083D01*
X498350D01*
X499620Y512814D01*
X503430Y221232D02*
X502160Y219963D01*
Y217424D01*
X503430Y216154D01*
X508508D01*
X509778Y217424D01*
Y219963D01*
X508508Y221232D01*
X509778Y227580D02*
X502160D01*
X505969Y223771D01*
Y228850D01*
X503430Y231389D02*
X502160Y232659D01*
Y235198D01*
X503430Y236467D01*
X504700D01*
X505969Y235198D01*
X507239Y236467D01*
X508508D01*
X509778Y235198D01*
Y232659D01*
X508508Y231389D01*
X507239D01*
X505969Y232659D01*
X504700Y231389D01*
X503430D01*
X505969Y232659D02*
Y235198D01*
X511048Y239007D02*
Y244085D01*
X504700Y246624D02*
X509778Y251702D01*
X507239Y249163D01*
X504700Y251702D01*
X509778Y246624D01*
Y254242D02*
Y256781D01*
Y255511D01*
X502160D01*
X503430Y254242D01*
X391412Y333500D02*
X390143Y334770D01*
X387604D01*
X386334Y333500D01*
Y328422D01*
X387604Y327152D01*
X390143D01*
X391412Y328422D01*
X397760Y327152D02*
Y334770D01*
X393951Y330961D01*
X399030D01*
X401569Y334770D02*
X406647D01*
Y333500D01*
X401569Y328422D01*
Y327152D01*
X409187Y325882D02*
X414265D01*
X416804Y332230D02*
X421883Y327152D01*
X419343Y329691D01*
X421883Y332230D01*
X416804Y327152D01*
X424422D02*
X426961D01*
X425691D01*
Y334770D01*
X424422Y333500D01*
X391412Y376680D02*
X390143Y377949D01*
X387604D01*
X386334Y376680D01*
Y371602D01*
X387604Y370332D01*
X390143D01*
X391412Y371602D01*
X397760Y370332D02*
Y377949D01*
X393951Y374141D01*
X399030D01*
X406647Y377949D02*
X404108Y376680D01*
X401569Y374141D01*
Y371602D01*
X402839Y370332D01*
X405378D01*
X406647Y371602D01*
Y372871D01*
X405378Y374141D01*
X401569D01*
X409187Y369062D02*
X414265D01*
X416804Y375410D02*
X421883Y370332D01*
X419343Y372871D01*
X421883Y375410D01*
X416804Y370332D01*
X424422D02*
X426961D01*
X425691D01*
Y377949D01*
X424422Y376680D01*
X831340Y755140D02*
X830071Y756410D01*
X827532D01*
X826262Y755140D01*
Y750062D01*
X827532Y748792D01*
X830071D01*
X831340Y750062D01*
X837688Y748792D02*
Y756410D01*
X833879Y752601D01*
X838958D01*
X846575Y756410D02*
X841497D01*
Y752601D01*
X844036Y753870D01*
X845306D01*
X846575Y752601D01*
Y750062D01*
X845306Y748792D01*
X842767D01*
X841497Y750062D01*
X849115Y747522D02*
X854193D01*
X856732Y753870D02*
X861811Y748792D01*
X859271Y751331D01*
X861811Y753870D01*
X856732Y748792D01*
X864350D02*
X866889D01*
X865619D01*
Y756410D01*
X864350Y755140D01*
X694434Y57910D02*
X693165Y59180D01*
X690626D01*
X689356Y57910D01*
Y52832D01*
X690626Y51562D01*
X693165D01*
X694434Y52832D01*
X700782Y51562D02*
Y59180D01*
X696973Y55371D01*
X702052D01*
X708400Y51562D02*
Y59180D01*
X704591Y55371D01*
X709669D01*
X712209Y50292D02*
X717287D01*
X719826Y56640D02*
X724904Y51562D01*
X722365Y54101D01*
X724904Y56640D01*
X719826Y51562D01*
X727444D02*
X729983D01*
X728713D01*
Y59180D01*
X727444Y57910D01*
X742694Y96010D02*
X741425Y97280D01*
X738886D01*
X737616Y96010D01*
Y90932D01*
X738886Y89662D01*
X741425D01*
X742694Y90932D01*
X749042Y89662D02*
Y97280D01*
X745234Y93471D01*
X750312D01*
X752851Y96010D02*
X754121Y97280D01*
X756660D01*
X757929Y96010D01*
Y94740D01*
X756660Y93471D01*
X755390D01*
X756660D01*
X757929Y92201D01*
Y90932D01*
X756660Y89662D01*
X754121D01*
X752851Y90932D01*
X760469Y88392D02*
X765547D01*
X768086Y94740D02*
X773165Y89662D01*
X770625Y92201D01*
X773165Y94740D01*
X768086Y89662D01*
X775704D02*
X778243D01*
X776973D01*
Y97280D01*
X775704Y96010D01*
X1018284Y159510D02*
X1017015Y160779D01*
X1014476D01*
X1013206Y159510D01*
Y154432D01*
X1014476Y153162D01*
X1017015D01*
X1018284Y154432D01*
X1024632Y153162D02*
Y160779D01*
X1020824Y156971D01*
X1025902D01*
X1033519Y153162D02*
X1028441D01*
X1033519Y158240D01*
Y159510D01*
X1032250Y160779D01*
X1029711D01*
X1028441Y159510D01*
X1036059Y151892D02*
X1041137D01*
X1043676Y158240D02*
X1048755Y153162D01*
X1046215Y155701D01*
X1048755Y158240D01*
X1043676Y153162D01*
X1051294D02*
X1053833D01*
X1052563D01*
Y160779D01*
X1051294Y159510D01*
X1018284Y181100D02*
X1017015Y182369D01*
X1014476D01*
X1013206Y181100D01*
Y176022D01*
X1014476Y174752D01*
X1017015D01*
X1018284Y176022D01*
X1024632Y174752D02*
Y182369D01*
X1020824Y178561D01*
X1025902D01*
X1028441Y174752D02*
X1030980D01*
X1029711D01*
Y182369D01*
X1028441Y181100D01*
X1034789Y173482D02*
X1039867D01*
X1042407Y179830D02*
X1047485Y174752D01*
X1044946Y177291D01*
X1047485Y179830D01*
X1042407Y174752D01*
X1050024D02*
X1052563D01*
X1051294D01*
Y182369D01*
X1050024Y181100D01*
X1018284Y202690D02*
X1017015Y203960D01*
X1014476D01*
X1013206Y202690D01*
Y197612D01*
X1014476Y196342D01*
X1017015D01*
X1018284Y197612D01*
X1024632Y196342D02*
Y203960D01*
X1020824Y200151D01*
X1025902D01*
X1028441Y202690D02*
X1029711Y203960D01*
X1032250D01*
X1033519Y202690D01*
Y197612D01*
X1032250Y196342D01*
X1029711D01*
X1028441Y197612D01*
Y202690D01*
X1036059Y195072D02*
X1041137D01*
X1043676Y201420D02*
X1048755Y196342D01*
X1046215Y198881D01*
X1048755Y201420D01*
X1043676Y196342D01*
X1051294D02*
X1053833D01*
X1052563D01*
Y203960D01*
X1051294Y202690D01*
X831340Y633220D02*
X830071Y634490D01*
X827532D01*
X826262Y633220D01*
Y628142D01*
X827532Y626872D01*
X830071D01*
X831340Y628142D01*
X833879Y633220D02*
X835149Y634490D01*
X837688D01*
X838958Y633220D01*
Y631950D01*
X837688Y630681D01*
X836419D01*
X837688D01*
X838958Y629411D01*
Y628142D01*
X837688Y626872D01*
X835149D01*
X833879Y628142D01*
X841497D02*
X842767Y626872D01*
X845306D01*
X846575Y628142D01*
Y633220D01*
X845306Y634490D01*
X842767D01*
X841497Y633220D01*
Y631950D01*
X842767Y630681D01*
X846575D01*
X849115Y625602D02*
X854193D01*
X856732Y631950D02*
X861811Y626872D01*
X859271Y629411D01*
X861811Y631950D01*
X856732Y626872D01*
X864350D02*
X866889D01*
X865619D01*
Y634490D01*
X864350Y633220D01*
X831340Y694180D02*
X830071Y695450D01*
X827532D01*
X826262Y694180D01*
Y689102D01*
X827532Y687832D01*
X830071D01*
X831340Y689102D01*
X833879Y694180D02*
X835149Y695450D01*
X837688D01*
X838958Y694180D01*
Y692910D01*
X837688Y691641D01*
X836419D01*
X837688D01*
X838958Y690371D01*
Y689102D01*
X837688Y687832D01*
X835149D01*
X833879Y689102D01*
X841497Y694180D02*
X842767Y695450D01*
X845306D01*
X846575Y694180D01*
Y692910D01*
X845306Y691641D01*
X846575Y690371D01*
Y689102D01*
X845306Y687832D01*
X842767D01*
X841497Y689102D01*
Y690371D01*
X842767Y691641D01*
X841497Y692910D01*
Y694180D01*
X842767Y691641D02*
X845306D01*
X849115Y686562D02*
X854193D01*
X856732Y692910D02*
X861811Y687832D01*
X859271Y690371D01*
X861811Y692910D01*
X856732Y687832D01*
X864350D02*
X866889D01*
X865619D01*
Y695450D01*
X864350Y694180D01*
X813310Y187196D02*
X812040Y185927D01*
Y183388D01*
X813310Y182118D01*
X818388D01*
X819658Y183388D01*
Y185927D01*
X818388Y187196D01*
X813310Y189736D02*
X812040Y191005D01*
Y193544D01*
X813310Y194814D01*
X814580D01*
X815849Y193544D01*
Y192275D01*
Y193544D01*
X817119Y194814D01*
X818388D01*
X819658Y193544D01*
Y191005D01*
X818388Y189736D01*
X812040Y197353D02*
Y202431D01*
X813310D01*
X818388Y197353D01*
X819658D01*
X820928Y204971D02*
Y210049D01*
X814580Y212588D02*
X819658Y217666D01*
X817119Y215127D01*
X814580Y217666D01*
X819658Y212588D01*
Y220206D02*
Y222745D01*
Y221475D01*
X812040D01*
X813310Y220206D01*
Y286510D02*
X812040Y285241D01*
Y282702D01*
X813310Y281432D01*
X818388D01*
X819658Y282702D01*
Y285241D01*
X818388Y286510D01*
X813310Y289049D02*
X812040Y290319D01*
Y292858D01*
X813310Y294128D01*
X814580D01*
X815849Y292858D01*
Y291589D01*
Y292858D01*
X817119Y294128D01*
X818388D01*
X819658Y292858D01*
Y290319D01*
X818388Y289049D01*
X812040Y301745D02*
X813310Y299206D01*
X815849Y296667D01*
X818388D01*
X819658Y297937D01*
Y300476D01*
X818388Y301745D01*
X817119D01*
X815849Y300476D01*
Y296667D01*
X820928Y304285D02*
Y309363D01*
X814580Y311902D02*
X819658Y316980D01*
X817119Y314441D01*
X814580Y316980D01*
X819658Y311902D01*
Y319520D02*
Y322059D01*
Y320789D01*
X812040D01*
X813310Y319520D01*
X785370Y296924D02*
X784100Y295655D01*
Y293116D01*
X785370Y291846D01*
X790448D01*
X791718Y293116D01*
Y295655D01*
X790448Y296924D01*
X785370Y299464D02*
X784100Y300733D01*
Y303272D01*
X785370Y304542D01*
X786640D01*
X787909Y303272D01*
Y302003D01*
Y303272D01*
X789179Y304542D01*
X790448D01*
X791718Y303272D01*
Y300733D01*
X790448Y299464D01*
X784100Y312159D02*
Y307081D01*
X787909D01*
X786640Y309620D01*
Y310890D01*
X787909Y312159D01*
X790448D01*
X791718Y310890D01*
Y308351D01*
X790448Y307081D01*
X792988Y314699D02*
Y319777D01*
X786640Y322316D02*
X791718Y327394D01*
X789179Y324855D01*
X786640Y327394D01*
X791718Y322316D01*
Y329934D02*
Y332473D01*
Y331203D01*
X784100D01*
X785370Y329934D01*
X726946Y616710D02*
X725677Y617980D01*
X723138D01*
X721868Y616710D01*
Y611632D01*
X723138Y610362D01*
X725677D01*
X726946Y611632D01*
X729485Y616710D02*
X730755Y617980D01*
X733294D01*
X734564Y616710D01*
Y615440D01*
X733294Y614171D01*
X732025D01*
X733294D01*
X734564Y612901D01*
Y611632D01*
X733294Y610362D01*
X730755D01*
X729485Y611632D01*
X740912Y610362D02*
Y617980D01*
X737103Y614171D01*
X742181D01*
X744721Y609092D02*
X749799D01*
X752338Y615440D02*
X757417Y610362D01*
X754877Y612901D01*
X757417Y615440D01*
X752338Y610362D01*
X759956D02*
X762495D01*
X761225D01*
Y617980D01*
X759956Y616710D01*
X726946Y638300D02*
X725677Y639570D01*
X723138D01*
X721868Y638300D01*
Y633222D01*
X723138Y631952D01*
X725677D01*
X726946Y633222D01*
X729485Y638300D02*
X730755Y639570D01*
X733294D01*
X734564Y638300D01*
Y637030D01*
X733294Y635761D01*
X732025D01*
X733294D01*
X734564Y634491D01*
Y633222D01*
X733294Y631952D01*
X730755D01*
X729485Y633222D01*
X737103Y638300D02*
X738373Y639570D01*
X740912D01*
X742181Y638300D01*
Y637030D01*
X740912Y635761D01*
X739642D01*
X740912D01*
X742181Y634491D01*
Y633222D01*
X740912Y631952D01*
X738373D01*
X737103Y633222D01*
X744721Y630682D02*
X749799D01*
X752338Y637030D02*
X757417Y631952D01*
X754877Y634491D01*
X757417Y637030D01*
X752338Y631952D01*
X759956D02*
X762495D01*
X761225D01*
Y639570D01*
X759956Y638300D01*
X726946Y659890D02*
X725677Y661160D01*
X723138D01*
X721868Y659890D01*
Y654812D01*
X723138Y653542D01*
X725677D01*
X726946Y654812D01*
X729485Y659890D02*
X730755Y661160D01*
X733294D01*
X734564Y659890D01*
Y658620D01*
X733294Y657351D01*
X732025D01*
X733294D01*
X734564Y656081D01*
Y654812D01*
X733294Y653542D01*
X730755D01*
X729485Y654812D01*
X742181Y653542D02*
X737103D01*
X742181Y658620D01*
Y659890D01*
X740912Y661160D01*
X738373D01*
X737103Y659890D01*
X744721Y652272D02*
X749799D01*
X752338Y658620D02*
X757417Y653542D01*
X754877Y656081D01*
X757417Y658620D01*
X752338Y653542D01*
X759956D02*
X762495D01*
X761225D01*
Y661160D01*
X759956Y659890D01*
X543900Y478112D02*
X543054Y477265D01*
Y475572D01*
X543900Y474726D01*
X547286D01*
X548132Y475572D01*
Y477265D01*
X547286Y478112D01*
X543900Y479804D02*
X543054Y480651D01*
Y482344D01*
X543900Y483190D01*
X544747D01*
X545593Y482344D01*
Y481497D01*
Y482344D01*
X546439Y483190D01*
X547286D01*
X548132Y482344D01*
Y480651D01*
X547286Y479804D01*
X548132Y484883D02*
Y486576D01*
Y485729D01*
X543054D01*
X543900Y484883D01*
X548978Y489115D02*
Y492500D01*
X544747Y494193D02*
X548132Y497579D01*
X546439Y495886D01*
X544747Y497579D01*
X548132Y494193D01*
Y499271D02*
Y500964D01*
Y500118D01*
X543054D01*
X543900Y499271D01*
X546610Y998472D02*
X545340Y997203D01*
Y994664D01*
X546610Y993394D01*
X551688D01*
X552958Y994664D01*
Y997203D01*
X551688Y998472D01*
X545340Y1006090D02*
X546610Y1003551D01*
X549149Y1001012D01*
X551688D01*
X552958Y1002281D01*
Y1004820D01*
X551688Y1006090D01*
X550419D01*
X549149Y1004820D01*
Y1001012D01*
X552958Y1008629D02*
Y1011168D01*
Y1009899D01*
X545340D01*
X546610Y1008629D01*
X554228Y1014977D02*
Y1020055D01*
X547880Y1022595D02*
X552958Y1027673D01*
X550419Y1025134D01*
X547880Y1027673D01*
X552958Y1022595D01*
X546610Y1030212D02*
X545340Y1031482D01*
Y1034021D01*
X546610Y1035290D01*
X551688D01*
X552958Y1034021D01*
Y1031482D01*
X551688Y1030212D01*
X546610D01*
X149098Y732026D02*
Y725678D01*
X150368Y724408D01*
X152907D01*
X154176Y725678D01*
Y732026D01*
X161794D02*
X159255Y730756D01*
X156715Y728217D01*
Y725678D01*
X157985Y724408D01*
X160524D01*
X161794Y725678D01*
Y726947D01*
X160524Y728217D01*
X156715D01*
X149098Y837436D02*
Y831088D01*
X150368Y829818D01*
X152907D01*
X154176Y831088D01*
Y837436D01*
X161794D02*
X156715D01*
Y833627D01*
X159255Y834896D01*
X160524D01*
X161794Y833627D01*
Y831088D01*
X160524Y829818D01*
X157985D01*
X156715Y831088D01*
X1259332Y808480D02*
Y802132D01*
X1260602Y800862D01*
X1263141D01*
X1264410Y802132D01*
Y808480D01*
X1270758Y800862D02*
Y808480D01*
X1266949Y804671D01*
X1272028D01*
X1259332Y913889D02*
Y907542D01*
X1260602Y906272D01*
X1263141D01*
X1264410Y907542D01*
Y913889D01*
X1266949Y912620D02*
X1268219Y913889D01*
X1270758D01*
X1272028Y912620D01*
Y911350D01*
X1270758Y910081D01*
X1269489D01*
X1270758D01*
X1272028Y908811D01*
Y907542D01*
X1270758Y906272D01*
X1268219D01*
X1266949Y907542D01*
X149098Y625345D02*
Y618998D01*
X150368Y617728D01*
X152907D01*
X154176Y618998D01*
Y625345D01*
X161794Y617728D02*
X156715D01*
X161794Y622806D01*
Y624076D01*
X160524Y625345D01*
X157985D01*
X156715Y624076D01*
X1261872Y703070D02*
Y696722D01*
X1263142Y695452D01*
X1265681D01*
X1266950Y696722D01*
Y703070D01*
X1269490Y695452D02*
X1272029D01*
X1270759D01*
Y703070D01*
X1269490Y701800D01*
X622677Y1111932D02*
Y1119550D01*
X626486D01*
X627756Y1118280D01*
Y1115741D01*
X626486Y1114472D01*
X622677D01*
X625216D02*
X627756Y1111932D01*
X630295D02*
X632834D01*
X631564D01*
Y1119550D01*
X630295Y1118280D01*
X636643D02*
X637912Y1119550D01*
X640452D01*
X641721Y1118280D01*
Y1117011D01*
X640452Y1115741D01*
X639182D01*
X640452D01*
X641721Y1114472D01*
Y1113202D01*
X640452Y1111932D01*
X637912D01*
X636643Y1113202D01*
X644260Y1110663D02*
X649339D01*
X651878Y1117011D02*
X656956Y1111932D01*
X654417Y1114472D01*
X656956Y1117011D01*
X651878Y1111932D01*
X659495Y1118280D02*
X660765Y1119550D01*
X663304D01*
X664574Y1118280D01*
Y1113202D01*
X663304Y1111932D01*
X660765D01*
X659495Y1113202D01*
Y1118280D01*
X577222Y1228726D02*
Y1236344D01*
X581031D01*
X582300Y1235074D01*
Y1232535D01*
X581031Y1231265D01*
X577222D01*
X579761D02*
X582300Y1228726D01*
X584839D02*
X587379D01*
X586109D01*
Y1236344D01*
X584839Y1235074D01*
X596266Y1228726D02*
X591187D01*
X596266Y1233804D01*
Y1235074D01*
X594996Y1236344D01*
X592457D01*
X591187Y1235074D01*
X598805Y1227456D02*
X603883D01*
X606422Y1233804D02*
X611501Y1228726D01*
X608961Y1231265D01*
X611501Y1233804D01*
X606422Y1228726D01*
X614040Y1235074D02*
X615309Y1236344D01*
X617849D01*
X619118Y1235074D01*
Y1229996D01*
X617849Y1228726D01*
X615309D01*
X614040Y1229996D01*
Y1235074D01*
X693928Y1058672D02*
Y1066290D01*
X697737D01*
X699006Y1065020D01*
Y1062481D01*
X697737Y1061211D01*
X693928D01*
X696467D02*
X699006Y1058672D01*
X701545D02*
X704085D01*
X702815D01*
Y1066290D01*
X701545Y1065020D01*
X707894Y1058672D02*
X710433D01*
X709163D01*
Y1066290D01*
X707894Y1065020D01*
X714241Y1057402D02*
X719320D01*
X721859Y1063750D02*
X726937Y1058672D01*
X724398Y1061211D01*
X726937Y1063750D01*
X721859Y1058672D01*
X729476Y1065020D02*
X730746Y1066290D01*
X733285D01*
X734555Y1065020D01*
Y1059942D01*
X733285Y1058672D01*
X730746D01*
X729476Y1059942D01*
Y1065020D01*
X720344Y1129538D02*
Y1137156D01*
X724153D01*
X725422Y1135886D01*
Y1133347D01*
X724153Y1132077D01*
X720344D01*
X722883D02*
X725422Y1129538D01*
X727962D02*
X730501D01*
X729231D01*
Y1137156D01*
X727962Y1135886D01*
X734309D02*
X735579Y1137156D01*
X738118D01*
X739388Y1135886D01*
Y1130808D01*
X738118Y1129538D01*
X735579D01*
X734309Y1130808D01*
Y1135886D01*
X741927Y1128268D02*
X747005D01*
X749545Y1134616D02*
X754623Y1129538D01*
X752084Y1132077D01*
X754623Y1134616D01*
X749545Y1129538D01*
X757162Y1135886D02*
X758432Y1137156D01*
X760971D01*
X762240Y1135886D01*
Y1130808D01*
X760971Y1129538D01*
X758432D01*
X757162Y1130808D01*
Y1135886D01*
X711206Y1033146D02*
Y1040764D01*
X715014D01*
X716284Y1039494D01*
Y1036955D01*
X715014Y1035685D01*
X711206D01*
X713745D02*
X716284Y1033146D01*
X718823Y1034416D02*
X720093Y1033146D01*
X722632D01*
X723902Y1034416D01*
Y1039494D01*
X722632Y1040764D01*
X720093D01*
X718823Y1039494D01*
Y1038224D01*
X720093Y1036955D01*
X723902D01*
X726441Y1031876D02*
X731519D01*
X734058Y1038224D02*
X739137Y1033146D01*
X736598Y1035685D01*
X739137Y1038224D01*
X734058Y1033146D01*
X741676Y1039494D02*
X742945Y1040764D01*
X745485D01*
X746754Y1039494D01*
Y1034416D01*
X745485Y1033146D01*
X742945D01*
X741676Y1034416D01*
Y1039494D01*
X645922Y1429512D02*
Y1437130D01*
X649731D01*
X651000Y1435860D01*
Y1433321D01*
X649731Y1432051D01*
X645922D01*
X648461D02*
X651000Y1429512D01*
X653540Y1435860D02*
X654809Y1437130D01*
X657348D01*
X658618Y1435860D01*
Y1434590D01*
X657348Y1433321D01*
X658618Y1432051D01*
Y1430782D01*
X657348Y1429512D01*
X654809D01*
X653540Y1430782D01*
Y1432051D01*
X654809Y1433321D01*
X653540Y1434590D01*
Y1435860D01*
X654809Y1433321D02*
X657348D01*
X661157Y1428242D02*
X666235D01*
X668775Y1434590D02*
X673853Y1429512D01*
X671314Y1432051D01*
X673853Y1434590D01*
X668775Y1429512D01*
X676392Y1435860D02*
X677662Y1437130D01*
X680201D01*
X681470Y1435860D01*
Y1430782D01*
X680201Y1429512D01*
X677662D01*
X676392Y1430782D01*
Y1435860D01*
X720344Y1156208D02*
Y1163826D01*
X724153D01*
X725422Y1162556D01*
Y1160017D01*
X724153Y1158747D01*
X720344D01*
X722883D02*
X725422Y1156208D01*
X727962Y1163826D02*
X733040D01*
Y1162556D01*
X727962Y1157478D01*
Y1156208D01*
X735579Y1154938D02*
X740657D01*
X743197Y1161286D02*
X748275Y1156208D01*
X745736Y1158747D01*
X748275Y1161286D01*
X743197Y1156208D01*
X750814Y1162556D02*
X752084Y1163826D01*
X754623D01*
X755892Y1162556D01*
Y1157478D01*
X754623Y1156208D01*
X752084D01*
X750814Y1157478D01*
Y1162556D01*
X635508Y1407922D02*
Y1415540D01*
X639317D01*
X640586Y1414270D01*
Y1411731D01*
X639317Y1410461D01*
X635508D01*
X638047D02*
X640586Y1407922D01*
X648204Y1415540D02*
X645665Y1414270D01*
X643126Y1411731D01*
Y1409192D01*
X644395Y1407922D01*
X646934D01*
X648204Y1409192D01*
Y1410461D01*
X646934Y1411731D01*
X643126D01*
X650743Y1406652D02*
X655821D01*
X658361Y1413000D02*
X663439Y1407922D01*
X660900Y1410461D01*
X663439Y1413000D01*
X658361Y1407922D01*
X665978Y1414270D02*
X667248Y1415540D01*
X669787D01*
X671057Y1414270D01*
Y1409192D01*
X669787Y1407922D01*
X667248D01*
X665978Y1409192D01*
Y1414270D01*
X577088Y999236D02*
X569470D01*
Y1003045D01*
X570740Y1004314D01*
X573279D01*
X574549Y1003045D01*
Y999236D01*
Y1001775D02*
X577088Y1004314D01*
X569470Y1011932D02*
Y1006853D01*
X573279D01*
X572010Y1009393D01*
Y1010662D01*
X573279Y1011932D01*
X575818D01*
X577088Y1010662D01*
Y1008123D01*
X575818Y1006853D01*
X578358Y1014471D02*
Y1019549D01*
X572010Y1022089D02*
X577088Y1027167D01*
X574549Y1024628D01*
X572010Y1027167D01*
X577088Y1022089D01*
X570740Y1029706D02*
X569470Y1030976D01*
Y1033515D01*
X570740Y1034784D01*
X575818D01*
X577088Y1033515D01*
Y1030976D01*
X575818Y1029706D01*
X570740D01*
X720344Y1182878D02*
Y1190496D01*
X724153D01*
X725422Y1189226D01*
Y1186687D01*
X724153Y1185417D01*
X720344D01*
X722883D02*
X725422Y1182878D01*
X731770D02*
Y1190496D01*
X727962Y1186687D01*
X733040D01*
X735579Y1181608D02*
X740657D01*
X743197Y1187956D02*
X748275Y1182878D01*
X745736Y1185417D01*
X748275Y1187956D01*
X743197Y1182878D01*
X750814Y1189226D02*
X752084Y1190496D01*
X754623D01*
X755892Y1189226D01*
Y1184148D01*
X754623Y1182878D01*
X752084D01*
X750814Y1184148D01*
Y1189226D01*
X603758Y999236D02*
X596141D01*
Y1003045D01*
X597410Y1004314D01*
X599949D01*
X601219Y1003045D01*
Y999236D01*
Y1001775D02*
X603758Y1004314D01*
X597410Y1006853D02*
X596141Y1008123D01*
Y1010662D01*
X597410Y1011932D01*
X598680D01*
X599949Y1010662D01*
Y1009393D01*
Y1010662D01*
X601219Y1011932D01*
X602488D01*
X603758Y1010662D01*
Y1008123D01*
X602488Y1006853D01*
X605028Y1014471D02*
Y1019549D01*
X598680Y1022089D02*
X603758Y1027167D01*
X601219Y1024628D01*
X598680Y1027167D01*
X603758Y1022089D01*
X597410Y1029706D02*
X596141Y1030976D01*
Y1033515D01*
X597410Y1034784D01*
X602488D01*
X603758Y1033515D01*
Y1030976D01*
X602488Y1029706D01*
X597410D01*
X558292Y1283462D02*
Y1291080D01*
X562101D01*
X563370Y1289810D01*
Y1287271D01*
X562101Y1286001D01*
X558292D01*
X560831D02*
X563370Y1283462D01*
X570988D02*
X565910D01*
X570988Y1288540D01*
Y1289810D01*
X569718Y1291080D01*
X567179D01*
X565910Y1289810D01*
X573527Y1282192D02*
X578605D01*
X581145Y1288540D02*
X586223Y1283462D01*
X583684Y1286001D01*
X586223Y1288540D01*
X581145Y1283462D01*
X588762Y1289810D02*
X590032Y1291080D01*
X592571D01*
X593840Y1289810D01*
Y1284732D01*
X592571Y1283462D01*
X590032D01*
X588762Y1284732D01*
Y1289810D01*
X1091184Y1741678D02*
Y1749296D01*
X1094993D01*
X1096262Y1748026D01*
Y1745487D01*
X1094993Y1744217D01*
X1091184D01*
X1093723D02*
X1096262Y1741678D01*
X1098801D02*
X1101341D01*
X1100071D01*
Y1749296D01*
X1098801Y1748026D01*
X963930Y1090165D02*
X966469D01*
X965200D01*
Y1082548D01*
X963930D01*
X966469D01*
X975356Y1088896D02*
X974087Y1090165D01*
X971547D01*
X970278Y1088896D01*
Y1083818D01*
X971547Y1082548D01*
X974087D01*
X975356Y1083818D01*
X977896Y1082548D02*
X980435D01*
X979165D01*
Y1090165D01*
X977896Y1088896D01*
X984243D02*
X985513Y1090165D01*
X988052D01*
X989322Y1088896D01*
Y1087626D01*
X988052Y1086357D01*
X986783D01*
X988052D01*
X989322Y1085087D01*
Y1083818D01*
X988052Y1082548D01*
X985513D01*
X984243Y1083818D01*
X991861Y1081278D02*
X996939D01*
X999479Y1087626D02*
X1004557Y1082548D01*
X1002018Y1085087D01*
X1004557Y1087626D01*
X999479Y1082548D01*
X1007096Y1088896D02*
X1008366Y1090165D01*
X1010905D01*
X1012174Y1088896D01*
Y1083818D01*
X1010905Y1082548D01*
X1008366D01*
X1007096Y1083818D01*
Y1088896D01*
X770639Y1485646D02*
Y1488185D01*
Y1486916D01*
X778256D01*
Y1485646D01*
Y1488185D01*
X771908Y1497072D02*
X770639Y1495803D01*
Y1493264D01*
X771908Y1491994D01*
X776986D01*
X778256Y1493264D01*
Y1495803D01*
X776986Y1497072D01*
X778256Y1499612D02*
Y1502151D01*
Y1500881D01*
X770639D01*
X771908Y1499612D01*
X778256Y1511038D02*
Y1505959D01*
X773178Y1511038D01*
X771908D01*
X770639Y1509768D01*
Y1507229D01*
X771908Y1505959D01*
X779526Y1513577D02*
Y1518655D01*
X773178Y1521194D02*
X778256Y1526273D01*
X775717Y1523734D01*
X773178Y1526273D01*
X778256Y1521194D01*
X771908Y1528812D02*
X770639Y1530082D01*
Y1532621D01*
X771908Y1533890D01*
X776986D01*
X778256Y1532621D01*
Y1530082D01*
X776986Y1528812D01*
X771908D01*
X599948Y868932D02*
X602487D01*
X601218D01*
Y861314D01*
X599948D01*
X602487D01*
X611374Y867662D02*
X610105Y868932D01*
X607565D01*
X606296Y867662D01*
Y862584D01*
X607565Y861314D01*
X610105D01*
X611374Y862584D01*
X613913Y861314D02*
X616453D01*
X615183D01*
Y868932D01*
X613913Y867662D01*
X620261Y861314D02*
X622801D01*
X621531D01*
Y868932D01*
X620261Y867662D01*
X626609Y860044D02*
X631688D01*
X634227Y866392D02*
X639305Y861314D01*
X636766Y863853D01*
X639305Y866392D01*
X634227Y861314D01*
X641844Y867662D02*
X643114Y868932D01*
X645653D01*
X646923Y867662D01*
Y862584D01*
X645653Y861314D01*
X643114D01*
X641844Y862584D01*
Y867662D01*
X646938Y907031D02*
X649477D01*
X648208D01*
Y899414D01*
X646938D01*
X649477D01*
X658364Y905762D02*
X657095Y907031D01*
X654556D01*
X653286Y905762D01*
Y900684D01*
X654556Y899414D01*
X657095D01*
X658364Y900684D01*
X660903Y899414D02*
X663443D01*
X662173D01*
Y907031D01*
X660903Y905762D01*
X667251D02*
X668521Y907031D01*
X671060D01*
X672330Y905762D01*
Y900684D01*
X671060Y899414D01*
X668521D01*
X667251Y900684D01*
Y905762D01*
X674869Y898144D02*
X679947D01*
X682486Y904492D02*
X687565Y899414D01*
X685026Y901953D01*
X687565Y904492D01*
X682486Y899414D01*
X690104Y905762D02*
X691374Y907031D01*
X693913D01*
X695182Y905762D01*
Y900684D01*
X693913Y899414D01*
X691374D01*
X690104Y900684D01*
Y905762D01*
X770639Y1363726D02*
Y1366265D01*
Y1364996D01*
X778256D01*
Y1363726D01*
Y1366265D01*
X771908Y1375152D02*
X770639Y1373883D01*
Y1371344D01*
X771908Y1370074D01*
X776986D01*
X778256Y1371344D01*
Y1373883D01*
X776986Y1375152D01*
Y1377691D02*
X778256Y1378961D01*
Y1381500D01*
X776986Y1382770D01*
X771908D01*
X770639Y1381500D01*
Y1378961D01*
X771908Y1377691D01*
X773178D01*
X774447Y1378961D01*
Y1382770D01*
X779526Y1385309D02*
Y1390387D01*
X773178Y1392927D02*
X778256Y1398005D01*
X775717Y1395466D01*
X773178Y1398005D01*
X778256Y1392927D01*
X771908Y1400544D02*
X770639Y1401814D01*
Y1404353D01*
X771908Y1405622D01*
X776986D01*
X778256Y1404353D01*
Y1401814D01*
X776986Y1400544D01*
X771908D01*
X916940Y1008885D02*
X919479D01*
X918210D01*
Y1001268D01*
X916940D01*
X919479D01*
X928366Y1007616D02*
X927097Y1008885D01*
X924557D01*
X923288Y1007616D01*
Y1002538D01*
X924557Y1001268D01*
X927097D01*
X928366Y1002538D01*
X930906Y1007616D02*
X932175Y1008885D01*
X934714D01*
X935984Y1007616D01*
Y1006346D01*
X934714Y1005077D01*
X935984Y1003807D01*
Y1002538D01*
X934714Y1001268D01*
X932175D01*
X930906Y1002538D01*
Y1003807D01*
X932175Y1005077D01*
X930906Y1006346D01*
Y1007616D01*
X932175Y1005077D02*
X934714D01*
X938523Y999998D02*
X943601D01*
X946141Y1006346D02*
X951219Y1001268D01*
X948680Y1003807D01*
X951219Y1006346D01*
X946141Y1001268D01*
X953758Y1007616D02*
X955028Y1008885D01*
X957567D01*
X958836Y1007616D01*
Y1002538D01*
X957567Y1001268D01*
X955028D01*
X953758Y1002538D01*
Y1007616D01*
X770639Y1424686D02*
Y1427225D01*
Y1425956D01*
X778256D01*
Y1424686D01*
Y1427225D01*
X771908Y1436112D02*
X770639Y1434843D01*
Y1432303D01*
X771908Y1431034D01*
X776986D01*
X778256Y1432303D01*
Y1434843D01*
X776986Y1436112D01*
X770639Y1438651D02*
Y1443730D01*
X771908D01*
X776986Y1438651D01*
X778256D01*
X779526Y1446269D02*
Y1451347D01*
X773178Y1453887D02*
X778256Y1458965D01*
X775717Y1456426D01*
X773178Y1458965D01*
X778256Y1453887D01*
X771908Y1461504D02*
X770639Y1462774D01*
Y1465313D01*
X771908Y1466582D01*
X776986D01*
X778256Y1465313D01*
Y1462774D01*
X776986Y1461504D01*
X771908D01*
X704344Y971550D02*
Y974089D01*
Y972820D01*
X711962D01*
Y971550D01*
Y974089D01*
X705614Y982976D02*
X704344Y981707D01*
Y979167D01*
X705614Y977898D01*
X710692D01*
X711962Y979167D01*
Y981707D01*
X710692Y982976D01*
X704344Y990594D02*
X705614Y988055D01*
X708153Y985516D01*
X710692D01*
X711962Y986785D01*
Y989324D01*
X710692Y990594D01*
X709423D01*
X708153Y989324D01*
Y985516D01*
X713232Y993133D02*
Y998211D01*
X706884Y1000751D02*
X711962Y1005829D01*
X709423Y1003290D01*
X706884Y1005829D01*
X711962Y1000751D01*
X705614Y1008368D02*
X704344Y1009638D01*
Y1012177D01*
X705614Y1013446D01*
X710692D01*
X711962Y1012177D01*
Y1009638D01*
X710692Y1008368D01*
X705614D01*
X586235Y1342390D02*
Y1344929D01*
Y1343660D01*
X593852D01*
Y1342390D01*
Y1344929D01*
X587504Y1353816D02*
X586235Y1352547D01*
Y1350007D01*
X587504Y1348738D01*
X592582D01*
X593852Y1350007D01*
Y1352547D01*
X592582Y1353816D01*
X586235Y1361434D02*
Y1356355D01*
X590043D01*
X588774Y1358895D01*
Y1360164D01*
X590043Y1361434D01*
X592582D01*
X593852Y1360164D01*
Y1357625D01*
X592582Y1356355D01*
X595122Y1363973D02*
Y1369051D01*
X588774Y1371591D02*
X593852Y1376669D01*
X591313Y1374130D01*
X588774Y1376669D01*
X593852Y1371591D01*
X587504Y1379208D02*
X586235Y1380478D01*
Y1383017D01*
X587504Y1384286D01*
X592582D01*
X593852Y1383017D01*
Y1380478D01*
X592582Y1379208D01*
X587504D01*
X171450Y442466D02*
X173989D01*
X172720D01*
Y434848D01*
X171450D01*
X173989D01*
X182876Y441196D02*
X181607Y442466D01*
X179067D01*
X177798Y441196D01*
Y436118D01*
X179067Y434848D01*
X181607D01*
X182876Y436118D01*
X189224Y434848D02*
Y442466D01*
X185415Y438657D01*
X190494D01*
X171450Y1218436D02*
X173989D01*
X172720D01*
Y1210818D01*
X171450D01*
X173989D01*
X182876Y1217166D02*
X181607Y1218436D01*
X179067D01*
X177798Y1217166D01*
Y1212088D01*
X179067Y1210818D01*
X181607D01*
X182876Y1212088D01*
X185415Y1217166D02*
X186685Y1218436D01*
X189224D01*
X190494Y1217166D01*
Y1215896D01*
X189224Y1214627D01*
X187955D01*
X189224D01*
X190494Y1213357D01*
Y1212088D01*
X189224Y1210818D01*
X186685D01*
X185415Y1212088D01*
X1173480Y513586D02*
X1176019D01*
X1174750D01*
Y505968D01*
X1173480D01*
X1176019D01*
X1184906Y512316D02*
X1183637Y513586D01*
X1181097D01*
X1179828Y512316D01*
Y507238D01*
X1181097Y505968D01*
X1183637D01*
X1184906Y507238D01*
X1192524Y505968D02*
X1187446D01*
X1192524Y511046D01*
Y512316D01*
X1191254Y513586D01*
X1188715D01*
X1187446Y512316D01*
X1173480Y1269236D02*
X1176019D01*
X1174750D01*
Y1261618D01*
X1173480D01*
X1176019D01*
X1184906Y1267966D02*
X1183637Y1269236D01*
X1181097D01*
X1179828Y1267966D01*
Y1262888D01*
X1181097Y1261618D01*
X1183637D01*
X1184906Y1262888D01*
X1187446Y1261618D02*
X1189985D01*
X1188715D01*
Y1269236D01*
X1187446Y1267966D01*
X522310Y1254082D02*
X521464Y1253235D01*
Y1251542D01*
X522310Y1250696D01*
X525696D01*
X526542Y1251542D01*
Y1253235D01*
X525696Y1254082D01*
X521464Y1259160D02*
Y1255774D01*
X524003D01*
X523156Y1257467D01*
Y1258314D01*
X524003Y1259160D01*
X525696D01*
X526542Y1258314D01*
Y1256621D01*
X525696Y1255774D01*
Y1260853D02*
X526542Y1261699D01*
Y1263392D01*
X525696Y1264238D01*
X522310D01*
X521464Y1263392D01*
Y1261699D01*
X522310Y1260853D01*
X523156D01*
X524003Y1261699D01*
Y1264238D01*
X527388Y1265931D02*
Y1269317D01*
X523156Y1271009D02*
X526542Y1274395D01*
X524849Y1272702D01*
X523156Y1274395D01*
X526542Y1271009D01*
X522310Y1276088D02*
X521464Y1276934D01*
Y1278627D01*
X522310Y1279473D01*
X525696D01*
X526542Y1278627D01*
Y1276934D01*
X525696Y1276088D01*
X522310D01*
X391412Y1217420D02*
X390143Y1218689D01*
X387604D01*
X386334Y1217420D01*
Y1212342D01*
X387604Y1211072D01*
X390143D01*
X391412Y1212342D01*
X399030Y1218689D02*
X393951D01*
Y1214881D01*
X396491Y1216150D01*
X397760D01*
X399030Y1214881D01*
Y1212342D01*
X397760Y1211072D01*
X395221D01*
X393951Y1212342D01*
X401569Y1217420D02*
X402839Y1218689D01*
X405378D01*
X406647Y1217420D01*
Y1216150D01*
X405378Y1214881D01*
X406647Y1213611D01*
Y1212342D01*
X405378Y1211072D01*
X402839D01*
X401569Y1212342D01*
Y1213611D01*
X402839Y1214881D01*
X401569Y1216150D01*
Y1217420D01*
X402839Y1214881D02*
X405378D01*
X409187Y1209802D02*
X414265D01*
X416804Y1216150D02*
X421883Y1211072D01*
X419343Y1213611D01*
X421883Y1216150D01*
X416804Y1211072D01*
X424422Y1217420D02*
X425691Y1218689D01*
X428231D01*
X429500Y1217420D01*
Y1212342D01*
X428231Y1211072D01*
X425691D01*
X424422Y1212342D01*
Y1217420D01*
X391412Y1195830D02*
X390143Y1197100D01*
X387604D01*
X386334Y1195830D01*
Y1190752D01*
X387604Y1189482D01*
X390143D01*
X391412Y1190752D01*
X399030Y1197100D02*
X393951D01*
Y1193291D01*
X396491Y1194560D01*
X397760D01*
X399030Y1193291D01*
Y1190752D01*
X397760Y1189482D01*
X395221D01*
X393951Y1190752D01*
X401569Y1197100D02*
X406647D01*
Y1195830D01*
X401569Y1190752D01*
Y1189482D01*
X409187Y1188212D02*
X414265D01*
X416804Y1194560D02*
X421883Y1189482D01*
X419343Y1192021D01*
X421883Y1194560D01*
X416804Y1189482D01*
X424422Y1195830D02*
X425691Y1197100D01*
X428231D01*
X429500Y1195830D01*
Y1190752D01*
X428231Y1189482D01*
X425691D01*
X424422Y1190752D01*
Y1195830D01*
X391412Y1174240D02*
X390143Y1175509D01*
X387604D01*
X386334Y1174240D01*
Y1169162D01*
X387604Y1167892D01*
X390143D01*
X391412Y1169162D01*
X399030Y1175509D02*
X393951D01*
Y1171701D01*
X396491Y1172970D01*
X397760D01*
X399030Y1171701D01*
Y1169162D01*
X397760Y1167892D01*
X395221D01*
X393951Y1169162D01*
X406647Y1175509D02*
X404108Y1174240D01*
X401569Y1171701D01*
Y1169162D01*
X402839Y1167892D01*
X405378D01*
X406647Y1169162D01*
Y1170431D01*
X405378Y1171701D01*
X401569D01*
X409187Y1166622D02*
X414265D01*
X416804Y1172970D02*
X421883Y1167892D01*
X419343Y1170431D01*
X421883Y1172970D01*
X416804Y1167892D01*
X424422Y1174240D02*
X425691Y1175509D01*
X428231D01*
X429500Y1174240D01*
Y1169162D01*
X428231Y1167892D01*
X425691D01*
X424422Y1169162D01*
Y1174240D01*
X525020Y997202D02*
X523750Y995933D01*
Y993394D01*
X525020Y992124D01*
X530098D01*
X531368Y993394D01*
Y995933D01*
X530098Y997202D01*
X523750Y1004820D02*
Y999742D01*
X527559D01*
X526290Y1002281D01*
Y1003550D01*
X527559Y1004820D01*
X530098D01*
X531368Y1003550D01*
Y1001011D01*
X530098Y999742D01*
X523750Y1012437D02*
Y1007359D01*
X527559D01*
X526290Y1009898D01*
Y1011168D01*
X527559Y1012437D01*
X530098D01*
X531368Y1011168D01*
Y1008629D01*
X530098Y1007359D01*
X532638Y1014977D02*
Y1020055D01*
X526290Y1022594D02*
X531368Y1027673D01*
X528829Y1025133D01*
X526290Y1027673D01*
X531368Y1022594D01*
X525020Y1030212D02*
X523750Y1031481D01*
Y1034020D01*
X525020Y1035290D01*
X530098D01*
X531368Y1034020D01*
Y1031481D01*
X530098Y1030212D01*
X525020D01*
X649984Y1169160D02*
X648715Y1170430D01*
X646176D01*
X644906Y1169160D01*
Y1164082D01*
X646176Y1162812D01*
X648715D01*
X649984Y1164082D01*
X657602Y1170430D02*
X655063Y1169160D01*
X652523Y1166621D01*
Y1164082D01*
X653793Y1162812D01*
X656332D01*
X657602Y1164082D01*
Y1165351D01*
X656332Y1166621D01*
X652523D01*
X660141Y1169160D02*
X661411Y1170430D01*
X663950D01*
X665219Y1169160D01*
Y1164082D01*
X663950Y1162812D01*
X661411D01*
X660141Y1164082D01*
Y1169160D01*
X667759Y1161542D02*
X672837D01*
X675376Y1167890D02*
X680454Y1162812D01*
X677915Y1165351D01*
X680454Y1167890D01*
X675376Y1162812D01*
X682994Y1169160D02*
X684263Y1170430D01*
X686803D01*
X688072Y1169160D01*
Y1164082D01*
X686803Y1162812D01*
X684263D01*
X682994Y1164082D01*
Y1169160D01*
X478030Y1255774D02*
X476760Y1254505D01*
Y1251966D01*
X478030Y1250696D01*
X483108D01*
X484378Y1251966D01*
Y1254505D01*
X483108Y1255774D01*
X476760Y1263392D02*
Y1258314D01*
X480569D01*
X479300Y1260853D01*
Y1262122D01*
X480569Y1263392D01*
X483108D01*
X484378Y1262122D01*
Y1259583D01*
X483108Y1258314D01*
X484378Y1269740D02*
X476760D01*
X480569Y1265931D01*
Y1271009D01*
X485648Y1273549D02*
Y1278627D01*
X479300Y1281166D02*
X484378Y1286245D01*
X481839Y1283705D01*
X479300Y1286245D01*
X484378Y1281166D01*
X478030Y1288784D02*
X476760Y1290053D01*
Y1292592D01*
X478030Y1293862D01*
X483108D01*
X484378Y1292592D01*
Y1290053D01*
X483108Y1288784D01*
X478030D01*
X481840Y997202D02*
X480570Y995933D01*
Y993394D01*
X481840Y992124D01*
X486918D01*
X488188Y993394D01*
Y995933D01*
X486918Y997202D01*
X480570Y1004820D02*
Y999742D01*
X484379D01*
X483110Y1002281D01*
Y1003550D01*
X484379Y1004820D01*
X486918D01*
X488188Y1003550D01*
Y1001011D01*
X486918Y999742D01*
X481840Y1007359D02*
X480570Y1008629D01*
Y1011168D01*
X481840Y1012437D01*
X483110D01*
X484379Y1011168D01*
Y1009898D01*
Y1011168D01*
X485649Y1012437D01*
X486918D01*
X488188Y1011168D01*
Y1008629D01*
X486918Y1007359D01*
X489458Y1014977D02*
Y1020055D01*
X483110Y1022594D02*
X488188Y1027673D01*
X485649Y1025133D01*
X483110Y1027673D01*
X488188Y1022594D01*
X481840Y1030212D02*
X480570Y1031481D01*
Y1034020D01*
X481840Y1035290D01*
X486918D01*
X488188Y1034020D01*
Y1031481D01*
X486918Y1030212D01*
X481840D01*
X391412Y1131060D02*
X390143Y1132329D01*
X387604D01*
X386334Y1131060D01*
Y1125982D01*
X387604Y1124712D01*
X390143D01*
X391412Y1125982D01*
X399030Y1132329D02*
X393951D01*
Y1128521D01*
X396491Y1129790D01*
X397760D01*
X399030Y1128521D01*
Y1125982D01*
X397760Y1124712D01*
X395221D01*
X393951Y1125982D01*
X406647Y1124712D02*
X401569D01*
X406647Y1129790D01*
Y1131060D01*
X405378Y1132329D01*
X402839D01*
X401569Y1131060D01*
X409187Y1123442D02*
X414265D01*
X416804Y1129790D02*
X421883Y1124712D01*
X419343Y1127251D01*
X421883Y1129790D01*
X416804Y1124712D01*
X424422Y1131060D02*
X425691Y1132329D01*
X428231D01*
X429500Y1131060D01*
Y1125982D01*
X428231Y1124712D01*
X425691D01*
X424422Y1125982D01*
Y1131060D01*
X964566Y1130940D02*
X963296Y1129671D01*
Y1127131D01*
X964566Y1125862D01*
X969644D01*
X970914Y1127131D01*
Y1129671D01*
X969644Y1130940D01*
X963296Y1138558D02*
Y1133479D01*
X967105D01*
X965836Y1136019D01*
Y1137288D01*
X967105Y1138558D01*
X969644D01*
X970914Y1137288D01*
Y1134749D01*
X969644Y1133479D01*
X970914Y1141097D02*
Y1143636D01*
Y1142366D01*
X963296D01*
X964566Y1141097D01*
X972184Y1147445D02*
Y1152523D01*
X965836Y1155062D02*
X970914Y1160141D01*
X968375Y1157601D01*
X965836Y1160141D01*
X970914Y1155062D01*
X964566Y1162680D02*
X963296Y1163950D01*
Y1166489D01*
X964566Y1167758D01*
X969644D01*
X970914Y1166489D01*
Y1163950D01*
X969644Y1162680D01*
X964566D01*
X649984Y1203450D02*
X648715Y1204719D01*
X646176D01*
X644906Y1203450D01*
Y1198372D01*
X646176Y1197102D01*
X648715D01*
X649984Y1198372D01*
X657602Y1204719D02*
X652523D01*
Y1200911D01*
X655063Y1202180D01*
X656332D01*
X657602Y1200911D01*
Y1198372D01*
X656332Y1197102D01*
X653793D01*
X652523Y1198372D01*
X660141Y1203450D02*
X661411Y1204719D01*
X663950D01*
X665219Y1203450D01*
Y1198372D01*
X663950Y1197102D01*
X661411D01*
X660141Y1198372D01*
Y1203450D01*
X667759Y1195832D02*
X672837D01*
X675376Y1202180D02*
X680454Y1197102D01*
X677915Y1199641D01*
X680454Y1202180D01*
X675376Y1197102D01*
X682994Y1203450D02*
X684263Y1204719D01*
X686803D01*
X688072Y1203450D01*
Y1198372D01*
X686803Y1197102D01*
X684263D01*
X682994Y1198372D01*
Y1203450D01*
X499620Y1255774D02*
X498350Y1254505D01*
Y1251966D01*
X499620Y1250696D01*
X504698D01*
X505968Y1251966D01*
Y1254505D01*
X504698Y1255774D01*
X505968Y1262122D02*
X498350D01*
X502159Y1258314D01*
Y1263392D01*
X504698Y1265931D02*
X505968Y1267201D01*
Y1269740D01*
X504698Y1271009D01*
X499620D01*
X498350Y1269740D01*
Y1267201D01*
X499620Y1265931D01*
X500890D01*
X502159Y1267201D01*
Y1271009D01*
X507238Y1273549D02*
Y1278627D01*
X500890Y1281166D02*
X505968Y1286245D01*
X503429Y1283705D01*
X500890Y1286245D01*
X505968Y1281166D01*
X499620Y1288784D02*
X498350Y1290053D01*
Y1292592D01*
X499620Y1293862D01*
X504698D01*
X505968Y1292592D01*
Y1290053D01*
X504698Y1288784D01*
X499620D01*
X503430Y997202D02*
X502160Y995933D01*
Y993394D01*
X503430Y992124D01*
X508508D01*
X509778Y993394D01*
Y995933D01*
X508508Y997202D01*
X509778Y1003550D02*
X502160D01*
X505969Y999742D01*
Y1004820D01*
X503430Y1007359D02*
X502160Y1008629D01*
Y1011168D01*
X503430Y1012437D01*
X504700D01*
X505969Y1011168D01*
X507239Y1012437D01*
X508508D01*
X509778Y1011168D01*
Y1008629D01*
X508508Y1007359D01*
X507239D01*
X505969Y1008629D01*
X504700Y1007359D01*
X503430D01*
X505969Y1008629D02*
Y1011168D01*
X511048Y1014977D02*
Y1020055D01*
X504700Y1022594D02*
X509778Y1027673D01*
X507239Y1025133D01*
X504700Y1027673D01*
X509778Y1022594D01*
X503430Y1030212D02*
X502160Y1031481D01*
Y1034020D01*
X503430Y1035290D01*
X508508D01*
X509778Y1034020D01*
Y1031481D01*
X508508Y1030212D01*
X503430D01*
X391412Y1109470D02*
X390143Y1110740D01*
X387604D01*
X386334Y1109470D01*
Y1104392D01*
X387604Y1103122D01*
X390143D01*
X391412Y1104392D01*
X397760Y1103122D02*
Y1110740D01*
X393951Y1106931D01*
X399030D01*
X401569Y1110740D02*
X406647D01*
Y1109470D01*
X401569Y1104392D01*
Y1103122D01*
X409187Y1101852D02*
X414265D01*
X416804Y1108200D02*
X421883Y1103122D01*
X419343Y1105661D01*
X421883Y1108200D01*
X416804Y1103122D01*
X424422Y1109470D02*
X425691Y1110740D01*
X428231D01*
X429500Y1109470D01*
Y1104392D01*
X428231Y1103122D01*
X425691D01*
X424422Y1104392D01*
Y1109470D01*
X391412Y1152650D02*
X390143Y1153920D01*
X387604D01*
X386334Y1152650D01*
Y1147572D01*
X387604Y1146302D01*
X390143D01*
X391412Y1147572D01*
X397760Y1146302D02*
Y1153920D01*
X393951Y1150111D01*
X399030D01*
X406647Y1153920D02*
X404108Y1152650D01*
X401569Y1150111D01*
Y1147572D01*
X402839Y1146302D01*
X405378D01*
X406647Y1147572D01*
Y1148841D01*
X405378Y1150111D01*
X401569D01*
X409187Y1145032D02*
X414265D01*
X416804Y1151380D02*
X421883Y1146302D01*
X419343Y1148841D01*
X421883Y1151380D01*
X416804Y1146302D01*
X424422Y1152650D02*
X425691Y1153920D01*
X428231D01*
X429500Y1152650D01*
Y1147572D01*
X428231Y1146302D01*
X425691D01*
X424422Y1147572D01*
Y1152650D01*
X831340Y1531110D02*
X830071Y1532379D01*
X827532D01*
X826262Y1531110D01*
Y1526032D01*
X827532Y1524762D01*
X830071D01*
X831340Y1526032D01*
X837688Y1524762D02*
Y1532379D01*
X833879Y1528571D01*
X838958D01*
X846575Y1532379D02*
X841497D01*
Y1528571D01*
X844036Y1529840D01*
X845306D01*
X846575Y1528571D01*
Y1526032D01*
X845306Y1524762D01*
X842767D01*
X841497Y1526032D01*
X849115Y1523492D02*
X854193D01*
X856732Y1529840D02*
X861811Y1524762D01*
X859271Y1527301D01*
X861811Y1529840D01*
X856732Y1524762D01*
X864350Y1531110D02*
X865619Y1532379D01*
X868158D01*
X869428Y1531110D01*
Y1526032D01*
X868158Y1524762D01*
X865619D01*
X864350Y1526032D01*
Y1531110D01*
X694434Y833880D02*
X693165Y835150D01*
X690626D01*
X689356Y833880D01*
Y828802D01*
X690626Y827532D01*
X693165D01*
X694434Y828802D01*
X700782Y827532D02*
Y835150D01*
X696973Y831341D01*
X702052D01*
X708400Y827532D02*
Y835150D01*
X704591Y831341D01*
X709669D01*
X712209Y826262D02*
X717287D01*
X719826Y832610D02*
X724904Y827532D01*
X722365Y830071D01*
X724904Y832610D01*
X719826Y827532D01*
X727444Y833880D02*
X728713Y835150D01*
X731253D01*
X732522Y833880D01*
Y828802D01*
X731253Y827532D01*
X728713D01*
X727444Y828802D01*
Y833880D01*
X742694Y871980D02*
X741425Y873250D01*
X738886D01*
X737616Y871980D01*
Y866902D01*
X738886Y865632D01*
X741425D01*
X742694Y866902D01*
X749042Y865632D02*
Y873250D01*
X745234Y869441D01*
X750312D01*
X752851Y871980D02*
X754121Y873250D01*
X756660D01*
X757929Y871980D01*
Y870710D01*
X756660Y869441D01*
X755390D01*
X756660D01*
X757929Y868171D01*
Y866902D01*
X756660Y865632D01*
X754121D01*
X752851Y866902D01*
X760469Y864362D02*
X765547D01*
X768086Y870710D02*
X773165Y865632D01*
X770625Y868171D01*
X773165Y870710D01*
X768086Y865632D01*
X775704Y871980D02*
X776973Y873250D01*
X779512D01*
X780782Y871980D01*
Y866902D01*
X779512Y865632D01*
X776973D01*
X775704Y866902D01*
Y871980D01*
X1018284Y935480D02*
X1017015Y936749D01*
X1014476D01*
X1013206Y935480D01*
Y930402D01*
X1014476Y929132D01*
X1017015D01*
X1018284Y930402D01*
X1024632Y929132D02*
Y936749D01*
X1020824Y932941D01*
X1025902D01*
X1033519Y929132D02*
X1028441D01*
X1033519Y934210D01*
Y935480D01*
X1032250Y936749D01*
X1029711D01*
X1028441Y935480D01*
X1036059Y927862D02*
X1041137D01*
X1043676Y934210D02*
X1048755Y929132D01*
X1046215Y931671D01*
X1048755Y934210D01*
X1043676Y929132D01*
X1051294Y935480D02*
X1052563Y936749D01*
X1055102D01*
X1056372Y935480D01*
Y930402D01*
X1055102Y929132D01*
X1052563D01*
X1051294Y930402D01*
Y935480D01*
X1018284Y957070D02*
X1017015Y958339D01*
X1014476D01*
X1013206Y957070D01*
Y951992D01*
X1014476Y950722D01*
X1017015D01*
X1018284Y951992D01*
X1024632Y950722D02*
Y958339D01*
X1020824Y954531D01*
X1025902D01*
X1028441Y950722D02*
X1030980D01*
X1029711D01*
Y958339D01*
X1028441Y957070D01*
X1034789Y949452D02*
X1039867D01*
X1042407Y955800D02*
X1047485Y950722D01*
X1044946Y953261D01*
X1047485Y955800D01*
X1042407Y950722D01*
X1050024Y957070D02*
X1051294Y958339D01*
X1053833D01*
X1055102Y957070D01*
Y951992D01*
X1053833Y950722D01*
X1051294D01*
X1050024Y951992D01*
Y957070D01*
X1018284Y978660D02*
X1017015Y979930D01*
X1014476D01*
X1013206Y978660D01*
Y973582D01*
X1014476Y972312D01*
X1017015D01*
X1018284Y973582D01*
X1024632Y972312D02*
Y979930D01*
X1020824Y976121D01*
X1025902D01*
X1028441Y978660D02*
X1029711Y979930D01*
X1032250D01*
X1033519Y978660D01*
Y973582D01*
X1032250Y972312D01*
X1029711D01*
X1028441Y973582D01*
Y978660D01*
X1036059Y971042D02*
X1041137D01*
X1043676Y977390D02*
X1048755Y972312D01*
X1046215Y974851D01*
X1048755Y977390D01*
X1043676Y972312D01*
X1051294Y978660D02*
X1052563Y979930D01*
X1055102D01*
X1056372Y978660D01*
Y973582D01*
X1055102Y972312D01*
X1052563D01*
X1051294Y973582D01*
Y978660D01*
X831340Y1409190D02*
X830071Y1410459D01*
X827532D01*
X826262Y1409190D01*
Y1404112D01*
X827532Y1402842D01*
X830071D01*
X831340Y1404112D01*
X833879Y1409190D02*
X835149Y1410459D01*
X837688D01*
X838958Y1409190D01*
Y1407920D01*
X837688Y1406651D01*
X836419D01*
X837688D01*
X838958Y1405381D01*
Y1404112D01*
X837688Y1402842D01*
X835149D01*
X833879Y1404112D01*
X841497D02*
X842767Y1402842D01*
X845306D01*
X846575Y1404112D01*
Y1409190D01*
X845306Y1410459D01*
X842767D01*
X841497Y1409190D01*
Y1407920D01*
X842767Y1406651D01*
X846575D01*
X849115Y1401572D02*
X854193D01*
X856732Y1407920D02*
X861811Y1402842D01*
X859271Y1405381D01*
X861811Y1407920D01*
X856732Y1402842D01*
X864350Y1409190D02*
X865619Y1410459D01*
X868158D01*
X869428Y1409190D01*
Y1404112D01*
X868158Y1402842D01*
X865619D01*
X864350Y1404112D01*
Y1409190D01*
X831340Y1470150D02*
X830071Y1471420D01*
X827532D01*
X826262Y1470150D01*
Y1465072D01*
X827532Y1463802D01*
X830071D01*
X831340Y1465072D01*
X833879Y1470150D02*
X835149Y1471420D01*
X837688D01*
X838958Y1470150D01*
Y1468880D01*
X837688Y1467611D01*
X836419D01*
X837688D01*
X838958Y1466341D01*
Y1465072D01*
X837688Y1463802D01*
X835149D01*
X833879Y1465072D01*
X841497Y1470150D02*
X842767Y1471420D01*
X845306D01*
X846575Y1470150D01*
Y1468880D01*
X845306Y1467611D01*
X846575Y1466341D01*
Y1465072D01*
X845306Y1463802D01*
X842767D01*
X841497Y1465072D01*
Y1466341D01*
X842767Y1467611D01*
X841497Y1468880D01*
Y1470150D01*
X842767Y1467611D02*
X845306D01*
X849115Y1462532D02*
X854193D01*
X856732Y1468880D02*
X861811Y1463802D01*
X859271Y1466341D01*
X861811Y1468880D01*
X856732Y1463802D01*
X864350Y1470150D02*
X865619Y1471420D01*
X868158D01*
X869428Y1470150D01*
Y1465072D01*
X868158Y1463802D01*
X865619D01*
X864350Y1465072D01*
Y1470150D01*
X813310Y963166D02*
X812040Y961897D01*
Y959358D01*
X813310Y958088D01*
X818388D01*
X819658Y959358D01*
Y961897D01*
X818388Y963166D01*
X813310Y965705D02*
X812040Y966975D01*
Y969514D01*
X813310Y970784D01*
X814580D01*
X815849Y969514D01*
Y968245D01*
Y969514D01*
X817119Y970784D01*
X818388D01*
X819658Y969514D01*
Y966975D01*
X818388Y965705D01*
X812040Y973323D02*
Y978401D01*
X813310D01*
X818388Y973323D01*
X819658D01*
X820928Y980941D02*
Y986019D01*
X814580Y988558D02*
X819658Y993636D01*
X817119Y991097D01*
X814580Y993636D01*
X819658Y988558D01*
X813310Y996176D02*
X812040Y997445D01*
Y999985D01*
X813310Y1001254D01*
X818388D01*
X819658Y999985D01*
Y997445D01*
X818388Y996176D01*
X813310D01*
Y1062480D02*
X812040Y1061211D01*
Y1058672D01*
X813310Y1057402D01*
X818388D01*
X819658Y1058672D01*
Y1061211D01*
X818388Y1062480D01*
X813310Y1065020D02*
X812040Y1066289D01*
Y1068828D01*
X813310Y1070098D01*
X814580D01*
X815849Y1068828D01*
Y1067559D01*
Y1068828D01*
X817119Y1070098D01*
X818388D01*
X819658Y1068828D01*
Y1066289D01*
X818388Y1065020D01*
X812040Y1077715D02*
X813310Y1075176D01*
X815849Y1072637D01*
X818388D01*
X819658Y1073907D01*
Y1076446D01*
X818388Y1077715D01*
X817119D01*
X815849Y1076446D01*
Y1072637D01*
X820928Y1080255D02*
Y1085333D01*
X814580Y1087872D02*
X819658Y1092951D01*
X817119Y1090411D01*
X814580Y1092951D01*
X819658Y1087872D01*
X813310Y1095490D02*
X812040Y1096759D01*
Y1099298D01*
X813310Y1100568D01*
X818388D01*
X819658Y1099298D01*
Y1096759D01*
X818388Y1095490D01*
X813310D01*
X785370Y1072894D02*
X784100Y1071625D01*
Y1069086D01*
X785370Y1067816D01*
X790448D01*
X791718Y1069086D01*
Y1071625D01*
X790448Y1072894D01*
X785370Y1075434D02*
X784100Y1076703D01*
Y1079242D01*
X785370Y1080512D01*
X786640D01*
X787909Y1079242D01*
Y1077973D01*
Y1079242D01*
X789179Y1080512D01*
X790448D01*
X791718Y1079242D01*
Y1076703D01*
X790448Y1075434D01*
X784100Y1088129D02*
Y1083051D01*
X787909D01*
X786640Y1085590D01*
Y1086860D01*
X787909Y1088129D01*
X790448D01*
X791718Y1086860D01*
Y1084321D01*
X790448Y1083051D01*
X792988Y1090669D02*
Y1095747D01*
X786640Y1098286D02*
X791718Y1103364D01*
X789179Y1100825D01*
X786640Y1103364D01*
X791718Y1098286D01*
X785370Y1105904D02*
X784100Y1107173D01*
Y1109713D01*
X785370Y1110982D01*
X790448D01*
X791718Y1109713D01*
Y1107173D01*
X790448Y1105904D01*
X785370D01*
X726946Y1392680D02*
X725677Y1393949D01*
X723138D01*
X721868Y1392680D01*
Y1387602D01*
X723138Y1386332D01*
X725677D01*
X726946Y1387602D01*
X729485Y1392680D02*
X730755Y1393949D01*
X733294D01*
X734564Y1392680D01*
Y1391410D01*
X733294Y1390141D01*
X732025D01*
X733294D01*
X734564Y1388871D01*
Y1387602D01*
X733294Y1386332D01*
X730755D01*
X729485Y1387602D01*
X740912Y1386332D02*
Y1393949D01*
X737103Y1390141D01*
X742181D01*
X744721Y1385062D02*
X749799D01*
X752338Y1391410D02*
X757417Y1386332D01*
X754877Y1388871D01*
X757417Y1391410D01*
X752338Y1386332D01*
X759956Y1392680D02*
X761225Y1393949D01*
X763764D01*
X765034Y1392680D01*
Y1387602D01*
X763764Y1386332D01*
X761225D01*
X759956Y1387602D01*
Y1392680D01*
X726946Y1414270D02*
X725677Y1415540D01*
X723138D01*
X721868Y1414270D01*
Y1409192D01*
X723138Y1407922D01*
X725677D01*
X726946Y1409192D01*
X729485Y1414270D02*
X730755Y1415540D01*
X733294D01*
X734564Y1414270D01*
Y1413000D01*
X733294Y1411731D01*
X732025D01*
X733294D01*
X734564Y1410461D01*
Y1409192D01*
X733294Y1407922D01*
X730755D01*
X729485Y1409192D01*
X737103Y1414270D02*
X738373Y1415540D01*
X740912D01*
X742181Y1414270D01*
Y1413000D01*
X740912Y1411731D01*
X739642D01*
X740912D01*
X742181Y1410461D01*
Y1409192D01*
X740912Y1407922D01*
X738373D01*
X737103Y1409192D01*
X744721Y1406652D02*
X749799D01*
X752338Y1413000D02*
X757417Y1407922D01*
X754877Y1410461D01*
X757417Y1413000D01*
X752338Y1407922D01*
X759956Y1414270D02*
X761225Y1415540D01*
X763764D01*
X765034Y1414270D01*
Y1409192D01*
X763764Y1407922D01*
X761225D01*
X759956Y1409192D01*
Y1414270D01*
X726946Y1435860D02*
X725677Y1437130D01*
X723138D01*
X721868Y1435860D01*
Y1430782D01*
X723138Y1429512D01*
X725677D01*
X726946Y1430782D01*
X729485Y1435860D02*
X730755Y1437130D01*
X733294D01*
X734564Y1435860D01*
Y1434590D01*
X733294Y1433321D01*
X732025D01*
X733294D01*
X734564Y1432051D01*
Y1430782D01*
X733294Y1429512D01*
X730755D01*
X729485Y1430782D01*
X742181Y1429512D02*
X737103D01*
X742181Y1434590D01*
Y1435860D01*
X740912Y1437130D01*
X738373D01*
X737103Y1435860D01*
X744721Y1428242D02*
X749799D01*
X752338Y1434590D02*
X757417Y1429512D01*
X754877Y1432051D01*
X757417Y1434590D01*
X752338Y1429512D01*
X759956Y1435860D02*
X761225Y1437130D01*
X763764D01*
X765034Y1435860D01*
Y1430782D01*
X763764Y1429512D01*
X761225D01*
X759956Y1430782D01*
Y1435860D01*
X543900Y1254082D02*
X543054Y1253235D01*
Y1251542D01*
X543900Y1250696D01*
X547286D01*
X548132Y1251542D01*
Y1253235D01*
X547286Y1254082D01*
X543900Y1255774D02*
X543054Y1256621D01*
Y1258314D01*
X543900Y1259160D01*
X544746D01*
X545593Y1258314D01*
Y1257467D01*
Y1258314D01*
X546439Y1259160D01*
X547286D01*
X548132Y1258314D01*
Y1256621D01*
X547286Y1255774D01*
X548132Y1260853D02*
Y1262545D01*
Y1261699D01*
X543054D01*
X543900Y1260853D01*
X548978Y1265085D02*
Y1268470D01*
X544746Y1270163D02*
X548132Y1273549D01*
X546439Y1271856D01*
X544746Y1273549D01*
X548132Y1270163D01*
X543900Y1275241D02*
X543054Y1276088D01*
Y1277781D01*
X543900Y1278627D01*
X547286D01*
X548132Y1277781D01*
Y1276088D01*
X547286Y1275241D01*
X543900D01*
X228602Y315212D02*
X227332Y313943D01*
Y311404D01*
X228602Y310134D01*
X233680D01*
X234950Y311404D01*
Y313943D01*
X233680Y315212D01*
X228602Y317752D02*
X227332Y319021D01*
Y321560D01*
X228602Y322830D01*
X229872D01*
X231141Y321560D01*
Y320291D01*
Y321560D01*
X232411Y322830D01*
X233680D01*
X234950Y321560D01*
Y319021D01*
X233680Y317752D01*
X228602Y325369D02*
X227332Y326639D01*
Y329178D01*
X228602Y330447D01*
X233680D01*
X234950Y329178D01*
Y326639D01*
X233680Y325369D01*
X228602D01*
X207012Y315212D02*
X205742Y313943D01*
Y311404D01*
X207012Y310134D01*
X212090D01*
X213360Y311404D01*
Y313943D01*
X212090Y315212D01*
X213360Y322830D02*
Y317752D01*
X208282Y322830D01*
X207012D01*
X205742Y321560D01*
Y319021D01*
X207012Y317752D01*
X212090Y325369D02*
X213360Y326639D01*
Y329178D01*
X212090Y330447D01*
X207012D01*
X205742Y329178D01*
Y326639D01*
X207012Y325369D01*
X208282D01*
X209551Y326639D01*
Y330447D01*
X185422Y315212D02*
X184153Y313943D01*
Y311404D01*
X185422Y310134D01*
X190500D01*
X191770Y311404D01*
Y313943D01*
X190500Y315212D01*
X191770Y322830D02*
Y317752D01*
X186692Y322830D01*
X185422D01*
X184153Y321560D01*
Y319021D01*
X185422Y317752D01*
Y325369D02*
X184153Y326639D01*
Y329178D01*
X185422Y330447D01*
X186692D01*
X187961Y329178D01*
X189231Y330447D01*
X190500D01*
X191770Y329178D01*
Y326639D01*
X190500Y325369D01*
X189231D01*
X187961Y326639D01*
X186692Y325369D01*
X185422D01*
X187961Y326639D02*
Y329178D01*
X228602Y1091182D02*
X227332Y1089913D01*
Y1087374D01*
X228602Y1086104D01*
X233680D01*
X234950Y1087374D01*
Y1089913D01*
X233680Y1091182D01*
X234950Y1098800D02*
Y1093721D01*
X229872Y1098800D01*
X228602D01*
X227332Y1097530D01*
Y1094991D01*
X228602Y1093721D01*
X227332Y1101339D02*
Y1106417D01*
X228602D01*
X233680Y1101339D01*
X234950D01*
X207012Y1091182D02*
X205742Y1089913D01*
Y1087374D01*
X207012Y1086104D01*
X212090D01*
X213360Y1087374D01*
Y1089913D01*
X212090Y1091182D01*
X213360Y1098800D02*
Y1093721D01*
X208282Y1098800D01*
X207012D01*
X205742Y1097530D01*
Y1094991D01*
X207012Y1093721D01*
X205742Y1106417D02*
X207012Y1103878D01*
X209551Y1101339D01*
X212090D01*
X213360Y1102609D01*
Y1105148D01*
X212090Y1106417D01*
X210821D01*
X209551Y1105148D01*
Y1101339D01*
X185422Y1091182D02*
X184153Y1089913D01*
Y1087374D01*
X185422Y1086104D01*
X190500D01*
X191770Y1087374D01*
Y1089913D01*
X190500Y1091182D01*
X191770Y1098800D02*
Y1093721D01*
X186692Y1098800D01*
X185422D01*
X184153Y1097530D01*
Y1094991D01*
X185422Y1093721D01*
X184153Y1106417D02*
Y1101339D01*
X187961D01*
X186692Y1103878D01*
Y1105148D01*
X187961Y1106417D01*
X190500D01*
X191770Y1105148D01*
Y1102609D01*
X190500Y1101339D01*
X1297684Y535938D02*
X1296415Y537207D01*
X1293876D01*
X1292606Y535938D01*
Y530860D01*
X1293876Y529590D01*
X1296415D01*
X1297684Y530860D01*
X1305302Y529590D02*
X1300224D01*
X1305302Y534668D01*
Y535938D01*
X1304032Y537207D01*
X1301493D01*
X1300224Y535938D01*
X1311650Y529590D02*
Y537207D01*
X1307841Y533399D01*
X1312919D01*
X1297684Y514348D02*
X1296415Y515617D01*
X1293876D01*
X1292606Y514348D01*
Y509270D01*
X1293876Y508000D01*
X1296415D01*
X1297684Y509270D01*
X1305302Y508000D02*
X1300224D01*
X1305302Y513078D01*
Y514348D01*
X1304032Y515617D01*
X1301493D01*
X1300224Y514348D01*
X1307841D02*
X1309111Y515617D01*
X1311650D01*
X1312919Y514348D01*
Y513078D01*
X1311650Y511809D01*
X1310380D01*
X1311650D01*
X1312919Y510539D01*
Y509270D01*
X1311650Y508000D01*
X1309111D01*
X1307841Y509270D01*
X1297684Y492758D02*
X1296415Y494027D01*
X1293876D01*
X1292606Y492758D01*
Y487680D01*
X1293876Y486410D01*
X1296415D01*
X1297684Y487680D01*
X1305302Y486410D02*
X1300224D01*
X1305302Y491488D01*
Y492758D01*
X1304032Y494027D01*
X1301493D01*
X1300224Y492758D01*
X1312919Y486410D02*
X1307841D01*
X1312919Y491488D01*
Y492758D01*
X1311650Y494027D01*
X1309111D01*
X1307841Y492758D01*
X1297684Y1291588D02*
X1296415Y1292858D01*
X1293876D01*
X1292606Y1291588D01*
Y1286510D01*
X1293876Y1285240D01*
X1296415D01*
X1297684Y1286510D01*
X1305302Y1285240D02*
X1300224D01*
X1305302Y1290318D01*
Y1291588D01*
X1304032Y1292858D01*
X1301493D01*
X1300224Y1291588D01*
X1307841Y1285240D02*
X1310380D01*
X1309111D01*
Y1292858D01*
X1307841Y1291588D01*
X1297684Y1269998D02*
X1296415Y1271267D01*
X1293876D01*
X1292606Y1269998D01*
Y1264920D01*
X1293876Y1263650D01*
X1296415D01*
X1297684Y1264920D01*
X1305302Y1263650D02*
X1300224D01*
X1305302Y1268728D01*
Y1269998D01*
X1304032Y1271267D01*
X1301493D01*
X1300224Y1269998D01*
X1307841D02*
X1309111Y1271267D01*
X1311650D01*
X1312919Y1269998D01*
Y1264920D01*
X1311650Y1263650D01*
X1309111D01*
X1307841Y1264920D01*
Y1269998D01*
X1297684Y1248408D02*
X1296415Y1249678D01*
X1293876D01*
X1292606Y1248408D01*
Y1243330D01*
X1293876Y1242060D01*
X1296415D01*
X1297684Y1243330D01*
X1300224Y1242060D02*
X1302763D01*
X1301493D01*
Y1249678D01*
X1300224Y1248408D01*
X1306572Y1243330D02*
X1307841Y1242060D01*
X1310380D01*
X1311650Y1243330D01*
Y1248408D01*
X1310380Y1249678D01*
X1307841D01*
X1306572Y1248408D01*
Y1247138D01*
X1307841Y1245869D01*
X1311650D01*
X197614Y710690D02*
X196345Y709421D01*
Y706882D01*
X197614Y705612D01*
X202692D01*
X203962Y706882D01*
Y709421D01*
X202692Y710690D01*
X203962Y713230D02*
Y715769D01*
Y714499D01*
X196345D01*
X197614Y713230D01*
Y719577D02*
X196345Y720847D01*
Y723386D01*
X197614Y724656D01*
X198884D01*
X200153Y723386D01*
X201423Y724656D01*
X202692D01*
X203962Y723386D01*
Y720847D01*
X202692Y719577D01*
X201423D01*
X200153Y720847D01*
X198884Y719577D01*
X197614D01*
X200153Y720847D02*
Y723386D01*
X197614Y816100D02*
X196345Y814831D01*
Y812292D01*
X197614Y811022D01*
X202692D01*
X203962Y812292D01*
Y814831D01*
X202692Y816100D01*
X203962Y818640D02*
Y821179D01*
Y819909D01*
X196345D01*
X197614Y818640D01*
X196345Y824987D02*
Y830066D01*
X197614D01*
X202692Y824987D01*
X203962D01*
X155450Y794256D02*
X154180Y792987D01*
Y790448D01*
X155450Y789178D01*
X160528D01*
X161798Y790448D01*
Y792987D01*
X160528Y794256D01*
X161798Y796796D02*
Y799335D01*
Y798065D01*
X154180D01*
X155450Y796796D01*
X154180Y808222D02*
X155450Y805683D01*
X157989Y803143D01*
X160528D01*
X161798Y804413D01*
Y806952D01*
X160528Y808222D01*
X159259D01*
X157989Y806952D01*
Y803143D01*
X131316Y738376D02*
X130047Y739645D01*
X127508D01*
X126238Y738376D01*
Y733298D01*
X127508Y732028D01*
X130047D01*
X131316Y733298D01*
X133855Y732028D02*
X136395D01*
X135125D01*
Y739645D01*
X133855Y738376D01*
X145282Y739645D02*
X140204D01*
Y735837D01*
X142743Y737106D01*
X144012D01*
X145282Y735837D01*
Y733298D01*
X144012Y732028D01*
X141473D01*
X140204Y733298D01*
X155450Y899666D02*
X154180Y898397D01*
Y895858D01*
X155450Y894588D01*
X160528D01*
X161798Y895858D01*
Y898397D01*
X160528Y899666D01*
X161798Y902206D02*
Y904745D01*
Y903475D01*
X154180D01*
X155450Y902206D01*
X161798Y912362D02*
X154180D01*
X157989Y908553D01*
Y913632D01*
X131316Y843786D02*
X130047Y845055D01*
X127508D01*
X126238Y843786D01*
Y838708D01*
X127508Y837438D01*
X130047D01*
X131316Y838708D01*
X133855Y837438D02*
X136395D01*
X135125D01*
Y845055D01*
X133855Y843786D01*
X140204D02*
X141473Y845055D01*
X144012D01*
X145282Y843786D01*
Y842516D01*
X144012Y841247D01*
X142743D01*
X144012D01*
X145282Y839977D01*
Y838708D01*
X144012Y837438D01*
X141473D01*
X140204Y838708D01*
X1218440Y813306D02*
X1217170Y812037D01*
Y809498D01*
X1218440Y808228D01*
X1223518D01*
X1224788Y809498D01*
Y812037D01*
X1223518Y813306D01*
X1224788Y815845D02*
Y818385D01*
Y817115D01*
X1217170D01*
X1218440Y815845D01*
X1224788Y827272D02*
Y822194D01*
X1219710Y827272D01*
X1218440D01*
X1217170Y826002D01*
Y823463D01*
X1218440Y822194D01*
Y921256D02*
X1217170Y919987D01*
Y917448D01*
X1218440Y916178D01*
X1223518D01*
X1224788Y917448D01*
Y919987D01*
X1223518Y921256D01*
X1224788Y923795D02*
Y926335D01*
Y925065D01*
X1217170D01*
X1218440Y923795D01*
X1224788Y930144D02*
Y932683D01*
Y931413D01*
X1217170D01*
X1218440Y930144D01*
X1260604Y729740D02*
X1259334Y728471D01*
Y725932D01*
X1260604Y724662D01*
X1265682D01*
X1266952Y725932D01*
Y728471D01*
X1265682Y729740D01*
X1266952Y732280D02*
Y734819D01*
Y733549D01*
X1259334D01*
X1260604Y732280D01*
Y738627D02*
X1259334Y739897D01*
Y742436D01*
X1260604Y743706D01*
X1265682D01*
X1266952Y742436D01*
Y739897D01*
X1265682Y738627D01*
X1260604D01*
X1280920Y799590D02*
X1279651Y800860D01*
X1277112D01*
X1275842Y799590D01*
Y794512D01*
X1277112Y793242D01*
X1279651D01*
X1280920Y794512D01*
X1283459D02*
X1284729Y793242D01*
X1287268D01*
X1288538Y794512D01*
Y799590D01*
X1287268Y800860D01*
X1284729D01*
X1283459Y799590D01*
Y798320D01*
X1284729Y797051D01*
X1288538D01*
X1260604Y835150D02*
X1259334Y833881D01*
Y831342D01*
X1260604Y830072D01*
X1265682D01*
X1266952Y831342D01*
Y833881D01*
X1265682Y835150D01*
X1260604Y837690D02*
X1259334Y838959D01*
Y841498D01*
X1260604Y842768D01*
X1261874D01*
X1263143Y841498D01*
X1264413Y842768D01*
X1265682D01*
X1266952Y841498D01*
Y838959D01*
X1265682Y837690D01*
X1264413D01*
X1263143Y838959D01*
X1261874Y837690D01*
X1260604D01*
X1263143Y838959D02*
Y841498D01*
X1280920Y905000D02*
X1279651Y906270D01*
X1277112D01*
X1275842Y905000D01*
Y899922D01*
X1277112Y898652D01*
X1279651D01*
X1280920Y899922D01*
X1283459Y906270D02*
X1288538D01*
Y905000D01*
X1283459Y899922D01*
Y898652D01*
X197614Y604010D02*
X196345Y602741D01*
Y600202D01*
X197614Y598932D01*
X202692D01*
X203962Y600202D01*
Y602741D01*
X202692Y604010D01*
X196345Y611628D02*
X197614Y609089D01*
X200153Y606549D01*
X202692D01*
X203962Y607819D01*
Y610358D01*
X202692Y611628D01*
X201423D01*
X200153Y610358D01*
Y606549D01*
X1218440Y714246D02*
X1217170Y712977D01*
Y710438D01*
X1218440Y709168D01*
X1223518D01*
X1224788Y710438D01*
Y712977D01*
X1223518Y714246D01*
X1217170Y721864D02*
Y716786D01*
X1220979D01*
X1219710Y719325D01*
Y720594D01*
X1220979Y721864D01*
X1223518D01*
X1224788Y720594D01*
Y718055D01*
X1223518Y716786D01*
X155450Y693926D02*
X154180Y692657D01*
Y690118D01*
X155450Y688848D01*
X160528D01*
X161798Y690118D01*
Y692657D01*
X160528Y693926D01*
X161798Y700274D02*
X154180D01*
X157989Y696466D01*
Y701544D01*
X137666Y631696D02*
X136397Y632966D01*
X133858D01*
X132588Y631696D01*
Y626618D01*
X133858Y625348D01*
X136397D01*
X137666Y626618D01*
X140205Y631696D02*
X141475Y632966D01*
X144014D01*
X145284Y631696D01*
Y630426D01*
X144014Y629157D01*
X142745D01*
X144014D01*
X145284Y627887D01*
Y626618D01*
X144014Y625348D01*
X141475D01*
X140205Y626618D01*
X1260604Y624330D02*
X1259334Y623061D01*
Y620522D01*
X1260604Y619252D01*
X1265682D01*
X1266952Y620522D01*
Y623061D01*
X1265682Y624330D01*
X1266952Y631948D02*
Y626870D01*
X1261874Y631948D01*
X1260604D01*
X1259334Y630678D01*
Y628139D01*
X1260604Y626870D01*
X1280920Y694180D02*
X1279651Y695450D01*
X1277112D01*
X1275842Y694180D01*
Y689102D01*
X1277112Y687832D01*
X1279651D01*
X1280920Y689102D01*
X1283459Y687832D02*
X1285999D01*
X1284729D01*
Y695450D01*
X1283459Y694180D01*
M02*
