G04*
G04 #@! TF.GenerationSoftware,Altium Limited,Altium Designer,23.5.1 (21)*
G04*
G04 Layer_Color=2752767*
%FSLAX44Y44*%
%MOMM*%
G71*
G04*
G04 #@! TF.SameCoordinates,C4CE3DB5-CAAC-4FC5-883F-B4FCA082C57B*
G04*
G04*
G04 #@! TF.FilePolarity,Positive*
G04*
G01*
G75*
%ADD76C,0.1270*%
%ADD77C,0.1693*%
D76*
X1247140Y33020D02*
X1249680Y35560D01*
X1252220D01*
X1249680Y38100D01*
X1252220Y40640D01*
X1249680D01*
X1247140Y43180D01*
X1244600Y40640D01*
X1242060D01*
X1244600Y38100D01*
X1242060Y35560D01*
X1244600D01*
X1247140Y33020D01*
X1374140Y160020D02*
X1376680Y162560D01*
X1379220D01*
X1376680Y165100D01*
X1379220Y167640D01*
X1376680D01*
X1374140Y170180D01*
X1371600Y167640D01*
X1369060D01*
X1371600Y165100D01*
X1369060Y162560D01*
X1371600D01*
X1374140Y160020D01*
Y2052320D02*
X1376680Y2054860D01*
X1379220D01*
X1376680Y2057400D01*
X1379220Y2059940D01*
X1376680D01*
X1374140Y2062480D01*
X1371600Y2059940D01*
X1369060D01*
X1371600Y2057400D01*
X1369060Y2054860D01*
X1371600D01*
X1374140Y2052320D01*
X1247140Y2179320D02*
X1249680Y2181860D01*
X1252220D01*
X1249680Y2184400D01*
X1252220Y2186940D01*
X1249680D01*
X1247140Y2189480D01*
X1244600Y2186940D01*
X1242060D01*
X1244600Y2184400D01*
X1242060Y2181860D01*
X1244600D01*
X1247140Y2179320D01*
X165100Y33020D02*
X167640Y35560D01*
X170180D01*
X167640Y38100D01*
X170180Y40640D01*
X167640D01*
X165100Y43180D01*
X162560Y40640D01*
X160020D01*
X162560Y38100D01*
X160020Y35560D01*
X162560D01*
X165100Y33020D01*
X38100Y160020D02*
X40640Y162560D01*
X43180D01*
X40640Y165100D01*
X43180Y167640D01*
X40640D01*
X38100Y170180D01*
X35560Y167640D01*
X33020D01*
X35560Y165100D01*
X33020Y162560D01*
X35560D01*
X38100Y160020D01*
Y2052320D02*
X40640Y2054860D01*
X43180D01*
X40640Y2057400D01*
X43180Y2059940D01*
X40640D01*
X38100Y2062480D01*
X35560Y2059940D01*
X33020D01*
X35560Y2057400D01*
X33020Y2054860D01*
X35560D01*
X38100Y2052320D01*
X165100Y2179320D02*
X167640Y2181860D01*
X170180D01*
X167640Y2184400D01*
X170180Y2186940D01*
X167640D01*
X165100Y2189480D01*
X162560Y2186940D01*
X160020D01*
X162560Y2184400D01*
X160020Y2181860D01*
X162560D01*
X165100Y2179320D01*
X1191260Y1178560D02*
Y1188720D01*
X1201420D01*
Y1178560D01*
X1191260D01*
X621030Y1319530D02*
Y1329690D01*
X631190D01*
Y1319530D01*
X621030D01*
Y543560D02*
Y553720D01*
X631190D01*
Y543560D01*
X621030D01*
X1191260Y422910D02*
Y433070D01*
X1201420D01*
Y422910D01*
X1191260D01*
X739140Y948690D02*
Y958850D01*
X749300D01*
Y948690D01*
X739140D01*
Y172720D02*
Y182880D01*
X749300D01*
Y172720D01*
X739140D01*
X38100Y2179320D02*
X40640Y2181860D01*
X43180D01*
X40640Y2184400D01*
X43180Y2186940D01*
X40640D01*
X38100Y2189480D01*
X35560Y2186940D01*
X33020D01*
X35560Y2184400D01*
X33020Y2181860D01*
X35560D01*
X38100Y2179320D01*
Y33020D02*
X40640Y35560D01*
X43180D01*
X40640Y38100D01*
X43180Y40640D01*
X40640D01*
X38100Y43180D01*
X35560Y40640D01*
X33020D01*
X35560Y38100D01*
X33020Y35560D01*
X35560D01*
X38100Y33020D01*
X158750Y990600D02*
Y1000760D01*
X168910D01*
Y990600D01*
X158750D01*
X1374140Y2179320D02*
X1376680Y2181860D01*
X1379220D01*
X1376680Y2184400D01*
X1379220Y2186940D01*
X1376680D01*
X1374140Y2189480D01*
X1371600Y2186940D01*
X1369060D01*
X1371600Y2184400D01*
X1369060Y2181860D01*
X1371600D01*
X1374140Y2179320D01*
X1043940Y1659890D02*
Y1670050D01*
X1054100D01*
Y1659890D01*
X1043940D01*
X1018540D02*
Y1670050D01*
X1028700D01*
Y1659890D01*
X1018540D01*
X1374140Y33020D02*
X1376680Y35560D01*
X1379220D01*
X1376680Y38100D01*
X1379220Y40640D01*
X1376680D01*
X1374140Y43180D01*
X1371600Y40640D01*
X1369060D01*
X1371600Y38100D01*
X1369060Y35560D01*
X1371600D01*
X1374140Y33020D01*
X510540Y1609090D02*
Y1619250D01*
X520700D01*
Y1609090D01*
X510540D01*
X485140D02*
Y1619250D01*
X495300D01*
Y1609090D01*
X485140D01*
X342900Y2091690D02*
Y2101850D01*
X353060D01*
Y2091690D01*
X342900D01*
X1221740Y1178560D02*
Y1188720D01*
X1231900D01*
Y1178560D01*
X1221740D01*
X360680Y1238250D02*
Y1248410D01*
X370840D01*
Y1238250D01*
X360680D01*
X335280D02*
Y1248410D01*
X345440D01*
Y1238250D01*
X335280D01*
X360680Y1263650D02*
Y1273810D01*
X370840D01*
Y1263650D01*
X360680D01*
X335280D02*
Y1273810D01*
X345440D01*
Y1263650D01*
X335280D01*
X360680Y1289050D02*
Y1299210D01*
X370840D01*
Y1289050D01*
X360680D01*
X335280D02*
Y1299210D01*
X345440D01*
Y1289050D01*
X335280D01*
X360680Y462280D02*
Y472440D01*
X370840D01*
Y462280D01*
X360680D01*
X335280D02*
Y472440D01*
X345440D01*
Y462280D01*
X335280D01*
X360680Y487680D02*
Y497840D01*
X370840D01*
Y487680D01*
X360680D01*
X335280D02*
Y497840D01*
X345440D01*
Y487680D01*
X335280D01*
X360680Y513080D02*
Y523240D01*
X370840D01*
Y513080D01*
X360680D01*
X335280D02*
Y523240D01*
X345440D01*
Y513080D01*
X335280D01*
X651510Y543560D02*
Y553720D01*
X661670D01*
Y543560D01*
X651510D01*
X600710Y163830D02*
X595630Y173990D01*
X605790D01*
X600710Y163830D01*
X514350Y556260D02*
X509270Y566420D01*
X519430D01*
X514350Y556260D01*
X769620Y172720D02*
Y182880D01*
X779780D01*
Y172720D01*
X769620D01*
X473710Y163830D02*
X468630Y173990D01*
X478790D01*
X473710Y163830D01*
X748030Y514350D02*
X742950Y524510D01*
X753110D01*
X748030Y514350D01*
X556260Y683260D02*
X551180Y693420D01*
X561340D01*
X556260Y683260D01*
X875030Y514350D02*
X869950Y524510D01*
X880110D01*
X875030Y514350D01*
X876300Y260350D02*
X871220Y270510D01*
X881380D01*
X876300Y260350D01*
X875030Y387350D02*
X869950Y397510D01*
X880110D01*
X875030Y387350D01*
X441960Y496570D02*
Y506730D01*
X452120D01*
Y496570D01*
X441960D01*
X1010920Y85090D02*
Y95250D01*
X1021080D01*
Y85090D01*
X1010920D01*
X985520D02*
Y95250D01*
X995680D01*
Y85090D01*
X985520D01*
X960120D02*
Y95250D01*
X970280D01*
Y85090D01*
X960120D01*
X934720D02*
Y95250D01*
X944880D01*
Y85090D01*
X934720D01*
X909320D02*
Y95250D01*
X919480D01*
Y85090D01*
X909320D01*
X883920D02*
Y95250D01*
X894080D01*
Y85090D01*
X883920D01*
X629920Y274320D02*
Y284480D01*
X640080D01*
Y274320D01*
X629920D01*
X699770Y309880D02*
Y320040D01*
X709930D01*
Y309880D01*
X699770D01*
X360680Y398780D02*
Y408940D01*
X370840D01*
Y398780D01*
X360680D01*
X335280D02*
Y408940D01*
X345440D01*
Y398780D01*
X335280D01*
Y368300D02*
Y378460D01*
X345440D01*
Y368300D01*
X335280D01*
X360680D02*
Y378460D01*
X370840D01*
Y368300D01*
X360680D01*
X1047750Y482600D02*
Y492760D01*
X1057910D01*
Y482600D01*
X1047750D01*
X1073150D02*
Y492760D01*
X1083310D01*
Y482600D01*
X1073150D01*
Y452120D02*
Y462280D01*
X1083310D01*
Y452120D01*
X1073150D01*
X1047750D02*
Y462280D01*
X1057910D01*
Y452120D01*
X1047750D01*
Y398780D02*
Y408940D01*
X1057910D01*
Y398780D01*
X1047750D01*
X1073150D02*
Y408940D01*
X1083310D01*
Y398780D01*
X1073150D01*
Y368300D02*
Y378460D01*
X1083310D01*
Y368300D01*
X1073150D01*
X1047750D02*
Y378460D01*
X1057910D01*
Y368300D01*
X1047750D01*
X699770Y1085850D02*
Y1096010D01*
X709930D01*
Y1085850D01*
X699770D01*
X441960Y1272540D02*
Y1282700D01*
X452120D01*
Y1272540D01*
X441960D01*
X1073150Y1174750D02*
Y1184910D01*
X1083310D01*
Y1174750D01*
X1073150D01*
X1047750D02*
Y1184910D01*
X1057910D01*
Y1174750D01*
X1047750D01*
Y1144270D02*
Y1154430D01*
X1057910D01*
Y1144270D01*
X1047750D01*
X1073150D02*
Y1154430D01*
X1083310D01*
Y1144270D01*
X1073150D01*
Y1258570D02*
Y1268730D01*
X1083310D01*
Y1258570D01*
X1073150D01*
X1047750D02*
Y1268730D01*
X1057910D01*
Y1258570D01*
X1047750D01*
Y1228090D02*
Y1238250D01*
X1057910D01*
Y1228090D01*
X1047750D01*
X1073150D02*
Y1238250D01*
X1083310D01*
Y1228090D01*
X1073150D01*
X335280Y1174750D02*
Y1184910D01*
X345440D01*
Y1174750D01*
X335280D01*
X360680D02*
Y1184910D01*
X370840D01*
Y1174750D01*
X360680D01*
Y1144270D02*
Y1154430D01*
X370840D01*
Y1144270D01*
X360680D01*
X335280D02*
Y1154430D01*
X345440D01*
Y1144270D01*
X335280D01*
X629920Y1050290D02*
Y1060450D01*
X640080D01*
Y1050290D01*
X629920D01*
X1010920Y861060D02*
Y871220D01*
X1021080D01*
Y861060D01*
X1010920D01*
X985520D02*
Y871220D01*
X995680D01*
Y861060D01*
X985520D01*
X960120D02*
Y871220D01*
X970280D01*
Y861060D01*
X960120D01*
X934720D02*
Y871220D01*
X944880D01*
Y861060D01*
X934720D01*
X909320D02*
Y871220D01*
X919480D01*
Y861060D01*
X909320D01*
X883920D02*
Y871220D01*
X894080D01*
Y861060D01*
X883920D01*
X769620Y948690D02*
Y958850D01*
X779780D01*
Y948690D01*
X769620D01*
X651510Y1319530D02*
Y1329690D01*
X661670D01*
Y1319530D01*
X651510D01*
X876300Y1036320D02*
X871220Y1046480D01*
X881380D01*
X876300Y1036320D01*
X875030Y1163320D02*
X869950Y1173480D01*
X880110D01*
X875030Y1163320D01*
X556260Y1459230D02*
X551180Y1469390D01*
X561340D01*
X556260Y1459230D01*
X875030Y1290320D02*
X869950Y1300480D01*
X880110D01*
X875030Y1290320D01*
X473710Y939800D02*
X468630Y949960D01*
X478790D01*
X473710Y939800D01*
X748030Y1290320D02*
X742950Y1300480D01*
X753110D01*
X748030Y1290320D01*
X600710Y939800D02*
X595630Y949960D01*
X605790D01*
X600710Y939800D01*
X514350Y1332230D02*
X509270Y1342390D01*
X519430D01*
X514350Y1332230D01*
X1186180Y646430D02*
Y656590D01*
X1196340D01*
Y646430D01*
X1186180D01*
X1211580D02*
Y656590D01*
X1221740D01*
Y646430D01*
X1211580D01*
X199390Y664210D02*
Y674370D01*
X209550D01*
Y664210D01*
X199390D01*
X224790D02*
Y674370D01*
X234950D01*
Y664210D01*
X224790D01*
X158750Y965200D02*
Y975360D01*
X168910D01*
Y965200D01*
X158750D01*
X224790Y770890D02*
Y781050D01*
X234950D01*
Y770890D01*
X224790D01*
X199390D02*
Y781050D01*
X209550D01*
Y770890D01*
X199390D01*
X224790Y826770D02*
Y836930D01*
X234950D01*
Y826770D01*
X224790D01*
Y801370D02*
Y811530D01*
X234950D01*
Y801370D01*
X224790D01*
X1221740Y422910D02*
Y433070D01*
X1231900D01*
Y422910D01*
X1221740D01*
X612140Y1609090D02*
Y1619250D01*
X622300D01*
Y1609090D01*
X612140D01*
X662940D02*
Y1619250D01*
X673100D01*
Y1609090D01*
X662940D01*
X637540D02*
Y1619250D01*
X647700D01*
Y1609090D01*
X637540D01*
X713740D02*
Y1619250D01*
X723900D01*
Y1609090D01*
X713740D01*
X688340D02*
Y1619250D01*
X698500D01*
Y1609090D01*
X688340D01*
X764540D02*
Y1619250D01*
X774700D01*
Y1609090D01*
X764540D01*
X739140D02*
Y1619250D01*
X749300D01*
Y1609090D01*
X739140D01*
X586740D02*
Y1619250D01*
X596900D01*
Y1609090D01*
X586740D01*
X1043940Y1685290D02*
Y1695450D01*
X1054100D01*
Y1685290D01*
X1043940D01*
X1018540D02*
Y1695450D01*
X1028700D01*
Y1685290D01*
X1018540D01*
X1043940Y1761490D02*
Y1771650D01*
X1054100D01*
Y1761490D01*
X1043940D01*
Y1736090D02*
Y1746250D01*
X1054100D01*
Y1736090D01*
X1043940D01*
Y1710690D02*
Y1720850D01*
X1054100D01*
Y1710690D01*
X1043940D01*
Y1786890D02*
Y1797050D01*
X1054100D01*
Y1786890D01*
X1043940D01*
X1018540Y1761490D02*
Y1771650D01*
X1028700D01*
Y1761490D01*
X1018540D01*
Y1736090D02*
Y1746250D01*
X1028700D01*
Y1736090D01*
X1018540D01*
Y1710690D02*
Y1720850D01*
X1028700D01*
Y1710690D01*
X1018540D01*
Y1786890D02*
Y1797050D01*
X1028700D01*
Y1786890D01*
X1018540D01*
X1043940Y1888490D02*
Y1898650D01*
X1054100D01*
Y1888490D01*
X1043940D01*
Y1863090D02*
Y1873250D01*
X1054100D01*
Y1863090D01*
X1043940D01*
X1018540D02*
Y1873250D01*
X1028700D01*
Y1863090D01*
X1018540D01*
X1043940Y1837690D02*
Y1847850D01*
X1054100D01*
Y1837690D01*
X1043940D01*
X1018540D02*
Y1847850D01*
X1028700D01*
Y1837690D01*
X1018540D01*
X1043940Y1812290D02*
Y1822450D01*
X1054100D01*
Y1812290D01*
X1043940D01*
X1018540D02*
Y1822450D01*
X1028700D01*
Y1812290D01*
X1018540D01*
Y1888490D02*
Y1898650D01*
X1028700D01*
Y1888490D01*
X1018540D01*
X1043940Y1964690D02*
Y1974850D01*
X1054100D01*
Y1964690D01*
X1043940D01*
Y1939290D02*
Y1949450D01*
X1054100D01*
Y1939290D01*
X1043940D01*
Y1913890D02*
Y1924050D01*
X1054100D01*
Y1913890D01*
X1043940D01*
Y1990090D02*
Y2000250D01*
X1054100D01*
Y1990090D01*
X1043940D01*
X1018540Y1964690D02*
Y1974850D01*
X1028700D01*
Y1964690D01*
X1018540D01*
Y1939290D02*
Y1949450D01*
X1028700D01*
Y1939290D01*
X1018540D01*
Y1913890D02*
Y1924050D01*
X1028700D01*
Y1913890D01*
X1018540D01*
Y1990090D02*
Y2000250D01*
X1028700D01*
Y1990090D01*
X1018540D01*
X789940Y2091690D02*
Y2101850D01*
X800100D01*
Y2091690D01*
X789940D01*
X840740D02*
Y2101850D01*
X850900D01*
Y2091690D01*
X840740D01*
X815340D02*
Y2101850D01*
X825500D01*
Y2091690D01*
X815340D01*
X891540D02*
Y2101850D01*
X901700D01*
Y2091690D01*
X891540D01*
X866140D02*
Y2101850D01*
X876300D01*
Y2091690D01*
X866140D01*
X942340D02*
Y2101850D01*
X952500D01*
Y2091690D01*
X942340D01*
X916940D02*
Y2101850D01*
X927100D01*
Y2091690D01*
X916940D01*
X764540D02*
Y2101850D01*
X774700D01*
Y2091690D01*
X764540D01*
X561340D02*
Y2101850D01*
X571500D01*
Y2091690D01*
X561340D01*
X612140D02*
Y2101850D01*
X622300D01*
Y2091690D01*
X612140D01*
X586740D02*
Y2101850D01*
X596900D01*
Y2091690D01*
X586740D01*
X662940D02*
Y2101850D01*
X673100D01*
Y2091690D01*
X662940D01*
X637540D02*
Y2101850D01*
X647700D01*
Y2091690D01*
X637540D01*
X713740D02*
Y2101850D01*
X723900D01*
Y2091690D01*
X713740D01*
X688340D02*
Y2101850D01*
X698500D01*
Y2091690D01*
X688340D01*
X393700D02*
Y2101850D01*
X403860D01*
Y2091690D01*
X393700D01*
X368300D02*
Y2101850D01*
X378460D01*
Y2091690D01*
X368300D01*
X444500D02*
Y2101850D01*
X454660D01*
Y2091690D01*
X444500D01*
X419100D02*
Y2101850D01*
X429260D01*
Y2091690D01*
X419100D01*
X292100D02*
Y2101850D01*
X302260D01*
Y2091690D01*
X292100D01*
X266700D02*
Y2101850D01*
X276860D01*
Y2091690D01*
X266700D01*
X317500D02*
Y2101850D01*
X327660D01*
Y2091690D01*
X317500D01*
X495300D02*
Y2101850D01*
X505460D01*
Y2091690D01*
X495300D01*
X469900D02*
Y2101850D01*
X480060D01*
Y2091690D01*
X469900D01*
X535940D02*
Y2101850D01*
X546100D01*
Y2091690D01*
X535940D01*
X1043940D02*
Y2101850D01*
X1054100D01*
Y2091690D01*
X1043940D01*
Y2066290D02*
Y2076450D01*
X1054100D01*
Y2066290D01*
X1043940D01*
X1018540D02*
Y2076450D01*
X1028700D01*
Y2066290D01*
X1018540D01*
X1043940Y2040890D02*
Y2051050D01*
X1054100D01*
Y2040890D01*
X1043940D01*
X1018540D02*
Y2051050D01*
X1028700D01*
Y2040890D01*
X1018540D01*
X1043940Y2015490D02*
Y2025650D01*
X1054100D01*
Y2015490D01*
X1043940D01*
X1018540D02*
Y2025650D01*
X1028700D01*
Y2015490D01*
X1018540D01*
Y2091690D02*
Y2101850D01*
X1028700D01*
Y2091690D01*
X1018540D01*
X840740Y1609090D02*
Y1619250D01*
X850900D01*
Y1609090D01*
X840740D01*
X891540D02*
Y1619250D01*
X901700D01*
Y1609090D01*
X891540D01*
X866140D02*
Y1619250D01*
X876300D01*
Y1609090D01*
X866140D01*
X942340D02*
Y1619250D01*
X952500D01*
Y1609090D01*
X942340D01*
X916940D02*
Y1619250D01*
X927100D01*
Y1609090D01*
X916940D01*
X993140D02*
Y1619250D01*
X1003300D01*
Y1609090D01*
X993140D01*
X967740D02*
Y1619250D01*
X977900D01*
Y1609090D01*
X967740D01*
X815340D02*
Y1619250D01*
X825500D01*
Y1609090D01*
X815340D01*
X383540D02*
Y1619250D01*
X393700D01*
Y1609090D01*
X383540D01*
X434340D02*
Y1619250D01*
X444500D01*
Y1609090D01*
X434340D01*
X408940D02*
Y1619250D01*
X419100D01*
Y1609090D01*
X408940D01*
X459740D02*
Y1619250D01*
X469900D01*
Y1609090D01*
X459740D01*
X535940D02*
Y1619250D01*
X546100D01*
Y1609090D01*
X535940D01*
X358140D02*
Y1619250D01*
X368300D01*
Y1609090D01*
X358140D01*
X510130Y383950D02*
X512670Y389030D01*
X510130Y394110D01*
X515210Y391570D01*
X520290Y394110D01*
X517750Y389030D01*
X520290Y383950D01*
X515210Y386490D01*
X510130Y383950D01*
X521130D02*
X523670Y389030D01*
X521130Y394110D01*
X526210Y391570D01*
X531290Y394110D01*
X528750Y389030D01*
X531290Y383950D01*
X526210Y386490D01*
X521130Y383950D01*
X532130D02*
X534670Y389030D01*
X532130Y394110D01*
X537210Y391570D01*
X542290Y394110D01*
X539750Y389030D01*
X542290Y383950D01*
X537210Y386490D01*
X532130Y383950D01*
X543130D02*
X545670Y389030D01*
X543130Y394110D01*
X548210Y391570D01*
X553290Y394110D01*
X550750Y389030D01*
X553290Y383950D01*
X548210Y386490D01*
X543130Y383950D01*
X554130D02*
X556670Y389030D01*
X554130Y394110D01*
X559210Y391570D01*
X564290Y394110D01*
X561750Y389030D01*
X564290Y383950D01*
X559210Y386490D01*
X554130Y383950D01*
X510130Y372950D02*
X512670Y378030D01*
X510130Y383110D01*
X515210Y380570D01*
X520290Y383110D01*
X517750Y378030D01*
X520290Y372950D01*
X515210Y375490D01*
X510130Y372950D01*
X521130D02*
X523670Y378030D01*
X521130Y383110D01*
X526210Y380570D01*
X531290Y383110D01*
X528750Y378030D01*
X531290Y372950D01*
X526210Y375490D01*
X521130Y372950D01*
X532130D02*
X534670Y378030D01*
X532130Y383110D01*
X537210Y380570D01*
X542290Y383110D01*
X539750Y378030D01*
X542290Y372950D01*
X537210Y375490D01*
X532130Y372950D01*
X543130D02*
X545670Y378030D01*
X543130Y383110D01*
X548210Y380570D01*
X553290Y383110D01*
X550750Y378030D01*
X553290Y372950D01*
X548210Y375490D01*
X543130Y372950D01*
X554130D02*
X556670Y378030D01*
X554130Y383110D01*
X559210Y380570D01*
X564290Y383110D01*
X561750Y378030D01*
X564290Y372950D01*
X559210Y375490D01*
X554130Y372950D01*
X510130Y361950D02*
X512670Y367030D01*
X510130Y372110D01*
X515210Y369570D01*
X520290Y372110D01*
X517750Y367030D01*
X520290Y361950D01*
X515210Y364490D01*
X510130Y361950D01*
X521130D02*
X523670Y367030D01*
X521130Y372110D01*
X526210Y369570D01*
X531290Y372110D01*
X528750Y367030D01*
X531290Y361950D01*
X526210Y364490D01*
X521130Y361950D01*
X532130D02*
X534670Y367030D01*
X532130Y372110D01*
X537210Y369570D01*
X542290Y372110D01*
X539750Y367030D01*
X542290Y361950D01*
X537210Y364490D01*
X532130Y361950D01*
X543130D02*
X545670Y367030D01*
X543130Y372110D01*
X548210Y369570D01*
X553290Y372110D01*
X550750Y367030D01*
X553290Y361950D01*
X548210Y364490D01*
X543130Y361950D01*
X554130D02*
X556670Y367030D01*
X554130Y372110D01*
X559210Y369570D01*
X564290Y372110D01*
X561750Y367030D01*
X564290Y361950D01*
X559210Y364490D01*
X554130Y361950D01*
X510130Y350950D02*
X512670Y356030D01*
X510130Y361110D01*
X515210Y358570D01*
X520290Y361110D01*
X517750Y356030D01*
X520290Y350950D01*
X515210Y353490D01*
X510130Y350950D01*
X521130D02*
X523670Y356030D01*
X521130Y361110D01*
X526210Y358570D01*
X531290Y361110D01*
X528750Y356030D01*
X531290Y350950D01*
X526210Y353490D01*
X521130Y350950D01*
X532130D02*
X534670Y356030D01*
X532130Y361110D01*
X537210Y358570D01*
X542290Y361110D01*
X539750Y356030D01*
X542290Y350950D01*
X537210Y353490D01*
X532130Y350950D01*
X543130D02*
X545670Y356030D01*
X543130Y361110D01*
X548210Y358570D01*
X553290Y361110D01*
X550750Y356030D01*
X553290Y350950D01*
X548210Y353490D01*
X543130Y350950D01*
X554130D02*
X556670Y356030D01*
X554130Y361110D01*
X559210Y358570D01*
X564290Y361110D01*
X561750Y356030D01*
X564290Y350950D01*
X559210Y353490D01*
X554130Y350950D01*
X510130Y339950D02*
X512670Y345030D01*
X510130Y350110D01*
X515210Y347570D01*
X520290Y350110D01*
X517750Y345030D01*
X520290Y339950D01*
X515210Y342490D01*
X510130Y339950D01*
X521130D02*
X523670Y345030D01*
X521130Y350110D01*
X526210Y347570D01*
X531290Y350110D01*
X528750Y345030D01*
X531290Y339950D01*
X526210Y342490D01*
X521130Y339950D01*
X532130D02*
X534670Y345030D01*
X532130Y350110D01*
X537210Y347570D01*
X542290Y350110D01*
X539750Y345030D01*
X542290Y339950D01*
X537210Y342490D01*
X532130Y339950D01*
X543130D02*
X545670Y345030D01*
X543130Y350110D01*
X548210Y347570D01*
X553290Y350110D01*
X550750Y345030D01*
X553290Y339950D01*
X548210Y342490D01*
X543130Y339950D01*
X554130D02*
X556670Y345030D01*
X554130Y350110D01*
X559210Y347570D01*
X564290Y350110D01*
X561750Y345030D01*
X564290Y339950D01*
X559210Y342490D01*
X554130Y339950D01*
X510130Y1159920D02*
X512670Y1165000D01*
X510130Y1170080D01*
X515210Y1167540D01*
X520290Y1170080D01*
X517750Y1165000D01*
X520290Y1159920D01*
X515210Y1162460D01*
X510130Y1159920D01*
X521130D02*
X523670Y1165000D01*
X521130Y1170080D01*
X526210Y1167540D01*
X531290Y1170080D01*
X528750Y1165000D01*
X531290Y1159920D01*
X526210Y1162460D01*
X521130Y1159920D01*
X532130D02*
X534670Y1165000D01*
X532130Y1170080D01*
X537210Y1167540D01*
X542290Y1170080D01*
X539750Y1165000D01*
X542290Y1159920D01*
X537210Y1162460D01*
X532130Y1159920D01*
X543130D02*
X545670Y1165000D01*
X543130Y1170080D01*
X548210Y1167540D01*
X553290Y1170080D01*
X550750Y1165000D01*
X553290Y1159920D01*
X548210Y1162460D01*
X543130Y1159920D01*
X554130D02*
X556670Y1165000D01*
X554130Y1170080D01*
X559210Y1167540D01*
X564290Y1170080D01*
X561750Y1165000D01*
X564290Y1159920D01*
X559210Y1162460D01*
X554130Y1159920D01*
X510130Y1148920D02*
X512670Y1154000D01*
X510130Y1159080D01*
X515210Y1156540D01*
X520290Y1159080D01*
X517750Y1154000D01*
X520290Y1148920D01*
X515210Y1151460D01*
X510130Y1148920D01*
X521130D02*
X523670Y1154000D01*
X521130Y1159080D01*
X526210Y1156540D01*
X531290Y1159080D01*
X528750Y1154000D01*
X531290Y1148920D01*
X526210Y1151460D01*
X521130Y1148920D01*
X532130D02*
X534670Y1154000D01*
X532130Y1159080D01*
X537210Y1156540D01*
X542290Y1159080D01*
X539750Y1154000D01*
X542290Y1148920D01*
X537210Y1151460D01*
X532130Y1148920D01*
X543130D02*
X545670Y1154000D01*
X543130Y1159080D01*
X548210Y1156540D01*
X553290Y1159080D01*
X550750Y1154000D01*
X553290Y1148920D01*
X548210Y1151460D01*
X543130Y1148920D01*
X554130D02*
X556670Y1154000D01*
X554130Y1159080D01*
X559210Y1156540D01*
X564290Y1159080D01*
X561750Y1154000D01*
X564290Y1148920D01*
X559210Y1151460D01*
X554130Y1148920D01*
X510130Y1137920D02*
X512670Y1143000D01*
X510130Y1148080D01*
X515210Y1145540D01*
X520290Y1148080D01*
X517750Y1143000D01*
X520290Y1137920D01*
X515210Y1140460D01*
X510130Y1137920D01*
X521130D02*
X523670Y1143000D01*
X521130Y1148080D01*
X526210Y1145540D01*
X531290Y1148080D01*
X528750Y1143000D01*
X531290Y1137920D01*
X526210Y1140460D01*
X521130Y1137920D01*
X532130D02*
X534670Y1143000D01*
X532130Y1148080D01*
X537210Y1145540D01*
X542290Y1148080D01*
X539750Y1143000D01*
X542290Y1137920D01*
X537210Y1140460D01*
X532130Y1137920D01*
X543130D02*
X545670Y1143000D01*
X543130Y1148080D01*
X548210Y1145540D01*
X553290Y1148080D01*
X550750Y1143000D01*
X553290Y1137920D01*
X548210Y1140460D01*
X543130Y1137920D01*
X554130D02*
X556670Y1143000D01*
X554130Y1148080D01*
X559210Y1145540D01*
X564290Y1148080D01*
X561750Y1143000D01*
X564290Y1137920D01*
X559210Y1140460D01*
X554130Y1137920D01*
X510130Y1126920D02*
X512670Y1132000D01*
X510130Y1137080D01*
X515210Y1134540D01*
X520290Y1137080D01*
X517750Y1132000D01*
X520290Y1126920D01*
X515210Y1129460D01*
X510130Y1126920D01*
X521130D02*
X523670Y1132000D01*
X521130Y1137080D01*
X526210Y1134540D01*
X531290Y1137080D01*
X528750Y1132000D01*
X531290Y1126920D01*
X526210Y1129460D01*
X521130Y1126920D01*
X532130D02*
X534670Y1132000D01*
X532130Y1137080D01*
X537210Y1134540D01*
X542290Y1137080D01*
X539750Y1132000D01*
X542290Y1126920D01*
X537210Y1129460D01*
X532130Y1126920D01*
X543130D02*
X545670Y1132000D01*
X543130Y1137080D01*
X548210Y1134540D01*
X553290Y1137080D01*
X550750Y1132000D01*
X553290Y1126920D01*
X548210Y1129460D01*
X543130Y1126920D01*
X554130D02*
X556670Y1132000D01*
X554130Y1137080D01*
X559210Y1134540D01*
X564290Y1137080D01*
X561750Y1132000D01*
X564290Y1126920D01*
X559210Y1129460D01*
X554130Y1126920D01*
X510130Y1115920D02*
X512670Y1121000D01*
X510130Y1126080D01*
X515210Y1123540D01*
X520290Y1126080D01*
X517750Y1121000D01*
X520290Y1115920D01*
X515210Y1118460D01*
X510130Y1115920D01*
X521130D02*
X523670Y1121000D01*
X521130Y1126080D01*
X526210Y1123540D01*
X531290Y1126080D01*
X528750Y1121000D01*
X531290Y1115920D01*
X526210Y1118460D01*
X521130Y1115920D01*
X532130D02*
X534670Y1121000D01*
X532130Y1126080D01*
X537210Y1123540D01*
X542290Y1126080D01*
X539750Y1121000D01*
X542290Y1115920D01*
X537210Y1118460D01*
X532130Y1115920D01*
X543130D02*
X545670Y1121000D01*
X543130Y1126080D01*
X548210Y1123540D01*
X553290Y1126080D01*
X550750Y1121000D01*
X553290Y1115920D01*
X548210Y1118460D01*
X543130Y1115920D01*
X554130D02*
X556670Y1121000D01*
X554130Y1126080D01*
X559210Y1123540D01*
X564290Y1126080D01*
X561750Y1121000D01*
X564290Y1115920D01*
X559210Y1118460D01*
X554130Y1115920D01*
X334010Y1041400D02*
X336550Y1046480D01*
X334010Y1051560D01*
X339090Y1049020D01*
X344170Y1051560D01*
X341630Y1046480D01*
X344170Y1041400D01*
X339090Y1043940D01*
X334010Y1041400D01*
X769620Y256540D02*
X772160Y261620D01*
X769620Y266700D01*
X774700Y264160D01*
X779780Y266700D01*
X777240Y261620D01*
X779780Y256540D01*
X774700Y259080D01*
X769620Y256540D01*
X260350Y631190D02*
Y641350D01*
X270510D01*
Y631190D01*
X260350D01*
X867884Y573544D02*
X870424Y578624D01*
X867884Y583704D01*
X872964Y581164D01*
X878044Y583704D01*
X875504Y578624D01*
X878044Y573544D01*
X872964Y576084D01*
X867884Y573544D01*
X994410Y1007110D02*
Y1004570D01*
X999490D01*
Y1007110D01*
X1002030D01*
Y1012190D01*
X999490D01*
Y1014730D01*
X994410D01*
Y1012190D01*
X991870D01*
Y1007110D01*
X994410D01*
X866140Y965200D02*
Y962660D01*
X871220D01*
Y965200D01*
X873760D01*
Y970280D01*
X871220D01*
Y972820D01*
X866140D01*
Y970280D01*
X863600D01*
Y965200D01*
X866140D01*
X805183Y874725D02*
Y872185D01*
X810263D01*
Y874725D01*
X812803D01*
Y879805D01*
X810263D01*
Y882345D01*
X805183D01*
Y879805D01*
X802643D01*
Y874725D01*
X805183D01*
X1092200Y1079500D02*
Y1076960D01*
X1097280D01*
Y1079500D01*
X1099820D01*
Y1084580D01*
X1097280D01*
Y1087120D01*
X1092200D01*
Y1084580D01*
X1089660D01*
Y1079500D01*
X1092200D01*
X1177290Y1611630D02*
Y1609090D01*
X1182370D01*
Y1611630D01*
X1184910D01*
Y1616710D01*
X1182370D01*
Y1619250D01*
X1177290D01*
Y1616710D01*
X1174750D01*
Y1611630D01*
X1177290D01*
X1093470Y1389380D02*
Y1386840D01*
X1098550D01*
Y1389380D01*
X1101090D01*
Y1394460D01*
X1098550D01*
Y1397000D01*
X1093470D01*
Y1394460D01*
X1090930D01*
Y1389380D01*
X1093470D01*
X1035050Y712470D02*
Y709930D01*
X1040130D01*
Y712470D01*
X1042670D01*
Y717550D01*
X1040130D01*
Y720090D01*
X1035050D01*
Y717550D01*
X1032510D01*
Y712470D01*
X1035050D01*
X822960Y737870D02*
X825500Y742950D01*
X822960Y748030D01*
X828040Y745490D01*
X833120Y748030D01*
X830580Y742950D01*
X833120Y737870D01*
X828040Y740410D01*
X822960Y737870D01*
X842010Y716280D02*
X844550Y721360D01*
X842010Y726440D01*
X847090Y723900D01*
X852170Y726440D01*
X849630Y721360D01*
X852170Y716280D01*
X847090Y718820D01*
X842010Y716280D01*
X877570Y726440D02*
Y723900D01*
X882650D01*
Y726440D01*
X885190D01*
Y731520D01*
X882650D01*
Y734060D01*
X877570D01*
Y731520D01*
X875030D01*
Y726440D01*
X877570D01*
X688340Y760730D02*
Y758190D01*
X693420D01*
Y760730D01*
X695960D01*
Y765810D01*
X693420D01*
Y768350D01*
X688340D01*
Y765810D01*
X685800D01*
Y760730D01*
X688340D01*
X1348740Y1498600D02*
Y1496060D01*
X1353820D01*
Y1498600D01*
X1356360D01*
Y1503680D01*
X1353820D01*
Y1506220D01*
X1348740D01*
Y1503680D01*
X1346200D01*
Y1498600D01*
X1348740D01*
X1221740Y1624330D02*
Y1621790D01*
X1226820D01*
Y1624330D01*
X1229360D01*
Y1629410D01*
X1226820D01*
Y1631950D01*
X1221740D01*
Y1629410D01*
X1219200D01*
Y1624330D01*
X1221740D01*
X1276350Y281940D02*
Y279400D01*
X1281430D01*
Y281940D01*
X1283970D01*
Y287020D01*
X1281430D01*
Y289560D01*
X1276350D01*
Y287020D01*
X1273810D01*
Y281940D01*
X1276350D01*
X947200Y316128D02*
X949740Y321208D01*
X947200Y326288D01*
X952280Y323748D01*
X957360Y326288D01*
X954820Y321208D01*
X957360Y316128D01*
X952280Y318668D01*
X947200Y316128D01*
X1270000Y1654810D02*
Y1652270D01*
X1275080D01*
Y1654810D01*
X1277620D01*
Y1659890D01*
X1275080D01*
Y1662430D01*
X1270000D01*
Y1659890D01*
X1267460D01*
Y1654810D01*
X1270000D01*
X1281430Y528320D02*
X1283970Y533400D01*
X1281430Y538480D01*
X1286510Y535940D01*
X1291590Y538480D01*
X1289050Y533400D01*
X1291590Y528320D01*
X1286510Y530860D01*
X1281430Y528320D01*
Y854710D02*
Y852170D01*
X1286510D01*
Y854710D01*
X1289050D01*
Y859790D01*
X1286510D01*
Y862330D01*
X1281430D01*
Y859790D01*
X1278890D01*
Y854710D01*
X1281430D01*
X1282700Y1262380D02*
X1285240Y1267460D01*
X1282700Y1272540D01*
X1287780Y1270000D01*
X1292860Y1272540D01*
X1290320Y1267460D01*
X1292860Y1262380D01*
X1287780Y1264920D01*
X1282700Y1262380D01*
Y1283970D02*
X1285240Y1289050D01*
X1282700Y1294130D01*
X1287780Y1291590D01*
X1292860Y1294130D01*
X1290320Y1289050D01*
X1292860Y1283970D01*
X1287780Y1286510D01*
X1282700Y1283970D01*
Y1240790D02*
X1285240Y1245870D01*
X1282700Y1250950D01*
X1287780Y1248410D01*
X1292860Y1250950D01*
X1290320Y1245870D01*
X1292860Y1240790D01*
X1287780Y1243330D01*
X1282700Y1240790D01*
X1261110Y576580D02*
X1263650Y581660D01*
X1261110Y586740D01*
X1266190Y584200D01*
X1271270Y586740D01*
X1268730Y581660D01*
X1271270Y576580D01*
X1266190Y579120D01*
X1261110Y576580D01*
X1035050Y1463040D02*
Y1460500D01*
X1040130D01*
Y1463040D01*
X1042670D01*
Y1468120D01*
X1040130D01*
Y1470660D01*
X1035050D01*
Y1468120D01*
X1032510D01*
Y1463040D01*
X1035050D01*
X1033780Y1619250D02*
Y1616710D01*
X1038860D01*
Y1619250D01*
X1041400D01*
Y1624330D01*
X1038860D01*
Y1626870D01*
X1033780D01*
Y1624330D01*
X1031240D01*
Y1619250D01*
X1033780D01*
X930910Y1186180D02*
Y1183640D01*
X935990D01*
Y1186180D01*
X938530D01*
Y1191260D01*
X935990D01*
Y1193800D01*
X930910D01*
Y1191260D01*
X928370D01*
Y1186180D01*
X930910D01*
X770890Y1046480D02*
Y1043940D01*
X775970D01*
Y1046480D01*
X778510D01*
Y1051560D01*
X775970D01*
Y1054100D01*
X770890D01*
Y1051560D01*
X768350D01*
Y1046480D01*
X770890D01*
X930910Y1122680D02*
Y1120140D01*
X935990D01*
Y1122680D01*
X938530D01*
Y1127760D01*
X935990D01*
Y1130300D01*
X930910D01*
Y1127760D01*
X928370D01*
Y1122680D01*
X930910D01*
X961390Y1223010D02*
Y1220470D01*
X966470D01*
Y1223010D01*
X969010D01*
Y1228090D01*
X966470D01*
Y1230630D01*
X961390D01*
Y1228090D01*
X958850D01*
Y1223010D01*
X961390D01*
X990600Y1271270D02*
Y1268730D01*
X995680D01*
Y1271270D01*
X998220D01*
Y1276350D01*
X995680D01*
Y1278890D01*
X990600D01*
Y1276350D01*
X988060D01*
Y1271270D01*
X990600D01*
X1023620Y1299210D02*
Y1296670D01*
X1028700D01*
Y1299210D01*
X1031240D01*
Y1304290D01*
X1028700D01*
Y1306830D01*
X1023620D01*
Y1304290D01*
X1021080D01*
Y1299210D01*
X1023620D01*
X1080484Y1650094D02*
X1083024Y1655174D01*
X1080484Y1660254D01*
X1085564Y1657714D01*
X1090644Y1660254D01*
X1088104Y1655174D01*
X1090644Y1650094D01*
X1085564Y1652634D01*
X1080484Y1650094D01*
X716280Y1639570D02*
X718820Y1644650D01*
X716280Y1649730D01*
X721360Y1647190D01*
X726440Y1649730D01*
X723900Y1644650D01*
X726440Y1639570D01*
X721360Y1642110D01*
X716280Y1639570D01*
X716553Y1688100D02*
X719093Y1693180D01*
X716553Y1698260D01*
X721633Y1695720D01*
X726713Y1698260D01*
X724173Y1693180D01*
X726713Y1688100D01*
X721633Y1690640D01*
X716553Y1688100D01*
X727710Y1629410D02*
X730250Y1634490D01*
X727710Y1639570D01*
X732790Y1637030D01*
X737870Y1639570D01*
X735330Y1634490D01*
X737870Y1629410D01*
X732790Y1631950D01*
X727710Y1629410D01*
X728980Y1676400D02*
X731520Y1681480D01*
X728980Y1686560D01*
X734060Y1684020D01*
X739140Y1686560D01*
X736600Y1681480D01*
X739140Y1676400D01*
X734060Y1678940D01*
X728980Y1676400D01*
X635972Y1375554D02*
X638512Y1380634D01*
X635972Y1385714D01*
X641052Y1383174D01*
X646132Y1385714D01*
X643592Y1380634D01*
X646132Y1375554D01*
X641052Y1378094D01*
X635972Y1375554D01*
X1093470Y1662430D02*
X1096010Y1667510D01*
X1093470Y1672590D01*
X1098550Y1670050D01*
X1103630Y1672590D01*
X1101090Y1667510D01*
X1103630Y1662430D01*
X1098550Y1664970D01*
X1093470Y1662430D01*
X1211580Y1708785D02*
X1214120Y1713865D01*
X1211580Y1718945D01*
X1216660Y1716405D01*
X1221740Y1718945D01*
X1219200Y1713865D01*
X1221740Y1708785D01*
X1216660Y1711325D01*
X1211580Y1708785D01*
X1109980Y1715285D02*
X1112520Y1720365D01*
X1109980Y1725445D01*
X1115060Y1722905D01*
X1120140Y1725445D01*
X1117600Y1720365D01*
X1120140Y1715285D01*
X1115060Y1717825D01*
X1109980Y1715285D01*
X1163320Y1718310D02*
Y1715770D01*
X1168400D01*
Y1718310D01*
X1170940D01*
Y1723390D01*
X1168400D01*
Y1725930D01*
X1163320D01*
Y1723390D01*
X1160780D01*
Y1718310D01*
X1163320D01*
X1144270Y1816100D02*
X1146810Y1821180D01*
X1144270Y1826260D01*
X1149350Y1823720D01*
X1154430Y1826260D01*
X1151890Y1821180D01*
X1154430Y1816100D01*
X1149350Y1818640D01*
X1144270Y1816100D01*
X1165860D02*
X1168400Y1821180D01*
X1165860Y1826260D01*
X1170940Y1823720D01*
X1176020Y1826260D01*
X1173480Y1821180D01*
X1176020Y1816100D01*
X1170940Y1818640D01*
X1165860Y1816100D01*
X1187450D02*
X1189990Y1821180D01*
X1187450Y1826260D01*
X1192530Y1823720D01*
X1197610Y1826260D01*
X1195070Y1821180D01*
X1197610Y1816100D01*
X1192530Y1818640D01*
X1187450Y1816100D01*
X1109980Y1695450D02*
X1112520Y1700530D01*
X1109980Y1705610D01*
X1115060Y1703070D01*
X1120140Y1705610D01*
X1117600Y1700530D01*
X1120140Y1695450D01*
X1115060Y1697990D01*
X1109980Y1695450D01*
X1244600Y1311910D02*
Y1309370D01*
X1249680D01*
Y1311910D01*
X1252220D01*
Y1316990D01*
X1249680D01*
Y1319530D01*
X1244600D01*
Y1316990D01*
X1242060D01*
Y1311910D01*
X1244600D01*
X1281430Y485140D02*
X1283970Y490220D01*
X1281430Y495300D01*
X1286510Y492760D01*
X1291590Y495300D01*
X1289050Y490220D01*
X1291590Y485140D01*
X1286510Y487680D01*
X1281430Y485140D01*
Y506730D02*
X1283970Y511810D01*
X1281430Y516890D01*
X1286510Y514350D01*
X1291590Y516890D01*
X1289050Y511810D01*
X1291590Y506730D01*
X1286510Y509270D01*
X1281430Y506730D01*
X200660Y331470D02*
X203200Y336550D01*
X200660Y341630D01*
X205740Y339090D01*
X210820Y341630D01*
X208280Y336550D01*
X210820Y331470D01*
X205740Y334010D01*
X200660Y331470D01*
X158031Y433094D02*
X160571Y438174D01*
X158031Y443254D01*
X163111Y440714D01*
X168191Y443254D01*
X165651Y438174D01*
X168191Y433094D01*
X163111Y435634D01*
X158031Y433094D01*
X157480Y398780D02*
X160020Y403860D01*
X157480Y408940D01*
X162560Y406400D01*
X167640Y408940D01*
X165100Y403860D01*
X167640Y398780D01*
X162560Y401320D01*
X157480Y398780D01*
X167640Y355600D02*
X170180Y360680D01*
X167640Y365760D01*
X172720Y363220D01*
X177800Y365760D01*
X175260Y360680D01*
X177800Y355600D01*
X172720Y358140D01*
X167640Y355600D01*
X1045210Y929640D02*
Y927100D01*
X1050290D01*
Y929640D01*
X1052830D01*
Y934720D01*
X1050290D01*
Y937260D01*
X1045210D01*
Y934720D01*
X1042670D01*
Y929640D01*
X1045210D01*
Y951230D02*
Y948690D01*
X1050290D01*
Y951230D01*
X1052830D01*
Y956310D01*
X1050290D01*
Y958850D01*
X1045210D01*
Y956310D01*
X1042670D01*
Y951230D01*
X1045210D01*
Y972820D02*
Y970280D01*
X1050290D01*
Y972820D01*
X1052830D01*
Y977900D01*
X1050290D01*
Y980440D01*
X1045210D01*
Y977900D01*
X1042670D01*
Y972820D01*
X1045210D01*
Y153670D02*
Y151130D01*
X1050290D01*
Y153670D01*
X1052830D01*
Y158750D01*
X1050290D01*
Y161290D01*
X1045210D01*
Y158750D01*
X1042670D01*
Y153670D01*
X1045210D01*
Y175260D02*
Y172720D01*
X1050290D01*
Y175260D01*
X1052830D01*
Y180340D01*
X1050290D01*
Y182880D01*
X1045210D01*
Y180340D01*
X1042670D01*
Y175260D01*
X1045210D01*
Y195580D02*
Y193040D01*
X1050290D01*
Y195580D01*
X1052830D01*
Y200660D01*
X1050290D01*
Y203200D01*
X1045210D01*
Y200660D01*
X1042670D01*
Y195580D01*
X1045210D01*
X182593Y331982D02*
X185133Y337062D01*
X182593Y342142D01*
X187673Y339602D01*
X192753Y342142D01*
X190213Y337062D01*
X192753Y331982D01*
X187673Y334522D01*
X182593Y331982D01*
X223233D02*
X225773Y337062D01*
X223233Y342142D01*
X228313Y339602D01*
X233393Y342142D01*
X230853Y337062D01*
X233393Y331982D01*
X228313Y334522D01*
X223233Y331982D01*
X200660Y309245D02*
X203200Y314325D01*
X200660Y319405D01*
X205740Y316865D01*
X210820Y319405D01*
X208280Y314325D01*
X210820Y309245D01*
X205740Y311785D01*
X200660Y309245D01*
X187960Y314325D02*
X190500Y319405D01*
X187960Y324485D01*
X193040Y321945D01*
X198120Y324485D01*
X195580Y319405D01*
X198120Y314325D01*
X193040Y316865D01*
X187960Y314325D01*
X257810Y310515D02*
Y307975D01*
X262890D01*
Y310515D01*
X265430D01*
Y315595D01*
X262890D01*
Y318135D01*
X257810D01*
Y315595D01*
X255270D01*
Y310515D01*
X257810D01*
X700510Y619353D02*
X703050Y624433D01*
X700510Y629513D01*
X705590Y626973D01*
X710670Y629513D01*
X708130Y624433D01*
X710670Y619353D01*
X705590Y621893D01*
X700510Y619353D01*
X700300Y640715D02*
X702840Y645795D01*
X700300Y650875D01*
X705380Y648335D01*
X710460Y650875D01*
X707920Y645795D01*
X710460Y640715D01*
X705380Y643255D01*
X700300Y640715D01*
X700554Y1394460D02*
X703094Y1399540D01*
X700554Y1404620D01*
X705634Y1402080D01*
X710714Y1404620D01*
X708174Y1399540D01*
X710714Y1394460D01*
X705634Y1397000D01*
X700554Y1394460D01*
X699770Y1416050D02*
X702310Y1421130D01*
X699770Y1426210D01*
X704850Y1423670D01*
X709930Y1426210D01*
X707390Y1421130D01*
X709930Y1416050D01*
X704850Y1418590D01*
X699770Y1416050D01*
X226060Y1107440D02*
X228600Y1112520D01*
X226060Y1117600D01*
X231140Y1115060D01*
X236220Y1117600D01*
X233680Y1112520D01*
X236220Y1107440D01*
X231140Y1109980D01*
X226060Y1107440D01*
X204470D02*
X207010Y1112520D01*
X204470Y1117600D01*
X209550Y1115060D01*
X214630Y1117600D01*
X212090Y1112520D01*
X214630Y1107440D01*
X209550Y1109980D01*
X204470Y1107440D01*
X182880D02*
X185420Y1112520D01*
X182880Y1117600D01*
X187960Y1115060D01*
X193040Y1117600D01*
X190500Y1112520D01*
X193040Y1107440D01*
X187960Y1109980D01*
X182880Y1107440D01*
X546100Y248920D02*
Y246380D01*
X551180D01*
Y248920D01*
X553720D01*
Y254000D01*
X551180D01*
Y256540D01*
X546100D01*
Y254000D01*
X543560D01*
Y248920D01*
X546100D01*
X525780D02*
Y246380D01*
X530860D01*
Y248920D01*
X533400D01*
Y254000D01*
X530860D01*
Y256540D01*
X525780D01*
Y254000D01*
X523240D01*
Y248920D01*
X525780D01*
X504190D02*
Y246380D01*
X509270D01*
Y248920D01*
X511810D01*
Y254000D01*
X509270D01*
Y256540D01*
X504190D01*
Y254000D01*
X501650D01*
Y248920D01*
X504190D01*
X482600D02*
Y246380D01*
X487680D01*
Y248920D01*
X490220D01*
Y254000D01*
X487680D01*
Y256540D01*
X482600D01*
Y254000D01*
X480060D01*
Y248920D01*
X482600D01*
X459740Y226060D02*
Y223520D01*
X464820D01*
Y226060D01*
X467360D01*
Y231140D01*
X464820D01*
Y233680D01*
X459740D01*
Y231140D01*
X457200D01*
Y226060D01*
X459740D01*
X546100Y1027430D02*
Y1024890D01*
X551180D01*
Y1027430D01*
X553720D01*
Y1032510D01*
X551180D01*
Y1035050D01*
X546100D01*
Y1032510D01*
X543560D01*
Y1027430D01*
X546100D01*
X525780D02*
Y1024890D01*
X530860D01*
Y1027430D01*
X533400D01*
Y1032510D01*
X530860D01*
Y1035050D01*
X525780D01*
Y1032510D01*
X523240D01*
Y1027430D01*
X525780D01*
X504190D02*
Y1024890D01*
X509270D01*
Y1027430D01*
X511810D01*
Y1032510D01*
X509270D01*
Y1035050D01*
X504190D01*
Y1032510D01*
X501650D01*
Y1027430D01*
X504190D01*
X482600D02*
Y1024890D01*
X487680D01*
Y1027430D01*
X490220D01*
Y1032510D01*
X487680D01*
Y1035050D01*
X482600D01*
Y1032510D01*
X480060D01*
Y1027430D01*
X482600D01*
X422910Y346710D02*
X425450Y351790D01*
X422910Y356870D01*
X427990Y354330D01*
X433070Y356870D01*
X430530Y351790D01*
X433070Y346710D01*
X427990Y349250D01*
X422910Y346710D01*
Y368300D02*
X425450Y373380D01*
X422910Y378460D01*
X427990Y375920D01*
X433070Y378460D01*
X430530Y373380D01*
X433070Y368300D01*
X427990Y370840D01*
X422910Y368300D01*
Y412115D02*
X425450Y417195D01*
X422910Y422275D01*
X427990Y419735D01*
X433070Y422275D01*
X430530Y417195D01*
X433070Y412115D01*
X427990Y414655D01*
X422910Y412115D01*
Y391160D02*
X425450Y396240D01*
X422910Y401320D01*
X427990Y398780D01*
X433070Y401320D01*
X430530Y396240D01*
X433070Y391160D01*
X427990Y393700D01*
X422910Y391160D01*
X443230Y1230630D02*
Y1228090D01*
X448310D01*
Y1230630D01*
X450850D01*
Y1235710D01*
X448310D01*
Y1238250D01*
X443230D01*
Y1235710D01*
X440690D01*
Y1230630D01*
X443230D01*
X422910Y1187450D02*
X425450Y1192530D01*
X422910Y1197610D01*
X427990Y1195070D01*
X433070Y1197610D01*
X430530Y1192530D01*
X433070Y1187450D01*
X427990Y1189990D01*
X422910Y1187450D01*
Y1165860D02*
X425450Y1170940D01*
X422910Y1176020D01*
X427990Y1173480D01*
X433070Y1176020D01*
X430530Y1170940D01*
X433070Y1165860D01*
X427990Y1168400D01*
X422910Y1165860D01*
Y1122680D02*
X425450Y1127760D01*
X422910Y1132840D01*
X427990Y1130300D01*
X433070Y1132840D01*
X430530Y1127760D01*
X433070Y1122680D01*
X427990Y1125220D01*
X422910Y1122680D01*
Y1144270D02*
X425450Y1149350D01*
X422910Y1154430D01*
X427990Y1151890D01*
X433070Y1154430D01*
X430530Y1149350D01*
X433070Y1144270D01*
X427990Y1146810D01*
X422910Y1144270D01*
X471170Y1170940D02*
X473710Y1176020D01*
X471170Y1181100D01*
X476250Y1178560D01*
X481330Y1181100D01*
X478790Y1176020D01*
X481330Y1170940D01*
X476250Y1173480D01*
X471170Y1170940D01*
X474078Y1182616D02*
X476618Y1187695D01*
X474078Y1192775D01*
X479158Y1190236D01*
X484238Y1192775D01*
X481698Y1187695D01*
X484238Y1182616D01*
X479158Y1185155D01*
X474078Y1182616D01*
X434340Y1489075D02*
X436880Y1494155D01*
X434340Y1499235D01*
X439420Y1496695D01*
X444500Y1499235D01*
X441960Y1494155D01*
X444500Y1489075D01*
X439420Y1491615D01*
X434340Y1489075D01*
X420370D02*
X422910Y1494155D01*
X420370Y1499235D01*
X425450Y1496695D01*
X430530Y1499235D01*
X427990Y1494155D01*
X430530Y1489075D01*
X425450Y1491615D01*
X420370Y1489075D01*
X406400D02*
X408940Y1494155D01*
X406400Y1499235D01*
X411480Y1496695D01*
X416560Y1499235D01*
X414020Y1494155D01*
X416560Y1489075D01*
X411480Y1491615D01*
X406400Y1489075D01*
X392430D02*
X394970Y1494155D01*
X392430Y1499235D01*
X397510Y1496695D01*
X402590Y1499235D01*
X400050Y1494155D01*
X402590Y1489075D01*
X397510Y1491615D01*
X392430Y1489075D01*
X448310D02*
X450850Y1494155D01*
X448310Y1499235D01*
X453390Y1496695D01*
X458470Y1499235D01*
X455930Y1494155D01*
X458470Y1489075D01*
X453390Y1491615D01*
X448310Y1489075D01*
X429260Y1315720D02*
Y1313180D01*
X434340D01*
Y1315720D01*
X436880D01*
Y1320800D01*
X434340D01*
Y1323340D01*
X429260D01*
Y1320800D01*
X426720D01*
Y1315720D01*
X429260D01*
X335280Y1497330D02*
X337820Y1502410D01*
X335280Y1507490D01*
X340360Y1504950D01*
X345440Y1507490D01*
X342900Y1502410D01*
X345440Y1497330D01*
X340360Y1499870D01*
X335280Y1497330D01*
X31750Y1432560D02*
X34290Y1437640D01*
X31750Y1442720D01*
X36830Y1440180D01*
X41910Y1442720D01*
X39370Y1437640D01*
X41910Y1432560D01*
X36830Y1435100D01*
X31750Y1432560D01*
X64770Y1424940D02*
X67310Y1430020D01*
X64770Y1435100D01*
X69850Y1432560D01*
X74930Y1435100D01*
X72390Y1430020D01*
X74930Y1424940D01*
X69850Y1427480D01*
X64770Y1424940D01*
X31750Y1488440D02*
X34290Y1493520D01*
X31750Y1498600D01*
X36830Y1496060D01*
X41910Y1498600D01*
X39370Y1493520D01*
X41910Y1488440D01*
X36830Y1490980D01*
X31750Y1488440D01*
Y1474470D02*
X34290Y1479550D01*
X31750Y1484630D01*
X36830Y1482090D01*
X41910Y1484630D01*
X39370Y1479550D01*
X41910Y1474470D01*
X36830Y1477010D01*
X31750Y1474470D01*
Y1460500D02*
X34290Y1465580D01*
X31750Y1470660D01*
X36830Y1468120D01*
X41910Y1470660D01*
X39370Y1465580D01*
X41910Y1460500D01*
X36830Y1463040D01*
X31750Y1460500D01*
Y1446530D02*
X34290Y1451610D01*
X31750Y1456690D01*
X36830Y1454150D01*
X41910Y1456690D01*
X39370Y1451610D01*
X41910Y1446530D01*
X36830Y1449070D01*
X31750Y1446530D01*
X450850Y1316990D02*
Y1314450D01*
X455930D01*
Y1316990D01*
X458470D01*
Y1322070D01*
X455930D01*
Y1324610D01*
X450850D01*
Y1322070D01*
X448310D01*
Y1316990D01*
X450850D01*
X497840Y1196340D02*
X500380Y1201420D01*
X497840Y1206500D01*
X502920Y1203960D01*
X508000Y1206500D01*
X505460Y1201420D01*
X508000Y1196340D01*
X502920Y1198880D01*
X497840Y1196340D01*
X476250D02*
X478790Y1201420D01*
X476250Y1206500D01*
X481330Y1203960D01*
X486410Y1206500D01*
X483870Y1201420D01*
X486410Y1196340D01*
X481330Y1198880D01*
X476250Y1196340D01*
X420370Y1301750D02*
Y1299210D01*
X425450D01*
Y1301750D01*
X427990D01*
Y1306830D01*
X425450D01*
Y1309370D01*
X420370D01*
Y1306830D01*
X417830D01*
Y1301750D01*
X420370D01*
X410845Y1283970D02*
Y1281430D01*
X415925D01*
Y1283970D01*
X418465D01*
Y1289050D01*
X415925D01*
Y1291590D01*
X410845D01*
Y1289050D01*
X408305D01*
Y1283970D01*
X410845D01*
X1144270Y1111250D02*
Y1108710D01*
X1149350D01*
Y1111250D01*
X1151890D01*
Y1116330D01*
X1149350D01*
Y1118870D01*
X1144270D01*
Y1116330D01*
X1141730D01*
Y1111250D01*
X1144270D01*
X1179830Y1131570D02*
Y1129030D01*
X1184910D01*
Y1131570D01*
X1187450D01*
Y1136650D01*
X1184910D01*
Y1139190D01*
X1179830D01*
Y1136650D01*
X1177290D01*
Y1131570D01*
X1179830D01*
X1191260Y941070D02*
Y938530D01*
X1196340D01*
Y941070D01*
X1198880D01*
Y946150D01*
X1196340D01*
Y948690D01*
X1191260D01*
Y946150D01*
X1188720D01*
Y941070D01*
X1191260D01*
X1179830Y867410D02*
Y864870D01*
X1184910D01*
Y867410D01*
X1187450D01*
Y872490D01*
X1184910D01*
Y875030D01*
X1179830D01*
Y872490D01*
X1177290D01*
Y867410D01*
X1179830D01*
X854710Y806450D02*
Y803910D01*
X859790D01*
Y806450D01*
X862330D01*
Y811530D01*
X859790D01*
Y814070D01*
X854710D01*
Y811530D01*
X852170D01*
Y806450D01*
X854710D01*
X842010Y853440D02*
Y850900D01*
X847090D01*
Y853440D01*
X849630D01*
Y858520D01*
X847090D01*
Y861060D01*
X842010D01*
Y858520D01*
X839470D01*
Y853440D01*
X842010D01*
X773123Y886635D02*
X775663Y891714D01*
X773123Y896795D01*
X778203Y894255D01*
X783283Y896795D01*
X780743Y891714D01*
X783283Y886635D01*
X778203Y889174D01*
X773123Y886635D01*
X733309Y929640D02*
X735849Y934720D01*
X733309Y939800D01*
X738389Y937260D01*
X743469Y939800D01*
X740929Y934720D01*
X743469Y929640D01*
X738389Y932180D01*
X733309Y929640D01*
X701040Y698500D02*
X703580Y703580D01*
X701040Y708660D01*
X706120Y706120D01*
X711200Y708660D01*
X708660Y703580D01*
X711200Y698500D01*
X706120Y701040D01*
X701040Y698500D01*
X687070Y675640D02*
Y673100D01*
X692150D01*
Y675640D01*
X694690D01*
Y680720D01*
X692150D01*
Y683260D01*
X687070D01*
Y680720D01*
X684530D01*
Y675640D01*
X687070D01*
X700353Y656967D02*
X702893Y662047D01*
X700353Y667127D01*
X705433Y664587D01*
X710513Y667127D01*
X707973Y662047D01*
X710513Y656967D01*
X705433Y659507D01*
X700353Y656967D01*
X1242188Y561340D02*
Y558800D01*
X1247268D01*
Y561340D01*
X1249808D01*
Y566420D01*
X1247268D01*
Y568960D01*
X1242188D01*
Y566420D01*
X1239648D01*
Y561340D01*
X1242188D01*
X252730Y346710D02*
Y344170D01*
X257810D01*
Y346710D01*
X260350D01*
Y351790D01*
X257810D01*
Y354330D01*
X252730D01*
Y351790D01*
X250190D01*
Y346710D01*
X252730D01*
X394970Y1278890D02*
Y1276350D01*
X400050D01*
Y1278890D01*
X402590D01*
Y1283970D01*
X400050D01*
Y1286510D01*
X394970D01*
Y1283970D01*
X392430D01*
Y1278890D01*
X394970D01*
X533400Y1075690D02*
X535940Y1080770D01*
X533400Y1085850D01*
X538480Y1083310D01*
X543560Y1085850D01*
X541020Y1080770D01*
X543560Y1075690D01*
X538480Y1078230D01*
X533400Y1075690D01*
X193040Y214630D02*
Y212090D01*
X198120D01*
Y214630D01*
X200660D01*
Y219710D01*
X198120D01*
Y222250D01*
X193040D01*
Y219710D01*
X190500D01*
Y214630D01*
X193040D01*
X185420Y228600D02*
Y226060D01*
X190500D01*
Y228600D01*
X193040D01*
Y233680D01*
X190500D01*
Y236220D01*
X185420D01*
Y233680D01*
X182880D01*
Y228600D01*
X185420D01*
X148590Y270510D02*
Y267970D01*
X153670D01*
Y270510D01*
X156210D01*
Y275590D01*
X153670D01*
Y278130D01*
X148590D01*
Y275590D01*
X146050D01*
Y270510D01*
X148590D01*
X162560Y256540D02*
Y254000D01*
X167640D01*
Y256540D01*
X170180D01*
Y261620D01*
X167640D01*
Y264160D01*
X162560D01*
Y261620D01*
X160020D01*
Y256540D01*
X162560D01*
X209550Y271780D02*
X212090Y276860D01*
X209550Y281940D01*
X214630Y279400D01*
X219710Y281940D01*
X217170Y276860D01*
X219710Y271780D01*
X214630Y274320D01*
X209550Y271780D01*
X172720Y240030D02*
Y237490D01*
X177800D01*
Y240030D01*
X180340D01*
Y245110D01*
X177800D01*
Y247650D01*
X172720D01*
Y245110D01*
X170180D01*
Y240030D01*
X172720D01*
X252730Y276860D02*
Y274320D01*
X257810D01*
Y276860D01*
X260350D01*
Y281940D01*
X257810D01*
Y284480D01*
X252730D01*
Y281940D01*
X250190D01*
Y276860D01*
X252730D01*
X257239Y295211D02*
Y292671D01*
X262319D01*
Y295211D01*
X264859D01*
Y300291D01*
X262319D01*
Y302831D01*
X257239D01*
Y300291D01*
X254699D01*
Y295211D01*
X257239D01*
X511579Y304165D02*
X514119Y309245D01*
X511579Y314325D01*
X516659Y311785D01*
X521739Y314325D01*
X519199Y309245D01*
X521739Y304165D01*
X516659Y306705D01*
X511579Y304165D01*
X312420Y270510D02*
X314960Y275590D01*
X312420Y280670D01*
X317500Y278130D01*
X322580Y280670D01*
X320040Y275590D01*
X322580Y270510D01*
X317500Y273050D01*
X312420Y270510D01*
X532130Y298450D02*
X534670Y303530D01*
X532130Y308610D01*
X537210Y306070D01*
X542290Y308610D01*
X539750Y303530D01*
X542290Y298450D01*
X537210Y300990D01*
X532130Y298450D01*
X523240Y307340D02*
X525780Y312420D01*
X523240Y317500D01*
X528320Y314960D01*
X533400Y317500D01*
X530860Y312420D01*
X533400Y307340D01*
X528320Y309880D01*
X523240Y307340D01*
X198848Y278726D02*
X201388Y283806D01*
X198848Y288886D01*
X203928Y286346D01*
X209008Y288886D01*
X206468Y283806D01*
X209008Y278726D01*
X203928Y281266D01*
X198848Y278726D01*
X299842Y207132D02*
X302382Y212212D01*
X299842Y217292D01*
X304922Y214752D01*
X310002Y217292D01*
X307462Y212212D01*
X310002Y207132D01*
X304922Y209672D01*
X299842Y207132D01*
X236220Y285750D02*
Y283210D01*
X241300D01*
Y285750D01*
X243840D01*
Y290830D01*
X241300D01*
Y293370D01*
X236220D01*
Y290830D01*
X233680D01*
Y285750D01*
X236220D01*
X200660Y298450D02*
X203200Y303530D01*
X200660Y308610D01*
X205740Y306070D01*
X210820Y308610D01*
X208280Y303530D01*
X210820Y298450D01*
X205740Y300990D01*
X200660Y298450D01*
X275590Y327660D02*
Y325120D01*
X280670D01*
Y327660D01*
X283210D01*
Y332740D01*
X280670D01*
Y335280D01*
X275590D01*
Y332740D01*
X273050D01*
Y327660D01*
X275590D01*
X474086Y409312D02*
X476626Y414392D01*
X474086Y419472D01*
X479165Y416932D01*
X484245Y419472D01*
X481706Y414392D01*
X484245Y409312D01*
X479165Y411852D01*
X474086Y409312D01*
X473710Y379730D02*
X476250Y384810D01*
X473710Y389890D01*
X478790Y387350D01*
X483870Y389890D01*
X481330Y384810D01*
X483870Y379730D01*
X478790Y382270D01*
X473710Y379730D01*
Y1155700D02*
X476250Y1160780D01*
X473710Y1165860D01*
X478790Y1163320D01*
X483870Y1165860D01*
X481330Y1160780D01*
X483870Y1155700D01*
X478790Y1158240D01*
X473710Y1155700D01*
X524510Y1087120D02*
X527050Y1092200D01*
X524510Y1097280D01*
X529590Y1094740D01*
X534670Y1097280D01*
X532130Y1092200D01*
X534670Y1087120D01*
X529590Y1089660D01*
X524510Y1087120D01*
X471154Y395250D02*
X473694Y400330D01*
X471154Y405410D01*
X476234Y402870D01*
X481314Y405410D01*
X478774Y400330D01*
X481314Y395250D01*
X476234Y397790D01*
X471154Y395250D01*
X96520Y1022350D02*
X99060Y1027430D01*
X96520Y1032510D01*
X101600Y1029970D01*
X106680Y1032510D01*
X104140Y1027430D01*
X106680Y1022350D01*
X101600Y1024890D01*
X96520Y1022350D01*
X132080D02*
X134620Y1027430D01*
X132080Y1032510D01*
X137160Y1029970D01*
X142240Y1032510D01*
X139700Y1027430D01*
X142240Y1022350D01*
X137160Y1024890D01*
X132080Y1022350D01*
X87630Y1010920D02*
X90170Y1016000D01*
X87630Y1021080D01*
X92710Y1018540D01*
X97790Y1021080D01*
X95250Y1016000D01*
X97790Y1010920D01*
X92710Y1013460D01*
X87630Y1010920D01*
X123190D02*
X125730Y1016000D01*
X123190Y1021080D01*
X128270Y1018540D01*
X133350Y1021080D01*
X130810Y1016000D01*
X133350Y1010920D01*
X128270Y1013460D01*
X123190Y1010920D01*
X114300Y1022350D02*
X116840Y1027430D01*
X114300Y1032510D01*
X119380Y1029970D01*
X124460Y1032510D01*
X121920Y1027430D01*
X124460Y1022350D01*
X119380Y1024890D01*
X114300Y1022350D01*
X105410Y1010920D02*
X107950Y1016000D01*
X105410Y1021080D01*
X110490Y1018540D01*
X115570Y1021080D01*
X113030Y1016000D01*
X115570Y1010920D01*
X110490Y1013460D01*
X105410Y1010920D01*
X113030Y934720D02*
X115570Y939800D01*
X113030Y944880D01*
X118110Y942340D01*
X123190Y944880D01*
X120650Y939800D01*
X123190Y934720D01*
X118110Y937260D01*
X113030Y934720D01*
X140545Y945426D02*
X143085Y950506D01*
X140545Y955586D01*
X145625Y953046D01*
X150705Y955586D01*
X148165Y950506D01*
X150705Y945426D01*
X145625Y947966D01*
X140545Y945426D01*
X121920Y946150D02*
X124460Y951230D01*
X121920Y956310D01*
X127000Y953770D01*
X132080Y956310D01*
X129540Y951230D01*
X132080Y946150D01*
X127000Y948690D01*
X121920Y946150D01*
X130810Y934720D02*
X133350Y939800D01*
X130810Y944880D01*
X135890Y942340D01*
X140970Y944880D01*
X138430Y939800D01*
X140970Y934720D01*
X135890Y937260D01*
X130810Y934720D01*
X104140Y946150D02*
X106680Y951230D01*
X104140Y956310D01*
X109220Y953770D01*
X114300Y956310D01*
X111760Y951230D01*
X114300Y946150D01*
X109220Y948690D01*
X104140Y946150D01*
X95250Y934720D02*
X97790Y939800D01*
X95250Y944880D01*
X100330Y942340D01*
X105410Y944880D01*
X102870Y939800D01*
X105410Y934720D01*
X100330Y937260D01*
X95250Y934720D01*
X229870Y521970D02*
X232410Y527050D01*
X229870Y532130D01*
X234950Y529590D01*
X240030Y532130D01*
X237490Y527050D01*
X240030Y521970D01*
X234950Y524510D01*
X229870Y521970D01*
Y508000D02*
X232410Y513080D01*
X229870Y518160D01*
X234950Y515620D01*
X240030Y518160D01*
X237490Y513080D01*
X240030Y508000D01*
X234950Y510540D01*
X229870Y508000D01*
X231140Y491490D02*
X233680Y496570D01*
X231140Y501650D01*
X236220Y499110D01*
X241300Y501650D01*
X238760Y496570D01*
X241300Y491490D01*
X236220Y494030D01*
X231140Y491490D01*
X232410Y541020D02*
X234950Y546100D01*
X232410Y551180D01*
X237490Y548640D01*
X242570Y551180D01*
X240030Y546100D01*
X242570Y541020D01*
X237490Y543560D01*
X232410Y541020D01*
X224790Y557530D02*
X227330Y562610D01*
X224790Y567690D01*
X229870Y565150D01*
X234950Y567690D01*
X232410Y562610D01*
X234950Y557530D01*
X229870Y560070D01*
X224790Y557530D01*
X228600Y576580D02*
X231140Y581660D01*
X228600Y586740D01*
X233680Y584200D01*
X238760Y586740D01*
X236220Y581660D01*
X238760Y576580D01*
X233680Y579120D01*
X228600Y576580D01*
X290830Y511810D02*
X293370Y516890D01*
X290830Y521970D01*
X295910Y519430D01*
X300990Y521970D01*
X298450Y516890D01*
X300990Y511810D01*
X295910Y514350D01*
X290830Y511810D01*
X274320Y521970D02*
X276860Y527050D01*
X274320Y532130D01*
X279400Y529590D01*
X284480Y532130D01*
X281940Y527050D01*
X284480Y521970D01*
X279400Y524510D01*
X274320Y521970D01*
X287020Y532130D02*
X289560Y537210D01*
X287020Y542290D01*
X292100Y539750D01*
X297180Y542290D01*
X294640Y537210D01*
X297180Y532130D01*
X292100Y534670D01*
X287020Y532130D01*
X274320Y541020D02*
X276860Y546100D01*
X274320Y551180D01*
X279400Y548640D01*
X284480Y551180D01*
X281940Y546100D01*
X284480Y541020D01*
X279400Y543560D01*
X274320Y541020D01*
X285750Y553720D02*
X288290Y558800D01*
X285750Y563880D01*
X290830Y561340D01*
X295910Y563880D01*
X293370Y558800D01*
X295910Y553720D01*
X290830Y556260D01*
X285750Y553720D01*
X275590Y566420D02*
X278130Y571500D01*
X275590Y576580D01*
X280670Y574040D01*
X285750Y576580D01*
X283210Y571500D01*
X285750Y566420D01*
X280670Y568960D01*
X275590Y566420D01*
X429260Y720090D02*
X431800Y725170D01*
X429260Y730250D01*
X434340Y727710D01*
X439420Y730250D01*
X436880Y725170D01*
X439420Y720090D01*
X434340Y722630D01*
X429260Y720090D01*
X426720Y695960D02*
X429260Y701040D01*
X426720Y706120D01*
X431800Y703580D01*
X436880Y706120D01*
X434340Y701040D01*
X436880Y695960D01*
X431800Y698500D01*
X426720Y695960D01*
X713740Y716280D02*
X716280Y721360D01*
X713740Y726440D01*
X718820Y723900D01*
X723900Y726440D01*
X721360Y721360D01*
X723900Y716280D01*
X718820Y718820D01*
X713740Y716280D01*
X213360Y1018540D02*
X215900Y1023620D01*
X213360Y1028700D01*
X218440Y1026160D01*
X223520Y1028700D01*
X220980Y1023620D01*
X223520Y1018540D01*
X218440Y1021080D01*
X213360Y1018540D01*
X205740Y1004570D02*
X208280Y1009650D01*
X205740Y1014730D01*
X210820Y1012190D01*
X215900Y1014730D01*
X213360Y1009650D01*
X215900Y1004570D01*
X210820Y1007110D01*
X205740Y1004570D01*
X222250Y1005840D02*
X224790Y1010920D01*
X222250Y1016000D01*
X227330Y1013460D01*
X232410Y1016000D01*
X229870Y1010920D01*
X232410Y1005840D01*
X227330Y1008380D01*
X222250Y1005840D01*
X220980Y1032510D02*
X223520Y1037590D01*
X220980Y1042670D01*
X226060Y1040130D01*
X231140Y1042670D01*
X228600Y1037590D01*
X231140Y1032510D01*
X226060Y1035050D01*
X220980Y1032510D01*
X210820Y1042670D02*
X213360Y1047750D01*
X210820Y1052830D01*
X215900Y1050290D01*
X220980Y1052830D01*
X218440Y1047750D01*
X220980Y1042670D01*
X215900Y1045210D01*
X210820Y1042670D01*
X222250Y1052830D02*
X224790Y1057910D01*
X222250Y1062990D01*
X227330Y1060450D01*
X232410Y1062990D01*
X229870Y1057910D01*
X232410Y1052830D01*
X227330Y1055370D01*
X222250Y1052830D01*
X168910Y1041400D02*
X171450Y1046480D01*
X168910Y1051560D01*
X173990Y1049020D01*
X179070Y1051560D01*
X176530Y1046480D01*
X179070Y1041400D01*
X173990Y1043940D01*
X168910Y1041400D01*
X171450Y1026160D02*
X173990Y1031240D01*
X171450Y1036320D01*
X176530Y1033780D01*
X181610Y1036320D01*
X179070Y1031240D01*
X181610Y1026160D01*
X176530Y1028700D01*
X171450Y1026160D01*
X134620Y883920D02*
Y881380D01*
X139700D01*
Y883920D01*
X142240D01*
Y889000D01*
X139700D01*
Y891540D01*
X134620D01*
Y889000D01*
X132080D01*
Y883920D01*
X134620D01*
X255270Y985520D02*
X257810Y990600D01*
X255270Y995680D01*
X260350Y993140D01*
X265430Y995680D01*
X262890Y990600D01*
X265430Y985520D01*
X260350Y988060D01*
X255270Y985520D01*
X256540Y1000760D02*
X259080Y1005840D01*
X256540Y1010920D01*
X261620Y1008380D01*
X266700Y1010920D01*
X264160Y1005840D01*
X266700Y1000760D01*
X261620Y1003300D01*
X256540Y1000760D01*
X251460Y1013460D02*
X254000Y1018540D01*
X251460Y1023620D01*
X256540Y1021080D01*
X261620Y1023620D01*
X259080Y1018540D01*
X261620Y1013460D01*
X256540Y1016000D01*
X251460Y1013460D01*
X254000Y1027430D02*
X256540Y1032510D01*
X254000Y1037590D01*
X259080Y1035050D01*
X264160Y1037590D01*
X261620Y1032510D01*
X264160Y1027430D01*
X259080Y1029970D01*
X254000Y1027430D01*
X255270Y1041400D02*
X257810Y1046480D01*
X255270Y1051560D01*
X260350Y1049020D01*
X265430Y1051560D01*
X262890Y1046480D01*
X265430Y1041400D01*
X260350Y1043940D01*
X255270Y1041400D01*
X262890Y1052830D02*
X265430Y1057910D01*
X262890Y1062990D01*
X267970Y1060450D01*
X273050Y1062990D01*
X270510Y1057910D01*
X273050Y1052830D01*
X267970Y1055370D01*
X262890Y1052830D01*
X1261110Y567690D02*
X1263650Y572770D01*
X1261110Y577850D01*
X1266190Y575310D01*
X1271270Y577850D01*
X1268730Y572770D01*
X1271270Y567690D01*
X1266190Y570230D01*
X1261110Y567690D01*
X1201420Y549910D02*
X1203960Y554990D01*
X1201420Y560070D01*
X1206500Y557530D01*
X1211580Y560070D01*
X1209040Y554990D01*
X1211580Y549910D01*
X1206500Y552450D01*
X1201420Y549910D01*
Y563880D02*
X1203960Y568960D01*
X1201420Y574040D01*
X1206500Y571500D01*
X1211580Y574040D01*
X1209040Y568960D01*
X1211580Y563880D01*
X1206500Y566420D01*
X1201420Y563880D01*
X146050Y1174750D02*
X148590Y1179830D01*
X146050Y1184910D01*
X151130Y1182370D01*
X156210Y1184910D01*
X153670Y1179830D01*
X156210Y1174750D01*
X151130Y1177290D01*
X146050Y1174750D01*
X288930Y1161556D02*
X291470Y1166636D01*
X288930Y1171716D01*
X294010Y1169176D01*
X299090Y1171716D01*
X296550Y1166636D01*
X299090Y1161556D01*
X294010Y1164096D01*
X288930Y1161556D01*
X303844Y1157391D02*
X306384Y1162471D01*
X303844Y1167551D01*
X308924Y1165011D01*
X314004Y1167551D01*
X311464Y1162471D01*
X314004Y1157391D01*
X308924Y1159931D01*
X303844Y1157391D01*
X1143000Y934720D02*
Y932180D01*
X1148080D01*
Y934720D01*
X1150620D01*
Y939800D01*
X1148080D01*
Y942340D01*
X1143000D01*
Y939800D01*
X1140460D01*
Y934720D01*
X1143000D01*
X927100Y168910D02*
Y166370D01*
X932180D01*
Y168910D01*
X934720D01*
Y173990D01*
X932180D01*
Y176530D01*
X927100D01*
Y173990D01*
X924560D01*
Y168910D01*
X927100D01*
X941070Y223520D02*
Y220980D01*
X946150D01*
Y223520D01*
X948690D01*
Y228600D01*
X946150D01*
Y231140D01*
X941070D01*
Y228600D01*
X938530D01*
Y223520D01*
X941070D01*
X764055Y127485D02*
X766595Y132565D01*
X764055Y137645D01*
X769135Y135105D01*
X774215Y137645D01*
X771675Y132565D01*
X774215Y127485D01*
X769135Y130025D01*
X764055Y127485D01*
X720090Y99695D02*
X722630Y104775D01*
X720090Y109855D01*
X725170Y107315D01*
X730250Y109855D01*
X727710Y104775D01*
X730250Y99695D01*
X725170Y102235D01*
X720090Y99695D01*
X768633Y106174D02*
X771173Y111255D01*
X768633Y116334D01*
X773714Y113794D01*
X778793Y116334D01*
X776254Y111255D01*
X778793Y106174D01*
X773714Y108715D01*
X768633Y106174D01*
X805180Y95250D02*
Y92710D01*
X810260D01*
Y95250D01*
X812800D01*
Y100330D01*
X810260D01*
Y102870D01*
X805180D01*
Y100330D01*
X802640D01*
Y95250D01*
X805180D01*
X762000Y137160D02*
X764540Y142240D01*
X762000Y147320D01*
X767080Y144780D01*
X772160Y147320D01*
X769620Y142240D01*
X772160Y137160D01*
X767080Y139700D01*
X762000Y137160D01*
X254000Y434340D02*
X256540Y439420D01*
X254000Y444500D01*
X259080Y441960D01*
X264160Y444500D01*
X261620Y439420D01*
X264160Y434340D01*
X259080Y436880D01*
X254000Y434340D01*
Y415290D02*
X256540Y420370D01*
X254000Y425450D01*
X259080Y422910D01*
X264160Y425450D01*
X261620Y420370D01*
X264160Y415290D01*
X259080Y417830D01*
X254000Y415290D01*
X227330Y466090D02*
X229870Y471170D01*
X227330Y476250D01*
X232410Y473710D01*
X237490Y476250D01*
X234950Y471170D01*
X237490Y466090D01*
X232410Y468630D01*
X227330Y466090D01*
Y448310D02*
X229870Y453390D01*
X227330Y458470D01*
X232410Y455930D01*
X237490Y458470D01*
X234950Y453390D01*
X237490Y448310D01*
X232410Y450850D01*
X227330Y448310D01*
X196850Y645160D02*
X199390Y650240D01*
X196850Y655320D01*
X201930Y652780D01*
X207010Y655320D01*
X204470Y650240D01*
X207010Y645160D01*
X201930Y647700D01*
X196850Y645160D01*
X713740Y177800D02*
X716280Y182880D01*
X713740Y187960D01*
X718820Y185420D01*
X723900Y187960D01*
X721360Y182880D01*
X723900Y177800D01*
X718820Y180340D01*
X713740Y177800D01*
X723900Y153670D02*
X726440Y158750D01*
X723900Y163830D01*
X728980Y161290D01*
X734060Y163830D01*
X731520Y158750D01*
X734060Y153670D01*
X728980Y156210D01*
X723900Y153670D01*
X715241Y955271D02*
X717781Y960351D01*
X715241Y965431D01*
X720321Y962891D01*
X725401Y965431D01*
X722861Y960351D01*
X725401Y955271D01*
X720321Y957811D01*
X715241Y955271D01*
X764055Y903455D02*
X766595Y908535D01*
X764055Y913615D01*
X769135Y911075D01*
X774215Y913615D01*
X771675Y908535D01*
X774215Y903455D01*
X769135Y905995D01*
X764055Y903455D01*
X746125Y923290D02*
X748665Y928370D01*
X746125Y933450D01*
X751205Y930910D01*
X756285Y933450D01*
X753745Y928370D01*
X756285Y923290D01*
X751205Y925830D01*
X746125Y923290D01*
X897236Y948074D02*
Y945534D01*
X902316D01*
Y948074D01*
X904856D01*
Y953154D01*
X902316D01*
Y955694D01*
X897236D01*
Y953154D01*
X894696D01*
Y948074D01*
X897236D01*
X941070Y1013460D02*
Y1010920D01*
X946150D01*
Y1013460D01*
X948690D01*
Y1018540D01*
X946150D01*
Y1021080D01*
X941070D01*
Y1018540D01*
X938530D01*
Y1013460D01*
X941070D01*
X720090Y875665D02*
X722630Y880745D01*
X720090Y885825D01*
X725170Y883285D01*
X730250Y885825D01*
X727710Y880745D01*
X730250Y875665D01*
X725170Y878205D01*
X720090Y875665D01*
X762000Y913130D02*
X764540Y918210D01*
X762000Y923290D01*
X767080Y920750D01*
X772160Y923290D01*
X769620Y918210D01*
X772160Y913130D01*
X767080Y915670D01*
X762000Y913130D01*
X946150Y535940D02*
Y533400D01*
X951230D01*
Y535940D01*
X953770D01*
Y541020D01*
X951230D01*
Y543560D01*
X946150D01*
Y541020D01*
X943610D01*
Y535940D01*
X946150D01*
X628650Y670560D02*
X631190Y675640D01*
X628650Y680720D01*
X633730Y678180D01*
X638810Y680720D01*
X636270Y675640D01*
X638810Y670560D01*
X633730Y673100D01*
X628650Y670560D01*
X684530Y812800D02*
X687070Y817880D01*
X684530Y822960D01*
X689610Y820420D01*
X694690Y822960D01*
X692150Y817880D01*
X694690Y812800D01*
X689610Y815340D01*
X684530Y812800D01*
X1168400Y1178560D02*
X1170940Y1183640D01*
X1168400Y1188720D01*
X1173480Y1186180D01*
X1178560Y1188720D01*
X1176020Y1183640D01*
X1178560Y1178560D01*
X1173480Y1181100D01*
X1168400Y1178560D01*
X1214120Y753110D02*
Y750570D01*
X1219200D01*
Y753110D01*
X1221740D01*
Y758190D01*
X1219200D01*
Y760730D01*
X1214120D01*
Y758190D01*
X1211580D01*
Y753110D01*
X1214120D01*
X1056640Y554990D02*
Y552450D01*
X1061720D01*
Y554990D01*
X1064260D01*
Y560070D01*
X1061720D01*
Y562610D01*
X1056640D01*
Y560070D01*
X1054100D01*
Y554990D01*
X1056640D01*
X1218903Y665480D02*
X1221443Y670560D01*
X1218903Y675640D01*
X1223983Y673100D01*
X1229063Y675640D01*
X1226523Y670560D01*
X1229063Y665480D01*
X1223983Y668020D01*
X1218903Y665480D01*
X1157643Y484543D02*
Y482003D01*
X1162723D01*
Y484543D01*
X1165263D01*
Y489623D01*
X1162723D01*
Y492163D01*
X1157643D01*
Y489623D01*
X1155103D01*
Y484543D01*
X1157643D01*
X1106170Y533400D02*
Y530860D01*
X1111250D01*
Y533400D01*
X1113790D01*
Y538480D01*
X1111250D01*
Y541020D01*
X1106170D01*
Y538480D01*
X1103630D01*
Y533400D01*
X1106170D01*
X1214120Y770890D02*
X1216660Y775970D01*
X1214120Y781050D01*
X1219200Y778510D01*
X1224280Y781050D01*
X1221740Y775970D01*
X1224280Y770890D01*
X1219200Y773430D01*
X1214120Y770890D01*
X1027430Y821690D02*
Y819150D01*
X1032510D01*
Y821690D01*
X1035050D01*
Y826770D01*
X1032510D01*
Y829310D01*
X1027430D01*
Y826770D01*
X1024890D01*
Y821690D01*
X1027430D01*
X1052830Y778510D02*
Y775970D01*
X1057910D01*
Y778510D01*
X1060450D01*
Y783590D01*
X1057910D01*
Y786130D01*
X1052830D01*
Y783590D01*
X1050290D01*
Y778510D01*
X1052830D01*
X1007110Y1069340D02*
Y1066800D01*
X1012190D01*
Y1069340D01*
X1014730D01*
Y1074420D01*
X1012190D01*
Y1076960D01*
X1007110D01*
Y1074420D01*
X1004570D01*
Y1069340D01*
X1007110D01*
X1005840Y292100D02*
Y289560D01*
X1010920D01*
Y292100D01*
X1013460D01*
Y297180D01*
X1010920D01*
Y299720D01*
X1005840D01*
Y297180D01*
X1003300D01*
Y292100D01*
X1005840D01*
X609600Y842010D02*
X612140Y847090D01*
X609600Y852170D01*
X614680Y849630D01*
X619760Y852170D01*
X617220Y847090D01*
X619760Y842010D01*
X614680Y844550D01*
X609600Y842010D01*
X843280Y763270D02*
Y760730D01*
X848360D01*
Y763270D01*
X850900D01*
Y768350D01*
X848360D01*
Y770890D01*
X843280D01*
Y768350D01*
X840740D01*
Y763270D01*
X843280D01*
X701040Y815340D02*
X703580Y820420D01*
X701040Y825500D01*
X706120Y822960D01*
X711200Y825500D01*
X708660Y820420D01*
X711200Y815340D01*
X706120Y817880D01*
X701040Y815340D01*
X750570Y850900D02*
Y848360D01*
X755650D01*
Y850900D01*
X758190D01*
Y855980D01*
X755650D01*
Y858520D01*
X750570D01*
Y855980D01*
X748030D01*
Y850900D01*
X750570D01*
X701040Y883920D02*
X703580Y889000D01*
X701040Y894080D01*
X706120Y891540D01*
X711200Y894080D01*
X708660Y889000D01*
X711200Y883920D01*
X706120Y886460D01*
X701040Y883920D01*
X699770Y39370D02*
X702310Y44450D01*
X699770Y49530D01*
X704850Y46990D01*
X709930Y49530D01*
X707390Y44450D01*
X709930Y39370D01*
X704850Y41910D01*
X699770Y39370D01*
X701040Y107950D02*
X703580Y113030D01*
X701040Y118110D01*
X706120Y115570D01*
X711200Y118110D01*
X708660Y113030D01*
X711200Y107950D01*
X706120Y110490D01*
X701040Y107950D01*
X187325Y857250D02*
X189865Y862330D01*
X187325Y867410D01*
X192405Y864870D01*
X197485Y867410D01*
X194945Y862330D01*
X197485Y857250D01*
X192405Y859790D01*
X187325Y857250D01*
X195580Y881380D02*
Y891540D01*
X205740D01*
Y881380D01*
X195580D01*
X339077Y915133D02*
Y912593D01*
X344157D01*
Y915133D01*
X346697D01*
Y920213D01*
X344157D01*
Y922753D01*
X339077D01*
Y920213D01*
X336537D01*
Y915133D01*
X339077D01*
X336550Y1031875D02*
X339090Y1036955D01*
X336550Y1042035D01*
X341630Y1039495D01*
X346710Y1042035D01*
X344170Y1036955D01*
X346710Y1031875D01*
X341630Y1034415D01*
X336550Y1031875D01*
X314960Y995680D02*
X317500Y1000760D01*
X314960Y1005840D01*
X320040Y1003300D01*
X325120Y1005840D01*
X322580Y1000760D01*
X325120Y995680D01*
X320040Y998220D01*
X314960Y995680D01*
X302260Y982980D02*
X304800Y988060D01*
X302260Y993140D01*
X307340Y990600D01*
X312420Y993140D01*
X309880Y988060D01*
X312420Y982980D01*
X307340Y985520D01*
X302260Y982980D01*
X308732Y1001908D02*
X311272Y1006988D01*
X308732Y1012068D01*
X313812Y1009528D01*
X318892Y1012068D01*
X316352Y1006988D01*
X318892Y1001908D01*
X313812Y1004448D01*
X308732Y1001908D01*
X320290Y1015750D02*
X322830Y1020830D01*
X320290Y1025910D01*
X325370Y1023370D01*
X330450Y1025910D01*
X327910Y1020830D01*
X330450Y1015750D01*
X325370Y1018290D01*
X320290Y1015750D01*
X312420Y245110D02*
X314960Y250190D01*
X312420Y255270D01*
X317500Y252730D01*
X322580Y255270D01*
X320040Y250190D01*
X322580Y245110D01*
X317500Y247650D01*
X312420Y245110D01*
X299720Y257810D02*
X302260Y262890D01*
X299720Y267970D01*
X304800Y265430D01*
X309880Y267970D01*
X307340Y262890D01*
X309880Y257810D01*
X304800Y260350D01*
X299720Y257810D01*
X312420Y219710D02*
X314960Y224790D01*
X312420Y229870D01*
X317500Y227330D01*
X322580Y229870D01*
X320040Y224790D01*
X322580Y219710D01*
X317500Y222250D01*
X312420Y219710D01*
X299720Y232410D02*
X302260Y237490D01*
X299720Y242570D01*
X304800Y240030D01*
X309880Y242570D01*
X307340Y237490D01*
X309880Y232410D01*
X304800Y234950D01*
X299720Y232410D01*
X201496Y407974D02*
Y405434D01*
X206576D01*
Y407974D01*
X209116D01*
Y413054D01*
X206576D01*
Y415594D01*
X201496D01*
Y413054D01*
X198956D01*
Y407974D01*
X201496D01*
X134620Y671830D02*
Y669290D01*
X139700D01*
Y671830D01*
X142240D01*
Y676910D01*
X139700D01*
Y679450D01*
X134620D01*
Y676910D01*
X132080D01*
Y671830D01*
X134620D01*
Y778510D02*
Y775970D01*
X139700D01*
Y778510D01*
X142240D01*
Y783590D01*
X139700D01*
Y786130D01*
X134620D01*
Y783590D01*
X132080D01*
Y778510D01*
X134620D01*
X163830Y1136650D02*
Y1134110D01*
X168910D01*
Y1136650D01*
X171450D01*
Y1141730D01*
X168910D01*
Y1144270D01*
X163830D01*
Y1141730D01*
X161290D01*
Y1136650D01*
X163830D01*
X1281430Y643890D02*
Y641350D01*
X1286510D01*
Y643890D01*
X1289050D01*
Y648970D01*
X1286510D01*
Y651510D01*
X1281430D01*
Y648970D01*
X1278890D01*
Y643890D01*
X1281430D01*
Y749300D02*
Y746760D01*
X1286510D01*
Y749300D01*
X1289050D01*
Y754380D01*
X1286510D01*
Y756920D01*
X1281430D01*
Y754380D01*
X1278890D01*
Y749300D01*
X1281430D01*
X196850Y751840D02*
X199390Y756920D01*
X196850Y762000D01*
X201930Y759460D01*
X207010Y762000D01*
X204470Y756920D01*
X207010Y751840D01*
X201930Y754380D01*
X196850Y751840D01*
X999490Y123190D02*
Y120650D01*
X1004570D01*
Y123190D01*
X1007110D01*
Y128270D01*
X1004570D01*
Y130810D01*
X999490D01*
Y128270D01*
X996950D01*
Y123190D01*
X999490D01*
X652780Y69850D02*
X655320Y74930D01*
X652780Y80010D01*
X657860Y77470D01*
X662940Y80010D01*
X660400Y74930D01*
X662940Y69850D01*
X657860Y72390D01*
X652780Y69850D01*
X684530Y36830D02*
X687070Y41910D01*
X684530Y46990D01*
X689610Y44450D01*
X694690Y46990D01*
X692150Y41910D01*
X694690Y36830D01*
X689610Y39370D01*
X684530Y36830D01*
X784860Y754380D02*
X787400Y759460D01*
X784860Y764540D01*
X789940Y762000D01*
X795020Y764540D01*
X792480Y759460D01*
X795020Y754380D01*
X789940Y756920D01*
X784860Y754380D01*
X443230Y308610D02*
Y306070D01*
X448310D01*
Y308610D01*
X450850D01*
Y313690D01*
X448310D01*
Y316230D01*
X443230D01*
Y313690D01*
X440690D01*
Y308610D01*
X443230D01*
X626745Y452120D02*
X629285Y457200D01*
X626745Y462280D01*
X631825Y459740D01*
X636905Y462280D01*
X634365Y457200D01*
X636905Y452120D01*
X631825Y454660D01*
X626745Y452120D01*
X640267Y441561D02*
X642807Y446641D01*
X640267Y451721D01*
X645348Y449181D01*
X650427Y451721D01*
X647887Y446641D01*
X650427Y441561D01*
X645348Y444101D01*
X640267Y441561D01*
X982980Y384810D02*
X985520Y389890D01*
X982980Y394970D01*
X988060Y392430D01*
X993140Y394970D01*
X990600Y389890D01*
X993140Y384810D01*
X988060Y387350D01*
X982980Y384810D01*
X631582Y392622D02*
X634122Y397702D01*
X631582Y402783D01*
X636662Y400243D01*
X641742Y402783D01*
X639202Y397702D01*
X641742Y392622D01*
X636662Y395163D01*
X631582Y392622D01*
X652780Y403860D02*
X655320Y408940D01*
X652780Y414020D01*
X657860Y411480D01*
X662940Y414020D01*
X660400Y408940D01*
X662940Y403860D01*
X657860Y406400D01*
X652780Y403860D01*
X443230Y454660D02*
Y452120D01*
X448310D01*
Y454660D01*
X450850D01*
Y459740D01*
X448310D01*
Y462280D01*
X443230D01*
Y459740D01*
X440690D01*
Y454660D01*
X443230D01*
X635972Y599584D02*
X638512Y604664D01*
X635972Y609744D01*
X641052Y607204D01*
X646132Y609744D01*
X643592Y604664D01*
X646132Y599584D01*
X641052Y602124D01*
X635972Y599584D01*
X577850Y608330D02*
X580390Y613410D01*
X577850Y618490D01*
X582930Y615950D01*
X588010Y618490D01*
X585470Y613410D01*
X588010Y608330D01*
X582930Y610870D01*
X577850Y608330D01*
X635972Y583074D02*
X638512Y588154D01*
X635972Y593234D01*
X641052Y590694D01*
X646132Y593234D01*
X643592Y588154D01*
X646132Y583074D01*
X641052Y585614D01*
X635972Y583074D01*
X577850Y591820D02*
X580390Y596900D01*
X577850Y601980D01*
X582930Y599440D01*
X588010Y601980D01*
X585470Y596900D01*
X588010Y591820D01*
X582930Y594360D01*
X577850Y591820D01*
X575310Y534670D02*
X577850Y539750D01*
X575310Y544830D01*
X580390Y542290D01*
X585470Y544830D01*
X582930Y539750D01*
X585470Y534670D01*
X580390Y537210D01*
X575310Y534670D01*
X756920Y222250D02*
Y219710D01*
X762000D01*
Y222250D01*
X764540D01*
Y227330D01*
X762000D01*
Y229870D01*
X756920D01*
Y227330D01*
X754380D01*
Y222250D01*
X756920D01*
X744220Y147320D02*
X746760Y152400D01*
X744220Y157480D01*
X749300Y154940D01*
X754380Y157480D01*
X751840Y152400D01*
X754380Y147320D01*
X749300Y149860D01*
X744220Y147320D01*
X693420Y257810D02*
X695960Y262890D01*
X693420Y267970D01*
X698500Y265430D01*
X703580Y267970D01*
X701040Y262890D01*
X703580Y257810D01*
X698500Y260350D01*
X693420Y257810D01*
X711200Y267970D02*
X713740Y273050D01*
X711200Y278130D01*
X716280Y275590D01*
X721360Y278130D01*
X718820Y273050D01*
X721360Y267970D01*
X716280Y270510D01*
X711200Y267970D01*
X784860Y632460D02*
X787400Y637540D01*
X784860Y642620D01*
X789940Y640080D01*
X795020Y642620D01*
X792480Y637540D01*
X795020Y632460D01*
X789940Y635000D01*
X784860Y632460D01*
Y571500D02*
X787400Y576580D01*
X784860Y581660D01*
X789940Y579120D01*
X795020Y581660D01*
X792480Y576580D01*
X795020Y571500D01*
X789940Y574040D01*
X784860Y571500D01*
X657860Y104140D02*
X660400Y109220D01*
X657860Y114300D01*
X662940Y111760D01*
X668020Y114300D01*
X665480Y109220D01*
X668020Y104140D01*
X662940Y106680D01*
X657860Y104140D01*
X793750Y121920D02*
Y119380D01*
X798830D01*
Y121920D01*
X801370D01*
Y127000D01*
X798830D01*
Y129540D01*
X793750D01*
Y127000D01*
X791210D01*
Y121920D01*
X793750D01*
X750570Y74930D02*
Y72390D01*
X755650D01*
Y74930D01*
X758190D01*
Y80010D01*
X755650D01*
Y82550D01*
X750570D01*
Y80010D01*
X748030D01*
Y74930D01*
X750570D01*
X609600Y66040D02*
X612140Y71120D01*
X609600Y76200D01*
X614680Y73660D01*
X619760Y76200D01*
X617220Y71120D01*
X619760Y66040D01*
X614680Y68580D01*
X609600Y66040D01*
X759460Y58420D02*
Y55880D01*
X764540D01*
Y58420D01*
X767080D01*
Y63500D01*
X764540D01*
Y66040D01*
X759460D01*
Y63500D01*
X756920D01*
Y58420D01*
X759460D01*
X784860Y693420D02*
X787400Y698500D01*
X784860Y703580D01*
X789940Y701040D01*
X795020Y703580D01*
X792480Y698500D01*
X795020Y693420D01*
X789940Y695960D01*
X784860Y693420D01*
X842010Y655320D02*
X844550Y660400D01*
X842010Y665480D01*
X847090Y662940D01*
X852170Y665480D01*
X849630Y660400D01*
X852170Y655320D01*
X847090Y657860D01*
X842010Y655320D01*
Y594360D02*
X844550Y599440D01*
X842010Y604520D01*
X847090Y601980D01*
X852170Y604520D01*
X849630Y599440D01*
X852170Y594360D01*
X847090Y596900D01*
X842010Y594360D01*
X684530Y397510D02*
X687070Y402590D01*
X684530Y407670D01*
X689610Y405130D01*
X694690Y407670D01*
X692150Y402590D01*
X694690Y397510D01*
X689610Y400050D01*
X684530Y397510D01*
Y372110D02*
X687070Y377190D01*
X684530Y382270D01*
X689610Y379730D01*
X694690Y382270D01*
X692150Y377190D01*
X694690Y372110D01*
X689610Y374650D01*
X684530Y372110D01*
Y346710D02*
X687070Y351790D01*
X684530Y356870D01*
X689610Y354330D01*
X694690Y356870D01*
X692150Y351790D01*
X694690Y346710D01*
X689610Y349250D01*
X684530Y346710D01*
X473710Y325120D02*
X476250Y330200D01*
X473710Y335280D01*
X478790Y332740D01*
X483870Y335280D01*
X481330Y330200D01*
X483870Y325120D01*
X478790Y327660D01*
X473710Y325120D01*
Y346710D02*
X476250Y351790D01*
X473710Y356870D01*
X478790Y354330D01*
X483870Y356870D01*
X481330Y351790D01*
X483870Y346710D01*
X478790Y349250D01*
X473710Y346710D01*
X476250Y420370D02*
X478790Y425450D01*
X476250Y430530D01*
X481330Y427990D01*
X486410Y430530D01*
X483870Y425450D01*
X486410Y420370D01*
X481330Y422910D01*
X476250Y420370D01*
X497840D02*
X500380Y425450D01*
X497840Y430530D01*
X502920Y427990D01*
X508000Y430530D01*
X505460Y425450D01*
X508000Y420370D01*
X502920Y422910D01*
X497840Y420370D01*
X603250Y287020D02*
X605790Y292100D01*
X603250Y297180D01*
X608330Y294640D01*
X613410Y297180D01*
X610870Y292100D01*
X613410Y287020D01*
X608330Y289560D01*
X603250Y287020D01*
X626745Y1228090D02*
X629285Y1233170D01*
X626745Y1238250D01*
X631825Y1235710D01*
X636905Y1238250D01*
X634365Y1233170D01*
X636905Y1228090D01*
X631825Y1230630D01*
X626745Y1228090D01*
X577850Y1384300D02*
X580390Y1389380D01*
X577850Y1394460D01*
X582930Y1391920D01*
X588010Y1394460D01*
X585470Y1389380D01*
X588010Y1384300D01*
X582930Y1386840D01*
X577850Y1384300D01*
X635972Y1359044D02*
X638512Y1364124D01*
X635972Y1369204D01*
X641052Y1366664D01*
X646132Y1369204D01*
X643592Y1364124D01*
X646132Y1359044D01*
X641052Y1361584D01*
X635972Y1359044D01*
X577850Y1367790D02*
X580390Y1372870D01*
X577850Y1377950D01*
X582930Y1375410D01*
X588010Y1377950D01*
X585470Y1372870D01*
X588010Y1367790D01*
X582930Y1370330D01*
X577850Y1367790D01*
X759460Y834390D02*
Y831850D01*
X764540D01*
Y834390D01*
X767080D01*
Y839470D01*
X764540D01*
Y842010D01*
X759460D01*
Y839470D01*
X756920D01*
Y834390D01*
X759460D01*
X693420Y1033780D02*
X695960Y1038860D01*
X693420Y1043940D01*
X698500Y1041400D01*
X703580Y1043940D01*
X701040Y1038860D01*
X703580Y1033780D01*
X698500Y1036320D01*
X693420Y1033780D01*
X756920Y998220D02*
Y995680D01*
X762000D01*
Y998220D01*
X764540D01*
Y1003300D01*
X762000D01*
Y1005840D01*
X756920D01*
Y1003300D01*
X754380D01*
Y998220D01*
X756920D01*
X999490Y899160D02*
Y896620D01*
X1004570D01*
Y899160D01*
X1007110D01*
Y904240D01*
X1004570D01*
Y906780D01*
X999490D01*
Y904240D01*
X996950D01*
Y899160D01*
X999490D01*
X652780Y1179830D02*
X655320Y1184910D01*
X652780Y1189990D01*
X657860Y1187450D01*
X662940Y1189990D01*
X660400Y1184910D01*
X662940Y1179830D01*
X657860Y1182370D01*
X652780Y1179830D01*
X657860Y880110D02*
X660400Y885190D01*
X657860Y890270D01*
X662940Y887730D01*
X668020Y890270D01*
X665480Y885190D01*
X668020Y880110D01*
X662940Y882650D01*
X657860Y880110D01*
X628650Y1446530D02*
X631190Y1451610D01*
X628650Y1456690D01*
X633730Y1454150D01*
X638810Y1456690D01*
X636270Y1451610D01*
X638810Y1446530D01*
X633730Y1449070D01*
X628650Y1446530D01*
X704850Y1449070D02*
X707390Y1454150D01*
X704850Y1459230D01*
X709930Y1456690D01*
X715010Y1459230D01*
X712470Y1454150D01*
X715010Y1449070D01*
X709930Y1451610D01*
X704850Y1449070D01*
X684530Y1122680D02*
X687070Y1127760D01*
X684530Y1132840D01*
X689610Y1130300D01*
X694690Y1132840D01*
X692150Y1127760D01*
X694690Y1122680D01*
X689610Y1125220D01*
X684530Y1122680D01*
Y1148080D02*
X687070Y1153160D01*
X684530Y1158240D01*
X689610Y1155700D01*
X694690Y1158240D01*
X692150Y1153160D01*
X694690Y1148080D01*
X689610Y1150620D01*
X684530Y1148080D01*
Y1173480D02*
X687070Y1178560D01*
X684530Y1183640D01*
X689610Y1181100D01*
X694690Y1183640D01*
X692150Y1178560D01*
X694690Y1173480D01*
X689610Y1176020D01*
X684530Y1173480D01*
X640267Y1217531D02*
X642807Y1222611D01*
X640267Y1227691D01*
X645348Y1225151D01*
X650427Y1227691D01*
X647887Y1222611D01*
X650427Y1217531D01*
X645348Y1220071D01*
X640267Y1217531D01*
X575310Y1310640D02*
X577850Y1315720D01*
X575310Y1320800D01*
X580390Y1318260D01*
X585470Y1320800D01*
X582930Y1315720D01*
X585470Y1310640D01*
X580390Y1313180D01*
X575310Y1310640D01*
X1168400Y422910D02*
X1170940Y427990D01*
X1168400Y433070D01*
X1173480Y430530D01*
X1178560Y433070D01*
X1176020Y427990D01*
X1178560Y422910D01*
X1173480Y425450D01*
X1168400Y422910D01*
X1214120Y876300D02*
X1216660Y881380D01*
X1214120Y886460D01*
X1219200Y883920D01*
X1224280Y886460D01*
X1221740Y881380D01*
X1224280Y876300D01*
X1219200Y878840D01*
X1214120Y876300D01*
X473710Y368300D02*
X476250Y373380D01*
X473710Y378460D01*
X478790Y375920D01*
X483870Y378460D01*
X481330Y373380D01*
X483870Y368300D01*
X478790Y370840D01*
X473710Y368300D01*
X822960Y676910D02*
X825500Y681990D01*
X822960Y687070D01*
X828040Y684530D01*
X833120Y687070D01*
X830580Y681990D01*
X833120Y676910D01*
X828040Y679450D01*
X822960Y676910D01*
Y615950D02*
X825500Y621030D01*
X822960Y626110D01*
X828040Y623570D01*
X833120Y626110D01*
X830580Y621030D01*
X833120Y615950D01*
X828040Y618490D01*
X822960Y615950D01*
X492760Y303530D02*
X495300Y308610D01*
X492760Y313690D01*
X497840Y311150D01*
X502920Y313690D01*
X500380Y308610D01*
X502920Y303530D01*
X497840Y306070D01*
X492760Y303530D01*
X946150Y353060D02*
Y350520D01*
X951230D01*
Y353060D01*
X953770D01*
Y358140D01*
X951230D01*
Y360680D01*
X946150D01*
Y358140D01*
X943610D01*
Y353060D01*
X946150D01*
X603250Y1062990D02*
X605790Y1068070D01*
X603250Y1073150D01*
X608330Y1070610D01*
X613410Y1073150D01*
X610870Y1068070D01*
X613410Y1062990D01*
X608330Y1065530D01*
X603250Y1062990D01*
X511810Y1079500D02*
X514350Y1084580D01*
X511810Y1089660D01*
X516890Y1087120D01*
X521970Y1089660D01*
X519430Y1084580D01*
X521970Y1079500D01*
X516890Y1082040D01*
X511810Y1079500D01*
X473710Y1101090D02*
X476250Y1106170D01*
X473710Y1111250D01*
X478790Y1108710D01*
X483870Y1111250D01*
X481330Y1106170D01*
X483870Y1101090D01*
X478790Y1103630D01*
X473710Y1101090D01*
Y1122680D02*
X476250Y1127760D01*
X473710Y1132840D01*
X478790Y1130300D01*
X483870Y1132840D01*
X481330Y1127760D01*
X483870Y1122680D01*
X478790Y1125220D01*
X473710Y1122680D01*
X459740Y1002030D02*
Y999490D01*
X464820D01*
Y1002030D01*
X467360D01*
Y1007110D01*
X464820D01*
Y1009650D01*
X459740D01*
Y1007110D01*
X457200D01*
Y1002030D01*
X459740D01*
X842010Y1370330D02*
X844550Y1375410D01*
X842010Y1380490D01*
X847090Y1377950D01*
X852170Y1380490D01*
X849630Y1375410D01*
X852170Y1370330D01*
X847090Y1372870D01*
X842010Y1370330D01*
Y1431290D02*
X844550Y1436370D01*
X842010Y1441450D01*
X847090Y1438910D01*
X852170Y1441450D01*
X849630Y1436370D01*
X852170Y1431290D01*
X847090Y1433830D01*
X842010Y1431290D01*
Y1492250D02*
X844550Y1497330D01*
X842010Y1502410D01*
X847090Y1499870D01*
X852170Y1502410D01*
X849630Y1497330D01*
X852170Y1492250D01*
X847090Y1494790D01*
X842010Y1492250D01*
X990600Y1289050D02*
X993140Y1294130D01*
X990600Y1299210D01*
X995680Y1296670D01*
X1000760Y1299210D01*
X998220Y1294130D01*
X1000760Y1289050D01*
X995680Y1291590D01*
X990600Y1289050D01*
X711200Y1043940D02*
X713740Y1049020D01*
X711200Y1054100D01*
X716280Y1051560D01*
X721360Y1054100D01*
X718820Y1049020D01*
X721360Y1043940D01*
X716280Y1046480D01*
X711200Y1043940D01*
X631582Y1168593D02*
X634122Y1173672D01*
X631582Y1178753D01*
X636662Y1176212D01*
X641742Y1178753D01*
X639202Y1173672D01*
X641742Y1168593D01*
X636662Y1171133D01*
X631582Y1168593D01*
X652780Y845820D02*
X655320Y850900D01*
X652780Y855980D01*
X657860Y853440D01*
X662940Y855980D01*
X660400Y850900D01*
X662940Y845820D01*
X657860Y848360D01*
X652780Y845820D01*
X784860Y1469390D02*
X787400Y1474470D01*
X784860Y1479550D01*
X789940Y1477010D01*
X795020Y1479550D01*
X792480Y1474470D01*
X795020Y1469390D01*
X789940Y1471930D01*
X784860Y1469390D01*
Y1408430D02*
X787400Y1413510D01*
X784860Y1418590D01*
X789940Y1416050D01*
X795020Y1418590D01*
X792480Y1413510D01*
X795020Y1408430D01*
X789940Y1410970D01*
X784860Y1408430D01*
X822960Y1452880D02*
X825500Y1457960D01*
X822960Y1463040D01*
X828040Y1460500D01*
X833120Y1463040D01*
X830580Y1457960D01*
X833120Y1452880D01*
X828040Y1455420D01*
X822960Y1452880D01*
X688340Y1451610D02*
Y1449070D01*
X693420D01*
Y1451610D01*
X695960D01*
Y1456690D01*
X693420D01*
Y1459230D01*
X688340D01*
Y1456690D01*
X685800D01*
Y1451610D01*
X688340D01*
X822960Y1391920D02*
X825500Y1397000D01*
X822960Y1402080D01*
X828040Y1399540D01*
X833120Y1402080D01*
X830580Y1397000D01*
X833120Y1391920D01*
X828040Y1394460D01*
X822960Y1391920D01*
X784860Y1347470D02*
X787400Y1352550D01*
X784860Y1357630D01*
X789940Y1355090D01*
X795020Y1357630D01*
X792480Y1352550D01*
X795020Y1347470D01*
X789940Y1350010D01*
X784860Y1347470D01*
Y1530350D02*
X787400Y1535430D01*
X784860Y1540510D01*
X789940Y1537970D01*
X795020Y1540510D01*
X792480Y1535430D01*
X795020Y1530350D01*
X789940Y1532890D01*
X784860Y1530350D01*
X822960Y1513840D02*
X825500Y1518920D01*
X822960Y1524000D01*
X828040Y1521460D01*
X833120Y1524000D01*
X830580Y1518920D01*
X833120Y1513840D01*
X828040Y1516380D01*
X822960Y1513840D01*
X946150Y1129030D02*
Y1126490D01*
X951230D01*
Y1129030D01*
X953770D01*
Y1134110D01*
X951230D01*
Y1136650D01*
X946150D01*
Y1134110D01*
X943610D01*
Y1129030D01*
X946150D01*
X947200Y1092098D02*
X949740Y1097178D01*
X947200Y1102258D01*
X952280Y1099718D01*
X957360Y1102258D01*
X954820Y1097178D01*
X957360Y1092098D01*
X952280Y1094638D01*
X947200Y1092098D01*
X982980Y1160780D02*
X985520Y1165860D01*
X982980Y1170940D01*
X988060Y1168400D01*
X993140Y1170940D01*
X990600Y1165860D01*
X993140Y1160780D01*
X988060Y1163320D01*
X982980Y1160780D01*
X943610Y1301750D02*
Y1299210D01*
X948690D01*
Y1301750D01*
X951230D01*
Y1306830D01*
X948690D01*
Y1309370D01*
X943610D01*
Y1306830D01*
X941070D01*
Y1301750D01*
X943610D01*
X473710Y1144270D02*
X476250Y1149350D01*
X473710Y1154430D01*
X478790Y1151890D01*
X483870Y1154430D01*
X481330Y1149350D01*
X483870Y1144270D01*
X478790Y1146810D01*
X473710Y1144270D01*
X492760Y1079500D02*
X495300Y1084580D01*
X492760Y1089660D01*
X497840Y1087120D01*
X502920Y1089660D01*
X500380Y1084580D01*
X502920Y1079500D01*
X497840Y1082040D01*
X492760Y1079500D01*
X443230Y1084580D02*
Y1082040D01*
X448310D01*
Y1084580D01*
X450850D01*
Y1089660D01*
X448310D01*
Y1092200D01*
X443230D01*
Y1089660D01*
X440690D01*
Y1084580D01*
X443230D01*
D77*
X905510Y1320800D02*
G03*
X905510Y1320800I-5080J0D01*
G01*
X854710D02*
G03*
X854710Y1320800I-5080J0D01*
G01*
X905510Y1270000D02*
G03*
X905510Y1270000I-5080J0D01*
G01*
X854710Y1193800D02*
G03*
X854710Y1193800I-5080J0D01*
G01*
Y1270000D02*
G03*
X854710Y1270000I-5080J0D01*
G01*
X905510Y1143000D02*
G03*
X905510Y1143000I-5080J0D01*
G01*
Y1193800D02*
G03*
X905510Y1193800I-5080J0D01*
G01*
X906780Y1066800D02*
G03*
X906780Y1066800I-5080J0D01*
G01*
X855980D02*
G03*
X855980Y1066800I-5080J0D01*
G01*
X854710Y1143000D02*
G03*
X854710Y1143000I-5080J0D01*
G01*
X906780Y1016000D02*
G03*
X906780Y1016000I-5080J0D01*
G01*
X855980D02*
G03*
X855980Y1016000I-5080J0D01*
G01*
X727710Y1320800D02*
G03*
X727710Y1320800I-5080J0D01*
G01*
X586740Y1438910D02*
G03*
X586740Y1438910I-5080J0D01*
G01*
Y1489710D02*
G03*
X586740Y1489710I-5080J0D01*
G01*
X778510Y1320800D02*
G03*
X778510Y1320800I-5080J0D01*
G01*
Y1270000D02*
G03*
X778510Y1270000I-5080J0D01*
G01*
X727710D02*
G03*
X727710Y1270000I-5080J0D01*
G01*
X544830Y1311910D02*
G03*
X544830Y1311910I-5080J0D01*
G01*
Y1362710D02*
G03*
X544830Y1362710I-5080J0D01*
G01*
X631190Y919480D02*
G03*
X631190Y919480I-5080J0D01*
G01*
Y970280D02*
G03*
X631190Y970280I-5080J0D01*
G01*
X580390Y919480D02*
G03*
X580390Y919480I-5080J0D01*
G01*
Y970280D02*
G03*
X580390Y970280I-5080J0D01*
G01*
X905510Y417830D02*
G03*
X905510Y417830I-5080J0D01*
G01*
Y494030D02*
G03*
X905510Y494030I-5080J0D01*
G01*
X906780Y290830D02*
G03*
X906780Y290830I-5080J0D01*
G01*
Y240030D02*
G03*
X906780Y240030I-5080J0D01*
G01*
X905510Y544830D02*
G03*
X905510Y544830I-5080J0D01*
G01*
X854710Y417830D02*
G03*
X854710Y417830I-5080J0D01*
G01*
Y494030D02*
G03*
X854710Y494030I-5080J0D01*
G01*
X905510Y367030D02*
G03*
X905510Y367030I-5080J0D01*
G01*
X855980Y290830D02*
G03*
X855980Y290830I-5080J0D01*
G01*
X854710Y367030D02*
G03*
X854710Y367030I-5080J0D01*
G01*
Y544830D02*
G03*
X854710Y544830I-5080J0D01*
G01*
X855980Y240030D02*
G03*
X855980Y240030I-5080J0D01*
G01*
X727710Y544830D02*
G03*
X727710Y544830I-5080J0D01*
G01*
X586740Y662940D02*
G03*
X586740Y662940I-5080J0D01*
G01*
Y713740D02*
G03*
X586740Y713740I-5080J0D01*
G01*
X778510Y544830D02*
G03*
X778510Y544830I-5080J0D01*
G01*
Y494030D02*
G03*
X778510Y494030I-5080J0D01*
G01*
X727710D02*
G03*
X727710Y494030I-5080J0D01*
G01*
X544830Y535940D02*
G03*
X544830Y535940I-5080J0D01*
G01*
Y586740D02*
G03*
X544830Y586740I-5080J0D01*
G01*
X631190Y143510D02*
G03*
X631190Y143510I-5080J0D01*
G01*
Y194310D02*
G03*
X631190Y194310I-5080J0D01*
G01*
X580390Y143510D02*
G03*
X580390Y143510I-5080J0D01*
G01*
Y194310D02*
G03*
X580390Y194310I-5080J0D01*
G01*
X535940Y1489710D02*
G03*
X535940Y1489710I-5080J0D01*
G01*
Y1438910D02*
G03*
X535940Y1438910I-5080J0D01*
G01*
X494030Y1311910D02*
G03*
X494030Y1311910I-5080J0D01*
G01*
Y1362710D02*
G03*
X494030Y1362710I-5080J0D01*
G01*
X535940Y713740D02*
G03*
X535940Y713740I-5080J0D01*
G01*
Y662940D02*
G03*
X535940Y662940I-5080J0D01*
G01*
X504190Y970280D02*
G03*
X504190Y970280I-5080J0D01*
G01*
Y919480D02*
G03*
X504190Y919480I-5080J0D01*
G01*
X494030Y535940D02*
G03*
X494030Y535940I-5080J0D01*
G01*
Y586740D02*
G03*
X494030Y586740I-5080J0D01*
G01*
X453390Y919480D02*
G03*
X453390Y919480I-5080J0D01*
G01*
Y970280D02*
G03*
X453390Y970280I-5080J0D01*
G01*
X504190Y194310D02*
G03*
X504190Y194310I-5080J0D01*
G01*
Y143510D02*
G03*
X504190Y143510I-5080J0D01*
G01*
X453390D02*
G03*
X453390Y143510I-5080J0D01*
G01*
Y194310D02*
G03*
X453390Y194310I-5080J0D01*
G01*
M02*
