G04*
G04 #@! TF.GenerationSoftware,Altium Limited,Altium Designer,23.5.1 (21)*
G04*
G04 Layer_Color=255*
%FSLAX26Y26*%
%MOIN*%
G70*
G04*
G04 #@! TF.SameCoordinates,6A5F5C75-F477-485A-9627-383C203D1060*
G04*
G04*
G04 #@! TF.FilePolarity,Positive*
G04*
G01*
G75*
%ADD17O,0.029528X0.009842*%
%ADD18O,0.009842X0.029528*%
%ADD19R,0.233858X0.233858*%
%ADD20R,0.041339X0.037402*%
%ADD21R,0.037402X0.031496*%
%ADD22R,0.031496X0.037402*%
%ADD23R,0.058071X0.017716*%
%ADD24R,0.037402X0.041339*%
%ADD25R,0.033465X0.011811*%
G04:AMPARAMS|DCode=26|XSize=23.622mil|YSize=39.37mil|CornerRadius=2.008mil|HoleSize=0mil|Usage=FLASHONLY|Rotation=270.000|XOffset=0mil|YOffset=0mil|HoleType=Round|Shape=RoundedRectangle|*
%AMROUNDEDRECTD26*
21,1,0.023622,0.035354,0,0,270.0*
21,1,0.019606,0.039370,0,0,270.0*
1,1,0.004016,-0.017677,-0.009803*
1,1,0.004016,-0.017677,0.009803*
1,1,0.004016,0.017677,0.009803*
1,1,0.004016,0.017677,-0.009803*
%
%ADD26ROUNDEDRECTD26*%
%ADD27R,0.017716X0.058071*%
%ADD28R,0.011811X0.033465*%
%ADD29R,0.035433X0.035433*%
%ADD30R,0.035433X0.035433*%
%ADD36R,0.062992X0.013780*%
%ADD56C,0.200000*%
%ADD57C,0.059055*%
%ADD58C,0.082677*%
%ADD59R,0.059055X0.059055*%
%ADD60C,0.078740*%
%ADD61R,0.059055X0.059055*%
D17*
X1959488Y1572953D02*
D03*
Y1553268D02*
D03*
Y1533583D02*
D03*
Y1513898D02*
D03*
Y1494213D02*
D03*
Y1474527D02*
D03*
Y1454842D02*
D03*
Y1435158D02*
D03*
Y1415472D02*
D03*
Y1395787D02*
D03*
Y1376102D02*
D03*
Y1356417D02*
D03*
Y1336732D02*
D03*
Y1317047D02*
D03*
X2270512D02*
D03*
Y1336732D02*
D03*
Y1356417D02*
D03*
Y1376102D02*
D03*
Y1395787D02*
D03*
Y1415472D02*
D03*
Y1435158D02*
D03*
Y1454842D02*
D03*
Y1474527D02*
D03*
Y1494213D02*
D03*
Y1513898D02*
D03*
Y1533583D02*
D03*
Y1553268D02*
D03*
Y1572953D02*
D03*
X1959488Y4627953D02*
D03*
Y4608268D02*
D03*
Y4588583D02*
D03*
Y4568898D02*
D03*
Y4549213D02*
D03*
Y4529528D02*
D03*
Y4509842D02*
D03*
Y4490158D02*
D03*
Y4470472D02*
D03*
Y4450787D02*
D03*
Y4431102D02*
D03*
Y4411417D02*
D03*
Y4391732D02*
D03*
Y4372047D02*
D03*
X2270512D02*
D03*
Y4391732D02*
D03*
Y4411417D02*
D03*
Y4431102D02*
D03*
Y4450787D02*
D03*
Y4470472D02*
D03*
Y4490158D02*
D03*
Y4509842D02*
D03*
Y4529528D02*
D03*
Y4549213D02*
D03*
Y4568898D02*
D03*
Y4588583D02*
D03*
Y4608268D02*
D03*
Y4627953D02*
D03*
D18*
X1987047Y1289488D02*
D03*
X2006732D02*
D03*
X2026417D02*
D03*
X2046102D02*
D03*
X2065787D02*
D03*
X2085472D02*
D03*
X2105157D02*
D03*
X2124843D02*
D03*
X2144528D02*
D03*
X2164213D02*
D03*
X2183898D02*
D03*
X2203583D02*
D03*
X2223268D02*
D03*
X2242953D02*
D03*
Y1600512D02*
D03*
X2223268D02*
D03*
X2203583D02*
D03*
X2183898D02*
D03*
X2164213D02*
D03*
X2144528D02*
D03*
X2124843D02*
D03*
X2105157D02*
D03*
X2085472D02*
D03*
X2065787D02*
D03*
X2046102D02*
D03*
X2026417D02*
D03*
X2006732D02*
D03*
X1987047D02*
D03*
Y4344488D02*
D03*
X2006732D02*
D03*
X2026417D02*
D03*
X2046102D02*
D03*
X2065787D02*
D03*
X2085472D02*
D03*
X2105157D02*
D03*
X2124843D02*
D03*
X2144528D02*
D03*
X2164213D02*
D03*
X2183898D02*
D03*
X2203583D02*
D03*
X2223268D02*
D03*
X2242953D02*
D03*
Y4655512D02*
D03*
X2223268D02*
D03*
X2203583D02*
D03*
X2183898D02*
D03*
X2164213D02*
D03*
X2144528D02*
D03*
X2124843D02*
D03*
X2105157D02*
D03*
X2085472D02*
D03*
X2065787D02*
D03*
X2046102D02*
D03*
X2026417D02*
D03*
X2006732D02*
D03*
X1987047D02*
D03*
D19*
X2115000Y1445000D02*
D03*
Y4500000D02*
D03*
D20*
X4695000Y6931457D02*
D03*
Y6988543D02*
D03*
X4610000Y6931457D02*
D03*
Y6988543D02*
D03*
X4525000Y6931457D02*
D03*
Y6988543D02*
D03*
X1895000Y4801456D02*
D03*
X1910000Y4198544D02*
D03*
X1895000Y1746456D02*
D03*
X1910000Y1143544D02*
D03*
X3890000Y4518544D02*
D03*
X3185000Y6043544D02*
D03*
Y5803544D02*
D03*
Y5563544D02*
D03*
X3105000Y4138544D02*
D03*
X4890000Y3301456D02*
D03*
Y3638544D02*
D03*
Y3223544D02*
D03*
X2165000Y4141456D02*
D03*
X2080000D02*
D03*
X4890000Y2886456D02*
D03*
Y2808544D02*
D03*
X3185000Y2988544D02*
D03*
Y2748544D02*
D03*
Y2508544D02*
D03*
X4890000Y2471456D02*
D03*
X3890000Y1463544D02*
D03*
X3105000Y1083544D02*
D03*
X2165000Y1086456D02*
D03*
X2080000D02*
D03*
X2065000Y4858544D02*
D03*
X1895000D02*
D03*
X1980000D02*
D03*
X1995000Y4141456D02*
D03*
X1910000D02*
D03*
X910000Y4421456D02*
D03*
X740000D02*
D03*
X825000D02*
D03*
X705000Y3563544D02*
D03*
Y3148544D02*
D03*
Y3226456D02*
D03*
Y2728544D02*
D03*
Y2811456D02*
D03*
Y2391456D02*
D03*
X2065000Y1803544D02*
D03*
X1980000D02*
D03*
X1895000D02*
D03*
X1995000Y1086456D02*
D03*
X1910000D02*
D03*
X825000Y1366456D02*
D03*
X910000D02*
D03*
X740000D02*
D03*
X2150000Y1803544D02*
D03*
Y1746456D02*
D03*
X3105000Y1026456D02*
D03*
X3185000Y2691456D02*
D03*
Y2451456D02*
D03*
Y2931456D02*
D03*
X1995000Y1143544D02*
D03*
X1980000Y1746456D02*
D03*
X3890000Y1406456D02*
D03*
X2080000Y1143544D02*
D03*
X2065000Y1746456D02*
D03*
X2165000Y1143544D02*
D03*
Y4198544D02*
D03*
X2065000Y4801456D02*
D03*
X2080000Y4198544D02*
D03*
X3890000Y4461456D02*
D03*
X1980000Y4801456D02*
D03*
X1995000Y4198544D02*
D03*
X3185000Y5986456D02*
D03*
Y5506456D02*
D03*
Y5746456D02*
D03*
X3105000Y4081456D02*
D03*
X2150000Y4858544D02*
D03*
Y4801456D02*
D03*
X4890000Y2528544D02*
D03*
X705000Y2671456D02*
D03*
X4890000Y2751456D02*
D03*
X705000Y2448544D02*
D03*
X4890000Y3358544D02*
D03*
Y2943544D02*
D03*
Y3581456D02*
D03*
Y3166456D02*
D03*
X705000Y3506456D02*
D03*
Y3091456D02*
D03*
Y3283544D02*
D03*
Y2868544D02*
D03*
X740000Y4478544D02*
D03*
X825000D02*
D03*
X910000D02*
D03*
X740000Y1423544D02*
D03*
X825000D02*
D03*
X910000D02*
D03*
D21*
X4940000Y6589409D02*
D03*
Y6640591D02*
D03*
X4820000Y6589409D02*
D03*
Y6640591D02*
D03*
X4880000Y6589409D02*
D03*
Y6640591D02*
D03*
X4760000Y6589409D02*
D03*
Y6640591D02*
D03*
X2779198Y4643600D02*
D03*
Y4538600D02*
D03*
Y4433600D02*
D03*
Y1588600D02*
D03*
Y1483600D02*
D03*
Y1378600D02*
D03*
Y1639780D02*
D03*
X2445000Y2525590D02*
D03*
Y2474410D02*
D03*
X2779198Y1534780D02*
D03*
X2990000Y1065590D02*
D03*
Y1014410D02*
D03*
X2779198Y1429780D02*
D03*
Y4484780D02*
D03*
X2990000Y4120590D02*
D03*
Y4069410D02*
D03*
X2779198Y4589780D02*
D03*
X2445000Y5580590D02*
D03*
Y5529410D02*
D03*
X2779198Y4694780D02*
D03*
D22*
X4264409Y6725000D02*
D03*
X4315591D02*
D03*
X4315590Y6800000D02*
D03*
X4264410D02*
D03*
X2490590Y5640000D02*
D03*
X2145590Y5065000D02*
D03*
X2944410Y4180000D02*
D03*
X2285590Y4130000D02*
D03*
X2390590D02*
D03*
X2490590Y2585000D02*
D03*
X2145590Y2010000D02*
D03*
X2944410Y1125000D02*
D03*
X2285590Y1075000D02*
D03*
X2390590D02*
D03*
X2094410Y2010000D02*
D03*
X2339410Y1075000D02*
D03*
X2234410D02*
D03*
X2439410Y2585000D02*
D03*
X2995590Y1125000D02*
D03*
Y4180000D02*
D03*
X2439410Y5640000D02*
D03*
X2234410Y4130000D02*
D03*
X2339410D02*
D03*
X2094410Y5065000D02*
D03*
D23*
X4654330Y4804410D02*
D03*
X2409330Y5364410D02*
D03*
Y2309410D02*
D03*
X4654330Y1829410D02*
D03*
X2874330Y3904410D02*
D03*
Y849410D02*
D03*
X4654330Y4753228D02*
D03*
X2409330Y5313228D02*
D03*
X2874330Y3853228D02*
D03*
X4654330Y1778228D02*
D03*
X2409330Y2258228D02*
D03*
X2874330Y798228D02*
D03*
X709330Y4642796D02*
D03*
Y1664566D02*
D03*
Y1638976D02*
D03*
Y1587796D02*
D03*
Y1485434D02*
D03*
X4654330Y4906772D02*
D03*
Y4881182D02*
D03*
Y4855590D02*
D03*
Y4830000D02*
D03*
Y4778818D02*
D03*
X4885670Y4753228D02*
D03*
Y4778818D02*
D03*
Y4804410D02*
D03*
Y4830000D02*
D03*
Y4855590D02*
D03*
Y4881182D02*
D03*
Y4906772D02*
D03*
X2409330Y2411772D02*
D03*
Y2386182D02*
D03*
Y2360590D02*
D03*
Y2335000D02*
D03*
Y2283818D02*
D03*
X2640670Y2258228D02*
D03*
Y2283818D02*
D03*
Y2309410D02*
D03*
Y2335000D02*
D03*
Y2360590D02*
D03*
Y2386182D02*
D03*
Y2411772D02*
D03*
X2874330Y951772D02*
D03*
Y926182D02*
D03*
Y900590D02*
D03*
Y875000D02*
D03*
Y823818D02*
D03*
X3105670Y798228D02*
D03*
Y823818D02*
D03*
Y849410D02*
D03*
Y875000D02*
D03*
Y900590D02*
D03*
Y926182D02*
D03*
Y951772D02*
D03*
X2874330Y4006772D02*
D03*
Y3981182D02*
D03*
Y3955590D02*
D03*
Y3930000D02*
D03*
Y3878818D02*
D03*
X3105670Y3853228D02*
D03*
Y3878818D02*
D03*
Y3904410D02*
D03*
Y3930000D02*
D03*
Y3955590D02*
D03*
Y3981182D02*
D03*
Y4006772D02*
D03*
X2409330Y5466772D02*
D03*
Y5441182D02*
D03*
Y5415590D02*
D03*
Y5390000D02*
D03*
Y5338818D02*
D03*
X2640670Y5313228D02*
D03*
Y5338818D02*
D03*
Y5364410D02*
D03*
Y5390000D02*
D03*
Y5415590D02*
D03*
Y5441182D02*
D03*
Y5466772D02*
D03*
X4885670Y1931772D02*
D03*
Y1906182D02*
D03*
Y1880590D02*
D03*
Y1855000D02*
D03*
Y1829410D02*
D03*
Y1803818D02*
D03*
Y1778228D02*
D03*
X4654330Y1803818D02*
D03*
Y1855000D02*
D03*
Y1880590D02*
D03*
Y1906182D02*
D03*
Y1931772D02*
D03*
X940670Y4540434D02*
D03*
Y4566024D02*
D03*
Y4591614D02*
D03*
Y4617204D02*
D03*
Y4642796D02*
D03*
Y4668386D02*
D03*
Y4693976D02*
D03*
Y4719566D02*
D03*
X709330D02*
D03*
Y4693976D02*
D03*
Y4668386D02*
D03*
Y4617204D02*
D03*
Y4591614D02*
D03*
Y4566024D02*
D03*
Y4540434D02*
D03*
Y1511024D02*
D03*
Y1536614D02*
D03*
Y1562204D02*
D03*
Y1613386D02*
D03*
X940670Y1664566D02*
D03*
Y1638976D02*
D03*
Y1613386D02*
D03*
Y1587796D02*
D03*
Y1562204D02*
D03*
Y1536614D02*
D03*
Y1511024D02*
D03*
Y1485434D02*
D03*
D24*
X1813544Y4440000D02*
D03*
Y1385000D02*
D03*
X5023544Y5075000D02*
D03*
Y4990000D02*
D03*
Y4905000D02*
D03*
X3243544Y4095000D02*
D03*
X5056456Y3470000D02*
D03*
X3923544Y3840000D02*
D03*
Y3755000D02*
D03*
X3243544Y4010000D02*
D03*
X3923544Y3670000D02*
D03*
X2777086Y5555000D02*
D03*
Y5640000D02*
D03*
Y5470000D02*
D03*
X2473544Y4590000D02*
D03*
Y4725000D02*
D03*
X2838544Y3420000D02*
D03*
X2648544Y3270000D02*
D03*
X5056456Y3055000D02*
D03*
Y2640000D02*
D03*
X5023544Y2015000D02*
D03*
Y2100000D02*
D03*
Y1930000D02*
D03*
X3923544Y700000D02*
D03*
Y785000D02*
D03*
Y615000D02*
D03*
X3243544Y955000D02*
D03*
Y1040000D02*
D03*
X2777086Y2500000D02*
D03*
Y2585000D02*
D03*
Y2415000D02*
D03*
X2473544Y1535000D02*
D03*
Y1670000D02*
D03*
X2838544Y365000D02*
D03*
X2648544Y215000D02*
D03*
X1756456Y4780000D02*
D03*
Y4610000D02*
D03*
Y4695000D02*
D03*
Y4440000D02*
D03*
Y4525000D02*
D03*
Y4355000D02*
D03*
X538544Y3395000D02*
D03*
Y2980000D02*
D03*
Y2560000D02*
D03*
X1756456Y1725000D02*
D03*
Y1640000D02*
D03*
Y1555000D02*
D03*
Y1470000D02*
D03*
Y1385000D02*
D03*
Y1300000D02*
D03*
X4966456Y5075000D02*
D03*
Y4905000D02*
D03*
Y4990000D02*
D03*
X2720000Y2585000D02*
D03*
Y2500000D02*
D03*
Y2415000D02*
D03*
X3186456Y1040000D02*
D03*
Y955000D02*
D03*
X3866456Y785000D02*
D03*
Y700000D02*
D03*
Y615000D02*
D03*
X2781456Y365000D02*
D03*
X2591456Y215000D02*
D03*
X1813544Y1470000D02*
D03*
Y1300000D02*
D03*
X2416456Y1670000D02*
D03*
X1813544Y1555000D02*
D03*
Y1640000D02*
D03*
Y1725000D02*
D03*
X2416456Y1535000D02*
D03*
X1813544Y4780000D02*
D03*
Y4695000D02*
D03*
Y4610000D02*
D03*
X2416456Y4590000D02*
D03*
Y4725000D02*
D03*
X1813544Y4355000D02*
D03*
Y4525000D02*
D03*
X2591456Y3270000D02*
D03*
X2781456Y3420000D02*
D03*
X3866456Y3670000D02*
D03*
Y3755000D02*
D03*
Y3840000D02*
D03*
X3186456Y4010000D02*
D03*
Y4095000D02*
D03*
X2720000Y5470000D02*
D03*
Y5555000D02*
D03*
Y5640000D02*
D03*
X5113544Y2640000D02*
D03*
X481456Y2560000D02*
D03*
X5113544Y3470000D02*
D03*
Y3055000D02*
D03*
X481456Y3395000D02*
D03*
Y2980000D02*
D03*
X4966456Y1930000D02*
D03*
Y2015000D02*
D03*
Y2100000D02*
D03*
D25*
X3827992Y4340472D02*
D03*
X3122992Y5865472D02*
D03*
Y5385472D02*
D03*
Y5625472D02*
D03*
Y2810472D02*
D03*
Y2570472D02*
D03*
X3827992Y1285472D02*
D03*
X3122992Y2330472D02*
D03*
X3247008Y2629528D02*
D03*
Y2609842D02*
D03*
Y2590158D02*
D03*
Y2570472D02*
D03*
X3122992Y2590158D02*
D03*
Y2609842D02*
D03*
Y2629528D02*
D03*
X3247008Y2389528D02*
D03*
Y2369842D02*
D03*
Y2350158D02*
D03*
Y2330472D02*
D03*
X3122992Y2350158D02*
D03*
Y2369842D02*
D03*
Y2389528D02*
D03*
X3247008Y2869528D02*
D03*
Y2849842D02*
D03*
Y2830158D02*
D03*
Y2810472D02*
D03*
X3122992Y2830158D02*
D03*
Y2849842D02*
D03*
Y2869528D02*
D03*
X3952008Y1344528D02*
D03*
Y1324842D02*
D03*
Y1305158D02*
D03*
Y1285472D02*
D03*
X3827992Y1305158D02*
D03*
Y1324842D02*
D03*
Y1344528D02*
D03*
X3952008Y4399528D02*
D03*
Y4379842D02*
D03*
Y4360158D02*
D03*
Y4340472D02*
D03*
X3827992Y4360158D02*
D03*
Y4379842D02*
D03*
Y4399528D02*
D03*
X3122992Y5924528D02*
D03*
Y5904842D02*
D03*
Y5885158D02*
D03*
X3247008Y5865472D02*
D03*
Y5885158D02*
D03*
Y5904842D02*
D03*
Y5924528D02*
D03*
X3122992Y5444528D02*
D03*
Y5424842D02*
D03*
Y5405158D02*
D03*
X3247008Y5385472D02*
D03*
Y5405158D02*
D03*
Y5424842D02*
D03*
Y5444528D02*
D03*
X3122992Y5684528D02*
D03*
Y5664842D02*
D03*
Y5645158D02*
D03*
X3247008Y5625472D02*
D03*
Y5645158D02*
D03*
Y5664842D02*
D03*
Y5684528D02*
D03*
D26*
X4984134Y3470000D02*
D03*
Y3055000D02*
D03*
Y2640000D02*
D03*
X610866Y3395000D02*
D03*
Y2980000D02*
D03*
Y2560000D02*
D03*
X4875866Y2602598D02*
D03*
Y2677402D02*
D03*
X4984134D02*
D03*
Y2602598D02*
D03*
X610866Y2597402D02*
D03*
Y2522598D02*
D03*
X719134D02*
D03*
Y2597402D02*
D03*
X4984134Y3432598D02*
D03*
Y3507402D02*
D03*
X4875866D02*
D03*
Y3432598D02*
D03*
Y3017598D02*
D03*
Y3092402D02*
D03*
X4984134D02*
D03*
Y3017598D02*
D03*
X610866Y3432402D02*
D03*
Y3357598D02*
D03*
X719134D02*
D03*
Y3432402D02*
D03*
X610866Y3017402D02*
D03*
Y2942598D02*
D03*
X719134D02*
D03*
Y3017402D02*
D03*
D27*
X3702204Y3639330D02*
D03*
Y584330D02*
D03*
X3804566Y815670D02*
D03*
X3778976D02*
D03*
X3753386D02*
D03*
X3727796D02*
D03*
X3702204D02*
D03*
X3676614D02*
D03*
X3651024D02*
D03*
X3625434D02*
D03*
Y584330D02*
D03*
X3651024D02*
D03*
X3676614D02*
D03*
X3727796D02*
D03*
X3753386D02*
D03*
X3778976D02*
D03*
X3804566D02*
D03*
Y3870670D02*
D03*
X3778976D02*
D03*
X3753386D02*
D03*
X3727796D02*
D03*
X3702204D02*
D03*
X3676614D02*
D03*
X3651024D02*
D03*
X3625434D02*
D03*
Y3639330D02*
D03*
X3651024D02*
D03*
X3676614D02*
D03*
X3727796D02*
D03*
X3753386D02*
D03*
X3778976D02*
D03*
X3804566D02*
D03*
D28*
X2660472Y3482008D02*
D03*
X2470472Y3332008D02*
D03*
X2660472Y427008D02*
D03*
X2470472Y277008D02*
D03*
X2719528Y302992D02*
D03*
X2699842D02*
D03*
X2680158D02*
D03*
X2660472D02*
D03*
X2680158Y427008D02*
D03*
X2699842D02*
D03*
X2719528D02*
D03*
X2529528Y152992D02*
D03*
X2509842D02*
D03*
X2490158D02*
D03*
X2470472D02*
D03*
X2490158Y277008D02*
D03*
X2509842D02*
D03*
X2529528D02*
D03*
Y3207992D02*
D03*
X2509842D02*
D03*
X2490158D02*
D03*
X2470472D02*
D03*
X2490158Y3332008D02*
D03*
X2509842D02*
D03*
X2529528D02*
D03*
X2719528Y3357992D02*
D03*
X2699842D02*
D03*
X2680158D02*
D03*
X2660472D02*
D03*
X2680158Y3482008D02*
D03*
X2699842D02*
D03*
X2719528D02*
D03*
D29*
X2225000Y1735000D02*
D03*
X2287992D02*
D03*
X2225000Y1797992D02*
D03*
Y4790000D02*
D03*
X2287992D02*
D03*
X2225000Y4852992D02*
D03*
D30*
X2405000Y1395000D02*
D03*
Y1332008D02*
D03*
X2467992Y1395000D02*
D03*
X2405000Y4450000D02*
D03*
Y4387008D02*
D03*
X2467992Y4450000D02*
D03*
D36*
X4700236Y6851772D02*
D03*
Y6826181D02*
D03*
Y6800591D02*
D03*
Y6775000D02*
D03*
Y6749409D02*
D03*
Y6723819D02*
D03*
Y6698228D02*
D03*
X4479764D02*
D03*
Y6723819D02*
D03*
Y6749409D02*
D03*
Y6775000D02*
D03*
Y6800591D02*
D03*
Y6826181D02*
D03*
Y6851772D02*
D03*
D56*
X4910000Y150000D02*
D03*
X5410000Y650000D02*
D03*
Y8100000D02*
D03*
X4910000Y8600000D02*
D03*
X650000Y150000D02*
D03*
X150000Y650000D02*
D03*
Y8100000D02*
D03*
X650000Y8600000D02*
D03*
X150000D02*
D03*
Y150000D02*
D03*
X5410000Y8600000D02*
D03*
Y150000D02*
D03*
D57*
X4710000Y4660000D02*
D03*
X2465000Y5215000D02*
D03*
Y2160000D02*
D03*
X4710000Y1685000D02*
D03*
X2930000Y3755000D02*
D03*
Y700000D02*
D03*
X645000Y3920000D02*
D03*
X4130000Y6555000D02*
D03*
X4030000D02*
D03*
X2030000Y6355000D02*
D03*
X1930000D02*
D03*
X1370000Y8255000D02*
D03*
X4830000Y4660000D02*
D03*
X1340000Y4895000D02*
D03*
X1440000Y4995000D02*
D03*
X1340000D02*
D03*
X1440000Y5095000D02*
D03*
X1340000D02*
D03*
Y1840000D02*
D03*
X1440000Y1940000D02*
D03*
X1340000D02*
D03*
X1440000Y2040000D02*
D03*
X1340000D02*
D03*
X2585000Y2160000D02*
D03*
X3050000Y700000D02*
D03*
X1760000Y1975000D02*
D03*
X3900000Y355000D02*
D03*
X3800000D02*
D03*
X3700000D02*
D03*
X3600000D02*
D03*
X3500000D02*
D03*
X2500000Y1100000D02*
D03*
X2775000Y1240000D02*
D03*
X1340000Y1590000D02*
D03*
X1440000Y1470000D02*
D03*
X4245000Y1920000D02*
D03*
X4145000Y1800000D02*
D03*
X4245000Y1590000D02*
D03*
X4145000Y1470000D02*
D03*
X2775000Y4295000D02*
D03*
X1760000Y5030000D02*
D03*
X4245000Y4645000D02*
D03*
X4145000Y4525000D02*
D03*
X4245000Y4975000D02*
D03*
X4145000Y4855000D02*
D03*
X1340000Y4645000D02*
D03*
X1440000Y4525000D02*
D03*
X2500000Y4155000D02*
D03*
X3900000Y3410000D02*
D03*
X3800000D02*
D03*
X3700000D02*
D03*
X3600000D02*
D03*
X3500000D02*
D03*
X3050000Y3755000D02*
D03*
X2585000Y5215000D02*
D03*
X4790000Y2565000D02*
D03*
X805000Y2635000D02*
D03*
X905000Y3055000D02*
D03*
Y3275000D02*
D03*
X4830000Y1685000D02*
D03*
X2430000Y6355000D02*
D03*
X2630000D02*
D03*
X2530000D02*
D03*
X2830000D02*
D03*
X2730000D02*
D03*
X3030000D02*
D03*
X2930000D02*
D03*
X2330000D02*
D03*
X4130000Y6655000D02*
D03*
X4030000D02*
D03*
X4130000Y6955000D02*
D03*
Y6855000D02*
D03*
Y6755000D02*
D03*
Y7055000D02*
D03*
X4030000Y6955000D02*
D03*
Y6855000D02*
D03*
Y6755000D02*
D03*
Y7055000D02*
D03*
X4130000Y7455000D02*
D03*
Y7355000D02*
D03*
X4030000D02*
D03*
X4130000Y7255000D02*
D03*
X4030000D02*
D03*
X4130000Y7155000D02*
D03*
X4030000D02*
D03*
Y7455000D02*
D03*
X4130000Y7755000D02*
D03*
Y7655000D02*
D03*
Y7555000D02*
D03*
Y7855000D02*
D03*
X4030000Y7755000D02*
D03*
Y7655000D02*
D03*
Y7555000D02*
D03*
Y7855000D02*
D03*
X3130000Y8255000D02*
D03*
X3330000D02*
D03*
X3230000D02*
D03*
X3530000D02*
D03*
X3430000D02*
D03*
X3730000D02*
D03*
X3630000D02*
D03*
X3030000D02*
D03*
X2230000D02*
D03*
X2430000D02*
D03*
X2330000D02*
D03*
X2630000D02*
D03*
X2530000D02*
D03*
X2830000D02*
D03*
X2730000D02*
D03*
X1570000D02*
D03*
X1470000D02*
D03*
X1770000D02*
D03*
X1670000D02*
D03*
X1170000D02*
D03*
X1070000D02*
D03*
X1270000D02*
D03*
X1970000D02*
D03*
X1870000D02*
D03*
X2130000D02*
D03*
X4130000D02*
D03*
Y8155000D02*
D03*
X4030000D02*
D03*
X4130000Y8055000D02*
D03*
X4030000D02*
D03*
X4130000Y7955000D02*
D03*
X4030000D02*
D03*
Y8255000D02*
D03*
X3330000Y6355000D02*
D03*
X3530000D02*
D03*
X3430000D02*
D03*
X3730000D02*
D03*
X3630000D02*
D03*
X3930000D02*
D03*
X3830000D02*
D03*
X3230000D02*
D03*
X1530000D02*
D03*
X1730000D02*
D03*
X1630000D02*
D03*
X1830000D02*
D03*
X2130000D02*
D03*
X1430000D02*
D03*
D58*
X3545000Y5200000D02*
D03*
X3345000D02*
D03*
X3545000Y5000000D02*
D03*
X3345000Y4700000D02*
D03*
Y5000000D02*
D03*
X3545000Y4500000D02*
D03*
Y4700000D02*
D03*
X3550000Y4200000D02*
D03*
X3350000D02*
D03*
X3345000Y4500000D02*
D03*
X3550000Y4000000D02*
D03*
X3350000D02*
D03*
X2845000Y5200000D02*
D03*
X2290000Y5665000D02*
D03*
Y5865000D02*
D03*
X3045000Y5200000D02*
D03*
Y5000000D02*
D03*
X2845000D02*
D03*
X2125000Y5165000D02*
D03*
Y5365000D02*
D03*
X2465000Y3620000D02*
D03*
Y3820000D02*
D03*
X2265000Y3620000D02*
D03*
Y3820000D02*
D03*
X3545000Y1645000D02*
D03*
Y1945000D02*
D03*
X3550000Y1145000D02*
D03*
Y945000D02*
D03*
X3545000Y2145000D02*
D03*
X3345000Y1645000D02*
D03*
Y1945000D02*
D03*
X3545000Y1445000D02*
D03*
X3350000Y1145000D02*
D03*
X3345000Y1445000D02*
D03*
Y2145000D02*
D03*
X3350000Y945000D02*
D03*
X2845000Y2145000D02*
D03*
X2290000Y2610000D02*
D03*
Y2810000D02*
D03*
X3045000Y2145000D02*
D03*
Y1945000D02*
D03*
X2845000D02*
D03*
X2125000Y2110000D02*
D03*
Y2310000D02*
D03*
X2465000Y565000D02*
D03*
Y765000D02*
D03*
X2265000Y565000D02*
D03*
Y765000D02*
D03*
X2090000Y5865000D02*
D03*
Y5665000D02*
D03*
X1925000Y5165000D02*
D03*
Y5365000D02*
D03*
X2090000Y2810000D02*
D03*
Y2610000D02*
D03*
X1965000Y3820000D02*
D03*
Y3620000D02*
D03*
X1925000Y2110000D02*
D03*
Y2310000D02*
D03*
X1765000Y3620000D02*
D03*
Y3820000D02*
D03*
X1965000Y765000D02*
D03*
Y565000D02*
D03*
X1765000D02*
D03*
Y765000D02*
D03*
D59*
X1440000Y4895000D02*
D03*
Y1840000D02*
D03*
X645000Y3820000D02*
D03*
X905000Y3175000D02*
D03*
D60*
X2365000Y665000D02*
D03*
X2025000Y2210000D02*
D03*
X1865000Y665000D02*
D03*
X2945000Y2045000D02*
D03*
X2190000Y2710000D02*
D03*
X3445000Y2045000D02*
D03*
X3450000Y1045000D02*
D03*
X3445000Y1545000D02*
D03*
X3450000Y4100000D02*
D03*
X3445000Y4600000D02*
D03*
X2190000Y5765000D02*
D03*
X3445000Y5100000D02*
D03*
X1865000Y3720000D02*
D03*
X2945000Y5100000D02*
D03*
X2365000Y3720000D02*
D03*
X2025000Y5265000D02*
D03*
D61*
X4000000Y355000D02*
D03*
X1440000Y1590000D02*
D03*
X1340000Y1470000D02*
D03*
X4145000Y1920000D02*
D03*
X4245000Y1800000D02*
D03*
X4145000Y1590000D02*
D03*
X4245000Y1470000D02*
D03*
X4145000Y4645000D02*
D03*
X4245000Y4525000D02*
D03*
X4145000Y4975000D02*
D03*
X4245000Y4855000D02*
D03*
X1440000Y4645000D02*
D03*
X1340000Y4525000D02*
D03*
X4000000Y3410000D02*
D03*
X4690000Y2565000D02*
D03*
X905000Y2635000D02*
D03*
X805000Y3055000D02*
D03*
M02*
