G04*
G04 #@! TF.GenerationSoftware,Altium Limited,Altium Designer,23.5.1 (21)*
G04*
G04 Layer_Physical_Order=2*
G04 Layer_Color=32768*
%FSLAX26Y26*%
%MOIN*%
G70*
G04*
G04 #@! TF.SameCoordinates,6A5F5C75-F477-485A-9627-383C203D1060*
G04*
G04*
G04 #@! TF.FilePolarity,Negative*
G04*
G01*
G75*
%ADD64C,0.040000*%
%ADD65C,0.140000*%
%ADD66C,0.075433*%
G04:AMPARAMS|DCode=67|XSize=130mil|YSize=130mil|CornerRadius=0mil|HoleSize=0mil|Usage=FLASHONLY|Rotation=0.000|XOffset=0mil|YOffset=0mil|HoleType=Round|Shape=Relief|Width=10mil|Gap=10mil|Entries=4|*
%AMTHD67*
7,0,0,0.130000,0.110000,0.010000,45*
%
%ADD67THD67*%
G04:AMPARAMS|DCode=68|XSize=65.433mil|YSize=65.433mil|CornerRadius=0mil|HoleSize=0mil|Usage=FLASHONLY|Rotation=0.000|XOffset=0mil|YOffset=0mil|HoleType=Round|Shape=Relief|Width=10mil|Gap=10mil|Entries=4|*
%AMTHD68*
7,0,0,0.065433,0.045433,0.010000,45*
%
%ADD68THD68*%
G04:AMPARAMS|DCode=69|XSize=92.992mil|YSize=92.992mil|CornerRadius=0mil|HoleSize=0mil|Usage=FLASHONLY|Rotation=0.000|XOffset=0mil|YOffset=0mil|HoleType=Round|Shape=Relief|Width=10mil|Gap=10mil|Entries=4|*
%AMTHD69*
7,0,0,0.092992,0.072992,0.010000,45*
%
%ADD69THD69*%
%ADD70C,0.099055*%
%ADD71C,0.055000*%
G04:AMPARAMS|DCode=72|XSize=45mil|YSize=45mil|CornerRadius=0mil|HoleSize=0mil|Usage=FLASHONLY|Rotation=0.000|XOffset=0mil|YOffset=0mil|HoleType=Round|Shape=Relief|Width=10mil|Gap=10mil|Entries=4|*
%AMTHD72*
7,0,0,0.045000,0.025000,0.010000,45*
%
%ADD72THD72*%
%ADD73C,0.068000*%
G04:AMPARAMS|DCode=74|XSize=58mil|YSize=58mil|CornerRadius=0mil|HoleSize=0mil|Usage=FLASHONLY|Rotation=0.000|XOffset=0mil|YOffset=0mil|HoleType=Round|Shape=Relief|Width=10mil|Gap=10mil|Entries=4|*
%AMTHD74*
7,0,0,0.058000,0.038000,0.010000,45*
%
%ADD74THD74*%
D64*
X0Y0D02*
Y8750000D01*
X5560000D01*
Y0D02*
Y8750000D01*
X0Y0D02*
X5560000D01*
D65*
X4910000Y150000D02*
D03*
X5410000Y650000D02*
D03*
Y8100000D02*
D03*
X4910000Y8600000D02*
D03*
X650000Y150000D02*
D03*
X150000Y650000D02*
D03*
Y8100000D02*
D03*
X650000Y8600000D02*
D03*
D66*
X4710000Y4660000D02*
D03*
X2465000Y5215000D02*
D03*
Y2160000D02*
D03*
X4710000Y1685000D02*
D03*
X2930000Y3755000D02*
D03*
Y700000D02*
D03*
X645000Y3920000D02*
D03*
X4830000Y4660000D02*
D03*
X1440000Y4895000D02*
D03*
X1340000D02*
D03*
X1440000Y4995000D02*
D03*
X1340000D02*
D03*
X1440000Y5095000D02*
D03*
X1340000D02*
D03*
X1440000Y1840000D02*
D03*
X1340000D02*
D03*
X1440000Y1940000D02*
D03*
X1340000D02*
D03*
X1440000Y2040000D02*
D03*
X1340000D02*
D03*
X2585000Y2160000D02*
D03*
X3050000Y700000D02*
D03*
X1760000Y1975000D02*
D03*
X4000000Y355000D02*
D03*
X3900000D02*
D03*
X3800000D02*
D03*
X3700000D02*
D03*
X3600000D02*
D03*
X3500000D02*
D03*
X2500000Y1100000D02*
D03*
X2775000Y1240000D02*
D03*
X1440000Y1590000D02*
D03*
X1340000D02*
D03*
Y1470000D02*
D03*
X1440000D02*
D03*
X4145000Y1920000D02*
D03*
X4245000D02*
D03*
Y1800000D02*
D03*
X4145000D02*
D03*
Y1590000D02*
D03*
X4245000D02*
D03*
Y1470000D02*
D03*
X4145000D02*
D03*
X2775000Y4295000D02*
D03*
X1760000Y5030000D02*
D03*
X4245000Y4645000D02*
D03*
X4145000D02*
D03*
Y4525000D02*
D03*
X4245000D02*
D03*
Y4975000D02*
D03*
X4145000D02*
D03*
Y4855000D02*
D03*
X4245000D02*
D03*
X1340000Y4645000D02*
D03*
X1440000D02*
D03*
Y4525000D02*
D03*
X1340000D02*
D03*
X2500000Y4155000D02*
D03*
X4000000Y3410000D02*
D03*
X3900000D02*
D03*
X3800000D02*
D03*
X3700000D02*
D03*
X3600000D02*
D03*
X3500000D02*
D03*
X3050000Y3755000D02*
D03*
X2585000Y5215000D02*
D03*
X4690000Y2565000D02*
D03*
X4790000D02*
D03*
X805000Y2635000D02*
D03*
X905000D02*
D03*
X645000Y3820000D02*
D03*
X905000Y3055000D02*
D03*
X805000D02*
D03*
X905000Y3275000D02*
D03*
Y3175000D02*
D03*
X4830000Y1685000D02*
D03*
X2430000Y6355000D02*
D03*
X2630000D02*
D03*
X2530000D02*
D03*
X2830000D02*
D03*
X2730000D02*
D03*
X3030000D02*
D03*
X2930000D02*
D03*
X2330000D02*
D03*
X4130000Y6655000D02*
D03*
X4030000D02*
D03*
X4130000Y6955000D02*
D03*
Y6855000D02*
D03*
Y6755000D02*
D03*
Y7055000D02*
D03*
X4030000Y6955000D02*
D03*
Y6855000D02*
D03*
Y6755000D02*
D03*
Y7055000D02*
D03*
X4130000Y7455000D02*
D03*
Y7355000D02*
D03*
X4030000D02*
D03*
X4130000Y7255000D02*
D03*
X4030000D02*
D03*
X4130000Y7155000D02*
D03*
X4030000D02*
D03*
Y7455000D02*
D03*
X4130000Y7755000D02*
D03*
Y7655000D02*
D03*
Y7555000D02*
D03*
Y7855000D02*
D03*
X4030000Y7755000D02*
D03*
Y7655000D02*
D03*
Y7555000D02*
D03*
Y7855000D02*
D03*
X3130000Y8255000D02*
D03*
X3330000D02*
D03*
X3230000D02*
D03*
X3530000D02*
D03*
X3430000D02*
D03*
X3730000D02*
D03*
X3630000D02*
D03*
X3030000D02*
D03*
X2230000D02*
D03*
X2430000D02*
D03*
X2330000D02*
D03*
X2630000D02*
D03*
X2530000D02*
D03*
X2830000D02*
D03*
X2730000D02*
D03*
X1570000D02*
D03*
X1470000D02*
D03*
X1770000D02*
D03*
X1670000D02*
D03*
X1170000D02*
D03*
X1070000D02*
D03*
X1270000D02*
D03*
X1970000D02*
D03*
X1870000D02*
D03*
X2130000D02*
D03*
X4130000D02*
D03*
Y8155000D02*
D03*
X4030000D02*
D03*
X4130000Y8055000D02*
D03*
X4030000D02*
D03*
X4130000Y7955000D02*
D03*
X4030000D02*
D03*
Y8255000D02*
D03*
X3330000Y6355000D02*
D03*
X3530000D02*
D03*
X3430000D02*
D03*
X3730000D02*
D03*
X3630000D02*
D03*
X3930000D02*
D03*
X3830000D02*
D03*
X3230000D02*
D03*
X1530000D02*
D03*
X1730000D02*
D03*
X1630000D02*
D03*
X1830000D02*
D03*
X2130000D02*
D03*
X1430000D02*
D03*
X1045000Y2505000D02*
D03*
X790000Y3490000D02*
D03*
D67*
X150000Y8600000D02*
D03*
Y150000D02*
D03*
X5410000Y8600000D02*
D03*
Y150000D02*
D03*
D68*
X4130000Y6555000D02*
D03*
X4030000D02*
D03*
X2030000Y6355000D02*
D03*
X1930000D02*
D03*
X1370000Y8255000D02*
D03*
D69*
X3545000Y5200000D02*
D03*
X3345000D02*
D03*
X3545000Y5000000D02*
D03*
X3345000Y4700000D02*
D03*
Y5000000D02*
D03*
X3545000Y4500000D02*
D03*
Y4700000D02*
D03*
X3550000Y4200000D02*
D03*
X3350000D02*
D03*
X3345000Y4500000D02*
D03*
X3550000Y4000000D02*
D03*
X3350000D02*
D03*
X2845000Y5200000D02*
D03*
X2290000Y5665000D02*
D03*
Y5865000D02*
D03*
X3045000Y5200000D02*
D03*
Y5000000D02*
D03*
X2845000D02*
D03*
X2125000Y5165000D02*
D03*
Y5365000D02*
D03*
X2465000Y3620000D02*
D03*
Y3820000D02*
D03*
X2265000Y3620000D02*
D03*
Y3820000D02*
D03*
X3545000Y1645000D02*
D03*
Y1945000D02*
D03*
X3550000Y1145000D02*
D03*
Y945000D02*
D03*
X3545000Y2145000D02*
D03*
X3345000Y1645000D02*
D03*
Y1945000D02*
D03*
X3545000Y1445000D02*
D03*
X3350000Y1145000D02*
D03*
X3345000Y1445000D02*
D03*
Y2145000D02*
D03*
X3350000Y945000D02*
D03*
X2845000Y2145000D02*
D03*
X2290000Y2610000D02*
D03*
Y2810000D02*
D03*
X3045000Y2145000D02*
D03*
Y1945000D02*
D03*
X2845000D02*
D03*
X2125000Y2110000D02*
D03*
Y2310000D02*
D03*
X2465000Y565000D02*
D03*
Y765000D02*
D03*
X2265000Y565000D02*
D03*
Y765000D02*
D03*
X2090000Y5865000D02*
D03*
Y5665000D02*
D03*
X1925000Y5165000D02*
D03*
Y5365000D02*
D03*
X2090000Y2810000D02*
D03*
Y2610000D02*
D03*
X1965000Y3820000D02*
D03*
Y3620000D02*
D03*
X1925000Y2110000D02*
D03*
Y2310000D02*
D03*
X1765000Y3620000D02*
D03*
Y3820000D02*
D03*
X1965000Y765000D02*
D03*
Y565000D02*
D03*
X1765000D02*
D03*
Y765000D02*
D03*
D70*
X2365000Y665000D02*
D03*
X2025000Y2210000D02*
D03*
X1865000Y665000D02*
D03*
X2945000Y2045000D02*
D03*
X2190000Y2710000D02*
D03*
X3445000Y2045000D02*
D03*
X3450000Y1045000D02*
D03*
X3445000Y1545000D02*
D03*
X3450000Y4100000D02*
D03*
X3445000Y4600000D02*
D03*
X2190000Y5765000D02*
D03*
X3445000Y5100000D02*
D03*
X1865000Y3720000D02*
D03*
X2945000Y5100000D02*
D03*
X2365000Y3720000D02*
D03*
X2025000Y5265000D02*
D03*
D71*
X4355144Y6956413D02*
D03*
X1335000Y4120000D02*
D03*
X3050000Y1030000D02*
D03*
X3436867Y2278048D02*
D03*
X3260000Y2925000D02*
D03*
X3335000Y2840000D02*
D03*
X4985000Y2290000D02*
D03*
X4273873Y6516434D02*
D03*
X2840000Y6475000D02*
D03*
X2841075Y6666063D02*
D03*
X2885000Y6435000D02*
D03*
X2890000Y6620000D02*
D03*
X2523826Y5435566D02*
D03*
X4325000Y6565000D02*
D03*
X810000Y1237500D02*
D03*
X760000Y1257500D02*
D03*
X1875000Y4630000D02*
D03*
X1886448Y4675966D02*
D03*
X1730000Y5882500D02*
D03*
X1675000D02*
D03*
X1620000D02*
D03*
X1565000D02*
D03*
X1785000D02*
D03*
X1340000Y5915000D02*
D03*
X145000Y5660000D02*
D03*
X275000Y5630000D02*
D03*
X145000Y5880000D02*
D03*
Y5825000D02*
D03*
Y5770000D02*
D03*
Y5715000D02*
D03*
X1980000Y4730000D02*
D03*
X1895000D02*
D03*
X3063793Y3510687D02*
D03*
X2907042Y3680000D02*
D03*
X2780000Y2770000D02*
D03*
X2120000Y4255000D02*
D03*
X845000Y1090000D02*
D03*
X2034090Y1217500D02*
D03*
X1250000Y1085000D02*
D03*
X2115000Y1195000D02*
D03*
X2080000Y1230000D02*
D03*
X802865Y1117346D02*
D03*
X1200481Y835481D02*
D03*
X810000Y1195000D02*
D03*
X1886478Y1631464D02*
D03*
X1885000Y1515000D02*
D03*
Y4570000D02*
D03*
X2085000Y4300000D02*
D03*
X1874938Y1576102D02*
D03*
X400000Y4045000D02*
D03*
X540000D02*
D03*
X365000Y4000000D02*
D03*
X505000D02*
D03*
X470000Y4045000D02*
D03*
X435000Y4000000D02*
D03*
X465000Y3700000D02*
D03*
X573326Y3742148D02*
D03*
X500000Y3745000D02*
D03*
X535000Y3700000D02*
D03*
X430000Y3745000D02*
D03*
X395000Y3700000D02*
D03*
X925000Y2075000D02*
D03*
Y2020000D02*
D03*
X930000Y1955000D02*
D03*
X935000Y2150000D02*
D03*
X905000Y2215000D02*
D03*
X920000Y2290000D02*
D03*
X1165000Y2035000D02*
D03*
X1100000Y2075000D02*
D03*
X1150000Y2115000D02*
D03*
X1100000Y2150000D02*
D03*
X1145000Y2200000D02*
D03*
X1105000Y2250000D02*
D03*
X1710000Y2855000D02*
D03*
X1700000Y2760000D02*
D03*
X2830000Y2840000D02*
D03*
X860000Y4030000D02*
D03*
X830000Y3975000D02*
D03*
X895000Y3980000D02*
D03*
X890000Y4085000D02*
D03*
X850000Y4125000D02*
D03*
X895000Y4165000D02*
D03*
X685000Y4120000D02*
D03*
X695000Y4060000D02*
D03*
X1025000Y3900000D02*
D03*
X1030000Y3960000D02*
D03*
X1010000Y4010000D02*
D03*
X1020000Y4065000D02*
D03*
X1025000Y4120000D02*
D03*
X1055000Y4165000D02*
D03*
X4985000Y2255000D02*
D03*
X4750000Y2185000D02*
D03*
Y2240000D02*
D03*
X1157518Y4593056D02*
D03*
X1216236Y4576658D02*
D03*
X3028092Y521908D02*
D03*
X3046116Y438010D02*
D03*
X3020000Y560000D02*
D03*
X1020000Y1730000D02*
D03*
Y1655000D02*
D03*
X915000Y1855000D02*
D03*
Y1785000D02*
D03*
X2870000Y625000D02*
D03*
X3028092Y3576908D02*
D03*
X2957500Y3655000D02*
D03*
X3020000Y3615000D02*
D03*
X2780000Y3230000D02*
D03*
Y3500000D02*
D03*
X2775000Y175000D02*
D03*
X2780000Y445000D02*
D03*
X1345000Y4082500D02*
D03*
X1260000Y3940000D02*
D03*
X1210000Y3890000D02*
D03*
X1235480Y3964520D02*
D03*
X1280984Y4019016D02*
D03*
X1250000Y985000D02*
D03*
X1200000Y1035000D02*
D03*
X1250000Y885000D02*
D03*
X1200000Y935000D02*
D03*
X2590000Y295000D02*
D03*
X2487500Y1800000D02*
D03*
X2506542Y1565758D02*
D03*
X2523826Y2380566D02*
D03*
X2295000Y2415000D02*
D03*
X2523826Y2315566D02*
D03*
X2295000Y2350000D02*
D03*
X2950000Y600000D02*
D03*
X2750000Y1035000D02*
D03*
X2820000Y1075000D02*
D03*
X3335000Y2600000D02*
D03*
Y2360000D02*
D03*
X1885000Y1300000D02*
D03*
Y1385000D02*
D03*
X1895000Y1675000D02*
D03*
X1980000D02*
D03*
X2395000Y1150000D02*
D03*
X2487500Y4855000D02*
D03*
X2295000Y5470000D02*
D03*
X2523826Y5370566D02*
D03*
X2295000Y5405000D02*
D03*
X2750000Y4090000D02*
D03*
X1885000Y1470000D02*
D03*
X3260000Y2685000D02*
D03*
Y2445000D02*
D03*
X1960000Y1215000D02*
D03*
X2395000Y4205000D02*
D03*
X2035000Y4270000D02*
D03*
X1885000Y4355000D02*
D03*
Y4440000D02*
D03*
X3335000Y5415000D02*
D03*
Y5655000D02*
D03*
Y5895000D02*
D03*
X3920000Y5095000D02*
D03*
X2820000Y4130000D02*
D03*
X2506542Y4620758D02*
D03*
X2590000Y3350000D02*
D03*
X3260000Y5740000D02*
D03*
Y5500000D02*
D03*
Y5980000D02*
D03*
X1885000Y4525000D02*
D03*
X1960000Y4270000D02*
D03*
D72*
X2028386Y1531614D02*
D03*
X2071693D02*
D03*
X2115000D02*
D03*
X2158307D02*
D03*
X2201614D02*
D03*
X2028386Y1488307D02*
D03*
X2071693D02*
D03*
X2115000D02*
D03*
X2158307D02*
D03*
X2201614D02*
D03*
X2028386Y1445000D02*
D03*
X2071693D02*
D03*
X2115000D02*
D03*
X2158307D02*
D03*
X2201614D02*
D03*
X2028386Y1401693D02*
D03*
X2071693D02*
D03*
X2115000D02*
D03*
X2158307D02*
D03*
X2201614D02*
D03*
X2028386Y1358386D02*
D03*
X2071693D02*
D03*
X2115000D02*
D03*
X2158307D02*
D03*
X2201614D02*
D03*
X2028386Y4586614D02*
D03*
X2071693D02*
D03*
X2115000D02*
D03*
X2158307D02*
D03*
X2201614D02*
D03*
X2028386Y4543307D02*
D03*
X2071693D02*
D03*
X2115000D02*
D03*
X2158307D02*
D03*
X2201614D02*
D03*
X2028386Y4500000D02*
D03*
X2071693D02*
D03*
X2115000D02*
D03*
X2158307D02*
D03*
X2201614D02*
D03*
X2028386Y4456693D02*
D03*
X2071693D02*
D03*
X2115000D02*
D03*
X2158307D02*
D03*
X2201614D02*
D03*
X2028386Y4413386D02*
D03*
X2071693D02*
D03*
X2115000D02*
D03*
X2158307D02*
D03*
X2201614D02*
D03*
X3749134Y1264598D02*
D03*
X5065000Y2100000D02*
D03*
X5070000Y4990000D02*
D03*
Y5075000D02*
D03*
Y4905000D02*
D03*
X4790000Y6747500D02*
D03*
X4390000Y6773091D02*
D03*
X4525000Y7170000D02*
D03*
X4610000D02*
D03*
X4695000D02*
D03*
X4390000Y6695000D02*
D03*
X5065000Y1930000D02*
D03*
Y2015000D02*
D03*
X810000Y1325000D02*
D03*
X642169Y1725093D02*
D03*
X640000Y1590000D02*
D03*
X680000Y1420000D02*
D03*
X738870Y1327017D02*
D03*
X898870D02*
D03*
X2777914Y2458399D02*
D03*
X2777086Y2542500D02*
D03*
X2778087Y5510000D02*
D03*
X2775000Y5595000D02*
D03*
X910000Y4380000D02*
D03*
X825000D02*
D03*
X740000D02*
D03*
X1685000Y1385000D02*
D03*
Y1470000D02*
D03*
Y1642500D02*
D03*
Y1560000D02*
D03*
Y4695000D02*
D03*
Y4610000D02*
D03*
Y4440000D02*
D03*
Y4525000D02*
D03*
X2777294Y2606484D02*
D03*
X595000Y4645000D02*
D03*
X2855000Y412500D02*
D03*
X795000Y2560000D02*
D03*
X2830000Y720000D02*
D03*
X2835910Y3780910D02*
D03*
X2855000Y3467500D02*
D03*
X2495000Y2660000D02*
D03*
X2715000Y3220000D02*
D03*
X4620000Y4660000D02*
D03*
X4818832Y2640000D02*
D03*
X4800000Y3055000D02*
D03*
X2420000Y3335000D02*
D03*
X757500Y3395000D02*
D03*
X795000Y2980000D02*
D03*
X2715000Y165000D02*
D03*
X3110000Y2990000D02*
D03*
X2540738Y1758430D02*
D03*
X3890000Y1535000D02*
D03*
X2590000Y1610000D02*
D03*
X2285000Y2125000D02*
D03*
X3110000Y2510000D02*
D03*
Y2270000D02*
D03*
X2610000Y430000D02*
D03*
X2420000Y280000D02*
D03*
X3110000Y2750000D02*
D03*
X2715000Y1585000D02*
D03*
Y1485000D02*
D03*
Y1385000D02*
D03*
X2590000Y4665000D02*
D03*
X2610000Y3485000D02*
D03*
X2495000Y5715000D02*
D03*
X2795000Y5725000D02*
D03*
X2715000Y4440000D02*
D03*
Y4540000D02*
D03*
Y4640000D02*
D03*
X2540738Y4813430D02*
D03*
X2285000Y5180000D02*
D03*
X4620000Y1685000D02*
D03*
X4800000Y3470000D02*
D03*
X3110000Y5805000D02*
D03*
Y5565000D02*
D03*
Y5325000D02*
D03*
Y6045000D02*
D03*
X3749134Y4319598D02*
D03*
X3890000Y4590000D02*
D03*
D73*
X3925000Y3975000D02*
D03*
X3420000Y3810000D02*
D03*
X3180012Y3453800D02*
D03*
X4310000Y4260000D02*
D03*
X4645000Y6355000D02*
D03*
X4315000Y5480000D02*
D03*
X4085000Y2815000D02*
D03*
X3465000Y2870000D02*
D03*
X2720000Y3005000D02*
D03*
X5320000Y5910000D02*
D03*
X4820000Y6405000D02*
D03*
X5035000Y1120000D02*
D03*
X5010000Y6525000D02*
D03*
X5055000Y3375000D02*
D03*
X4085000Y5770000D02*
D03*
X4080000Y6385000D02*
D03*
X3675000Y4680000D02*
D03*
X3045000Y4130000D02*
D03*
X3675000Y4430000D02*
D03*
X3795000Y4825000D02*
D03*
X3910000Y5015000D02*
D03*
X4040000Y5125000D02*
D03*
X4590000Y6775000D02*
D03*
X4910000Y5175000D02*
D03*
X1025000Y1232500D02*
D03*
X1820000Y900000D02*
D03*
X1700000Y5190000D02*
D03*
X1785000Y5195000D02*
D03*
X1665000Y5135000D02*
D03*
X1627500Y5065000D02*
D03*
X4515000Y4385000D02*
D03*
X4655000Y4465000D02*
D03*
X4700000Y3715000D02*
D03*
X4655000Y3425000D02*
D03*
X3375000Y3185000D02*
D03*
X3325000Y3370000D02*
D03*
X2715000Y2670000D02*
D03*
X4900502Y2220000D02*
D03*
X1005000Y1375000D02*
D03*
X1565000Y5045000D02*
D03*
X770000Y855000D02*
D03*
X740000Y910000D02*
D03*
X595000Y1075000D02*
D03*
X650000Y1020000D02*
D03*
X690000Y955000D02*
D03*
X1005000Y1100000D02*
D03*
X1022751Y1172249D02*
D03*
X940000Y1135000D02*
D03*
X1095000Y1300000D02*
D03*
X540000Y3490000D02*
D03*
X4510000Y3690000D02*
D03*
X3715000Y890000D02*
D03*
X3180000Y385000D02*
D03*
X3715000Y4000000D02*
D03*
X3735000Y2120000D02*
D03*
X4790000Y2975000D02*
D03*
X4170000Y2195000D02*
D03*
X4567648Y1917648D02*
D03*
X4365000Y2110000D02*
D03*
X4055000Y3245000D02*
D03*
X4155000Y3075000D02*
D03*
X3975000Y4220000D02*
D03*
X3970000Y1160000D02*
D03*
X3330000Y3015000D02*
D03*
X2965000Y3360000D02*
D03*
X1344950Y3612886D02*
D03*
X803290Y1616198D02*
D03*
X540000Y2655000D02*
D03*
Y3075000D02*
D03*
X655000Y4485000D02*
D03*
X5055000Y2545000D02*
D03*
Y2960000D02*
D03*
X3945000Y495000D02*
D03*
X2990000Y885000D02*
D03*
X3135000Y490000D02*
D03*
X2965000Y305000D02*
D03*
X3000000Y240000D02*
D03*
Y3295000D02*
D03*
X2990000Y3940000D02*
D03*
X3945000Y3550000D02*
D03*
X3735000Y1400000D02*
D03*
X1820000Y3955000D02*
D03*
X2720000Y5725000D02*
D03*
X3735000Y4455000D02*
D03*
X3725000Y5135000D02*
D03*
D74*
X4125000Y3670000D02*
D03*
Y3755000D02*
D03*
Y3840000D02*
D03*
Y615000D02*
D03*
Y700000D02*
D03*
Y780000D02*
D03*
X2160000Y990000D02*
D03*
X2080000D02*
D03*
X1995000D02*
D03*
X1910000D02*
D03*
X2160000Y4055000D02*
D03*
X2080000D02*
D03*
X1995000D02*
D03*
X1910000D02*
D03*
X1755000Y4855000D02*
D03*
X3660000Y675000D02*
D03*
X3542426Y3742574D02*
D03*
X1755000Y1225000D02*
D03*
Y1800000D02*
D03*
Y4280000D02*
D03*
M02*
