G04*
G04 #@! TF.GenerationSoftware,Altium Limited,Altium Designer,23.5.1 (21)*
G04*
G04 Layer_Color=255*
%FSLAX44Y44*%
%MOMM*%
G71*
G04*
G04 #@! TF.SameCoordinates,C4CE3DB5-CAAC-4FC5-883F-B4FCA082C57B*
G04*
G04*
G04 #@! TF.FilePolarity,Positive*
G04*
G01*
G75*
%ADD16O,0.7500X0.2500*%
%ADD17O,0.2500X0.7500*%
%ADD18R,5.9400X5.9400*%
%ADD19R,1.0500X0.9500*%
%ADD20R,0.9500X0.8000*%
%ADD21R,0.8000X0.9500*%
%ADD22R,1.4750X0.4500*%
%ADD23R,0.9500X1.0500*%
%ADD24R,0.8500X0.3000*%
G04:AMPARAMS|DCode=25|XSize=0.6mm|YSize=1mm|CornerRadius=0.051mm|HoleSize=0mm|Usage=FLASHONLY|Rotation=270.000|XOffset=0mm|YOffset=0mm|HoleType=Round|Shape=RoundedRectangle|*
%AMROUNDEDRECTD25*
21,1,0.6000,0.8980,0,0,270.0*
21,1,0.4980,1.0000,0,0,270.0*
1,1,0.1020,-0.4490,-0.2490*
1,1,0.1020,-0.4490,0.2490*
1,1,0.1020,0.4490,0.2490*
1,1,0.1020,0.4490,-0.2490*
%
%ADD25ROUNDEDRECTD25*%
%ADD26R,0.4500X1.4750*%
%ADD27R,0.3000X0.8500*%
%ADD28R,0.9000X0.9000*%
%ADD29R,0.9000X0.9000*%
%ADD35R,1.6000X0.3500*%
%ADD56C,5.0800*%
%ADD57C,1.5000*%
%ADD58C,2.1000*%
%ADD59R,1.5000X1.5000*%
%ADD60C,2.0000*%
%ADD61R,1.5000X1.5000*%
D16*
X497710Y399530D02*
D03*
Y394530D02*
D03*
Y389530D02*
D03*
Y384530D02*
D03*
Y379530D02*
D03*
Y374530D02*
D03*
Y369530D02*
D03*
Y364530D02*
D03*
Y359530D02*
D03*
Y354530D02*
D03*
Y349530D02*
D03*
Y344530D02*
D03*
Y339530D02*
D03*
Y334530D02*
D03*
X576710D02*
D03*
Y339530D02*
D03*
Y344530D02*
D03*
Y349530D02*
D03*
Y354530D02*
D03*
Y359530D02*
D03*
Y364530D02*
D03*
Y369530D02*
D03*
Y374530D02*
D03*
Y379530D02*
D03*
Y384530D02*
D03*
Y389530D02*
D03*
Y394530D02*
D03*
Y399530D02*
D03*
X497710Y1175500D02*
D03*
Y1170500D02*
D03*
Y1165500D02*
D03*
Y1160500D02*
D03*
Y1155500D02*
D03*
Y1150500D02*
D03*
Y1145500D02*
D03*
Y1140500D02*
D03*
Y1135500D02*
D03*
Y1130500D02*
D03*
Y1125500D02*
D03*
Y1120500D02*
D03*
Y1115500D02*
D03*
Y1110500D02*
D03*
X576710D02*
D03*
Y1115500D02*
D03*
Y1120500D02*
D03*
Y1125500D02*
D03*
Y1130500D02*
D03*
Y1135500D02*
D03*
Y1140500D02*
D03*
Y1145500D02*
D03*
Y1150500D02*
D03*
Y1155500D02*
D03*
Y1160500D02*
D03*
Y1165500D02*
D03*
Y1170500D02*
D03*
Y1175500D02*
D03*
D17*
X504710Y327530D02*
D03*
X509710D02*
D03*
X514710D02*
D03*
X519710D02*
D03*
X524710D02*
D03*
X529710D02*
D03*
X534710D02*
D03*
X539710D02*
D03*
X544710D02*
D03*
X549710D02*
D03*
X554710D02*
D03*
X559710D02*
D03*
X564710D02*
D03*
X569710D02*
D03*
Y406530D02*
D03*
X564710D02*
D03*
X559710D02*
D03*
X554710D02*
D03*
X549710D02*
D03*
X544710D02*
D03*
X539710D02*
D03*
X534710D02*
D03*
X529710D02*
D03*
X524710D02*
D03*
X519710D02*
D03*
X514710D02*
D03*
X509710D02*
D03*
X504710D02*
D03*
Y1103500D02*
D03*
X509710D02*
D03*
X514710D02*
D03*
X519710D02*
D03*
X524710D02*
D03*
X529710D02*
D03*
X534710D02*
D03*
X539710D02*
D03*
X544710D02*
D03*
X549710D02*
D03*
X554710D02*
D03*
X559710D02*
D03*
X564710D02*
D03*
X569710D02*
D03*
Y1182500D02*
D03*
X564710D02*
D03*
X559710D02*
D03*
X554710D02*
D03*
X549710D02*
D03*
X544710D02*
D03*
X539710D02*
D03*
X534710D02*
D03*
X529710D02*
D03*
X524710D02*
D03*
X519710D02*
D03*
X514710D02*
D03*
X509710D02*
D03*
X504710D02*
D03*
D18*
X537210Y367030D02*
D03*
Y1143000D02*
D03*
D19*
X1192530Y1760590D02*
D03*
Y1775090D02*
D03*
X1170940Y1760590D02*
D03*
Y1775090D02*
D03*
X1149350Y1760590D02*
D03*
Y1775090D02*
D03*
X481330Y1219570D02*
D03*
X485140Y1066430D02*
D03*
X481330Y443600D02*
D03*
X485140Y290460D02*
D03*
X988060Y1147710D02*
D03*
X808990Y1535060D02*
D03*
Y1474100D02*
D03*
Y1413140D02*
D03*
X788670Y1051190D02*
D03*
X1242060Y838570D02*
D03*
Y924190D02*
D03*
Y818780D02*
D03*
X549910Y1051930D02*
D03*
X528320D02*
D03*
X1242060Y733160D02*
D03*
Y713370D02*
D03*
X808990Y759090D02*
D03*
Y698130D02*
D03*
Y637170D02*
D03*
X1242060Y627750D02*
D03*
X988060Y371740D02*
D03*
X788670Y275220D02*
D03*
X549910Y275960D02*
D03*
X528320D02*
D03*
X524510Y1234070D02*
D03*
X481330D02*
D03*
X502920D02*
D03*
X506730Y1051930D02*
D03*
X485140D02*
D03*
X231140Y1123050D02*
D03*
X187960D02*
D03*
X209550D02*
D03*
X179070Y905140D02*
D03*
Y799730D02*
D03*
Y819520D02*
D03*
Y693050D02*
D03*
Y714110D02*
D03*
Y607430D02*
D03*
X524510Y458100D02*
D03*
X502920D02*
D03*
X481330D02*
D03*
X506730Y275960D02*
D03*
X485140D02*
D03*
X209550Y347080D02*
D03*
X231140D02*
D03*
X187960D02*
D03*
X546100Y458100D02*
D03*
Y443600D02*
D03*
X788670Y260720D02*
D03*
X808990Y683630D02*
D03*
Y622670D02*
D03*
Y744590D02*
D03*
X506730Y290460D02*
D03*
X502920Y443600D02*
D03*
X988060Y357240D02*
D03*
X528320Y290460D02*
D03*
X524510Y443600D02*
D03*
X549910Y290460D02*
D03*
Y1066430D02*
D03*
X524510Y1219570D02*
D03*
X528320Y1066430D02*
D03*
X988060Y1133210D02*
D03*
X502920Y1219570D02*
D03*
X506730Y1066430D02*
D03*
X808990Y1520560D02*
D03*
Y1398640D02*
D03*
Y1459600D02*
D03*
X788670Y1036690D02*
D03*
X546100Y1234070D02*
D03*
Y1219570D02*
D03*
X1242060Y642250D02*
D03*
X179070Y678550D02*
D03*
X1242060Y698870D02*
D03*
X179070Y621930D02*
D03*
X1242060Y853070D02*
D03*
Y747660D02*
D03*
Y909690D02*
D03*
Y804280D02*
D03*
X179070Y890640D02*
D03*
Y785230D02*
D03*
Y834020D02*
D03*
Y728610D02*
D03*
X187960Y1137550D02*
D03*
X209550D02*
D03*
X231140D02*
D03*
X187960Y361580D02*
D03*
X209550D02*
D03*
X231140D02*
D03*
D20*
X1254760Y1673710D02*
D03*
Y1686710D02*
D03*
X1224280Y1673710D02*
D03*
Y1686710D02*
D03*
X1239520Y1673710D02*
D03*
Y1686710D02*
D03*
X1209040Y1673710D02*
D03*
Y1686710D02*
D03*
X705916Y1179474D02*
D03*
Y1152804D02*
D03*
Y1126134D02*
D03*
Y403504D02*
D03*
Y376834D02*
D03*
Y350164D02*
D03*
Y416504D02*
D03*
X621030Y641500D02*
D03*
Y628500D02*
D03*
X705916Y389834D02*
D03*
X759460Y270660D02*
D03*
Y257660D02*
D03*
X705916Y363164D02*
D03*
Y1139134D02*
D03*
X759460Y1046630D02*
D03*
Y1033630D02*
D03*
X705916Y1165804D02*
D03*
X621030Y1417470D02*
D03*
Y1404470D02*
D03*
X705916Y1192474D02*
D03*
D21*
X1083160Y1708150D02*
D03*
X1096160D02*
D03*
X1096160Y1727200D02*
D03*
X1083160D02*
D03*
X632610Y1432560D02*
D03*
X544980Y1286510D02*
D03*
X747880Y1061720D02*
D03*
X580540Y1049020D02*
D03*
X607210D02*
D03*
X632610Y656590D02*
D03*
X544980Y510540D02*
D03*
X747880Y285750D02*
D03*
X580540Y273050D02*
D03*
X607210D02*
D03*
X531980Y510540D02*
D03*
X594210Y273050D02*
D03*
X567540D02*
D03*
X619610Y656590D02*
D03*
X760880Y285750D02*
D03*
Y1061720D02*
D03*
X619610Y1432560D02*
D03*
X567540Y1049020D02*
D03*
X594210D02*
D03*
X531980Y1286510D02*
D03*
D22*
X1182200Y1220320D02*
D03*
X611970Y1362560D02*
D03*
Y586590D02*
D03*
X1182200Y464670D02*
D03*
X730080Y991720D02*
D03*
Y215750D02*
D03*
X1182200Y1207320D02*
D03*
X611970Y1349560D02*
D03*
X730080Y978720D02*
D03*
X1182200Y451670D02*
D03*
X611970Y573590D02*
D03*
X730080Y202750D02*
D03*
X180170Y1179270D02*
D03*
Y422800D02*
D03*
Y416300D02*
D03*
Y403300D02*
D03*
Y377300D02*
D03*
X1182200Y1246320D02*
D03*
Y1239820D02*
D03*
Y1233320D02*
D03*
Y1226820D02*
D03*
Y1213820D02*
D03*
X1240960Y1207320D02*
D03*
Y1213820D02*
D03*
Y1220320D02*
D03*
Y1226820D02*
D03*
Y1233320D02*
D03*
Y1239820D02*
D03*
Y1246320D02*
D03*
X611970Y612590D02*
D03*
Y606090D02*
D03*
Y599590D02*
D03*
Y593090D02*
D03*
Y580090D02*
D03*
X670730Y573590D02*
D03*
Y580090D02*
D03*
Y586590D02*
D03*
Y593090D02*
D03*
Y599590D02*
D03*
Y606090D02*
D03*
Y612590D02*
D03*
X730080Y241750D02*
D03*
Y235250D02*
D03*
Y228750D02*
D03*
Y222250D02*
D03*
Y209250D02*
D03*
X788840Y202750D02*
D03*
Y209250D02*
D03*
Y215750D02*
D03*
Y222250D02*
D03*
Y228750D02*
D03*
Y235250D02*
D03*
Y241750D02*
D03*
X730080Y1017720D02*
D03*
Y1011220D02*
D03*
Y1004720D02*
D03*
Y998220D02*
D03*
Y985220D02*
D03*
X788840Y978720D02*
D03*
Y985220D02*
D03*
Y991720D02*
D03*
Y998220D02*
D03*
Y1004720D02*
D03*
Y1011220D02*
D03*
Y1017720D02*
D03*
X611970Y1388560D02*
D03*
Y1382060D02*
D03*
Y1375560D02*
D03*
Y1369060D02*
D03*
Y1356060D02*
D03*
X670730Y1349560D02*
D03*
Y1356060D02*
D03*
Y1362560D02*
D03*
Y1369060D02*
D03*
Y1375560D02*
D03*
Y1382060D02*
D03*
Y1388560D02*
D03*
X1240960Y490670D02*
D03*
Y484170D02*
D03*
Y477670D02*
D03*
Y471170D02*
D03*
Y464670D02*
D03*
Y458170D02*
D03*
Y451670D02*
D03*
X1182200Y458170D02*
D03*
Y471170D02*
D03*
Y477670D02*
D03*
Y484170D02*
D03*
Y490670D02*
D03*
X238930Y1153270D02*
D03*
Y1159770D02*
D03*
Y1166270D02*
D03*
Y1172770D02*
D03*
Y1179270D02*
D03*
Y1185770D02*
D03*
Y1192270D02*
D03*
Y1198770D02*
D03*
X180170D02*
D03*
Y1192270D02*
D03*
Y1185770D02*
D03*
Y1172770D02*
D03*
Y1166270D02*
D03*
Y1159770D02*
D03*
Y1153270D02*
D03*
Y383800D02*
D03*
Y390300D02*
D03*
Y396800D02*
D03*
Y409800D02*
D03*
X238930Y422800D02*
D03*
Y416300D02*
D03*
Y409800D02*
D03*
Y403300D02*
D03*
Y396800D02*
D03*
Y390300D02*
D03*
Y383800D02*
D03*
Y377300D02*
D03*
D23*
X460640Y1127760D02*
D03*
Y351790D02*
D03*
X1275980Y1289050D02*
D03*
Y1267460D02*
D03*
Y1245870D02*
D03*
X823860Y1040130D02*
D03*
X1284340Y881380D02*
D03*
X996580Y975360D02*
D03*
Y953770D02*
D03*
X823860Y1018540D02*
D03*
X996580Y932180D02*
D03*
X705380Y1410970D02*
D03*
Y1432560D02*
D03*
Y1389380D02*
D03*
X628280Y1165860D02*
D03*
Y1200150D02*
D03*
X720990Y868680D02*
D03*
X672730Y830580D02*
D03*
X1284340Y775970D02*
D03*
Y670560D02*
D03*
X1275980Y511810D02*
D03*
Y533400D02*
D03*
Y490220D02*
D03*
X996580Y177800D02*
D03*
Y199390D02*
D03*
Y156210D02*
D03*
X823860Y242570D02*
D03*
Y264160D02*
D03*
X705380Y635000D02*
D03*
Y656590D02*
D03*
Y613410D02*
D03*
X628280Y389890D02*
D03*
Y424180D02*
D03*
X720990Y92710D02*
D03*
X672730Y54610D02*
D03*
X446140Y1214120D02*
D03*
Y1170940D02*
D03*
Y1192530D02*
D03*
Y1127760D02*
D03*
Y1149350D02*
D03*
Y1106170D02*
D03*
X136790Y862330D02*
D03*
Y756920D02*
D03*
Y650240D02*
D03*
X446140Y438150D02*
D03*
Y416560D02*
D03*
Y394970D02*
D03*
Y373380D02*
D03*
Y351790D02*
D03*
Y330200D02*
D03*
X1261480Y1289050D02*
D03*
Y1245870D02*
D03*
Y1267460D02*
D03*
X690880Y656590D02*
D03*
Y635000D02*
D03*
Y613410D02*
D03*
X809360Y264160D02*
D03*
Y242570D02*
D03*
X982080Y199390D02*
D03*
Y177800D02*
D03*
Y156210D02*
D03*
X706490Y92710D02*
D03*
X658230Y54610D02*
D03*
X460640Y373380D02*
D03*
Y330200D02*
D03*
X613780Y424180D02*
D03*
X460640Y394970D02*
D03*
Y416560D02*
D03*
Y438150D02*
D03*
X613780Y389890D02*
D03*
X460640Y1214120D02*
D03*
Y1192530D02*
D03*
Y1170940D02*
D03*
X613780Y1165860D02*
D03*
Y1200150D02*
D03*
X460640Y1106170D02*
D03*
Y1149350D02*
D03*
X658230Y830580D02*
D03*
X706490Y868680D02*
D03*
X982080Y932180D02*
D03*
Y953770D02*
D03*
Y975360D02*
D03*
X809360Y1018540D02*
D03*
Y1040130D02*
D03*
X690880Y1389380D02*
D03*
Y1410970D02*
D03*
Y1432560D02*
D03*
X1298840Y670560D02*
D03*
X122290Y650240D02*
D03*
X1298840Y881380D02*
D03*
Y775970D02*
D03*
X122290Y862330D02*
D03*
Y756920D02*
D03*
X1261480Y490220D02*
D03*
Y511810D02*
D03*
Y533400D02*
D03*
D24*
X972310Y1102480D02*
D03*
X793240Y1489830D02*
D03*
Y1367910D02*
D03*
Y1428870D02*
D03*
Y713860D02*
D03*
Y652900D02*
D03*
X972310Y326510D02*
D03*
X793240Y591940D02*
D03*
X824740Y667900D02*
D03*
Y662900D02*
D03*
Y657900D02*
D03*
Y652900D02*
D03*
X793240Y657900D02*
D03*
Y662900D02*
D03*
Y667900D02*
D03*
X824740Y606940D02*
D03*
Y601940D02*
D03*
Y596940D02*
D03*
Y591940D02*
D03*
X793240Y596940D02*
D03*
Y601940D02*
D03*
Y606940D02*
D03*
X824740Y728860D02*
D03*
Y723860D02*
D03*
Y718860D02*
D03*
Y713860D02*
D03*
X793240Y718860D02*
D03*
Y723860D02*
D03*
Y728860D02*
D03*
X1003810Y341510D02*
D03*
Y336510D02*
D03*
Y331510D02*
D03*
Y326510D02*
D03*
X972310Y331510D02*
D03*
Y336510D02*
D03*
Y341510D02*
D03*
X1003810Y1117480D02*
D03*
Y1112480D02*
D03*
Y1107480D02*
D03*
Y1102480D02*
D03*
X972310Y1107480D02*
D03*
Y1112480D02*
D03*
Y1117480D02*
D03*
X793240Y1504830D02*
D03*
Y1499830D02*
D03*
Y1494830D02*
D03*
X824740Y1489830D02*
D03*
Y1494830D02*
D03*
Y1499830D02*
D03*
Y1504830D02*
D03*
X793240Y1382910D02*
D03*
Y1377910D02*
D03*
Y1372910D02*
D03*
X824740Y1367910D02*
D03*
Y1372910D02*
D03*
Y1377910D02*
D03*
Y1382910D02*
D03*
X793240Y1443870D02*
D03*
Y1438870D02*
D03*
Y1433870D02*
D03*
X824740Y1428870D02*
D03*
Y1433870D02*
D03*
Y1438870D02*
D03*
Y1443870D02*
D03*
D25*
X1265970Y881380D02*
D03*
Y775970D02*
D03*
Y670560D02*
D03*
X155160Y862330D02*
D03*
Y756920D02*
D03*
Y650240D02*
D03*
X1238470Y661060D02*
D03*
Y680060D02*
D03*
X1265970D02*
D03*
Y661060D02*
D03*
X155160Y659740D02*
D03*
Y640740D02*
D03*
X182660D02*
D03*
Y659740D02*
D03*
X1265970Y871880D02*
D03*
Y890880D02*
D03*
X1238470D02*
D03*
Y871880D02*
D03*
Y766470D02*
D03*
Y785470D02*
D03*
X1265970D02*
D03*
Y766470D02*
D03*
X155160Y871830D02*
D03*
Y852830D02*
D03*
X182660D02*
D03*
Y871830D02*
D03*
X155160Y766420D02*
D03*
Y747420D02*
D03*
X182660D02*
D03*
Y766420D02*
D03*
D26*
X940360Y924390D02*
D03*
Y148420D02*
D03*
X966360Y207180D02*
D03*
X959860D02*
D03*
X953360D02*
D03*
X946860D02*
D03*
X940360D02*
D03*
X933860D02*
D03*
X927360D02*
D03*
X920860D02*
D03*
Y148420D02*
D03*
X927360D02*
D03*
X933860D02*
D03*
X946860D02*
D03*
X953360D02*
D03*
X959860D02*
D03*
X966360D02*
D03*
Y983150D02*
D03*
X959860D02*
D03*
X953360D02*
D03*
X946860D02*
D03*
X940360D02*
D03*
X933860D02*
D03*
X927360D02*
D03*
X920860D02*
D03*
Y924390D02*
D03*
X927360D02*
D03*
X933860D02*
D03*
X946860D02*
D03*
X953360D02*
D03*
X959860D02*
D03*
X966360D02*
D03*
D27*
X675760Y884430D02*
D03*
X627500Y846330D02*
D03*
X675760Y108460D02*
D03*
X627500Y70360D02*
D03*
X690760Y76960D02*
D03*
X685760D02*
D03*
X680760D02*
D03*
X675760D02*
D03*
X680760Y108460D02*
D03*
X685760D02*
D03*
X690760D02*
D03*
X642500Y38860D02*
D03*
X637500D02*
D03*
X632500D02*
D03*
X627500D02*
D03*
X632500Y70360D02*
D03*
X637500D02*
D03*
X642500D02*
D03*
Y814830D02*
D03*
X637500D02*
D03*
X632500D02*
D03*
X627500D02*
D03*
X632500Y846330D02*
D03*
X637500D02*
D03*
X642500D02*
D03*
X690760Y852930D02*
D03*
X685760D02*
D03*
X680760D02*
D03*
X675760D02*
D03*
X680760Y884430D02*
D03*
X685760D02*
D03*
X690760D02*
D03*
D28*
X565150Y440690D02*
D03*
X581150D02*
D03*
X565150Y456690D02*
D03*
Y1216660D02*
D03*
X581150D02*
D03*
X565150Y1232660D02*
D03*
D29*
X610870Y354330D02*
D03*
Y338330D02*
D03*
X626870Y354330D02*
D03*
X610870Y1130300D02*
D03*
Y1114300D02*
D03*
X626870Y1130300D02*
D03*
D35*
X1193860Y1740350D02*
D03*
Y1733850D02*
D03*
Y1727350D02*
D03*
Y1720850D02*
D03*
Y1714350D02*
D03*
Y1707850D02*
D03*
Y1701350D02*
D03*
X1137860D02*
D03*
Y1707850D02*
D03*
Y1714350D02*
D03*
Y1720850D02*
D03*
Y1727350D02*
D03*
Y1733850D02*
D03*
Y1740350D02*
D03*
D56*
X1247140Y38100D02*
D03*
X1374140Y165100D02*
D03*
Y2057400D02*
D03*
X1247140Y2184400D02*
D03*
X165100Y38100D02*
D03*
X38100Y165100D02*
D03*
Y2057400D02*
D03*
X165100Y2184400D02*
D03*
X38100D02*
D03*
Y38100D02*
D03*
X1374140Y2184400D02*
D03*
Y38100D02*
D03*
D57*
X1196340Y1183640D02*
D03*
X626110Y1324610D02*
D03*
Y548640D02*
D03*
X1196340Y427990D02*
D03*
X744220Y953770D02*
D03*
Y177800D02*
D03*
X163830Y995680D02*
D03*
X1049020Y1664970D02*
D03*
X1023620D02*
D03*
X515620Y1614170D02*
D03*
X490220D02*
D03*
X347980Y2096770D02*
D03*
X1226820Y1183640D02*
D03*
X340360Y1243330D02*
D03*
X365760Y1268730D02*
D03*
X340360D02*
D03*
X365760Y1294130D02*
D03*
X340360D02*
D03*
Y467360D02*
D03*
X365760Y492760D02*
D03*
X340360D02*
D03*
X365760Y518160D02*
D03*
X340360D02*
D03*
X656590Y548640D02*
D03*
X774700Y177800D02*
D03*
X447040Y501650D02*
D03*
X990600Y90170D02*
D03*
X965200D02*
D03*
X939800D02*
D03*
X914400D02*
D03*
X889000D02*
D03*
X635000Y279400D02*
D03*
X704850Y314960D02*
D03*
X340360Y403860D02*
D03*
X365760Y373380D02*
D03*
X1078230Y487680D02*
D03*
X1052830Y457200D02*
D03*
X1078230Y403860D02*
D03*
X1052830Y373380D02*
D03*
X704850Y1090930D02*
D03*
X447040Y1277620D02*
D03*
X1078230Y1179830D02*
D03*
X1052830Y1149350D02*
D03*
X1078230Y1263650D02*
D03*
X1052830Y1233170D02*
D03*
X340360Y1179830D02*
D03*
X365760Y1149350D02*
D03*
X635000Y1055370D02*
D03*
X990600Y866140D02*
D03*
X965200D02*
D03*
X939800D02*
D03*
X914400D02*
D03*
X889000D02*
D03*
X774700Y953770D02*
D03*
X656590Y1324610D02*
D03*
X1216660Y651510D02*
D03*
X204470Y669290D02*
D03*
X229870Y775970D02*
D03*
Y831850D02*
D03*
X1226820Y427990D02*
D03*
X617220Y1614170D02*
D03*
X668020D02*
D03*
X642620D02*
D03*
X718820D02*
D03*
X693420D02*
D03*
X769620D02*
D03*
X744220D02*
D03*
X591820D02*
D03*
X1049020Y1690370D02*
D03*
X1023620D02*
D03*
X1049020Y1766570D02*
D03*
Y1741170D02*
D03*
Y1715770D02*
D03*
Y1791970D02*
D03*
X1023620Y1766570D02*
D03*
Y1741170D02*
D03*
Y1715770D02*
D03*
Y1791970D02*
D03*
X1049020Y1893570D02*
D03*
Y1868170D02*
D03*
X1023620D02*
D03*
X1049020Y1842770D02*
D03*
X1023620D02*
D03*
X1049020Y1817370D02*
D03*
X1023620D02*
D03*
Y1893570D02*
D03*
X1049020Y1969770D02*
D03*
Y1944370D02*
D03*
Y1918970D02*
D03*
Y1995170D02*
D03*
X1023620Y1969770D02*
D03*
Y1944370D02*
D03*
Y1918970D02*
D03*
Y1995170D02*
D03*
X795020Y2096770D02*
D03*
X845820D02*
D03*
X820420D02*
D03*
X896620D02*
D03*
X871220D02*
D03*
X947420D02*
D03*
X922020D02*
D03*
X769620D02*
D03*
X566420D02*
D03*
X617220D02*
D03*
X591820D02*
D03*
X668020D02*
D03*
X642620D02*
D03*
X718820D02*
D03*
X693420D02*
D03*
X398780D02*
D03*
X373380D02*
D03*
X449580D02*
D03*
X424180D02*
D03*
X297180D02*
D03*
X271780D02*
D03*
X322580D02*
D03*
X500380D02*
D03*
X474980D02*
D03*
X541020D02*
D03*
X1049020D02*
D03*
Y2071370D02*
D03*
X1023620D02*
D03*
X1049020Y2045970D02*
D03*
X1023620D02*
D03*
X1049020Y2020570D02*
D03*
X1023620D02*
D03*
Y2096770D02*
D03*
X845820Y1614170D02*
D03*
X896620D02*
D03*
X871220D02*
D03*
X947420D02*
D03*
X922020D02*
D03*
X998220D02*
D03*
X972820D02*
D03*
X820420D02*
D03*
X388620D02*
D03*
X439420D02*
D03*
X414020D02*
D03*
X464820D02*
D03*
X541020D02*
D03*
X363220D02*
D03*
D58*
X900430Y1320800D02*
D03*
X849630D02*
D03*
X900430Y1270000D02*
D03*
X849630Y1193800D02*
D03*
Y1270000D02*
D03*
X900430Y1143000D02*
D03*
Y1193800D02*
D03*
X901700Y1066800D02*
D03*
X850900D02*
D03*
X849630Y1143000D02*
D03*
X901700Y1016000D02*
D03*
X850900D02*
D03*
X722630Y1320800D02*
D03*
X581660Y1438910D02*
D03*
Y1489710D02*
D03*
X773430Y1320800D02*
D03*
Y1270000D02*
D03*
X722630D02*
D03*
X539750Y1311910D02*
D03*
Y1362710D02*
D03*
X626110Y919480D02*
D03*
Y970280D02*
D03*
X575310Y919480D02*
D03*
Y970280D02*
D03*
X900430Y417830D02*
D03*
Y494030D02*
D03*
X901700Y290830D02*
D03*
Y240030D02*
D03*
X900430Y544830D02*
D03*
X849630Y417830D02*
D03*
Y494030D02*
D03*
X900430Y367030D02*
D03*
X850900Y290830D02*
D03*
X849630Y367030D02*
D03*
Y544830D02*
D03*
X850900Y240030D02*
D03*
X722630Y544830D02*
D03*
X581660Y662940D02*
D03*
Y713740D02*
D03*
X773430Y544830D02*
D03*
Y494030D02*
D03*
X722630D02*
D03*
X539750Y535940D02*
D03*
Y586740D02*
D03*
X626110Y143510D02*
D03*
Y194310D02*
D03*
X575310Y143510D02*
D03*
Y194310D02*
D03*
X530860Y1489710D02*
D03*
Y1438910D02*
D03*
X488950Y1311910D02*
D03*
Y1362710D02*
D03*
X530860Y713740D02*
D03*
Y662940D02*
D03*
X499110Y970280D02*
D03*
Y919480D02*
D03*
X488950Y535940D02*
D03*
Y586740D02*
D03*
X448310Y919480D02*
D03*
Y970280D02*
D03*
X499110Y194310D02*
D03*
Y143510D02*
D03*
X448310D02*
D03*
Y194310D02*
D03*
D59*
X365760Y1243330D02*
D03*
Y467360D02*
D03*
X163830Y970280D02*
D03*
X229870Y806450D02*
D03*
D60*
X600710Y168910D02*
D03*
X514350Y561340D02*
D03*
X473710Y168910D02*
D03*
X748030Y519430D02*
D03*
X556260Y688340D02*
D03*
X875030Y519430D02*
D03*
X876300Y265430D02*
D03*
X875030Y392430D02*
D03*
X876300Y1041400D02*
D03*
X875030Y1168400D02*
D03*
X556260Y1464310D02*
D03*
X875030Y1295400D02*
D03*
X473710Y944880D02*
D03*
X748030Y1295400D02*
D03*
X600710Y944880D02*
D03*
X514350Y1337310D02*
D03*
D61*
X1016000Y90170D02*
D03*
X365760Y403860D02*
D03*
X340360Y373380D02*
D03*
X1052830Y487680D02*
D03*
X1078230Y457200D02*
D03*
X1052830Y403860D02*
D03*
X1078230Y373380D02*
D03*
X1052830Y1179830D02*
D03*
X1078230Y1149350D02*
D03*
X1052830Y1263650D02*
D03*
X1078230Y1233170D02*
D03*
X365760Y1179830D02*
D03*
X340360Y1149350D02*
D03*
X1016000Y866140D02*
D03*
X1191260Y651510D02*
D03*
X229870Y669290D02*
D03*
X204470Y775970D02*
D03*
M02*
