G04*
G04 #@! TF.GenerationSoftware,Altium Limited,Altium Designer,23.5.1 (21)*
G04*
G04 Layer_Color=255*
%FSLAX44Y44*%
%MOMM*%
G71*
G04*
G04 #@! TF.SameCoordinates,C4CE3DB5-CAAC-4FC5-883F-B4FCA082C57B*
G04*
G04*
G04 #@! TF.FilePolarity,Positive*
G04*
G01*
G75*
%ADD56C,5.0800*%
%ADD57C,1.5000*%
%ADD58C,2.1000*%
%ADD59R,1.5000X1.5000*%
%ADD60C,2.0000*%
%ADD61R,1.5000X1.5000*%
D56*
X1247140Y38100D02*
D03*
X1374140Y165100D02*
D03*
Y2057400D02*
D03*
X1247140Y2184400D02*
D03*
X165100Y38100D02*
D03*
X38100Y165100D02*
D03*
Y2057400D02*
D03*
X165100Y2184400D02*
D03*
X38100D02*
D03*
Y38100D02*
D03*
X1374140Y2184400D02*
D03*
Y38100D02*
D03*
D57*
X1196340Y1183640D02*
D03*
X626110Y1324610D02*
D03*
Y548640D02*
D03*
X1196340Y427990D02*
D03*
X744220Y953770D02*
D03*
Y177800D02*
D03*
X163830Y995680D02*
D03*
X1049020Y1664970D02*
D03*
X1023620D02*
D03*
X515620Y1614170D02*
D03*
X490220D02*
D03*
X347980Y2096770D02*
D03*
X1226820Y1183640D02*
D03*
X340360Y1243330D02*
D03*
X365760Y1268730D02*
D03*
X340360D02*
D03*
X365760Y1294130D02*
D03*
X340360D02*
D03*
Y467360D02*
D03*
X365760Y492760D02*
D03*
X340360D02*
D03*
X365760Y518160D02*
D03*
X340360D02*
D03*
X656590Y548640D02*
D03*
X774700Y177800D02*
D03*
X447040Y501650D02*
D03*
X990600Y90170D02*
D03*
X965200D02*
D03*
X939800D02*
D03*
X914400D02*
D03*
X889000D02*
D03*
X635000Y279400D02*
D03*
X704850Y314960D02*
D03*
X340360Y403860D02*
D03*
X365760Y373380D02*
D03*
X1078230Y487680D02*
D03*
X1052830Y457200D02*
D03*
X1078230Y403860D02*
D03*
X1052830Y373380D02*
D03*
X704850Y1090930D02*
D03*
X447040Y1277620D02*
D03*
X1078230Y1179830D02*
D03*
X1052830Y1149350D02*
D03*
X1078230Y1263650D02*
D03*
X1052830Y1233170D02*
D03*
X340360Y1179830D02*
D03*
X365760Y1149350D02*
D03*
X635000Y1055370D02*
D03*
X990600Y866140D02*
D03*
X965200D02*
D03*
X939800D02*
D03*
X914400D02*
D03*
X889000D02*
D03*
X774700Y953770D02*
D03*
X656590Y1324610D02*
D03*
X1216660Y651510D02*
D03*
X204470Y669290D02*
D03*
X229870Y775970D02*
D03*
Y831850D02*
D03*
X1226820Y427990D02*
D03*
X617220Y1614170D02*
D03*
X668020D02*
D03*
X642620D02*
D03*
X718820D02*
D03*
X693420D02*
D03*
X769620D02*
D03*
X744220D02*
D03*
X591820D02*
D03*
X1049020Y1690370D02*
D03*
X1023620D02*
D03*
X1049020Y1766570D02*
D03*
Y1741170D02*
D03*
Y1715770D02*
D03*
Y1791970D02*
D03*
X1023620Y1766570D02*
D03*
Y1741170D02*
D03*
Y1715770D02*
D03*
Y1791970D02*
D03*
X1049020Y1893570D02*
D03*
Y1868170D02*
D03*
X1023620D02*
D03*
X1049020Y1842770D02*
D03*
X1023620D02*
D03*
X1049020Y1817370D02*
D03*
X1023620D02*
D03*
Y1893570D02*
D03*
X1049020Y1969770D02*
D03*
Y1944370D02*
D03*
Y1918970D02*
D03*
Y1995170D02*
D03*
X1023620Y1969770D02*
D03*
Y1944370D02*
D03*
Y1918970D02*
D03*
Y1995170D02*
D03*
X795020Y2096770D02*
D03*
X845820D02*
D03*
X820420D02*
D03*
X896620D02*
D03*
X871220D02*
D03*
X947420D02*
D03*
X922020D02*
D03*
X769620D02*
D03*
X566420D02*
D03*
X617220D02*
D03*
X591820D02*
D03*
X668020D02*
D03*
X642620D02*
D03*
X718820D02*
D03*
X693420D02*
D03*
X398780D02*
D03*
X373380D02*
D03*
X449580D02*
D03*
X424180D02*
D03*
X297180D02*
D03*
X271780D02*
D03*
X322580D02*
D03*
X500380D02*
D03*
X474980D02*
D03*
X541020D02*
D03*
X1049020D02*
D03*
Y2071370D02*
D03*
X1023620D02*
D03*
X1049020Y2045970D02*
D03*
X1023620D02*
D03*
X1049020Y2020570D02*
D03*
X1023620D02*
D03*
Y2096770D02*
D03*
X845820Y1614170D02*
D03*
X896620D02*
D03*
X871220D02*
D03*
X947420D02*
D03*
X922020D02*
D03*
X998220D02*
D03*
X972820D02*
D03*
X820420D02*
D03*
X388620D02*
D03*
X439420D02*
D03*
X414020D02*
D03*
X464820D02*
D03*
X541020D02*
D03*
X363220D02*
D03*
D58*
X900430Y1320800D02*
D03*
X849630D02*
D03*
X900430Y1270000D02*
D03*
X849630Y1193800D02*
D03*
Y1270000D02*
D03*
X900430Y1143000D02*
D03*
Y1193800D02*
D03*
X901700Y1066800D02*
D03*
X850900D02*
D03*
X849630Y1143000D02*
D03*
X901700Y1016000D02*
D03*
X850900D02*
D03*
X722630Y1320800D02*
D03*
X581660Y1438910D02*
D03*
Y1489710D02*
D03*
X773430Y1320800D02*
D03*
Y1270000D02*
D03*
X722630D02*
D03*
X539750Y1311910D02*
D03*
Y1362710D02*
D03*
X626110Y919480D02*
D03*
Y970280D02*
D03*
X575310Y919480D02*
D03*
Y970280D02*
D03*
X900430Y417830D02*
D03*
Y494030D02*
D03*
X901700Y290830D02*
D03*
Y240030D02*
D03*
X900430Y544830D02*
D03*
X849630Y417830D02*
D03*
Y494030D02*
D03*
X900430Y367030D02*
D03*
X850900Y290830D02*
D03*
X849630Y367030D02*
D03*
Y544830D02*
D03*
X850900Y240030D02*
D03*
X722630Y544830D02*
D03*
X581660Y662940D02*
D03*
Y713740D02*
D03*
X773430Y544830D02*
D03*
Y494030D02*
D03*
X722630D02*
D03*
X539750Y535940D02*
D03*
Y586740D02*
D03*
X626110Y143510D02*
D03*
Y194310D02*
D03*
X575310Y143510D02*
D03*
Y194310D02*
D03*
X530860Y1489710D02*
D03*
Y1438910D02*
D03*
X488950Y1311910D02*
D03*
Y1362710D02*
D03*
X530860Y713740D02*
D03*
Y662940D02*
D03*
X499110Y970280D02*
D03*
Y919480D02*
D03*
X488950Y535940D02*
D03*
Y586740D02*
D03*
X448310Y919480D02*
D03*
Y970280D02*
D03*
X499110Y194310D02*
D03*
Y143510D02*
D03*
X448310D02*
D03*
Y194310D02*
D03*
D59*
X365760Y1243330D02*
D03*
Y467360D02*
D03*
X163830Y970280D02*
D03*
X229870Y806450D02*
D03*
D60*
X600710Y168910D02*
D03*
X514350Y561340D02*
D03*
X473710Y168910D02*
D03*
X748030Y519430D02*
D03*
X556260Y688340D02*
D03*
X875030Y519430D02*
D03*
X876300Y265430D02*
D03*
X875030Y392430D02*
D03*
X876300Y1041400D02*
D03*
X875030Y1168400D02*
D03*
X556260Y1464310D02*
D03*
X875030Y1295400D02*
D03*
X473710Y944880D02*
D03*
X748030Y1295400D02*
D03*
X600710Y944880D02*
D03*
X514350Y1337310D02*
D03*
D61*
X1016000Y90170D02*
D03*
X365760Y403860D02*
D03*
X340360Y373380D02*
D03*
X1052830Y487680D02*
D03*
X1078230Y457200D02*
D03*
X1052830Y403860D02*
D03*
X1078230Y373380D02*
D03*
X1052830Y1179830D02*
D03*
X1078230Y1149350D02*
D03*
X1052830Y1263650D02*
D03*
X1078230Y1233170D02*
D03*
X365760Y1179830D02*
D03*
X340360Y1149350D02*
D03*
X1016000Y866140D02*
D03*
X1191260Y651510D02*
D03*
X229870Y669290D02*
D03*
X204470Y775970D02*
D03*
M02*
