G04*
G04 #@! TF.GenerationSoftware,Altium Limited,Altium Designer,23.5.1 (21)*
G04*
G04 Layer_Color=2752767*
%FSLAX26Y26*%
%MOIN*%
G70*
G04*
G04 #@! TF.SameCoordinates,6A5F5C75-F477-485A-9627-383C203D1060*
G04*
G04*
G04 #@! TF.FilePolarity,Positive*
G04*
G01*
G75*
%ADD76C,0.005000*%
%ADD77C,0.006667*%
D76*
X4910000Y130000D02*
X4920000Y140000D01*
X4930000D01*
X4920000Y150000D01*
X4930000Y160000D01*
X4920000D01*
X4910000Y170000D01*
X4900000Y160000D01*
X4890000D01*
X4900000Y150000D01*
X4890000Y140000D01*
X4900000D01*
X4910000Y130000D01*
X5410000Y630000D02*
X5420000Y640000D01*
X5430000D01*
X5420000Y650000D01*
X5430000Y660000D01*
X5420000D01*
X5410000Y670000D01*
X5400000Y660000D01*
X5390000D01*
X5400000Y650000D01*
X5390000Y640000D01*
X5400000D01*
X5410000Y630000D01*
Y8080000D02*
X5420000Y8090000D01*
X5430000D01*
X5420000Y8100000D01*
X5430000Y8110000D01*
X5420000D01*
X5410000Y8120000D01*
X5400000Y8110000D01*
X5390000D01*
X5400000Y8100000D01*
X5390000Y8090000D01*
X5400000D01*
X5410000Y8080000D01*
X4910000Y8580000D02*
X4920000Y8590000D01*
X4930000D01*
X4920000Y8600000D01*
X4930000Y8610000D01*
X4920000D01*
X4910000Y8620000D01*
X4900000Y8610000D01*
X4890000D01*
X4900000Y8600000D01*
X4890000Y8590000D01*
X4900000D01*
X4910000Y8580000D01*
X650000Y130000D02*
X660000Y140000D01*
X670000D01*
X660000Y150000D01*
X670000Y160000D01*
X660000D01*
X650000Y170000D01*
X640000Y160000D01*
X630000D01*
X640000Y150000D01*
X630000Y140000D01*
X640000D01*
X650000Y130000D01*
X150000Y630000D02*
X160000Y640000D01*
X170000D01*
X160000Y650000D01*
X170000Y660000D01*
X160000D01*
X150000Y670000D01*
X140000Y660000D01*
X130000D01*
X140000Y650000D01*
X130000Y640000D01*
X140000D01*
X150000Y630000D01*
Y8080000D02*
X160000Y8090000D01*
X170000D01*
X160000Y8100000D01*
X170000Y8110000D01*
X160000D01*
X150000Y8120000D01*
X140000Y8110000D01*
X130000D01*
X140000Y8100000D01*
X130000Y8090000D01*
X140000D01*
X150000Y8080000D01*
X650000Y8580000D02*
X660000Y8590000D01*
X670000D01*
X660000Y8600000D01*
X670000Y8610000D01*
X660000D01*
X650000Y8620000D01*
X640000Y8610000D01*
X630000D01*
X640000Y8600000D01*
X630000Y8590000D01*
X640000D01*
X650000Y8580000D01*
X4690000Y4640000D02*
Y4680000D01*
X4730000D01*
Y4640000D01*
X4690000D01*
X2445000Y5195000D02*
Y5235000D01*
X2485000D01*
Y5195000D01*
X2445000D01*
Y2140000D02*
Y2180000D01*
X2485000D01*
Y2140000D01*
X2445000D01*
X4690000Y1665000D02*
Y1705000D01*
X4730000D01*
Y1665000D01*
X4690000D01*
X2910000Y3735000D02*
Y3775000D01*
X2950000D01*
Y3735000D01*
X2910000D01*
Y680000D02*
Y720000D01*
X2950000D01*
Y680000D01*
X2910000D01*
X150000Y8580000D02*
X160000Y8590000D01*
X170000D01*
X160000Y8600000D01*
X170000Y8610000D01*
X160000D01*
X150000Y8620000D01*
X140000Y8610000D01*
X130000D01*
X140000Y8600000D01*
X130000Y8590000D01*
X140000D01*
X150000Y8580000D01*
Y130000D02*
X160000Y140000D01*
X170000D01*
X160000Y150000D01*
X170000Y160000D01*
X160000D01*
X150000Y170000D01*
X140000Y160000D01*
X130000D01*
X140000Y150000D01*
X130000Y140000D01*
X140000D01*
X150000Y130000D01*
X625000Y3900000D02*
Y3940000D01*
X665000D01*
Y3900000D01*
X625000D01*
X5410000Y8580000D02*
X5420000Y8590000D01*
X5430000D01*
X5420000Y8600000D01*
X5430000Y8610000D01*
X5420000D01*
X5410000Y8620000D01*
X5400000Y8610000D01*
X5390000D01*
X5400000Y8600000D01*
X5390000Y8590000D01*
X5400000D01*
X5410000Y8580000D01*
X4110000Y6535000D02*
Y6575000D01*
X4150000D01*
Y6535000D01*
X4110000D01*
X4010000D02*
Y6575000D01*
X4050000D01*
Y6535000D01*
X4010000D01*
X5410000Y130000D02*
X5420000Y140000D01*
X5430000D01*
X5420000Y150000D01*
X5430000Y160000D01*
X5420000D01*
X5410000Y170000D01*
X5400000Y160000D01*
X5390000D01*
X5400000Y150000D01*
X5390000Y140000D01*
X5400000D01*
X5410000Y130000D01*
X2010000Y6335000D02*
Y6375000D01*
X2050000D01*
Y6335000D01*
X2010000D01*
X1910000D02*
Y6375000D01*
X1950000D01*
Y6335000D01*
X1910000D01*
X1350000Y8235000D02*
Y8275000D01*
X1390000D01*
Y8235000D01*
X1350000D01*
X4810000Y4640000D02*
Y4680000D01*
X4850000D01*
Y4640000D01*
X4810000D01*
X1420000Y4875000D02*
Y4915000D01*
X1460000D01*
Y4875000D01*
X1420000D01*
X1320000D02*
Y4915000D01*
X1360000D01*
Y4875000D01*
X1320000D01*
X1420000Y4975000D02*
Y5015000D01*
X1460000D01*
Y4975000D01*
X1420000D01*
X1320000D02*
Y5015000D01*
X1360000D01*
Y4975000D01*
X1320000D01*
X1420000Y5075000D02*
Y5115000D01*
X1460000D01*
Y5075000D01*
X1420000D01*
X1320000D02*
Y5115000D01*
X1360000D01*
Y5075000D01*
X1320000D01*
X1420000Y1820000D02*
Y1860000D01*
X1460000D01*
Y1820000D01*
X1420000D01*
X1320000D02*
Y1860000D01*
X1360000D01*
Y1820000D01*
X1320000D01*
X1420000Y1920000D02*
Y1960000D01*
X1460000D01*
Y1920000D01*
X1420000D01*
X1320000D02*
Y1960000D01*
X1360000D01*
Y1920000D01*
X1320000D01*
X1420000Y2020000D02*
Y2060000D01*
X1460000D01*
Y2020000D01*
X1420000D01*
X1320000D02*
Y2060000D01*
X1360000D01*
Y2020000D01*
X1320000D01*
X2565000Y2140000D02*
Y2180000D01*
X2605000D01*
Y2140000D01*
X2565000D01*
X2365000Y645000D02*
X2345000Y685000D01*
X2385000D01*
X2365000Y645000D01*
X2025000Y2190000D02*
X2005000Y2230000D01*
X2045000D01*
X2025000Y2190000D01*
X3030000Y680000D02*
Y720000D01*
X3070000D01*
Y680000D01*
X3030000D01*
X1865000Y645000D02*
X1845000Y685000D01*
X1885000D01*
X1865000Y645000D01*
X2945000Y2025000D02*
X2925000Y2065000D01*
X2965000D01*
X2945000Y2025000D01*
X2190000Y2690000D02*
X2170000Y2730000D01*
X2210000D01*
X2190000Y2690000D01*
X3445000Y2025000D02*
X3425000Y2065000D01*
X3465000D01*
X3445000Y2025000D01*
X3450000Y1025000D02*
X3430000Y1065000D01*
X3470000D01*
X3450000Y1025000D01*
X3445000Y1525000D02*
X3425000Y1565000D01*
X3465000D01*
X3445000Y1525000D01*
X1740000Y1955000D02*
Y1995000D01*
X1780000D01*
Y1955000D01*
X1740000D01*
X3980000Y335000D02*
Y375000D01*
X4020000D01*
Y335000D01*
X3980000D01*
X3880000D02*
Y375000D01*
X3920000D01*
Y335000D01*
X3880000D01*
X3780000D02*
Y375000D01*
X3820000D01*
Y335000D01*
X3780000D01*
X3680000D02*
Y375000D01*
X3720000D01*
Y335000D01*
X3680000D01*
X3580000D02*
Y375000D01*
X3620000D01*
Y335000D01*
X3580000D01*
X3480000D02*
Y375000D01*
X3520000D01*
Y335000D01*
X3480000D01*
X2480000Y1080000D02*
Y1120000D01*
X2520000D01*
Y1080000D01*
X2480000D01*
X2755000Y1220000D02*
Y1260000D01*
X2795000D01*
Y1220000D01*
X2755000D01*
X1420000Y1570000D02*
Y1610000D01*
X1460000D01*
Y1570000D01*
X1420000D01*
X1320000D02*
Y1610000D01*
X1360000D01*
Y1570000D01*
X1320000D01*
Y1450000D02*
Y1490000D01*
X1360000D01*
Y1450000D01*
X1320000D01*
X1420000D02*
Y1490000D01*
X1460000D01*
Y1450000D01*
X1420000D01*
X4125000Y1900000D02*
Y1940000D01*
X4165000D01*
Y1900000D01*
X4125000D01*
X4225000D02*
Y1940000D01*
X4265000D01*
Y1900000D01*
X4225000D01*
Y1780000D02*
Y1820000D01*
X4265000D01*
Y1780000D01*
X4225000D01*
X4125000D02*
Y1820000D01*
X4165000D01*
Y1780000D01*
X4125000D01*
Y1570000D02*
Y1610000D01*
X4165000D01*
Y1570000D01*
X4125000D01*
X4225000D02*
Y1610000D01*
X4265000D01*
Y1570000D01*
X4225000D01*
Y1450000D02*
Y1490000D01*
X4265000D01*
Y1450000D01*
X4225000D01*
X4125000D02*
Y1490000D01*
X4165000D01*
Y1450000D01*
X4125000D01*
X2755000Y4275000D02*
Y4315000D01*
X2795000D01*
Y4275000D01*
X2755000D01*
X1740000Y5010000D02*
Y5050000D01*
X1780000D01*
Y5010000D01*
X1740000D01*
X4225000Y4625000D02*
Y4665000D01*
X4265000D01*
Y4625000D01*
X4225000D01*
X4125000D02*
Y4665000D01*
X4165000D01*
Y4625000D01*
X4125000D01*
Y4505000D02*
Y4545000D01*
X4165000D01*
Y4505000D01*
X4125000D01*
X4225000D02*
Y4545000D01*
X4265000D01*
Y4505000D01*
X4225000D01*
Y4955000D02*
Y4995000D01*
X4265000D01*
Y4955000D01*
X4225000D01*
X4125000D02*
Y4995000D01*
X4165000D01*
Y4955000D01*
X4125000D01*
Y4835000D02*
Y4875000D01*
X4165000D01*
Y4835000D01*
X4125000D01*
X4225000D02*
Y4875000D01*
X4265000D01*
Y4835000D01*
X4225000D01*
X1320000Y4625000D02*
Y4665000D01*
X1360000D01*
Y4625000D01*
X1320000D01*
X1420000D02*
Y4665000D01*
X1460000D01*
Y4625000D01*
X1420000D01*
Y4505000D02*
Y4545000D01*
X1460000D01*
Y4505000D01*
X1420000D01*
X1320000D02*
Y4545000D01*
X1360000D01*
Y4505000D01*
X1320000D01*
X2480000Y4135000D02*
Y4175000D01*
X2520000D01*
Y4135000D01*
X2480000D01*
X3980000Y3390000D02*
Y3430000D01*
X4020000D01*
Y3390000D01*
X3980000D01*
X3880000D02*
Y3430000D01*
X3920000D01*
Y3390000D01*
X3880000D01*
X3780000D02*
Y3430000D01*
X3820000D01*
Y3390000D01*
X3780000D01*
X3680000D02*
Y3430000D01*
X3720000D01*
Y3390000D01*
X3680000D01*
X3580000D02*
Y3430000D01*
X3620000D01*
Y3390000D01*
X3580000D01*
X3480000D02*
Y3430000D01*
X3520000D01*
Y3390000D01*
X3480000D01*
X3030000Y3735000D02*
Y3775000D01*
X3070000D01*
Y3735000D01*
X3030000D01*
X2565000Y5195000D02*
Y5235000D01*
X2605000D01*
Y5195000D01*
X2565000D01*
X3450000Y4080000D02*
X3430000Y4120000D01*
X3470000D01*
X3450000Y4080000D01*
X3445000Y4580000D02*
X3425000Y4620000D01*
X3465000D01*
X3445000Y4580000D01*
X2190000Y5745000D02*
X2170000Y5785000D01*
X2210000D01*
X2190000Y5745000D01*
X3445000Y5080000D02*
X3425000Y5120000D01*
X3465000D01*
X3445000Y5080000D01*
X1865000Y3700000D02*
X1845000Y3740000D01*
X1885000D01*
X1865000Y3700000D01*
X2945000Y5080000D02*
X2925000Y5120000D01*
X2965000D01*
X2945000Y5080000D01*
X2365000Y3700000D02*
X2345000Y3740000D01*
X2385000D01*
X2365000Y3700000D01*
X2025000Y5245000D02*
X2005000Y5285000D01*
X2045000D01*
X2025000Y5245000D01*
X4670000Y2545000D02*
Y2585000D01*
X4710000D01*
Y2545000D01*
X4670000D01*
X4770000D02*
Y2585000D01*
X4810000D01*
Y2545000D01*
X4770000D01*
X785000Y2615000D02*
Y2655000D01*
X825000D01*
Y2615000D01*
X785000D01*
X885000D02*
Y2655000D01*
X925000D01*
Y2615000D01*
X885000D01*
X625000Y3800000D02*
Y3840000D01*
X665000D01*
Y3800000D01*
X625000D01*
X885000Y3035000D02*
Y3075000D01*
X925000D01*
Y3035000D01*
X885000D01*
X785000D02*
Y3075000D01*
X825000D01*
Y3035000D01*
X785000D01*
X885000Y3255000D02*
Y3295000D01*
X925000D01*
Y3255000D01*
X885000D01*
Y3155000D02*
Y3195000D01*
X925000D01*
Y3155000D01*
X885000D01*
X4810000Y1665000D02*
Y1705000D01*
X4850000D01*
Y1665000D01*
X4810000D01*
X2410000Y6335000D02*
Y6375000D01*
X2450000D01*
Y6335000D01*
X2410000D01*
X2610000D02*
Y6375000D01*
X2650000D01*
Y6335000D01*
X2610000D01*
X2510000D02*
Y6375000D01*
X2550000D01*
Y6335000D01*
X2510000D01*
X2810000D02*
Y6375000D01*
X2850000D01*
Y6335000D01*
X2810000D01*
X2710000D02*
Y6375000D01*
X2750000D01*
Y6335000D01*
X2710000D01*
X3010000D02*
Y6375000D01*
X3050000D01*
Y6335000D01*
X3010000D01*
X2910000D02*
Y6375000D01*
X2950000D01*
Y6335000D01*
X2910000D01*
X2310000D02*
Y6375000D01*
X2350000D01*
Y6335000D01*
X2310000D01*
X4110000Y6635000D02*
Y6675000D01*
X4150000D01*
Y6635000D01*
X4110000D01*
X4010000D02*
Y6675000D01*
X4050000D01*
Y6635000D01*
X4010000D01*
X4110000Y6935000D02*
Y6975000D01*
X4150000D01*
Y6935000D01*
X4110000D01*
Y6835000D02*
Y6875000D01*
X4150000D01*
Y6835000D01*
X4110000D01*
Y6735000D02*
Y6775000D01*
X4150000D01*
Y6735000D01*
X4110000D01*
Y7035000D02*
Y7075000D01*
X4150000D01*
Y7035000D01*
X4110000D01*
X4010000Y6935000D02*
Y6975000D01*
X4050000D01*
Y6935000D01*
X4010000D01*
Y6835000D02*
Y6875000D01*
X4050000D01*
Y6835000D01*
X4010000D01*
Y6735000D02*
Y6775000D01*
X4050000D01*
Y6735000D01*
X4010000D01*
Y7035000D02*
Y7075000D01*
X4050000D01*
Y7035000D01*
X4010000D01*
X4110000Y7435000D02*
Y7475000D01*
X4150000D01*
Y7435000D01*
X4110000D01*
Y7335000D02*
Y7375000D01*
X4150000D01*
Y7335000D01*
X4110000D01*
X4010000D02*
Y7375000D01*
X4050000D01*
Y7335000D01*
X4010000D01*
X4110000Y7235000D02*
Y7275000D01*
X4150000D01*
Y7235000D01*
X4110000D01*
X4010000D02*
Y7275000D01*
X4050000D01*
Y7235000D01*
X4010000D01*
X4110000Y7135000D02*
Y7175000D01*
X4150000D01*
Y7135000D01*
X4110000D01*
X4010000D02*
Y7175000D01*
X4050000D01*
Y7135000D01*
X4010000D01*
Y7435000D02*
Y7475000D01*
X4050000D01*
Y7435000D01*
X4010000D01*
X4110000Y7735000D02*
Y7775000D01*
X4150000D01*
Y7735000D01*
X4110000D01*
Y7635000D02*
Y7675000D01*
X4150000D01*
Y7635000D01*
X4110000D01*
Y7535000D02*
Y7575000D01*
X4150000D01*
Y7535000D01*
X4110000D01*
Y7835000D02*
Y7875000D01*
X4150000D01*
Y7835000D01*
X4110000D01*
X4010000Y7735000D02*
Y7775000D01*
X4050000D01*
Y7735000D01*
X4010000D01*
Y7635000D02*
Y7675000D01*
X4050000D01*
Y7635000D01*
X4010000D01*
Y7535000D02*
Y7575000D01*
X4050000D01*
Y7535000D01*
X4010000D01*
Y7835000D02*
Y7875000D01*
X4050000D01*
Y7835000D01*
X4010000D01*
X3110000Y8235000D02*
Y8275000D01*
X3150000D01*
Y8235000D01*
X3110000D01*
X3310000D02*
Y8275000D01*
X3350000D01*
Y8235000D01*
X3310000D01*
X3210000D02*
Y8275000D01*
X3250000D01*
Y8235000D01*
X3210000D01*
X3510000D02*
Y8275000D01*
X3550000D01*
Y8235000D01*
X3510000D01*
X3410000D02*
Y8275000D01*
X3450000D01*
Y8235000D01*
X3410000D01*
X3710000D02*
Y8275000D01*
X3750000D01*
Y8235000D01*
X3710000D01*
X3610000D02*
Y8275000D01*
X3650000D01*
Y8235000D01*
X3610000D01*
X3010000D02*
Y8275000D01*
X3050000D01*
Y8235000D01*
X3010000D01*
X2210000D02*
Y8275000D01*
X2250000D01*
Y8235000D01*
X2210000D01*
X2410000D02*
Y8275000D01*
X2450000D01*
Y8235000D01*
X2410000D01*
X2310000D02*
Y8275000D01*
X2350000D01*
Y8235000D01*
X2310000D01*
X2610000D02*
Y8275000D01*
X2650000D01*
Y8235000D01*
X2610000D01*
X2510000D02*
Y8275000D01*
X2550000D01*
Y8235000D01*
X2510000D01*
X2810000D02*
Y8275000D01*
X2850000D01*
Y8235000D01*
X2810000D01*
X2710000D02*
Y8275000D01*
X2750000D01*
Y8235000D01*
X2710000D01*
X1550000D02*
Y8275000D01*
X1590000D01*
Y8235000D01*
X1550000D01*
X1450000D02*
Y8275000D01*
X1490000D01*
Y8235000D01*
X1450000D01*
X1750000D02*
Y8275000D01*
X1790000D01*
Y8235000D01*
X1750000D01*
X1650000D02*
Y8275000D01*
X1690000D01*
Y8235000D01*
X1650000D01*
X1150000D02*
Y8275000D01*
X1190000D01*
Y8235000D01*
X1150000D01*
X1050000D02*
Y8275000D01*
X1090000D01*
Y8235000D01*
X1050000D01*
X1250000D02*
Y8275000D01*
X1290000D01*
Y8235000D01*
X1250000D01*
X1950000D02*
Y8275000D01*
X1990000D01*
Y8235000D01*
X1950000D01*
X1850000D02*
Y8275000D01*
X1890000D01*
Y8235000D01*
X1850000D01*
X2110000D02*
Y8275000D01*
X2150000D01*
Y8235000D01*
X2110000D01*
X4110000D02*
Y8275000D01*
X4150000D01*
Y8235000D01*
X4110000D01*
Y8135000D02*
Y8175000D01*
X4150000D01*
Y8135000D01*
X4110000D01*
X4010000D02*
Y8175000D01*
X4050000D01*
Y8135000D01*
X4010000D01*
X4110000Y8035000D02*
Y8075000D01*
X4150000D01*
Y8035000D01*
X4110000D01*
X4010000D02*
Y8075000D01*
X4050000D01*
Y8035000D01*
X4010000D01*
X4110000Y7935000D02*
Y7975000D01*
X4150000D01*
Y7935000D01*
X4110000D01*
X4010000D02*
Y7975000D01*
X4050000D01*
Y7935000D01*
X4010000D01*
Y8235000D02*
Y8275000D01*
X4050000D01*
Y8235000D01*
X4010000D01*
X3310000Y6335000D02*
Y6375000D01*
X3350000D01*
Y6335000D01*
X3310000D01*
X3510000D02*
Y6375000D01*
X3550000D01*
Y6335000D01*
X3510000D01*
X3410000D02*
Y6375000D01*
X3450000D01*
Y6335000D01*
X3410000D01*
X3710000D02*
Y6375000D01*
X3750000D01*
Y6335000D01*
X3710000D01*
X3610000D02*
Y6375000D01*
X3650000D01*
Y6335000D01*
X3610000D01*
X3910000D02*
Y6375000D01*
X3950000D01*
Y6335000D01*
X3910000D01*
X3810000D02*
Y6375000D01*
X3850000D01*
Y6335000D01*
X3810000D01*
X3210000D02*
Y6375000D01*
X3250000D01*
Y6335000D01*
X3210000D01*
X1510000D02*
Y6375000D01*
X1550000D01*
Y6335000D01*
X1510000D01*
X1710000D02*
Y6375000D01*
X1750000D01*
Y6335000D01*
X1710000D01*
X1610000D02*
Y6375000D01*
X1650000D01*
Y6335000D01*
X1610000D01*
X1810000D02*
Y6375000D01*
X1850000D01*
Y6335000D01*
X1810000D01*
X2110000D02*
Y6375000D01*
X2150000D01*
Y6335000D01*
X2110000D01*
X1410000D02*
Y6375000D01*
X1450000D01*
Y6335000D01*
X1410000D01*
X4335144Y6936413D02*
X4345144Y6956413D01*
X4335144Y6976413D01*
X4355144Y6966413D01*
X4375144Y6976413D01*
X4365144Y6956413D01*
X4375144Y6936413D01*
X4355144Y6946413D01*
X4335144Y6936413D01*
X2008386Y1511614D02*
X2018386Y1531614D01*
X2008386Y1551614D01*
X2028386Y1541614D01*
X2048386Y1551614D01*
X2038386Y1531614D01*
X2048386Y1511614D01*
X2028386Y1521614D01*
X2008386Y1511614D01*
X2051693D02*
X2061693Y1531614D01*
X2051693Y1551614D01*
X2071693Y1541614D01*
X2091693Y1551614D01*
X2081693Y1531614D01*
X2091693Y1511614D01*
X2071693Y1521614D01*
X2051693Y1511614D01*
X2095000D02*
X2105000Y1531614D01*
X2095000Y1551614D01*
X2115000Y1541614D01*
X2135000Y1551614D01*
X2125000Y1531614D01*
X2135000Y1511614D01*
X2115000Y1521614D01*
X2095000Y1511614D01*
X2138307D02*
X2148307Y1531614D01*
X2138307Y1551614D01*
X2158307Y1541614D01*
X2178307Y1551614D01*
X2168307Y1531614D01*
X2178307Y1511614D01*
X2158307Y1521614D01*
X2138307Y1511614D01*
X2181614D02*
X2191614Y1531614D01*
X2181614Y1551614D01*
X2201614Y1541614D01*
X2221614Y1551614D01*
X2211614Y1531614D01*
X2221614Y1511614D01*
X2201614Y1521614D01*
X2181614Y1511614D01*
X2008386Y1468307D02*
X2018386Y1488307D01*
X2008386Y1508307D01*
X2028386Y1498307D01*
X2048386Y1508307D01*
X2038386Y1488307D01*
X2048386Y1468307D01*
X2028386Y1478307D01*
X2008386Y1468307D01*
X2051693D02*
X2061693Y1488307D01*
X2051693Y1508307D01*
X2071693Y1498307D01*
X2091693Y1508307D01*
X2081693Y1488307D01*
X2091693Y1468307D01*
X2071693Y1478307D01*
X2051693Y1468307D01*
X2095000D02*
X2105000Y1488307D01*
X2095000Y1508307D01*
X2115000Y1498307D01*
X2135000Y1508307D01*
X2125000Y1488307D01*
X2135000Y1468307D01*
X2115000Y1478307D01*
X2095000Y1468307D01*
X2138307D02*
X2148307Y1488307D01*
X2138307Y1508307D01*
X2158307Y1498307D01*
X2178307Y1508307D01*
X2168307Y1488307D01*
X2178307Y1468307D01*
X2158307Y1478307D01*
X2138307Y1468307D01*
X2181614D02*
X2191614Y1488307D01*
X2181614Y1508307D01*
X2201614Y1498307D01*
X2221614Y1508307D01*
X2211614Y1488307D01*
X2221614Y1468307D01*
X2201614Y1478307D01*
X2181614Y1468307D01*
X2008386Y1425000D02*
X2018386Y1445000D01*
X2008386Y1465000D01*
X2028386Y1455000D01*
X2048386Y1465000D01*
X2038386Y1445000D01*
X2048386Y1425000D01*
X2028386Y1435000D01*
X2008386Y1425000D01*
X2051693D02*
X2061693Y1445000D01*
X2051693Y1465000D01*
X2071693Y1455000D01*
X2091693Y1465000D01*
X2081693Y1445000D01*
X2091693Y1425000D01*
X2071693Y1435000D01*
X2051693Y1425000D01*
X2095000D02*
X2105000Y1445000D01*
X2095000Y1465000D01*
X2115000Y1455000D01*
X2135000Y1465000D01*
X2125000Y1445000D01*
X2135000Y1425000D01*
X2115000Y1435000D01*
X2095000Y1425000D01*
X2138307D02*
X2148307Y1445000D01*
X2138307Y1465000D01*
X2158307Y1455000D01*
X2178307Y1465000D01*
X2168307Y1445000D01*
X2178307Y1425000D01*
X2158307Y1435000D01*
X2138307Y1425000D01*
X2181614D02*
X2191614Y1445000D01*
X2181614Y1465000D01*
X2201614Y1455000D01*
X2221614Y1465000D01*
X2211614Y1445000D01*
X2221614Y1425000D01*
X2201614Y1435000D01*
X2181614Y1425000D01*
X2008386Y1381693D02*
X2018386Y1401693D01*
X2008386Y1421693D01*
X2028386Y1411693D01*
X2048386Y1421693D01*
X2038386Y1401693D01*
X2048386Y1381693D01*
X2028386Y1391693D01*
X2008386Y1381693D01*
X2051693D02*
X2061693Y1401693D01*
X2051693Y1421693D01*
X2071693Y1411693D01*
X2091693Y1421693D01*
X2081693Y1401693D01*
X2091693Y1381693D01*
X2071693Y1391693D01*
X2051693Y1381693D01*
X2095000D02*
X2105000Y1401693D01*
X2095000Y1421693D01*
X2115000Y1411693D01*
X2135000Y1421693D01*
X2125000Y1401693D01*
X2135000Y1381693D01*
X2115000Y1391693D01*
X2095000Y1381693D01*
X2138307D02*
X2148307Y1401693D01*
X2138307Y1421693D01*
X2158307Y1411693D01*
X2178307Y1421693D01*
X2168307Y1401693D01*
X2178307Y1381693D01*
X2158307Y1391693D01*
X2138307Y1381693D01*
X2181614D02*
X2191614Y1401693D01*
X2181614Y1421693D01*
X2201614Y1411693D01*
X2221614Y1421693D01*
X2211614Y1401693D01*
X2221614Y1381693D01*
X2201614Y1391693D01*
X2181614Y1381693D01*
X2008386Y1338386D02*
X2018386Y1358386D01*
X2008386Y1378386D01*
X2028386Y1368386D01*
X2048386Y1378386D01*
X2038386Y1358386D01*
X2048386Y1338386D01*
X2028386Y1348386D01*
X2008386Y1338386D01*
X2051693D02*
X2061693Y1358386D01*
X2051693Y1378386D01*
X2071693Y1368386D01*
X2091693Y1378386D01*
X2081693Y1358386D01*
X2091693Y1338386D01*
X2071693Y1348386D01*
X2051693Y1338386D01*
X2095000D02*
X2105000Y1358386D01*
X2095000Y1378386D01*
X2115000Y1368386D01*
X2135000Y1378386D01*
X2125000Y1358386D01*
X2135000Y1338386D01*
X2115000Y1348386D01*
X2095000Y1338386D01*
X2138307D02*
X2148307Y1358386D01*
X2138307Y1378386D01*
X2158307Y1368386D01*
X2178307Y1378386D01*
X2168307Y1358386D01*
X2178307Y1338386D01*
X2158307Y1348386D01*
X2138307Y1338386D01*
X2181614D02*
X2191614Y1358386D01*
X2181614Y1378386D01*
X2201614Y1368386D01*
X2221614Y1378386D01*
X2211614Y1358386D01*
X2221614Y1338386D01*
X2201614Y1348386D01*
X2181614Y1338386D01*
X2008386Y4566614D02*
X2018386Y4586614D01*
X2008386Y4606614D01*
X2028386Y4596614D01*
X2048386Y4606614D01*
X2038386Y4586614D01*
X2048386Y4566614D01*
X2028386Y4576614D01*
X2008386Y4566614D01*
X2051693D02*
X2061693Y4586614D01*
X2051693Y4606614D01*
X2071693Y4596614D01*
X2091693Y4606614D01*
X2081693Y4586614D01*
X2091693Y4566614D01*
X2071693Y4576614D01*
X2051693Y4566614D01*
X2095000D02*
X2105000Y4586614D01*
X2095000Y4606614D01*
X2115000Y4596614D01*
X2135000Y4606614D01*
X2125000Y4586614D01*
X2135000Y4566614D01*
X2115000Y4576614D01*
X2095000Y4566614D01*
X2138307D02*
X2148307Y4586614D01*
X2138307Y4606614D01*
X2158307Y4596614D01*
X2178307Y4606614D01*
X2168307Y4586614D01*
X2178307Y4566614D01*
X2158307Y4576614D01*
X2138307Y4566614D01*
X2181614D02*
X2191614Y4586614D01*
X2181614Y4606614D01*
X2201614Y4596614D01*
X2221614Y4606614D01*
X2211614Y4586614D01*
X2221614Y4566614D01*
X2201614Y4576614D01*
X2181614Y4566614D01*
X2008386Y4523307D02*
X2018386Y4543307D01*
X2008386Y4563307D01*
X2028386Y4553307D01*
X2048386Y4563307D01*
X2038386Y4543307D01*
X2048386Y4523307D01*
X2028386Y4533307D01*
X2008386Y4523307D01*
X2051693D02*
X2061693Y4543307D01*
X2051693Y4563307D01*
X2071693Y4553307D01*
X2091693Y4563307D01*
X2081693Y4543307D01*
X2091693Y4523307D01*
X2071693Y4533307D01*
X2051693Y4523307D01*
X2095000D02*
X2105000Y4543307D01*
X2095000Y4563307D01*
X2115000Y4553307D01*
X2135000Y4563307D01*
X2125000Y4543307D01*
X2135000Y4523307D01*
X2115000Y4533307D01*
X2095000Y4523307D01*
X2138307D02*
X2148307Y4543307D01*
X2138307Y4563307D01*
X2158307Y4553307D01*
X2178307Y4563307D01*
X2168307Y4543307D01*
X2178307Y4523307D01*
X2158307Y4533307D01*
X2138307Y4523307D01*
X2181614D02*
X2191614Y4543307D01*
X2181614Y4563307D01*
X2201614Y4553307D01*
X2221614Y4563307D01*
X2211614Y4543307D01*
X2221614Y4523307D01*
X2201614Y4533307D01*
X2181614Y4523307D01*
X2008386Y4480000D02*
X2018386Y4500000D01*
X2008386Y4520000D01*
X2028386Y4510000D01*
X2048386Y4520000D01*
X2038386Y4500000D01*
X2048386Y4480000D01*
X2028386Y4490000D01*
X2008386Y4480000D01*
X2051693D02*
X2061693Y4500000D01*
X2051693Y4520000D01*
X2071693Y4510000D01*
X2091693Y4520000D01*
X2081693Y4500000D01*
X2091693Y4480000D01*
X2071693Y4490000D01*
X2051693Y4480000D01*
X2095000D02*
X2105000Y4500000D01*
X2095000Y4520000D01*
X2115000Y4510000D01*
X2135000Y4520000D01*
X2125000Y4500000D01*
X2135000Y4480000D01*
X2115000Y4490000D01*
X2095000Y4480000D01*
X2138307D02*
X2148307Y4500000D01*
X2138307Y4520000D01*
X2158307Y4510000D01*
X2178307Y4520000D01*
X2168307Y4500000D01*
X2178307Y4480000D01*
X2158307Y4490000D01*
X2138307Y4480000D01*
X2181614D02*
X2191614Y4500000D01*
X2181614Y4520000D01*
X2201614Y4510000D01*
X2221614Y4520000D01*
X2211614Y4500000D01*
X2221614Y4480000D01*
X2201614Y4490000D01*
X2181614Y4480000D01*
X2008386Y4436693D02*
X2018386Y4456693D01*
X2008386Y4476693D01*
X2028386Y4466693D01*
X2048386Y4476693D01*
X2038386Y4456693D01*
X2048386Y4436693D01*
X2028386Y4446693D01*
X2008386Y4436693D01*
X2051693D02*
X2061693Y4456693D01*
X2051693Y4476693D01*
X2071693Y4466693D01*
X2091693Y4476693D01*
X2081693Y4456693D01*
X2091693Y4436693D01*
X2071693Y4446693D01*
X2051693Y4436693D01*
X2095000D02*
X2105000Y4456693D01*
X2095000Y4476693D01*
X2115000Y4466693D01*
X2135000Y4476693D01*
X2125000Y4456693D01*
X2135000Y4436693D01*
X2115000Y4446693D01*
X2095000Y4436693D01*
X2138307D02*
X2148307Y4456693D01*
X2138307Y4476693D01*
X2158307Y4466693D01*
X2178307Y4476693D01*
X2168307Y4456693D01*
X2178307Y4436693D01*
X2158307Y4446693D01*
X2138307Y4436693D01*
X2181614D02*
X2191614Y4456693D01*
X2181614Y4476693D01*
X2201614Y4466693D01*
X2221614Y4476693D01*
X2211614Y4456693D01*
X2221614Y4436693D01*
X2201614Y4446693D01*
X2181614Y4436693D01*
X2008386Y4393386D02*
X2018386Y4413386D01*
X2008386Y4433386D01*
X2028386Y4423386D01*
X2048386Y4433386D01*
X2038386Y4413386D01*
X2048386Y4393386D01*
X2028386Y4403386D01*
X2008386Y4393386D01*
X2051693D02*
X2061693Y4413386D01*
X2051693Y4433386D01*
X2071693Y4423386D01*
X2091693Y4433386D01*
X2081693Y4413386D01*
X2091693Y4393386D01*
X2071693Y4403386D01*
X2051693Y4393386D01*
X2095000D02*
X2105000Y4413386D01*
X2095000Y4433386D01*
X2115000Y4423386D01*
X2135000Y4433386D01*
X2125000Y4413386D01*
X2135000Y4393386D01*
X2115000Y4403386D01*
X2095000Y4393386D01*
X2138307D02*
X2148307Y4413386D01*
X2138307Y4433386D01*
X2158307Y4423386D01*
X2178307Y4433386D01*
X2168307Y4413386D01*
X2178307Y4393386D01*
X2158307Y4403386D01*
X2138307Y4393386D01*
X2181614D02*
X2191614Y4413386D01*
X2181614Y4433386D01*
X2201614Y4423386D01*
X2221614Y4433386D01*
X2211614Y4413386D01*
X2221614Y4393386D01*
X2201614Y4403386D01*
X2181614Y4393386D01*
X1315000Y4100000D02*
X1325000Y4120000D01*
X1315000Y4140000D01*
X1335000Y4130000D01*
X1355000Y4140000D01*
X1345000Y4120000D01*
X1355000Y4100000D01*
X1335000Y4110000D01*
X1315000Y4100000D01*
X3030000Y1010000D02*
X3040000Y1030000D01*
X3030000Y1050000D01*
X3050000Y1040000D01*
X3070000Y1050000D01*
X3060000Y1030000D01*
X3070000Y1010000D01*
X3050000Y1020000D01*
X3030000Y1010000D01*
X1025000Y2485000D02*
Y2525000D01*
X1065000D01*
Y2485000D01*
X1025000D01*
X3416867Y2258048D02*
X3426867Y2278048D01*
X3416867Y2298048D01*
X3436867Y2288048D01*
X3456867Y2298048D01*
X3446867Y2278048D01*
X3456867Y2258048D01*
X3436867Y2268048D01*
X3416867Y2258048D01*
X3915000Y3965000D02*
Y3955000D01*
X3935000D01*
Y3965000D01*
X3945000D01*
Y3985000D01*
X3935000D01*
Y3995000D01*
X3915000D01*
Y3985000D01*
X3905000D01*
Y3965000D01*
X3915000D01*
X3410000Y3800000D02*
Y3790000D01*
X3430000D01*
Y3800000D01*
X3440000D01*
Y3820000D01*
X3430000D01*
Y3830000D01*
X3410000D01*
Y3820000D01*
X3400000D01*
Y3800000D01*
X3410000D01*
X3170012Y3443800D02*
Y3433800D01*
X3190012D01*
Y3443800D01*
X3200012D01*
Y3463800D01*
X3190012D01*
Y3473800D01*
X3170012D01*
Y3463800D01*
X3160012D01*
Y3443800D01*
X3170012D01*
X4300000Y4250000D02*
Y4240000D01*
X4320000D01*
Y4250000D01*
X4330000D01*
Y4270000D01*
X4320000D01*
Y4280000D01*
X4300000D01*
Y4270000D01*
X4290000D01*
Y4250000D01*
X4300000D01*
X4635000Y6345000D02*
Y6335000D01*
X4655000D01*
Y6345000D01*
X4665000D01*
Y6365000D01*
X4655000D01*
Y6375000D01*
X4635000D01*
Y6365000D01*
X4625000D01*
Y6345000D01*
X4635000D01*
X4305000Y5470000D02*
Y5460000D01*
X4325000D01*
Y5470000D01*
X4335000D01*
Y5490000D01*
X4325000D01*
Y5500000D01*
X4305000D01*
Y5490000D01*
X4295000D01*
Y5470000D01*
X4305000D01*
X4075000Y2805000D02*
Y2795000D01*
X4095000D01*
Y2805000D01*
X4105000D01*
Y2825000D01*
X4095000D01*
Y2835000D01*
X4075000D01*
Y2825000D01*
X4065000D01*
Y2805000D01*
X4075000D01*
X3240000Y2905000D02*
X3250000Y2925000D01*
X3240000Y2945000D01*
X3260000Y2935000D01*
X3280000Y2945000D01*
X3270000Y2925000D01*
X3280000Y2905000D01*
X3260000Y2915000D01*
X3240000Y2905000D01*
X3315000Y2820000D02*
X3325000Y2840000D01*
X3315000Y2860000D01*
X3335000Y2850000D01*
X3355000Y2860000D01*
X3345000Y2840000D01*
X3355000Y2820000D01*
X3335000Y2830000D01*
X3315000Y2820000D01*
X3455000Y2860000D02*
Y2850000D01*
X3475000D01*
Y2860000D01*
X3485000D01*
Y2880000D01*
X3475000D01*
Y2890000D01*
X3455000D01*
Y2880000D01*
X3445000D01*
Y2860000D01*
X3455000D01*
X2710000Y2995000D02*
Y2985000D01*
X2730000D01*
Y2995000D01*
X2740000D01*
Y3015000D01*
X2730000D01*
Y3025000D01*
X2710000D01*
Y3015000D01*
X2700000D01*
Y2995000D01*
X2710000D01*
X5310000Y5900000D02*
Y5890000D01*
X5330000D01*
Y5900000D01*
X5340000D01*
Y5920000D01*
X5330000D01*
Y5930000D01*
X5310000D01*
Y5920000D01*
X5300000D01*
Y5900000D01*
X5310000D01*
X4810000Y6395000D02*
Y6385000D01*
X4830000D01*
Y6395000D01*
X4840000D01*
Y6415000D01*
X4830000D01*
Y6425000D01*
X4810000D01*
Y6415000D01*
X4800000D01*
Y6395000D01*
X4810000D01*
X5025000Y1110000D02*
Y1100000D01*
X5045000D01*
Y1110000D01*
X5055000D01*
Y1130000D01*
X5045000D01*
Y1140000D01*
X5025000D01*
Y1130000D01*
X5015000D01*
Y1110000D01*
X5025000D01*
X3729134Y1244598D02*
X3739134Y1264598D01*
X3729134Y1284598D01*
X3749134Y1274598D01*
X3769134Y1284598D01*
X3759134Y1264598D01*
X3769134Y1244598D01*
X3749134Y1254598D01*
X3729134Y1244598D01*
X5000000Y6515000D02*
Y6505000D01*
X5020000D01*
Y6515000D01*
X5030000D01*
Y6535000D01*
X5020000D01*
Y6545000D01*
X5000000D01*
Y6535000D01*
X4990000D01*
Y6515000D01*
X5000000D01*
X5045000Y2080000D02*
X5055000Y2100000D01*
X5045000Y2120000D01*
X5065000Y2110000D01*
X5085000Y2120000D01*
X5075000Y2100000D01*
X5085000Y2080000D01*
X5065000Y2090000D01*
X5045000Y2080000D01*
Y3365000D02*
Y3355000D01*
X5065000D01*
Y3365000D01*
X5075000D01*
Y3385000D01*
X5065000D01*
Y3395000D01*
X5045000D01*
Y3385000D01*
X5035000D01*
Y3365000D01*
X5045000D01*
X5050000Y4970000D02*
X5060000Y4990000D01*
X5050000Y5010000D01*
X5070000Y5000000D01*
X5090000Y5010000D01*
X5080000Y4990000D01*
X5090000Y4970000D01*
X5070000Y4980000D01*
X5050000Y4970000D01*
Y5055000D02*
X5060000Y5075000D01*
X5050000Y5095000D01*
X5070000Y5085000D01*
X5090000Y5095000D01*
X5080000Y5075000D01*
X5090000Y5055000D01*
X5070000Y5065000D01*
X5050000Y5055000D01*
Y4885000D02*
X5060000Y4905000D01*
X5050000Y4925000D01*
X5070000Y4915000D01*
X5090000Y4925000D01*
X5080000Y4905000D01*
X5090000Y4885000D01*
X5070000Y4895000D01*
X5050000Y4885000D01*
X4965000Y2270000D02*
X4975000Y2290000D01*
X4965000Y2310000D01*
X4985000Y2300000D01*
X5005000Y2310000D01*
X4995000Y2290000D01*
X5005000Y2270000D01*
X4985000Y2280000D01*
X4965000Y2270000D01*
X4075000Y5760000D02*
Y5750000D01*
X4095000D01*
Y5760000D01*
X4105000D01*
Y5780000D01*
X4095000D01*
Y5790000D01*
X4075000D01*
Y5780000D01*
X4065000D01*
Y5760000D01*
X4075000D01*
X4070000Y6375000D02*
Y6365000D01*
X4090000D01*
Y6375000D01*
X4100000D01*
Y6395000D01*
X4090000D01*
Y6405000D01*
X4070000D01*
Y6395000D01*
X4060000D01*
Y6375000D01*
X4070000D01*
X3665000Y4670000D02*
Y4660000D01*
X3685000D01*
Y4670000D01*
X3695000D01*
Y4690000D01*
X3685000D01*
Y4700000D01*
X3665000D01*
Y4690000D01*
X3655000D01*
Y4670000D01*
X3665000D01*
X3035000Y4120000D02*
Y4110000D01*
X3055000D01*
Y4120000D01*
X3065000D01*
Y4140000D01*
X3055000D01*
Y4150000D01*
X3035000D01*
Y4140000D01*
X3025000D01*
Y4120000D01*
X3035000D01*
X3665000Y4420000D02*
Y4410000D01*
X3685000D01*
Y4420000D01*
X3695000D01*
Y4440000D01*
X3685000D01*
Y4450000D01*
X3665000D01*
Y4440000D01*
X3655000D01*
Y4420000D01*
X3665000D01*
X3785000Y4815000D02*
Y4805000D01*
X3805000D01*
Y4815000D01*
X3815000D01*
Y4835000D01*
X3805000D01*
Y4845000D01*
X3785000D01*
Y4835000D01*
X3775000D01*
Y4815000D01*
X3785000D01*
X3900000Y5005000D02*
Y4995000D01*
X3920000D01*
Y5005000D01*
X3930000D01*
Y5025000D01*
X3920000D01*
Y5035000D01*
X3900000D01*
Y5025000D01*
X3890000D01*
Y5005000D01*
X3900000D01*
X4030000Y5115000D02*
Y5105000D01*
X4050000D01*
Y5115000D01*
X4060000D01*
Y5135000D01*
X4050000D01*
Y5145000D01*
X4030000D01*
Y5135000D01*
X4020000D01*
Y5115000D01*
X4030000D01*
X4253873Y6496434D02*
X4263873Y6516434D01*
X4253873Y6536434D01*
X4273873Y6526434D01*
X4293873Y6536434D01*
X4283873Y6516434D01*
X4293873Y6496434D01*
X4273873Y6506434D01*
X4253873Y6496434D01*
X2820000Y6455000D02*
X2830000Y6475000D01*
X2820000Y6495000D01*
X2840000Y6485000D01*
X2860000Y6495000D01*
X2850000Y6475000D01*
X2860000Y6455000D01*
X2840000Y6465000D01*
X2820000Y6455000D01*
X2821075Y6646063D02*
X2831075Y6666063D01*
X2821075Y6686063D01*
X2841075Y6676063D01*
X2861075Y6686063D01*
X2851075Y6666063D01*
X2861075Y6646063D01*
X2841075Y6656063D01*
X2821075Y6646063D01*
X2865000Y6415000D02*
X2875000Y6435000D01*
X2865000Y6455000D01*
X2885000Y6445000D01*
X2905000Y6455000D01*
X2895000Y6435000D01*
X2905000Y6415000D01*
X2885000Y6425000D01*
X2865000Y6415000D01*
X2870000Y6600000D02*
X2880000Y6620000D01*
X2870000Y6640000D01*
X2890000Y6630000D01*
X2910000Y6640000D01*
X2900000Y6620000D01*
X2910000Y6600000D01*
X2890000Y6610000D01*
X2870000Y6600000D01*
X2503826Y5415566D02*
X2513826Y5435566D01*
X2503826Y5455566D01*
X2523826Y5445566D01*
X2543826Y5455566D01*
X2533826Y5435566D01*
X2543826Y5415566D01*
X2523826Y5425566D01*
X2503826Y5415566D01*
X4305000Y6545000D02*
X4315000Y6565000D01*
X4305000Y6585000D01*
X4325000Y6575000D01*
X4345000Y6585000D01*
X4335000Y6565000D01*
X4345000Y6545000D01*
X4325000Y6555000D01*
X4305000Y6545000D01*
X4770000Y6727500D02*
X4780000Y6747500D01*
X4770000Y6767500D01*
X4790000Y6757500D01*
X4810000Y6767500D01*
X4800000Y6747500D01*
X4810000Y6727500D01*
X4790000Y6737500D01*
X4770000Y6727500D01*
X4370000Y6753091D02*
X4380000Y6773091D01*
X4370000Y6793091D01*
X4390000Y6783091D01*
X4410000Y6793091D01*
X4400000Y6773091D01*
X4410000Y6753091D01*
X4390000Y6763091D01*
X4370000Y6753091D01*
X4580000Y6765000D02*
Y6755000D01*
X4600000D01*
Y6765000D01*
X4610000D01*
Y6785000D01*
X4600000D01*
Y6795000D01*
X4580000D01*
Y6785000D01*
X4570000D01*
Y6765000D01*
X4580000D01*
X4505000Y7150000D02*
X4515000Y7170000D01*
X4505000Y7190000D01*
X4525000Y7180000D01*
X4545000Y7190000D01*
X4535000Y7170000D01*
X4545000Y7150000D01*
X4525000Y7160000D01*
X4505000Y7150000D01*
X4590000D02*
X4600000Y7170000D01*
X4590000Y7190000D01*
X4610000Y7180000D01*
X4630000Y7190000D01*
X4620000Y7170000D01*
X4630000Y7150000D01*
X4610000Y7160000D01*
X4590000Y7150000D01*
X4675000D02*
X4685000Y7170000D01*
X4675000Y7190000D01*
X4695000Y7180000D01*
X4715000Y7190000D01*
X4705000Y7170000D01*
X4715000Y7150000D01*
X4695000Y7160000D01*
X4675000Y7150000D01*
X4370000Y6675000D02*
X4380000Y6695000D01*
X4370000Y6715000D01*
X4390000Y6705000D01*
X4410000Y6715000D01*
X4400000Y6695000D01*
X4410000Y6675000D01*
X4390000Y6685000D01*
X4370000Y6675000D01*
X4900000Y5165000D02*
Y5155000D01*
X4920000D01*
Y5165000D01*
X4930000D01*
Y5185000D01*
X4920000D01*
Y5195000D01*
X4900000D01*
Y5185000D01*
X4890000D01*
Y5165000D01*
X4900000D01*
X5045000Y1910000D02*
X5055000Y1930000D01*
X5045000Y1950000D01*
X5065000Y1940000D01*
X5085000Y1950000D01*
X5075000Y1930000D01*
X5085000Y1910000D01*
X5065000Y1920000D01*
X5045000Y1910000D01*
Y1995000D02*
X5055000Y2015000D01*
X5045000Y2035000D01*
X5065000Y2025000D01*
X5085000Y2035000D01*
X5075000Y2015000D01*
X5085000Y1995000D01*
X5065000Y2005000D01*
X5045000Y1995000D01*
X790000Y1305000D02*
X800000Y1325000D01*
X790000Y1345000D01*
X810000Y1335000D01*
X830000Y1345000D01*
X820000Y1325000D01*
X830000Y1305000D01*
X810000Y1315000D01*
X790000Y1305000D01*
X622169Y1705093D02*
X632169Y1725093D01*
X622169Y1745093D01*
X642169Y1735093D01*
X662169Y1745093D01*
X652169Y1725093D01*
X662169Y1705093D01*
X642169Y1715093D01*
X622169Y1705093D01*
X620000Y1570000D02*
X630000Y1590000D01*
X620000Y1610000D01*
X640000Y1600000D01*
X660000Y1610000D01*
X650000Y1590000D01*
X660000Y1570000D01*
X640000Y1580000D01*
X620000Y1570000D01*
X660000Y1400000D02*
X670000Y1420000D01*
X660000Y1440000D01*
X680000Y1430000D01*
X700000Y1440000D01*
X690000Y1420000D01*
X700000Y1400000D01*
X680000Y1410000D01*
X660000Y1400000D01*
X4115000Y3660000D02*
Y3650000D01*
X4135000D01*
Y3660000D01*
X4145000D01*
Y3680000D01*
X4135000D01*
Y3690000D01*
X4115000D01*
Y3680000D01*
X4105000D01*
Y3660000D01*
X4115000D01*
Y3745000D02*
Y3735000D01*
X4135000D01*
Y3745000D01*
X4145000D01*
Y3765000D01*
X4135000D01*
Y3775000D01*
X4115000D01*
Y3765000D01*
X4105000D01*
Y3745000D01*
X4115000D01*
Y3830000D02*
Y3820000D01*
X4135000D01*
Y3830000D01*
X4145000D01*
Y3850000D01*
X4135000D01*
Y3860000D01*
X4115000D01*
Y3850000D01*
X4105000D01*
Y3830000D01*
X4115000D01*
Y605000D02*
Y595000D01*
X4135000D01*
Y605000D01*
X4145000D01*
Y625000D01*
X4135000D01*
Y635000D01*
X4115000D01*
Y625000D01*
X4105000D01*
Y605000D01*
X4115000D01*
Y690000D02*
Y680000D01*
X4135000D01*
Y690000D01*
X4145000D01*
Y710000D01*
X4135000D01*
Y720000D01*
X4115000D01*
Y710000D01*
X4105000D01*
Y690000D01*
X4115000D01*
Y770000D02*
Y760000D01*
X4135000D01*
Y770000D01*
X4145000D01*
Y790000D01*
X4135000D01*
Y800000D01*
X4115000D01*
Y790000D01*
X4105000D01*
Y770000D01*
X4115000D01*
X718870Y1307017D02*
X728870Y1327017D01*
X718870Y1347017D01*
X738870Y1337017D01*
X758870Y1347017D01*
X748870Y1327017D01*
X758870Y1307017D01*
X738870Y1317017D01*
X718870Y1307017D01*
X878870D02*
X888870Y1327017D01*
X878870Y1347017D01*
X898870Y1337017D01*
X918870Y1347017D01*
X908870Y1327017D01*
X918870Y1307017D01*
X898870Y1317017D01*
X878870Y1307017D01*
X790000Y1217500D02*
X800000Y1237500D01*
X790000Y1257500D01*
X810000Y1247500D01*
X830000Y1257500D01*
X820000Y1237500D01*
X830000Y1217500D01*
X810000Y1227500D01*
X790000Y1217500D01*
X740000Y1237500D02*
X750000Y1257500D01*
X740000Y1277500D01*
X760000Y1267500D01*
X780000Y1277500D01*
X770000Y1257500D01*
X780000Y1237500D01*
X760000Y1247500D01*
X740000Y1237500D01*
X1015000Y1222500D02*
Y1212500D01*
X1035000D01*
Y1222500D01*
X1045000D01*
Y1242500D01*
X1035000D01*
Y1252500D01*
X1015000D01*
Y1242500D01*
X1005000D01*
Y1222500D01*
X1015000D01*
X2757914Y2438399D02*
X2767914Y2458399D01*
X2757914Y2478399D01*
X2777914Y2468399D01*
X2797914Y2478399D01*
X2787914Y2458399D01*
X2797914Y2438399D01*
X2777914Y2448399D01*
X2757914Y2438399D01*
X2757086Y2522500D02*
X2767086Y2542500D01*
X2757086Y2562500D01*
X2777086Y2552500D01*
X2797086Y2562500D01*
X2787086Y2542500D01*
X2797086Y2522500D01*
X2777086Y2532500D01*
X2757086Y2522500D01*
X2758087Y5490000D02*
X2768087Y5510000D01*
X2758087Y5530000D01*
X2778087Y5520000D01*
X2798087Y5530000D01*
X2788087Y5510000D01*
X2798087Y5490000D01*
X2778087Y5500000D01*
X2758087Y5490000D01*
X2755000Y5575000D02*
X2765000Y5595000D01*
X2755000Y5615000D01*
X2775000Y5605000D01*
X2795000Y5615000D01*
X2785000Y5595000D01*
X2795000Y5575000D01*
X2775000Y5585000D01*
X2755000Y5575000D01*
X890000Y4360000D02*
X900000Y4380000D01*
X890000Y4400000D01*
X910000Y4390000D01*
X930000Y4400000D01*
X920000Y4380000D01*
X930000Y4360000D01*
X910000Y4370000D01*
X890000Y4360000D01*
X805000D02*
X815000Y4380000D01*
X805000Y4400000D01*
X825000Y4390000D01*
X845000Y4400000D01*
X835000Y4380000D01*
X845000Y4360000D01*
X825000Y4370000D01*
X805000Y4360000D01*
X720000D02*
X730000Y4380000D01*
X720000Y4400000D01*
X740000Y4390000D01*
X760000Y4400000D01*
X750000Y4380000D01*
X760000Y4360000D01*
X740000Y4370000D01*
X720000Y4360000D01*
X2150000Y980000D02*
Y970000D01*
X2170000D01*
Y980000D01*
X2180000D01*
Y1000000D01*
X2170000D01*
Y1010000D01*
X2150000D01*
Y1000000D01*
X2140000D01*
Y980000D01*
X2150000D01*
X2070000D02*
Y970000D01*
X2090000D01*
Y980000D01*
X2100000D01*
Y1000000D01*
X2090000D01*
Y1010000D01*
X2070000D01*
Y1000000D01*
X2060000D01*
Y980000D01*
X2070000D01*
X1985000D02*
Y970000D01*
X2005000D01*
Y980000D01*
X2015000D01*
Y1000000D01*
X2005000D01*
Y1010000D01*
X1985000D01*
Y1000000D01*
X1975000D01*
Y980000D01*
X1985000D01*
X1900000D02*
Y970000D01*
X1920000D01*
Y980000D01*
X1930000D01*
Y1000000D01*
X1920000D01*
Y1010000D01*
X1900000D01*
Y1000000D01*
X1890000D01*
Y980000D01*
X1900000D01*
X1810000Y890000D02*
Y880000D01*
X1830000D01*
Y890000D01*
X1840000D01*
Y910000D01*
X1830000D01*
Y920000D01*
X1810000D01*
Y910000D01*
X1800000D01*
Y890000D01*
X1810000D01*
X2150000Y4045000D02*
Y4035000D01*
X2170000D01*
Y4045000D01*
X2180000D01*
Y4065000D01*
X2170000D01*
Y4075000D01*
X2150000D01*
Y4065000D01*
X2140000D01*
Y4045000D01*
X2150000D01*
X2070000D02*
Y4035000D01*
X2090000D01*
Y4045000D01*
X2100000D01*
Y4065000D01*
X2090000D01*
Y4075000D01*
X2070000D01*
Y4065000D01*
X2060000D01*
Y4045000D01*
X2070000D01*
X1985000D02*
Y4035000D01*
X2005000D01*
Y4045000D01*
X2015000D01*
Y4065000D01*
X2005000D01*
Y4075000D01*
X1985000D01*
Y4065000D01*
X1975000D01*
Y4045000D01*
X1985000D01*
X1900000D02*
Y4035000D01*
X1920000D01*
Y4045000D01*
X1930000D01*
Y4065000D01*
X1920000D01*
Y4075000D01*
X1900000D01*
Y4065000D01*
X1890000D01*
Y4045000D01*
X1900000D01*
X1665000Y1365000D02*
X1675000Y1385000D01*
X1665000Y1405000D01*
X1685000Y1395000D01*
X1705000Y1405000D01*
X1695000Y1385000D01*
X1705000Y1365000D01*
X1685000Y1375000D01*
X1665000Y1365000D01*
Y1450000D02*
X1675000Y1470000D01*
X1665000Y1490000D01*
X1685000Y1480000D01*
X1705000Y1490000D01*
X1695000Y1470000D01*
X1705000Y1450000D01*
X1685000Y1460000D01*
X1665000Y1450000D01*
Y1622500D02*
X1675000Y1642500D01*
X1665000Y1662500D01*
X1685000Y1652500D01*
X1705000Y1662500D01*
X1695000Y1642500D01*
X1705000Y1622500D01*
X1685000Y1632500D01*
X1665000Y1622500D01*
Y1540000D02*
X1675000Y1560000D01*
X1665000Y1580000D01*
X1685000Y1570000D01*
X1705000Y1580000D01*
X1695000Y1560000D01*
X1705000Y1540000D01*
X1685000Y1550000D01*
X1665000Y1540000D01*
X1745000Y4845000D02*
Y4835000D01*
X1765000D01*
Y4845000D01*
X1775000D01*
Y4865000D01*
X1765000D01*
Y4875000D01*
X1745000D01*
Y4865000D01*
X1735000D01*
Y4845000D01*
X1745000D01*
X1665000Y4675000D02*
X1675000Y4695000D01*
X1665000Y4715000D01*
X1685000Y4705000D01*
X1705000Y4715000D01*
X1695000Y4695000D01*
X1705000Y4675000D01*
X1685000Y4685000D01*
X1665000Y4675000D01*
Y4590000D02*
X1675000Y4610000D01*
X1665000Y4630000D01*
X1685000Y4620000D01*
X1705000Y4630000D01*
X1695000Y4610000D01*
X1705000Y4590000D01*
X1685000Y4600000D01*
X1665000Y4590000D01*
Y4420000D02*
X1675000Y4440000D01*
X1665000Y4460000D01*
X1685000Y4450000D01*
X1705000Y4460000D01*
X1695000Y4440000D01*
X1705000Y4420000D01*
X1685000Y4430000D01*
X1665000Y4420000D01*
Y4505000D02*
X1675000Y4525000D01*
X1665000Y4545000D01*
X1685000Y4535000D01*
X1705000Y4545000D01*
X1695000Y4525000D01*
X1705000Y4505000D01*
X1685000Y4515000D01*
X1665000Y4505000D01*
X1855000Y4610000D02*
X1865000Y4630000D01*
X1855000Y4650000D01*
X1875000Y4640000D01*
X1895000Y4650000D01*
X1885000Y4630000D01*
X1895000Y4610000D01*
X1875000Y4620000D01*
X1855000Y4610000D01*
X1866448Y4655966D02*
X1876448Y4675966D01*
X1866448Y4695966D01*
X1886448Y4685966D01*
X1906448Y4695966D01*
X1896448Y4675966D01*
X1906448Y4655966D01*
X1886448Y4665966D01*
X1866448Y4655966D01*
X1710000Y5862500D02*
X1720000Y5882500D01*
X1710000Y5902500D01*
X1730000Y5892500D01*
X1750000Y5902500D01*
X1740000Y5882500D01*
X1750000Y5862500D01*
X1730000Y5872500D01*
X1710000Y5862500D01*
X1655000D02*
X1665000Y5882500D01*
X1655000Y5902500D01*
X1675000Y5892500D01*
X1695000Y5902500D01*
X1685000Y5882500D01*
X1695000Y5862500D01*
X1675000Y5872500D01*
X1655000Y5862500D01*
X1600000D02*
X1610000Y5882500D01*
X1600000Y5902500D01*
X1620000Y5892500D01*
X1640000Y5902500D01*
X1630000Y5882500D01*
X1640000Y5862500D01*
X1620000Y5872500D01*
X1600000Y5862500D01*
X1545000D02*
X1555000Y5882500D01*
X1545000Y5902500D01*
X1565000Y5892500D01*
X1585000Y5902500D01*
X1575000Y5882500D01*
X1585000Y5862500D01*
X1565000Y5872500D01*
X1545000Y5862500D01*
X1765000D02*
X1775000Y5882500D01*
X1765000Y5902500D01*
X1785000Y5892500D01*
X1805000Y5902500D01*
X1795000Y5882500D01*
X1805000Y5862500D01*
X1785000Y5872500D01*
X1765000Y5862500D01*
X1690000Y5180000D02*
Y5170000D01*
X1710000D01*
Y5180000D01*
X1720000D01*
Y5200000D01*
X1710000D01*
Y5210000D01*
X1690000D01*
Y5200000D01*
X1680000D01*
Y5180000D01*
X1690000D01*
X1320000Y5895000D02*
X1330000Y5915000D01*
X1320000Y5935000D01*
X1340000Y5925000D01*
X1360000Y5935000D01*
X1350000Y5915000D01*
X1360000Y5895000D01*
X1340000Y5905000D01*
X1320000Y5895000D01*
X125000Y5640000D02*
X135000Y5660000D01*
X125000Y5680000D01*
X145000Y5670000D01*
X165000Y5680000D01*
X155000Y5660000D01*
X165000Y5640000D01*
X145000Y5650000D01*
X125000Y5640000D01*
X255000Y5610000D02*
X265000Y5630000D01*
X255000Y5650000D01*
X275000Y5640000D01*
X295000Y5650000D01*
X285000Y5630000D01*
X295000Y5610000D01*
X275000Y5620000D01*
X255000Y5610000D01*
X125000Y5860000D02*
X135000Y5880000D01*
X125000Y5900000D01*
X145000Y5890000D01*
X165000Y5900000D01*
X155000Y5880000D01*
X165000Y5860000D01*
X145000Y5870000D01*
X125000Y5860000D01*
Y5805000D02*
X135000Y5825000D01*
X125000Y5845000D01*
X145000Y5835000D01*
X165000Y5845000D01*
X155000Y5825000D01*
X165000Y5805000D01*
X145000Y5815000D01*
X125000Y5805000D01*
Y5750000D02*
X135000Y5770000D01*
X125000Y5790000D01*
X145000Y5780000D01*
X165000Y5790000D01*
X155000Y5770000D01*
X165000Y5750000D01*
X145000Y5760000D01*
X125000Y5750000D01*
Y5695000D02*
X135000Y5715000D01*
X125000Y5735000D01*
X145000Y5725000D01*
X165000Y5735000D01*
X155000Y5715000D01*
X165000Y5695000D01*
X145000Y5705000D01*
X125000Y5695000D01*
X1775000Y5185000D02*
Y5175000D01*
X1795000D01*
Y5185000D01*
X1805000D01*
Y5205000D01*
X1795000D01*
Y5215000D01*
X1775000D01*
Y5205000D01*
X1765000D01*
Y5185000D01*
X1775000D01*
X1960000Y4710000D02*
X1970000Y4730000D01*
X1960000Y4750000D01*
X1980000Y4740000D01*
X2000000Y4750000D01*
X1990000Y4730000D01*
X2000000Y4710000D01*
X1980000Y4720000D01*
X1960000Y4710000D01*
X1875000D02*
X1885000Y4730000D01*
X1875000Y4750000D01*
X1895000Y4740000D01*
X1915000Y4750000D01*
X1905000Y4730000D01*
X1915000Y4710000D01*
X1895000Y4720000D01*
X1875000Y4710000D01*
X1655000Y5125000D02*
Y5115000D01*
X1675000D01*
Y5125000D01*
X1685000D01*
Y5145000D01*
X1675000D01*
Y5155000D01*
X1655000D01*
Y5145000D01*
X1645000D01*
Y5125000D01*
X1655000D01*
X1617500Y5055000D02*
Y5045000D01*
X1637500D01*
Y5055000D01*
X1647500D01*
Y5075000D01*
X1637500D01*
Y5085000D01*
X1617500D01*
Y5075000D01*
X1607500D01*
Y5055000D01*
X1617500D01*
X4505000Y4375000D02*
Y4365000D01*
X4525000D01*
Y4375000D01*
X4535000D01*
Y4395000D01*
X4525000D01*
Y4405000D01*
X4505000D01*
Y4395000D01*
X4495000D01*
Y4375000D01*
X4505000D01*
X4645000Y4455000D02*
Y4445000D01*
X4665000D01*
Y4455000D01*
X4675000D01*
Y4475000D01*
X4665000D01*
Y4485000D01*
X4645000D01*
Y4475000D01*
X4635000D01*
Y4455000D01*
X4645000D01*
X4690000Y3705000D02*
Y3695000D01*
X4710000D01*
Y3705000D01*
X4720000D01*
Y3725000D01*
X4710000D01*
Y3735000D01*
X4690000D01*
Y3725000D01*
X4680000D01*
Y3705000D01*
X4690000D01*
X4645000Y3415000D02*
Y3405000D01*
X4665000D01*
Y3415000D01*
X4675000D01*
Y3435000D01*
X4665000D01*
Y3445000D01*
X4645000D01*
Y3435000D01*
X4635000D01*
Y3415000D01*
X4645000D01*
X3365000Y3175000D02*
Y3165000D01*
X3385000D01*
Y3175000D01*
X3395000D01*
Y3195000D01*
X3385000D01*
Y3205000D01*
X3365000D01*
Y3195000D01*
X3355000D01*
Y3175000D01*
X3365000D01*
X3315000Y3360000D02*
Y3350000D01*
X3335000D01*
Y3360000D01*
X3345000D01*
Y3380000D01*
X3335000D01*
Y3390000D01*
X3315000D01*
Y3380000D01*
X3305000D01*
Y3360000D01*
X3315000D01*
X3043793Y3490687D02*
X3053793Y3510687D01*
X3043793Y3530687D01*
X3063793Y3520687D01*
X3083793Y3530687D01*
X3073793Y3510687D01*
X3083793Y3490687D01*
X3063793Y3500687D01*
X3043793Y3490687D01*
X2887042Y3660000D02*
X2897042Y3680000D01*
X2887042Y3700000D01*
X2907042Y3690000D01*
X2927042Y3700000D01*
X2917042Y3680000D01*
X2927042Y3660000D01*
X2907042Y3670000D01*
X2887042Y3660000D01*
X2760000Y2750000D02*
X2770000Y2770000D01*
X2760000Y2790000D01*
X2780000Y2780000D01*
X2800000Y2790000D01*
X2790000Y2770000D01*
X2800000Y2750000D01*
X2780000Y2760000D01*
X2760000Y2750000D01*
X2705000Y2660000D02*
Y2650000D01*
X2725000D01*
Y2660000D01*
X2735000D01*
Y2680000D01*
X2725000D01*
Y2690000D01*
X2705000D01*
Y2680000D01*
X2695000D01*
Y2660000D01*
X2705000D01*
X2757294Y2586484D02*
X2767294Y2606484D01*
X2757294Y2626484D01*
X2777294Y2616484D01*
X2797294Y2626484D01*
X2787294Y2606484D01*
X2797294Y2586484D01*
X2777294Y2596484D01*
X2757294Y2586484D01*
X4890502Y2210000D02*
Y2200000D01*
X4910502D01*
Y2210000D01*
X4920502D01*
Y2230000D01*
X4910502D01*
Y2240000D01*
X4890502D01*
Y2230000D01*
X4880502D01*
Y2210000D01*
X4890502D01*
X995000Y1365000D02*
Y1355000D01*
X1015000D01*
Y1365000D01*
X1025000D01*
Y1385000D01*
X1015000D01*
Y1395000D01*
X995000D01*
Y1385000D01*
X985000D01*
Y1365000D01*
X995000D01*
X1555000Y5035000D02*
Y5025000D01*
X1575000D01*
Y5035000D01*
X1585000D01*
Y5055000D01*
X1575000D01*
Y5065000D01*
X1555000D01*
Y5055000D01*
X1545000D01*
Y5035000D01*
X1555000D01*
X2100000Y4235000D02*
X2110000Y4255000D01*
X2100000Y4275000D01*
X2120000Y4265000D01*
X2140000Y4275000D01*
X2130000Y4255000D01*
X2140000Y4235000D01*
X2120000Y4245000D01*
X2100000Y4235000D01*
X760000Y845000D02*
Y835000D01*
X780000D01*
Y845000D01*
X790000D01*
Y865000D01*
X780000D01*
Y875000D01*
X760000D01*
Y865000D01*
X750000D01*
Y845000D01*
X760000D01*
X730000Y900000D02*
Y890000D01*
X750000D01*
Y900000D01*
X760000D01*
Y920000D01*
X750000D01*
Y930000D01*
X730000D01*
Y920000D01*
X720000D01*
Y900000D01*
X730000D01*
X585000Y1065000D02*
Y1055000D01*
X605000D01*
Y1065000D01*
X615000D01*
Y1085000D01*
X605000D01*
Y1095000D01*
X585000D01*
Y1085000D01*
X575000D01*
Y1065000D01*
X585000D01*
X640000Y1010000D02*
Y1000000D01*
X660000D01*
Y1010000D01*
X670000D01*
Y1030000D01*
X660000D01*
Y1040000D01*
X640000D01*
Y1030000D01*
X630000D01*
Y1010000D01*
X640000D01*
X825000Y1070000D02*
X835000Y1090000D01*
X825000Y1110000D01*
X845000Y1100000D01*
X865000Y1110000D01*
X855000Y1090000D01*
X865000Y1070000D01*
X845000Y1080000D01*
X825000Y1070000D01*
X680000Y945000D02*
Y935000D01*
X700000D01*
Y945000D01*
X710000D01*
Y965000D01*
X700000D01*
Y975000D01*
X680000D01*
Y965000D01*
X670000D01*
Y945000D01*
X680000D01*
X995000Y1090000D02*
Y1080000D01*
X1015000D01*
Y1090000D01*
X1025000D01*
Y1110000D01*
X1015000D01*
Y1120000D01*
X995000D01*
Y1110000D01*
X985000D01*
Y1090000D01*
X995000D01*
X1012751Y1162249D02*
Y1152249D01*
X1032751D01*
Y1162249D01*
X1042751D01*
Y1182249D01*
X1032751D01*
Y1192249D01*
X1012751D01*
Y1182249D01*
X1002751D01*
Y1162249D01*
X1012751D01*
X2014090Y1197500D02*
X2024090Y1217500D01*
X2014090Y1237500D01*
X2034090Y1227500D01*
X2054090Y1237500D01*
X2044090Y1217500D01*
X2054090Y1197500D01*
X2034090Y1207500D01*
X2014090Y1197500D01*
X1230000Y1065000D02*
X1240000Y1085000D01*
X1230000Y1105000D01*
X1250000Y1095000D01*
X1270000Y1105000D01*
X1260000Y1085000D01*
X1270000Y1065000D01*
X1250000Y1075000D01*
X1230000Y1065000D01*
X2095000Y1175000D02*
X2105000Y1195000D01*
X2095000Y1215000D01*
X2115000Y1205000D01*
X2135000Y1215000D01*
X2125000Y1195000D01*
X2135000Y1175000D01*
X2115000Y1185000D01*
X2095000Y1175000D01*
X2060000Y1210000D02*
X2070000Y1230000D01*
X2060000Y1250000D01*
X2080000Y1240000D01*
X2100000Y1250000D01*
X2090000Y1230000D01*
X2100000Y1210000D01*
X2080000Y1220000D01*
X2060000Y1210000D01*
X782865Y1097346D02*
X792865Y1117346D01*
X782865Y1137346D01*
X802865Y1127346D01*
X822865Y1137346D01*
X812865Y1117346D01*
X822865Y1097346D01*
X802865Y1107346D01*
X782865Y1097346D01*
X1180481Y815481D02*
X1190481Y835481D01*
X1180481Y855481D01*
X1200481Y845481D01*
X1220481Y855481D01*
X1210481Y835481D01*
X1220481Y815481D01*
X1200481Y825481D01*
X1180481Y815481D01*
X930000Y1125000D02*
Y1115000D01*
X950000D01*
Y1125000D01*
X960000D01*
Y1145000D01*
X950000D01*
Y1155000D01*
X930000D01*
Y1145000D01*
X920000D01*
Y1125000D01*
X930000D01*
X790000Y1175000D02*
X800000Y1195000D01*
X790000Y1215000D01*
X810000Y1205000D01*
X830000Y1215000D01*
X820000Y1195000D01*
X830000Y1175000D01*
X810000Y1185000D01*
X790000Y1175000D01*
X1085000Y1290000D02*
Y1280000D01*
X1105000D01*
Y1290000D01*
X1115000D01*
Y1310000D01*
X1105000D01*
Y1320000D01*
X1085000D01*
Y1310000D01*
X1075000D01*
Y1290000D01*
X1085000D01*
X1866478Y1611464D02*
X1876478Y1631464D01*
X1866478Y1651464D01*
X1886478Y1641464D01*
X1906478Y1651464D01*
X1896478Y1631464D01*
X1906478Y1611464D01*
X1886478Y1621464D01*
X1866478Y1611464D01*
X1865000Y1495000D02*
X1875000Y1515000D01*
X1865000Y1535000D01*
X1885000Y1525000D01*
X1905000Y1535000D01*
X1895000Y1515000D01*
X1905000Y1495000D01*
X1885000Y1505000D01*
X1865000Y1495000D01*
Y4550000D02*
X1875000Y4570000D01*
X1865000Y4590000D01*
X1885000Y4580000D01*
X1905000Y4590000D01*
X1895000Y4570000D01*
X1905000Y4550000D01*
X1885000Y4560000D01*
X1865000Y4550000D01*
X2065000Y4280000D02*
X2075000Y4300000D01*
X2065000Y4320000D01*
X2085000Y4310000D01*
X2105000Y4320000D01*
X2095000Y4300000D01*
X2105000Y4280000D01*
X2085000Y4290000D01*
X2065000Y4280000D01*
X1854938Y1556102D02*
X1864938Y1576102D01*
X1854938Y1596102D01*
X1874938Y1586102D01*
X1894938Y1596102D01*
X1884938Y1576102D01*
X1894938Y1556102D01*
X1874938Y1566102D01*
X1854938Y1556102D01*
X380000Y4025000D02*
X390000Y4045000D01*
X380000Y4065000D01*
X400000Y4055000D01*
X420000Y4065000D01*
X410000Y4045000D01*
X420000Y4025000D01*
X400000Y4035000D01*
X380000Y4025000D01*
X520000D02*
X530000Y4045000D01*
X520000Y4065000D01*
X540000Y4055000D01*
X560000Y4065000D01*
X550000Y4045000D01*
X560000Y4025000D01*
X540000Y4035000D01*
X520000Y4025000D01*
X345000Y3980000D02*
X355000Y4000000D01*
X345000Y4020000D01*
X365000Y4010000D01*
X385000Y4020000D01*
X375000Y4000000D01*
X385000Y3980000D01*
X365000Y3990000D01*
X345000Y3980000D01*
X485000D02*
X495000Y4000000D01*
X485000Y4020000D01*
X505000Y4010000D01*
X525000Y4020000D01*
X515000Y4000000D01*
X525000Y3980000D01*
X505000Y3990000D01*
X485000Y3980000D01*
X450000Y4025000D02*
X460000Y4045000D01*
X450000Y4065000D01*
X470000Y4055000D01*
X490000Y4065000D01*
X480000Y4045000D01*
X490000Y4025000D01*
X470000Y4035000D01*
X450000Y4025000D01*
X415000Y3980000D02*
X425000Y4000000D01*
X415000Y4020000D01*
X435000Y4010000D01*
X455000Y4020000D01*
X445000Y4000000D01*
X455000Y3980000D01*
X435000Y3990000D01*
X415000Y3980000D01*
X445000Y3680000D02*
X455000Y3700000D01*
X445000Y3720000D01*
X465000Y3710000D01*
X485000Y3720000D01*
X475000Y3700000D01*
X485000Y3680000D01*
X465000Y3690000D01*
X445000Y3680000D01*
X553326Y3722148D02*
X563326Y3742148D01*
X553326Y3762148D01*
X573326Y3752148D01*
X593326Y3762148D01*
X583326Y3742148D01*
X593326Y3722148D01*
X573326Y3732148D01*
X553326Y3722148D01*
X480000Y3725000D02*
X490000Y3745000D01*
X480000Y3765000D01*
X500000Y3755000D01*
X520000Y3765000D01*
X510000Y3745000D01*
X520000Y3725000D01*
X500000Y3735000D01*
X480000Y3725000D01*
X515000Y3680000D02*
X525000Y3700000D01*
X515000Y3720000D01*
X535000Y3710000D01*
X555000Y3720000D01*
X545000Y3700000D01*
X555000Y3680000D01*
X535000Y3690000D01*
X515000Y3680000D01*
X410000Y3725000D02*
X420000Y3745000D01*
X410000Y3765000D01*
X430000Y3755000D01*
X450000Y3765000D01*
X440000Y3745000D01*
X450000Y3725000D01*
X430000Y3735000D01*
X410000Y3725000D01*
X375000Y3680000D02*
X385000Y3700000D01*
X375000Y3720000D01*
X395000Y3710000D01*
X415000Y3720000D01*
X405000Y3700000D01*
X415000Y3680000D01*
X395000Y3690000D01*
X375000Y3680000D01*
X905000Y2055000D02*
X915000Y2075000D01*
X905000Y2095000D01*
X925000Y2085000D01*
X945000Y2095000D01*
X935000Y2075000D01*
X945000Y2055000D01*
X925000Y2065000D01*
X905000Y2055000D01*
Y2000000D02*
X915000Y2020000D01*
X905000Y2040000D01*
X925000Y2030000D01*
X945000Y2040000D01*
X935000Y2020000D01*
X945000Y2000000D01*
X925000Y2010000D01*
X905000Y2000000D01*
X910000Y1935000D02*
X920000Y1955000D01*
X910000Y1975000D01*
X930000Y1965000D01*
X950000Y1975000D01*
X940000Y1955000D01*
X950000Y1935000D01*
X930000Y1945000D01*
X910000Y1935000D01*
X915000Y2130000D02*
X925000Y2150000D01*
X915000Y2170000D01*
X935000Y2160000D01*
X955000Y2170000D01*
X945000Y2150000D01*
X955000Y2130000D01*
X935000Y2140000D01*
X915000Y2130000D01*
X885000Y2195000D02*
X895000Y2215000D01*
X885000Y2235000D01*
X905000Y2225000D01*
X925000Y2235000D01*
X915000Y2215000D01*
X925000Y2195000D01*
X905000Y2205000D01*
X885000Y2195000D01*
X900000Y2270000D02*
X910000Y2290000D01*
X900000Y2310000D01*
X920000Y2300000D01*
X940000Y2310000D01*
X930000Y2290000D01*
X940000Y2270000D01*
X920000Y2280000D01*
X900000Y2270000D01*
X1145000Y2015000D02*
X1155000Y2035000D01*
X1145000Y2055000D01*
X1165000Y2045000D01*
X1185000Y2055000D01*
X1175000Y2035000D01*
X1185000Y2015000D01*
X1165000Y2025000D01*
X1145000Y2015000D01*
X1080000Y2055000D02*
X1090000Y2075000D01*
X1080000Y2095000D01*
X1100000Y2085000D01*
X1120000Y2095000D01*
X1110000Y2075000D01*
X1120000Y2055000D01*
X1100000Y2065000D01*
X1080000Y2055000D01*
X1130000Y2095000D02*
X1140000Y2115000D01*
X1130000Y2135000D01*
X1150000Y2125000D01*
X1170000Y2135000D01*
X1160000Y2115000D01*
X1170000Y2095000D01*
X1150000Y2105000D01*
X1130000Y2095000D01*
X1080000Y2130000D02*
X1090000Y2150000D01*
X1080000Y2170000D01*
X1100000Y2160000D01*
X1120000Y2170000D01*
X1110000Y2150000D01*
X1120000Y2130000D01*
X1100000Y2140000D01*
X1080000Y2130000D01*
X1125000Y2180000D02*
X1135000Y2200000D01*
X1125000Y2220000D01*
X1145000Y2210000D01*
X1165000Y2220000D01*
X1155000Y2200000D01*
X1165000Y2180000D01*
X1145000Y2190000D01*
X1125000Y2180000D01*
X1085000Y2230000D02*
X1095000Y2250000D01*
X1085000Y2270000D01*
X1105000Y2260000D01*
X1125000Y2270000D01*
X1115000Y2250000D01*
X1125000Y2230000D01*
X1105000Y2240000D01*
X1085000Y2230000D01*
X1690000Y2835000D02*
X1700000Y2855000D01*
X1690000Y2875000D01*
X1710000Y2865000D01*
X1730000Y2875000D01*
X1720000Y2855000D01*
X1730000Y2835000D01*
X1710000Y2845000D01*
X1690000Y2835000D01*
X1680000Y2740000D02*
X1690000Y2760000D01*
X1680000Y2780000D01*
X1700000Y2770000D01*
X1720000Y2780000D01*
X1710000Y2760000D01*
X1720000Y2740000D01*
X1700000Y2750000D01*
X1680000Y2740000D01*
X2810000Y2820000D02*
X2820000Y2840000D01*
X2810000Y2860000D01*
X2830000Y2850000D01*
X2850000Y2860000D01*
X2840000Y2840000D01*
X2850000Y2820000D01*
X2830000Y2830000D01*
X2810000Y2820000D01*
X840000Y4010000D02*
X850000Y4030000D01*
X840000Y4050000D01*
X860000Y4040000D01*
X880000Y4050000D01*
X870000Y4030000D01*
X880000Y4010000D01*
X860000Y4020000D01*
X840000Y4010000D01*
X810000Y3955000D02*
X820000Y3975000D01*
X810000Y3995000D01*
X830000Y3985000D01*
X850000Y3995000D01*
X840000Y3975000D01*
X850000Y3955000D01*
X830000Y3965000D01*
X810000Y3955000D01*
X875000Y3960000D02*
X885000Y3980000D01*
X875000Y4000000D01*
X895000Y3990000D01*
X915000Y4000000D01*
X905000Y3980000D01*
X915000Y3960000D01*
X895000Y3970000D01*
X875000Y3960000D01*
X870000Y4065000D02*
X880000Y4085000D01*
X870000Y4105000D01*
X890000Y4095000D01*
X910000Y4105000D01*
X900000Y4085000D01*
X910000Y4065000D01*
X890000Y4075000D01*
X870000Y4065000D01*
X830000Y4105000D02*
X840000Y4125000D01*
X830000Y4145000D01*
X850000Y4135000D01*
X870000Y4145000D01*
X860000Y4125000D01*
X870000Y4105000D01*
X850000Y4115000D01*
X830000Y4105000D01*
X875000Y4145000D02*
X885000Y4165000D01*
X875000Y4185000D01*
X895000Y4175000D01*
X915000Y4185000D01*
X905000Y4165000D01*
X915000Y4145000D01*
X895000Y4155000D01*
X875000Y4145000D01*
X665000Y4100000D02*
X675000Y4120000D01*
X665000Y4140000D01*
X685000Y4130000D01*
X705000Y4140000D01*
X695000Y4120000D01*
X705000Y4100000D01*
X685000Y4110000D01*
X665000Y4100000D01*
X675000Y4040000D02*
X685000Y4060000D01*
X675000Y4080000D01*
X695000Y4070000D01*
X715000Y4080000D01*
X705000Y4060000D01*
X715000Y4040000D01*
X695000Y4050000D01*
X675000Y4040000D01*
X530000Y3480000D02*
Y3470000D01*
X550000D01*
Y3480000D01*
X560000D01*
Y3500000D01*
X550000D01*
Y3510000D01*
X530000D01*
Y3500000D01*
X520000D01*
Y3480000D01*
X530000D01*
X1005000Y3880000D02*
X1015000Y3900000D01*
X1005000Y3920000D01*
X1025000Y3910000D01*
X1045000Y3920000D01*
X1035000Y3900000D01*
X1045000Y3880000D01*
X1025000Y3890000D01*
X1005000Y3880000D01*
X1010000Y3940000D02*
X1020000Y3960000D01*
X1010000Y3980000D01*
X1030000Y3970000D01*
X1050000Y3980000D01*
X1040000Y3960000D01*
X1050000Y3940000D01*
X1030000Y3950000D01*
X1010000Y3940000D01*
X990000Y3990000D02*
X1000000Y4010000D01*
X990000Y4030000D01*
X1010000Y4020000D01*
X1030000Y4030000D01*
X1020000Y4010000D01*
X1030000Y3990000D01*
X1010000Y4000000D01*
X990000Y3990000D01*
X1000000Y4045000D02*
X1010000Y4065000D01*
X1000000Y4085000D01*
X1020000Y4075000D01*
X1040000Y4085000D01*
X1030000Y4065000D01*
X1040000Y4045000D01*
X1020000Y4055000D01*
X1000000Y4045000D01*
X1005000Y4100000D02*
X1015000Y4120000D01*
X1005000Y4140000D01*
X1025000Y4130000D01*
X1045000Y4140000D01*
X1035000Y4120000D01*
X1045000Y4100000D01*
X1025000Y4110000D01*
X1005000Y4100000D01*
X1035000Y4145000D02*
X1045000Y4165000D01*
X1035000Y4185000D01*
X1055000Y4175000D01*
X1075000Y4185000D01*
X1065000Y4165000D01*
X1075000Y4145000D01*
X1055000Y4155000D01*
X1035000Y4145000D01*
X4965000Y2235000D02*
X4975000Y2255000D01*
X4965000Y2275000D01*
X4985000Y2265000D01*
X5005000Y2275000D01*
X4995000Y2255000D01*
X5005000Y2235000D01*
X4985000Y2245000D01*
X4965000Y2235000D01*
X4730000Y2165000D02*
X4740000Y2185000D01*
X4730000Y2205000D01*
X4750000Y2195000D01*
X4770000Y2205000D01*
X4760000Y2185000D01*
X4770000Y2165000D01*
X4750000Y2175000D01*
X4730000Y2165000D01*
Y2220000D02*
X4740000Y2240000D01*
X4730000Y2260000D01*
X4750000Y2250000D01*
X4770000Y2260000D01*
X4760000Y2240000D01*
X4770000Y2220000D01*
X4750000Y2230000D01*
X4730000Y2220000D01*
X575000Y4625000D02*
X585000Y4645000D01*
X575000Y4665000D01*
X595000Y4655000D01*
X615000Y4665000D01*
X605000Y4645000D01*
X615000Y4625000D01*
X595000Y4635000D01*
X575000Y4625000D01*
X1137518Y4573056D02*
X1147518Y4593056D01*
X1137518Y4613056D01*
X1157518Y4603056D01*
X1177518Y4613056D01*
X1167518Y4593056D01*
X1177518Y4573056D01*
X1157518Y4583056D01*
X1137518Y4573056D01*
X1196236Y4556658D02*
X1206236Y4576658D01*
X1196236Y4596658D01*
X1216236Y4586658D01*
X1236236Y4596658D01*
X1226236Y4576658D01*
X1236236Y4556658D01*
X1216236Y4566658D01*
X1196236Y4556658D01*
X4500000Y3680000D02*
Y3670000D01*
X4520000D01*
Y3680000D01*
X4530000D01*
Y3700000D01*
X4520000D01*
Y3710000D01*
X4500000D01*
Y3700000D01*
X4490000D01*
Y3680000D01*
X4500000D01*
X3650000Y665000D02*
Y655000D01*
X3670000D01*
Y665000D01*
X3680000D01*
Y685000D01*
X3670000D01*
Y695000D01*
X3650000D01*
Y685000D01*
X3640000D01*
Y665000D01*
X3650000D01*
X3705000Y880000D02*
Y870000D01*
X3725000D01*
Y880000D01*
X3735000D01*
Y900000D01*
X3725000D01*
Y910000D01*
X3705000D01*
Y900000D01*
X3695000D01*
Y880000D01*
X3705000D01*
X3008092Y501908D02*
X3018092Y521908D01*
X3008092Y541908D01*
X3028092Y531908D01*
X3048092Y541908D01*
X3038092Y521908D01*
X3048092Y501908D01*
X3028092Y511908D01*
X3008092Y501908D01*
X2835000Y392500D02*
X2845000Y412500D01*
X2835000Y432500D01*
X2855000Y422500D01*
X2875000Y432500D01*
X2865000Y412500D01*
X2875000Y392500D01*
X2855000Y402500D01*
X2835000Y392500D01*
X3026116Y418010D02*
X3036116Y438010D01*
X3026116Y458010D01*
X3046116Y448010D01*
X3066116Y458010D01*
X3056116Y438010D01*
X3066116Y418010D01*
X3046116Y428010D01*
X3026116Y418010D01*
X3170000Y375000D02*
Y365000D01*
X3190000D01*
Y375000D01*
X3200000D01*
Y395000D01*
X3190000D01*
Y405000D01*
X3170000D01*
Y395000D01*
X3160000D01*
Y375000D01*
X3170000D01*
X3000000Y540000D02*
X3010000Y560000D01*
X3000000Y580000D01*
X3020000Y570000D01*
X3040000Y580000D01*
X3030000Y560000D01*
X3040000Y540000D01*
X3020000Y550000D01*
X3000000Y540000D01*
X1000000Y1710000D02*
X1010000Y1730000D01*
X1000000Y1750000D01*
X1020000Y1740000D01*
X1040000Y1750000D01*
X1030000Y1730000D01*
X1040000Y1710000D01*
X1020000Y1720000D01*
X1000000Y1710000D01*
Y1635000D02*
X1010000Y1655000D01*
X1000000Y1675000D01*
X1020000Y1665000D01*
X1040000Y1675000D01*
X1030000Y1655000D01*
X1040000Y1635000D01*
X1020000Y1645000D01*
X1000000Y1635000D01*
X895000Y1835000D02*
X905000Y1855000D01*
X895000Y1875000D01*
X915000Y1865000D01*
X935000Y1875000D01*
X925000Y1855000D01*
X935000Y1835000D01*
X915000Y1845000D01*
X895000Y1835000D01*
Y1765000D02*
X905000Y1785000D01*
X895000Y1805000D01*
X915000Y1795000D01*
X935000Y1805000D01*
X925000Y1785000D01*
X935000Y1765000D01*
X915000Y1775000D01*
X895000Y1765000D01*
X775000Y2540000D02*
X785000Y2560000D01*
X775000Y2580000D01*
X795000Y2570000D01*
X815000Y2580000D01*
X805000Y2560000D01*
X815000Y2540000D01*
X795000Y2550000D01*
X775000Y2540000D01*
X2810000Y700000D02*
X2820000Y720000D01*
X2810000Y740000D01*
X2830000Y730000D01*
X2850000Y740000D01*
X2840000Y720000D01*
X2850000Y700000D01*
X2830000Y710000D01*
X2810000Y700000D01*
X2850000Y605000D02*
X2860000Y625000D01*
X2850000Y645000D01*
X2870000Y635000D01*
X2890000Y645000D01*
X2880000Y625000D01*
X2890000Y605000D01*
X2870000Y615000D01*
X2850000Y605000D01*
X2815910Y3760910D02*
X2825910Y3780910D01*
X2815910Y3800910D01*
X2835910Y3790910D01*
X2855910Y3800910D01*
X2845910Y3780910D01*
X2855910Y3760910D01*
X2835910Y3770910D01*
X2815910Y3760910D01*
X3008092Y3556908D02*
X3018092Y3576908D01*
X3008092Y3596908D01*
X3028092Y3586908D01*
X3048092Y3596908D01*
X3038092Y3576908D01*
X3048092Y3556908D01*
X3028092Y3566908D01*
X3008092Y3556908D01*
X2937500Y3635000D02*
X2947500Y3655000D01*
X2937500Y3675000D01*
X2957500Y3665000D01*
X2977500Y3675000D01*
X2967500Y3655000D01*
X2977500Y3635000D01*
X2957500Y3645000D01*
X2937500Y3635000D01*
X3532426Y3732574D02*
Y3722574D01*
X3552426D01*
Y3732574D01*
X3562426D01*
Y3752574D01*
X3552426D01*
Y3762574D01*
X3532426D01*
Y3752574D01*
X3522426D01*
Y3732574D01*
X3532426D01*
X3705000Y3990000D02*
Y3980000D01*
X3725000D01*
Y3990000D01*
X3735000D01*
Y4010000D01*
X3725000D01*
Y4020000D01*
X3705000D01*
Y4010000D01*
X3695000D01*
Y3990000D01*
X3705000D01*
X2835000Y3447500D02*
X2845000Y3467500D01*
X2835000Y3487500D01*
X2855000Y3477500D01*
X2875000Y3487500D01*
X2865000Y3467500D01*
X2875000Y3447500D01*
X2855000Y3457500D01*
X2835000Y3447500D01*
X3000000Y3595000D02*
X3010000Y3615000D01*
X3000000Y3635000D01*
X3020000Y3625000D01*
X3040000Y3635000D01*
X3030000Y3615000D01*
X3040000Y3595000D01*
X3020000Y3605000D01*
X3000000Y3595000D01*
X3725000Y2110000D02*
Y2100000D01*
X3745000D01*
Y2110000D01*
X3755000D01*
Y2130000D01*
X3745000D01*
Y2140000D01*
X3725000D01*
Y2130000D01*
X3715000D01*
Y2110000D01*
X3725000D01*
X2475000Y2640000D02*
X2485000Y2660000D01*
X2475000Y2680000D01*
X2495000Y2670000D01*
X2515000Y2680000D01*
X2505000Y2660000D01*
X2515000Y2640000D01*
X2495000Y2650000D01*
X2475000Y2640000D01*
X2695000Y3200000D02*
X2705000Y3220000D01*
X2695000Y3240000D01*
X2715000Y3230000D01*
X2735000Y3240000D01*
X2725000Y3220000D01*
X2735000Y3200000D01*
X2715000Y3210000D01*
X2695000Y3200000D01*
X4600000Y4640000D02*
X4610000Y4660000D01*
X4600000Y4680000D01*
X4620000Y4670000D01*
X4640000Y4680000D01*
X4630000Y4660000D01*
X4640000Y4640000D01*
X4620000Y4650000D01*
X4600000Y4640000D01*
X4780000Y2965000D02*
Y2955000D01*
X4800000D01*
Y2965000D01*
X4810000D01*
Y2985000D01*
X4800000D01*
Y2995000D01*
X4780000D01*
Y2985000D01*
X4770000D01*
Y2965000D01*
X4780000D01*
X4160000Y2185000D02*
Y2175000D01*
X4180000D01*
Y2185000D01*
X4190000D01*
Y2205000D01*
X4180000D01*
Y2215000D01*
X4160000D01*
Y2205000D01*
X4150000D01*
Y2185000D01*
X4160000D01*
X4798832Y2620000D02*
X4808832Y2640000D01*
X4798832Y2660000D01*
X4818832Y2650000D01*
X4838832Y2660000D01*
X4828832Y2640000D01*
X4838832Y2620000D01*
X4818832Y2630000D01*
X4798832Y2620000D01*
X4557648Y1907648D02*
Y1897648D01*
X4577648D01*
Y1907648D01*
X4587648D01*
Y1927648D01*
X4577648D01*
Y1937648D01*
X4557648D01*
Y1927648D01*
X4547648D01*
Y1907648D01*
X4557648D01*
X4355000Y2100000D02*
Y2090000D01*
X4375000D01*
Y2100000D01*
X4385000D01*
Y2120000D01*
X4375000D01*
Y2130000D01*
X4355000D01*
Y2120000D01*
X4345000D01*
Y2100000D01*
X4355000D01*
X4780000Y3035000D02*
X4790000Y3055000D01*
X4780000Y3075000D01*
X4800000Y3065000D01*
X4820000Y3075000D01*
X4810000Y3055000D01*
X4820000Y3035000D01*
X4800000Y3045000D01*
X4780000Y3035000D01*
X4045000Y3235000D02*
Y3225000D01*
X4065000D01*
Y3235000D01*
X4075000D01*
Y3255000D01*
X4065000D01*
Y3265000D01*
X4045000D01*
Y3255000D01*
X4035000D01*
Y3235000D01*
X4045000D01*
X4145000Y3065000D02*
Y3055000D01*
X4165000D01*
Y3065000D01*
X4175000D01*
Y3085000D01*
X4165000D01*
Y3095000D01*
X4145000D01*
Y3085000D01*
X4135000D01*
Y3065000D01*
X4145000D01*
X3965000Y4210000D02*
Y4200000D01*
X3985000D01*
Y4210000D01*
X3995000D01*
Y4230000D01*
X3985000D01*
Y4240000D01*
X3965000D01*
Y4230000D01*
X3955000D01*
Y4210000D01*
X3965000D01*
X3960000Y1150000D02*
Y1140000D01*
X3980000D01*
Y1150000D01*
X3990000D01*
Y1170000D01*
X3980000D01*
Y1180000D01*
X3960000D01*
Y1170000D01*
X3950000D01*
Y1150000D01*
X3960000D01*
X2400000Y3315000D02*
X2410000Y3335000D01*
X2400000Y3355000D01*
X2420000Y3345000D01*
X2440000Y3355000D01*
X2430000Y3335000D01*
X2440000Y3315000D01*
X2420000Y3325000D01*
X2400000Y3315000D01*
X3320000Y3005000D02*
Y2995000D01*
X3340000D01*
Y3005000D01*
X3350000D01*
Y3025000D01*
X3340000D01*
Y3035000D01*
X3320000D01*
Y3025000D01*
X3310000D01*
Y3005000D01*
X3320000D01*
X2760000Y3210000D02*
X2770000Y3230000D01*
X2760000Y3250000D01*
X2780000Y3240000D01*
X2800000Y3250000D01*
X2790000Y3230000D01*
X2800000Y3210000D01*
X2780000Y3220000D01*
X2760000Y3210000D01*
X2955000Y3350000D02*
Y3340000D01*
X2975000D01*
Y3350000D01*
X2985000D01*
Y3370000D01*
X2975000D01*
Y3380000D01*
X2955000D01*
Y3370000D01*
X2945000D01*
Y3350000D01*
X2955000D01*
X2760000Y3480000D02*
X2770000Y3500000D01*
X2760000Y3520000D01*
X2780000Y3510000D01*
X2800000Y3520000D01*
X2790000Y3500000D01*
X2800000Y3480000D01*
X2780000Y3490000D01*
X2760000Y3480000D01*
X2755000Y155000D02*
X2765000Y175000D01*
X2755000Y195000D01*
X2775000Y185000D01*
X2795000Y195000D01*
X2785000Y175000D01*
X2795000Y155000D01*
X2775000Y165000D01*
X2755000Y155000D01*
X2760000Y425000D02*
X2770000Y445000D01*
X2760000Y465000D01*
X2780000Y455000D01*
X2800000Y465000D01*
X2790000Y445000D01*
X2800000Y425000D01*
X2780000Y435000D01*
X2760000Y425000D01*
X737500Y3375000D02*
X747500Y3395000D01*
X737500Y3415000D01*
X757500Y3405000D01*
X777500Y3415000D01*
X767500Y3395000D01*
X777500Y3375000D01*
X757500Y3385000D01*
X737500Y3375000D01*
X770000Y3470000D02*
Y3510000D01*
X810000D01*
Y3470000D01*
X770000D01*
X1334950Y3602886D02*
Y3592886D01*
X1354950D01*
Y3602886D01*
X1364950D01*
Y3622886D01*
X1354950D01*
Y3632886D01*
X1334950D01*
Y3622886D01*
X1324950D01*
Y3602886D01*
X1334950D01*
X1325000Y4062500D02*
X1335000Y4082500D01*
X1325000Y4102500D01*
X1345000Y4092500D01*
X1365000Y4102500D01*
X1355000Y4082500D01*
X1365000Y4062500D01*
X1345000Y4072500D01*
X1325000Y4062500D01*
X1240000Y3920000D02*
X1250000Y3940000D01*
X1240000Y3960000D01*
X1260000Y3950000D01*
X1280000Y3960000D01*
X1270000Y3940000D01*
X1280000Y3920000D01*
X1260000Y3930000D01*
X1240000Y3920000D01*
X1190000Y3870000D02*
X1200000Y3890000D01*
X1190000Y3910000D01*
X1210000Y3900000D01*
X1230000Y3910000D01*
X1220000Y3890000D01*
X1230000Y3870000D01*
X1210000Y3880000D01*
X1190000Y3870000D01*
X1215480Y3944520D02*
X1225480Y3964520D01*
X1215480Y3984520D01*
X1235480Y3974520D01*
X1255480Y3984520D01*
X1245480Y3964520D01*
X1255480Y3944520D01*
X1235480Y3954520D01*
X1215480Y3944520D01*
X1260984Y3999016D02*
X1270984Y4019016D01*
X1260984Y4039016D01*
X1280984Y4029016D01*
X1300984Y4039016D01*
X1290984Y4019016D01*
X1300984Y3999016D01*
X1280984Y4009016D01*
X1260984Y3999016D01*
X1230000Y965000D02*
X1240000Y985000D01*
X1230000Y1005000D01*
X1250000Y995000D01*
X1270000Y1005000D01*
X1260000Y985000D01*
X1270000Y965000D01*
X1250000Y975000D01*
X1230000Y965000D01*
X1180000Y1015000D02*
X1190000Y1035000D01*
X1180000Y1055000D01*
X1200000Y1045000D01*
X1220000Y1055000D01*
X1210000Y1035000D01*
X1220000Y1015000D01*
X1200000Y1025000D01*
X1180000Y1015000D01*
X1230000Y865000D02*
X1240000Y885000D01*
X1230000Y905000D01*
X1250000Y895000D01*
X1270000Y905000D01*
X1260000Y885000D01*
X1270000Y865000D01*
X1250000Y875000D01*
X1230000Y865000D01*
X1180000Y915000D02*
X1190000Y935000D01*
X1180000Y955000D01*
X1200000Y945000D01*
X1220000Y955000D01*
X1210000Y935000D01*
X1220000Y915000D01*
X1200000Y925000D01*
X1180000Y915000D01*
X793290Y1606198D02*
Y1596198D01*
X813290D01*
Y1606198D01*
X823290D01*
Y1626198D01*
X813290D01*
Y1636198D01*
X793290D01*
Y1626198D01*
X783290D01*
Y1606198D01*
X793290D01*
X530000Y2645000D02*
Y2635000D01*
X550000D01*
Y2645000D01*
X560000D01*
Y2665000D01*
X550000D01*
Y2675000D01*
X530000D01*
Y2665000D01*
X520000D01*
Y2645000D01*
X530000D01*
Y3065000D02*
Y3055000D01*
X550000D01*
Y3065000D01*
X560000D01*
Y3085000D01*
X550000D01*
Y3095000D01*
X530000D01*
Y3085000D01*
X520000D01*
Y3065000D01*
X530000D01*
X645000Y4475000D02*
Y4465000D01*
X665000D01*
Y4475000D01*
X675000D01*
Y4495000D01*
X665000D01*
Y4505000D01*
X645000D01*
Y4495000D01*
X635000D01*
Y4475000D01*
X645000D01*
X5045000Y2535000D02*
Y2525000D01*
X5065000D01*
Y2535000D01*
X5075000D01*
Y2555000D01*
X5065000D01*
Y2565000D01*
X5045000D01*
Y2555000D01*
X5035000D01*
Y2535000D01*
X5045000D01*
Y2950000D02*
Y2940000D01*
X5065000D01*
Y2950000D01*
X5075000D01*
Y2970000D01*
X5065000D01*
Y2980000D01*
X5045000D01*
Y2970000D01*
X5035000D01*
Y2950000D01*
X5045000D01*
X775000Y2960000D02*
X785000Y2980000D01*
X775000Y3000000D01*
X795000Y2990000D01*
X815000Y3000000D01*
X805000Y2980000D01*
X815000Y2960000D01*
X795000Y2970000D01*
X775000Y2960000D01*
X3935000Y485000D02*
Y475000D01*
X3955000D01*
Y485000D01*
X3965000D01*
Y505000D01*
X3955000D01*
Y515000D01*
X3935000D01*
Y505000D01*
X3925000D01*
Y485000D01*
X3935000D01*
X2570000Y275000D02*
X2580000Y295000D01*
X2570000Y315000D01*
X2590000Y305000D01*
X2610000Y315000D01*
X2600000Y295000D01*
X2610000Y275000D01*
X2590000Y285000D01*
X2570000Y275000D01*
X2695000Y145000D02*
X2705000Y165000D01*
X2695000Y185000D01*
X2715000Y175000D01*
X2735000Y185000D01*
X2725000Y165000D01*
X2735000Y145000D01*
X2715000Y155000D01*
X2695000Y145000D01*
X3090000Y2970000D02*
X3100000Y2990000D01*
X3090000Y3010000D01*
X3110000Y3000000D01*
X3130000Y3010000D01*
X3120000Y2990000D01*
X3130000Y2970000D01*
X3110000Y2980000D01*
X3090000Y2970000D01*
X1745000Y1215000D02*
Y1205000D01*
X1765000D01*
Y1215000D01*
X1775000D01*
Y1235000D01*
X1765000D01*
Y1245000D01*
X1745000D01*
Y1235000D01*
X1735000D01*
Y1215000D01*
X1745000D01*
X2467500Y1780000D02*
X2477500Y1800000D01*
X2467500Y1820000D01*
X2487500Y1810000D01*
X2507500Y1820000D01*
X2497500Y1800000D01*
X2507500Y1780000D01*
X2487500Y1790000D01*
X2467500Y1780000D01*
X2520738Y1738430D02*
X2530738Y1758430D01*
X2520738Y1778430D01*
X2540738Y1768430D01*
X2560738Y1778430D01*
X2550738Y1758430D01*
X2560738Y1738430D01*
X2540738Y1748430D01*
X2520738Y1738430D01*
X3870000Y1515000D02*
X3880000Y1535000D01*
X3870000Y1555000D01*
X3890000Y1545000D01*
X3910000Y1555000D01*
X3900000Y1535000D01*
X3910000Y1515000D01*
X3890000Y1525000D01*
X3870000Y1515000D01*
X2486542Y1545758D02*
X2496542Y1565758D01*
X2486542Y1585758D01*
X2506542Y1575758D01*
X2526542Y1585758D01*
X2516542Y1565758D01*
X2526542Y1545758D01*
X2506542Y1555758D01*
X2486542Y1545758D01*
X2570000Y1590000D02*
X2580000Y1610000D01*
X2570000Y1630000D01*
X2590000Y1620000D01*
X2610000Y1630000D01*
X2600000Y1610000D01*
X2610000Y1590000D01*
X2590000Y1600000D01*
X2570000Y1590000D01*
X1745000Y1790000D02*
Y1780000D01*
X1765000D01*
Y1790000D01*
X1775000D01*
Y1810000D01*
X1765000D01*
Y1820000D01*
X1745000D01*
Y1810000D01*
X1735000D01*
Y1790000D01*
X1745000D01*
X2503826Y2360566D02*
X2513826Y2380566D01*
X2503826Y2400566D01*
X2523826Y2390566D01*
X2543826Y2400566D01*
X2533826Y2380566D01*
X2543826Y2360566D01*
X2523826Y2370566D01*
X2503826Y2360566D01*
X2275000Y2395000D02*
X2285000Y2415000D01*
X2275000Y2435000D01*
X2295000Y2425000D01*
X2315000Y2435000D01*
X2305000Y2415000D01*
X2315000Y2395000D01*
X2295000Y2405000D01*
X2275000Y2395000D01*
X2503826Y2295566D02*
X2513826Y2315566D01*
X2503826Y2335566D01*
X2523826Y2325566D01*
X2543826Y2335566D01*
X2533826Y2315566D01*
X2543826Y2295566D01*
X2523826Y2305566D01*
X2503826Y2295566D01*
X2275000Y2330000D02*
X2285000Y2350000D01*
X2275000Y2370000D01*
X2295000Y2360000D01*
X2315000Y2370000D01*
X2305000Y2350000D01*
X2315000Y2330000D01*
X2295000Y2340000D01*
X2275000Y2330000D01*
X2265000Y2105000D02*
X2275000Y2125000D01*
X2265000Y2145000D01*
X2285000Y2135000D01*
X2305000Y2145000D01*
X2295000Y2125000D01*
X2305000Y2105000D01*
X2285000Y2115000D01*
X2265000Y2105000D01*
X2980000Y875000D02*
Y865000D01*
X3000000D01*
Y875000D01*
X3010000D01*
Y895000D01*
X3000000D01*
Y905000D01*
X2980000D01*
Y895000D01*
X2970000D01*
Y875000D01*
X2980000D01*
X2930000Y580000D02*
X2940000Y600000D01*
X2930000Y620000D01*
X2950000Y610000D01*
X2970000Y620000D01*
X2960000Y600000D01*
X2970000Y580000D01*
X2950000Y590000D01*
X2930000Y580000D01*
X2730000Y1015000D02*
X2740000Y1035000D01*
X2730000Y1055000D01*
X2750000Y1045000D01*
X2770000Y1055000D01*
X2760000Y1035000D01*
X2770000Y1015000D01*
X2750000Y1025000D01*
X2730000Y1015000D01*
X2800000Y1055000D02*
X2810000Y1075000D01*
X2800000Y1095000D01*
X2820000Y1085000D01*
X2840000Y1095000D01*
X2830000Y1075000D01*
X2840000Y1055000D01*
X2820000Y1065000D01*
X2800000Y1055000D01*
X3090000Y2490000D02*
X3100000Y2510000D01*
X3090000Y2530000D01*
X3110000Y2520000D01*
X3130000Y2530000D01*
X3120000Y2510000D01*
X3130000Y2490000D01*
X3110000Y2500000D01*
X3090000Y2490000D01*
Y2250000D02*
X3100000Y2270000D01*
X3090000Y2290000D01*
X3110000Y2280000D01*
X3130000Y2290000D01*
X3120000Y2270000D01*
X3130000Y2250000D01*
X3110000Y2260000D01*
X3090000Y2250000D01*
X2590000Y410000D02*
X2600000Y430000D01*
X2590000Y450000D01*
X2610000Y440000D01*
X2630000Y450000D01*
X2620000Y430000D01*
X2630000Y410000D01*
X2610000Y420000D01*
X2590000Y410000D01*
X3125000Y480000D02*
Y470000D01*
X3145000D01*
Y480000D01*
X3155000D01*
Y500000D01*
X3145000D01*
Y510000D01*
X3125000D01*
Y500000D01*
X3115000D01*
Y480000D01*
X3125000D01*
X2955000Y295000D02*
Y285000D01*
X2975000D01*
Y295000D01*
X2985000D01*
Y315000D01*
X2975000D01*
Y325000D01*
X2955000D01*
Y315000D01*
X2945000D01*
Y295000D01*
X2955000D01*
X2400000Y260000D02*
X2410000Y280000D01*
X2400000Y300000D01*
X2420000Y290000D01*
X2440000Y300000D01*
X2430000Y280000D01*
X2440000Y260000D01*
X2420000Y270000D01*
X2400000Y260000D01*
X2990000Y230000D02*
Y220000D01*
X3010000D01*
Y230000D01*
X3020000D01*
Y250000D01*
X3010000D01*
Y260000D01*
X2990000D01*
Y250000D01*
X2980000D01*
Y230000D01*
X2990000D01*
X3090000Y2730000D02*
X3100000Y2750000D01*
X3090000Y2770000D01*
X3110000Y2760000D01*
X3130000Y2770000D01*
X3120000Y2750000D01*
X3130000Y2730000D01*
X3110000Y2740000D01*
X3090000Y2730000D01*
X3315000Y2580000D02*
X3325000Y2600000D01*
X3315000Y2620000D01*
X3335000Y2610000D01*
X3355000Y2620000D01*
X3345000Y2600000D01*
X3355000Y2580000D01*
X3335000Y2590000D01*
X3315000Y2580000D01*
Y2340000D02*
X3325000Y2360000D01*
X3315000Y2380000D01*
X3335000Y2370000D01*
X3355000Y2380000D01*
X3345000Y2360000D01*
X3355000Y2340000D01*
X3335000Y2350000D01*
X3315000Y2340000D01*
X2695000Y1565000D02*
X2705000Y1585000D01*
X2695000Y1605000D01*
X2715000Y1595000D01*
X2735000Y1605000D01*
X2725000Y1585000D01*
X2735000Y1565000D01*
X2715000Y1575000D01*
X2695000Y1565000D01*
Y1465000D02*
X2705000Y1485000D01*
X2695000Y1505000D01*
X2715000Y1495000D01*
X2735000Y1505000D01*
X2725000Y1485000D01*
X2735000Y1465000D01*
X2715000Y1475000D01*
X2695000Y1465000D01*
Y1365000D02*
X2705000Y1385000D01*
X2695000Y1405000D01*
X2715000Y1395000D01*
X2735000Y1405000D01*
X2725000Y1385000D01*
X2735000Y1365000D01*
X2715000Y1375000D01*
X2695000Y1365000D01*
X1865000Y1280000D02*
X1875000Y1300000D01*
X1865000Y1320000D01*
X1885000Y1310000D01*
X1905000Y1320000D01*
X1895000Y1300000D01*
X1905000Y1280000D01*
X1885000Y1290000D01*
X1865000Y1280000D01*
Y1365000D02*
X1875000Y1385000D01*
X1865000Y1405000D01*
X1885000Y1395000D01*
X1905000Y1405000D01*
X1895000Y1385000D01*
X1905000Y1365000D01*
X1885000Y1375000D01*
X1865000Y1365000D01*
X1875000Y1655000D02*
X1885000Y1675000D01*
X1875000Y1695000D01*
X1895000Y1685000D01*
X1915000Y1695000D01*
X1905000Y1675000D01*
X1915000Y1655000D01*
X1895000Y1665000D01*
X1875000Y1655000D01*
X1960000D02*
X1970000Y1675000D01*
X1960000Y1695000D01*
X1980000Y1685000D01*
X2000000Y1695000D01*
X1990000Y1675000D01*
X2000000Y1655000D01*
X1980000Y1665000D01*
X1960000Y1655000D01*
X2375000Y1130000D02*
X2385000Y1150000D01*
X2375000Y1170000D01*
X2395000Y1160000D01*
X2415000Y1170000D01*
X2405000Y1150000D01*
X2415000Y1130000D01*
X2395000Y1140000D01*
X2375000Y1130000D01*
X2467500Y4835000D02*
X2477500Y4855000D01*
X2467500Y4875000D01*
X2487500Y4865000D01*
X2507500Y4875000D01*
X2497500Y4855000D01*
X2507500Y4835000D01*
X2487500Y4845000D01*
X2467500Y4835000D01*
X2275000Y5450000D02*
X2285000Y5470000D01*
X2275000Y5490000D01*
X2295000Y5480000D01*
X2315000Y5490000D01*
X2305000Y5470000D01*
X2315000Y5450000D01*
X2295000Y5460000D01*
X2275000Y5450000D01*
X2503826Y5350566D02*
X2513826Y5370566D01*
X2503826Y5390566D01*
X2523826Y5380566D01*
X2543826Y5390566D01*
X2533826Y5370566D01*
X2543826Y5350566D01*
X2523826Y5360566D01*
X2503826Y5350566D01*
X2275000Y5385000D02*
X2285000Y5405000D01*
X2275000Y5425000D01*
X2295000Y5415000D01*
X2315000Y5425000D01*
X2305000Y5405000D01*
X2315000Y5385000D01*
X2295000Y5395000D01*
X2275000Y5385000D01*
X2990000Y3285000D02*
Y3275000D01*
X3010000D01*
Y3285000D01*
X3020000D01*
Y3305000D01*
X3010000D01*
Y3315000D01*
X2990000D01*
Y3305000D01*
X2980000D01*
Y3285000D01*
X2990000D01*
X2730000Y4070000D02*
X2740000Y4090000D01*
X2730000Y4110000D01*
X2750000Y4100000D01*
X2770000Y4110000D01*
X2760000Y4090000D01*
X2770000Y4070000D01*
X2750000Y4080000D01*
X2730000Y4070000D01*
X2980000Y3930000D02*
Y3920000D01*
X3000000D01*
Y3930000D01*
X3010000D01*
Y3950000D01*
X3000000D01*
Y3960000D01*
X2980000D01*
Y3950000D01*
X2970000D01*
Y3930000D01*
X2980000D01*
X3935000Y3540000D02*
Y3530000D01*
X3955000D01*
Y3540000D01*
X3965000D01*
Y3560000D01*
X3955000D01*
Y3570000D01*
X3935000D01*
Y3560000D01*
X3925000D01*
Y3540000D01*
X3935000D01*
X2570000Y4645000D02*
X2580000Y4665000D01*
X2570000Y4685000D01*
X2590000Y4675000D01*
X2610000Y4685000D01*
X2600000Y4665000D01*
X2610000Y4645000D01*
X2590000Y4655000D01*
X2570000Y4645000D01*
X2590000Y3465000D02*
X2600000Y3485000D01*
X2590000Y3505000D01*
X2610000Y3495000D01*
X2630000Y3505000D01*
X2620000Y3485000D01*
X2630000Y3465000D01*
X2610000Y3475000D01*
X2590000Y3465000D01*
X2475000Y5695000D02*
X2485000Y5715000D01*
X2475000Y5735000D01*
X2495000Y5725000D01*
X2515000Y5735000D01*
X2505000Y5715000D01*
X2515000Y5695000D01*
X2495000Y5705000D01*
X2475000Y5695000D01*
X2775000Y5705000D02*
X2785000Y5725000D01*
X2775000Y5745000D01*
X2795000Y5735000D01*
X2815000Y5745000D01*
X2805000Y5725000D01*
X2815000Y5705000D01*
X2795000Y5715000D01*
X2775000Y5705000D01*
X2695000Y4420000D02*
X2705000Y4440000D01*
X2695000Y4460000D01*
X2715000Y4450000D01*
X2735000Y4460000D01*
X2725000Y4440000D01*
X2735000Y4420000D01*
X2715000Y4430000D01*
X2695000Y4420000D01*
Y4520000D02*
X2705000Y4540000D01*
X2695000Y4560000D01*
X2715000Y4550000D01*
X2735000Y4560000D01*
X2725000Y4540000D01*
X2735000Y4520000D01*
X2715000Y4530000D01*
X2695000Y4520000D01*
Y4620000D02*
X2705000Y4640000D01*
X2695000Y4660000D01*
X2715000Y4650000D01*
X2735000Y4660000D01*
X2725000Y4640000D01*
X2735000Y4620000D01*
X2715000Y4630000D01*
X2695000Y4620000D01*
X2520738Y4793430D02*
X2530738Y4813430D01*
X2520738Y4833430D01*
X2540738Y4823430D01*
X2560738Y4833430D01*
X2550738Y4813430D01*
X2560738Y4793430D01*
X2540738Y4803430D01*
X2520738Y4793430D01*
X2265000Y5160000D02*
X2275000Y5180000D01*
X2265000Y5200000D01*
X2285000Y5190000D01*
X2305000Y5200000D01*
X2295000Y5180000D01*
X2305000Y5160000D01*
X2285000Y5170000D01*
X2265000Y5160000D01*
X4600000Y1665000D02*
X4610000Y1685000D01*
X4600000Y1705000D01*
X4620000Y1695000D01*
X4640000Y1705000D01*
X4630000Y1685000D01*
X4640000Y1665000D01*
X4620000Y1675000D01*
X4600000Y1665000D01*
X4780000Y3450000D02*
X4790000Y3470000D01*
X4780000Y3490000D01*
X4800000Y3480000D01*
X4820000Y3490000D01*
X4810000Y3470000D01*
X4820000Y3450000D01*
X4800000Y3460000D01*
X4780000Y3450000D01*
X1865000Y1450000D02*
X1875000Y1470000D01*
X1865000Y1490000D01*
X1885000Y1480000D01*
X1905000Y1490000D01*
X1895000Y1470000D01*
X1905000Y1450000D01*
X1885000Y1460000D01*
X1865000Y1450000D01*
X3240000Y2665000D02*
X3250000Y2685000D01*
X3240000Y2705000D01*
X3260000Y2695000D01*
X3280000Y2705000D01*
X3270000Y2685000D01*
X3280000Y2665000D01*
X3260000Y2675000D01*
X3240000Y2665000D01*
Y2425000D02*
X3250000Y2445000D01*
X3240000Y2465000D01*
X3260000Y2455000D01*
X3280000Y2465000D01*
X3270000Y2445000D01*
X3280000Y2425000D01*
X3260000Y2435000D01*
X3240000Y2425000D01*
X1940000Y1195000D02*
X1950000Y1215000D01*
X1940000Y1235000D01*
X1960000Y1225000D01*
X1980000Y1235000D01*
X1970000Y1215000D01*
X1980000Y1195000D01*
X1960000Y1205000D01*
X1940000Y1195000D01*
X3725000Y1390000D02*
Y1380000D01*
X3745000D01*
Y1390000D01*
X3755000D01*
Y1410000D01*
X3745000D01*
Y1420000D01*
X3725000D01*
Y1410000D01*
X3715000D01*
Y1390000D01*
X3725000D01*
X2375000Y4185000D02*
X2385000Y4205000D01*
X2375000Y4225000D01*
X2395000Y4215000D01*
X2415000Y4225000D01*
X2405000Y4205000D01*
X2415000Y4185000D01*
X2395000Y4195000D01*
X2375000Y4185000D01*
X2015000Y4250000D02*
X2025000Y4270000D01*
X2015000Y4290000D01*
X2035000Y4280000D01*
X2055000Y4290000D01*
X2045000Y4270000D01*
X2055000Y4250000D01*
X2035000Y4260000D01*
X2015000Y4250000D01*
X1865000Y4335000D02*
X1875000Y4355000D01*
X1865000Y4375000D01*
X1885000Y4365000D01*
X1905000Y4375000D01*
X1895000Y4355000D01*
X1905000Y4335000D01*
X1885000Y4345000D01*
X1865000Y4335000D01*
Y4420000D02*
X1875000Y4440000D01*
X1865000Y4460000D01*
X1885000Y4450000D01*
X1905000Y4460000D01*
X1895000Y4440000D01*
X1905000Y4420000D01*
X1885000Y4430000D01*
X1865000Y4420000D01*
X1810000Y3945000D02*
Y3935000D01*
X1830000D01*
Y3945000D01*
X1840000D01*
Y3965000D01*
X1830000D01*
Y3975000D01*
X1810000D01*
Y3965000D01*
X1800000D01*
Y3945000D01*
X1810000D01*
X3315000Y5395000D02*
X3325000Y5415000D01*
X3315000Y5435000D01*
X3335000Y5425000D01*
X3355000Y5435000D01*
X3345000Y5415000D01*
X3355000Y5395000D01*
X3335000Y5405000D01*
X3315000Y5395000D01*
Y5635000D02*
X3325000Y5655000D01*
X3315000Y5675000D01*
X3335000Y5665000D01*
X3355000Y5675000D01*
X3345000Y5655000D01*
X3355000Y5635000D01*
X3335000Y5645000D01*
X3315000Y5635000D01*
Y5875000D02*
X3325000Y5895000D01*
X3315000Y5915000D01*
X3335000Y5905000D01*
X3355000Y5915000D01*
X3345000Y5895000D01*
X3355000Y5875000D01*
X3335000Y5885000D01*
X3315000Y5875000D01*
X3900000Y5075000D02*
X3910000Y5095000D01*
X3900000Y5115000D01*
X3920000Y5105000D01*
X3940000Y5115000D01*
X3930000Y5095000D01*
X3940000Y5075000D01*
X3920000Y5085000D01*
X3900000Y5075000D01*
X2800000Y4110000D02*
X2810000Y4130000D01*
X2800000Y4150000D01*
X2820000Y4140000D01*
X2840000Y4150000D01*
X2830000Y4130000D01*
X2840000Y4110000D01*
X2820000Y4120000D01*
X2800000Y4110000D01*
X2486542Y4600758D02*
X2496542Y4620758D01*
X2486542Y4640758D01*
X2506542Y4630758D01*
X2526542Y4640758D01*
X2516542Y4620758D01*
X2526542Y4600758D01*
X2506542Y4610758D01*
X2486542Y4600758D01*
X2570000Y3330000D02*
X2580000Y3350000D01*
X2570000Y3370000D01*
X2590000Y3360000D01*
X2610000Y3370000D01*
X2600000Y3350000D01*
X2610000Y3330000D01*
X2590000Y3340000D01*
X2570000Y3330000D01*
X3090000Y5785000D02*
X3100000Y5805000D01*
X3090000Y5825000D01*
X3110000Y5815000D01*
X3130000Y5825000D01*
X3120000Y5805000D01*
X3130000Y5785000D01*
X3110000Y5795000D01*
X3090000Y5785000D01*
Y5545000D02*
X3100000Y5565000D01*
X3090000Y5585000D01*
X3110000Y5575000D01*
X3130000Y5585000D01*
X3120000Y5565000D01*
X3130000Y5545000D01*
X3110000Y5555000D01*
X3090000Y5545000D01*
X3240000Y5720000D02*
X3250000Y5740000D01*
X3240000Y5760000D01*
X3260000Y5750000D01*
X3280000Y5760000D01*
X3270000Y5740000D01*
X3280000Y5720000D01*
X3260000Y5730000D01*
X3240000Y5720000D01*
X2710000Y5715000D02*
Y5705000D01*
X2730000D01*
Y5715000D01*
X2740000D01*
Y5735000D01*
X2730000D01*
Y5745000D01*
X2710000D01*
Y5735000D01*
X2700000D01*
Y5715000D01*
X2710000D01*
X3240000Y5480000D02*
X3250000Y5500000D01*
X3240000Y5520000D01*
X3260000Y5510000D01*
X3280000Y5520000D01*
X3270000Y5500000D01*
X3280000Y5480000D01*
X3260000Y5490000D01*
X3240000Y5480000D01*
X3090000Y5305000D02*
X3100000Y5325000D01*
X3090000Y5345000D01*
X3110000Y5335000D01*
X3130000Y5345000D01*
X3120000Y5325000D01*
X3130000Y5305000D01*
X3110000Y5315000D01*
X3090000Y5305000D01*
Y6025000D02*
X3100000Y6045000D01*
X3090000Y6065000D01*
X3110000Y6055000D01*
X3130000Y6065000D01*
X3120000Y6045000D01*
X3130000Y6025000D01*
X3110000Y6035000D01*
X3090000Y6025000D01*
X3240000Y5960000D02*
X3250000Y5980000D01*
X3240000Y6000000D01*
X3260000Y5990000D01*
X3280000Y6000000D01*
X3270000Y5980000D01*
X3280000Y5960000D01*
X3260000Y5970000D01*
X3240000Y5960000D01*
X3725000Y4445000D02*
Y4435000D01*
X3745000D01*
Y4445000D01*
X3755000D01*
Y4465000D01*
X3745000D01*
Y4475000D01*
X3725000D01*
Y4465000D01*
X3715000D01*
Y4445000D01*
X3725000D01*
X3729134Y4299598D02*
X3739134Y4319598D01*
X3729134Y4339598D01*
X3749134Y4329598D01*
X3769134Y4339598D01*
X3759134Y4319598D01*
X3769134Y4299598D01*
X3749134Y4309598D01*
X3729134Y4299598D01*
X3870000Y4570000D02*
X3880000Y4590000D01*
X3870000Y4610000D01*
X3890000Y4600000D01*
X3910000Y4610000D01*
X3900000Y4590000D01*
X3910000Y4570000D01*
X3890000Y4580000D01*
X3870000Y4570000D01*
X3715000Y5125000D02*
Y5115000D01*
X3735000D01*
Y5125000D01*
X3745000D01*
Y5145000D01*
X3735000D01*
Y5155000D01*
X3715000D01*
Y5145000D01*
X3705000D01*
Y5125000D01*
X3715000D01*
X1865000Y4505000D02*
X1875000Y4525000D01*
X1865000Y4545000D01*
X1885000Y4535000D01*
X1905000Y4545000D01*
X1895000Y4525000D01*
X1905000Y4505000D01*
X1885000Y4515000D01*
X1865000Y4505000D01*
X1940000Y4250000D02*
X1950000Y4270000D01*
X1940000Y4290000D01*
X1960000Y4280000D01*
X1980000Y4290000D01*
X1970000Y4270000D01*
X1980000Y4250000D01*
X1960000Y4260000D01*
X1940000Y4250000D01*
X1745000Y4270000D02*
Y4260000D01*
X1765000D01*
Y4270000D01*
X1775000D01*
Y4290000D01*
X1765000D01*
Y4300000D01*
X1745000D01*
Y4290000D01*
X1735000D01*
Y4270000D01*
X1745000D01*
D77*
X3565000Y5200000D02*
G03*
X3565000Y5200000I-20000J0D01*
G01*
X3365000D02*
G03*
X3365000Y5200000I-20000J0D01*
G01*
X3565000Y5000000D02*
G03*
X3565000Y5000000I-20000J0D01*
G01*
X3365000Y4700000D02*
G03*
X3365000Y4700000I-20000J0D01*
G01*
Y5000000D02*
G03*
X3365000Y5000000I-20000J0D01*
G01*
X3565000Y4500000D02*
G03*
X3565000Y4500000I-20000J0D01*
G01*
Y4700000D02*
G03*
X3565000Y4700000I-20000J0D01*
G01*
X3570000Y4200000D02*
G03*
X3570000Y4200000I-20000J0D01*
G01*
X3370000D02*
G03*
X3370000Y4200000I-20000J0D01*
G01*
X3365000Y4500000D02*
G03*
X3365000Y4500000I-20000J0D01*
G01*
X3570000Y4000000D02*
G03*
X3570000Y4000000I-20000J0D01*
G01*
X3370000D02*
G03*
X3370000Y4000000I-20000J0D01*
G01*
X2865000Y5200000D02*
G03*
X2865000Y5200000I-20000J0D01*
G01*
X2310000Y5665000D02*
G03*
X2310000Y5665000I-20000J0D01*
G01*
Y5865000D02*
G03*
X2310000Y5865000I-20000J0D01*
G01*
X3065000Y5200000D02*
G03*
X3065000Y5200000I-20000J0D01*
G01*
Y5000000D02*
G03*
X3065000Y5000000I-20000J0D01*
G01*
X2865000D02*
G03*
X2865000Y5000000I-20000J0D01*
G01*
X2145000Y5165000D02*
G03*
X2145000Y5165000I-20000J0D01*
G01*
Y5365000D02*
G03*
X2145000Y5365000I-20000J0D01*
G01*
X2485000Y3620000D02*
G03*
X2485000Y3620000I-20000J0D01*
G01*
Y3820000D02*
G03*
X2485000Y3820000I-20000J0D01*
G01*
X2285000Y3620000D02*
G03*
X2285000Y3620000I-20000J0D01*
G01*
Y3820000D02*
G03*
X2285000Y3820000I-20000J0D01*
G01*
X3565000Y1645000D02*
G03*
X3565000Y1645000I-20000J0D01*
G01*
Y1945000D02*
G03*
X3565000Y1945000I-20000J0D01*
G01*
X3570000Y1145000D02*
G03*
X3570000Y1145000I-20000J0D01*
G01*
Y945000D02*
G03*
X3570000Y945000I-20000J0D01*
G01*
X3565000Y2145000D02*
G03*
X3565000Y2145000I-20000J0D01*
G01*
X3365000Y1645000D02*
G03*
X3365000Y1645000I-20000J0D01*
G01*
Y1945000D02*
G03*
X3365000Y1945000I-20000J0D01*
G01*
X3565000Y1445000D02*
G03*
X3565000Y1445000I-20000J0D01*
G01*
X3370000Y1145000D02*
G03*
X3370000Y1145000I-20000J0D01*
G01*
X3365000Y1445000D02*
G03*
X3365000Y1445000I-20000J0D01*
G01*
Y2145000D02*
G03*
X3365000Y2145000I-20000J0D01*
G01*
X3370000Y945000D02*
G03*
X3370000Y945000I-20000J0D01*
G01*
X2865000Y2145000D02*
G03*
X2865000Y2145000I-20000J0D01*
G01*
X2310000Y2610000D02*
G03*
X2310000Y2610000I-20000J0D01*
G01*
Y2810000D02*
G03*
X2310000Y2810000I-20000J0D01*
G01*
X3065000Y2145000D02*
G03*
X3065000Y2145000I-20000J0D01*
G01*
Y1945000D02*
G03*
X3065000Y1945000I-20000J0D01*
G01*
X2865000D02*
G03*
X2865000Y1945000I-20000J0D01*
G01*
X2145000Y2110000D02*
G03*
X2145000Y2110000I-20000J0D01*
G01*
Y2310000D02*
G03*
X2145000Y2310000I-20000J0D01*
G01*
X2485000Y565000D02*
G03*
X2485000Y565000I-20000J0D01*
G01*
Y765000D02*
G03*
X2485000Y765000I-20000J0D01*
G01*
X2285000Y565000D02*
G03*
X2285000Y565000I-20000J0D01*
G01*
Y765000D02*
G03*
X2285000Y765000I-20000J0D01*
G01*
X2110000Y5865000D02*
G03*
X2110000Y5865000I-20000J0D01*
G01*
Y5665000D02*
G03*
X2110000Y5665000I-20000J0D01*
G01*
X1945000Y5165000D02*
G03*
X1945000Y5165000I-20000J0D01*
G01*
Y5365000D02*
G03*
X1945000Y5365000I-20000J0D01*
G01*
X2110000Y2810000D02*
G03*
X2110000Y2810000I-20000J0D01*
G01*
Y2610000D02*
G03*
X2110000Y2610000I-20000J0D01*
G01*
X1985000Y3820000D02*
G03*
X1985000Y3820000I-20000J0D01*
G01*
Y3620000D02*
G03*
X1985000Y3620000I-20000J0D01*
G01*
X1945000Y2110000D02*
G03*
X1945000Y2110000I-20000J0D01*
G01*
Y2310000D02*
G03*
X1945000Y2310000I-20000J0D01*
G01*
X1785000Y3620000D02*
G03*
X1785000Y3620000I-20000J0D01*
G01*
Y3820000D02*
G03*
X1785000Y3820000I-20000J0D01*
G01*
X1985000Y765000D02*
G03*
X1985000Y765000I-20000J0D01*
G01*
Y565000D02*
G03*
X1985000Y565000I-20000J0D01*
G01*
X1785000D02*
G03*
X1785000Y565000I-20000J0D01*
G01*
Y765000D02*
G03*
X1785000Y765000I-20000J0D01*
G01*
M02*
