%TF.GenerationSoftware,Altium Limited,Altium Designer,23.1.1 (15)*%
G04 Layer_Color=65535*
%FSLAX45Y45*%
%MOMM*%
%TF.SameCoordinates,0F2ED6FA-663B-4D60-9F9C-34395667DD86*%
%TF.FilePolarity,Positive*%
%TF.FileFunction,Legend,Top*%
%TF.Part,Single*%
G01*
G75*
%TA.AperFunction,NonConductor*%
%ADD53C,0.25000*%
%ADD54C,0.25400*%
%ADD55C,0.20000*%
%ADD56C,0.15240*%
D53*
X11251100Y17403500D02*
G03*
X11251100Y17403500I-12500J0D01*
G01*
X5864600Y3270300D02*
G03*
X5864600Y3270300I-12500J0D01*
G01*
Y11030000D02*
G03*
X5864600Y11030000I-12500J0D01*
G01*
X12672200Y6525600D02*
G03*
X12672200Y6525600I-12500J0D01*
G01*
X1564100Y6682400D02*
G03*
X1564100Y6682400I-12500J0D01*
G01*
X12672200Y8633800D02*
G03*
X12672200Y8633800I-12500J0D01*
G01*
Y7579700D02*
G03*
X12672200Y7579700I-12500J0D01*
G01*
X1564100Y8803300D02*
G03*
X1564100Y8803300I-12500J0D01*
G01*
Y7749200D02*
G03*
X1564100Y7749200I-12500J0D01*
G01*
D54*
X11493500Y5930900D02*
X13703300D01*
X11493500Y9652000D02*
X13703300D01*
Y5930900D02*
Y9652000D01*
X11493500Y5930900D02*
Y9652000D01*
X495300Y5715000D02*
X2705100D01*
X495300Y9436100D02*
X2705100D01*
Y5715000D02*
Y9436100D01*
X495300Y5715000D02*
Y9436100D01*
X8077200Y16014700D02*
X10109200D01*
X8077200Y16268700D02*
X10109200D01*
Y16014700D02*
Y16268700D01*
X8077200Y16014700D02*
Y16268700D01*
X7569200Y20840700D02*
X9601200D01*
X7569200Y21094701D02*
X9601200D01*
Y20840700D02*
Y21094701D01*
X7569200Y20840700D02*
Y21094701D01*
X5791200Y16014700D02*
X7823200D01*
X5791200Y16268700D02*
X7823200D01*
Y16014700D02*
Y16268700D01*
X5791200Y16014700D02*
Y16268700D01*
X5283200Y20840700D02*
X7315200D01*
X5283200Y21094701D02*
X7315200D01*
Y20840700D02*
Y21094701D01*
X5283200Y20840700D02*
Y21094701D01*
X3505200Y16014700D02*
X5537200D01*
X3505200Y16268700D02*
X5537200D01*
Y16014700D02*
Y16268700D01*
X3505200Y16014700D02*
Y16268700D01*
X2590800Y20840700D02*
X5130800D01*
X2590800Y21094701D02*
X5130800D01*
Y20840700D02*
Y21094701D01*
X2590800Y20840700D02*
Y21094701D01*
X10109200Y16523701D02*
Y21095702D01*
X10617200Y16523701D02*
Y21095702D01*
X10109200D02*
X10617200D01*
X10109200Y16523701D02*
X10617200D01*
X889000Y8487877D02*
X821288D01*
X787433Y8521733D01*
X821288Y8555589D01*
X889000D01*
X838216D01*
Y8487877D01*
X787433Y8640228D02*
Y8606372D01*
X804360Y8589445D01*
X872072D01*
X889000Y8606372D01*
Y8640228D01*
X872072Y8657156D01*
X804360D01*
X787433Y8640228D01*
X889000Y8691012D02*
X787433D01*
X889000Y8758723D01*
X787433D01*
X13322301Y8991542D02*
X13423866D01*
X13390012Y8957687D01*
X13423866Y8923831D01*
X13322301D01*
Y8889975D02*
X13390012D01*
X13423866Y8856119D01*
X13390012Y8822264D01*
X13322301D01*
X13373083D01*
Y8889975D01*
X13423866Y8788408D02*
Y8754552D01*
Y8771480D01*
X13322301D01*
Y8788408D01*
Y8754552D01*
Y8703768D02*
X13423866D01*
X13322301Y8636057D01*
X13423866D01*
X787433Y7382994D02*
Y7450705D01*
Y7416849D01*
X889000D01*
X787433Y7552272D02*
Y7484561D01*
X889000D01*
Y7552272D01*
X838217Y7484561D02*
Y7518417D01*
X804361Y7653839D02*
X787433Y7636912D01*
Y7603056D01*
X804361Y7586128D01*
X821289D01*
X838217Y7603056D01*
Y7636912D01*
X855144Y7653839D01*
X872072D01*
X889000Y7636912D01*
Y7603056D01*
X872072Y7586128D01*
X787433Y7687695D02*
Y7755407D01*
Y7721551D01*
X889000D01*
X804361Y6341585D02*
X787433Y6324657D01*
Y6290802D01*
X804361Y6273874D01*
X821289D01*
X838217Y6290802D01*
Y6324657D01*
X855144Y6341585D01*
X872072D01*
X889000Y6324657D01*
Y6290802D01*
X872072Y6273874D01*
X787433Y6375441D02*
X889000D01*
X838217D01*
Y6443152D01*
X787433D01*
X889000D01*
X787433Y6477008D02*
Y6510864D01*
Y6493936D01*
X889000D01*
Y6477008D01*
Y6510864D01*
X787433Y6629359D02*
Y6561648D01*
X838217D01*
Y6595503D01*
Y6561648D01*
X889000D01*
X787433Y6663215D02*
Y6730926D01*
Y6697071D01*
X889000D01*
X1854200Y10032975D02*
Y9931408D01*
X1904983Y9880625D01*
X1955767Y9931408D01*
Y10032975D01*
X2006551D02*
Y9880625D01*
X2082726D01*
X2108118Y9906017D01*
Y10007583D01*
X2082726Y10032975D01*
X2006551D01*
X2158901D02*
Y9880625D01*
X2235077D01*
X2260469Y9906017D01*
Y10007583D01*
X2235077Y10032975D01*
X2158901D01*
X2311252D02*
Y9880625D01*
Y9956800D01*
X2412819D01*
Y10032975D01*
Y9880625D01*
X2463603Y10032975D02*
Y9931408D01*
X2514386Y9880625D01*
X2565170Y9931408D01*
Y10032975D01*
X1854200Y9753583D02*
X1879592Y9778975D01*
X1930375D01*
X1955767Y9753583D01*
Y9728192D01*
X1930375Y9702800D01*
X1904983D01*
X1930375D01*
X1955767Y9677408D01*
Y9652017D01*
X1930375Y9626625D01*
X1879592D01*
X1854200Y9652017D01*
X2006551Y9753583D02*
X2031943Y9778975D01*
X2082726D01*
X2108118Y9753583D01*
Y9728192D01*
X2082726Y9702800D01*
X2057334D01*
X2082726D01*
X2108118Y9677408D01*
Y9652017D01*
X2082726Y9626625D01*
X2031943D01*
X2006551Y9652017D01*
X2158901Y9626625D02*
Y9778975D01*
X2235077D01*
X2260469Y9753583D01*
Y9702800D01*
X2235077Y9677408D01*
X2158901D01*
X2412819Y9753583D02*
X2387428Y9778975D01*
X2336644D01*
X2311252Y9753583D01*
Y9728192D01*
X2336644Y9702800D01*
X2387428D01*
X2412819Y9677408D01*
Y9652017D01*
X2387428Y9626625D01*
X2336644D01*
X2311252Y9652017D01*
X2463603Y9778975D02*
Y9652017D01*
X2488995Y9626625D01*
X2539778D01*
X2565170Y9652017D01*
Y9778975D01*
X13423866Y7086477D02*
X13322301D01*
Y7035693D01*
X13339227Y7018765D01*
X13406940D01*
X13423866Y7035693D01*
Y7086477D01*
Y6984910D02*
Y6951054D01*
Y6967982D01*
X13322301D01*
Y6984910D01*
Y6951054D01*
X13406940Y6832559D02*
X13423866Y6849487D01*
Y6883342D01*
X13406940Y6900270D01*
X13390012D01*
X13373083Y6883342D01*
Y6849487D01*
X13356155Y6832559D01*
X13339227D01*
X13322301Y6849487D01*
Y6883342D01*
X13339227Y6900270D01*
X13406940Y6730992D02*
X13423866Y6747919D01*
Y6781775D01*
X13406940Y6798703D01*
X13339227D01*
X13322301Y6781775D01*
Y6747919D01*
X13339227Y6730992D01*
X13322301Y6697136D02*
X13423866D01*
Y6646352D01*
X13406940Y6629424D01*
X13373083D01*
X13356155Y6646352D01*
Y6697136D01*
Y6663280D02*
X13322301Y6629424D01*
X13423866Y6527857D02*
Y6595568D01*
X13322301D01*
Y6527857D01*
X13373083Y6595568D02*
Y6561713D01*
X13423866Y6494001D02*
Y6426290D01*
Y6460146D01*
X13322301D01*
X13423866Y6324723D02*
Y6392434D01*
X13322301D01*
Y6324723D01*
X13373083Y6392434D02*
Y6358578D01*
X13406940Y7928979D02*
X13423866Y7945907D01*
Y7979762D01*
X13406940Y7996690D01*
X13390012D01*
X13373083Y7979762D01*
Y7945907D01*
X13356155Y7928979D01*
X13339227D01*
X13322301Y7945907D01*
Y7979762D01*
X13339227Y7996690D01*
X13322301Y7895123D02*
X13423866D01*
X13390012Y7861267D01*
X13423866Y7827412D01*
X13322301D01*
Y7793556D02*
X13390012D01*
X13423866Y7759700D01*
X13390012Y7725844D01*
X13322301D01*
X13373083D01*
Y7793556D01*
X13423866Y7691988D02*
X13322301D01*
Y7624277D01*
X13423866Y7590421D02*
X13322301D01*
Y7522710D01*
X2603500Y21285167D02*
Y21208992D01*
X2628892Y21183600D01*
X2705067D01*
Y21285167D01*
X2755851Y21183600D02*
Y21335951D01*
X2832026D01*
X2857418Y21310559D01*
Y21259775D01*
X2832026Y21234383D01*
X2755851D01*
X2908201Y21183600D02*
X2958985D01*
X2933593D01*
Y21335951D01*
X2908201Y21310559D01*
D55*
X11433600Y17458501D02*
Y17463499D01*
Y16953500D02*
Y16958501D01*
Y16953500D02*
X11883600D01*
Y17458501D02*
Y17463499D01*
Y16953500D02*
Y16958501D01*
X11433600Y17463499D02*
X11883600D01*
X11930802Y12518202D02*
X12300798D01*
Y12018198D02*
Y12518202D01*
X11930802Y12018198D02*
X12300798D01*
X11930802D02*
Y12518202D01*
X11748303Y12520701D02*
X11895800D01*
X12143202Y11711402D02*
Y11961404D01*
X12393204Y11711402D02*
Y11961404D01*
X12143202D02*
X12393204D01*
X12143202Y11711402D02*
X12393204D01*
X11838402D02*
Y11961404D01*
X12088404Y11711402D02*
Y11961404D01*
X11838402D02*
X12088404D01*
X11838402Y11711402D02*
X12088404D01*
X3276600Y13068300D02*
X3784600D01*
X3276600Y12306300D02*
X3784600D01*
X3276600D02*
Y13068300D01*
X3784600Y12306300D02*
Y13068300D01*
Y12581468D02*
Y13068300D01*
X3276600Y5308600D02*
X3784600D01*
X3276600Y4546600D02*
X3784600D01*
X3276600D02*
Y5308600D01*
X3784600Y4546600D02*
Y5308600D01*
Y4821768D02*
Y5308600D01*
X5749600Y4085300D02*
X5787100D01*
Y4047800D02*
Y4085300D01*
X4957100D02*
X4994600D01*
X4957100Y4047800D02*
Y4085300D01*
Y3255300D02*
Y3292800D01*
Y3255300D02*
X4994600D01*
X5749600D02*
X5787100D01*
Y3292800D01*
X6228502Y6180902D02*
X6598498D01*
Y5680898D02*
Y6180902D01*
X6228502Y5680898D02*
X6598498D01*
X6228502D02*
Y6180902D01*
X6046003Y6183401D02*
X6193500D01*
X7409602Y2472502D02*
X7779598D01*
Y1972498D02*
Y2472502D01*
X7409602Y1972498D02*
X7779598D01*
X7409602D02*
Y2472502D01*
X7227103Y2475001D02*
X7374600D01*
X7889900Y6728998D02*
X7974899D01*
X8009900Y6504000D02*
Y6704000D01*
Y6504000D02*
X8169900D01*
Y6704000D01*
X8009900D02*
X8169900D01*
X7889900Y6119398D02*
X7974899D01*
X8009900Y5894400D02*
Y6094400D01*
Y5894400D02*
X8169900D01*
Y6094400D01*
X8009900D02*
X8169900D01*
X6957598Y1042101D02*
Y1127100D01*
X6732600Y1007100D02*
X6932600D01*
X6732600Y847100D02*
Y1007100D01*
Y847100D02*
X6932600D01*
Y1007100D01*
X6474998Y661101D02*
Y746100D01*
X6250000Y626100D02*
X6450000D01*
X6250000Y466100D02*
Y626100D01*
Y466100D02*
X6450000D01*
Y626100D01*
X7889900Y7338598D02*
X7974899D01*
X8009900Y7113600D02*
Y7313600D01*
Y7113600D02*
X8169900D01*
Y7313600D01*
X8009900D02*
X8169900D01*
X9680600Y3465098D02*
X9765599D01*
X9800600Y3240100D02*
Y3440100D01*
Y3240100D02*
X9960600D01*
Y3440100D01*
X9800600D02*
X9960600D01*
X6440902Y5361402D02*
X6690898D01*
X6440902Y5611404D02*
X6690898D01*
X6440902Y5361402D02*
Y5611404D01*
X6690898Y5361402D02*
Y5611404D01*
X6136102Y5361402D02*
X6386098D01*
X6136102Y5611404D02*
X6386098D01*
X6136102Y5361402D02*
Y5611404D01*
X6386098Y5361402D02*
Y5611404D01*
X5687101Y1564198D02*
Y1814002D01*
X5882198Y1369101D02*
X6132002D01*
X6327099Y1564198D02*
Y1814002D01*
X5882198Y2009099D02*
X6132002D01*
X4823501Y5488498D02*
Y5738302D01*
X5018598Y5293401D02*
X5268402D01*
X5463499Y5488498D02*
Y5738302D01*
X5018598Y5933399D02*
X5268402D01*
X7622002Y1653002D02*
X7871998D01*
X7622002Y1903004D02*
X7871998D01*
X7622002Y1653002D02*
Y1903004D01*
X7871998Y1653002D02*
Y1903004D01*
X7317202Y1653002D02*
X7567198D01*
X7317202Y1903004D02*
X7567198D01*
X7317202Y1653002D02*
Y1903004D01*
X7567198Y1653002D02*
Y1903004D01*
X4417101Y1564198D02*
Y1814002D01*
X4612198Y1369101D02*
X4862002D01*
X5057099Y1564198D02*
Y1814002D01*
X4612198Y2009099D02*
X4862002D01*
X7160301Y5069398D02*
Y5319202D01*
X7355398Y4874301D02*
X7605202D01*
X7800299Y5069398D02*
Y5319202D01*
X7355398Y5514299D02*
X7605202D01*
X5242601Y6758498D02*
Y7008302D01*
X5437698Y6563401D02*
X5687502D01*
X5882599Y6758498D02*
Y7008302D01*
X5437698Y7203399D02*
X5687502D01*
X8430301Y5069398D02*
Y5319202D01*
X8625398Y4874301D02*
X8875202D01*
X9070299Y5069398D02*
Y5319202D01*
X8625398Y5514299D02*
X8875202D01*
X8443001Y2529398D02*
Y2779202D01*
X8638098Y2334301D02*
X8887902D01*
X9082999Y2529398D02*
Y2779202D01*
X8638098Y2974299D02*
X8887902D01*
X8430301Y3799398D02*
Y4049202D01*
X8625398Y3604301D02*
X8875202D01*
X9070299Y3799398D02*
Y4049202D01*
X8625398Y4244299D02*
X8875202D01*
X4345402Y4891502D02*
X4595398D01*
X4345402Y5141504D02*
X4595398D01*
X4345402Y4891502D02*
Y5141504D01*
X4595398Y4891502D02*
Y5141504D01*
X9686102Y1593002D02*
Y1962998D01*
X9186098Y1593002D02*
X9686102D01*
X9186098D02*
Y1962998D01*
X9686102D01*
X9721098Y1998000D02*
Y2145502D01*
X8763000Y774700D02*
Y1028700D01*
X10287000Y774700D02*
Y1028700D01*
X8763000Y774700D02*
X10287000D01*
X8763000Y1028700D02*
X10287000D01*
X6225002Y2669002D02*
X6474998D01*
X6225002Y2919004D02*
X6474998D01*
X6225002Y2669002D02*
Y2919004D01*
X6474998Y2669002D02*
Y2919004D01*
X6923502Y3024602D02*
X7173498D01*
X6923502Y3274604D02*
X7173498D01*
X6923502Y3024602D02*
Y3274604D01*
X7173498Y3024602D02*
Y3274604D01*
X3276600Y3911600D02*
Y4165600D01*
X3784600D01*
Y3911600D02*
Y4165600D01*
X3276600Y3911600D02*
X3784600D01*
Y3606800D02*
Y3860800D01*
X3276600Y3606800D02*
X3784600D01*
X3276600D02*
Y3860800D01*
X3784600D01*
X10909300Y4749800D02*
Y5003800D01*
X10401300Y4749800D02*
X10909300D01*
X10401300D02*
Y5003800D01*
X10909300D01*
X10401300Y4445000D02*
Y4699000D01*
X10909300D01*
Y4445000D02*
Y4699000D01*
X10401300Y4445000D02*
X10909300D01*
Y3911600D02*
Y4165600D01*
X10401300Y3911600D02*
X10909300D01*
X10401300D02*
Y4165600D01*
X10909300D01*
X10401300Y3606800D02*
Y3860800D01*
X10909300D01*
Y3606800D02*
Y3860800D01*
X10401300Y3606800D02*
X10909300D01*
X7173498Y10784302D02*
Y11034304D01*
X6923502Y10784302D02*
Y11034304D01*
X7173498D01*
X6923502Y10784302D02*
X7173498D01*
X4595398Y12651202D02*
Y12901204D01*
X4345402Y12651202D02*
Y12901204D01*
X4595398D01*
X4345402Y12651202D02*
X4595398D01*
X5787100Y11015000D02*
Y11052500D01*
X5749600Y11015000D02*
X5787100D01*
X4957100D02*
X4994600D01*
X4957100D02*
Y11052500D01*
Y11807500D02*
Y11845000D01*
X4994600D01*
X5787100Y11807500D02*
Y11845000D01*
X5749600D02*
X5787100D01*
X10401300Y11925300D02*
X10909300D01*
X10401300Y11671300D02*
Y11925300D01*
Y11671300D02*
X10909300D01*
Y11925300D01*
X10401300Y11366500D02*
X10909300D01*
Y11620500D01*
X10401300D02*
X10909300D01*
X10401300Y11366500D02*
Y11620500D01*
Y12763500D02*
X10909300D01*
X10401300Y12509500D02*
Y12763500D01*
Y12509500D02*
X10909300D01*
Y12763500D01*
X10401300Y12204700D02*
X10909300D01*
Y12458700D01*
X10401300D02*
X10909300D01*
X10401300Y12204700D02*
Y12458700D01*
X3276600Y11671300D02*
X3784600D01*
Y11925300D01*
X3276600D02*
X3784600D01*
X3276600Y11671300D02*
Y11925300D01*
Y11620500D02*
X3784600D01*
X3276600Y11366500D02*
Y11620500D01*
Y11366500D02*
X3784600D01*
Y11620500D01*
X6474998Y10428702D02*
Y10678704D01*
X6225002Y10428702D02*
Y10678704D01*
X6474998D01*
X6225002Y10428702D02*
X6474998D01*
X8763000Y8534400D02*
Y8788400D01*
X10287000Y8534400D02*
Y8788400D01*
X8763000Y8534400D02*
X10287000D01*
X8763000Y8788400D02*
X10287000D01*
X7622002Y9412702D02*
X7871998D01*
X7622002Y9662704D02*
X7871998D01*
X7622002Y9412702D02*
Y9662704D01*
X7871998Y9412702D02*
Y9662704D01*
X7317202Y9412702D02*
X7567198D01*
X7317202Y9662704D02*
X7567198D01*
X7317202Y9412702D02*
Y9662704D01*
X7567198Y9412702D02*
Y9662704D01*
X6440902Y13121101D02*
X6690898D01*
X6440902Y13371104D02*
X6690898D01*
X6440902Y13121101D02*
Y13371104D01*
X6690898Y13121101D02*
Y13371104D01*
X6136102Y13121101D02*
X6386098D01*
X6136102Y13371104D02*
X6386098D01*
X6136102Y13121101D02*
Y13371104D01*
X6386098Y13121101D02*
Y13371104D01*
X8443001Y10289098D02*
Y10538902D01*
X8638098Y10094001D02*
X8887902D01*
X9082999Y10289098D02*
Y10538902D01*
X8638098Y10733999D02*
X8887902D01*
X8430301Y11559098D02*
Y11808902D01*
X8625398Y11364001D02*
X8875202D01*
X9070299Y11559098D02*
Y11808902D01*
X8625398Y12003999D02*
X8875202D01*
X5242601Y14518198D02*
Y14768002D01*
X5437698Y14323100D02*
X5687502D01*
X5882599Y14518198D02*
Y14768002D01*
X5437698Y14963100D02*
X5687502D01*
X8430301Y12829099D02*
Y13078902D01*
X8625398Y12634001D02*
X8875202D01*
X9070299Y12829099D02*
Y13078902D01*
X8625398Y13273999D02*
X8875202D01*
X4417101Y9323898D02*
Y9573702D01*
X4612198Y9128801D02*
X4862002D01*
X5057099Y9323898D02*
Y9573702D01*
X4612198Y9768799D02*
X4862002D01*
X7160301Y12829099D02*
Y13078902D01*
X7355398Y12634001D02*
X7605202D01*
X7800299Y12829099D02*
Y13078902D01*
X7355398Y13273999D02*
X7605202D01*
X5687101Y9323898D02*
Y9573702D01*
X5882198Y9128801D02*
X6132002D01*
X6327099Y9323898D02*
Y9573702D01*
X5882198Y9768799D02*
X6132002D01*
X4823501Y13248198D02*
Y13498003D01*
X5018598Y13053101D02*
X5268402D01*
X5463499Y13248198D02*
Y13498003D01*
X5018598Y13693098D02*
X5268402D01*
X9680600Y11224798D02*
X9765599D01*
X9800600Y10999800D02*
Y11199800D01*
Y10999800D02*
X9960600D01*
Y11199800D01*
X9800600D02*
X9960600D01*
X8009900Y15073300D02*
X8169900D01*
Y14873300D02*
Y15073300D01*
X8009900Y14873300D02*
X8169900D01*
X8009900D02*
Y15073300D01*
X7889900Y15098299D02*
X7974899D01*
X6474998Y8420801D02*
Y8505800D01*
X6250000Y8385800D02*
X6450000D01*
X6250000Y8225800D02*
Y8385800D01*
Y8225800D02*
X6450000D01*
Y8385800D01*
X6957598Y8801801D02*
Y8886800D01*
X6732600Y8766800D02*
X6932600D01*
X6732600Y8606800D02*
Y8766800D01*
Y8606800D02*
X6932600D01*
Y8766800D01*
X8009900Y13854100D02*
X8169900D01*
Y13654100D02*
Y13854100D01*
X8009900Y13654100D02*
X8169900D01*
X8009900D02*
Y13854100D01*
X7889900Y13879099D02*
X7974899D01*
X9686102Y9352702D02*
Y9722698D01*
X9186098Y9352702D02*
X9686102D01*
X9186098D02*
Y9722698D01*
X9686102D01*
X9721098Y9757700D02*
Y9905202D01*
X8009900Y14463699D02*
X8169900D01*
Y14263699D02*
Y14463699D01*
X8009900Y14263699D02*
X8169900D01*
X8009900D02*
Y14463699D01*
X7889900Y14488698D02*
X7974899D01*
X7409602Y10232202D02*
X7779598D01*
Y9732198D02*
Y10232202D01*
X7409602Y9732198D02*
X7779598D01*
X7409602D02*
Y10232202D01*
X7227103Y10234701D02*
X7374600D01*
X6228502Y13940602D02*
X6598498D01*
Y13440598D02*
Y13940602D01*
X6228502Y13440598D02*
X6598498D01*
X6228502D02*
Y13940602D01*
X6046003Y13943102D02*
X6193500D01*
X11748303Y4964201D02*
X11895800D01*
X11930802Y4461698D02*
Y4961702D01*
Y4461698D02*
X12300798D01*
Y4961702D01*
X11930802D02*
X12300798D01*
X1910502Y11510198D02*
X2280498D01*
X1910502D02*
Y12010202D01*
X2280498D01*
Y11510198D02*
Y12010202D01*
X2315500Y11475202D02*
X2463002D01*
X2315500Y3715502D02*
X2463002D01*
X2280498Y3750498D02*
Y4250502D01*
X1910502D02*
X2280498D01*
X1910502Y3750498D02*
Y4250502D01*
Y3750498D02*
X2280498D01*
X12293600Y6388100D02*
Y6642100D01*
X11785600Y6388100D02*
X12293600D01*
X11785600D02*
Y6642100D01*
X12293600D01*
X1917700Y6565900D02*
X2425700D01*
Y6819900D01*
X1917700D02*
X2425700D01*
X1917700Y6565900D02*
Y6819900D01*
X1511300Y10083800D02*
X1765300D01*
Y9575800D02*
Y10083800D01*
X1511300Y9575800D02*
X1765300D01*
X1511300D02*
Y10083800D01*
X1917700Y7886700D02*
X2425700D01*
X1917700Y7632700D02*
Y7886700D01*
Y7632700D02*
X2425700D01*
Y7886700D01*
X2171700Y7937500D02*
Y8445500D01*
Y7937500D02*
X2425700D01*
Y8445500D01*
X2171700D02*
X2425700D01*
X12143202Y4154902D02*
X12393204D01*
X12143202Y4404904D02*
X12393204D01*
Y4154902D02*
Y4404904D01*
X12143202Y4154902D02*
Y4404904D01*
X11838402Y4154902D02*
X12088404D01*
X11838402Y4404904D02*
X12088404D01*
Y4154902D02*
Y4404904D01*
X11838402Y4154902D02*
Y4404904D01*
X12472203Y6550599D02*
Y6860601D01*
X12572202Y6550599D02*
Y6860601D01*
X12472203D02*
X12572202D01*
X12472203Y6550599D02*
X12572202D01*
X1639098Y6657401D02*
X1739102D01*
X1639098Y6347399D02*
X1739102D01*
X1639098D02*
Y6657401D01*
X1739102Y6347399D02*
Y6657401D01*
X12472203Y8658799D02*
X12572202D01*
X12472203Y8968801D02*
X12572202D01*
Y8658799D02*
Y8968801D01*
X12472203Y8658799D02*
Y8968801D01*
Y7604699D02*
Y7914701D01*
X12572202Y7604699D02*
Y7914701D01*
X12472203D02*
X12572202D01*
X12472203Y7604699D02*
X12572202D01*
X1639098Y8778301D02*
X1739102D01*
X1639098Y8468299D02*
X1739102D01*
X1639098D02*
Y8778301D01*
X1739102Y8468299D02*
Y8778301D01*
X1639098Y7724201D02*
X1739102D01*
X1639098Y7414199D02*
X1739102D01*
X1639098D02*
Y7724201D01*
X1739102Y7414199D02*
Y7724201D01*
D56*
X2006612Y7350826D02*
X2082788D01*
Y7401609D01*
X2006612Y7427001D02*
X2082788D01*
Y7465089D01*
X2070092Y7477785D01*
X2019308D01*
X2006612Y7465089D01*
Y7427001D01*
Y7541264D02*
Y7515872D01*
X2019308Y7503177D01*
X2070092D01*
X2082788Y7515872D01*
Y7541264D01*
X2070092Y7553960D01*
X2019308D01*
X2006612Y7541264D01*
X2336788Y8524240D02*
X2260612D01*
Y8562328D01*
X2273308Y8575023D01*
X2298700D01*
X2311396Y8562328D01*
Y8524240D01*
X2273308Y8651199D02*
X2260612Y8638503D01*
Y8613111D01*
X2273308Y8600415D01*
X2286004D01*
X2298700Y8613111D01*
Y8638503D01*
X2311396Y8651199D01*
X2324092D01*
X2336788Y8638503D01*
Y8613111D01*
X2324092Y8600415D01*
X2260612Y8676591D02*
X2324092D01*
X2336788Y8689287D01*
Y8714679D01*
X2324092Y8727374D01*
X2260612D01*
X2336788Y6284026D02*
X2260612D01*
Y6322114D01*
X2273308Y6334809D01*
X2298700D01*
X2311396Y6322114D01*
Y6284026D01*
X2273308Y6410985D02*
X2260612Y6398289D01*
Y6372897D01*
X2273308Y6360201D01*
X2286004D01*
X2298700Y6372897D01*
Y6398289D01*
X2311396Y6410985D01*
X2324092D01*
X2336788Y6398289D01*
Y6372897D01*
X2324092Y6360201D01*
X2260612Y6436377D02*
X2324092D01*
X2336788Y6449072D01*
Y6474464D01*
X2324092Y6487160D01*
X2260612D01*
X12204688Y6309360D02*
X12128512D01*
Y6258577D01*
X12204688Y6233185D02*
X12128512D01*
Y6195097D01*
X12141208Y6182401D01*
X12191992D01*
X12204688Y6195097D01*
Y6233185D01*
Y6118921D02*
Y6144313D01*
X12191992Y6157009D01*
X12141208D01*
X12128512Y6144313D01*
Y6118921D01*
X12141208Y6106226D01*
X12191992D01*
X12204688Y6118921D01*
X11874512Y6309360D02*
X11950688D01*
Y6271272D01*
X11937992Y6258577D01*
X11912600D01*
X11899904Y6271272D01*
Y6309360D01*
X11937992Y6182401D02*
X11950688Y6195097D01*
Y6220489D01*
X11937992Y6233185D01*
X11925296D01*
X11912600Y6220489D01*
Y6195097D01*
X11899904Y6182401D01*
X11887208D01*
X11874512Y6195097D01*
Y6220489D01*
X11887208Y6233185D01*
X11950688Y6157009D02*
X11887208D01*
X11874512Y6144313D01*
Y6118921D01*
X11887208Y6106226D01*
X11950688D01*
X9950436Y8455660D02*
X9874260D01*
Y8404877D01*
X9950436Y8328701D02*
Y8379485D01*
X9874260D01*
Y8328701D01*
X9912348Y8379485D02*
Y8354093D01*
X9950436Y8303309D02*
X9874260D01*
Y8265221D01*
X9886956Y8252526D01*
X9937740D01*
X9950436Y8265221D01*
Y8303309D01*
X9861564Y8227134D02*
Y8176350D01*
X9937740Y8100175D02*
X9950436Y8112871D01*
Y8138263D01*
X9937740Y8150959D01*
X9925044D01*
X9912348Y8138263D01*
Y8112871D01*
X9899652Y8100175D01*
X9886956D01*
X9874260Y8112871D01*
Y8138263D01*
X9886956Y8150959D01*
X9874260Y8074783D02*
X9950436D01*
X9925044Y8049391D01*
X9950436Y8024000D01*
X9874260D01*
Y7998608D02*
X9925044D01*
X9950436Y7973216D01*
X9925044Y7947824D01*
X9874260D01*
X9912348D01*
Y7998608D01*
X9950436Y7922432D02*
X9874260D01*
Y7871649D01*
X9950436Y7846257D02*
X9874260D01*
Y7795474D01*
X10191740Y8404877D02*
X10204436Y8417572D01*
Y8442964D01*
X10191740Y8455660D01*
X10140956D01*
X10128260Y8442964D01*
Y8417572D01*
X10140956Y8404877D01*
X10204436Y8328701D02*
Y8379485D01*
X10166348D01*
Y8354093D01*
Y8379485D01*
X10128260D01*
X10204436Y8303309D02*
X10128260D01*
Y8265221D01*
X10140956Y8252526D01*
X10191740D01*
X10204436Y8265221D01*
Y8303309D01*
X10115564Y8227134D02*
Y8176350D01*
X10191740Y8100175D02*
X10204436Y8112871D01*
Y8138263D01*
X10191740Y8150959D01*
X10179044D01*
X10166348Y8138263D01*
Y8112871D01*
X10153652Y8100175D01*
X10140956D01*
X10128260Y8112871D01*
Y8138263D01*
X10140956Y8150959D01*
X10128260Y8074783D02*
X10204436D01*
X10179044Y8049391D01*
X10204436Y8024000D01*
X10128260D01*
Y7998608D02*
X10179044D01*
X10204436Y7973216D01*
X10179044Y7947824D01*
X10128260D01*
X10166348D01*
Y7998608D01*
X10204436Y7922432D02*
X10128260D01*
Y7871649D01*
X10204436Y7846257D02*
X10128260D01*
Y7795474D01*
X9188436Y8455660D02*
X9112260D01*
Y8404877D01*
X9188436Y8328701D02*
Y8379485D01*
X9112260D01*
Y8328701D01*
X9150348Y8379485D02*
Y8354093D01*
X9188436Y8303309D02*
X9112260D01*
Y8265221D01*
X9124956Y8252526D01*
X9175740D01*
X9188436Y8265221D01*
Y8303309D01*
X9099564Y8227134D02*
Y8176350D01*
X9112260Y8150959D02*
X9188436D01*
X9163044Y8125567D01*
X9188436Y8100175D01*
X9112260D01*
Y8074783D02*
X9163044D01*
X9188436Y8049391D01*
X9163044Y8024000D01*
X9112260D01*
X9150348D01*
Y8074783D01*
X9188436Y7998608D02*
Y7973216D01*
Y7985912D01*
X9112260D01*
Y7998608D01*
Y7973216D01*
Y7935128D02*
X9188436D01*
X9112260Y7884345D01*
X9188436D01*
X9677392Y8404877D02*
X9690088Y8417572D01*
Y8442964D01*
X9677392Y8455660D01*
X9664696D01*
X9652000Y8442964D01*
Y8417572D01*
X9639304Y8404877D01*
X9626608D01*
X9613912Y8417572D01*
Y8442964D01*
X9626608Y8455660D01*
X9613912Y8379485D02*
X9690088D01*
X9664696Y8354093D01*
X9690088Y8328701D01*
X9613912D01*
Y8303309D02*
X9664696D01*
X9690088Y8277917D01*
X9664696Y8252526D01*
X9613912D01*
X9652000D01*
Y8303309D01*
X9690088Y8227134D02*
X9613912D01*
Y8176350D01*
X9690088Y8150959D02*
X9613912D01*
Y8100175D01*
X8851912Y8455660D02*
X8928088D01*
X8902696Y8430268D01*
X8928088Y8404877D01*
X8851912D01*
Y8379485D02*
X8902696D01*
X8928088Y8354093D01*
X8902696Y8328701D01*
X8851912D01*
X8890000D01*
Y8379485D01*
X8928088Y8303309D02*
Y8277917D01*
Y8290613D01*
X8851912D01*
Y8303309D01*
Y8277917D01*
Y8239830D02*
X8928088D01*
X8851912Y8189046D01*
X8928088D01*
X9429740Y8404877D02*
X9442436Y8417572D01*
Y8442964D01*
X9429740Y8455660D01*
X9378956D01*
X9366260Y8442964D01*
Y8417572D01*
X9378956Y8404877D01*
X9442436Y8328701D02*
Y8379485D01*
X9404348D01*
Y8354093D01*
Y8379485D01*
X9366260D01*
X9442436Y8303309D02*
X9366260D01*
Y8265221D01*
X9378956Y8252526D01*
X9429740D01*
X9442436Y8265221D01*
Y8303309D01*
X9353564Y8227134D02*
Y8176350D01*
X9366260Y8150959D02*
X9442436D01*
X9417044Y8125567D01*
X9442436Y8100175D01*
X9366260D01*
Y8074783D02*
X9417044D01*
X9442436Y8049391D01*
X9417044Y8024000D01*
X9366260D01*
X9404348D01*
Y8074783D01*
X9442436Y7998608D02*
Y7973216D01*
Y7985912D01*
X9366260D01*
Y7998608D01*
Y7973216D01*
Y7935128D02*
X9442436D01*
X9366260Y7884345D01*
X9442436D01*
X10962640Y11760212D02*
Y11836388D01*
X11000728D01*
X11013423Y11823692D01*
Y11798300D01*
X11000728Y11785604D01*
X10962640D01*
X11089599Y11823692D02*
X11076903Y11836388D01*
X11051511D01*
X11038815Y11823692D01*
Y11810996D01*
X11051511Y11798300D01*
X11076903D01*
X11089599Y11785604D01*
Y11772908D01*
X11076903Y11760212D01*
X11051511D01*
X11038815Y11772908D01*
X11114991Y11836388D02*
Y11772908D01*
X11127687Y11760212D01*
X11153079D01*
X11165774Y11772908D01*
Y11836388D01*
X10962640Y11531588D02*
Y11455412D01*
X11013423D01*
X11038815Y11531588D02*
Y11455412D01*
X11076903D01*
X11089599Y11468108D01*
Y11518892D01*
X11076903Y11531588D01*
X11038815D01*
X11153079D02*
X11127687D01*
X11114991Y11518892D01*
Y11468108D01*
X11127687Y11455412D01*
X11153079D01*
X11165774Y11468108D01*
Y11518892D01*
X11153079Y11531588D01*
X10988040Y12369788D02*
Y12293612D01*
X11038823D01*
X11064215Y12369788D02*
Y12293612D01*
X11102303D01*
X11114999Y12306308D01*
Y12357092D01*
X11102303Y12369788D01*
X11064215D01*
X11178479D02*
X11153087D01*
X11140391Y12357092D01*
Y12306308D01*
X11153087Y12293612D01*
X11178479D01*
X11191174Y12306308D01*
Y12357092D01*
X11178479Y12369788D01*
X10988040Y12598412D02*
Y12674588D01*
X11026128D01*
X11038823Y12661892D01*
Y12636500D01*
X11026128Y12623804D01*
X10988040D01*
X11114999Y12661892D02*
X11102303Y12674588D01*
X11076911D01*
X11064215Y12661892D01*
Y12649196D01*
X11076911Y12636500D01*
X11102303D01*
X11114999Y12623804D01*
Y12611108D01*
X11102303Y12598412D01*
X11076911D01*
X11064215Y12611108D01*
X11140391Y12674588D02*
Y12611108D01*
X11153087Y12598412D01*
X11178479D01*
X11191174Y12611108D01*
Y12674588D01*
X2994726Y11531588D02*
Y11455412D01*
X3045509D01*
X3070901Y11531588D02*
Y11455412D01*
X3108989D01*
X3121685Y11468108D01*
Y11518892D01*
X3108989Y11531588D01*
X3070901D01*
X3185164D02*
X3159772D01*
X3147077Y11518892D01*
Y11468108D01*
X3159772Y11455412D01*
X3185164D01*
X3197860Y11468108D01*
Y11518892D01*
X3185164Y11531588D01*
X2994726Y11760212D02*
Y11836388D01*
X3032814D01*
X3045509Y11823692D01*
Y11798300D01*
X3032814Y11785604D01*
X2994726D01*
X3121685Y11823692D02*
X3108989Y11836388D01*
X3083597D01*
X3070901Y11823692D01*
Y11810996D01*
X3083597Y11798300D01*
X3108989D01*
X3121685Y11785604D01*
Y11772908D01*
X3108989Y11760212D01*
X3083597D01*
X3070901Y11772908D01*
X3147077Y11836388D02*
Y11772908D01*
X3159772Y11760212D01*
X3185164D01*
X3197860Y11772908D01*
Y11836388D01*
X11229340Y17640276D02*
Y17576796D01*
X11242036Y17564101D01*
X11267428D01*
X11280123Y17576796D01*
Y17640276D01*
X11305515D02*
X11356299D01*
Y17627579D01*
X11305515Y17576796D01*
Y17564101D01*
X12128500Y16413480D02*
X12052325D01*
Y16451569D01*
X12065021Y16464262D01*
X12090412D01*
X12103108Y16451569D01*
Y16413480D01*
Y16438872D02*
X12128500Y16464262D01*
Y16489655D02*
Y16515047D01*
Y16502351D01*
X12052325D01*
X12065021Y16489655D01*
Y16553136D02*
X12052325Y16565831D01*
Y16591223D01*
X12065021Y16603918D01*
X12077717D01*
X12090412Y16591223D01*
X12103108Y16603918D01*
X12115804D01*
X12128500Y16591223D01*
Y16565831D01*
X12115804Y16553136D01*
X12103108D01*
X12090412Y16565831D01*
X12077717Y16553136D01*
X12065021D01*
X12090412Y16565831D02*
Y16591223D01*
X10822940Y16860519D02*
Y16936694D01*
X10861028D01*
X10873723Y16923999D01*
Y16898608D01*
X10861028Y16885912D01*
X10822940D01*
X10848332D02*
X10873723Y16860519D01*
X10899115D02*
X10924507D01*
X10911811D01*
Y16936694D01*
X10899115Y16923999D01*
X10962595Y16936694D02*
X11013378D01*
Y16923999D01*
X10962595Y16873216D01*
Y16860519D01*
X12433300Y16413480D02*
X12357125D01*
Y16451569D01*
X12369821Y16464262D01*
X12395212D01*
X12407908Y16451569D01*
Y16413480D01*
Y16438872D02*
X12433300Y16464262D01*
Y16489655D02*
Y16515047D01*
Y16502351D01*
X12357125D01*
X12369821Y16489655D01*
X12357125Y16603918D02*
X12369821Y16578526D01*
X12395212Y16553136D01*
X12420604D01*
X12433300Y16565831D01*
Y16591223D01*
X12420604Y16603918D01*
X12407908D01*
X12395212Y16591223D01*
Y16553136D01*
X12280900Y16413480D02*
X12204725D01*
Y16451569D01*
X12217421Y16464262D01*
X12242812D01*
X12255508Y16451569D01*
Y16413480D01*
Y16438872D02*
X12280900Y16464262D01*
Y16489655D02*
Y16515047D01*
Y16502351D01*
X12204725D01*
X12217421Y16489655D01*
X12204725Y16603918D02*
Y16553136D01*
X12242812D01*
X12230117Y16578526D01*
Y16591223D01*
X12242812Y16603918D01*
X12268204D01*
X12280900Y16591223D01*
Y16565831D01*
X12268204Y16553136D01*
X12585700Y16413480D02*
X12509525D01*
Y16451569D01*
X12522221Y16464262D01*
X12547612D01*
X12560308Y16451569D01*
Y16413480D01*
Y16438872D02*
X12585700Y16464262D01*
Y16489655D02*
Y16515047D01*
Y16502351D01*
X12509525D01*
X12522221Y16489655D01*
X12585700Y16591223D02*
X12509525D01*
X12547612Y16553136D01*
Y16603918D01*
X11899921Y17967943D02*
X11887225Y17955247D01*
Y17929855D01*
X11899921Y17917160D01*
X11950704D01*
X11963400Y17929855D01*
Y17955247D01*
X11950704Y17967943D01*
X11887225Y18044119D02*
X11899921Y18018727D01*
X11925312Y17993335D01*
X11950704D01*
X11963400Y18006030D01*
Y18031422D01*
X11950704Y18044119D01*
X11938008D01*
X11925312Y18031422D01*
Y17993335D01*
X11963400Y18107599D02*
X11887225D01*
X11925312Y18069511D01*
Y18120294D01*
X11684021Y17967943D02*
X11671325Y17955247D01*
Y17929855D01*
X11684021Y17917160D01*
X11734804D01*
X11747500Y17929855D01*
Y17955247D01*
X11734804Y17967943D01*
X11671325Y18044119D02*
X11684021Y18018727D01*
X11709412Y17993335D01*
X11734804D01*
X11747500Y18006030D01*
Y18031422D01*
X11734804Y18044119D01*
X11722108D01*
X11709412Y18031422D01*
Y17993335D01*
X11684021Y18069511D02*
X11671325Y18082207D01*
Y18107599D01*
X11684021Y18120294D01*
X11696717D01*
X11709412Y18107599D01*
Y18094904D01*
Y18107599D01*
X11722108Y18120294D01*
X11734804D01*
X11747500Y18107599D01*
Y18082207D01*
X11734804Y18069511D01*
X11468121Y17967943D02*
X11455425Y17955247D01*
Y17929855D01*
X11468121Y17917160D01*
X11518904D01*
X11531600Y17929855D01*
Y17955247D01*
X11518904Y17967943D01*
X11455425Y18044119D02*
X11468121Y18018727D01*
X11493512Y17993335D01*
X11518904D01*
X11531600Y18006030D01*
Y18031422D01*
X11518904Y18044119D01*
X11506208D01*
X11493512Y18031422D01*
Y17993335D01*
X11531600Y18120294D02*
Y18069511D01*
X11480817Y18120294D01*
X11468121D01*
X11455425Y18107599D01*
Y18082207D01*
X11468121Y18069511D01*
X6226772Y3359623D02*
Y3435799D01*
X6264860D01*
X6277556Y3423103D01*
Y3397711D01*
X6264860Y3385015D01*
X6226772D01*
X6252164D02*
X6277556Y3359623D01*
X6302948D02*
X6328339D01*
X6315643D01*
Y3435799D01*
X6302948Y3423103D01*
X6366427D02*
X6379123Y3435799D01*
X6404515D01*
X6417210Y3423103D01*
Y3410407D01*
X6404515Y3397711D01*
X6391819D01*
X6404515D01*
X6417210Y3385015D01*
Y3372319D01*
X6404515Y3359623D01*
X6379123D01*
X6366427Y3372319D01*
X6442602Y3346928D02*
X6493386D01*
X6518778Y3410407D02*
X6569561Y3359623D01*
X6544170Y3385015D01*
X6569561Y3410407D01*
X6518778Y3359623D01*
X6594953D02*
X6620345D01*
X6607649D01*
Y3435799D01*
X6594953Y3423103D01*
X5772218Y4527560D02*
Y4603736D01*
X5810306D01*
X5823001Y4591040D01*
Y4565648D01*
X5810306Y4552952D01*
X5772218D01*
X5797610D02*
X5823001Y4527560D01*
X5848393D02*
X5873785D01*
X5861089D01*
Y4603736D01*
X5848393Y4591040D01*
X5962656Y4527560D02*
X5911873D01*
X5962656Y4578344D01*
Y4591040D01*
X5949960Y4603736D01*
X5924569D01*
X5911873Y4591040D01*
X5988048Y4514864D02*
X6038831D01*
X6064223Y4578344D02*
X6115007Y4527560D01*
X6089615Y4552952D01*
X6115007Y4578344D01*
X6064223Y4527560D01*
X6140399D02*
X6165791D01*
X6153095D01*
Y4603736D01*
X6140399Y4591040D01*
X6939280Y2827020D02*
Y2903195D01*
X6977368D01*
X6990063Y2890499D01*
Y2865108D01*
X6977368Y2852412D01*
X6939280D01*
X6964672D02*
X6990063Y2827020D01*
X7015455D02*
X7040847D01*
X7028151D01*
Y2903195D01*
X7015455Y2890499D01*
X7078935Y2827020D02*
X7104327D01*
X7091631D01*
Y2903195D01*
X7078935Y2890499D01*
X7142414Y2814324D02*
X7193198D01*
X7218590Y2877803D02*
X7269373Y2827020D01*
X7243981Y2852412D01*
X7269373Y2877803D01*
X7218590Y2827020D01*
X7294765D02*
X7320157D01*
X7307461D01*
Y2903195D01*
X7294765Y2890499D01*
X7203440Y3535680D02*
Y3611855D01*
X7241528D01*
X7254223Y3599159D01*
Y3573768D01*
X7241528Y3561072D01*
X7203440D01*
X7228832D02*
X7254223Y3535680D01*
X7279615D02*
X7305007D01*
X7292311D01*
Y3611855D01*
X7279615Y3599159D01*
X7343095D02*
X7355791Y3611855D01*
X7381183D01*
X7393878Y3599159D01*
Y3548376D01*
X7381183Y3535680D01*
X7355791D01*
X7343095Y3548376D01*
Y3599159D01*
X7419270Y3522984D02*
X7470054D01*
X7495446Y3586463D02*
X7546229Y3535680D01*
X7520837Y3561072D01*
X7546229Y3586463D01*
X7495446Y3535680D01*
X7571621D02*
X7597013D01*
X7584317D01*
Y3611855D01*
X7571621Y3599159D01*
X7112058Y2571760D02*
Y2647936D01*
X7150145D01*
X7162841Y2635240D01*
Y2609848D01*
X7150145Y2597152D01*
X7112058D01*
X7137450D02*
X7162841Y2571760D01*
X7188233Y2584456D02*
X7200929Y2571760D01*
X7226321D01*
X7239017Y2584456D01*
Y2635240D01*
X7226321Y2647936D01*
X7200929D01*
X7188233Y2635240D01*
Y2622544D01*
X7200929Y2609848D01*
X7239017D01*
X7264408Y2559064D02*
X7315192D01*
X7340584Y2622544D02*
X7391367Y2571760D01*
X7365976Y2597152D01*
X7391367Y2622544D01*
X7340584Y2571760D01*
X7416759D02*
X7442151D01*
X7429455D01*
Y2647936D01*
X7416759Y2635240D01*
X6459220Y6535420D02*
Y6611595D01*
X6497308D01*
X6510003Y6598899D01*
Y6573508D01*
X6497308Y6560812D01*
X6459220D01*
X6484612D02*
X6510003Y6535420D01*
X6535395Y6598899D02*
X6548091Y6611595D01*
X6573483D01*
X6586179Y6598899D01*
Y6586203D01*
X6573483Y6573508D01*
X6586179Y6560812D01*
Y6548116D01*
X6573483Y6535420D01*
X6548091D01*
X6535395Y6548116D01*
Y6560812D01*
X6548091Y6573508D01*
X6535395Y6586203D01*
Y6598899D01*
X6548091Y6573508D02*
X6573483D01*
X6611571Y6522724D02*
X6662354D01*
X6687746Y6586203D02*
X6738530Y6535420D01*
X6713138Y6560812D01*
X6738530Y6586203D01*
X6687746Y6535420D01*
X6763921D02*
X6789313D01*
X6776617D01*
Y6611595D01*
X6763921Y6598899D01*
X7203440Y3802380D02*
Y3878555D01*
X7241528D01*
X7254223Y3865859D01*
Y3840468D01*
X7241528Y3827772D01*
X7203440D01*
X7228832D02*
X7254223Y3802380D01*
X7279615Y3878555D02*
X7330399D01*
Y3865859D01*
X7279615Y3815076D01*
Y3802380D01*
X7355791Y3789684D02*
X7406574D01*
X7431966Y3853163D02*
X7482750Y3802380D01*
X7457358Y3827772D01*
X7482750Y3853163D01*
X7431966Y3802380D01*
X7508141D02*
X7533533D01*
X7520837D01*
Y3878555D01*
X7508141Y3865859D01*
X6355080Y6319520D02*
Y6395695D01*
X6393168D01*
X6405863Y6382999D01*
Y6357608D01*
X6393168Y6344912D01*
X6355080D01*
X6380472D02*
X6405863Y6319520D01*
X6482039Y6395695D02*
X6456647Y6382999D01*
X6431255Y6357608D01*
Y6332216D01*
X6443951Y6319520D01*
X6469343D01*
X6482039Y6332216D01*
Y6344912D01*
X6469343Y6357608D01*
X6431255D01*
X6507431Y6306824D02*
X6558214D01*
X6583606Y6370303D02*
X6634390Y6319520D01*
X6608998Y6344912D01*
X6634390Y6370303D01*
X6583606Y6319520D01*
X6659781D02*
X6685173D01*
X6672477D01*
Y6395695D01*
X6659781Y6382999D01*
X5770880Y2232660D02*
X5694705D01*
Y2270748D01*
X5707401Y2283443D01*
X5732792D01*
X5745488Y2270748D01*
Y2232660D01*
Y2258052D02*
X5770880Y2283443D01*
X5694705Y2359619D02*
Y2308835D01*
X5732792D01*
X5720097Y2334227D01*
Y2346923D01*
X5732792Y2359619D01*
X5758184D01*
X5770880Y2346923D01*
Y2321531D01*
X5758184Y2308835D01*
X5783576Y2385011D02*
Y2435794D01*
X5720097Y2461186D02*
X5770880Y2511970D01*
X5745488Y2486578D01*
X5720097Y2511970D01*
X5770880Y2461186D01*
Y2537361D02*
Y2562753D01*
Y2550057D01*
X5694705D01*
X5707401Y2537361D01*
X7203440Y4069080D02*
Y4145255D01*
X7241528D01*
X7254223Y4132559D01*
Y4107168D01*
X7241528Y4094472D01*
X7203440D01*
X7228832D02*
X7254223Y4069080D01*
X7317703D02*
Y4145255D01*
X7279615Y4107168D01*
X7330399D01*
X7355791Y4056384D02*
X7406574D01*
X7431966Y4119863D02*
X7482750Y4069080D01*
X7457358Y4094472D01*
X7482750Y4119863D01*
X7431966Y4069080D01*
X7508141D02*
X7533533D01*
X7520837D01*
Y4145255D01*
X7508141Y4132559D01*
X6037580Y2232660D02*
X5961405D01*
Y2270748D01*
X5974101Y2283443D01*
X5999492D01*
X6012188Y2270748D01*
Y2232660D01*
Y2258052D02*
X6037580Y2283443D01*
X5974101Y2308835D02*
X5961405Y2321531D01*
Y2346923D01*
X5974101Y2359619D01*
X5986797D01*
X5999492Y2346923D01*
Y2334227D01*
Y2346923D01*
X6012188Y2359619D01*
X6024884D01*
X6037580Y2346923D01*
Y2321531D01*
X6024884Y2308835D01*
X6050276Y2385011D02*
Y2435794D01*
X5986797Y2461186D02*
X6037580Y2511970D01*
X6012188Y2486578D01*
X5986797Y2511970D01*
X6037580Y2461186D01*
Y2537361D02*
Y2562753D01*
Y2550057D01*
X5961405D01*
X5974101Y2537361D01*
X5582920Y5074920D02*
Y5151095D01*
X5621008D01*
X5633703Y5138399D01*
Y5113008D01*
X5621008Y5100312D01*
X5582920D01*
X5608312D02*
X5633703Y5074920D01*
X5709879D02*
X5659095D01*
X5709879Y5125703D01*
Y5138399D01*
X5697183Y5151095D01*
X5671791D01*
X5659095Y5138399D01*
X5735271Y5062224D02*
X5786054D01*
X5811446Y5125703D02*
X5862230Y5074920D01*
X5836838Y5100312D01*
X5862230Y5125703D01*
X5811446Y5074920D01*
X5887621D02*
X5913013D01*
X5900317D01*
Y5151095D01*
X5887621Y5138399D01*
X9639300Y3141955D02*
X9664692D01*
X9651996D01*
Y3065780D01*
X9639300D01*
X9664692D01*
X9753563Y3129259D02*
X9740867Y3141955D01*
X9715475D01*
X9702779Y3129259D01*
Y3078476D01*
X9715475Y3065780D01*
X9740867D01*
X9753563Y3078476D01*
X9778955Y3065780D02*
X9804347D01*
X9791651D01*
Y3141955D01*
X9778955Y3129259D01*
X9842434D02*
X9855130Y3141955D01*
X9880522D01*
X9893218Y3129259D01*
Y3116563D01*
X9880522Y3103868D01*
X9867826D01*
X9880522D01*
X9893218Y3091172D01*
Y3078476D01*
X9880522Y3065780D01*
X9855130D01*
X9842434Y3078476D01*
X9918610Y3053084D02*
X9969393D01*
X9994785Y3116563D02*
X10045568Y3065780D01*
X10020177Y3091172D01*
X10045568Y3116563D01*
X9994785Y3065780D01*
X10070960D02*
X10096352D01*
X10083656D01*
Y3141955D01*
X10070960Y3129259D01*
X7706385Y7096760D02*
Y7122152D01*
Y7109456D01*
X7782560D01*
Y7096760D01*
Y7122152D01*
X7719081Y7211023D02*
X7706385Y7198327D01*
Y7172935D01*
X7719081Y7160239D01*
X7769864D01*
X7782560Y7172935D01*
Y7198327D01*
X7769864Y7211023D01*
X7782560Y7236415D02*
Y7261807D01*
Y7249111D01*
X7706385D01*
X7719081Y7236415D01*
X7782560Y7350678D02*
Y7299894D01*
X7731777Y7350678D01*
X7719081D01*
X7706385Y7337982D01*
Y7312590D01*
X7719081Y7299894D01*
X7795256Y7376070D02*
Y7426853D01*
X7731777Y7452245D02*
X7782560Y7503028D01*
X7757168Y7477637D01*
X7731777Y7503028D01*
X7782560Y7452245D01*
Y7528420D02*
Y7553812D01*
Y7541116D01*
X7706385D01*
X7719081Y7528420D01*
X5999480Y929615D02*
X6024872D01*
X6012176D01*
Y853440D01*
X5999480D01*
X6024872D01*
X6113743Y916919D02*
X6101047Y929615D01*
X6075655D01*
X6062959Y916919D01*
Y866136D01*
X6075655Y853440D01*
X6101047D01*
X6113743Y866136D01*
X6139135Y853440D02*
X6164527D01*
X6151831D01*
Y929615D01*
X6139135Y916919D01*
X6202614Y853440D02*
X6228006D01*
X6215310D01*
Y929615D01*
X6202614Y916919D01*
X6266094Y840744D02*
X6316877D01*
X6342269Y904223D02*
X6393052Y853440D01*
X6367661Y878832D01*
X6393052Y904223D01*
X6342269Y853440D01*
X6418444D02*
X6443836D01*
X6431140D01*
Y929615D01*
X6418444Y916919D01*
X6469380Y1310615D02*
X6494772D01*
X6482076D01*
Y1234440D01*
X6469380D01*
X6494772D01*
X6583643Y1297919D02*
X6570947Y1310615D01*
X6545555D01*
X6532859Y1297919D01*
Y1247136D01*
X6545555Y1234440D01*
X6570947D01*
X6583643Y1247136D01*
X6609035Y1234440D02*
X6634427D01*
X6621731D01*
Y1310615D01*
X6609035Y1297919D01*
X6672514D02*
X6685210Y1310615D01*
X6710602D01*
X6723298Y1297919D01*
Y1247136D01*
X6710602Y1234440D01*
X6685210D01*
X6672514Y1247136D01*
Y1297919D01*
X6748690Y1221744D02*
X6799473D01*
X6824865Y1285223D02*
X6875648Y1234440D01*
X6850257Y1259832D01*
X6875648Y1285223D01*
X6824865Y1234440D01*
X6901040D02*
X6926432D01*
X6913736D01*
Y1310615D01*
X6901040Y1297919D01*
X7706385Y5877560D02*
Y5902952D01*
Y5890256D01*
X7782560D01*
Y5877560D01*
Y5902952D01*
X7719081Y5991823D02*
X7706385Y5979127D01*
Y5953735D01*
X7719081Y5941039D01*
X7769864D01*
X7782560Y5953735D01*
Y5979127D01*
X7769864Y5991823D01*
Y6017215D02*
X7782560Y6029911D01*
Y6055303D01*
X7769864Y6067998D01*
X7719081D01*
X7706385Y6055303D01*
Y6029911D01*
X7719081Y6017215D01*
X7731777D01*
X7744472Y6029911D01*
Y6067998D01*
X7795256Y6093390D02*
Y6144174D01*
X7731777Y6169566D02*
X7782560Y6220349D01*
X7757168Y6194957D01*
X7731777Y6220349D01*
X7782560Y6169566D01*
Y6245741D02*
Y6271133D01*
Y6258437D01*
X7706385D01*
X7719081Y6245741D01*
X9169400Y2329155D02*
X9194792D01*
X9182096D01*
Y2252980D01*
X9169400D01*
X9194792D01*
X9283663Y2316459D02*
X9270967Y2329155D01*
X9245575D01*
X9232879Y2316459D01*
Y2265676D01*
X9245575Y2252980D01*
X9270967D01*
X9283663Y2265676D01*
X9309055Y2316459D02*
X9321751Y2329155D01*
X9347143D01*
X9359838Y2316459D01*
Y2303763D01*
X9347143Y2291068D01*
X9359838Y2278372D01*
Y2265676D01*
X9347143Y2252980D01*
X9321751D01*
X9309055Y2265676D01*
Y2278372D01*
X9321751Y2291068D01*
X9309055Y2303763D01*
Y2316459D01*
X9321751Y2291068D02*
X9347143D01*
X9385230Y2240284D02*
X9436014D01*
X9461406Y2303763D02*
X9512189Y2252980D01*
X9486797Y2278372D01*
X9512189Y2303763D01*
X9461406Y2252980D01*
X9537581D02*
X9562973D01*
X9550277D01*
Y2329155D01*
X9537581Y2316459D01*
X7706385Y6487160D02*
Y6512552D01*
Y6499856D01*
X7782560D01*
Y6487160D01*
Y6512552D01*
X7719081Y6601423D02*
X7706385Y6588727D01*
Y6563335D01*
X7719081Y6550639D01*
X7769864D01*
X7782560Y6563335D01*
Y6588727D01*
X7769864Y6601423D01*
X7706385Y6626815D02*
Y6677598D01*
X7719081D01*
X7769864Y6626815D01*
X7782560D01*
X7795256Y6702990D02*
Y6753774D01*
X7731777Y6779166D02*
X7782560Y6829949D01*
X7757168Y6804557D01*
X7731777Y6829949D01*
X7782560Y6779166D01*
Y6855341D02*
Y6880733D01*
Y6868037D01*
X7706385D01*
X7719081Y6855341D01*
X7043445Y1955800D02*
Y1981192D01*
Y1968496D01*
X7119620D01*
Y1955800D01*
Y1981192D01*
X7056141Y2070063D02*
X7043445Y2057367D01*
Y2031975D01*
X7056141Y2019279D01*
X7106924D01*
X7119620Y2031975D01*
Y2057367D01*
X7106924Y2070063D01*
X7043445Y2146238D02*
X7056141Y2120847D01*
X7081532Y2095455D01*
X7106924D01*
X7119620Y2108151D01*
Y2133543D01*
X7106924Y2146238D01*
X7094228D01*
X7081532Y2133543D01*
Y2095455D01*
X7132316Y2171630D02*
Y2222414D01*
X7068837Y2247806D02*
X7119620Y2298589D01*
X7094228Y2273197D01*
X7068837Y2298589D01*
X7119620Y2247806D01*
Y2323981D02*
Y2349373D01*
Y2336677D01*
X7043445D01*
X7056141Y2323981D01*
X5862345Y5664200D02*
Y5689592D01*
Y5676896D01*
X5938520D01*
Y5664200D01*
Y5689592D01*
X5875041Y5778463D02*
X5862345Y5765767D01*
Y5740375D01*
X5875041Y5727679D01*
X5925824D01*
X5938520Y5740375D01*
Y5765767D01*
X5925824Y5778463D01*
X5862345Y5854638D02*
Y5803855D01*
X5900432D01*
X5887737Y5829247D01*
Y5841943D01*
X5900432Y5854638D01*
X5925824D01*
X5938520Y5841943D01*
Y5816551D01*
X5925824Y5803855D01*
X5951216Y5880030D02*
Y5930814D01*
X5887737Y5956206D02*
X5938520Y6006989D01*
X5913128Y5981597D01*
X5887737Y6006989D01*
X5938520Y5956206D01*
Y6032381D02*
Y6057773D01*
Y6045077D01*
X5862345D01*
X5875041Y6032381D01*
X4927600Y3144495D02*
Y3068320D01*
X4965688D01*
X4978383Y3081016D01*
Y3131799D01*
X4965688Y3144495D01*
X4927600D01*
X5003775D02*
Y3081016D01*
X5016471Y3068320D01*
X5041863D01*
X5054559Y3081016D01*
Y3144495D01*
X5079951D02*
X5130734D01*
X5105343D01*
Y3068320D01*
X5156126D02*
X5181518D01*
X5168822D01*
Y3144495D01*
X5156126Y3131799D01*
X5219606Y3055624D02*
X5270389D01*
X5295781Y3119103D02*
X5346564Y3068320D01*
X5321173Y3093712D01*
X5346564Y3119103D01*
X5295781Y3068320D01*
X5371956D02*
X5397348D01*
X5384652D01*
Y3144495D01*
X5371956Y3131799D01*
X5466101Y2225023D02*
X5453405Y2212328D01*
Y2186936D01*
X5466101Y2174240D01*
X5516884D01*
X5529580Y2186936D01*
Y2212328D01*
X5516884Y2225023D01*
X5453405Y2301199D02*
X5466101Y2275807D01*
X5491492Y2250415D01*
X5516884D01*
X5529580Y2263111D01*
Y2288503D01*
X5516884Y2301199D01*
X5504188D01*
X5491492Y2288503D01*
Y2250415D01*
X5529580Y2326591D02*
Y2351983D01*
Y2339287D01*
X5453405D01*
X5466101Y2326591D01*
X5542276Y2390070D02*
Y2440854D01*
X5478797Y2466246D02*
X5529580Y2517029D01*
X5504188Y2491637D01*
X5478797Y2517029D01*
X5529580Y2466246D01*
Y2542421D02*
Y2567813D01*
Y2555117D01*
X5453405D01*
X5466101Y2542421D01*
X6499843Y3931899D02*
X6487148Y3944595D01*
X6461756D01*
X6449060Y3931899D01*
Y3881116D01*
X6461756Y3868420D01*
X6487148D01*
X6499843Y3881116D01*
X6576019Y3944595D02*
X6550627Y3931899D01*
X6525235Y3906508D01*
Y3881116D01*
X6537931Y3868420D01*
X6563323D01*
X6576019Y3881116D01*
Y3893812D01*
X6563323Y3906508D01*
X6525235D01*
X6601411Y3931899D02*
X6614107Y3944595D01*
X6639499D01*
X6652194Y3931899D01*
Y3881116D01*
X6639499Y3868420D01*
X6614107D01*
X6601411Y3881116D01*
Y3931899D01*
X6677586Y3855724D02*
X6728370D01*
X6753761Y3919203D02*
X6804545Y3868420D01*
X6779153Y3893812D01*
X6804545Y3919203D01*
X6753761Y3868420D01*
X6829937D02*
X6855329D01*
X6842633D01*
Y3944595D01*
X6829937Y3931899D01*
X5223100Y4781116D02*
X5214637Y4772652D01*
Y4755724D01*
X5223100Y4747260D01*
X5256956D01*
X5265420Y4755724D01*
Y4772652D01*
X5256956Y4781116D01*
X5214637Y4831899D02*
Y4798043D01*
X5240028D01*
X5231564Y4814971D01*
Y4823435D01*
X5240028Y4831899D01*
X5256956D01*
X5265420Y4823435D01*
Y4806508D01*
X5256956Y4798043D01*
Y4848827D02*
X5265420Y4857291D01*
Y4874219D01*
X5256956Y4882683D01*
X5223100D01*
X5214637Y4874219D01*
Y4857291D01*
X5223100Y4848827D01*
X5231564D01*
X5240028Y4857291D01*
Y4882683D01*
X5273884Y4899610D02*
Y4933466D01*
X5231564Y4950394D02*
X5265420Y4984250D01*
X5248492Y4967322D01*
X5231564Y4984250D01*
X5265420Y4950394D01*
Y5001177D02*
Y5018105D01*
Y5009641D01*
X5214637D01*
X5223100Y5001177D01*
X3914123Y4414499D02*
X3901428Y4427195D01*
X3876036D01*
X3863340Y4414499D01*
Y4363716D01*
X3876036Y4351020D01*
X3901428D01*
X3914123Y4363716D01*
X3990299Y4427195D02*
X3939515D01*
Y4389108D01*
X3964907Y4401803D01*
X3977603D01*
X3990299Y4389108D01*
Y4363716D01*
X3977603Y4351020D01*
X3952211D01*
X3939515Y4363716D01*
X4015691Y4414499D02*
X4028387Y4427195D01*
X4053779D01*
X4066474Y4414499D01*
Y4401803D01*
X4053779Y4389108D01*
X4066474Y4376412D01*
Y4363716D01*
X4053779Y4351020D01*
X4028387D01*
X4015691Y4363716D01*
Y4376412D01*
X4028387Y4389108D01*
X4015691Y4401803D01*
Y4414499D01*
X4028387Y4389108D02*
X4053779D01*
X4091866Y4338324D02*
X4142650D01*
X4168041Y4401803D02*
X4218825Y4351020D01*
X4193433Y4376412D01*
X4218825Y4401803D01*
X4168041Y4351020D01*
X4244217D02*
X4269609D01*
X4256913D01*
Y4427195D01*
X4244217Y4414499D01*
X3914123Y4198599D02*
X3901428Y4211295D01*
X3876036D01*
X3863340Y4198599D01*
Y4147816D01*
X3876036Y4135120D01*
X3901428D01*
X3914123Y4147816D01*
X3990299Y4211295D02*
X3939515D01*
Y4173208D01*
X3964907Y4185903D01*
X3977603D01*
X3990299Y4173208D01*
Y4147816D01*
X3977603Y4135120D01*
X3952211D01*
X3939515Y4147816D01*
X4015691Y4211295D02*
X4066474D01*
Y4198599D01*
X4015691Y4147816D01*
Y4135120D01*
X4091866Y4122424D02*
X4142650D01*
X4168041Y4185903D02*
X4218825Y4135120D01*
X4193433Y4160512D01*
X4218825Y4185903D01*
X4168041Y4135120D01*
X4244217D02*
X4269609D01*
X4256913D01*
Y4211295D01*
X4244217Y4198599D01*
X3914123Y3982699D02*
X3901428Y3995395D01*
X3876036D01*
X3863340Y3982699D01*
Y3931916D01*
X3876036Y3919220D01*
X3901428D01*
X3914123Y3931916D01*
X3990299Y3995395D02*
X3939515D01*
Y3957308D01*
X3964907Y3970003D01*
X3977603D01*
X3990299Y3957308D01*
Y3931916D01*
X3977603Y3919220D01*
X3952211D01*
X3939515Y3931916D01*
X4066474Y3995395D02*
X4041083Y3982699D01*
X4015691Y3957308D01*
Y3931916D01*
X4028387Y3919220D01*
X4053779D01*
X4066474Y3931916D01*
Y3944612D01*
X4053779Y3957308D01*
X4015691D01*
X4091866Y3906524D02*
X4142650D01*
X4168041Y3970003D02*
X4218825Y3919220D01*
X4193433Y3944612D01*
X4218825Y3970003D01*
X4168041Y3919220D01*
X4244217D02*
X4269609D01*
X4256913D01*
Y3995395D01*
X4244217Y3982699D01*
X5250201Y2212323D02*
X5237505Y2199628D01*
Y2174236D01*
X5250201Y2161540D01*
X5300984D01*
X5313680Y2174236D01*
Y2199628D01*
X5300984Y2212323D01*
X5237505Y2288499D02*
Y2237715D01*
X5275592D01*
X5262897Y2263107D01*
Y2275803D01*
X5275592Y2288499D01*
X5300984D01*
X5313680Y2275803D01*
Y2250411D01*
X5300984Y2237715D01*
X5237505Y2364674D02*
Y2313891D01*
X5275592D01*
X5262897Y2339283D01*
Y2351979D01*
X5275592Y2364674D01*
X5300984D01*
X5313680Y2351979D01*
Y2326587D01*
X5300984Y2313891D01*
X5326376Y2390066D02*
Y2440850D01*
X5262897Y2466241D02*
X5313680Y2517025D01*
X5288288Y2491633D01*
X5262897Y2517025D01*
X5313680Y2466241D01*
Y2542417D02*
Y2567809D01*
Y2555113D01*
X5237505D01*
X5250201Y2542417D01*
X4780301Y4798043D02*
X4767605Y4785348D01*
Y4759956D01*
X4780301Y4747260D01*
X4831084D01*
X4843780Y4759956D01*
Y4785348D01*
X4831084Y4798043D01*
X4767605Y4874219D02*
Y4823435D01*
X4805692D01*
X4792997Y4848827D01*
Y4861523D01*
X4805692Y4874219D01*
X4831084D01*
X4843780Y4861523D01*
Y4836131D01*
X4831084Y4823435D01*
X4843780Y4937699D02*
X4767605D01*
X4805692Y4899611D01*
Y4950394D01*
X4856476Y4975786D02*
Y5026570D01*
X4792997Y5051961D02*
X4843780Y5102745D01*
X4818388Y5077353D01*
X4792997Y5102745D01*
X4843780Y5051961D01*
Y5128137D02*
Y5153529D01*
Y5140833D01*
X4767605D01*
X4780301Y5128137D01*
X4818401Y2212323D02*
X4805705Y2199628D01*
Y2174236D01*
X4818401Y2161540D01*
X4869184D01*
X4881880Y2174236D01*
Y2199628D01*
X4869184Y2212323D01*
X4805705Y2288499D02*
Y2237715D01*
X4843792D01*
X4831097Y2263107D01*
Y2275803D01*
X4843792Y2288499D01*
X4869184D01*
X4881880Y2275803D01*
Y2250411D01*
X4869184Y2237715D01*
X4818401Y2313891D02*
X4805705Y2326587D01*
Y2351979D01*
X4818401Y2364674D01*
X4831097D01*
X4843792Y2351979D01*
Y2339283D01*
Y2351979D01*
X4856488Y2364674D01*
X4869184D01*
X4881880Y2351979D01*
Y2326587D01*
X4869184Y2313891D01*
X4894576Y2390066D02*
Y2440850D01*
X4831097Y2466241D02*
X4881880Y2517025D01*
X4856488Y2491633D01*
X4831097Y2517025D01*
X4881880Y2466241D01*
Y2542417D02*
Y2567809D01*
Y2555113D01*
X4805705D01*
X4818401Y2542417D01*
X3914123Y3550899D02*
X3901428Y3563595D01*
X3876036D01*
X3863340Y3550899D01*
Y3500116D01*
X3876036Y3487420D01*
X3901428D01*
X3914123Y3500116D01*
X3990299Y3563595D02*
X3939515D01*
Y3525508D01*
X3964907Y3538203D01*
X3977603D01*
X3990299Y3525508D01*
Y3500116D01*
X3977603Y3487420D01*
X3952211D01*
X3939515Y3500116D01*
X4066474Y3487420D02*
X4015691D01*
X4066474Y3538203D01*
Y3550899D01*
X4053779Y3563595D01*
X4028387D01*
X4015691Y3550899D01*
X4091866Y3474724D02*
X4142650D01*
X4168041Y3538203D02*
X4218825Y3487420D01*
X4193433Y3512812D01*
X4218825Y3538203D01*
X4168041Y3487420D01*
X4244217D02*
X4269609D01*
X4256913D01*
Y3563595D01*
X4244217Y3550899D01*
X9645660Y3549701D02*
X9632964Y3537006D01*
Y3511614D01*
X9645660Y3498918D01*
X9696444D01*
X9709140Y3511614D01*
Y3537006D01*
X9696444Y3549701D01*
X9632964Y3625877D02*
Y3575093D01*
X9671052D01*
X9658356Y3600485D01*
Y3613181D01*
X9671052Y3625877D01*
X9696444D01*
X9709140Y3613181D01*
Y3587789D01*
X9696444Y3575093D01*
X9709140Y3651269D02*
Y3676660D01*
Y3663964D01*
X9632964D01*
X9645660Y3651269D01*
X9721836Y3714748D02*
Y3765531D01*
X9658356Y3790923D02*
X9709140Y3841707D01*
X9683748Y3816315D01*
X9658356Y3841707D01*
X9709140Y3790923D01*
Y3867099D02*
Y3892491D01*
Y3879795D01*
X9632964D01*
X9645660Y3867099D01*
X6499843Y4274799D02*
X6487148Y4287495D01*
X6461756D01*
X6449060Y4274799D01*
Y4224016D01*
X6461756Y4211320D01*
X6487148D01*
X6499843Y4224016D01*
X6576019Y4287495D02*
X6525235D01*
Y4249408D01*
X6550627Y4262103D01*
X6563323D01*
X6576019Y4249408D01*
Y4224016D01*
X6563323Y4211320D01*
X6537931D01*
X6525235Y4224016D01*
X6601411Y4274799D02*
X6614107Y4287495D01*
X6639499D01*
X6652194Y4274799D01*
Y4224016D01*
X6639499Y4211320D01*
X6614107D01*
X6601411Y4224016D01*
Y4274799D01*
X6677586Y4198624D02*
X6728370D01*
X6753761Y4262103D02*
X6804545Y4211320D01*
X6779153Y4236712D01*
X6804545Y4262103D01*
X6753761Y4211320D01*
X6829937D02*
X6855329D01*
X6842633D01*
Y4287495D01*
X6829937Y4274799D01*
X4996201Y4798043D02*
X4983505Y4785348D01*
Y4759956D01*
X4996201Y4747260D01*
X5046984D01*
X5059680Y4759956D01*
Y4785348D01*
X5046984Y4798043D01*
X5059680Y4861523D02*
X4983505D01*
X5021592Y4823435D01*
Y4874219D01*
X5046984Y4899611D02*
X5059680Y4912307D01*
Y4937699D01*
X5046984Y4950394D01*
X4996201D01*
X4983505Y4937699D01*
Y4912307D01*
X4996201Y4899611D01*
X5008897D01*
X5021592Y4912307D01*
Y4950394D01*
X5072376Y4975786D02*
Y5026570D01*
X5008897Y5051961D02*
X5059680Y5102745D01*
X5034288Y5077353D01*
X5008897Y5102745D01*
X5059680Y5051961D01*
Y5128137D02*
Y5153529D01*
Y5140833D01*
X4983505D01*
X4996201Y5128137D01*
X5034301Y2212323D02*
X5021605Y2199628D01*
Y2174236D01*
X5034301Y2161540D01*
X5085084D01*
X5097780Y2174236D01*
Y2199628D01*
X5085084Y2212323D01*
X5097780Y2275803D02*
X5021605D01*
X5059692Y2237715D01*
Y2288499D01*
X5034301Y2313891D02*
X5021605Y2326587D01*
Y2351979D01*
X5034301Y2364674D01*
X5046997D01*
X5059692Y2351979D01*
X5072388Y2364674D01*
X5085084D01*
X5097780Y2351979D01*
Y2326587D01*
X5085084Y2313891D01*
X5072388D01*
X5059692Y2326587D01*
X5046997Y2313891D01*
X5034301D01*
X5059692Y2326587D02*
Y2351979D01*
X5110476Y2390066D02*
Y2440850D01*
X5046997Y2466241D02*
X5097780Y2517025D01*
X5072388Y2491633D01*
X5046997Y2517025D01*
X5097780Y2466241D01*
Y2542417D02*
Y2567809D01*
Y2555113D01*
X5021605D01*
X5034301Y2542417D01*
X3914123Y3334999D02*
X3901428Y3347695D01*
X3876036D01*
X3863340Y3334999D01*
Y3284216D01*
X3876036Y3271520D01*
X3901428D01*
X3914123Y3284216D01*
X3977603Y3271520D02*
Y3347695D01*
X3939515Y3309608D01*
X3990299D01*
X4015691Y3347695D02*
X4066474D01*
Y3334999D01*
X4015691Y3284216D01*
Y3271520D01*
X4091866Y3258824D02*
X4142650D01*
X4168041Y3322303D02*
X4218825Y3271520D01*
X4193433Y3296912D01*
X4218825Y3322303D01*
X4168041Y3271520D01*
X4244217D02*
X4269609D01*
X4256913D01*
Y3347695D01*
X4244217Y3334999D01*
X3914123Y3766799D02*
X3901428Y3779495D01*
X3876036D01*
X3863340Y3766799D01*
Y3716016D01*
X3876036Y3703320D01*
X3901428D01*
X3914123Y3716016D01*
X3977603Y3703320D02*
Y3779495D01*
X3939515Y3741408D01*
X3990299D01*
X4066474Y3779495D02*
X4041083Y3766799D01*
X4015691Y3741408D01*
Y3716016D01*
X4028387Y3703320D01*
X4053779D01*
X4066474Y3716016D01*
Y3728712D01*
X4053779Y3741408D01*
X4015691D01*
X4091866Y3690624D02*
X4142650D01*
X4168041Y3754103D02*
X4218825Y3703320D01*
X4193433Y3728712D01*
X4218825Y3754103D01*
X4168041Y3703320D01*
X4244217D02*
X4269609D01*
X4256913D01*
Y3779495D01*
X4244217Y3766799D01*
X8313403Y7551399D02*
X8300708Y7564095D01*
X8275316D01*
X8262620Y7551399D01*
Y7500616D01*
X8275316Y7487920D01*
X8300708D01*
X8313403Y7500616D01*
X8376883Y7487920D02*
Y7564095D01*
X8338795Y7526008D01*
X8389579D01*
X8465754Y7564095D02*
X8414971D01*
Y7526008D01*
X8440363Y7538703D01*
X8453059D01*
X8465754Y7526008D01*
Y7500616D01*
X8453059Y7487920D01*
X8427667D01*
X8414971Y7500616D01*
X8491146Y7475224D02*
X8541930D01*
X8567321Y7538703D02*
X8618105Y7487920D01*
X8592713Y7513312D01*
X8618105Y7538703D01*
X8567321Y7487920D01*
X8643497D02*
X8668889D01*
X8656193D01*
Y7564095D01*
X8643497Y7551399D01*
X6944343Y579099D02*
X6931648Y591795D01*
X6906256D01*
X6893560Y579099D01*
Y528316D01*
X6906256Y515620D01*
X6931648D01*
X6944343Y528316D01*
X7007823Y515620D02*
Y591795D01*
X6969735Y553708D01*
X7020519D01*
X7083999Y515620D02*
Y591795D01*
X7045911Y553708D01*
X7096694D01*
X7122086Y502924D02*
X7172870D01*
X7198261Y566403D02*
X7249045Y515620D01*
X7223653Y541012D01*
X7249045Y566403D01*
X7198261Y515620D01*
X7274437D02*
X7299829D01*
X7287133D01*
Y591795D01*
X7274437Y579099D01*
X7426943Y960099D02*
X7414248Y972795D01*
X7388856D01*
X7376160Y960099D01*
Y909316D01*
X7388856Y896620D01*
X7414248D01*
X7426943Y909316D01*
X7490423Y896620D02*
Y972795D01*
X7452335Y934708D01*
X7503119D01*
X7528511Y960099D02*
X7541207Y972795D01*
X7566599D01*
X7579294Y960099D01*
Y947403D01*
X7566599Y934708D01*
X7553903D01*
X7566599D01*
X7579294Y922012D01*
Y909316D01*
X7566599Y896620D01*
X7541207D01*
X7528511Y909316D01*
X7604686Y883924D02*
X7655470D01*
X7680861Y947403D02*
X7731645Y896620D01*
X7706253Y922012D01*
X7731645Y947403D01*
X7680861Y896620D01*
X7757037D02*
X7782429D01*
X7769733D01*
Y972795D01*
X7757037Y960099D01*
X10182843Y1595099D02*
X10170148Y1607795D01*
X10144756D01*
X10132060Y1595099D01*
Y1544316D01*
X10144756Y1531620D01*
X10170148D01*
X10182843Y1544316D01*
X10246323Y1531620D02*
Y1607795D01*
X10208235Y1569708D01*
X10259019D01*
X10335194Y1531620D02*
X10284411D01*
X10335194Y1582403D01*
Y1595099D01*
X10322499Y1607795D01*
X10297107D01*
X10284411Y1595099D01*
X10360586Y1518924D02*
X10411370D01*
X10436761Y1582403D02*
X10487545Y1531620D01*
X10462153Y1557012D01*
X10487545Y1582403D01*
X10436761Y1531620D01*
X10512937D02*
X10538329D01*
X10525633D01*
Y1607795D01*
X10512937Y1595099D01*
X10182843Y1810999D02*
X10170148Y1823695D01*
X10144756D01*
X10132060Y1810999D01*
Y1760216D01*
X10144756Y1747520D01*
X10170148D01*
X10182843Y1760216D01*
X10246323Y1747520D02*
Y1823695D01*
X10208235Y1785608D01*
X10259019D01*
X10284411Y1747520D02*
X10309803D01*
X10297107D01*
Y1823695D01*
X10284411Y1810999D01*
X10347890Y1734824D02*
X10398674D01*
X10424066Y1798303D02*
X10474849Y1747520D01*
X10449457Y1772912D01*
X10474849Y1798303D01*
X10424066Y1747520D01*
X10500241D02*
X10525633D01*
X10512937D01*
Y1823695D01*
X10500241Y1810999D01*
X10182843Y2026899D02*
X10170148Y2039595D01*
X10144756D01*
X10132060Y2026899D01*
Y1976116D01*
X10144756Y1963420D01*
X10170148D01*
X10182843Y1976116D01*
X10246323Y1963420D02*
Y2039595D01*
X10208235Y2001508D01*
X10259019D01*
X10284411Y2026899D02*
X10297107Y2039595D01*
X10322499D01*
X10335194Y2026899D01*
Y1976116D01*
X10322499Y1963420D01*
X10297107D01*
X10284411Y1976116D01*
Y2026899D01*
X10360586Y1950724D02*
X10411370D01*
X10436761Y2014203D02*
X10487545Y1963420D01*
X10462153Y1988812D01*
X10487545Y2014203D01*
X10436761Y1963420D01*
X10512937D02*
X10538329D01*
X10525633D01*
Y2039595D01*
X10512937Y2026899D01*
X8313403Y6332199D02*
X8300708Y6344895D01*
X8275316D01*
X8262620Y6332199D01*
Y6281416D01*
X8275316Y6268720D01*
X8300708D01*
X8313403Y6281416D01*
X8338795Y6332199D02*
X8351491Y6344895D01*
X8376883D01*
X8389579Y6332199D01*
Y6319503D01*
X8376883Y6306808D01*
X8364187D01*
X8376883D01*
X8389579Y6294112D01*
Y6281416D01*
X8376883Y6268720D01*
X8351491D01*
X8338795Y6281416D01*
X8414971D02*
X8427667Y6268720D01*
X8453059D01*
X8465754Y6281416D01*
Y6332199D01*
X8453059Y6344895D01*
X8427667D01*
X8414971Y6332199D01*
Y6319503D01*
X8427667Y6306808D01*
X8465754D01*
X8491146Y6256024D02*
X8541930D01*
X8567321Y6319503D02*
X8618105Y6268720D01*
X8592713Y6294112D01*
X8618105Y6319503D01*
X8567321Y6268720D01*
X8643497D02*
X8668889D01*
X8656193D01*
Y6344895D01*
X8643497Y6332199D01*
X8313403Y6941799D02*
X8300708Y6954495D01*
X8275316D01*
X8262620Y6941799D01*
Y6891016D01*
X8275316Y6878320D01*
X8300708D01*
X8313403Y6891016D01*
X8338795Y6941799D02*
X8351491Y6954495D01*
X8376883D01*
X8389579Y6941799D01*
Y6929103D01*
X8376883Y6916408D01*
X8364187D01*
X8376883D01*
X8389579Y6903712D01*
Y6891016D01*
X8376883Y6878320D01*
X8351491D01*
X8338795Y6891016D01*
X8414971Y6941799D02*
X8427667Y6954495D01*
X8453059D01*
X8465754Y6941799D01*
Y6929103D01*
X8453059Y6916408D01*
X8465754Y6903712D01*
Y6891016D01*
X8453059Y6878320D01*
X8427667D01*
X8414971Y6891016D01*
Y6903712D01*
X8427667Y6916408D01*
X8414971Y6929103D01*
Y6941799D01*
X8427667Y6916408D02*
X8453059D01*
X8491146Y6865624D02*
X8541930D01*
X8567321Y6929103D02*
X8618105Y6878320D01*
X8592713Y6903712D01*
X8618105Y6929103D01*
X8567321Y6878320D01*
X8643497D02*
X8668889D01*
X8656193D01*
Y6954495D01*
X8643497Y6941799D01*
X8133101Y1871963D02*
X8120405Y1859268D01*
Y1833876D01*
X8133101Y1821180D01*
X8183884D01*
X8196580Y1833876D01*
Y1859268D01*
X8183884Y1871963D01*
X8133101Y1897355D02*
X8120405Y1910051D01*
Y1935443D01*
X8133101Y1948139D01*
X8145797D01*
X8158492Y1935443D01*
Y1922747D01*
Y1935443D01*
X8171188Y1948139D01*
X8183884D01*
X8196580Y1935443D01*
Y1910051D01*
X8183884Y1897355D01*
X8120405Y1973531D02*
Y2024314D01*
X8133101D01*
X8183884Y1973531D01*
X8196580D01*
X8209276Y2049706D02*
Y2100490D01*
X8145797Y2125881D02*
X8196580Y2176665D01*
X8171188Y2151273D01*
X8145797Y2176665D01*
X8196580Y2125881D01*
Y2202057D02*
Y2227449D01*
Y2214753D01*
X8120405D01*
X8133101Y2202057D01*
Y2865103D02*
X8120405Y2852408D01*
Y2827016D01*
X8133101Y2814320D01*
X8183884D01*
X8196580Y2827016D01*
Y2852408D01*
X8183884Y2865103D01*
X8133101Y2890495D02*
X8120405Y2903191D01*
Y2928583D01*
X8133101Y2941279D01*
X8145797D01*
X8158492Y2928583D01*
Y2915887D01*
Y2928583D01*
X8171188Y2941279D01*
X8183884D01*
X8196580Y2928583D01*
Y2903191D01*
X8183884Y2890495D01*
X8120405Y3017454D02*
X8133101Y2992063D01*
X8158492Y2966671D01*
X8183884D01*
X8196580Y2979367D01*
Y3004759D01*
X8183884Y3017454D01*
X8171188D01*
X8158492Y3004759D01*
Y2966671D01*
X8209276Y3042846D02*
Y3093630D01*
X8145797Y3119021D02*
X8196580Y3169805D01*
X8171188Y3144413D01*
X8145797Y3169805D01*
X8196580Y3119021D01*
Y3195197D02*
Y3220589D01*
Y3207893D01*
X8120405D01*
X8133101Y3195197D01*
X7853701Y2969243D02*
X7841005Y2956548D01*
Y2931156D01*
X7853701Y2918460D01*
X7904484D01*
X7917180Y2931156D01*
Y2956548D01*
X7904484Y2969243D01*
X7853701Y2994635D02*
X7841005Y3007331D01*
Y3032723D01*
X7853701Y3045419D01*
X7866397D01*
X7879092Y3032723D01*
Y3020027D01*
Y3032723D01*
X7891788Y3045419D01*
X7904484D01*
X7917180Y3032723D01*
Y3007331D01*
X7904484Y2994635D01*
X7841005Y3121594D02*
Y3070811D01*
X7879092D01*
X7866397Y3096203D01*
Y3108899D01*
X7879092Y3121594D01*
X7904484D01*
X7917180Y3108899D01*
Y3083507D01*
X7904484Y3070811D01*
X7929876Y3146986D02*
Y3197770D01*
X7866397Y3223161D02*
X7917180Y3273945D01*
X7891788Y3248553D01*
X7866397Y3273945D01*
X7917180Y3223161D01*
Y3299337D02*
Y3324729D01*
Y3312033D01*
X7841005D01*
X7853701Y3299337D01*
X7269463Y6167099D02*
X7256768Y6179795D01*
X7231376D01*
X7218680Y6167099D01*
Y6116316D01*
X7231376Y6103620D01*
X7256768D01*
X7269463Y6116316D01*
X7294855Y6167099D02*
X7307551Y6179795D01*
X7332943D01*
X7345639Y6167099D01*
Y6154403D01*
X7332943Y6141708D01*
X7320247D01*
X7332943D01*
X7345639Y6129012D01*
Y6116316D01*
X7332943Y6103620D01*
X7307551D01*
X7294855Y6116316D01*
X7409119Y6103620D02*
Y6179795D01*
X7371031Y6141708D01*
X7421814D01*
X7447206Y6090924D02*
X7497990D01*
X7523381Y6154403D02*
X7574165Y6103620D01*
X7548773Y6129012D01*
X7574165Y6154403D01*
X7523381Y6103620D01*
X7599557D02*
X7624949D01*
X7612253D01*
Y6179795D01*
X7599557Y6167099D01*
X7269463Y6382999D02*
X7256768Y6395695D01*
X7231376D01*
X7218680Y6382999D01*
Y6332216D01*
X7231376Y6319520D01*
X7256768D01*
X7269463Y6332216D01*
X7294855Y6382999D02*
X7307551Y6395695D01*
X7332943D01*
X7345639Y6382999D01*
Y6370303D01*
X7332943Y6357608D01*
X7320247D01*
X7332943D01*
X7345639Y6344912D01*
Y6332216D01*
X7332943Y6319520D01*
X7307551D01*
X7294855Y6332216D01*
X7371031Y6382999D02*
X7383727Y6395695D01*
X7409119D01*
X7421814Y6382999D01*
Y6370303D01*
X7409119Y6357608D01*
X7396423D01*
X7409119D01*
X7421814Y6344912D01*
Y6332216D01*
X7409119Y6319520D01*
X7383727D01*
X7371031Y6332216D01*
X7447206Y6306824D02*
X7497990D01*
X7523381Y6370303D02*
X7574165Y6319520D01*
X7548773Y6344912D01*
X7574165Y6370303D01*
X7523381Y6319520D01*
X7599557D02*
X7624949D01*
X7612253D01*
Y6395695D01*
X7599557Y6382999D01*
X7269463Y6598899D02*
X7256768Y6611595D01*
X7231376D01*
X7218680Y6598899D01*
Y6548116D01*
X7231376Y6535420D01*
X7256768D01*
X7269463Y6548116D01*
X7294855Y6598899D02*
X7307551Y6611595D01*
X7332943D01*
X7345639Y6598899D01*
Y6586203D01*
X7332943Y6573508D01*
X7320247D01*
X7332943D01*
X7345639Y6560812D01*
Y6548116D01*
X7332943Y6535420D01*
X7307551D01*
X7294855Y6548116D01*
X7421814Y6535420D02*
X7371031D01*
X7421814Y6586203D01*
Y6598899D01*
X7409119Y6611595D01*
X7383727D01*
X7371031Y6598899D01*
X7447206Y6522724D02*
X7497990D01*
X7523381Y6586203D02*
X7574165Y6535420D01*
X7548773Y6560812D01*
X7574165Y6586203D01*
X7523381Y6535420D01*
X7599557D02*
X7624949D01*
X7612253D01*
Y6611595D01*
X7599557Y6598899D01*
X5439001Y4781116D02*
X5430537Y4772652D01*
Y4755724D01*
X5439001Y4747260D01*
X5472856D01*
X5481320Y4755724D01*
Y4772652D01*
X5472856Y4781116D01*
X5439001Y4798044D02*
X5430537Y4806508D01*
Y4823436D01*
X5439001Y4831899D01*
X5447465D01*
X5455928Y4823436D01*
Y4814972D01*
Y4823436D01*
X5464392Y4831899D01*
X5472856D01*
X5481320Y4823436D01*
Y4806508D01*
X5472856Y4798044D01*
X5481320Y4848827D02*
Y4865755D01*
Y4857291D01*
X5430537D01*
X5439001Y4848827D01*
X5489784Y4891147D02*
Y4925003D01*
X5447465Y4941930D02*
X5481320Y4975786D01*
X5464392Y4958858D01*
X5447465Y4975786D01*
X5481320Y4941930D01*
Y4992714D02*
Y5009642D01*
Y5001178D01*
X5430537D01*
X5439001Y4992714D01*
X4927600Y10904195D02*
Y10828020D01*
X4965688D01*
X4978383Y10840716D01*
Y10891499D01*
X4965688Y10904195D01*
X4927600D01*
X5003775D02*
Y10840716D01*
X5016471Y10828020D01*
X5041863D01*
X5054559Y10840716D01*
Y10904195D01*
X5079951D02*
X5130734D01*
X5105343D01*
Y10828020D01*
X5156126D02*
X5181518D01*
X5168822D01*
Y10904195D01*
X5156126Y10891499D01*
X5219606Y10815324D02*
X5270389D01*
X5295781Y10878803D02*
X5346564Y10828020D01*
X5321173Y10853412D01*
X5346564Y10878803D01*
X5295781Y10828020D01*
X5371956Y10891499D02*
X5384652Y10904195D01*
X5410044D01*
X5422740Y10891499D01*
Y10840716D01*
X5410044Y10828020D01*
X5384652D01*
X5371956Y10840716D01*
Y10891499D01*
X5466101Y9984723D02*
X5453405Y9972028D01*
Y9946636D01*
X5466101Y9933940D01*
X5516884D01*
X5529580Y9946636D01*
Y9972028D01*
X5516884Y9984723D01*
X5453405Y10060899D02*
X5466101Y10035507D01*
X5491492Y10010115D01*
X5516884D01*
X5529580Y10022811D01*
Y10048203D01*
X5516884Y10060899D01*
X5504188D01*
X5491492Y10048203D01*
Y10010115D01*
X5529580Y10086291D02*
Y10111683D01*
Y10098987D01*
X5453405D01*
X5466101Y10086291D01*
X5542276Y10149770D02*
Y10200554D01*
X5478797Y10225946D02*
X5529580Y10276729D01*
X5504188Y10251337D01*
X5478797Y10276729D01*
X5529580Y10225946D01*
X5466101Y10302121D02*
X5453405Y10314817D01*
Y10340209D01*
X5466101Y10352904D01*
X5516884D01*
X5529580Y10340209D01*
Y10314817D01*
X5516884Y10302121D01*
X5466101D01*
X1490980Y7320255D02*
Y7256776D01*
X1503676Y7244080D01*
X1529068D01*
X1541763Y7256776D01*
Y7320255D01*
X1617939D02*
X1592547Y7307559D01*
X1567155Y7282168D01*
Y7256776D01*
X1579851Y7244080D01*
X1605243D01*
X1617939Y7256776D01*
Y7269472D01*
X1605243Y7282168D01*
X1567155D01*
X1490980Y8374355D02*
Y8310876D01*
X1503676Y8298180D01*
X1529068D01*
X1541763Y8310876D01*
Y8374355D01*
X1617939D02*
X1567155D01*
Y8336268D01*
X1592547Y8348963D01*
X1605243D01*
X1617939Y8336268D01*
Y8310876D01*
X1605243Y8298180D01*
X1579851D01*
X1567155Y8310876D01*
X12593320Y8084795D02*
Y8021316D01*
X12606016Y8008620D01*
X12631408D01*
X12644103Y8021316D01*
Y8084795D01*
X12707583Y8008620D02*
Y8084795D01*
X12669495Y8046708D01*
X12720279D01*
X12593320Y9138895D02*
Y9075416D01*
X12606016Y9062720D01*
X12631408D01*
X12644103Y9075416D01*
Y9138895D01*
X12669495Y9126199D02*
X12682191Y9138895D01*
X12707583D01*
X12720279Y9126199D01*
Y9113503D01*
X12707583Y9100808D01*
X12694887D01*
X12707583D01*
X12720279Y9088112D01*
Y9075416D01*
X12707583Y9062720D01*
X12682191D01*
X12669495Y9075416D01*
X1490980Y6253455D02*
Y6189976D01*
X1503676Y6177280D01*
X1529068D01*
X1541763Y6189976D01*
Y6253455D01*
X1617939Y6177280D02*
X1567155D01*
X1617939Y6228063D01*
Y6240759D01*
X1605243Y6253455D01*
X1579851D01*
X1567155Y6240759D01*
X12618720Y7030695D02*
Y6967216D01*
X12631416Y6954520D01*
X12656808D01*
X12669503Y6967216D01*
Y7030695D01*
X12694895Y6954520D02*
X12720287D01*
X12707591D01*
Y7030695D01*
X12694895Y7017999D01*
X6226772Y11119323D02*
Y11195499D01*
X6264860D01*
X6277556Y11182803D01*
Y11157411D01*
X6264860Y11144715D01*
X6226772D01*
X6252164D02*
X6277556Y11119323D01*
X6302948D02*
X6328339D01*
X6315643D01*
Y11195499D01*
X6302948Y11182803D01*
X6366427D02*
X6379123Y11195499D01*
X6404515D01*
X6417210Y11182803D01*
Y11170107D01*
X6404515Y11157411D01*
X6391819D01*
X6404515D01*
X6417210Y11144715D01*
Y11132019D01*
X6404515Y11119323D01*
X6379123D01*
X6366427Y11132019D01*
X6442602Y11106628D02*
X6493386D01*
X6518778Y11170107D02*
X6569561Y11119323D01*
X6544170Y11144715D01*
X6569561Y11170107D01*
X6518778Y11119323D01*
X6594953Y11182803D02*
X6607649Y11195499D01*
X6633041D01*
X6645737Y11182803D01*
Y11132019D01*
X6633041Y11119323D01*
X6607649D01*
X6594953Y11132019D01*
Y11182803D01*
X5772218Y12287260D02*
Y12363436D01*
X5810306D01*
X5823001Y12350740D01*
Y12325348D01*
X5810306Y12312652D01*
X5772218D01*
X5797610D02*
X5823001Y12287260D01*
X5848393D02*
X5873785D01*
X5861089D01*
Y12363436D01*
X5848393Y12350740D01*
X5962656Y12287260D02*
X5911873D01*
X5962656Y12338044D01*
Y12350740D01*
X5949960Y12363436D01*
X5924569D01*
X5911873Y12350740D01*
X5988048Y12274564D02*
X6038831D01*
X6064223Y12338044D02*
X6115007Y12287260D01*
X6089615Y12312652D01*
X6115007Y12338044D01*
X6064223Y12287260D01*
X6140399Y12350740D02*
X6153095Y12363436D01*
X6178487D01*
X6191182Y12350740D01*
Y12299956D01*
X6178487Y12287260D01*
X6153095D01*
X6140399Y12299956D01*
Y12350740D01*
X6939280Y10586720D02*
Y10662895D01*
X6977368D01*
X6990063Y10650199D01*
Y10624808D01*
X6977368Y10612112D01*
X6939280D01*
X6964672D02*
X6990063Y10586720D01*
X7015455D02*
X7040847D01*
X7028151D01*
Y10662895D01*
X7015455Y10650199D01*
X7078935Y10586720D02*
X7104327D01*
X7091631D01*
Y10662895D01*
X7078935Y10650199D01*
X7142414Y10574024D02*
X7193198D01*
X7218590Y10637503D02*
X7269373Y10586720D01*
X7243981Y10612112D01*
X7269373Y10637503D01*
X7218590Y10586720D01*
X7294765Y10650199D02*
X7307461Y10662895D01*
X7332853D01*
X7345548Y10650199D01*
Y10599416D01*
X7332853Y10586720D01*
X7307461D01*
X7294765Y10599416D01*
Y10650199D01*
X7203440Y11295380D02*
Y11371555D01*
X7241528D01*
X7254223Y11358859D01*
Y11333468D01*
X7241528Y11320772D01*
X7203440D01*
X7228832D02*
X7254223Y11295380D01*
X7279615D02*
X7305007D01*
X7292311D01*
Y11371555D01*
X7279615Y11358859D01*
X7343095D02*
X7355791Y11371555D01*
X7381183D01*
X7393878Y11358859D01*
Y11308076D01*
X7381183Y11295380D01*
X7355791D01*
X7343095Y11308076D01*
Y11358859D01*
X7419270Y11282684D02*
X7470054D01*
X7495446Y11346163D02*
X7546229Y11295380D01*
X7520837Y11320772D01*
X7546229Y11346163D01*
X7495446Y11295380D01*
X7571621Y11358859D02*
X7584317Y11371555D01*
X7609709D01*
X7622404Y11358859D01*
Y11308076D01*
X7609709Y11295380D01*
X7584317D01*
X7571621Y11308076D01*
Y11358859D01*
X7112058Y10331460D02*
Y10407636D01*
X7150145D01*
X7162841Y10394940D01*
Y10369548D01*
X7150145Y10356852D01*
X7112058D01*
X7137450D02*
X7162841Y10331460D01*
X7188233Y10344156D02*
X7200929Y10331460D01*
X7226321D01*
X7239017Y10344156D01*
Y10394940D01*
X7226321Y10407636D01*
X7200929D01*
X7188233Y10394940D01*
Y10382244D01*
X7200929Y10369548D01*
X7239017D01*
X7264408Y10318764D02*
X7315192D01*
X7340584Y10382244D02*
X7391367Y10331460D01*
X7365976Y10356852D01*
X7391367Y10382244D01*
X7340584Y10331460D01*
X7416759Y10394940D02*
X7429455Y10407636D01*
X7454847D01*
X7467543Y10394940D01*
Y10344156D01*
X7454847Y10331460D01*
X7429455D01*
X7416759Y10344156D01*
Y10394940D01*
X6459220Y14295120D02*
Y14371295D01*
X6497308D01*
X6510003Y14358598D01*
Y14333208D01*
X6497308Y14320512D01*
X6459220D01*
X6484612D02*
X6510003Y14295120D01*
X6535395Y14358598D02*
X6548091Y14371295D01*
X6573483D01*
X6586179Y14358598D01*
Y14345903D01*
X6573483Y14333208D01*
X6586179Y14320512D01*
Y14307816D01*
X6573483Y14295120D01*
X6548091D01*
X6535395Y14307816D01*
Y14320512D01*
X6548091Y14333208D01*
X6535395Y14345903D01*
Y14358598D01*
X6548091Y14333208D02*
X6573483D01*
X6611571Y14282423D02*
X6662354D01*
X6687746Y14345903D02*
X6738530Y14295120D01*
X6713138Y14320512D01*
X6738530Y14345903D01*
X6687746Y14295120D01*
X6763921Y14358598D02*
X6776617Y14371295D01*
X6802009D01*
X6814705Y14358598D01*
Y14307816D01*
X6802009Y14295120D01*
X6776617D01*
X6763921Y14307816D01*
Y14358598D01*
X7203440Y11562080D02*
Y11638255D01*
X7241528D01*
X7254223Y11625559D01*
Y11600168D01*
X7241528Y11587472D01*
X7203440D01*
X7228832D02*
X7254223Y11562080D01*
X7279615Y11638255D02*
X7330399D01*
Y11625559D01*
X7279615Y11574776D01*
Y11562080D01*
X7355791Y11549384D02*
X7406574D01*
X7431966Y11612863D02*
X7482750Y11562080D01*
X7457358Y11587472D01*
X7482750Y11612863D01*
X7431966Y11562080D01*
X7508141Y11625559D02*
X7520837Y11638255D01*
X7546229D01*
X7558925Y11625559D01*
Y11574776D01*
X7546229Y11562080D01*
X7520837D01*
X7508141Y11574776D01*
Y11625559D01*
X6355080Y14079221D02*
Y14155396D01*
X6393168D01*
X6405863Y14142699D01*
Y14117308D01*
X6393168Y14104613D01*
X6355080D01*
X6380472D02*
X6405863Y14079221D01*
X6482039Y14155396D02*
X6456647Y14142699D01*
X6431255Y14117308D01*
Y14091916D01*
X6443951Y14079221D01*
X6469343D01*
X6482039Y14091916D01*
Y14104613D01*
X6469343Y14117308D01*
X6431255D01*
X6507431Y14066524D02*
X6558214D01*
X6583606Y14130003D02*
X6634390Y14079221D01*
X6608998Y14104613D01*
X6634390Y14130003D01*
X6583606Y14079221D01*
X6659781Y14142699D02*
X6672477Y14155396D01*
X6697869D01*
X6710565Y14142699D01*
Y14091916D01*
X6697869Y14079221D01*
X6672477D01*
X6659781Y14091916D01*
Y14142699D01*
X5770880Y9992360D02*
X5694705D01*
Y10030448D01*
X5707401Y10043143D01*
X5732792D01*
X5745488Y10030448D01*
Y9992360D01*
Y10017752D02*
X5770880Y10043143D01*
X5694705Y10119319D02*
Y10068535D01*
X5732792D01*
X5720097Y10093927D01*
Y10106623D01*
X5732792Y10119319D01*
X5758184D01*
X5770880Y10106623D01*
Y10081231D01*
X5758184Y10068535D01*
X5783576Y10144711D02*
Y10195494D01*
X5720097Y10220886D02*
X5770880Y10271670D01*
X5745488Y10246278D01*
X5720097Y10271670D01*
X5770880Y10220886D01*
X5707401Y10297061D02*
X5694705Y10309757D01*
Y10335149D01*
X5707401Y10347845D01*
X5758184D01*
X5770880Y10335149D01*
Y10309757D01*
X5758184Y10297061D01*
X5707401D01*
X7203440Y11828780D02*
Y11904955D01*
X7241528D01*
X7254223Y11892259D01*
Y11866868D01*
X7241528Y11854172D01*
X7203440D01*
X7228832D02*
X7254223Y11828780D01*
X7317703D02*
Y11904955D01*
X7279615Y11866868D01*
X7330399D01*
X7355791Y11816084D02*
X7406574D01*
X7431966Y11879563D02*
X7482750Y11828780D01*
X7457358Y11854172D01*
X7482750Y11879563D01*
X7431966Y11828780D01*
X7508141Y11892259D02*
X7520837Y11904955D01*
X7546229D01*
X7558925Y11892259D01*
Y11841476D01*
X7546229Y11828780D01*
X7520837D01*
X7508141Y11841476D01*
Y11892259D01*
X6037580Y9992360D02*
X5961405D01*
Y10030448D01*
X5974101Y10043143D01*
X5999492D01*
X6012188Y10030448D01*
Y9992360D01*
Y10017752D02*
X6037580Y10043143D01*
X5974101Y10068535D02*
X5961405Y10081231D01*
Y10106623D01*
X5974101Y10119319D01*
X5986797D01*
X5999492Y10106623D01*
Y10093927D01*
Y10106623D01*
X6012188Y10119319D01*
X6024884D01*
X6037580Y10106623D01*
Y10081231D01*
X6024884Y10068535D01*
X6050276Y10144711D02*
Y10195494D01*
X5986797Y10220886D02*
X6037580Y10271670D01*
X6012188Y10246278D01*
X5986797Y10271670D01*
X6037580Y10220886D01*
X5974101Y10297061D02*
X5961405Y10309757D01*
Y10335149D01*
X5974101Y10347845D01*
X6024884D01*
X6037580Y10335149D01*
Y10309757D01*
X6024884Y10297061D01*
X5974101D01*
X5582920Y12834621D02*
Y12910796D01*
X5621008D01*
X5633703Y12898099D01*
Y12872708D01*
X5621008Y12860011D01*
X5582920D01*
X5608312D02*
X5633703Y12834621D01*
X5709879D02*
X5659095D01*
X5709879Y12885403D01*
Y12898099D01*
X5697183Y12910796D01*
X5671791D01*
X5659095Y12898099D01*
X5735271Y12821924D02*
X5786054D01*
X5811446Y12885403D02*
X5862230Y12834621D01*
X5836838Y12860011D01*
X5862230Y12885403D01*
X5811446Y12834621D01*
X5887621Y12898099D02*
X5900317Y12910796D01*
X5925709D01*
X5938405Y12898099D01*
Y12847316D01*
X5925709Y12834621D01*
X5900317D01*
X5887621Y12847316D01*
Y12898099D01*
X10911840Y17416780D02*
Y17492955D01*
X10949928D01*
X10962623Y17480260D01*
Y17454868D01*
X10949928Y17442172D01*
X10911840D01*
X10937232D02*
X10962623Y17416780D01*
X10988015D02*
X11013407D01*
X11000711D01*
Y17492955D01*
X10988015Y17480260D01*
X9639300Y10901655D02*
X9664692D01*
X9651996D01*
Y10825480D01*
X9639300D01*
X9664692D01*
X9753563Y10888959D02*
X9740867Y10901655D01*
X9715475D01*
X9702779Y10888959D01*
Y10838176D01*
X9715475Y10825480D01*
X9740867D01*
X9753563Y10838176D01*
X9778955Y10825480D02*
X9804347D01*
X9791651D01*
Y10901655D01*
X9778955Y10888959D01*
X9842434D02*
X9855130Y10901655D01*
X9880522D01*
X9893218Y10888959D01*
Y10876263D01*
X9880522Y10863568D01*
X9867826D01*
X9880522D01*
X9893218Y10850872D01*
Y10838176D01*
X9880522Y10825480D01*
X9855130D01*
X9842434Y10838176D01*
X9918610Y10812784D02*
X9969393D01*
X9994785Y10876263D02*
X10045568Y10825480D01*
X10020177Y10850872D01*
X10045568Y10876263D01*
X9994785Y10825480D01*
X10070960Y10888959D02*
X10083656Y10901655D01*
X10109048D01*
X10121744Y10888959D01*
Y10838176D01*
X10109048Y10825480D01*
X10083656D01*
X10070960Y10838176D01*
Y10888959D01*
X7706385Y14856461D02*
Y14881853D01*
Y14869156D01*
X7782560D01*
Y14856461D01*
Y14881853D01*
X7719081Y14970723D02*
X7706385Y14958028D01*
Y14932635D01*
X7719081Y14919939D01*
X7769864D01*
X7782560Y14932635D01*
Y14958028D01*
X7769864Y14970723D01*
X7782560Y14996115D02*
Y15021507D01*
Y15008810D01*
X7706385D01*
X7719081Y14996115D01*
X7782560Y15110378D02*
Y15059595D01*
X7731777Y15110378D01*
X7719081D01*
X7706385Y15097682D01*
Y15072290D01*
X7719081Y15059595D01*
X7795256Y15135770D02*
Y15186552D01*
X7731777Y15211945D02*
X7782560Y15262727D01*
X7757168Y15237337D01*
X7731777Y15262727D01*
X7782560Y15211945D01*
X7719081Y15288120D02*
X7706385Y15300816D01*
Y15326208D01*
X7719081Y15338904D01*
X7769864D01*
X7782560Y15326208D01*
Y15300816D01*
X7769864Y15288120D01*
X7719081D01*
X5999480Y8689315D02*
X6024872D01*
X6012176D01*
Y8613140D01*
X5999480D01*
X6024872D01*
X6113743Y8676619D02*
X6101047Y8689315D01*
X6075655D01*
X6062959Y8676619D01*
Y8625836D01*
X6075655Y8613140D01*
X6101047D01*
X6113743Y8625836D01*
X6139135Y8613140D02*
X6164527D01*
X6151831D01*
Y8689315D01*
X6139135Y8676619D01*
X6202614Y8613140D02*
X6228006D01*
X6215310D01*
Y8689315D01*
X6202614Y8676619D01*
X6266094Y8600444D02*
X6316877D01*
X6342269Y8663923D02*
X6393052Y8613140D01*
X6367661Y8638532D01*
X6393052Y8663923D01*
X6342269Y8613140D01*
X6418444Y8676619D02*
X6431140Y8689315D01*
X6456532D01*
X6469228Y8676619D01*
Y8625836D01*
X6456532Y8613140D01*
X6431140D01*
X6418444Y8625836D01*
Y8676619D01*
X6469380Y9070315D02*
X6494772D01*
X6482076D01*
Y8994140D01*
X6469380D01*
X6494772D01*
X6583643Y9057619D02*
X6570947Y9070315D01*
X6545555D01*
X6532859Y9057619D01*
Y9006836D01*
X6545555Y8994140D01*
X6570947D01*
X6583643Y9006836D01*
X6609035Y8994140D02*
X6634427D01*
X6621731D01*
Y9070315D01*
X6609035Y9057619D01*
X6672514D02*
X6685210Y9070315D01*
X6710602D01*
X6723298Y9057619D01*
Y9006836D01*
X6710602Y8994140D01*
X6685210D01*
X6672514Y9006836D01*
Y9057619D01*
X6748690Y8981444D02*
X6799473D01*
X6824865Y9044923D02*
X6875648Y8994140D01*
X6850257Y9019532D01*
X6875648Y9044923D01*
X6824865Y8994140D01*
X6901040Y9057619D02*
X6913736Y9070315D01*
X6939128D01*
X6951824Y9057619D01*
Y9006836D01*
X6939128Y8994140D01*
X6913736D01*
X6901040Y9006836D01*
Y9057619D01*
X7706385Y13637260D02*
Y13662653D01*
Y13649956D01*
X7782560D01*
Y13637260D01*
Y13662653D01*
X7719081Y13751523D02*
X7706385Y13738828D01*
Y13713435D01*
X7719081Y13700739D01*
X7769864D01*
X7782560Y13713435D01*
Y13738828D01*
X7769864Y13751523D01*
Y13776915D02*
X7782560Y13789610D01*
Y13815002D01*
X7769864Y13827698D01*
X7719081D01*
X7706385Y13815002D01*
Y13789610D01*
X7719081Y13776915D01*
X7731777D01*
X7744472Y13789610D01*
Y13827698D01*
X7795256Y13853090D02*
Y13903874D01*
X7731777Y13929266D02*
X7782560Y13980049D01*
X7757168Y13954657D01*
X7731777Y13980049D01*
X7782560Y13929266D01*
X7719081Y14005441D02*
X7706385Y14018137D01*
Y14043529D01*
X7719081Y14056224D01*
X7769864D01*
X7782560Y14043529D01*
Y14018137D01*
X7769864Y14005441D01*
X7719081D01*
X9169400Y10088855D02*
X9194792D01*
X9182096D01*
Y10012680D01*
X9169400D01*
X9194792D01*
X9283663Y10076159D02*
X9270967Y10088855D01*
X9245575D01*
X9232879Y10076159D01*
Y10025376D01*
X9245575Y10012680D01*
X9270967D01*
X9283663Y10025376D01*
X9309055Y10076159D02*
X9321751Y10088855D01*
X9347143D01*
X9359838Y10076159D01*
Y10063463D01*
X9347143Y10050768D01*
X9359838Y10038072D01*
Y10025376D01*
X9347143Y10012680D01*
X9321751D01*
X9309055Y10025376D01*
Y10038072D01*
X9321751Y10050768D01*
X9309055Y10063463D01*
Y10076159D01*
X9321751Y10050768D02*
X9347143D01*
X9385230Y9999984D02*
X9436014D01*
X9461406Y10063463D02*
X9512189Y10012680D01*
X9486797Y10038072D01*
X9512189Y10063463D01*
X9461406Y10012680D01*
X9537581Y10076159D02*
X9550277Y10088855D01*
X9575669D01*
X9588364Y10076159D01*
Y10025376D01*
X9575669Y10012680D01*
X9550277D01*
X9537581Y10025376D01*
Y10076159D01*
X7706385Y14246860D02*
Y14272252D01*
Y14259557D01*
X7782560D01*
Y14246860D01*
Y14272252D01*
X7719081Y14361124D02*
X7706385Y14348427D01*
Y14323035D01*
X7719081Y14310339D01*
X7769864D01*
X7782560Y14323035D01*
Y14348427D01*
X7769864Y14361124D01*
X7706385Y14386514D02*
Y14437299D01*
X7719081D01*
X7769864Y14386514D01*
X7782560D01*
X7795256Y14462691D02*
Y14513474D01*
X7731777Y14538866D02*
X7782560Y14589648D01*
X7757168Y14564256D01*
X7731777Y14589648D01*
X7782560Y14538866D01*
X7719081Y14615041D02*
X7706385Y14627737D01*
Y14653130D01*
X7719081Y14665823D01*
X7769864D01*
X7782560Y14653130D01*
Y14627737D01*
X7769864Y14615041D01*
X7719081D01*
X7043445Y9715500D02*
Y9740892D01*
Y9728196D01*
X7119620D01*
Y9715500D01*
Y9740892D01*
X7056141Y9829763D02*
X7043445Y9817067D01*
Y9791675D01*
X7056141Y9778979D01*
X7106924D01*
X7119620Y9791675D01*
Y9817067D01*
X7106924Y9829763D01*
X7043445Y9905938D02*
X7056141Y9880547D01*
X7081532Y9855155D01*
X7106924D01*
X7119620Y9867851D01*
Y9893243D01*
X7106924Y9905938D01*
X7094228D01*
X7081532Y9893243D01*
Y9855155D01*
X7132316Y9931330D02*
Y9982114D01*
X7068837Y10007506D02*
X7119620Y10058289D01*
X7094228Y10032897D01*
X7068837Y10058289D01*
X7119620Y10007506D01*
X7056141Y10083681D02*
X7043445Y10096377D01*
Y10121769D01*
X7056141Y10134464D01*
X7106924D01*
X7119620Y10121769D01*
Y10096377D01*
X7106924Y10083681D01*
X7056141D01*
X5862345Y13423900D02*
Y13449292D01*
Y13436597D01*
X5938520D01*
Y13423900D01*
Y13449292D01*
X5875041Y13538164D02*
X5862345Y13525467D01*
Y13500075D01*
X5875041Y13487379D01*
X5925824D01*
X5938520Y13500075D01*
Y13525467D01*
X5925824Y13538164D01*
X5862345Y13614339D02*
Y13563554D01*
X5900432D01*
X5887737Y13588947D01*
Y13601643D01*
X5900432Y13614339D01*
X5925824D01*
X5938520Y13601643D01*
Y13576251D01*
X5925824Y13563554D01*
X5951216Y13639729D02*
Y13690514D01*
X5887737Y13715906D02*
X5938520Y13766689D01*
X5913128Y13741296D01*
X5887737Y13766689D01*
X5938520Y13715906D01*
X5875041Y13792081D02*
X5862345Y13804778D01*
Y13830170D01*
X5875041Y13842863D01*
X5925824D01*
X5938520Y13830170D01*
Y13804778D01*
X5925824Y13792081D01*
X5875041D01*
X1714500Y4424655D02*
X1739892D01*
X1727196D01*
Y4348480D01*
X1714500D01*
X1739892D01*
X1828763Y4411959D02*
X1816067Y4424655D01*
X1790675D01*
X1777979Y4411959D01*
Y4361176D01*
X1790675Y4348480D01*
X1816067D01*
X1828763Y4361176D01*
X1892243Y4348480D02*
Y4424655D01*
X1854155Y4386568D01*
X1904938D01*
X1714500Y12184355D02*
X1739892D01*
X1727196D01*
Y12108180D01*
X1714500D01*
X1739892D01*
X1828763Y12171659D02*
X1816067Y12184355D01*
X1790675D01*
X1777979Y12171659D01*
Y12120876D01*
X1790675Y12108180D01*
X1816067D01*
X1828763Y12120876D01*
X1854155Y12171659D02*
X1866851Y12184355D01*
X1892243D01*
X1904938Y12171659D01*
Y12158963D01*
X1892243Y12146268D01*
X1879547D01*
X1892243D01*
X1904938Y12133572D01*
Y12120876D01*
X1892243Y12108180D01*
X1866851D01*
X1854155Y12120876D01*
X11734800Y5135855D02*
X11760192D01*
X11747496D01*
Y5059680D01*
X11734800D01*
X11760192D01*
X11849063Y5123159D02*
X11836367Y5135855D01*
X11810975D01*
X11798279Y5123159D01*
Y5072376D01*
X11810975Y5059680D01*
X11836367D01*
X11849063Y5072376D01*
X11925238Y5059680D02*
X11874455D01*
X11925238Y5110463D01*
Y5123159D01*
X11912543Y5135855D01*
X11887151D01*
X11874455Y5123159D01*
X11734800Y12692355D02*
X11760192D01*
X11747496D01*
Y12616180D01*
X11734800D01*
X11760192D01*
X11849063Y12679659D02*
X11836367Y12692355D01*
X11810975D01*
X11798279Y12679659D01*
Y12628876D01*
X11810975Y12616180D01*
X11836367D01*
X11849063Y12628876D01*
X11874455Y12616180D02*
X11899847D01*
X11887151D01*
Y12692355D01*
X11874455Y12679659D01*
X5223100Y12540816D02*
X5214637Y12532352D01*
Y12515424D01*
X5223100Y12506960D01*
X5256956D01*
X5265420Y12515424D01*
Y12532352D01*
X5256956Y12540816D01*
X5214637Y12591599D02*
Y12557743D01*
X5240028D01*
X5231564Y12574671D01*
Y12583135D01*
X5240028Y12591599D01*
X5256956D01*
X5265420Y12583135D01*
Y12566208D01*
X5256956Y12557743D01*
Y12608527D02*
X5265420Y12616991D01*
Y12633919D01*
X5256956Y12642383D01*
X5223100D01*
X5214637Y12633919D01*
Y12616991D01*
X5223100Y12608527D01*
X5231564D01*
X5240028Y12616991D01*
Y12642383D01*
X5273884Y12659310D02*
Y12693166D01*
X5231564Y12710094D02*
X5265420Y12743950D01*
X5248492Y12727022D01*
X5231564Y12743950D01*
X5265420Y12710094D01*
X5223100Y12760877D02*
X5214637Y12769341D01*
Y12786269D01*
X5223100Y12794733D01*
X5256956D01*
X5265420Y12786269D01*
Y12769341D01*
X5256956Y12760877D01*
X5223100D01*
X3914123Y12174199D02*
X3901428Y12186895D01*
X3876036D01*
X3863340Y12174199D01*
Y12123416D01*
X3876036Y12110720D01*
X3901428D01*
X3914123Y12123416D01*
X3990299Y12186895D02*
X3939515D01*
Y12148808D01*
X3964907Y12161503D01*
X3977603D01*
X3990299Y12148808D01*
Y12123416D01*
X3977603Y12110720D01*
X3952211D01*
X3939515Y12123416D01*
X4015691Y12174199D02*
X4028387Y12186895D01*
X4053779D01*
X4066474Y12174199D01*
Y12161503D01*
X4053779Y12148808D01*
X4066474Y12136112D01*
Y12123416D01*
X4053779Y12110720D01*
X4028387D01*
X4015691Y12123416D01*
Y12136112D01*
X4028387Y12148808D01*
X4015691Y12161503D01*
Y12174199D01*
X4028387Y12148808D02*
X4053779D01*
X4091866Y12098024D02*
X4142650D01*
X4168041Y12161503D02*
X4218825Y12110720D01*
X4193433Y12136112D01*
X4218825Y12161503D01*
X4168041Y12110720D01*
X4244217Y12174199D02*
X4256913Y12186895D01*
X4282305D01*
X4295000Y12174199D01*
Y12123416D01*
X4282305Y12110720D01*
X4256913D01*
X4244217Y12123416D01*
Y12174199D01*
X3914123Y11958299D02*
X3901428Y11970995D01*
X3876036D01*
X3863340Y11958299D01*
Y11907516D01*
X3876036Y11894820D01*
X3901428D01*
X3914123Y11907516D01*
X3990299Y11970995D02*
X3939515D01*
Y11932908D01*
X3964907Y11945603D01*
X3977603D01*
X3990299Y11932908D01*
Y11907516D01*
X3977603Y11894820D01*
X3952211D01*
X3939515Y11907516D01*
X4015691Y11970995D02*
X4066474D01*
Y11958299D01*
X4015691Y11907516D01*
Y11894820D01*
X4091866Y11882124D02*
X4142650D01*
X4168041Y11945603D02*
X4218825Y11894820D01*
X4193433Y11920212D01*
X4218825Y11945603D01*
X4168041Y11894820D01*
X4244217Y11958299D02*
X4256913Y11970995D01*
X4282305D01*
X4295000Y11958299D01*
Y11907516D01*
X4282305Y11894820D01*
X4256913D01*
X4244217Y11907516D01*
Y11958299D01*
X3914123Y11742399D02*
X3901428Y11755095D01*
X3876036D01*
X3863340Y11742399D01*
Y11691616D01*
X3876036Y11678920D01*
X3901428D01*
X3914123Y11691616D01*
X3990299Y11755095D02*
X3939515D01*
Y11717008D01*
X3964907Y11729703D01*
X3977603D01*
X3990299Y11717008D01*
Y11691616D01*
X3977603Y11678920D01*
X3952211D01*
X3939515Y11691616D01*
X4066474Y11755095D02*
X4041083Y11742399D01*
X4015691Y11717008D01*
Y11691616D01*
X4028387Y11678920D01*
X4053779D01*
X4066474Y11691616D01*
Y11704312D01*
X4053779Y11717008D01*
X4015691D01*
X4091866Y11666224D02*
X4142650D01*
X4168041Y11729703D02*
X4218825Y11678920D01*
X4193433Y11704312D01*
X4218825Y11729703D01*
X4168041Y11678920D01*
X4244217Y11742399D02*
X4256913Y11755095D01*
X4282305D01*
X4295000Y11742399D01*
Y11691616D01*
X4282305Y11678920D01*
X4256913D01*
X4244217Y11691616D01*
Y11742399D01*
X5250201Y9972023D02*
X5237505Y9959328D01*
Y9933936D01*
X5250201Y9921240D01*
X5300984D01*
X5313680Y9933936D01*
Y9959328D01*
X5300984Y9972023D01*
X5237505Y10048199D02*
Y9997415D01*
X5275592D01*
X5262897Y10022807D01*
Y10035503D01*
X5275592Y10048199D01*
X5300984D01*
X5313680Y10035503D01*
Y10010111D01*
X5300984Y9997415D01*
X5237505Y10124374D02*
Y10073591D01*
X5275592D01*
X5262897Y10098983D01*
Y10111679D01*
X5275592Y10124374D01*
X5300984D01*
X5313680Y10111679D01*
Y10086287D01*
X5300984Y10073591D01*
X5326376Y10149766D02*
Y10200550D01*
X5262897Y10225941D02*
X5313680Y10276725D01*
X5288288Y10251333D01*
X5262897Y10276725D01*
X5313680Y10225941D01*
X5250201Y10302117D02*
X5237505Y10314813D01*
Y10340205D01*
X5250201Y10352900D01*
X5300984D01*
X5313680Y10340205D01*
Y10314813D01*
X5300984Y10302117D01*
X5250201D01*
X6499843Y11691599D02*
X6487148Y11704295D01*
X6461756D01*
X6449060Y11691599D01*
Y11640816D01*
X6461756Y11628120D01*
X6487148D01*
X6499843Y11640816D01*
X6576019Y11704295D02*
X6550627Y11691599D01*
X6525235Y11666208D01*
Y11640816D01*
X6537931Y11628120D01*
X6563323D01*
X6576019Y11640816D01*
Y11653512D01*
X6563323Y11666208D01*
X6525235D01*
X6601411Y11691599D02*
X6614107Y11704295D01*
X6639499D01*
X6652194Y11691599D01*
Y11640816D01*
X6639499Y11628120D01*
X6614107D01*
X6601411Y11640816D01*
Y11691599D01*
X6677586Y11615424D02*
X6728370D01*
X6753761Y11678903D02*
X6804545Y11628120D01*
X6779153Y11653512D01*
X6804545Y11678903D01*
X6753761Y11628120D01*
X6829937Y11691599D02*
X6842633Y11704295D01*
X6868025D01*
X6880720Y11691599D01*
Y11640816D01*
X6868025Y11628120D01*
X6842633D01*
X6829937Y11640816D01*
Y11691599D01*
X4780301Y12557743D02*
X4767605Y12545048D01*
Y12519656D01*
X4780301Y12506960D01*
X4831084D01*
X4843780Y12519656D01*
Y12545048D01*
X4831084Y12557743D01*
X4767605Y12633919D02*
Y12583135D01*
X4805692D01*
X4792997Y12608527D01*
Y12621223D01*
X4805692Y12633919D01*
X4831084D01*
X4843780Y12621223D01*
Y12595831D01*
X4831084Y12583135D01*
X4843780Y12697399D02*
X4767605D01*
X4805692Y12659311D01*
Y12710094D01*
X4856476Y12735486D02*
Y12786270D01*
X4792997Y12811661D02*
X4843780Y12862445D01*
X4818388Y12837053D01*
X4792997Y12862445D01*
X4843780Y12811661D01*
X4780301Y12887837D02*
X4767605Y12900533D01*
Y12925925D01*
X4780301Y12938620D01*
X4831084D01*
X4843780Y12925925D01*
Y12900533D01*
X4831084Y12887837D01*
X4780301D01*
X4818401Y9972023D02*
X4805705Y9959328D01*
Y9933936D01*
X4818401Y9921240D01*
X4869184D01*
X4881880Y9933936D01*
Y9959328D01*
X4869184Y9972023D01*
X4805705Y10048199D02*
Y9997415D01*
X4843792D01*
X4831097Y10022807D01*
Y10035503D01*
X4843792Y10048199D01*
X4869184D01*
X4881880Y10035503D01*
Y10010111D01*
X4869184Y9997415D01*
X4818401Y10073591D02*
X4805705Y10086287D01*
Y10111679D01*
X4818401Y10124374D01*
X4831097D01*
X4843792Y10111679D01*
Y10098983D01*
Y10111679D01*
X4856488Y10124374D01*
X4869184D01*
X4881880Y10111679D01*
Y10086287D01*
X4869184Y10073591D01*
X4894576Y10149766D02*
Y10200550D01*
X4831097Y10225941D02*
X4881880Y10276725D01*
X4856488Y10251333D01*
X4831097Y10276725D01*
X4881880Y10225941D01*
X4818401Y10302117D02*
X4805705Y10314813D01*
Y10340205D01*
X4818401Y10352900D01*
X4869184D01*
X4881880Y10340205D01*
Y10314813D01*
X4869184Y10302117D01*
X4818401D01*
X3914123Y11310599D02*
X3901428Y11323295D01*
X3876036D01*
X3863340Y11310599D01*
Y11259816D01*
X3876036Y11247120D01*
X3901428D01*
X3914123Y11259816D01*
X3990299Y11323295D02*
X3939515D01*
Y11285208D01*
X3964907Y11297903D01*
X3977603D01*
X3990299Y11285208D01*
Y11259816D01*
X3977603Y11247120D01*
X3952211D01*
X3939515Y11259816D01*
X4066474Y11247120D02*
X4015691D01*
X4066474Y11297903D01*
Y11310599D01*
X4053779Y11323295D01*
X4028387D01*
X4015691Y11310599D01*
X4091866Y11234424D02*
X4142650D01*
X4168041Y11297903D02*
X4218825Y11247120D01*
X4193433Y11272512D01*
X4218825Y11297903D01*
X4168041Y11247120D01*
X4244217Y11310599D02*
X4256913Y11323295D01*
X4282305D01*
X4295000Y11310599D01*
Y11259816D01*
X4282305Y11247120D01*
X4256913D01*
X4244217Y11259816D01*
Y11310599D01*
X9645660Y11309401D02*
X9632964Y11296706D01*
Y11271314D01*
X9645660Y11258618D01*
X9696444D01*
X9709140Y11271314D01*
Y11296706D01*
X9696444Y11309401D01*
X9632964Y11385577D02*
Y11334793D01*
X9671052D01*
X9658356Y11360185D01*
Y11372881D01*
X9671052Y11385577D01*
X9696444D01*
X9709140Y11372881D01*
Y11347489D01*
X9696444Y11334793D01*
X9709140Y11410969D02*
Y11436360D01*
Y11423664D01*
X9632964D01*
X9645660Y11410969D01*
X9721836Y11474448D02*
Y11525231D01*
X9658356Y11550623D02*
X9709140Y11601407D01*
X9683748Y11576015D01*
X9658356Y11601407D01*
X9709140Y11550623D01*
X9645660Y11626799D02*
X9632964Y11639495D01*
Y11664886D01*
X9645660Y11677582D01*
X9696444D01*
X9709140Y11664886D01*
Y11639495D01*
X9696444Y11626799D01*
X9645660D01*
X6499843Y12034499D02*
X6487148Y12047195D01*
X6461756D01*
X6449060Y12034499D01*
Y11983716D01*
X6461756Y11971020D01*
X6487148D01*
X6499843Y11983716D01*
X6576019Y12047195D02*
X6525235D01*
Y12009108D01*
X6550627Y12021803D01*
X6563323D01*
X6576019Y12009108D01*
Y11983716D01*
X6563323Y11971020D01*
X6537931D01*
X6525235Y11983716D01*
X6601411Y12034499D02*
X6614107Y12047195D01*
X6639499D01*
X6652194Y12034499D01*
Y11983716D01*
X6639499Y11971020D01*
X6614107D01*
X6601411Y11983716D01*
Y12034499D01*
X6677586Y11958324D02*
X6728370D01*
X6753761Y12021803D02*
X6804545Y11971020D01*
X6779153Y11996412D01*
X6804545Y12021803D01*
X6753761Y11971020D01*
X6829937Y12034499D02*
X6842633Y12047195D01*
X6868025D01*
X6880720Y12034499D01*
Y11983716D01*
X6868025Y11971020D01*
X6842633D01*
X6829937Y11983716D01*
Y12034499D01*
X4996201Y12557743D02*
X4983505Y12545048D01*
Y12519656D01*
X4996201Y12506960D01*
X5046984D01*
X5059680Y12519656D01*
Y12545048D01*
X5046984Y12557743D01*
X5059680Y12621223D02*
X4983505D01*
X5021592Y12583135D01*
Y12633919D01*
X5046984Y12659311D02*
X5059680Y12672007D01*
Y12697399D01*
X5046984Y12710094D01*
X4996201D01*
X4983505Y12697399D01*
Y12672007D01*
X4996201Y12659311D01*
X5008897D01*
X5021592Y12672007D01*
Y12710094D01*
X5072376Y12735486D02*
Y12786270D01*
X5008897Y12811661D02*
X5059680Y12862445D01*
X5034288Y12837053D01*
X5008897Y12862445D01*
X5059680Y12811661D01*
X4996201Y12887837D02*
X4983505Y12900533D01*
Y12925925D01*
X4996201Y12938620D01*
X5046984D01*
X5059680Y12925925D01*
Y12900533D01*
X5046984Y12887837D01*
X4996201D01*
X5034301Y9972023D02*
X5021605Y9959328D01*
Y9933936D01*
X5034301Y9921240D01*
X5085084D01*
X5097780Y9933936D01*
Y9959328D01*
X5085084Y9972023D01*
X5097780Y10035503D02*
X5021605D01*
X5059692Y9997415D01*
Y10048199D01*
X5034301Y10073591D02*
X5021605Y10086287D01*
Y10111679D01*
X5034301Y10124374D01*
X5046997D01*
X5059692Y10111679D01*
X5072388Y10124374D01*
X5085084D01*
X5097780Y10111679D01*
Y10086287D01*
X5085084Y10073591D01*
X5072388D01*
X5059692Y10086287D01*
X5046997Y10073591D01*
X5034301D01*
X5059692Y10086287D02*
Y10111679D01*
X5110476Y10149766D02*
Y10200550D01*
X5046997Y10225941D02*
X5097780Y10276725D01*
X5072388Y10251333D01*
X5046997Y10276725D01*
X5097780Y10225941D01*
X5034301Y10302117D02*
X5021605Y10314813D01*
Y10340205D01*
X5034301Y10352900D01*
X5085084D01*
X5097780Y10340205D01*
Y10314813D01*
X5085084Y10302117D01*
X5034301D01*
X3914123Y11094699D02*
X3901428Y11107395D01*
X3876036D01*
X3863340Y11094699D01*
Y11043916D01*
X3876036Y11031220D01*
X3901428D01*
X3914123Y11043916D01*
X3977603Y11031220D02*
Y11107395D01*
X3939515Y11069308D01*
X3990299D01*
X4015691Y11107395D02*
X4066474D01*
Y11094699D01*
X4015691Y11043916D01*
Y11031220D01*
X4091866Y11018524D02*
X4142650D01*
X4168041Y11082003D02*
X4218825Y11031220D01*
X4193433Y11056612D01*
X4218825Y11082003D01*
X4168041Y11031220D01*
X4244217Y11094699D02*
X4256913Y11107395D01*
X4282305D01*
X4295000Y11094699D01*
Y11043916D01*
X4282305Y11031220D01*
X4256913D01*
X4244217Y11043916D01*
Y11094699D01*
X3914123Y11526499D02*
X3901428Y11539195D01*
X3876036D01*
X3863340Y11526499D01*
Y11475716D01*
X3876036Y11463020D01*
X3901428D01*
X3914123Y11475716D01*
X3977603Y11463020D02*
Y11539195D01*
X3939515Y11501108D01*
X3990299D01*
X4066474Y11539195D02*
X4041083Y11526499D01*
X4015691Y11501108D01*
Y11475716D01*
X4028387Y11463020D01*
X4053779D01*
X4066474Y11475716D01*
Y11488412D01*
X4053779Y11501108D01*
X4015691D01*
X4091866Y11450324D02*
X4142650D01*
X4168041Y11513803D02*
X4218825Y11463020D01*
X4193433Y11488412D01*
X4218825Y11513803D01*
X4168041Y11463020D01*
X4244217Y11526499D02*
X4256913Y11539195D01*
X4282305D01*
X4295000Y11526499D01*
Y11475716D01*
X4282305Y11463020D01*
X4256913D01*
X4244217Y11475716D01*
Y11526499D01*
X8313403Y15311099D02*
X8300708Y15323795D01*
X8275316D01*
X8262620Y15311099D01*
Y15260316D01*
X8275316Y15247620D01*
X8300708D01*
X8313403Y15260316D01*
X8376883Y15247620D02*
Y15323795D01*
X8338795Y15285709D01*
X8389579D01*
X8465754Y15323795D02*
X8414971D01*
Y15285709D01*
X8440363Y15298402D01*
X8453059D01*
X8465754Y15285709D01*
Y15260316D01*
X8453059Y15247620D01*
X8427667D01*
X8414971Y15260316D01*
X8491146Y15234924D02*
X8541930D01*
X8567321Y15298402D02*
X8618105Y15247620D01*
X8592713Y15273012D01*
X8618105Y15298402D01*
X8567321Y15247620D01*
X8643497Y15311099D02*
X8656193Y15323795D01*
X8681585D01*
X8694280Y15311099D01*
Y15260316D01*
X8681585Y15247620D01*
X8656193D01*
X8643497Y15260316D01*
Y15311099D01*
X6944343Y8338799D02*
X6931648Y8351495D01*
X6906256D01*
X6893560Y8338799D01*
Y8288016D01*
X6906256Y8275320D01*
X6931648D01*
X6944343Y8288016D01*
X7007823Y8275320D02*
Y8351495D01*
X6969735Y8313408D01*
X7020519D01*
X7083999Y8275320D02*
Y8351495D01*
X7045911Y8313408D01*
X7096694D01*
X7122086Y8262624D02*
X7172870D01*
X7198261Y8326103D02*
X7249045Y8275320D01*
X7223653Y8300712D01*
X7249045Y8326103D01*
X7198261Y8275320D01*
X7274437Y8338799D02*
X7287133Y8351495D01*
X7312525D01*
X7325220Y8338799D01*
Y8288016D01*
X7312525Y8275320D01*
X7287133D01*
X7274437Y8288016D01*
Y8338799D01*
X7426943Y8719799D02*
X7414248Y8732495D01*
X7388856D01*
X7376160Y8719799D01*
Y8669016D01*
X7388856Y8656320D01*
X7414248D01*
X7426943Y8669016D01*
X7490423Y8656320D02*
Y8732495D01*
X7452335Y8694408D01*
X7503119D01*
X7528511Y8719799D02*
X7541207Y8732495D01*
X7566599D01*
X7579294Y8719799D01*
Y8707103D01*
X7566599Y8694408D01*
X7553903D01*
X7566599D01*
X7579294Y8681712D01*
Y8669016D01*
X7566599Y8656320D01*
X7541207D01*
X7528511Y8669016D01*
X7604686Y8643624D02*
X7655470D01*
X7680861Y8707103D02*
X7731645Y8656320D01*
X7706253Y8681712D01*
X7731645Y8707103D01*
X7680861Y8656320D01*
X7757037Y8719799D02*
X7769733Y8732495D01*
X7795125D01*
X7807820Y8719799D01*
Y8669016D01*
X7795125Y8656320D01*
X7769733D01*
X7757037Y8669016D01*
Y8719799D01*
X10182843Y9354799D02*
X10170148Y9367495D01*
X10144756D01*
X10132060Y9354799D01*
Y9304016D01*
X10144756Y9291320D01*
X10170148D01*
X10182843Y9304016D01*
X10246323Y9291320D02*
Y9367495D01*
X10208235Y9329408D01*
X10259019D01*
X10335194Y9291320D02*
X10284411D01*
X10335194Y9342103D01*
Y9354799D01*
X10322499Y9367495D01*
X10297107D01*
X10284411Y9354799D01*
X10360586Y9278624D02*
X10411370D01*
X10436761Y9342103D02*
X10487545Y9291320D01*
X10462153Y9316712D01*
X10487545Y9342103D01*
X10436761Y9291320D01*
X10512937Y9354799D02*
X10525633Y9367495D01*
X10551025D01*
X10563720Y9354799D01*
Y9304016D01*
X10551025Y9291320D01*
X10525633D01*
X10512937Y9304016D01*
Y9354799D01*
X10182843Y9570699D02*
X10170148Y9583395D01*
X10144756D01*
X10132060Y9570699D01*
Y9519916D01*
X10144756Y9507220D01*
X10170148D01*
X10182843Y9519916D01*
X10246323Y9507220D02*
Y9583395D01*
X10208235Y9545308D01*
X10259019D01*
X10284411Y9507220D02*
X10309803D01*
X10297107D01*
Y9583395D01*
X10284411Y9570699D01*
X10347890Y9494524D02*
X10398674D01*
X10424066Y9558003D02*
X10474849Y9507220D01*
X10449457Y9532612D01*
X10474849Y9558003D01*
X10424066Y9507220D01*
X10500241Y9570699D02*
X10512937Y9583395D01*
X10538329D01*
X10551024Y9570699D01*
Y9519916D01*
X10538329Y9507220D01*
X10512937D01*
X10500241Y9519916D01*
Y9570699D01*
X10182843Y9786599D02*
X10170148Y9799295D01*
X10144756D01*
X10132060Y9786599D01*
Y9735816D01*
X10144756Y9723120D01*
X10170148D01*
X10182843Y9735816D01*
X10246323Y9723120D02*
Y9799295D01*
X10208235Y9761208D01*
X10259019D01*
X10284411Y9786599D02*
X10297107Y9799295D01*
X10322499D01*
X10335194Y9786599D01*
Y9735816D01*
X10322499Y9723120D01*
X10297107D01*
X10284411Y9735816D01*
Y9786599D01*
X10360586Y9710424D02*
X10411370D01*
X10436761Y9773903D02*
X10487545Y9723120D01*
X10462153Y9748512D01*
X10487545Y9773903D01*
X10436761Y9723120D01*
X10512937Y9786599D02*
X10525633Y9799295D01*
X10551025D01*
X10563720Y9786599D01*
Y9735816D01*
X10551025Y9723120D01*
X10525633D01*
X10512937Y9735816D01*
Y9786599D01*
X8313403Y14091899D02*
X8300708Y14104594D01*
X8275316D01*
X8262620Y14091899D01*
Y14041116D01*
X8275316Y14028419D01*
X8300708D01*
X8313403Y14041116D01*
X8338795Y14091899D02*
X8351491Y14104594D01*
X8376883D01*
X8389579Y14091899D01*
Y14079202D01*
X8376883Y14066508D01*
X8364187D01*
X8376883D01*
X8389579Y14053812D01*
Y14041116D01*
X8376883Y14028419D01*
X8351491D01*
X8338795Y14041116D01*
X8414971D02*
X8427667Y14028419D01*
X8453059D01*
X8465754Y14041116D01*
Y14091899D01*
X8453059Y14104594D01*
X8427667D01*
X8414971Y14091899D01*
Y14079202D01*
X8427667Y14066508D01*
X8465754D01*
X8491146Y14015724D02*
X8541930D01*
X8567321Y14079202D02*
X8618105Y14028419D01*
X8592713Y14053812D01*
X8618105Y14079202D01*
X8567321Y14028419D01*
X8643497Y14091899D02*
X8656193Y14104594D01*
X8681585D01*
X8694280Y14091899D01*
Y14041116D01*
X8681585Y14028419D01*
X8656193D01*
X8643497Y14041116D01*
Y14091899D01*
X8313403Y14701498D02*
X8300708Y14714195D01*
X8275316D01*
X8262620Y14701498D01*
Y14650716D01*
X8275316Y14638020D01*
X8300708D01*
X8313403Y14650716D01*
X8338795Y14701498D02*
X8351491Y14714195D01*
X8376883D01*
X8389579Y14701498D01*
Y14688803D01*
X8376883Y14676108D01*
X8364187D01*
X8376883D01*
X8389579Y14663412D01*
Y14650716D01*
X8376883Y14638020D01*
X8351491D01*
X8338795Y14650716D01*
X8414971Y14701498D02*
X8427667Y14714195D01*
X8453059D01*
X8465754Y14701498D01*
Y14688803D01*
X8453059Y14676108D01*
X8465754Y14663412D01*
Y14650716D01*
X8453059Y14638020D01*
X8427667D01*
X8414971Y14650716D01*
Y14663412D01*
X8427667Y14676108D01*
X8414971Y14688803D01*
Y14701498D01*
X8427667Y14676108D02*
X8453059D01*
X8491146Y14625323D02*
X8541930D01*
X8567321Y14688803D02*
X8618105Y14638020D01*
X8592713Y14663412D01*
X8618105Y14688803D01*
X8567321Y14638020D01*
X8643497Y14701498D02*
X8656193Y14714195D01*
X8681585D01*
X8694280Y14701498D01*
Y14650716D01*
X8681585Y14638020D01*
X8656193D01*
X8643497Y14650716D01*
Y14701498D01*
X8133101Y9631663D02*
X8120405Y9618968D01*
Y9593576D01*
X8133101Y9580880D01*
X8183884D01*
X8196580Y9593576D01*
Y9618968D01*
X8183884Y9631663D01*
X8133101Y9657055D02*
X8120405Y9669751D01*
Y9695143D01*
X8133101Y9707839D01*
X8145797D01*
X8158492Y9695143D01*
Y9682447D01*
Y9695143D01*
X8171188Y9707839D01*
X8183884D01*
X8196580Y9695143D01*
Y9669751D01*
X8183884Y9657055D01*
X8120405Y9733231D02*
Y9784014D01*
X8133101D01*
X8183884Y9733231D01*
X8196580D01*
X8209276Y9809406D02*
Y9860190D01*
X8145797Y9885581D02*
X8196580Y9936365D01*
X8171188Y9910973D01*
X8145797Y9936365D01*
X8196580Y9885581D01*
X8133101Y9961757D02*
X8120405Y9974453D01*
Y9999845D01*
X8133101Y10012540D01*
X8183884D01*
X8196580Y9999845D01*
Y9974453D01*
X8183884Y9961757D01*
X8133101D01*
Y10624803D02*
X8120405Y10612108D01*
Y10586716D01*
X8133101Y10574020D01*
X8183884D01*
X8196580Y10586716D01*
Y10612108D01*
X8183884Y10624803D01*
X8133101Y10650195D02*
X8120405Y10662891D01*
Y10688283D01*
X8133101Y10700979D01*
X8145797D01*
X8158492Y10688283D01*
Y10675587D01*
Y10688283D01*
X8171188Y10700979D01*
X8183884D01*
X8196580Y10688283D01*
Y10662891D01*
X8183884Y10650195D01*
X8120405Y10777154D02*
X8133101Y10751763D01*
X8158492Y10726371D01*
X8183884D01*
X8196580Y10739067D01*
Y10764459D01*
X8183884Y10777154D01*
X8171188D01*
X8158492Y10764459D01*
Y10726371D01*
X8209276Y10802546D02*
Y10853330D01*
X8145797Y10878721D02*
X8196580Y10929505D01*
X8171188Y10904113D01*
X8145797Y10929505D01*
X8196580Y10878721D01*
X8133101Y10954897D02*
X8120405Y10967593D01*
Y10992985D01*
X8133101Y11005680D01*
X8183884D01*
X8196580Y10992985D01*
Y10967593D01*
X8183884Y10954897D01*
X8133101D01*
X7853701Y10728943D02*
X7841005Y10716248D01*
Y10690856D01*
X7853701Y10678160D01*
X7904484D01*
X7917180Y10690856D01*
Y10716248D01*
X7904484Y10728943D01*
X7853701Y10754335D02*
X7841005Y10767031D01*
Y10792423D01*
X7853701Y10805119D01*
X7866397D01*
X7879092Y10792423D01*
Y10779727D01*
Y10792423D01*
X7891788Y10805119D01*
X7904484D01*
X7917180Y10792423D01*
Y10767031D01*
X7904484Y10754335D01*
X7841005Y10881294D02*
Y10830511D01*
X7879092D01*
X7866397Y10855903D01*
Y10868599D01*
X7879092Y10881294D01*
X7904484D01*
X7917180Y10868599D01*
Y10843207D01*
X7904484Y10830511D01*
X7929876Y10906686D02*
Y10957470D01*
X7866397Y10982861D02*
X7917180Y11033645D01*
X7891788Y11008253D01*
X7866397Y11033645D01*
X7917180Y10982861D01*
X7853701Y11059037D02*
X7841005Y11071733D01*
Y11097125D01*
X7853701Y11109820D01*
X7904484D01*
X7917180Y11097125D01*
Y11071733D01*
X7904484Y11059037D01*
X7853701D01*
X7269463Y13926799D02*
X7256768Y13939494D01*
X7231376D01*
X7218680Y13926799D01*
Y13876016D01*
X7231376Y13863319D01*
X7256768D01*
X7269463Y13876016D01*
X7294855Y13926799D02*
X7307551Y13939494D01*
X7332943D01*
X7345639Y13926799D01*
Y13914104D01*
X7332943Y13901408D01*
X7320247D01*
X7332943D01*
X7345639Y13888712D01*
Y13876016D01*
X7332943Y13863319D01*
X7307551D01*
X7294855Y13876016D01*
X7409119Y13863319D02*
Y13939494D01*
X7371031Y13901408D01*
X7421814D01*
X7447206Y13850624D02*
X7497990D01*
X7523381Y13914104D02*
X7574165Y13863319D01*
X7548773Y13888712D01*
X7574165Y13914104D01*
X7523381Y13863319D01*
X7599557Y13926799D02*
X7612253Y13939494D01*
X7637645D01*
X7650340Y13926799D01*
Y13876016D01*
X7637645Y13863319D01*
X7612253D01*
X7599557Y13876016D01*
Y13926799D01*
X7269463Y14142699D02*
X7256768Y14155396D01*
X7231376D01*
X7218680Y14142699D01*
Y14091916D01*
X7231376Y14079221D01*
X7256768D01*
X7269463Y14091916D01*
X7294855Y14142699D02*
X7307551Y14155396D01*
X7332943D01*
X7345639Y14142699D01*
Y14130003D01*
X7332943Y14117308D01*
X7320247D01*
X7332943D01*
X7345639Y14104613D01*
Y14091916D01*
X7332943Y14079221D01*
X7307551D01*
X7294855Y14091916D01*
X7371031Y14142699D02*
X7383727Y14155396D01*
X7409119D01*
X7421814Y14142699D01*
Y14130003D01*
X7409119Y14117308D01*
X7396423D01*
X7409119D01*
X7421814Y14104613D01*
Y14091916D01*
X7409119Y14079221D01*
X7383727D01*
X7371031Y14091916D01*
X7447206Y14066524D02*
X7497990D01*
X7523381Y14130003D02*
X7574165Y14079221D01*
X7548773Y14104613D01*
X7574165Y14130003D01*
X7523381Y14079221D01*
X7599557Y14142699D02*
X7612253Y14155396D01*
X7637645D01*
X7650340Y14142699D01*
Y14091916D01*
X7637645Y14079221D01*
X7612253D01*
X7599557Y14091916D01*
Y14142699D01*
X7269463Y14358598D02*
X7256768Y14371295D01*
X7231376D01*
X7218680Y14358598D01*
Y14307816D01*
X7231376Y14295120D01*
X7256768D01*
X7269463Y14307816D01*
X7294855Y14358598D02*
X7307551Y14371295D01*
X7332943D01*
X7345639Y14358598D01*
Y14345903D01*
X7332943Y14333208D01*
X7320247D01*
X7332943D01*
X7345639Y14320512D01*
Y14307816D01*
X7332943Y14295120D01*
X7307551D01*
X7294855Y14307816D01*
X7421814Y14295120D02*
X7371031D01*
X7421814Y14345903D01*
Y14358598D01*
X7409119Y14371295D01*
X7383727D01*
X7371031Y14358598D01*
X7447206Y14282423D02*
X7497990D01*
X7523381Y14345903D02*
X7574165Y14295120D01*
X7548773Y14320512D01*
X7574165Y14345903D01*
X7523381Y14295120D01*
X7599557Y14358598D02*
X7612253Y14371295D01*
X7637645D01*
X7650340Y14358598D01*
Y14307816D01*
X7637645Y14295120D01*
X7612253D01*
X7599557Y14307816D01*
Y14358598D01*
X5439000Y12540816D02*
X5430537Y12532352D01*
Y12515424D01*
X5439000Y12506960D01*
X5472856D01*
X5481320Y12515424D01*
Y12532352D01*
X5472856Y12540816D01*
X5439000Y12557743D02*
X5430537Y12566208D01*
Y12583135D01*
X5439000Y12591599D01*
X5447464D01*
X5455928Y12583135D01*
Y12574671D01*
Y12583135D01*
X5464392Y12591599D01*
X5472856D01*
X5481320Y12583135D01*
Y12566208D01*
X5472856Y12557743D01*
X5481320Y12608527D02*
Y12625455D01*
Y12616991D01*
X5430537D01*
X5439000Y12608527D01*
X5489784Y12650847D02*
Y12684702D01*
X5447464Y12701630D02*
X5481320Y12735486D01*
X5464392Y12718558D01*
X5447464Y12735486D01*
X5481320Y12701630D01*
X5439000Y12752414D02*
X5430537Y12760878D01*
Y12777806D01*
X5439000Y12786269D01*
X5472856D01*
X5481320Y12777806D01*
Y12760878D01*
X5472856Y12752414D01*
X5439000D01*
X2286021Y3152123D02*
X2273325Y3139428D01*
Y3114036D01*
X2286021Y3101340D01*
X2336804D01*
X2349500Y3114036D01*
Y3139428D01*
X2336804Y3152123D01*
X2286021Y3177515D02*
X2273325Y3190211D01*
Y3215603D01*
X2286021Y3228299D01*
X2298717D01*
X2311412Y3215603D01*
Y3202907D01*
Y3215603D01*
X2324108Y3228299D01*
X2336804D01*
X2349500Y3215603D01*
Y3190211D01*
X2336804Y3177515D01*
X2286021Y3253691D02*
X2273325Y3266387D01*
Y3291779D01*
X2286021Y3304474D01*
X2336804D01*
X2349500Y3291779D01*
Y3266387D01*
X2336804Y3253691D01*
X2286021D01*
X2070121Y3152123D02*
X2057425Y3139428D01*
Y3114036D01*
X2070121Y3101340D01*
X2120904D01*
X2133600Y3114036D01*
Y3139428D01*
X2120904Y3152123D01*
X2133600Y3228299D02*
Y3177515D01*
X2082817Y3228299D01*
X2070121D01*
X2057425Y3215603D01*
Y3190211D01*
X2070121Y3177515D01*
X2120904Y3253691D02*
X2133600Y3266387D01*
Y3291779D01*
X2120904Y3304474D01*
X2070121D01*
X2057425Y3291779D01*
Y3266387D01*
X2070121Y3253691D01*
X2082817D01*
X2095512Y3266387D01*
Y3304474D01*
X1854221Y3152123D02*
X1841525Y3139428D01*
Y3114036D01*
X1854221Y3101340D01*
X1905004D01*
X1917700Y3114036D01*
Y3139428D01*
X1905004Y3152123D01*
X1917700Y3228299D02*
Y3177515D01*
X1866917Y3228299D01*
X1854221D01*
X1841525Y3215603D01*
Y3190211D01*
X1854221Y3177515D01*
Y3253691D02*
X1841525Y3266387D01*
Y3291779D01*
X1854221Y3304474D01*
X1866917D01*
X1879612Y3291779D01*
X1892308Y3304474D01*
X1905004D01*
X1917700Y3291779D01*
Y3266387D01*
X1905004Y3253691D01*
X1892308D01*
X1879612Y3266387D01*
X1866917Y3253691D01*
X1854221D01*
X1879612Y3266387D02*
Y3291779D01*
X2286021Y10911823D02*
X2273325Y10899128D01*
Y10873736D01*
X2286021Y10861040D01*
X2336804D01*
X2349500Y10873736D01*
Y10899128D01*
X2336804Y10911823D01*
X2349500Y10987999D02*
Y10937215D01*
X2298717Y10987999D01*
X2286021D01*
X2273325Y10975303D01*
Y10949911D01*
X2286021Y10937215D01*
X2273325Y11013391D02*
Y11064174D01*
X2286021D01*
X2336804Y11013391D01*
X2349500D01*
X2070121Y10911823D02*
X2057425Y10899128D01*
Y10873736D01*
X2070121Y10861040D01*
X2120904D01*
X2133600Y10873736D01*
Y10899128D01*
X2120904Y10911823D01*
X2133600Y10987999D02*
Y10937215D01*
X2082817Y10987999D01*
X2070121D01*
X2057425Y10975303D01*
Y10949911D01*
X2070121Y10937215D01*
X2057425Y11064174D02*
X2070121Y11038783D01*
X2095512Y11013391D01*
X2120904D01*
X2133600Y11026087D01*
Y11051479D01*
X2120904Y11064174D01*
X2108208D01*
X2095512Y11051479D01*
Y11013391D01*
X1854221Y10911823D02*
X1841525Y10899128D01*
Y10873736D01*
X1854221Y10861040D01*
X1905004D01*
X1917700Y10873736D01*
Y10899128D01*
X1905004Y10911823D01*
X1917700Y10987999D02*
Y10937215D01*
X1866917Y10987999D01*
X1854221D01*
X1841525Y10975303D01*
Y10949911D01*
X1854221Y10937215D01*
X1841525Y11064174D02*
Y11013391D01*
X1879612D01*
X1866917Y11038783D01*
Y11051479D01*
X1879612Y11064174D01*
X1905004D01*
X1917700Y11051479D01*
Y11026087D01*
X1905004Y11013391D01*
X12976843Y5359379D02*
X12964148Y5372075D01*
X12938756D01*
X12926060Y5359379D01*
Y5308596D01*
X12938756Y5295900D01*
X12964148D01*
X12976843Y5308596D01*
X13053020Y5295900D02*
X13002235D01*
X13053020Y5346683D01*
Y5359379D01*
X13040323Y5372075D01*
X13014931D01*
X13002235Y5359379D01*
X13116499Y5295900D02*
Y5372075D01*
X13078410Y5333988D01*
X13129195D01*
X12976843Y5143479D02*
X12964148Y5156175D01*
X12938756D01*
X12926060Y5143479D01*
Y5092696D01*
X12938756Y5080000D01*
X12964148D01*
X12976843Y5092696D01*
X13053020Y5080000D02*
X13002235D01*
X13053020Y5130783D01*
Y5143479D01*
X13040323Y5156175D01*
X13014931D01*
X13002235Y5143479D01*
X13078410D02*
X13091107Y5156175D01*
X13116499D01*
X13129195Y5143479D01*
Y5130783D01*
X13116499Y5118088D01*
X13103802D01*
X13116499D01*
X13129195Y5105392D01*
Y5092696D01*
X13116499Y5080000D01*
X13091107D01*
X13078410Y5092696D01*
X12976843Y4927579D02*
X12964148Y4940275D01*
X12938756D01*
X12926060Y4927579D01*
Y4876796D01*
X12938756Y4864100D01*
X12964148D01*
X12976843Y4876796D01*
X13053020Y4864100D02*
X13002235D01*
X13053020Y4914883D01*
Y4927579D01*
X13040323Y4940275D01*
X13014931D01*
X13002235Y4927579D01*
X13129195Y4864100D02*
X13078410D01*
X13129195Y4914883D01*
Y4927579D01*
X13116499Y4940275D01*
X13091107D01*
X13078410Y4927579D01*
X12976843Y12915878D02*
X12964148Y12928575D01*
X12938756D01*
X12926060Y12915878D01*
Y12865096D01*
X12938756Y12852400D01*
X12964148D01*
X12976843Y12865096D01*
X13053020Y12852400D02*
X13002235D01*
X13053020Y12903183D01*
Y12915878D01*
X13040323Y12928575D01*
X13014931D01*
X13002235Y12915878D01*
X13078410Y12852400D02*
X13103802D01*
X13091107D01*
Y12928575D01*
X13078410Y12915878D01*
X12976843Y12699979D02*
X12964148Y12712675D01*
X12938756D01*
X12926060Y12699979D01*
Y12649196D01*
X12938756Y12636500D01*
X12964148D01*
X12976843Y12649196D01*
X13053020Y12636500D02*
X13002235D01*
X13053020Y12687283D01*
Y12699979D01*
X13040323Y12712675D01*
X13014931D01*
X13002235Y12699979D01*
X13078410D02*
X13091107Y12712675D01*
X13116499D01*
X13129195Y12699979D01*
Y12649196D01*
X13116499Y12636500D01*
X13091107D01*
X13078410Y12649196D01*
Y12699979D01*
X12976843Y12484079D02*
X12964148Y12496775D01*
X12938756D01*
X12926060Y12484079D01*
Y12433296D01*
X12938756Y12420600D01*
X12964148D01*
X12976843Y12433296D01*
X13002235Y12420600D02*
X13027628D01*
X13014931D01*
Y12496775D01*
X13002235Y12484079D01*
X13065715Y12433296D02*
X13078410Y12420600D01*
X13103802D01*
X13116498Y12433296D01*
Y12484079D01*
X13103802Y12496775D01*
X13078410D01*
X13065715Y12484079D01*
Y12471383D01*
X13078410Y12458688D01*
X13116498D01*
X1976141Y7106903D02*
X1963445Y7094208D01*
Y7068816D01*
X1976141Y7056120D01*
X2026924D01*
X2039620Y7068816D01*
Y7094208D01*
X2026924Y7106903D01*
X2039620Y7132295D02*
Y7157687D01*
Y7144991D01*
X1963445D01*
X1976141Y7132295D01*
Y7195775D02*
X1963445Y7208471D01*
Y7233863D01*
X1976141Y7246558D01*
X1988837D01*
X2001532Y7233863D01*
X2014228Y7246558D01*
X2026924D01*
X2039620Y7233863D01*
Y7208471D01*
X2026924Y7195775D01*
X2014228D01*
X2001532Y7208471D01*
X1988837Y7195775D01*
X1976141D01*
X2001532Y7208471D02*
Y7233863D01*
X1976141Y8161003D02*
X1963445Y8148308D01*
Y8122916D01*
X1976141Y8110220D01*
X2026924D01*
X2039620Y8122916D01*
Y8148308D01*
X2026924Y8161003D01*
X2039620Y8186395D02*
Y8211787D01*
Y8199091D01*
X1963445D01*
X1976141Y8186395D01*
X1963445Y8249875D02*
Y8300658D01*
X1976141D01*
X2026924Y8249875D01*
X2039620D01*
X1554501Y7942563D02*
X1541805Y7929868D01*
Y7904476D01*
X1554501Y7891780D01*
X1605284D01*
X1617980Y7904476D01*
Y7929868D01*
X1605284Y7942563D01*
X1617980Y7967955D02*
Y7993347D01*
Y7980651D01*
X1541805D01*
X1554501Y7967955D01*
X1541805Y8082218D02*
X1554501Y8056827D01*
X1579892Y8031435D01*
X1605284D01*
X1617980Y8044131D01*
Y8069523D01*
X1605284Y8082218D01*
X1592588D01*
X1579892Y8069523D01*
Y8031435D01*
X1313163Y7383759D02*
X1300468Y7396455D01*
X1275076D01*
X1262380Y7383759D01*
Y7332976D01*
X1275076Y7320280D01*
X1300468D01*
X1313163Y7332976D01*
X1338555Y7320280D02*
X1363947D01*
X1351251D01*
Y7396455D01*
X1338555Y7383759D01*
X1452818Y7396455D02*
X1402035D01*
Y7358368D01*
X1427427Y7371063D01*
X1440123D01*
X1452818Y7358368D01*
Y7332976D01*
X1440123Y7320280D01*
X1414731D01*
X1402035Y7332976D01*
X1554501Y8996663D02*
X1541805Y8983968D01*
Y8958576D01*
X1554501Y8945880D01*
X1605284D01*
X1617980Y8958576D01*
Y8983968D01*
X1605284Y8996663D01*
X1617980Y9022055D02*
Y9047447D01*
Y9034751D01*
X1541805D01*
X1554501Y9022055D01*
X1617980Y9123623D02*
X1541805D01*
X1579892Y9085535D01*
Y9136318D01*
X1313163Y8437859D02*
X1300468Y8450555D01*
X1275076D01*
X1262380Y8437859D01*
Y8387076D01*
X1275076Y8374380D01*
X1300468D01*
X1313163Y8387076D01*
X1338555Y8374380D02*
X1363947D01*
X1351251D01*
Y8450555D01*
X1338555Y8437859D01*
X1402035D02*
X1414731Y8450555D01*
X1440123D01*
X1452818Y8437859D01*
Y8425163D01*
X1440123Y8412468D01*
X1427427D01*
X1440123D01*
X1452818Y8399772D01*
Y8387076D01*
X1440123Y8374380D01*
X1414731D01*
X1402035Y8387076D01*
X12184401Y8133063D02*
X12171705Y8120368D01*
Y8094976D01*
X12184401Y8082280D01*
X12235184D01*
X12247880Y8094976D01*
Y8120368D01*
X12235184Y8133063D01*
X12247880Y8158455D02*
Y8183847D01*
Y8171151D01*
X12171705D01*
X12184401Y8158455D01*
X12247880Y8272718D02*
Y8221935D01*
X12197097Y8272718D01*
X12184401D01*
X12171705Y8260023D01*
Y8234631D01*
X12184401Y8221935D01*
Y9212563D02*
X12171705Y9199868D01*
Y9174476D01*
X12184401Y9161780D01*
X12235184D01*
X12247880Y9174476D01*
Y9199868D01*
X12235184Y9212563D01*
X12247880Y9237955D02*
Y9263347D01*
Y9250651D01*
X12171705D01*
X12184401Y9237955D01*
X12247880Y9301435D02*
Y9326827D01*
Y9314131D01*
X12171705D01*
X12184401Y9301435D01*
X12606041Y7297403D02*
X12593345Y7284708D01*
Y7259316D01*
X12606041Y7246620D01*
X12656824D01*
X12669520Y7259316D01*
Y7284708D01*
X12656824Y7297403D01*
X12669520Y7322795D02*
Y7348187D01*
Y7335491D01*
X12593345D01*
X12606041Y7322795D01*
Y7386275D02*
X12593345Y7398971D01*
Y7424363D01*
X12606041Y7437058D01*
X12656824D01*
X12669520Y7424363D01*
Y7398971D01*
X12656824Y7386275D01*
X12606041D01*
X12809203Y7995899D02*
X12796508Y8008595D01*
X12771116D01*
X12758420Y7995899D01*
Y7945116D01*
X12771116Y7932420D01*
X12796508D01*
X12809203Y7945116D01*
X12834595D02*
X12847292Y7932420D01*
X12872684D01*
X12885379Y7945116D01*
Y7995899D01*
X12872684Y8008595D01*
X12847292D01*
X12834595Y7995899D01*
Y7983203D01*
X12847292Y7970508D01*
X12885379D01*
X12606041Y8351503D02*
X12593345Y8338808D01*
Y8313416D01*
X12606041Y8300720D01*
X12656824D01*
X12669520Y8313416D01*
Y8338808D01*
X12656824Y8351503D01*
X12606041Y8376895D02*
X12593345Y8389591D01*
Y8414983D01*
X12606041Y8427679D01*
X12618737D01*
X12631432Y8414983D01*
X12644128Y8427679D01*
X12656824D01*
X12669520Y8414983D01*
Y8389591D01*
X12656824Y8376895D01*
X12644128D01*
X12631432Y8389591D01*
X12618737Y8376895D01*
X12606041D01*
X12631432Y8389591D02*
Y8414983D01*
X12809203Y9049999D02*
X12796508Y9062695D01*
X12771116D01*
X12758420Y9049999D01*
Y8999216D01*
X12771116Y8986520D01*
X12796508D01*
X12809203Y8999216D01*
X12834595Y9062695D02*
X12885379D01*
Y9049999D01*
X12834595Y8999216D01*
Y8986520D01*
X1976141Y6040103D02*
X1963445Y6027408D01*
Y6002016D01*
X1976141Y5989320D01*
X2026924D01*
X2039620Y6002016D01*
Y6027408D01*
X2026924Y6040103D01*
X1963445Y6116279D02*
X1976141Y6090887D01*
X2001532Y6065495D01*
X2026924D01*
X2039620Y6078191D01*
Y6103583D01*
X2026924Y6116279D01*
X2014228D01*
X2001532Y6103583D01*
Y6065495D01*
X12184401Y7142463D02*
X12171705Y7129768D01*
Y7104376D01*
X12184401Y7091680D01*
X12235184D01*
X12247880Y7104376D01*
Y7129768D01*
X12235184Y7142463D01*
X12171705Y7218639D02*
Y7167855D01*
X12209792D01*
X12197097Y7193247D01*
Y7205943D01*
X12209792Y7218639D01*
X12235184D01*
X12247880Y7205943D01*
Y7180551D01*
X12235184Y7167855D01*
X1554501Y6939263D02*
X1541805Y6926568D01*
Y6901176D01*
X1554501Y6888480D01*
X1605284D01*
X1617980Y6901176D01*
Y6926568D01*
X1605284Y6939263D01*
X1617980Y7002743D02*
X1541805D01*
X1579892Y6964655D01*
Y7015439D01*
X1376663Y6316959D02*
X1363968Y6329655D01*
X1338576D01*
X1325880Y6316959D01*
Y6266176D01*
X1338576Y6253480D01*
X1363968D01*
X1376663Y6266176D01*
X1402055Y6316959D02*
X1414751Y6329655D01*
X1440143D01*
X1452839Y6316959D01*
Y6304263D01*
X1440143Y6291568D01*
X1427447D01*
X1440143D01*
X1452839Y6278872D01*
Y6266176D01*
X1440143Y6253480D01*
X1414751D01*
X1402055Y6266176D01*
X12606041Y6243303D02*
X12593345Y6230608D01*
Y6205216D01*
X12606041Y6192520D01*
X12656824D01*
X12669520Y6205216D01*
Y6230608D01*
X12656824Y6243303D01*
X12669520Y6319479D02*
Y6268695D01*
X12618737Y6319479D01*
X12606041D01*
X12593345Y6306783D01*
Y6281391D01*
X12606041Y6268695D01*
X12809203Y6941799D02*
X12796508Y6954495D01*
X12771116D01*
X12758420Y6941799D01*
Y6891016D01*
X12771116Y6878320D01*
X12796508D01*
X12809203Y6891016D01*
X12834595Y6878320D02*
X12859987D01*
X12847292D01*
Y6954495D01*
X12834595Y6941799D01*
%TF.MD5,6f8f27f7a4bda15db4fc6045ecfff2eb*%
M02*
