G04*
G04 #@! TF.GenerationSoftware,Altium Limited,Altium Designer,23.5.1 (21)*
G04*
G04 Layer_Color=16711935*
%FSLAX44Y44*%
%MOMM*%
G71*
G04*
G04 #@! TF.SameCoordinates,C4CE3DB5-CAAC-4FC5-883F-B4FCA082C57B*
G04*
G04*
G04 #@! TF.FilePolarity,Negative*
G04*
G01*
G75*
%ADD45C,5.1920*%
%ADD46C,1.6120*%
%ADD47C,2.2120*%
%ADD48R,1.6120X1.6120*%
%ADD49C,2.1120*%
%ADD50R,1.6120X1.6120*%
%ADD51C,0.7470*%
%ADD52C,1.3820*%
D45*
X1247140Y38100D02*
D03*
X1374140Y165100D02*
D03*
Y2057400D02*
D03*
X1247140Y2184400D02*
D03*
X165100Y38100D02*
D03*
X38100Y165100D02*
D03*
Y2057400D02*
D03*
X165100Y2184400D02*
D03*
X38100D02*
D03*
Y38100D02*
D03*
X1374140Y2184400D02*
D03*
Y38100D02*
D03*
D46*
X1196340Y1183640D02*
D03*
X626110Y1324610D02*
D03*
Y548640D02*
D03*
X1196340Y427990D02*
D03*
X744220Y953770D02*
D03*
Y177800D02*
D03*
X163830Y995680D02*
D03*
X1049020Y1664970D02*
D03*
X1023620D02*
D03*
X515620Y1614170D02*
D03*
X490220D02*
D03*
X347980Y2096770D02*
D03*
X1226820Y1183640D02*
D03*
X340360Y1243330D02*
D03*
X365760Y1268730D02*
D03*
X340360D02*
D03*
X365760Y1294130D02*
D03*
X340360D02*
D03*
Y467360D02*
D03*
X365760Y492760D02*
D03*
X340360D02*
D03*
X365760Y518160D02*
D03*
X340360D02*
D03*
X656590Y548640D02*
D03*
X774700Y177800D02*
D03*
X447040Y501650D02*
D03*
X990600Y90170D02*
D03*
X965200D02*
D03*
X939800D02*
D03*
X914400D02*
D03*
X889000D02*
D03*
X635000Y279400D02*
D03*
X704850Y314960D02*
D03*
X340360Y403860D02*
D03*
X365760Y373380D02*
D03*
X1078230Y487680D02*
D03*
X1052830Y457200D02*
D03*
X1078230Y403860D02*
D03*
X1052830Y373380D02*
D03*
X704850Y1090930D02*
D03*
X447040Y1277620D02*
D03*
X1078230Y1179830D02*
D03*
X1052830Y1149350D02*
D03*
X1078230Y1263650D02*
D03*
X1052830Y1233170D02*
D03*
X340360Y1179830D02*
D03*
X365760Y1149350D02*
D03*
X635000Y1055370D02*
D03*
X990600Y866140D02*
D03*
X965200D02*
D03*
X939800D02*
D03*
X914400D02*
D03*
X889000D02*
D03*
X774700Y953770D02*
D03*
X656590Y1324610D02*
D03*
X1216660Y651510D02*
D03*
X204470Y669290D02*
D03*
X229870Y775970D02*
D03*
Y831850D02*
D03*
X1226820Y427990D02*
D03*
X617220Y1614170D02*
D03*
X668020D02*
D03*
X642620D02*
D03*
X718820D02*
D03*
X693420D02*
D03*
X769620D02*
D03*
X744220D02*
D03*
X591820D02*
D03*
X1049020Y1690370D02*
D03*
X1023620D02*
D03*
X1049020Y1766570D02*
D03*
Y1741170D02*
D03*
Y1715770D02*
D03*
Y1791970D02*
D03*
X1023620Y1766570D02*
D03*
Y1741170D02*
D03*
Y1715770D02*
D03*
Y1791970D02*
D03*
X1049020Y1893570D02*
D03*
Y1868170D02*
D03*
X1023620D02*
D03*
X1049020Y1842770D02*
D03*
X1023620D02*
D03*
X1049020Y1817370D02*
D03*
X1023620D02*
D03*
Y1893570D02*
D03*
X1049020Y1969770D02*
D03*
Y1944370D02*
D03*
Y1918970D02*
D03*
Y1995170D02*
D03*
X1023620Y1969770D02*
D03*
Y1944370D02*
D03*
Y1918970D02*
D03*
Y1995170D02*
D03*
X795020Y2096770D02*
D03*
X845820D02*
D03*
X820420D02*
D03*
X896620D02*
D03*
X871220D02*
D03*
X947420D02*
D03*
X922020D02*
D03*
X769620D02*
D03*
X566420D02*
D03*
X617220D02*
D03*
X591820D02*
D03*
X668020D02*
D03*
X642620D02*
D03*
X718820D02*
D03*
X693420D02*
D03*
X398780D02*
D03*
X373380D02*
D03*
X449580D02*
D03*
X424180D02*
D03*
X297180D02*
D03*
X271780D02*
D03*
X322580D02*
D03*
X500380D02*
D03*
X474980D02*
D03*
X541020D02*
D03*
X1049020D02*
D03*
Y2071370D02*
D03*
X1023620D02*
D03*
X1049020Y2045970D02*
D03*
X1023620D02*
D03*
X1049020Y2020570D02*
D03*
X1023620D02*
D03*
Y2096770D02*
D03*
X845820Y1614170D02*
D03*
X896620D02*
D03*
X871220D02*
D03*
X947420D02*
D03*
X922020D02*
D03*
X998220D02*
D03*
X972820D02*
D03*
X820420D02*
D03*
X388620D02*
D03*
X439420D02*
D03*
X414020D02*
D03*
X464820D02*
D03*
X541020D02*
D03*
X363220D02*
D03*
X265430Y636270D02*
D03*
X200660Y886460D02*
D03*
D47*
X900430Y1320800D02*
D03*
X849630D02*
D03*
X900430Y1270000D02*
D03*
X849630Y1193800D02*
D03*
Y1270000D02*
D03*
X900430Y1143000D02*
D03*
Y1193800D02*
D03*
X901700Y1066800D02*
D03*
X850900D02*
D03*
X849630Y1143000D02*
D03*
X901700Y1016000D02*
D03*
X850900D02*
D03*
X722630Y1320800D02*
D03*
X581660Y1438910D02*
D03*
Y1489710D02*
D03*
X773430Y1320800D02*
D03*
Y1270000D02*
D03*
X722630D02*
D03*
X539750Y1311910D02*
D03*
Y1362710D02*
D03*
X626110Y919480D02*
D03*
Y970280D02*
D03*
X575310Y919480D02*
D03*
Y970280D02*
D03*
X900430Y417830D02*
D03*
Y494030D02*
D03*
X901700Y290830D02*
D03*
Y240030D02*
D03*
X900430Y544830D02*
D03*
X849630Y417830D02*
D03*
Y494030D02*
D03*
X900430Y367030D02*
D03*
X850900Y290830D02*
D03*
X849630Y367030D02*
D03*
Y544830D02*
D03*
X850900Y240030D02*
D03*
X722630Y544830D02*
D03*
X581660Y662940D02*
D03*
Y713740D02*
D03*
X773430Y544830D02*
D03*
Y494030D02*
D03*
X722630D02*
D03*
X539750Y535940D02*
D03*
Y586740D02*
D03*
X626110Y143510D02*
D03*
Y194310D02*
D03*
X575310Y143510D02*
D03*
Y194310D02*
D03*
X530860Y1489710D02*
D03*
Y1438910D02*
D03*
X488950Y1311910D02*
D03*
Y1362710D02*
D03*
X530860Y713740D02*
D03*
Y662940D02*
D03*
X499110Y970280D02*
D03*
Y919480D02*
D03*
X488950Y535940D02*
D03*
Y586740D02*
D03*
X448310Y919480D02*
D03*
Y970280D02*
D03*
X499110Y194310D02*
D03*
Y143510D02*
D03*
X448310D02*
D03*
Y194310D02*
D03*
D48*
X365760Y1243330D02*
D03*
Y467360D02*
D03*
X163830Y970280D02*
D03*
X229870Y806450D02*
D03*
D49*
X600710Y168910D02*
D03*
X514350Y561340D02*
D03*
X473710Y168910D02*
D03*
X748030Y519430D02*
D03*
X556260Y688340D02*
D03*
X875030Y519430D02*
D03*
X876300Y265430D02*
D03*
X875030Y392430D02*
D03*
X876300Y1041400D02*
D03*
X875030Y1168400D02*
D03*
X556260Y1464310D02*
D03*
X875030Y1295400D02*
D03*
X473710Y944880D02*
D03*
X748030Y1295400D02*
D03*
X600710Y944880D02*
D03*
X514350Y1337310D02*
D03*
D50*
X1016000Y90170D02*
D03*
X365760Y403860D02*
D03*
X340360Y373380D02*
D03*
X1052830Y487680D02*
D03*
X1078230Y457200D02*
D03*
X1052830Y403860D02*
D03*
X1078230Y373380D02*
D03*
X1052830Y1179830D02*
D03*
X1078230Y1149350D02*
D03*
X1052830Y1263650D02*
D03*
X1078230Y1233170D02*
D03*
X365760Y1179830D02*
D03*
X340360Y1149350D02*
D03*
X1016000Y866140D02*
D03*
X1191260Y651510D02*
D03*
X229870Y669290D02*
D03*
X204470Y775970D02*
D03*
D51*
X515210Y389030D02*
D03*
X526210D02*
D03*
X537210D02*
D03*
X548210D02*
D03*
X559210D02*
D03*
X515210Y378030D02*
D03*
X526210D02*
D03*
X537210D02*
D03*
X548210D02*
D03*
X559210D02*
D03*
X515210Y367030D02*
D03*
X526210D02*
D03*
X537210D02*
D03*
X548210D02*
D03*
X559210D02*
D03*
X515210Y356030D02*
D03*
X526210D02*
D03*
X537210D02*
D03*
X548210D02*
D03*
X559210D02*
D03*
X515210Y345030D02*
D03*
X526210D02*
D03*
X537210D02*
D03*
X548210D02*
D03*
X559210D02*
D03*
X515210Y1165000D02*
D03*
X526210D02*
D03*
X537210D02*
D03*
X548210D02*
D03*
X559210D02*
D03*
X515210Y1154000D02*
D03*
X526210D02*
D03*
X537210D02*
D03*
X548210D02*
D03*
X559210D02*
D03*
X515210Y1143000D02*
D03*
X526210D02*
D03*
X537210D02*
D03*
X548210D02*
D03*
X559210D02*
D03*
X515210Y1132000D02*
D03*
X526210D02*
D03*
X537210D02*
D03*
X548210D02*
D03*
X559210D02*
D03*
X515210Y1121000D02*
D03*
X526210D02*
D03*
X537210D02*
D03*
X548210D02*
D03*
X559210D02*
D03*
X339090Y1046480D02*
D03*
X774700Y261620D02*
D03*
X872964Y578624D02*
D03*
X828040Y742950D02*
D03*
X847090Y721360D02*
D03*
X952280Y321208D02*
D03*
X1286510Y533400D02*
D03*
X1287780Y1267460D02*
D03*
Y1289050D02*
D03*
Y1245870D02*
D03*
X1266190Y581660D02*
D03*
X1085564Y1655174D02*
D03*
X721360Y1644650D02*
D03*
X721633Y1693180D02*
D03*
X732790Y1634490D02*
D03*
X734060Y1681480D02*
D03*
X641052Y1380634D02*
D03*
X1098550Y1667510D02*
D03*
X1216660Y1713865D02*
D03*
X1115060Y1720365D02*
D03*
X1149350Y1821180D02*
D03*
X1170940D02*
D03*
X1192530D02*
D03*
X1115060Y1700530D02*
D03*
X1286510Y490220D02*
D03*
Y511810D02*
D03*
X205740Y336550D02*
D03*
X163111Y438174D02*
D03*
X162560Y403860D02*
D03*
X172720Y360680D02*
D03*
X187673Y337062D02*
D03*
X228313D02*
D03*
X205740Y314325D02*
D03*
X193040Y319405D02*
D03*
X705590Y624433D02*
D03*
X705380Y645795D02*
D03*
X705634Y1399540D02*
D03*
X704850Y1421130D02*
D03*
X231140Y1112520D02*
D03*
X209550D02*
D03*
X187960D02*
D03*
X427990Y351790D02*
D03*
Y373380D02*
D03*
Y417195D02*
D03*
Y396240D02*
D03*
Y1192530D02*
D03*
Y1170940D02*
D03*
Y1127760D02*
D03*
Y1149350D02*
D03*
X476250Y1176020D02*
D03*
X479158Y1187695D02*
D03*
X439420Y1494155D02*
D03*
X425450D02*
D03*
X411480D02*
D03*
X397510D02*
D03*
X453390D02*
D03*
X340360Y1502410D02*
D03*
X36830Y1437640D02*
D03*
X69850Y1430020D02*
D03*
X36830Y1493520D02*
D03*
Y1479550D02*
D03*
Y1465580D02*
D03*
Y1451610D02*
D03*
X502920Y1201420D02*
D03*
X481330D02*
D03*
X778203Y891714D02*
D03*
X738389Y934720D02*
D03*
X706120Y703580D02*
D03*
X705433Y662047D02*
D03*
X538480Y1080770D02*
D03*
X214630Y276860D02*
D03*
X516659Y309245D02*
D03*
X317500Y275590D02*
D03*
X537210Y303530D02*
D03*
X528320Y312420D02*
D03*
X203928Y283806D02*
D03*
X304922Y212212D02*
D03*
X205740Y303530D02*
D03*
X479165Y414392D02*
D03*
X478790Y384810D02*
D03*
Y1160780D02*
D03*
X529590Y1092200D02*
D03*
X476234Y400330D02*
D03*
X101600Y1027430D02*
D03*
X137160D02*
D03*
X92710Y1016000D02*
D03*
X128270D02*
D03*
X119380Y1027430D02*
D03*
X110490Y1016000D02*
D03*
X118110Y939800D02*
D03*
X145625Y950506D02*
D03*
X127000Y951230D02*
D03*
X135890Y939800D02*
D03*
X109220Y951230D02*
D03*
X100330Y939800D02*
D03*
X234950Y527050D02*
D03*
Y513080D02*
D03*
X236220Y496570D02*
D03*
X237490Y546100D02*
D03*
X229870Y562610D02*
D03*
X233680Y581660D02*
D03*
X295910Y516890D02*
D03*
X279400Y527050D02*
D03*
X292100Y537210D02*
D03*
X279400Y546100D02*
D03*
X290830Y558800D02*
D03*
X280670Y571500D02*
D03*
X434340Y725170D02*
D03*
X431800Y701040D02*
D03*
X718820Y721360D02*
D03*
X218440Y1023620D02*
D03*
X210820Y1009650D02*
D03*
X227330Y1010920D02*
D03*
X226060Y1037590D02*
D03*
X215900Y1047750D02*
D03*
X227330Y1057910D02*
D03*
X173990Y1046480D02*
D03*
X176530Y1031240D02*
D03*
X260350Y990600D02*
D03*
X261620Y1005840D02*
D03*
X256540Y1018540D02*
D03*
X259080Y1032510D02*
D03*
X260350Y1046480D02*
D03*
X267970Y1057910D02*
D03*
X1266190Y572770D02*
D03*
X1206500Y554990D02*
D03*
Y568960D02*
D03*
X151130Y1179830D02*
D03*
X294010Y1166636D02*
D03*
X308924Y1162471D02*
D03*
X769135Y132565D02*
D03*
X725170Y104775D02*
D03*
X773714Y111255D02*
D03*
X767080Y142240D02*
D03*
X259080Y439420D02*
D03*
Y420370D02*
D03*
X232410Y471170D02*
D03*
Y453390D02*
D03*
X201930Y650240D02*
D03*
X718820Y182880D02*
D03*
X728980Y158750D02*
D03*
X720321Y960351D02*
D03*
X769135Y908535D02*
D03*
X751205Y928370D02*
D03*
X725170Y880745D02*
D03*
X767080Y918210D02*
D03*
X633730Y675640D02*
D03*
X689610Y817880D02*
D03*
X1173480Y1183640D02*
D03*
X1223983Y670560D02*
D03*
X1219200Y775970D02*
D03*
X614680Y847090D02*
D03*
X706120Y820420D02*
D03*
Y889000D02*
D03*
X704850Y44450D02*
D03*
X706120Y113030D02*
D03*
X192405Y862330D02*
D03*
X341630Y1036955D02*
D03*
X320040Y1000760D02*
D03*
X307340Y988060D02*
D03*
X313812Y1006988D02*
D03*
X325370Y1020830D02*
D03*
X317500Y250190D02*
D03*
X304800Y262890D02*
D03*
X317500Y224790D02*
D03*
X304800Y237490D02*
D03*
X201930Y756920D02*
D03*
X657860Y74930D02*
D03*
X689610Y41910D02*
D03*
X789940Y759460D02*
D03*
X631825Y457200D02*
D03*
X645348Y446641D02*
D03*
X988060Y389890D02*
D03*
X636662Y397702D02*
D03*
X657860Y408940D02*
D03*
X641052Y604664D02*
D03*
X582930Y613410D02*
D03*
X641052Y588154D02*
D03*
X582930Y596900D02*
D03*
X580390Y539750D02*
D03*
X749300Y152400D02*
D03*
X698500Y262890D02*
D03*
X716280Y273050D02*
D03*
X789940Y637540D02*
D03*
Y576580D02*
D03*
X662940Y109220D02*
D03*
X614680Y71120D02*
D03*
X789940Y698500D02*
D03*
X847090Y660400D02*
D03*
Y599440D02*
D03*
X689610Y402590D02*
D03*
Y377190D02*
D03*
Y351790D02*
D03*
X478790Y330200D02*
D03*
Y351790D02*
D03*
X481330Y425450D02*
D03*
X502920D02*
D03*
X608330Y292100D02*
D03*
X631825Y1233170D02*
D03*
X582930Y1389380D02*
D03*
X641052Y1364124D02*
D03*
X582930Y1372870D02*
D03*
X698500Y1038860D02*
D03*
X657860Y1184910D02*
D03*
X662940Y885190D02*
D03*
X633730Y1451610D02*
D03*
X709930Y1454150D02*
D03*
X689610Y1127760D02*
D03*
Y1153160D02*
D03*
Y1178560D02*
D03*
X645348Y1222611D02*
D03*
X580390Y1315720D02*
D03*
X1173480Y427990D02*
D03*
X1219200Y881380D02*
D03*
X478790Y373380D02*
D03*
X828040Y681990D02*
D03*
Y621030D02*
D03*
X497840Y308610D02*
D03*
X608330Y1068070D02*
D03*
X516890Y1084580D02*
D03*
X478790Y1106170D02*
D03*
Y1127760D02*
D03*
X847090Y1375410D02*
D03*
Y1436370D02*
D03*
Y1497330D02*
D03*
X995680Y1294130D02*
D03*
X716280Y1049020D02*
D03*
X636662Y1173672D02*
D03*
X657860Y850900D02*
D03*
X789940Y1474470D02*
D03*
Y1413510D02*
D03*
X828040Y1457960D02*
D03*
Y1397000D02*
D03*
X789940Y1352550D02*
D03*
Y1535430D02*
D03*
X828040Y1518920D02*
D03*
X952280Y1097178D02*
D03*
X988060Y1165860D02*
D03*
X478790Y1149350D02*
D03*
X497840Y1084580D02*
D03*
D52*
X996950Y1009650D02*
D03*
X868680Y967740D02*
D03*
X807723Y877265D02*
D03*
X1094740Y1082040D02*
D03*
X1179830Y1614170D02*
D03*
X1096010Y1391920D02*
D03*
X1037590Y715010D02*
D03*
X880110Y728980D02*
D03*
X690880Y763270D02*
D03*
X1351280Y1501140D02*
D03*
X1224280Y1626870D02*
D03*
X1278890Y284480D02*
D03*
X1272540Y1657350D02*
D03*
X1283970Y857250D02*
D03*
X1037590Y1465580D02*
D03*
X1036320Y1621790D02*
D03*
X933450Y1188720D02*
D03*
X773430Y1049020D02*
D03*
X933450Y1125220D02*
D03*
X963930Y1225550D02*
D03*
X993140Y1273810D02*
D03*
X1026160Y1301750D02*
D03*
X1165860Y1720850D02*
D03*
X1247140Y1314450D02*
D03*
X1047750Y932180D02*
D03*
Y953770D02*
D03*
Y975360D02*
D03*
Y156210D02*
D03*
Y177800D02*
D03*
Y198120D02*
D03*
X260350Y313055D02*
D03*
X548640Y251460D02*
D03*
X528320D02*
D03*
X506730D02*
D03*
X485140D02*
D03*
X462280Y228600D02*
D03*
X548640Y1029970D02*
D03*
X528320D02*
D03*
X506730D02*
D03*
X485140D02*
D03*
X445770Y1233170D02*
D03*
X431800Y1318260D02*
D03*
X453390Y1319530D02*
D03*
X422910Y1304290D02*
D03*
X413385Y1286510D02*
D03*
X1146810Y1113790D02*
D03*
X1182370Y1134110D02*
D03*
X1193800Y943610D02*
D03*
X1182370Y869950D02*
D03*
X857250Y808990D02*
D03*
X844550Y855980D02*
D03*
X689610Y678180D02*
D03*
X1244727Y563880D02*
D03*
X255270Y349250D02*
D03*
X397510Y1281430D02*
D03*
X195580Y217170D02*
D03*
X187960Y231140D02*
D03*
X151130Y273050D02*
D03*
X165100Y259080D02*
D03*
X175260Y242570D02*
D03*
X255270Y279400D02*
D03*
X259779Y297751D02*
D03*
X238760Y288290D02*
D03*
X278130Y330200D02*
D03*
X137160Y886460D02*
D03*
X1145540Y937260D02*
D03*
X929640Y171450D02*
D03*
X943610Y226060D02*
D03*
X807720Y97790D02*
D03*
X899776Y950614D02*
D03*
X943610Y1016000D02*
D03*
X948690Y538480D02*
D03*
X1216660Y755650D02*
D03*
X1059180Y557530D02*
D03*
X1160183Y487083D02*
D03*
X1108710Y535940D02*
D03*
X1029970Y824230D02*
D03*
X1055370Y781050D02*
D03*
X1009650Y1071880D02*
D03*
X1008380Y294640D02*
D03*
X845820Y765810D02*
D03*
X753110Y853440D02*
D03*
X341617Y917673D02*
D03*
X204036Y410514D02*
D03*
X137160Y674370D02*
D03*
Y781050D02*
D03*
X166370Y1139190D02*
D03*
X1283970Y646430D02*
D03*
Y751840D02*
D03*
X1002030Y125730D02*
D03*
X445770Y311150D02*
D03*
Y457200D02*
D03*
X759460Y224790D02*
D03*
X796290Y124460D02*
D03*
X753110Y77470D02*
D03*
X762000Y60960D02*
D03*
Y836930D02*
D03*
X759460Y1000760D02*
D03*
X1002030Y901700D02*
D03*
X948690Y355600D02*
D03*
X462280Y1004570D02*
D03*
X690880Y1454150D02*
D03*
X948690Y1131570D02*
D03*
X946150Y1304290D02*
D03*
X445770Y1087120D02*
D03*
M02*
