M48
;Layer_Color=9474304
;FILE_FORMAT=2:4
INCH,TZ
;TYPE=PLATED
T1F00S00C0.0150
T2F00S00C0.0280
T3F00S00C0.0354
T4F00S00C0.0591
T5F00S00C0.0630
T6F00S00C0.1000
%
T01
X8029Y11173
X8450Y10900
X8100Y11950
Y12375
X7600Y12575
X12500Y10850
Y9850
X12000Y10350
Y9350
X12005Y8355
X12500Y8850
X19600Y12150
X20341Y12175
X20800Y12300
X21150Y11950
X23950Y11500
X24200Y2800
X25900Y2950
X26100Y4300
X27800Y4450
X28550Y4125
X30461Y4380
X30281Y5219
X30200Y5600
X29500Y6000
X28700Y6250
X28300Y7200
X28200Y10750
X27500Y10350
X30500Y10300
X37491Y12646
X27750Y1750
X27150Y1650
X46200Y16850
X47500Y21850
Y22400
X49850Y22550
Y22900
X50650Y21000
Y20150
Y19300
X48188Y26400
X33350Y26000
X32600Y26850
X31100Y27500
Y25100
X32600Y24450
X33350Y23600
X34369Y22780
X31100Y22700
X27779Y24584
X27771Y25425
X27773Y26065
X27800Y27700
X25238Y23806
Y23156
X25407Y17584
X25900Y16100
X27150Y15850
Y14850
Y13850
X38900Y15350
X25065Y15658
X24875Y18000
X22850Y21250
X22950Y23500
Y24150
X24950Y26600
X17000Y27600
X11050Y22500
X11450Y22000
X11500Y21150
X11000Y21500
Y20750
X11650Y20350
X10200Y17300
Y16550
X16850Y16425
Y15600
Y14700
Y13850
X18850
Y13000
Y14700
Y15150
X18749Y15761
X18865Y16315
X18950Y16750
X19800
X20284Y15316
X20717
X21150
X21583
X22016
Y14883
X21583
X21150
X20717
X20284
Y14450
X20717
X21150
X21583
X22016
Y14017
X21583
X21150
X20717
X20284
Y13584
X20717
X21150
X21583
X22016
X8989Y13270
X8100Y13250
X7389Y13270
X6800Y14200
X6400Y15900
X6422Y17251
X9150Y17850
Y18550
X9300Y19550
X9250Y20200
Y20750
X9350Y21500
X9050Y22150
X9200Y22900
X7950Y25600
Y29800
X7575Y33950
X5350Y37000
X4650
X3950
X4300Y37450
X5000
X5733Y37421
X5050Y40000
X4350
X3650
X4000Y40450
X4700
X5400
X6950Y40600
X6850Y41200
X8500Y41250
X8900Y40850
X8600Y40300
X8300Y39750
X8950Y39800
Y41650
X9100Y43800
X8250
X7400
X10550Y41650
X10250Y41200
X10200Y40650
X10100Y40100
X10300Y39600
X10250Y39000
X12100Y38900
X12600Y39400
X12355Y39645
X12810Y40190
X13450Y40825
X13350Y41200
X19600Y42700
X20350
X20850Y43000
X21200Y42550
X23950Y42050
X18850Y43550
X24200Y33350
X17100Y28550
X28300Y28400
X31100Y29900
X32600Y29250
X33350Y28400
X30638Y35107
X30281Y35769
X30200Y36150
X29575Y36550
X29070Y36800
X28359Y37809
X28550Y34675
X27800Y35000
X26100Y34850
X25900Y33500
X27150Y32200
X27800Y32300
X27500Y40900
X28200Y41300
X37491Y43196
X48000Y34700
Y30550
X46200Y46600
X50700Y49050
Y49900
Y50750
X39200Y50950
X38900Y45900
X27150Y45400
Y44400
Y46400
X25900Y46650
X25407Y48134
X25238Y53706
Y54356
X27781Y55100
X27750Y55950
X27950Y57250
X31100Y58050
X32600Y57400
X33350Y56550
X32600Y55000
X33350Y54150
X31100Y53250
Y55650
X33350Y58950
X24950Y57150
X22950Y54700
Y54050
X22850Y51800
X24875Y48550
X25065Y46208
X22016Y45866
X21583
X21150
X20717
X20284
Y45433
X20717
X21150
X21583
X22016
Y45000
X21583
X21150
X20717
X20284
Y44567
X20717
X21150
X21583
X22016
Y44134
X21583
X21150
X20717
X20284
X18850Y44400
Y45250
Y45700
X18750Y46300
X18864Y46760
X18950Y47300
X19800
X16850Y46950
Y46100
Y45250
Y44400
X12162Y45767
X11575Y45931
X13400Y59150
X15650Y58825
X16200
X16750
X17300
X17850
X1450Y58800
Y58250
Y57700
Y57150
Y56600
X2750Y56300
X5950Y46450
X31100Y60450
X32600Y59800
X28850Y64350
X28400Y64750
X28411Y66661
X28900Y66200
X42739Y65164
X43250Y65650
X43900Y66950
Y67731
X43551Y69564
X45250Y71700
X46100
X46950
X47900Y67475
T02
X7700Y8550
X7400Y9100
X6900Y9550
X6500Y10200
X5950Y10750
X9400Y11350
X10050Y11000
X10228Y11722
X10250Y12325
X17550Y12250
X19100Y9900
X19950
X20800
X21600
X18200Y9000
X29900Y8850
X31350Y4900
X31800Y3850
X29650Y3050
X30000Y2400
X36600Y6750
X37150Y8900
X39700Y11600
X39450Y4950
X41250Y6150
Y7000
Y7800
X50350Y11200
X49005Y22200
X50550Y25450
X45676Y19176
X43650Y21100
X41700Y21950
X40850Y28150
X37350Y21200
Y14000
X27150Y26700
X17550Y18000
X10950Y13000
X10050Y13750
X8033Y16162
X5400Y26550
Y30750
Y34900
X13449Y36129
X18200Y39550
X19100Y40550
X19950
X20800
X21600
X17550Y42800
X30450Y41300
X29900Y39400
X34200Y38100
X35424Y37426
X37150Y40000
X39250Y39750
X39750Y42200
X39450Y35500
X40550Y32450
X33750Y31850
X33300Y30150
X34650Y28700
X33250Y33700
X31800Y34538
X29650Y33600
X30000Y32950
X27200Y30050
X41550Y30750
X41250Y36700
Y37550
Y38400
X45100Y36900
X47000Y37150
X46550Y34250
X50550Y33750
Y29600
X47900Y29750
X45150Y43850
X43100Y42600
X46550Y44650
X49100Y51750
X43150Y54800
X40850Y57700
X53200Y59100
X40400Y51250
X39100Y50150
X37950Y48250
X36750Y46800
Y44300
X37350Y44550
X37250Y51350
X27200Y57250
X17850Y51950
X17000Y51900
X16650Y51350
X16275Y50650
X15650Y50450
X17550Y48550
X6550Y44850
X40800Y63850
X46450Y63550
X48200Y64050
X50100Y65250
X45900Y67750
T03
X25000Y11000
X27750Y12400
X29300Y7000
X30500
X35000Y3550
X36000
X37000
X38000
X39000
X40000
X41450Y14700
X42450
Y15900
X41450
Y18000
X42450
Y19200
X41450
X47100Y16850
X48300
X47900Y25650
X46900
X25850Y21600
X24650
X17600Y19750
X14400Y19400
Y18400
X13400
Y19400
Y20400
X14400
Y15900
X13400
Y14700
X14400
X10450Y25050
X9050Y26350
X8050
Y30550
X9050
Y31750
Y32750
X7900Y34900
X6450Y38200
Y39200
X25000Y41550
X27750Y42950
X29300Y37550
X30500
X35000Y34100
X36000
X37000
X38000
X39000
X40000
X41450Y45250
X42450
Y46450
X41450
Y48550
X42450
Y49750
X41450
X47100Y46600
X48300
X25850Y52150
X24650
X17600Y50300
X14400Y49950
Y48950
X13400
Y49950
Y50950
X14400
Y46450
X13400
Y45250
X14400
X14300Y63550
X15300
X16300
X17300
X18300
X19300
X20300
X21300
X23300
X24300
X25300
X26300
X27300
X28300
X29300
X30300
X32300
X33300
X34300
X35300
X36300
X37300
X38300
X39300
X40300Y65550
Y66550
Y67550
Y68550
Y69550
Y70550
Y71550
Y72550
Y73550
Y74550
X41300
Y73550
Y72550
Y71550
Y70550
Y69550
Y68550
Y67550
Y66550
Y65550
Y75550
Y76550
Y77550
Y78550
Y79550
Y80550
Y81550
Y82550
X40300
Y81550
Y80550
Y79550
Y78550
Y77550
Y76550
Y75550
X37300Y82550
X36300
X35300
X34300
X33300
X32300
X31300
X30300
X28300
X27300
X26300
X25300
X24300
X23300
X22300
X21300
X19700
X18700
X17700
X16700
X15700
X14700
X13700
X12700
X11700
X10700
T04
X18650Y6650
X23650
X34500Y10450
X34450Y15450
Y20450
X29450
X20250Y22100
X21900Y27100
X23650Y37200
X18650
X34500Y41000
X34450Y46000
Y51000
X29450
X20250Y52650
X21900Y57650
T05
X17650Y5650
X19650
Y7650
X17650
X22650
X24650
Y5650
X22650
X33500Y9450
X35500
Y11450
X33500
X33450Y14450
Y16450
X35450
Y14450
Y19450
Y21450
X33450
Y19450
X30450
Y21450
X28450
Y19450
X21250Y21100
Y23100
X19250
Y21100
X20900Y26100
X22900
Y28100
X20900
X19650Y36200
Y38200
X17650
Y36200
X22650
X24650
Y38200
X22650
X33500Y40000
Y42000
X35500
Y40000
X35450Y45000
Y47000
X33450
Y45000
Y50000
Y52000
X35450
Y50000
X30450
Y52000
X28450
Y50000
X21250Y51650
Y53650
X19250
Y51650
X20900Y56650
X22900
Y58650
X20900
T06
X1500Y1500
X6500
X1500Y6500
X49100Y1500
X54100
Y6500
Y81000
Y86000
X49100
X6500
X1500
Y81000
M30
