G04*
G04 #@! TF.GenerationSoftware,Altium Limited,Altium Designer,22.3.1 (43)*
G04*
G04 Layer_Physical_Order=1*
G04 Layer_Color=255*
%FSLAX25Y25*%
%MOIN*%
G70*
G04*
G04 #@! TF.SameCoordinates,E19C0AB1-6057-4413-9D38-1CFD4383DBF5*
G04*
G04*
G04 #@! TF.FilePolarity,Positive*
G04*
G01*
G75*
%ADD12C,0.01000*%
%ADD36R,0.03150X0.03740*%
%ADD37R,0.03740X0.03150*%
%ADD38R,0.03740X0.04134*%
%ADD39R,0.01772X0.05807*%
G04:AMPARAMS|DCode=40|XSize=23.62mil|YSize=39.37mil|CornerRadius=2.01mil|HoleSize=0mil|Usage=FLASHONLY|Rotation=90.000|XOffset=0mil|YOffset=0mil|HoleType=Round|Shape=RoundedRectangle|*
%AMROUNDEDRECTD40*
21,1,0.02362,0.03535,0,0,90.0*
21,1,0.01961,0.03937,0,0,90.0*
1,1,0.00402,0.01768,0.00980*
1,1,0.00402,0.01768,-0.00980*
1,1,0.00402,-0.01768,-0.00980*
1,1,0.00402,-0.01768,0.00980*
%
%ADD40ROUNDEDRECTD40*%
%ADD41R,0.04134X0.03740*%
%ADD42R,0.01181X0.03347*%
%ADD43R,0.03583X0.04803*%
%ADD44O,0.00787X0.03543*%
%ADD45O,0.03543X0.00787*%
%ADD46R,0.15748X0.15748*%
%ADD47C,0.03000*%
%ADD48C,0.01500*%
%ADD49C,0.02000*%
%ADD50R,0.05000X0.20000*%
%ADD51R,0.04000X0.04000*%
%ADD52R,0.01500X0.02500*%
%ADD53R,0.03500X0.03500*%
%ADD54R,0.05000X0.20500*%
%ADD55R,0.13500X0.39500*%
%ADD56R,0.21500X0.04500*%
%ADD57C,0.05800*%
%ADD58C,0.08268*%
%ADD59C,0.07874*%
%ADD60C,0.05906*%
%ADD61R,0.05906X0.05906*%
%ADD62C,0.20000*%
%ADD63R,0.05906X0.05906*%
%ADD64C,0.03400*%
%ADD65C,0.06500*%
%ADD66C,0.02500*%
G36*
X339471Y1529D02*
X1529D01*
Y404971D01*
X339471D01*
Y1529D01*
D02*
G37*
%LPC*%
G36*
X327000Y402479D02*
Y392500D01*
X336979D01*
X336729Y394076D01*
X336194Y395723D01*
X335408Y397265D01*
X334390Y398666D01*
X333166Y399890D01*
X331765Y400908D01*
X330223Y401694D01*
X328576Y402229D01*
X327000Y402479D01*
D02*
G37*
G36*
X16000D02*
Y392500D01*
X25979D01*
X25729Y394076D01*
X25194Y395723D01*
X24408Y397265D01*
X23390Y398666D01*
X22166Y399890D01*
X20765Y400908D01*
X19222Y401694D01*
X17576Y402229D01*
X16000Y402479D01*
D02*
G37*
G36*
X325000D02*
X323424Y402229D01*
X321778Y401694D01*
X320235Y400908D01*
X318834Y399890D01*
X317610Y398666D01*
X316592Y397265D01*
X315806Y395723D01*
X315271Y394076D01*
X315021Y392500D01*
X325000D01*
Y402479D01*
D02*
G37*
G36*
X14000D02*
X12424Y402229D01*
X10778Y401694D01*
X9235Y400908D01*
X7834Y399890D01*
X6610Y398666D01*
X5592Y397265D01*
X4806Y395723D01*
X4271Y394076D01*
X4021Y392500D01*
X14000D01*
Y402479D01*
D02*
G37*
G36*
X272953Y393453D02*
X270000D01*
Y390500D01*
X272953D01*
Y393453D01*
D02*
G37*
G36*
X268000D02*
X265047D01*
Y390500D01*
X268000D01*
Y393453D01*
D02*
G37*
G36*
X272953Y388500D02*
X270000D01*
Y385547D01*
X272953D01*
Y388500D01*
D02*
G37*
G36*
X268000D02*
X265047D01*
Y385547D01*
X268000D01*
Y388500D01*
D02*
G37*
G36*
X336979Y390500D02*
X327000D01*
Y380521D01*
X328576Y380771D01*
X330223Y381306D01*
X331765Y382092D01*
X333166Y383110D01*
X334390Y384334D01*
X335408Y385735D01*
X336194Y387278D01*
X336729Y388924D01*
X336979Y390500D01*
D02*
G37*
G36*
X25979D02*
X16000D01*
Y380521D01*
X17576Y380771D01*
X19222Y381306D01*
X20765Y382092D01*
X22166Y383110D01*
X23390Y384334D01*
X24408Y385735D01*
X25194Y387278D01*
X25729Y388924D01*
X25979Y390500D01*
D02*
G37*
G36*
X325000D02*
X315021D01*
X315271Y388924D01*
X315806Y387278D01*
X316592Y385735D01*
X317610Y384334D01*
X318834Y383110D01*
X320235Y382092D01*
X321778Y381306D01*
X323424Y380771D01*
X325000Y380521D01*
Y390500D01*
D02*
G37*
G36*
X14000D02*
X4021D01*
X4271Y388924D01*
X4806Y387278D01*
X5592Y385735D01*
X6610Y384334D01*
X7834Y383110D01*
X9235Y382092D01*
X10778Y381306D01*
X12424Y380771D01*
X14000Y380521D01*
Y390500D01*
D02*
G37*
G36*
X270000Y373270D02*
Y370500D01*
X272770D01*
X272634Y371005D01*
X272121Y371895D01*
X271395Y372621D01*
X270505Y373134D01*
X270000Y373270D01*
D02*
G37*
G36*
X268000D02*
X267495Y373134D01*
X266605Y372621D01*
X265879Y371895D01*
X265366Y371005D01*
X265230Y370500D01*
X268000D01*
Y373270D01*
D02*
G37*
G36*
X259455Y392953D02*
X258545D01*
X257667Y392718D01*
X256880Y392263D01*
X256237Y391620D01*
X255783Y390833D01*
X255547Y389955D01*
Y389045D01*
X255783Y388167D01*
X255959Y387862D01*
Y371033D01*
X255832Y370812D01*
X255600Y369948D01*
Y369052D01*
X255832Y368188D01*
X256279Y367412D01*
X256912Y366779D01*
X257688Y366332D01*
X258552Y366100D01*
X259448D01*
X260312Y366332D01*
X261088Y366779D01*
X261721Y367412D01*
X262168Y368188D01*
X262400Y369052D01*
Y369948D01*
X262168Y370812D01*
X262041Y371033D01*
Y387862D01*
X262217Y388167D01*
X262453Y389045D01*
Y389955D01*
X262217Y390833D01*
X261763Y391620D01*
X261120Y392263D01*
X260333Y392718D01*
X259455Y392953D01*
D02*
G37*
G36*
X249455D02*
X248545D01*
X247667Y392718D01*
X246880Y392263D01*
X246237Y391620D01*
X245782Y390833D01*
X245547Y389955D01*
Y389045D01*
X245782Y388167D01*
X245959Y387862D01*
Y371033D01*
X245832Y370812D01*
X245600Y369948D01*
Y369052D01*
X245832Y368188D01*
X246279Y367412D01*
X246912Y366779D01*
X247688Y366332D01*
X248552Y366100D01*
X249448D01*
X250312Y366332D01*
X251088Y366779D01*
X251721Y367412D01*
X252168Y368188D01*
X252400Y369052D01*
Y369948D01*
X252168Y370812D01*
X252041Y371033D01*
Y387862D01*
X252218Y388167D01*
X252453Y389045D01*
Y389955D01*
X252218Y390833D01*
X251763Y391620D01*
X251120Y392263D01*
X250333Y392718D01*
X249455Y392953D01*
D02*
G37*
G36*
X239455D02*
X238545D01*
X237667Y392718D01*
X236880Y392263D01*
X236237Y391620D01*
X235783Y390833D01*
X235547Y389955D01*
Y389045D01*
X235783Y388167D01*
X235959Y387862D01*
Y371033D01*
X235832Y370812D01*
X235600Y369948D01*
Y369052D01*
X235832Y368188D01*
X236006Y367885D01*
X236117Y367617D01*
X236175Y367594D01*
X236279Y367412D01*
X236912Y366779D01*
X237688Y366332D01*
X238552Y366100D01*
X239448D01*
X240312Y366332D01*
X241088Y366779D01*
X241721Y367412D01*
X241825Y367594D01*
X241883Y367617D01*
X241994Y367885D01*
X242168Y368188D01*
X242400Y369052D01*
Y369948D01*
X242168Y370812D01*
X242041Y371033D01*
Y387862D01*
X242217Y388167D01*
X242453Y389045D01*
Y389955D01*
X242217Y390833D01*
X241763Y391620D01*
X241120Y392263D01*
X240333Y392718D01*
X239455Y392953D01*
D02*
G37*
G36*
X229455D02*
X228545D01*
X227667Y392718D01*
X226880Y392263D01*
X226237Y391620D01*
X225782Y390833D01*
X225547Y389955D01*
Y389045D01*
X225782Y388167D01*
X225959Y387862D01*
Y371033D01*
X225832Y370812D01*
X225600Y369948D01*
Y369052D01*
X225832Y368188D01*
X226279Y367412D01*
X226912Y366779D01*
X227688Y366332D01*
X228552Y366100D01*
X229448D01*
X230312Y366332D01*
X231088Y366779D01*
X231721Y367412D01*
X232168Y368188D01*
X232400Y369052D01*
Y369948D01*
X232168Y370812D01*
X232041Y371033D01*
Y387862D01*
X232218Y388167D01*
X232453Y389045D01*
Y389955D01*
X232218Y390833D01*
X231763Y391620D01*
X231120Y392263D01*
X230333Y392718D01*
X229455Y392953D01*
D02*
G37*
G36*
X219455D02*
X218545D01*
X217667Y392718D01*
X216880Y392263D01*
X216237Y391620D01*
X215782Y390833D01*
X215547Y389955D01*
Y389045D01*
X215782Y388167D01*
X215959Y387862D01*
Y371033D01*
X215832Y370812D01*
X215600Y369948D01*
Y369052D01*
X215832Y368188D01*
X216279Y367412D01*
X216912Y366779D01*
X217688Y366332D01*
X218552Y366100D01*
X219448D01*
X220312Y366332D01*
X221088Y366779D01*
X221721Y367412D01*
X222168Y368188D01*
X222400Y369052D01*
Y369948D01*
X222168Y370812D01*
X222041Y371033D01*
Y387862D01*
X222217Y388167D01*
X222453Y389045D01*
Y389955D01*
X222217Y390833D01*
X221763Y391620D01*
X221120Y392263D01*
X220333Y392718D01*
X219455Y392953D01*
D02*
G37*
G36*
X209455D02*
X208545D01*
X207667Y392718D01*
X206880Y392263D01*
X206237Y391620D01*
X205783Y390833D01*
X205547Y389955D01*
Y389045D01*
X205783Y388167D01*
X205959Y387862D01*
Y371033D01*
X205832Y370812D01*
X205600Y369948D01*
Y369052D01*
X205832Y368188D01*
X206279Y367412D01*
X206912Y366779D01*
X207688Y366332D01*
X208552Y366100D01*
X209448D01*
X210312Y366332D01*
X211088Y366779D01*
X211721Y367412D01*
X212168Y368188D01*
X212400Y369052D01*
Y369948D01*
X212168Y370812D01*
X212041Y371033D01*
Y387862D01*
X212217Y388167D01*
X212453Y389045D01*
Y389955D01*
X212217Y390833D01*
X211763Y391620D01*
X211120Y392263D01*
X210333Y392718D01*
X209455Y392953D01*
D02*
G37*
G36*
X199455D02*
X198545D01*
X197667Y392718D01*
X196880Y392263D01*
X196237Y391620D01*
X195782Y390833D01*
X195547Y389955D01*
Y389045D01*
X195782Y388167D01*
X195959Y387862D01*
Y371033D01*
X195832Y370812D01*
X195600Y369948D01*
Y369052D01*
X195832Y368188D01*
X196279Y367412D01*
X196912Y366779D01*
X197688Y366332D01*
X198552Y366100D01*
X199448D01*
X200312Y366332D01*
X201088Y366779D01*
X201721Y367412D01*
X202168Y368188D01*
X202400Y369052D01*
Y369948D01*
X202168Y370812D01*
X202041Y371033D01*
Y387862D01*
X202218Y388167D01*
X202453Y389045D01*
Y389955D01*
X202218Y390833D01*
X201763Y391620D01*
X201120Y392263D01*
X200333Y392718D01*
X199455Y392953D01*
D02*
G37*
G36*
X189455D02*
X188545D01*
X187667Y392718D01*
X186880Y392263D01*
X186237Y391620D01*
X185783Y390833D01*
X185547Y389955D01*
Y389045D01*
X185783Y388167D01*
X185959Y387862D01*
Y371033D01*
X185832Y370812D01*
X185600Y369948D01*
Y369052D01*
X185832Y368188D01*
X186279Y367412D01*
X186912Y366779D01*
X187688Y366332D01*
X188552Y366100D01*
X189448D01*
X190312Y366332D01*
X191088Y366779D01*
X191721Y367412D01*
X192168Y368188D01*
X192400Y369052D01*
Y369948D01*
X192168Y370812D01*
X192041Y371033D01*
Y387862D01*
X192218Y388167D01*
X192453Y389045D01*
Y389955D01*
X192218Y390833D01*
X191763Y391620D01*
X191120Y392263D01*
X190333Y392718D01*
X189455Y392953D01*
D02*
G37*
G36*
X179455D02*
X178545D01*
X177667Y392718D01*
X176880Y392263D01*
X176237Y391620D01*
X175783Y390833D01*
X175547Y389955D01*
Y389045D01*
X175783Y388167D01*
X175959Y387862D01*
Y371033D01*
X175832Y370812D01*
X175600Y369948D01*
Y369052D01*
X175832Y368188D01*
X176279Y367412D01*
X176912Y366779D01*
X177688Y366332D01*
X178552Y366100D01*
X179448D01*
X180312Y366332D01*
X181088Y366779D01*
X181721Y367412D01*
X182168Y368188D01*
X182400Y369052D01*
Y369948D01*
X182168Y370812D01*
X182041Y371033D01*
Y387862D01*
X182218Y388167D01*
X182453Y389045D01*
Y389955D01*
X182218Y390833D01*
X181763Y391620D01*
X181120Y392263D01*
X180333Y392718D01*
X179455Y392953D01*
D02*
G37*
G36*
X169455D02*
X168545D01*
X167667Y392718D01*
X166880Y392263D01*
X166237Y391620D01*
X165782Y390833D01*
X165547Y389955D01*
Y389045D01*
X165782Y388167D01*
X165959Y387862D01*
Y371033D01*
X165832Y370812D01*
X165600Y369948D01*
Y369052D01*
X165832Y368188D01*
X166279Y367412D01*
X166912Y366779D01*
X167688Y366332D01*
X168552Y366100D01*
X169448D01*
X170312Y366332D01*
X171088Y366779D01*
X171721Y367412D01*
X172168Y368188D01*
X172400Y369052D01*
Y369948D01*
X172168Y370812D01*
X172041Y371033D01*
Y387862D01*
X172218Y388167D01*
X172453Y389045D01*
Y389955D01*
X172218Y390833D01*
X171763Y391620D01*
X171120Y392263D01*
X170333Y392718D01*
X169455Y392953D01*
D02*
G37*
G36*
X159455D02*
X158545D01*
X157667Y392718D01*
X156880Y392263D01*
X156237Y391620D01*
X155782Y390833D01*
X155547Y389955D01*
Y389045D01*
X155782Y388167D01*
X155959Y387862D01*
Y371033D01*
X155832Y370812D01*
X155600Y369948D01*
Y369052D01*
X155832Y368188D01*
X156279Y367412D01*
X156912Y366779D01*
X157688Y366332D01*
X158552Y366100D01*
X159448D01*
X160312Y366332D01*
X161088Y366779D01*
X161721Y367412D01*
X162168Y368188D01*
X162400Y369052D01*
Y369948D01*
X162168Y370812D01*
X162041Y371033D01*
Y387862D01*
X162217Y388167D01*
X162453Y389045D01*
Y389955D01*
X162217Y390833D01*
X161763Y391620D01*
X161120Y392263D01*
X160333Y392718D01*
X159455Y392953D01*
D02*
G37*
G36*
X149455D02*
X148545D01*
X147667Y392718D01*
X146880Y392263D01*
X146237Y391620D01*
X145782Y390833D01*
X145547Y389955D01*
Y389045D01*
X145782Y388167D01*
X145959Y387862D01*
Y371033D01*
X145832Y370812D01*
X145600Y369948D01*
Y369052D01*
X145832Y368188D01*
X146279Y367412D01*
X146912Y366779D01*
X147688Y366332D01*
X148552Y366100D01*
X149448D01*
X150312Y366332D01*
X151088Y366779D01*
X151721Y367412D01*
X152168Y368188D01*
X152400Y369052D01*
Y369948D01*
X152168Y370812D01*
X152041Y371033D01*
Y387862D01*
X152217Y388167D01*
X152453Y389045D01*
Y389955D01*
X152217Y390833D01*
X151763Y391620D01*
X151120Y392263D01*
X150333Y392718D01*
X149455Y392953D01*
D02*
G37*
G36*
X139455D02*
X138545D01*
X137667Y392718D01*
X136880Y392263D01*
X136237Y391620D01*
X135783Y390833D01*
X135547Y389955D01*
Y389045D01*
X135783Y388167D01*
X135959Y387862D01*
Y371033D01*
X135832Y370812D01*
X135600Y369948D01*
Y369052D01*
X135832Y368188D01*
X136279Y367412D01*
X136912Y366779D01*
X137688Y366332D01*
X138552Y366100D01*
X139448D01*
X140312Y366332D01*
X141088Y366779D01*
X141721Y367412D01*
X142168Y368188D01*
X142400Y369052D01*
Y369948D01*
X142168Y370812D01*
X142041Y371033D01*
Y387862D01*
X142218Y388167D01*
X142453Y389045D01*
Y389955D01*
X142218Y390833D01*
X141763Y391620D01*
X141120Y392263D01*
X140333Y392718D01*
X139455Y392953D01*
D02*
G37*
G36*
X129455D02*
X128545D01*
X127667Y392718D01*
X126880Y392263D01*
X126237Y391620D01*
X125783Y390833D01*
X125547Y389955D01*
Y389045D01*
X125783Y388167D01*
X125959Y387862D01*
Y371033D01*
X125832Y370812D01*
X125600Y369948D01*
Y369052D01*
X125832Y368188D01*
X126279Y367412D01*
X126912Y366779D01*
X127688Y366332D01*
X128552Y366100D01*
X129448D01*
X130312Y366332D01*
X131088Y366779D01*
X131721Y367412D01*
X132168Y368188D01*
X132400Y369052D01*
Y369948D01*
X132168Y370812D01*
X132041Y371033D01*
Y387862D01*
X132218Y388167D01*
X132453Y389045D01*
Y389955D01*
X132218Y390833D01*
X131763Y391620D01*
X131120Y392263D01*
X130333Y392718D01*
X129455Y392953D01*
D02*
G37*
G36*
X119455D02*
X118545D01*
X117667Y392718D01*
X116880Y392263D01*
X116237Y391620D01*
X115782Y390833D01*
X115547Y389955D01*
Y389045D01*
X115782Y388167D01*
X115959Y387862D01*
Y371033D01*
X115832Y370812D01*
X115600Y369948D01*
Y369052D01*
X115832Y368188D01*
X116279Y367412D01*
X116912Y366779D01*
X117688Y366332D01*
X118552Y366100D01*
X119448D01*
X120312Y366332D01*
X121088Y366779D01*
X121721Y367412D01*
X122168Y368188D01*
X122400Y369052D01*
Y369948D01*
X122168Y370812D01*
X122041Y371033D01*
Y387862D01*
X122218Y388167D01*
X122453Y389045D01*
Y389955D01*
X122218Y390833D01*
X121763Y391620D01*
X121120Y392263D01*
X120333Y392718D01*
X119455Y392953D01*
D02*
G37*
G36*
X109455D02*
X108545D01*
X107667Y392718D01*
X106880Y392263D01*
X106237Y391620D01*
X105782Y390833D01*
X105547Y389955D01*
Y389045D01*
X105782Y388167D01*
X105959Y387862D01*
Y371033D01*
X105832Y370812D01*
X105600Y369948D01*
Y369052D01*
X105832Y368188D01*
X106279Y367412D01*
X106912Y366779D01*
X107688Y366332D01*
X108552Y366100D01*
X109448D01*
X110312Y366332D01*
X111088Y366779D01*
X111721Y367412D01*
X112168Y368188D01*
X112400Y369052D01*
Y369948D01*
X112168Y370812D01*
X112041Y371033D01*
Y387862D01*
X112217Y388167D01*
X112453Y389045D01*
Y389955D01*
X112217Y390833D01*
X111763Y391620D01*
X111120Y392263D01*
X110333Y392718D01*
X109455Y392953D01*
D02*
G37*
G36*
X99455D02*
X98545D01*
X97667Y392718D01*
X96880Y392263D01*
X96237Y391620D01*
X95783Y390833D01*
X95547Y389955D01*
Y389045D01*
X95783Y388167D01*
X95959Y387862D01*
Y371033D01*
X95832Y370812D01*
X95600Y369948D01*
Y369052D01*
X95832Y368188D01*
X96279Y367412D01*
X96912Y366779D01*
X97688Y366332D01*
X98552Y366100D01*
X99448D01*
X100312Y366332D01*
X101088Y366779D01*
X101721Y367412D01*
X102168Y368188D01*
X102400Y369052D01*
Y369948D01*
X102168Y370812D01*
X102041Y371033D01*
Y387862D01*
X102217Y388167D01*
X102453Y389045D01*
Y389955D01*
X102217Y390833D01*
X101763Y391620D01*
X101120Y392263D01*
X100333Y392718D01*
X99455Y392953D01*
D02*
G37*
G36*
X89455D02*
X88545D01*
X87667Y392718D01*
X86880Y392263D01*
X86237Y391620D01*
X85783Y390833D01*
X85547Y389955D01*
Y389045D01*
X85783Y388167D01*
X85959Y387862D01*
Y371033D01*
X85832Y370812D01*
X85600Y369948D01*
Y369052D01*
X85832Y368188D01*
X86279Y367412D01*
X86912Y366779D01*
X87688Y366332D01*
X88552Y366100D01*
X89448D01*
X90312Y366332D01*
X91088Y366779D01*
X91721Y367412D01*
X92168Y368188D01*
X92400Y369052D01*
Y369948D01*
X92168Y370812D01*
X92041Y371033D01*
Y387862D01*
X92217Y388167D01*
X92453Y389045D01*
Y389955D01*
X92217Y390833D01*
X91763Y391620D01*
X91120Y392263D01*
X90333Y392718D01*
X89455Y392953D01*
D02*
G37*
G36*
X79455D02*
X78545D01*
X77667Y392718D01*
X76880Y392263D01*
X76237Y391620D01*
X75783Y390833D01*
X75547Y389955D01*
Y389045D01*
X75783Y388167D01*
X75959Y387862D01*
Y371033D01*
X75832Y370812D01*
X75600Y369948D01*
Y369052D01*
X75832Y368188D01*
X76279Y367412D01*
X76912Y366779D01*
X77688Y366332D01*
X78552Y366100D01*
X79448D01*
X80312Y366332D01*
X81088Y366779D01*
X81721Y367412D01*
X82168Y368188D01*
X82400Y369052D01*
Y369948D01*
X82168Y370812D01*
X82041Y371033D01*
Y387862D01*
X82217Y388167D01*
X82453Y389045D01*
Y389955D01*
X82217Y390833D01*
X81763Y391620D01*
X81120Y392263D01*
X80333Y392718D01*
X79455Y392953D01*
D02*
G37*
G36*
X69455D02*
X68545D01*
X67667Y392718D01*
X66880Y392263D01*
X66237Y391620D01*
X65783Y390833D01*
X65547Y389955D01*
Y389045D01*
X65783Y388167D01*
X65959Y387862D01*
Y371033D01*
X65832Y370812D01*
X65600Y369948D01*
Y369052D01*
X65832Y368188D01*
X66279Y367412D01*
X66912Y366779D01*
X67688Y366332D01*
X68552Y366100D01*
X69448D01*
X70312Y366332D01*
X71088Y366779D01*
X71721Y367412D01*
X72168Y368188D01*
X72400Y369052D01*
Y369948D01*
X72168Y370812D01*
X72041Y371033D01*
Y387862D01*
X72217Y388167D01*
X72453Y389045D01*
Y389955D01*
X72217Y390833D01*
X71763Y391620D01*
X71120Y392263D01*
X70333Y392718D01*
X69455Y392953D01*
D02*
G37*
G36*
X59455D02*
X58545D01*
X57667Y392718D01*
X56880Y392263D01*
X56237Y391620D01*
X55783Y390833D01*
X55547Y389955D01*
Y389045D01*
X55783Y388167D01*
X55959Y387862D01*
Y371033D01*
X55832Y370812D01*
X55600Y369948D01*
Y369052D01*
X55832Y368188D01*
X56279Y367412D01*
X56912Y366779D01*
X57688Y366332D01*
X58552Y366100D01*
X59448D01*
X60312Y366332D01*
X61088Y366779D01*
X61721Y367412D01*
X62168Y368188D01*
X62400Y369052D01*
Y369948D01*
X62168Y370812D01*
X62041Y371033D01*
Y387862D01*
X62217Y388167D01*
X62453Y389045D01*
Y389955D01*
X62217Y390833D01*
X61763Y391620D01*
X61120Y392263D01*
X60333Y392718D01*
X59455Y392953D01*
D02*
G37*
G36*
X272770Y368500D02*
X270000D01*
Y365730D01*
X270505Y365866D01*
X271395Y366379D01*
X272121Y367105D01*
X272634Y367995D01*
X272770Y368500D01*
D02*
G37*
G36*
X268000D02*
X265230D01*
X265366Y367995D01*
X265879Y367105D01*
X266605Y366379D01*
X267495Y365866D01*
X268000Y365730D01*
Y368500D01*
D02*
G37*
G36*
X49455Y392953D02*
X48545D01*
X47667Y392718D01*
X46880Y392263D01*
X46237Y391620D01*
X45783Y390833D01*
X45547Y389955D01*
Y389045D01*
X45783Y388167D01*
X45959Y387862D01*
Y371033D01*
X45832Y370812D01*
X45600Y369948D01*
Y369052D01*
X45832Y368188D01*
X46279Y367412D01*
X46912Y366779D01*
X47688Y366332D01*
X47980Y366253D01*
Y362615D01*
X47519Y362423D01*
X42017Y367925D01*
X42168Y368188D01*
X42400Y369052D01*
Y369948D01*
X42168Y370812D01*
X42041Y371033D01*
Y387862D01*
X42217Y388167D01*
X42453Y389045D01*
Y389955D01*
X42217Y390833D01*
X41763Y391620D01*
X41120Y392263D01*
X40333Y392718D01*
X39455Y392953D01*
X38545D01*
X37667Y392718D01*
X36880Y392263D01*
X36237Y391620D01*
X35783Y390833D01*
X35547Y389955D01*
Y389045D01*
X35783Y388167D01*
X35959Y387862D01*
Y371033D01*
X35832Y370812D01*
X35600Y369948D01*
Y369052D01*
X35832Y368188D01*
X36279Y367412D01*
X36912Y366779D01*
X37688Y366332D01*
X38552Y366100D01*
X39448D01*
X40312Y366332D01*
X40575Y366483D01*
X71880Y335178D01*
Y312135D01*
X71380Y311928D01*
X71088Y312221D01*
X70312Y312668D01*
X69448Y312900D01*
X68552D01*
X67688Y312668D01*
X66912Y312221D01*
X66279Y311588D01*
X65832Y310812D01*
X65600Y309948D01*
Y309052D01*
X65832Y308188D01*
X65959Y307967D01*
Y291138D01*
X65783Y290833D01*
X65547Y289955D01*
Y289045D01*
X65783Y288167D01*
X65945Y287887D01*
X59930Y281872D01*
X55832D01*
X55442Y281795D01*
X55111Y281574D01*
X33279Y259742D01*
X33058Y259411D01*
X33020Y259218D01*
X32520Y259267D01*
Y261578D01*
X57386Y286445D01*
X57667Y286282D01*
X58545Y286047D01*
X59455D01*
X60333Y286282D01*
X61120Y286737D01*
X61763Y287380D01*
X62217Y288167D01*
X62453Y289045D01*
Y289955D01*
X62217Y290833D01*
X62041Y291138D01*
Y307967D01*
X62168Y308188D01*
X62400Y309052D01*
Y309948D01*
X62168Y310812D01*
X61721Y311588D01*
X61088Y312221D01*
X60312Y312668D01*
X59448Y312900D01*
X58552D01*
X57688Y312668D01*
X56912Y312221D01*
X56279Y311588D01*
X55832Y310812D01*
X55600Y309948D01*
Y309052D01*
X55832Y308188D01*
X55959Y307967D01*
Y291138D01*
X55783Y290833D01*
X55547Y289955D01*
Y289045D01*
X55783Y288167D01*
X55945Y287887D01*
X30779Y262721D01*
X30558Y262390D01*
X30520Y262197D01*
X30020Y262246D01*
Y269078D01*
X47387Y286445D01*
X47667Y286282D01*
X48545Y286047D01*
X49455D01*
X50333Y286282D01*
X51120Y286737D01*
X51763Y287380D01*
X52217Y288167D01*
X52453Y289045D01*
Y289955D01*
X52217Y290833D01*
X52041Y291138D01*
Y307967D01*
X52168Y308188D01*
X52400Y309052D01*
Y309948D01*
X52168Y310812D01*
X51721Y311588D01*
X51088Y312221D01*
X50312Y312668D01*
X49448Y312900D01*
X48552D01*
X47688Y312668D01*
X46912Y312221D01*
X46279Y311588D01*
X45832Y310812D01*
X45600Y309948D01*
Y309052D01*
X45832Y308188D01*
X45959Y307967D01*
Y291138D01*
X45783Y290833D01*
X45547Y289955D01*
Y289045D01*
X45783Y288167D01*
X45945Y287887D01*
X28279Y270221D01*
X28058Y269890D01*
X28020Y269697D01*
X27520Y269746D01*
Y276578D01*
X37387Y286445D01*
X37667Y286282D01*
X38545Y286047D01*
X39455D01*
X40333Y286282D01*
X41120Y286737D01*
X41763Y287380D01*
X42217Y288167D01*
X42453Y289045D01*
Y289955D01*
X42217Y290833D01*
X42041Y291138D01*
Y307967D01*
X42168Y308188D01*
X42400Y309052D01*
Y309948D01*
X42168Y310812D01*
X41721Y311588D01*
X41088Y312221D01*
X40312Y312668D01*
X39448Y312900D01*
X38552D01*
X37688Y312668D01*
X36912Y312221D01*
X36279Y311588D01*
X35832Y310812D01*
X35600Y309948D01*
Y309052D01*
X35832Y308188D01*
X35959Y307967D01*
Y291138D01*
X35783Y290833D01*
X35547Y289955D01*
Y289045D01*
X35783Y288167D01*
X35945Y287887D01*
X25779Y277721D01*
X25558Y277390D01*
X25480Y277000D01*
Y41000D01*
X25558Y40610D01*
X25779Y40279D01*
X53279Y12779D01*
X53610Y12558D01*
X54000Y12480D01*
X122168D01*
X122558Y12558D01*
X122889Y12779D01*
X132792Y22682D01*
X133013Y23012D01*
X133016Y23030D01*
X133843D01*
Y29837D01*
X126041D01*
Y35500D01*
X125883Y35883D01*
X125500Y36041D01*
X110567D01*
Y38016D01*
X105433D01*
Y37029D01*
X70539D01*
X60616Y46953D01*
X61728Y48065D01*
X61765D01*
X62240Y47971D01*
X62714Y48065D01*
X62854D01*
X63128Y48119D01*
X63360Y48274D01*
X63514Y48506D01*
X63541Y48638D01*
X65637Y50734D01*
X65968Y51230D01*
X66084Y51815D01*
Y55185D01*
X65968Y55770D01*
X65637Y56266D01*
X64321Y57581D01*
X63825Y57913D01*
X63569Y57964D01*
Y58220D01*
X63514Y58494D01*
X63360Y58726D01*
X63128Y58881D01*
X62854Y58935D01*
X59319D01*
X59045Y58881D01*
X58814Y58726D01*
X58659Y58494D01*
X58604Y58220D01*
Y58029D01*
X56724D01*
Y59067D01*
X51984D01*
Y53933D01*
X56724D01*
Y54971D01*
X62606D01*
X63026Y54551D01*
Y52449D01*
X62032Y51455D01*
X59319D01*
X59045Y51400D01*
X58814Y51245D01*
X58659Y51014D01*
X58604Y50740D01*
Y49267D01*
X57819Y48482D01*
X55343D01*
X55263Y48620D01*
X54620Y49263D01*
X53833Y49718D01*
X52955Y49953D01*
X52045D01*
X51167Y49718D01*
X50380Y49263D01*
X49737Y48620D01*
X49283Y47833D01*
X49047Y46955D01*
Y46045D01*
X49283Y45167D01*
X49737Y44380D01*
X50380Y43737D01*
X51167Y43282D01*
X52045Y43047D01*
X52955D01*
X53833Y43282D01*
X54620Y43737D01*
X55263Y44380D01*
X55717Y45167D01*
X55786Y45423D01*
X57819D01*
X68824Y34419D01*
X69320Y34087D01*
X69906Y33971D01*
X105433D01*
Y33276D01*
X105959D01*
Y27500D01*
X105984Y27439D01*
Y25433D01*
X110724D01*
Y30567D01*
X110541D01*
Y32459D01*
X123459D01*
Y29837D01*
X123394D01*
Y23030D01*
X124484D01*
X124676Y22568D01*
X121628Y19520D01*
X114560D01*
X114511Y20020D01*
X114704Y20058D01*
X115035Y20279D01*
X117438Y22682D01*
X117658Y23012D01*
X117662Y23030D01*
X118488D01*
Y29837D01*
X113157D01*
Y26146D01*
X113138Y26047D01*
Y24423D01*
X58699D01*
X40537Y42585D01*
X40728Y43047D01*
X45953D01*
Y49953D01*
X39047D01*
Y44728D01*
X38585Y44537D01*
X37567Y45555D01*
Y235117D01*
X38029Y235308D01*
X42047Y231290D01*
Y226547D01*
X48953D01*
Y233453D01*
X44210D01*
X40077Y237586D01*
Y244607D01*
X40539Y244798D01*
X42047Y243290D01*
Y238547D01*
X48953D01*
Y245453D01*
X44210D01*
X42577Y247086D01*
Y250547D01*
X48953D01*
Y257453D01*
X47311D01*
Y258148D01*
X59986Y270823D01*
X91853D01*
X92438Y270940D01*
X92934Y271271D01*
X107887Y286224D01*
X108545Y286047D01*
X109455D01*
X110333Y286282D01*
X111120Y286737D01*
X111763Y287380D01*
X112217Y288167D01*
X112453Y289045D01*
Y289955D01*
X112217Y290833D01*
X111763Y291620D01*
X111120Y292263D01*
X110333Y292718D01*
X109455Y292953D01*
X108545D01*
X107667Y292718D01*
X106880Y292263D01*
X106237Y291620D01*
X105782Y290833D01*
X105547Y289955D01*
Y289045D01*
X105724Y288387D01*
X91219Y273882D01*
X86198D01*
X86007Y274344D01*
X97887Y286224D01*
X98545Y286047D01*
X99455D01*
X100333Y286282D01*
X101120Y286737D01*
X101763Y287380D01*
X102217Y288167D01*
X102453Y289045D01*
Y289955D01*
X102217Y290833D01*
X101763Y291620D01*
X101120Y292263D01*
X100333Y292718D01*
X99455Y292953D01*
X98545D01*
X97667Y292718D01*
X96880Y292263D01*
X96237Y291620D01*
X95783Y290833D01*
X95547Y289955D01*
Y289045D01*
X95724Y288387D01*
X83719Y276382D01*
X78698D01*
X78507Y276844D01*
X87887Y286224D01*
X88545Y286047D01*
X89455D01*
X90333Y286282D01*
X91120Y286737D01*
X91763Y287380D01*
X92217Y288167D01*
X92453Y289045D01*
Y289955D01*
X92217Y290833D01*
X91763Y291620D01*
X91120Y292263D01*
X90333Y292718D01*
X89455Y292953D01*
X88545D01*
X87667Y292718D01*
X86880Y292263D01*
X86237Y291620D01*
X85783Y290833D01*
X85547Y289955D01*
Y289045D01*
X85724Y288387D01*
X76219Y278882D01*
X70477D01*
X70286Y279344D01*
X77386Y286445D01*
X77667Y286282D01*
X78545Y286047D01*
X79455D01*
X80333Y286282D01*
X81120Y286737D01*
X81763Y287380D01*
X82217Y288167D01*
X82453Y289045D01*
Y289955D01*
X82217Y290833D01*
X81763Y291620D01*
X81120Y292263D01*
X80333Y292718D01*
X79455Y292953D01*
X78545D01*
X77667Y292718D01*
X76880Y292263D01*
X76237Y291620D01*
X75783Y290833D01*
X75547Y289955D01*
Y289045D01*
X75783Y288167D01*
X75945Y287887D01*
X68430Y280372D01*
X61967D01*
X61776Y280834D01*
X67387Y286445D01*
X67667Y286282D01*
X68545Y286047D01*
X69455D01*
X70333Y286282D01*
X71120Y286737D01*
X71763Y287380D01*
X72217Y288167D01*
X72453Y289045D01*
Y289955D01*
X72217Y290833D01*
X72041Y291138D01*
Y306673D01*
X72541Y306880D01*
X81768Y297653D01*
X82099Y297432D01*
X82489Y297355D01*
X115293D01*
X119195Y293453D01*
X118988Y292953D01*
X118545D01*
X117667Y292718D01*
X116880Y292263D01*
X116237Y291620D01*
X115782Y290833D01*
X115547Y289955D01*
Y289045D01*
X115782Y288167D01*
X116237Y287380D01*
X116880Y286737D01*
X117667Y286282D01*
X118545Y286047D01*
X119455D01*
X120333Y286282D01*
X121120Y286737D01*
X121763Y287380D01*
X122028Y287839D01*
X122528Y287705D01*
Y287241D01*
X122605Y286851D01*
X122826Y286520D01*
X144921Y264425D01*
Y252307D01*
X144421Y252155D01*
X144283Y252362D01*
X144067Y252578D01*
Y255516D01*
X138933D01*
Y250776D01*
X142107D01*
Y248470D01*
X139437D01*
Y241663D01*
X139459D01*
Y238541D01*
X135567D01*
Y242016D01*
X135061D01*
X135000Y242041D01*
X131000D01*
X130939Y242016D01*
X130433D01*
Y237276D01*
X130459D01*
Y234224D01*
X130433D01*
Y229484D01*
X130939D01*
X131000Y229459D01*
X135000D01*
X135061Y229484D01*
X135567D01*
Y232959D01*
X161433D01*
Y231647D01*
X160745Y230959D01*
X160285Y230651D01*
X159352Y229718D01*
X159117Y229367D01*
X159008Y229317D01*
X158660Y229274D01*
X158525Y229294D01*
X158158Y229661D01*
X157542Y230016D01*
X157500Y230027D01*
Y227500D01*
Y224973D01*
X157542Y224984D01*
X158158Y225340D01*
X158404Y225585D01*
X158904Y225378D01*
Y217799D01*
X159020Y217214D01*
X159352Y216717D01*
X164864Y211205D01*
Y204108D01*
X164520Y203954D01*
X164364Y203938D01*
X160187Y208115D01*
X160217Y208167D01*
X160453Y209045D01*
Y209955D01*
X160217Y210833D01*
X159763Y211620D01*
X159120Y212263D01*
X158333Y212718D01*
X157455Y212953D01*
X156545D01*
X155667Y212718D01*
X154880Y212263D01*
X154237Y211620D01*
X153782Y210833D01*
X153547Y209955D01*
Y209045D01*
X153782Y208167D01*
X154237Y207380D01*
X153869Y207061D01*
X152732Y208198D01*
X152319Y208475D01*
X151831Y208572D01*
X150453D01*
Y212953D01*
X148275D01*
Y214531D01*
X149401Y215658D01*
X149678Y216071D01*
X149775Y216559D01*
Y218530D01*
X155004D01*
Y224746D01*
X155353Y224948D01*
X155500Y224971D01*
Y226500D01*
X153973D01*
X153984Y226458D01*
X154340Y225842D01*
X154345Y225837D01*
X154138Y225337D01*
X152304D01*
Y228193D01*
X152865Y228754D01*
X153200Y229562D01*
Y230438D01*
X152865Y231246D01*
X152246Y231865D01*
X151438Y232200D01*
X150562D01*
X149754Y231865D01*
X149135Y231246D01*
X148800Y230438D01*
Y229562D01*
X149135Y228754D01*
X149754Y228135D01*
X149755Y228134D01*
Y225337D01*
X139437D01*
Y223208D01*
X130595D01*
X126200Y227602D01*
Y228438D01*
X125865Y229246D01*
X125246Y229865D01*
X124438Y230200D01*
X123562D01*
X122754Y229865D01*
X122135Y229246D01*
X121800Y228438D01*
Y227562D01*
X122135Y226754D01*
X122754Y226135D01*
X123562Y225800D01*
X124398D01*
X129166Y221032D01*
X129579Y220756D01*
X130067Y220659D01*
X139437D01*
Y219054D01*
X128248D01*
X119700Y227602D01*
Y228438D01*
X119365Y229246D01*
X118746Y229865D01*
X117938Y230200D01*
X117062D01*
X116254Y229865D01*
X115635Y229246D01*
X115300Y228438D01*
Y227562D01*
X115635Y226754D01*
X116254Y226135D01*
X117062Y225800D01*
X117898D01*
X121658Y222039D01*
X121451Y221539D01*
X116634D01*
Y221870D01*
X112484D01*
Y217130D01*
X116634D01*
Y217461D01*
X121266D01*
X125139Y213588D01*
X125801Y213146D01*
X126581Y212990D01*
X142500D01*
X142947Y213079D01*
X143387Y212896D01*
X143547Y212728D01*
X143547Y212728D01*
X143547Y212596D01*
Y206047D01*
X149080D01*
X149203Y206023D01*
X151303D01*
X157158Y200168D01*
Y197911D01*
X156658Y197704D01*
X155643Y198718D01*
X155230Y198994D01*
X154742Y199091D01*
X139581D01*
X139093Y198994D01*
X138680Y198718D01*
X137831Y197870D01*
X135484D01*
Y193130D01*
X139634D01*
Y196068D01*
X140109Y196542D01*
X149984D01*
Y191933D01*
X152561D01*
X154576Y189919D01*
X155072Y189587D01*
X155657Y189471D01*
X179342D01*
X179928Y189587D01*
X180424Y189919D01*
X182439Y191933D01*
X182853D01*
X183595Y191191D01*
X183903Y190730D01*
X207660Y166973D01*
X207779Y166893D01*
X207627Y166393D01*
X196567D01*
Y166724D01*
X196039D01*
Y171174D01*
X196200Y171562D01*
Y172438D01*
X195865Y173246D01*
X195246Y173865D01*
X194438Y174200D01*
X193562D01*
X192754Y173865D01*
X192135Y173246D01*
X191800Y172438D01*
Y171562D01*
X191961Y171174D01*
Y166724D01*
X191433D01*
Y161984D01*
X196567D01*
Y162315D01*
X260735D01*
X261515Y162470D01*
X262176Y162912D01*
X267967Y168702D01*
X268545Y168547D01*
X269455D01*
X270333Y168782D01*
X271120Y169237D01*
X271763Y169880D01*
X272104Y170471D01*
X278867D01*
X285931Y163406D01*
Y161760D01*
X285985Y161486D01*
X286140Y161255D01*
X286372Y161100D01*
X286646Y161045D01*
X288516D01*
X288595Y161030D01*
X292776D01*
Y159433D01*
X297516D01*
Y164567D01*
X292776D01*
Y164088D01*
X290778D01*
X290686Y164226D01*
X290455Y164381D01*
X290181Y164435D01*
X289228D01*
X280581Y173081D01*
X280085Y173413D01*
X279500Y173529D01*
X272104D01*
X271763Y174120D01*
X271120Y174763D01*
X270333Y175217D01*
X269455Y175453D01*
X268545D01*
X267667Y175217D01*
X266880Y174763D01*
X266237Y174120D01*
X265782Y173333D01*
X265547Y172455D01*
Y172051D01*
X260478Y166982D01*
X260054Y167265D01*
X260200Y167617D01*
Y168492D01*
X259865Y169300D01*
X259246Y169919D01*
X258438Y170254D01*
X257562D01*
X256754Y169919D01*
X256418Y169584D01*
X209375D01*
X186373Y192586D01*
X186066Y193046D01*
X185016Y194096D01*
Y196542D01*
X194891D01*
X195366Y196068D01*
Y193130D01*
X199516D01*
Y197870D01*
X197169D01*
X196320Y198718D01*
X195907Y198994D01*
X195419Y199091D01*
X180258D01*
X179770Y198994D01*
X179357Y198718D01*
X178342Y197704D01*
X177842Y197911D01*
Y200168D01*
X181089Y203414D01*
X183189D01*
X183677Y203511D01*
X184090Y203788D01*
X186615Y206313D01*
X186667Y206282D01*
X187545Y206047D01*
X188455D01*
X189333Y206282D01*
X190120Y206737D01*
X190763Y207380D01*
X191218Y208167D01*
X191453Y209045D01*
Y209955D01*
X191218Y210833D01*
X190763Y211620D01*
X190120Y212263D01*
X189333Y212718D01*
X188455Y212953D01*
X187545D01*
X186667Y212718D01*
X185880Y212263D01*
X185237Y211620D01*
X184783Y210833D01*
X184547Y209955D01*
Y209045D01*
X184783Y208167D01*
X184813Y208115D01*
X182661Y205963D01*
X181918D01*
X181453Y206047D01*
Y212953D01*
X179274D01*
Y214531D01*
X180401Y215658D01*
X180677Y216071D01*
X180774Y216559D01*
Y218530D01*
X186004D01*
Y225337D01*
X183304D01*
Y227693D01*
X183865Y228254D01*
X184200Y229062D01*
Y229938D01*
X183894Y230676D01*
X184089Y231175D01*
X193258D01*
X193866Y230568D01*
Y227630D01*
X198016D01*
Y232370D01*
X195668D01*
X194687Y233351D01*
X194274Y233628D01*
X193786Y233724D01*
X181234D01*
X181027Y234225D01*
X183528Y236725D01*
X199663D01*
X200254Y236135D01*
X201062Y235800D01*
X201938D01*
X202746Y236135D01*
X203365Y236754D01*
X203700Y237562D01*
Y238438D01*
X203365Y239246D01*
X202746Y239865D01*
X201938Y240200D01*
X201062D01*
X200254Y239865D01*
X199663Y239275D01*
X195216D01*
X195025Y239736D01*
X196588Y241300D01*
X197438D01*
X198246Y241635D01*
X198865Y242254D01*
X199200Y243062D01*
Y243938D01*
X198865Y244746D01*
X198246Y245365D01*
X197438Y245700D01*
X196562D01*
X195754Y245365D01*
X195135Y244746D01*
X194800Y243938D01*
Y243116D01*
X192958Y241274D01*
X188831D01*
X188563Y241663D01*
Y248470D01*
X188197D01*
Y257755D01*
X189836Y259394D01*
X190062Y259300D01*
X190938D01*
X191746Y259635D01*
X192365Y260254D01*
X192700Y261062D01*
Y261938D01*
X192365Y262746D01*
X191746Y263365D01*
X190938Y263700D01*
X190062D01*
X189254Y263365D01*
X188635Y262746D01*
X188300Y261938D01*
Y261062D01*
X188394Y260836D01*
X186456Y258898D01*
X186329Y258707D01*
X185829Y258859D01*
Y265462D01*
X186246Y265635D01*
X186865Y266254D01*
X187200Y267062D01*
Y267938D01*
X186865Y268746D01*
X186246Y269365D01*
X185438Y269700D01*
X184562D01*
X183754Y269365D01*
X183579Y269190D01*
X183079Y269397D01*
Y270441D01*
X183001Y270831D01*
X182780Y271162D01*
X181106Y272836D01*
X181200Y273062D01*
Y273938D01*
X180865Y274746D01*
X180246Y275365D01*
X179438Y275700D01*
X178562D01*
X177754Y275365D01*
X177135Y274746D01*
X176800Y273938D01*
Y273062D01*
X177135Y272254D01*
X177754Y271635D01*
X178562Y271300D01*
X179438D01*
X179664Y271394D01*
X181040Y270019D01*
Y248470D01*
X180520D01*
Y260621D01*
X180442Y261012D01*
X180221Y261342D01*
X175220Y266344D01*
Y276624D01*
X175246Y276635D01*
X175865Y277254D01*
X176200Y278062D01*
Y278938D01*
X175865Y279746D01*
X175246Y280365D01*
X174438Y280700D01*
X173562D01*
X172754Y280365D01*
X172135Y279746D01*
X171800Y278938D01*
Y278062D01*
X172135Y277254D01*
X172754Y276635D01*
X173180Y276458D01*
Y266915D01*
X172719Y266723D01*
X168221Y271221D01*
X167890Y271442D01*
X167500Y271520D01*
X159459D01*
X159365Y271746D01*
X158746Y272365D01*
X157938Y272700D01*
X157062D01*
X156254Y272365D01*
X155635Y271746D01*
X155300Y270938D01*
Y270062D01*
X155635Y269254D01*
X156254Y268635D01*
X157062Y268300D01*
X157938D01*
X158746Y268635D01*
X159365Y269254D01*
X159459Y269480D01*
X167078D01*
X175951Y260607D01*
Y252262D01*
X175451Y252111D01*
X175283Y252362D01*
X175067Y252578D01*
Y255516D01*
X169933D01*
Y250776D01*
X173107D01*
Y248470D01*
X170437D01*
Y241663D01*
X170459D01*
Y238541D01*
X166567D01*
Y242016D01*
X166061D01*
X166000Y242041D01*
X162000D01*
X161939Y242016D01*
X161433D01*
Y238541D01*
X142041D01*
Y241663D01*
X157563D01*
Y248470D01*
X157358D01*
Y254416D01*
X157858Y254608D01*
X158601Y254300D01*
X159476D01*
X160285Y254635D01*
X160875Y255225D01*
X164663D01*
X165254Y254635D01*
X166062Y254300D01*
X166938D01*
X167746Y254635D01*
X168365Y255254D01*
X168700Y256062D01*
Y256938D01*
X168365Y257746D01*
X167746Y258365D01*
X166938Y258700D01*
X166062D01*
X165254Y258365D01*
X164663Y257774D01*
X160875D01*
X160285Y258365D01*
X159476Y258700D01*
X158601D01*
X157858Y258392D01*
X157358Y258584D01*
Y261474D01*
X157746Y261635D01*
X158365Y262254D01*
X158700Y263062D01*
Y263938D01*
X158365Y264746D01*
X157746Y265365D01*
X156938Y265700D01*
X156062D01*
X155254Y265365D01*
X155100Y265211D01*
X154638Y265402D01*
Y285984D01*
X155768Y287115D01*
X155792Y287151D01*
X155867Y287189D01*
X156412Y287205D01*
X156880Y286737D01*
X157667Y286282D01*
X158545Y286047D01*
X159455D01*
X160333Y286282D01*
X161120Y286737D01*
X161763Y287380D01*
X162217Y288167D01*
X162453Y289045D01*
Y289955D01*
X162217Y290833D01*
X162041Y291138D01*
Y307967D01*
X162168Y308188D01*
X162400Y309052D01*
Y309948D01*
X162168Y310812D01*
X161721Y311588D01*
X161088Y312221D01*
X160312Y312668D01*
X159448Y312900D01*
X159049D01*
X158842Y313400D01*
X188422Y342980D01*
X210041D01*
X210135Y342754D01*
X210754Y342135D01*
X211562Y341800D01*
X212438D01*
X213246Y342135D01*
X213865Y342754D01*
X214200Y343562D01*
Y344438D01*
X213865Y345246D01*
X213246Y345865D01*
X212438Y346200D01*
X211562D01*
X210754Y345865D01*
X210135Y345246D01*
X210041Y345020D01*
X188978D01*
X188787Y345481D01*
X190286Y346980D01*
X223541D01*
X223635Y346754D01*
X224254Y346135D01*
X225062Y345800D01*
X225938D01*
X226746Y346135D01*
X227365Y346754D01*
X227700Y347562D01*
Y348438D01*
X227365Y349246D01*
X226746Y349865D01*
X225938Y350200D01*
X225062D01*
X224254Y349865D01*
X223635Y349246D01*
X223541Y349020D01*
X189863D01*
X189473Y348942D01*
X189142Y348721D01*
X152826Y312405D01*
X152605Y312074D01*
X152528Y311684D01*
Y311190D01*
X152028Y311056D01*
X151721Y311588D01*
X151088Y312221D01*
X150312Y312668D01*
X149448Y312900D01*
X148552D01*
X147688Y312668D01*
X146912Y312221D01*
X146279Y311588D01*
X145832Y310812D01*
X145600Y309948D01*
Y309052D01*
X145832Y308188D01*
X145959Y307967D01*
Y291138D01*
X145782Y290833D01*
X145547Y289955D01*
Y289045D01*
X145782Y288167D01*
X146237Y287380D01*
X146880Y286737D01*
X147667Y286282D01*
X148545Y286047D01*
X149455D01*
X149586Y286083D01*
X150040Y285686D01*
Y248470D01*
X149520D01*
Y264410D01*
X149442Y264800D01*
X149221Y265131D01*
X129267Y285085D01*
X129458Y285547D01*
X129520D01*
X130526Y285817D01*
X131427Y286337D01*
X132163Y287073D01*
X132683Y287974D01*
X132824Y288500D01*
X129000D01*
Y289500D01*
X128000D01*
Y293324D01*
X127474Y293183D01*
X126573Y292663D01*
X126117Y292207D01*
X125824Y291936D01*
X125445Y292208D01*
X117058Y300595D01*
X116727Y300816D01*
X116337Y300894D01*
X83533D01*
X78826Y305600D01*
X79034Y306100D01*
X79448D01*
X80312Y306332D01*
X81088Y306779D01*
X81721Y307412D01*
X82168Y308188D01*
X82400Y309052D01*
Y309948D01*
X82168Y310812D01*
X81721Y311588D01*
X81088Y312221D01*
X80312Y312668D01*
X79448Y312900D01*
X78552D01*
X77688Y312668D01*
X76912Y312221D01*
X76279Y311588D01*
X75920Y310965D01*
X75420Y311099D01*
Y336221D01*
X75342Y336612D01*
X75121Y336942D01*
X50020Y362044D01*
Y366253D01*
X50312Y366332D01*
X51088Y366779D01*
X51721Y367412D01*
X52168Y368188D01*
X52400Y369052D01*
Y369948D01*
X52168Y370812D01*
X52041Y371033D01*
Y387862D01*
X52217Y388167D01*
X52453Y389045D01*
Y389955D01*
X52217Y390833D01*
X51763Y391620D01*
X51120Y392263D01*
X50333Y392718D01*
X49455Y392953D01*
D02*
G37*
G36*
X89448Y362900D02*
X88552D01*
X87688Y362668D01*
X86912Y362221D01*
X86279Y361588D01*
X85832Y360812D01*
X85600Y359948D01*
Y359052D01*
X85832Y358188D01*
X86279Y357412D01*
X86912Y356779D01*
X87688Y356332D01*
X88552Y356100D01*
X89448D01*
X90312Y356332D01*
X91088Y356779D01*
X91721Y357412D01*
X92168Y358188D01*
X92400Y359052D01*
Y359948D01*
X92168Y360812D01*
X91721Y361588D01*
X91088Y362221D01*
X90312Y362668D01*
X89448Y362900D01*
D02*
G37*
G36*
X244448Y360400D02*
X243552D01*
X242688Y360168D01*
X241912Y359721D01*
X241279Y359088D01*
X240832Y358312D01*
X240600Y357448D01*
Y356552D01*
X240832Y355688D01*
X241279Y354912D01*
X241912Y354279D01*
X242688Y353832D01*
X243552Y353600D01*
X244448D01*
X245312Y353832D01*
X246088Y354279D01*
X246721Y354912D01*
X247168Y355688D01*
X247400Y356552D01*
Y357448D01*
X247168Y358312D01*
X246721Y359088D01*
X246088Y359721D01*
X245312Y360168D01*
X244448Y360400D01*
D02*
G37*
G36*
X234448D02*
X233552D01*
X232688Y360168D01*
X231912Y359721D01*
X231279Y359088D01*
X230832Y358312D01*
X230600Y357448D01*
Y356552D01*
X230832Y355688D01*
X231279Y354912D01*
X231912Y354279D01*
X232688Y353832D01*
X233552Y353600D01*
X234448D01*
X235312Y353832D01*
X236088Y354279D01*
X236721Y354912D01*
X237168Y355688D01*
X237400Y356552D01*
Y357448D01*
X237168Y358312D01*
X236721Y359088D01*
X236088Y359721D01*
X235312Y360168D01*
X234448Y360400D01*
D02*
G37*
G36*
X224448D02*
X223552D01*
X222688Y360168D01*
X221912Y359721D01*
X221279Y359088D01*
X220832Y358312D01*
X220600Y357448D01*
Y356552D01*
X220832Y355688D01*
X221279Y354912D01*
X221912Y354279D01*
X222688Y353832D01*
X223552Y353600D01*
X224448D01*
X225312Y353832D01*
X226088Y354279D01*
X226721Y354912D01*
X227168Y355688D01*
X227400Y356552D01*
Y357448D01*
X227168Y358312D01*
X226721Y359088D01*
X226088Y359721D01*
X225312Y360168D01*
X224448Y360400D01*
D02*
G37*
G36*
X214448D02*
X213552D01*
X212688Y360168D01*
X211912Y359721D01*
X211279Y359088D01*
X210832Y358312D01*
X210600Y357448D01*
Y356552D01*
X210832Y355688D01*
X211279Y354912D01*
X211912Y354279D01*
X212688Y353832D01*
X213552Y353600D01*
X214448D01*
X215312Y353832D01*
X216088Y354279D01*
X216721Y354912D01*
X217168Y355688D01*
X217400Y356552D01*
Y357448D01*
X217168Y358312D01*
X216721Y359088D01*
X216088Y359721D01*
X215312Y360168D01*
X214448Y360400D01*
D02*
G37*
G36*
X204448D02*
X203552D01*
X202688Y360168D01*
X201912Y359721D01*
X201279Y359088D01*
X200832Y358312D01*
X200600Y357448D01*
Y356552D01*
X200832Y355688D01*
X201279Y354912D01*
X201912Y354279D01*
X202688Y353832D01*
X203552Y353600D01*
X204448D01*
X205312Y353832D01*
X206088Y354279D01*
X206721Y354912D01*
X207168Y355688D01*
X207400Y356552D01*
Y357448D01*
X207168Y358312D01*
X206721Y359088D01*
X206088Y359721D01*
X205312Y360168D01*
X204448Y360400D01*
D02*
G37*
G36*
X8500Y350632D02*
Y347500D01*
X11632D01*
X11460Y348140D01*
X10901Y349110D01*
X10110Y349901D01*
X9140Y350460D01*
X8500Y350632D01*
D02*
G37*
G36*
X6500D02*
X5860Y350460D01*
X4890Y349901D01*
X4099Y349110D01*
X3540Y348140D01*
X3368Y347500D01*
X6500D01*
Y350632D01*
D02*
G37*
G36*
X89448Y352900D02*
X88552D01*
X87688Y352668D01*
X86912Y352221D01*
X86279Y351588D01*
X85832Y350812D01*
X85600Y349948D01*
Y349052D01*
X85832Y348188D01*
X86279Y347412D01*
X86912Y346779D01*
X87688Y346332D01*
X88552Y346100D01*
X89448D01*
X90312Y346332D01*
X91088Y346779D01*
X91721Y347412D01*
X92168Y348188D01*
X92400Y349052D01*
Y349948D01*
X92168Y350812D01*
X91721Y351588D01*
X91088Y352221D01*
X90312Y352668D01*
X89448Y352900D01*
D02*
G37*
G36*
X334500Y348632D02*
Y345500D01*
X337632D01*
X337460Y346140D01*
X336901Y347110D01*
X336110Y347901D01*
X335140Y348460D01*
X334500Y348632D01*
D02*
G37*
G36*
X332500D02*
X331860Y348460D01*
X330890Y347901D01*
X330099Y347110D01*
X329540Y346140D01*
X329368Y345500D01*
X332500D01*
Y348632D01*
D02*
G37*
G36*
X11632Y345500D02*
X8500D01*
Y342368D01*
X9140Y342540D01*
X10110Y343099D01*
X10901Y343890D01*
X11460Y344860D01*
X11632Y345500D01*
D02*
G37*
G36*
X6500D02*
X3368D01*
X3540Y344860D01*
X4099Y343890D01*
X4890Y343099D01*
X5860Y342540D01*
X6500Y342368D01*
Y345500D01*
D02*
G37*
G36*
X337632Y343500D02*
X334500D01*
Y340368D01*
X335140Y340540D01*
X336110Y341099D01*
X336901Y341890D01*
X337460Y342860D01*
X337632Y343500D01*
D02*
G37*
G36*
X332500D02*
X329368D01*
X329540Y342860D01*
X330099Y341890D01*
X330890Y341099D01*
X331860Y340540D01*
X332500Y340368D01*
Y343500D01*
D02*
G37*
G36*
X89448Y342900D02*
X88552D01*
X87688Y342668D01*
X86912Y342221D01*
X86279Y341588D01*
X85832Y340812D01*
X85600Y339948D01*
Y339052D01*
X85832Y338188D01*
X86279Y337412D01*
X86912Y336779D01*
X87688Y336332D01*
X88552Y336100D01*
X89448D01*
X90312Y336332D01*
X91088Y336779D01*
X91721Y337412D01*
X92168Y338188D01*
X92400Y339052D01*
Y339948D01*
X92168Y340812D01*
X91721Y341588D01*
X91088Y342221D01*
X90312Y342668D01*
X89448Y342900D01*
D02*
G37*
G36*
Y332900D02*
X88552D01*
X87688Y332668D01*
X86912Y332221D01*
X86279Y331588D01*
X85832Y330812D01*
X85600Y329948D01*
Y329052D01*
X85832Y328188D01*
X86279Y327412D01*
X86912Y326779D01*
X87688Y326332D01*
X88552Y326100D01*
X89448D01*
X90312Y326332D01*
X91088Y326779D01*
X91721Y327412D01*
X92168Y328188D01*
X92400Y329052D01*
Y329948D01*
X92168Y330812D01*
X91721Y331588D01*
X91088Y332221D01*
X90312Y332668D01*
X89448Y332900D01*
D02*
G37*
G36*
X8500Y320632D02*
Y317500D01*
X11632D01*
X11460Y318140D01*
X10901Y319110D01*
X10110Y319901D01*
X9140Y320460D01*
X8500Y320632D01*
D02*
G37*
G36*
X6500D02*
X5860Y320460D01*
X4890Y319901D01*
X4099Y319110D01*
X3540Y318140D01*
X3368Y317500D01*
X6500D01*
Y320632D01*
D02*
G37*
G36*
X259448Y322900D02*
X258552D01*
X257688Y322668D01*
X256912Y322221D01*
X256279Y321588D01*
X255832Y320812D01*
X255600Y319948D01*
Y319052D01*
X255832Y318188D01*
X256279Y317412D01*
X256912Y316779D01*
X257688Y316332D01*
X258552Y316100D01*
X259448D01*
X260312Y316332D01*
X261088Y316779D01*
X261721Y317412D01*
X262168Y318188D01*
X262400Y319052D01*
Y319948D01*
X262168Y320812D01*
X261721Y321588D01*
X261088Y322221D01*
X260312Y322668D01*
X259448Y322900D01*
D02*
G37*
G36*
X239448D02*
X238552D01*
X237688Y322668D01*
X236912Y322221D01*
X236279Y321588D01*
X235832Y320812D01*
X235600Y319948D01*
Y319052D01*
X235832Y318188D01*
X236279Y317412D01*
X236912Y316779D01*
X237688Y316332D01*
X238552Y316100D01*
X239448D01*
X240312Y316332D01*
X241088Y316779D01*
X241721Y317412D01*
X242168Y318188D01*
X242400Y319052D01*
Y319948D01*
X242168Y320812D01*
X241721Y321588D01*
X241088Y322221D01*
X240312Y322668D01*
X239448Y322900D01*
D02*
G37*
G36*
X229448D02*
X228552D01*
X227688Y322668D01*
X226912Y322221D01*
X226279Y321588D01*
X225832Y320812D01*
X225600Y319948D01*
Y319052D01*
X225832Y318188D01*
X226279Y317412D01*
X226912Y316779D01*
X227688Y316332D01*
X228552Y316100D01*
X229448D01*
X230312Y316332D01*
X231088Y316779D01*
X231721Y317412D01*
X232168Y318188D01*
X232400Y319052D01*
Y319948D01*
X232168Y320812D01*
X231721Y321588D01*
X231088Y322221D01*
X230312Y322668D01*
X229448Y322900D01*
D02*
G37*
G36*
X219448D02*
X218552D01*
X217688Y322668D01*
X216912Y322221D01*
X216279Y321588D01*
X215832Y320812D01*
X215600Y319948D01*
Y319052D01*
X215832Y318188D01*
X216279Y317412D01*
X216912Y316779D01*
X217688Y316332D01*
X218552Y316100D01*
X219448D01*
X220312Y316332D01*
X221088Y316779D01*
X221721Y317412D01*
X222168Y318188D01*
X222400Y319052D01*
Y319948D01*
X222168Y320812D01*
X221721Y321588D01*
X221088Y322221D01*
X220312Y322668D01*
X219448Y322900D01*
D02*
G37*
G36*
X89448D02*
X88552D01*
X87688Y322668D01*
X86912Y322221D01*
X86279Y321588D01*
X85832Y320812D01*
X85600Y319948D01*
Y319052D01*
X85832Y318188D01*
X86279Y317412D01*
X86912Y316779D01*
X87688Y316332D01*
X88552Y316100D01*
X89448D01*
X90312Y316332D01*
X91088Y316779D01*
X91721Y317412D01*
X92168Y318188D01*
X92400Y319052D01*
Y319948D01*
X92168Y320812D01*
X91721Y321588D01*
X91088Y322221D01*
X90312Y322668D01*
X89448Y322900D01*
D02*
G37*
G36*
X334500Y318632D02*
Y315500D01*
X337632D01*
X337460Y316140D01*
X336901Y317110D01*
X336110Y317901D01*
X335140Y318460D01*
X334500Y318632D01*
D02*
G37*
G36*
X332500D02*
X331860Y318460D01*
X330890Y317901D01*
X330099Y317110D01*
X329540Y316140D01*
X329368Y315500D01*
X332500D01*
Y318632D01*
D02*
G37*
G36*
X11632Y315500D02*
X8500D01*
Y312368D01*
X9140Y312540D01*
X10110Y313099D01*
X10901Y313890D01*
X11460Y314860D01*
X11632Y315500D01*
D02*
G37*
G36*
X6500D02*
X3368D01*
X3540Y314860D01*
X4099Y313890D01*
X4890Y313099D01*
X5860Y312540D01*
X6500Y312368D01*
Y315500D01*
D02*
G37*
G36*
X130000Y313270D02*
Y310500D01*
X132770D01*
X132634Y311005D01*
X132121Y311895D01*
X131395Y312621D01*
X130505Y313134D01*
X130000Y313270D01*
D02*
G37*
G36*
X260000D02*
Y310500D01*
X262770D01*
X262634Y311005D01*
X262121Y311895D01*
X261395Y312621D01*
X260505Y313134D01*
X260000Y313270D01*
D02*
G37*
G36*
X128000D02*
X127495Y313134D01*
X126605Y312621D01*
X125879Y311895D01*
X125366Y311005D01*
X125230Y310500D01*
X128000D01*
Y313270D01*
D02*
G37*
G36*
X258000D02*
X257495Y313134D01*
X256605Y312621D01*
X255879Y311895D01*
X255366Y311005D01*
X255230Y310500D01*
X258000D01*
Y313270D01*
D02*
G37*
G36*
X337632Y313500D02*
X334500D01*
Y310368D01*
X335140Y310540D01*
X336110Y311099D01*
X336901Y311890D01*
X337460Y312860D01*
X337632Y313500D01*
D02*
G37*
G36*
X332500D02*
X329368D01*
X329540Y312860D01*
X330099Y311890D01*
X330890Y311099D01*
X331860Y310540D01*
X332500Y310368D01*
Y313500D01*
D02*
G37*
G36*
X119448Y312900D02*
X118552D01*
X117688Y312668D01*
X116912Y312221D01*
X116279Y311588D01*
X115832Y310812D01*
X115600Y309948D01*
Y309052D01*
X115832Y308188D01*
X116279Y307412D01*
X116912Y306779D01*
X117688Y306332D01*
X118552Y306100D01*
X119448D01*
X120312Y306332D01*
X121088Y306779D01*
X121721Y307412D01*
X122168Y308188D01*
X122400Y309052D01*
Y309948D01*
X122168Y310812D01*
X121721Y311588D01*
X121088Y312221D01*
X120312Y312668D01*
X119448Y312900D01*
D02*
G37*
G36*
X109448D02*
X108552D01*
X107688Y312668D01*
X106912Y312221D01*
X106279Y311588D01*
X105832Y310812D01*
X105600Y309948D01*
Y309052D01*
X105832Y308188D01*
X106279Y307412D01*
X106912Y306779D01*
X107688Y306332D01*
X108552Y306100D01*
X109448D01*
X110312Y306332D01*
X111088Y306779D01*
X111721Y307412D01*
X112168Y308188D01*
X112400Y309052D01*
Y309948D01*
X112168Y310812D01*
X111721Y311588D01*
X111088Y312221D01*
X110312Y312668D01*
X109448Y312900D01*
D02*
G37*
G36*
X99448D02*
X98552D01*
X97688Y312668D01*
X96912Y312221D01*
X96279Y311588D01*
X95832Y310812D01*
X95600Y309948D01*
Y309052D01*
X95832Y308188D01*
X96279Y307412D01*
X96912Y306779D01*
X97688Y306332D01*
X98552Y306100D01*
X99448D01*
X100312Y306332D01*
X101088Y306779D01*
X101721Y307412D01*
X102168Y308188D01*
X102400Y309052D01*
Y309948D01*
X102168Y310812D01*
X101721Y311588D01*
X101088Y312221D01*
X100312Y312668D01*
X99448Y312900D01*
D02*
G37*
G36*
X89448D02*
X88552D01*
X87688Y312668D01*
X86912Y312221D01*
X86279Y311588D01*
X85832Y310812D01*
X85600Y309948D01*
Y309052D01*
X85832Y308188D01*
X86279Y307412D01*
X86912Y306779D01*
X87688Y306332D01*
X88552Y306100D01*
X89448D01*
X90312Y306332D01*
X91088Y306779D01*
X91721Y307412D01*
X92168Y308188D01*
X92400Y309052D01*
Y309948D01*
X92168Y310812D01*
X91721Y311588D01*
X91088Y312221D01*
X90312Y312668D01*
X89448Y312900D01*
D02*
G37*
G36*
X262770Y308500D02*
X260000D01*
Y305730D01*
X260505Y305866D01*
X261395Y306379D01*
X262121Y307105D01*
X262634Y307995D01*
X262770Y308500D01*
D02*
G37*
G36*
X132770D02*
X130000D01*
Y305730D01*
X130505Y305866D01*
X131395Y306379D01*
X132121Y307105D01*
X132634Y307995D01*
X132770Y308500D01*
D02*
G37*
G36*
X258000D02*
X255230D01*
X255366Y307995D01*
X255879Y307105D01*
X256605Y306379D01*
X257495Y305866D01*
X258000Y305730D01*
Y308500D01*
D02*
G37*
G36*
X128000D02*
X125230D01*
X125366Y307995D01*
X125879Y307105D01*
X126605Y306379D01*
X127495Y305866D01*
X128000Y305730D01*
Y308500D01*
D02*
G37*
G36*
X130000Y293324D02*
Y290500D01*
X132824D01*
X132683Y291026D01*
X132163Y291927D01*
X131427Y292663D01*
X130526Y293183D01*
X130000Y293324D01*
D02*
G37*
G36*
X260000D02*
Y290500D01*
X262824D01*
X262683Y291026D01*
X262163Y291927D01*
X261427Y292663D01*
X260526Y293183D01*
X260000Y293324D01*
D02*
G37*
G36*
X258000D02*
X257474Y293183D01*
X256573Y292663D01*
X255837Y291927D01*
X255317Y291026D01*
X255176Y290500D01*
X258000D01*
Y293324D01*
D02*
G37*
G36*
X189448Y312900D02*
X188552D01*
X187688Y312668D01*
X186912Y312221D01*
X186279Y311588D01*
X185832Y310812D01*
X185600Y309948D01*
Y309052D01*
X185832Y308188D01*
X185959Y307967D01*
Y291138D01*
X185783Y290833D01*
X185667Y290401D01*
X185401Y290279D01*
X185104Y290231D01*
X184852Y290399D01*
X184461Y290477D01*
X182313D01*
X182218Y290833D01*
X182041Y291138D01*
Y307967D01*
X182168Y308188D01*
X182400Y309052D01*
Y309948D01*
X182168Y310812D01*
X181721Y311588D01*
X181088Y312221D01*
X180312Y312668D01*
X179448Y312900D01*
X178552D01*
X177688Y312668D01*
X176912Y312221D01*
X176279Y311588D01*
X175832Y310812D01*
X175600Y309948D01*
Y309052D01*
X175832Y308188D01*
X175959Y307967D01*
Y291138D01*
X175783Y290833D01*
X175547Y289955D01*
Y289045D01*
X175783Y288167D01*
X176237Y287380D01*
X176880Y286737D01*
X177667Y286282D01*
X178545Y286047D01*
X179455D01*
X180333Y286282D01*
X181120Y286737D01*
X181763Y287380D01*
X182218Y288167D01*
X182290Y288438D01*
X184028D01*
Y287863D01*
X184105Y287473D01*
X184326Y287142D01*
X186642Y284826D01*
X186972Y284605D01*
X187363Y284528D01*
X191030D01*
X202394Y273164D01*
X202300Y272938D01*
Y272062D01*
X202635Y271254D01*
X203254Y270635D01*
X204062Y270300D01*
X204938D01*
X205746Y270635D01*
X206365Y271254D01*
X206700Y272062D01*
Y272938D01*
X206365Y273746D01*
X205746Y274365D01*
X204938Y274700D01*
X204062D01*
X203836Y274606D01*
X192174Y286268D01*
X191843Y286489D01*
X191623Y286533D01*
X191451Y286941D01*
X191450Y287067D01*
X191763Y287380D01*
X192218Y288167D01*
X192453Y289045D01*
Y289955D01*
X192218Y290833D01*
X192041Y291138D01*
Y307967D01*
X192168Y308188D01*
X192400Y309052D01*
Y309948D01*
X192168Y310812D01*
X191721Y311588D01*
X191088Y312221D01*
X190312Y312668D01*
X189448Y312900D01*
D02*
G37*
G36*
X8500Y290632D02*
Y287500D01*
X11632D01*
X11460Y288140D01*
X10901Y289110D01*
X10110Y289901D01*
X9140Y290460D01*
X8500Y290632D01*
D02*
G37*
G36*
X6500D02*
X5860Y290460D01*
X4890Y289901D01*
X4099Y289110D01*
X3540Y288140D01*
X3368Y287500D01*
X6500D01*
Y290632D01*
D02*
G37*
G36*
X269448Y312900D02*
X268552D01*
X267688Y312668D01*
X266912Y312221D01*
X266279Y311588D01*
X265832Y310812D01*
X265600Y309948D01*
Y309052D01*
X265832Y308188D01*
X265959Y307967D01*
Y292953D01*
X265547D01*
Y286047D01*
X272453D01*
Y292953D01*
X272041D01*
Y307967D01*
X272168Y308188D01*
X272400Y309052D01*
Y309948D01*
X272168Y310812D01*
X271721Y311588D01*
X271088Y312221D01*
X270312Y312668D01*
X269448Y312900D01*
D02*
G37*
G36*
X249448D02*
X248552D01*
X247688Y312668D01*
X246912Y312221D01*
X246279Y311588D01*
X245832Y310812D01*
X245600Y309948D01*
Y309052D01*
X245832Y308188D01*
X245959Y307967D01*
Y291138D01*
X245782Y290833D01*
X245547Y289955D01*
Y289045D01*
X245782Y288167D01*
X246237Y287380D01*
X246880Y286737D01*
X247667Y286282D01*
X248545Y286047D01*
X249455D01*
X250333Y286282D01*
X251120Y286737D01*
X251763Y287380D01*
X252218Y288167D01*
X252453Y289045D01*
Y289955D01*
X252218Y290833D01*
X252041Y291138D01*
Y307967D01*
X252168Y308188D01*
X252400Y309052D01*
Y309948D01*
X252168Y310812D01*
X251721Y311588D01*
X251088Y312221D01*
X250312Y312668D01*
X249448Y312900D01*
D02*
G37*
G36*
X169448D02*
X168552D01*
X167688Y312668D01*
X166912Y312221D01*
X166279Y311588D01*
X165832Y310812D01*
X165600Y309948D01*
Y309052D01*
X165832Y308188D01*
X165959Y307967D01*
Y291138D01*
X165782Y290833D01*
X165547Y289955D01*
Y289045D01*
X165782Y288167D01*
X166237Y287380D01*
X166880Y286737D01*
X167667Y286282D01*
X168545Y286047D01*
X169455D01*
X170333Y286282D01*
X171120Y286737D01*
X171763Y287380D01*
X172218Y288167D01*
X172453Y289045D01*
Y289955D01*
X172218Y290833D01*
X172041Y291138D01*
Y307967D01*
X172168Y308188D01*
X172400Y309052D01*
Y309948D01*
X172168Y310812D01*
X171721Y311588D01*
X171088Y312221D01*
X170312Y312668D01*
X169448Y312900D01*
D02*
G37*
G36*
X139448D02*
X138552D01*
X137688Y312668D01*
X136912Y312221D01*
X136279Y311588D01*
X135832Y310812D01*
X135600Y309948D01*
Y309052D01*
X135832Y308188D01*
X135959Y307967D01*
Y291138D01*
X135783Y290833D01*
X135547Y289955D01*
Y289045D01*
X135783Y288167D01*
X136237Y287380D01*
X136880Y286737D01*
X137667Y286282D01*
X138545Y286047D01*
X139455D01*
X140333Y286282D01*
X141120Y286737D01*
X141763Y287380D01*
X142218Y288167D01*
X142453Y289045D01*
Y289955D01*
X142218Y290833D01*
X142041Y291138D01*
Y307967D01*
X142168Y308188D01*
X142400Y309052D01*
Y309948D01*
X142168Y310812D01*
X141721Y311588D01*
X141088Y312221D01*
X140312Y312668D01*
X139448Y312900D01*
D02*
G37*
G36*
X262824Y288500D02*
X260000D01*
Y285676D01*
X260526Y285817D01*
X261427Y286337D01*
X262163Y287073D01*
X262683Y287974D01*
X262824Y288500D01*
D02*
G37*
G36*
X258000D02*
X255176D01*
X255317Y287974D01*
X255837Y287073D01*
X256573Y286337D01*
X257474Y285817D01*
X258000Y285676D01*
Y288500D01*
D02*
G37*
G36*
X334500Y288632D02*
Y285500D01*
X337632D01*
X337460Y286140D01*
X336901Y287110D01*
X336110Y287901D01*
X335140Y288460D01*
X334500Y288632D01*
D02*
G37*
G36*
X332500D02*
X331860Y288460D01*
X330890Y287901D01*
X330099Y287110D01*
X329540Y286140D01*
X329368Y285500D01*
X332500D01*
Y288632D01*
D02*
G37*
G36*
X11632Y285500D02*
X8500D01*
Y282368D01*
X9140Y282540D01*
X10110Y283099D01*
X10901Y283890D01*
X11460Y284860D01*
X11632Y285500D01*
D02*
G37*
G36*
X6500D02*
X3368D01*
X3540Y284860D01*
X4099Y283890D01*
X4890Y283099D01*
X5860Y282540D01*
X6500Y282368D01*
Y285500D01*
D02*
G37*
G36*
X337632Y283500D02*
X334500D01*
Y280368D01*
X335140Y280540D01*
X336110Y281099D01*
X336901Y281890D01*
X337460Y282860D01*
X337632Y283500D01*
D02*
G37*
G36*
X332500D02*
X329368D01*
X329540Y282860D01*
X330099Y281890D01*
X330890Y281099D01*
X331860Y280540D01*
X332500Y280368D01*
Y283500D01*
D02*
G37*
G36*
X239448Y312900D02*
X238552D01*
X237688Y312668D01*
X236912Y312221D01*
X236279Y311588D01*
X235832Y310812D01*
X235600Y309948D01*
Y309052D01*
X235832Y308188D01*
X235959Y307967D01*
Y291138D01*
X235783Y290833D01*
X235547Y289955D01*
Y289045D01*
X235783Y288167D01*
X236237Y287380D01*
X236880Y286737D01*
X237667Y286282D01*
X238545Y286047D01*
X239455D01*
X240333Y286282D01*
X240385Y286313D01*
X250461Y276236D01*
X250270Y275775D01*
X244528D01*
X232187Y288115D01*
X232218Y288167D01*
X232453Y289045D01*
Y289955D01*
X232218Y290833D01*
X232041Y291138D01*
Y307967D01*
X232168Y308188D01*
X232400Y309052D01*
Y309948D01*
X232168Y310812D01*
X231721Y311588D01*
X231088Y312221D01*
X230312Y312668D01*
X229448Y312900D01*
X228552D01*
X227688Y312668D01*
X226912Y312221D01*
X226279Y311588D01*
X225832Y310812D01*
X225600Y309948D01*
Y309052D01*
X225832Y308188D01*
X225959Y307967D01*
Y291138D01*
X225782Y290833D01*
X225547Y289955D01*
Y289045D01*
X225782Y288167D01*
X226237Y287380D01*
X226880Y286737D01*
X227667Y286282D01*
X228545Y286047D01*
X229455D01*
X230333Y286282D01*
X230385Y286313D01*
X242461Y274236D01*
X242270Y273775D01*
X236528D01*
X222187Y288115D01*
X222217Y288167D01*
X222453Y289045D01*
Y289955D01*
X222217Y290833D01*
X222041Y291138D01*
Y307967D01*
X222168Y308188D01*
X222400Y309052D01*
Y309948D01*
X222168Y310812D01*
X221721Y311588D01*
X221088Y312221D01*
X220312Y312668D01*
X219448Y312900D01*
X218552D01*
X217688Y312668D01*
X216912Y312221D01*
X216279Y311588D01*
X215832Y310812D01*
X215600Y309948D01*
Y309052D01*
X215832Y308188D01*
X215959Y307967D01*
Y291138D01*
X215782Y290833D01*
X215547Y289955D01*
Y289045D01*
X215782Y288167D01*
X216237Y287380D01*
X216880Y286737D01*
X217667Y286282D01*
X218545Y286047D01*
X219455D01*
X220333Y286282D01*
X220385Y286313D01*
X234461Y272236D01*
X234270Y271775D01*
X228528D01*
X212187Y288115D01*
X212217Y288167D01*
X212453Y289045D01*
Y289955D01*
X212217Y290833D01*
X212041Y291138D01*
Y307967D01*
X212168Y308188D01*
X212400Y309052D01*
Y309948D01*
X212168Y310812D01*
X211721Y311588D01*
X211088Y312221D01*
X210312Y312668D01*
X209448Y312900D01*
X208552D01*
X207688Y312668D01*
X206912Y312221D01*
X206279Y311588D01*
X205832Y310812D01*
X205600Y309948D01*
Y309052D01*
X205832Y308188D01*
X205959Y307967D01*
Y291138D01*
X205783Y290833D01*
X205547Y289955D01*
Y289045D01*
X205783Y288167D01*
X206237Y287380D01*
X206880Y286737D01*
X207667Y286282D01*
X208545Y286047D01*
X209455D01*
X210333Y286282D01*
X210385Y286313D01*
X226461Y270236D01*
X226270Y269775D01*
X220528D01*
X202187Y288115D01*
X202218Y288167D01*
X202453Y289045D01*
Y289955D01*
X202218Y290833D01*
X202041Y291138D01*
Y307967D01*
X202168Y308188D01*
X202400Y309052D01*
Y309948D01*
X202168Y310812D01*
X201721Y311588D01*
X201088Y312221D01*
X200312Y312668D01*
X199448Y312900D01*
X198552D01*
X197688Y312668D01*
X196912Y312221D01*
X196279Y311588D01*
X195832Y310812D01*
X195600Y309948D01*
Y309052D01*
X195832Y308188D01*
X195959Y307967D01*
Y291138D01*
X195782Y290833D01*
X195547Y289955D01*
Y289045D01*
X195782Y288167D01*
X196237Y287380D01*
X196880Y286737D01*
X197667Y286282D01*
X198545Y286047D01*
X199455D01*
X200333Y286282D01*
X200385Y286313D01*
X219099Y267599D01*
X219281Y267477D01*
X219129Y266977D01*
X203703D01*
X203215Y266880D01*
X202802Y266604D01*
X191398Y255200D01*
X190562D01*
X189754Y254865D01*
X189135Y254246D01*
X188800Y253438D01*
Y252562D01*
X189135Y251754D01*
X189754Y251135D01*
X190562Y250800D01*
X191438D01*
X192246Y251135D01*
X192865Y251754D01*
X193200Y252562D01*
Y253398D01*
X204231Y264428D01*
X274838D01*
X275045Y263928D01*
X274737Y263620D01*
X274283Y262833D01*
X274047Y261955D01*
Y261045D01*
X274283Y260167D01*
X274737Y259380D01*
X275380Y258737D01*
X276167Y258282D01*
X277045Y258047D01*
X277955D01*
X278833Y258282D01*
X279620Y258737D01*
X280263Y259380D01*
X280717Y260167D01*
X280953Y261045D01*
Y261557D01*
X281453Y261825D01*
X281456Y261823D01*
X281944Y261725D01*
X284047D01*
Y258047D01*
X290428D01*
Y254231D01*
X289150Y252953D01*
X284047D01*
Y246047D01*
X290953D01*
Y251150D01*
X291966Y252164D01*
X292428Y251973D01*
Y244231D01*
X289150Y240953D01*
X284492D01*
Y243913D01*
X284337Y244693D01*
X283895Y245355D01*
X280795Y248455D01*
X280953Y249045D01*
Y249955D01*
X280717Y250833D01*
X280263Y251620D01*
X279620Y252263D01*
X278833Y252717D01*
X277955Y252953D01*
X277045D01*
X276167Y252717D01*
X275380Y252263D01*
X274737Y251620D01*
X274283Y250833D01*
X274047Y249955D01*
Y249045D01*
X274283Y248167D01*
X274737Y247380D01*
X275380Y246737D01*
X276167Y246283D01*
X277045Y246047D01*
X277435D01*
X280414Y243068D01*
Y240177D01*
X279914Y239969D01*
X279620Y240263D01*
X278833Y240718D01*
X277955Y240953D01*
X277045D01*
X276167Y240718D01*
X275380Y240263D01*
X274737Y239620D01*
X274283Y238833D01*
X274047Y237955D01*
Y237045D01*
X274283Y236167D01*
X274737Y235380D01*
X275380Y234737D01*
X276167Y234282D01*
X277045Y234047D01*
X277955D01*
X278833Y234282D01*
X279620Y234737D01*
X279914Y235031D01*
X280414Y234823D01*
Y228176D01*
X279914Y227969D01*
X279620Y228263D01*
X278833Y228717D01*
X277955Y228953D01*
X277045D01*
X276167Y228717D01*
X275380Y228263D01*
X274737Y227620D01*
X274283Y226833D01*
X274267Y226775D01*
X270224D01*
Y228067D01*
X265484D01*
Y222933D01*
X270224D01*
Y224225D01*
X274267D01*
X274283Y224167D01*
X274737Y223380D01*
X275380Y222737D01*
X276167Y222283D01*
X277045Y222047D01*
X277955D01*
X278833Y222283D01*
X279620Y222737D01*
X279914Y223031D01*
X280414Y222824D01*
Y216177D01*
X279914Y215969D01*
X279620Y216263D01*
X278833Y216718D01*
X277955Y216953D01*
X277045D01*
X276167Y216718D01*
X275380Y216263D01*
X274737Y215620D01*
X274283Y214833D01*
X274047Y213955D01*
Y213045D01*
X274283Y212167D01*
X274737Y211380D01*
X275380Y210737D01*
X276167Y210282D01*
X277045Y210047D01*
X277955D01*
X278833Y210282D01*
X279620Y210737D01*
X279914Y211031D01*
X280414Y210823D01*
Y204176D01*
X279914Y203969D01*
X279620Y204263D01*
X278833Y204717D01*
X277955Y204953D01*
X277045D01*
X276167Y204717D01*
X275380Y204263D01*
X274737Y203620D01*
X274283Y202833D01*
X274267Y202775D01*
X270224D01*
Y204067D01*
X265484D01*
Y198933D01*
X270224D01*
Y200225D01*
X274267D01*
X274283Y200167D01*
X274737Y199380D01*
X275380Y198737D01*
X276167Y198283D01*
X277045Y198047D01*
X277955D01*
X278833Y198283D01*
X279620Y198737D01*
X279914Y199031D01*
X280414Y198824D01*
Y195297D01*
X277142Y192026D01*
X276754Y191865D01*
X276135Y191246D01*
X275800Y190438D01*
Y189562D01*
X276135Y188754D01*
X276754Y188135D01*
X277562Y187800D01*
X278438D01*
X279246Y188135D01*
X279865Y188754D01*
X280026Y189142D01*
X283895Y193011D01*
X284337Y193672D01*
X284492Y194453D01*
Y198047D01*
X290953D01*
Y203150D01*
X300604Y212802D01*
X300880Y213215D01*
X300977Y213703D01*
Y268284D01*
X300880Y268772D01*
X300604Y269185D01*
X292388Y277401D01*
X291975Y277677D01*
X291487Y277775D01*
X252528D01*
X242187Y288115D01*
X242217Y288167D01*
X242453Y289045D01*
Y289955D01*
X242217Y290833D01*
X242041Y291138D01*
Y307967D01*
X242168Y308188D01*
X242400Y309052D01*
Y309948D01*
X242168Y310812D01*
X241721Y311588D01*
X241088Y312221D01*
X240312Y312668D01*
X239448Y312900D01*
D02*
G37*
G36*
X8500Y260632D02*
Y257500D01*
X11632D01*
X11460Y258140D01*
X10901Y259110D01*
X10110Y259901D01*
X9140Y260460D01*
X8500Y260632D01*
D02*
G37*
G36*
X6500D02*
X5860Y260460D01*
X4890Y259901D01*
X4099Y259110D01*
X3540Y258140D01*
X3368Y257500D01*
X6500D01*
Y260632D01*
D02*
G37*
G36*
X232500Y260547D02*
Y256500D01*
X236547D01*
X236284Y257482D01*
X235608Y258652D01*
X234652Y259608D01*
X233482Y260284D01*
X232500Y260547D01*
D02*
G37*
G36*
X230500D02*
X229518Y260284D01*
X228348Y259608D01*
X227392Y258652D01*
X226716Y257482D01*
X226453Y256500D01*
X230500D01*
Y260547D01*
D02*
G37*
G36*
X212500D02*
Y256500D01*
X216547D01*
X216284Y257482D01*
X215608Y258652D01*
X214652Y259608D01*
X213482Y260284D01*
X212500Y260547D01*
D02*
G37*
G36*
X210500D02*
X209518Y260284D01*
X208348Y259608D01*
X207392Y258652D01*
X206716Y257482D01*
X206453Y256500D01*
X210500D01*
Y260547D01*
D02*
G37*
G36*
X99500D02*
Y256500D01*
X103547D01*
X103284Y257482D01*
X102608Y258652D01*
X101652Y259608D01*
X100482Y260284D01*
X99500Y260547D01*
D02*
G37*
G36*
X97500D02*
X96518Y260284D01*
X95348Y259608D01*
X94392Y258652D01*
X93716Y257482D01*
X93453Y256500D01*
X97500D01*
Y260547D01*
D02*
G37*
G36*
X79500D02*
Y256500D01*
X83547D01*
X83284Y257482D01*
X82608Y258652D01*
X81652Y259608D01*
X80482Y260284D01*
X79500Y260547D01*
D02*
G37*
G36*
X77500D02*
X76518Y260284D01*
X75348Y259608D01*
X74392Y258652D01*
X73716Y257482D01*
X73453Y256500D01*
X77500D01*
Y260547D01*
D02*
G37*
G36*
X334500Y258632D02*
Y255500D01*
X337632D01*
X337460Y256140D01*
X336901Y257110D01*
X336110Y257901D01*
X335140Y258460D01*
X334500Y258632D01*
D02*
G37*
G36*
X332500D02*
X331860Y258460D01*
X330890Y257901D01*
X330099Y257110D01*
X329540Y256140D01*
X329368Y255500D01*
X332500D01*
Y258632D01*
D02*
G37*
G36*
X11632Y255500D02*
X8500D01*
Y252368D01*
X9140Y252540D01*
X10110Y253099D01*
X10901Y253890D01*
X11460Y254860D01*
X11632Y255500D01*
D02*
G37*
G36*
X6500D02*
X3368D01*
X3540Y254860D01*
X4099Y253890D01*
X4890Y253099D01*
X5860Y252540D01*
X6500Y252368D01*
Y255500D01*
D02*
G37*
G36*
X55955Y257453D02*
X55045D01*
X54167Y257218D01*
X53380Y256763D01*
X52737Y256120D01*
X52283Y255333D01*
X52047Y254455D01*
Y253545D01*
X52283Y252667D01*
X52737Y251880D01*
X53380Y251237D01*
X54167Y250782D01*
X55045Y250547D01*
X55955D01*
X56833Y250782D01*
X57620Y251237D01*
X58263Y251880D01*
X58717Y252667D01*
X58953Y253545D01*
Y254455D01*
X58717Y255333D01*
X58263Y256120D01*
X57620Y256763D01*
X56833Y257218D01*
X55955Y257453D01*
D02*
G37*
G36*
X236547Y254500D02*
X232500D01*
Y250453D01*
X233482Y250716D01*
X234652Y251392D01*
X235608Y252348D01*
X236284Y253518D01*
X236547Y254500D01*
D02*
G37*
G36*
X230500D02*
X226453D01*
X226716Y253518D01*
X227392Y252348D01*
X228348Y251392D01*
X229518Y250716D01*
X230500Y250453D01*
Y254500D01*
D02*
G37*
G36*
X216547D02*
X212500D01*
Y250453D01*
X213482Y250716D01*
X214652Y251392D01*
X215608Y252348D01*
X216284Y253518D01*
X216547Y254500D01*
D02*
G37*
G36*
X210500D02*
X206453D01*
X206716Y253518D01*
X207392Y252348D01*
X208348Y251392D01*
X209518Y250716D01*
X210500Y250453D01*
Y254500D01*
D02*
G37*
G36*
X103547D02*
X99500D01*
Y250453D01*
X100482Y250716D01*
X101652Y251392D01*
X102608Y252348D01*
X103284Y253518D01*
X103547Y254500D01*
D02*
G37*
G36*
X97500D02*
X93453D01*
X93716Y253518D01*
X94392Y252348D01*
X95348Y251392D01*
X96518Y250716D01*
X97500Y250453D01*
Y254500D01*
D02*
G37*
G36*
X83547D02*
X79500D01*
Y250453D01*
X80482Y250716D01*
X81652Y251392D01*
X82608Y252348D01*
X83284Y253518D01*
X83547Y254500D01*
D02*
G37*
G36*
X77500D02*
X73453D01*
X73716Y253518D01*
X74392Y252348D01*
X75348Y251392D01*
X76518Y250716D01*
X77500Y250453D01*
Y254500D01*
D02*
G37*
G36*
X337632Y253500D02*
X334500D01*
Y250368D01*
X335140Y250540D01*
X336110Y251099D01*
X336901Y251890D01*
X337460Y252860D01*
X337632Y253500D01*
D02*
G37*
G36*
X332500D02*
X329368D01*
X329540Y252860D01*
X330099Y251890D01*
X330890Y251099D01*
X331860Y250540D01*
X332500Y250368D01*
Y253500D01*
D02*
G37*
G36*
X55955Y245453D02*
X55045D01*
X54167Y245217D01*
X53380Y244763D01*
X52737Y244120D01*
X52283Y243333D01*
X52047Y242455D01*
Y241545D01*
X52283Y240667D01*
X52737Y239880D01*
X53380Y239237D01*
X54167Y238783D01*
X55045Y238547D01*
X55955D01*
X56833Y238783D01*
X57620Y239237D01*
X58263Y239880D01*
X58717Y240667D01*
X58953Y241545D01*
Y242455D01*
X58717Y243333D01*
X58263Y244120D01*
X57620Y244763D01*
X56833Y245217D01*
X55955Y245453D01*
D02*
G37*
G36*
X232500Y240547D02*
Y236500D01*
X236547D01*
X236284Y237482D01*
X235608Y238652D01*
X234652Y239608D01*
X233482Y240284D01*
X232500Y240547D01*
D02*
G37*
G36*
X230500D02*
X229518Y240284D01*
X228348Y239608D01*
X227392Y238652D01*
X226716Y237482D01*
X226453Y236500D01*
X230500D01*
Y240547D01*
D02*
G37*
G36*
X210500D02*
X209518Y240284D01*
X208348Y239608D01*
X207392Y238652D01*
X206716Y237482D01*
X206453Y236500D01*
X210500D01*
Y240547D01*
D02*
G37*
G36*
X99500D02*
Y236500D01*
X103547D01*
X103284Y237482D01*
X102608Y238652D01*
X101652Y239608D01*
X100482Y240284D01*
X99500Y240547D01*
D02*
G37*
G36*
X79500D02*
Y236500D01*
X83547D01*
X83284Y237482D01*
X82608Y238652D01*
X81652Y239608D01*
X80482Y240284D01*
X79500Y240547D01*
D02*
G37*
G36*
X77500D02*
X76518Y240284D01*
X75348Y239608D01*
X74392Y238652D01*
X73716Y237482D01*
X73453Y236500D01*
X77500D01*
Y240547D01*
D02*
G37*
G36*
X222084Y249937D02*
X220916D01*
X219787Y249635D01*
X218776Y249050D01*
X217950Y248224D01*
X217365Y247213D01*
X217063Y246084D01*
Y244916D01*
X217365Y243787D01*
X217950Y242776D01*
X218776Y241950D01*
X219461Y241554D01*
Y237670D01*
X217096Y235305D01*
X216634Y235496D01*
Y236176D01*
X216284Y237482D01*
X215608Y238652D01*
X214652Y239608D01*
X213482Y240284D01*
X212500Y240547D01*
Y235500D01*
X211500D01*
Y234500D01*
X206453D01*
X206716Y233518D01*
X207392Y232348D01*
X207872Y231867D01*
X207681Y231405D01*
X203134D01*
Y232370D01*
X198984D01*
Y230118D01*
X198961Y230000D01*
Y229764D01*
X198984Y229646D01*
Y227630D01*
X200396D01*
X200617Y227482D01*
X201398Y227327D01*
X214041D01*
X214821Y227482D01*
X215483Y227924D01*
X222942Y235384D01*
X222942Y235384D01*
X223384Y236045D01*
X223539Y236825D01*
Y241554D01*
X224224Y241950D01*
X225050Y242776D01*
X225635Y243787D01*
X225937Y244916D01*
Y246084D01*
X225635Y247213D01*
X225050Y248224D01*
X224224Y249050D01*
X223213Y249635D01*
X222084Y249937D01*
D02*
G37*
G36*
X236547Y234500D02*
X232500D01*
Y230453D01*
X233482Y230716D01*
X234652Y231392D01*
X235608Y232348D01*
X236284Y233518D01*
X236547Y234500D01*
D02*
G37*
G36*
X230500D02*
X226453D01*
X226716Y233518D01*
X227392Y232348D01*
X228348Y231392D01*
X229518Y230716D01*
X230500Y230453D01*
Y234500D01*
D02*
G37*
G36*
X83547D02*
X79500D01*
Y230453D01*
X80482Y230716D01*
X81652Y231392D01*
X82608Y232348D01*
X83284Y233518D01*
X83547Y234500D01*
D02*
G37*
G36*
X77500D02*
X73453D01*
X73716Y233518D01*
X74392Y232348D01*
X75348Y231392D01*
X76518Y230716D01*
X77500Y230453D01*
Y234500D01*
D02*
G37*
G36*
X155500Y230027D02*
X155458Y230016D01*
X154842Y229661D01*
X154340Y229158D01*
X153984Y228542D01*
X153973Y228500D01*
X155500D01*
Y230027D01*
D02*
G37*
G36*
X8500Y230632D02*
Y227500D01*
X11632D01*
X11460Y228140D01*
X10901Y229110D01*
X10110Y229901D01*
X9140Y230460D01*
X8500Y230632D01*
D02*
G37*
G36*
X6500D02*
X5860Y230460D01*
X4890Y229901D01*
X4099Y229110D01*
X3540Y228140D01*
X3368Y227500D01*
X6500D01*
Y230632D01*
D02*
G37*
G36*
X55955Y233453D02*
X55045D01*
X54167Y233218D01*
X53380Y232763D01*
X52737Y232120D01*
X52283Y231333D01*
X52047Y230455D01*
Y229545D01*
X52283Y228667D01*
X52737Y227880D01*
X53380Y227237D01*
X54167Y226782D01*
X55045Y226547D01*
X55955D01*
X56833Y226782D01*
X57620Y227237D01*
X58263Y227880D01*
X58717Y228667D01*
X58953Y229545D01*
Y230455D01*
X58717Y231333D01*
X58263Y232120D01*
X57620Y232763D01*
X56833Y233218D01*
X55955Y233453D01*
D02*
G37*
G36*
X334500Y228632D02*
Y225500D01*
X337632D01*
X337460Y226140D01*
X336901Y227110D01*
X336110Y227901D01*
X335140Y228460D01*
X334500Y228632D01*
D02*
G37*
G36*
X332500D02*
X331860Y228460D01*
X330890Y227901D01*
X330099Y227110D01*
X329540Y226140D01*
X329368Y225500D01*
X332500D01*
Y228632D01*
D02*
G37*
G36*
X11632Y225500D02*
X8500D01*
Y222368D01*
X9140Y222540D01*
X10110Y223099D01*
X10901Y223890D01*
X11460Y224860D01*
X11632Y225500D01*
D02*
G37*
G36*
X6500D02*
X3368D01*
X3540Y224860D01*
X4099Y223890D01*
X4890Y223099D01*
X5860Y222540D01*
X6500Y222368D01*
Y225500D01*
D02*
G37*
G36*
X337632Y223500D02*
X334500D01*
Y220368D01*
X335140Y220540D01*
X336110Y221099D01*
X336901Y221890D01*
X337460Y222860D01*
X337632Y223500D01*
D02*
G37*
G36*
X332500D02*
X329368D01*
X329540Y222860D01*
X330099Y221890D01*
X330890Y221099D01*
X331860Y220540D01*
X332500Y220368D01*
Y223500D01*
D02*
G37*
G36*
X89084Y249937D02*
X87916D01*
X86787Y249635D01*
X85776Y249050D01*
X84949Y248224D01*
X84365Y247213D01*
X84063Y246084D01*
Y244916D01*
X84365Y243787D01*
X84949Y242776D01*
X85776Y241950D01*
X86461Y241554D01*
Y236825D01*
X86616Y236045D01*
X87058Y235384D01*
X104013Y218428D01*
X104675Y217986D01*
X105455Y217831D01*
X107366D01*
Y217130D01*
X111516D01*
Y219382D01*
X111539Y219500D01*
Y219736D01*
X111539Y219736D01*
X111516Y219854D01*
Y221870D01*
X109563D01*
X109366Y221909D01*
X106300D01*
X98305Y229904D01*
X98496Y230366D01*
X99176D01*
X100482Y230716D01*
X101652Y231392D01*
X102608Y232348D01*
X103284Y233518D01*
X103547Y234500D01*
X98500D01*
Y235500D01*
X97500D01*
Y240547D01*
X96518Y240284D01*
X95348Y239608D01*
X94392Y238652D01*
X93716Y237482D01*
X93366Y236176D01*
Y235496D01*
X92904Y235305D01*
X90539Y237670D01*
Y241554D01*
X91224Y241950D01*
X92050Y242776D01*
X92635Y243787D01*
X92937Y244916D01*
Y246084D01*
X92635Y247213D01*
X92050Y248224D01*
X91224Y249050D01*
X90213Y249635D01*
X89084Y249937D01*
D02*
G37*
G36*
X232500Y210547D02*
Y206500D01*
X236547D01*
X236284Y207482D01*
X235608Y208652D01*
X234652Y209608D01*
X233482Y210284D01*
X232500Y210547D01*
D02*
G37*
G36*
X230500D02*
X229518Y210284D01*
X228348Y209608D01*
X227392Y208652D01*
X226716Y207482D01*
X226453Y206500D01*
X230500D01*
Y210547D01*
D02*
G37*
G36*
X212500D02*
Y206500D01*
X216547D01*
X216284Y207482D01*
X215608Y208652D01*
X214652Y209608D01*
X213482Y210284D01*
X212500Y210547D01*
D02*
G37*
G36*
X210500D02*
X209518Y210284D01*
X208348Y209608D01*
X207392Y208652D01*
X206716Y207482D01*
X206453Y206500D01*
X210500D01*
Y210547D01*
D02*
G37*
G36*
X124500D02*
Y206500D01*
X128547D01*
X128284Y207482D01*
X127608Y208652D01*
X126652Y209608D01*
X125482Y210284D01*
X124500Y210547D01*
D02*
G37*
G36*
X122500D02*
X121518Y210284D01*
X120348Y209608D01*
X119392Y208652D01*
X118716Y207482D01*
X118453Y206500D01*
X122500D01*
Y210547D01*
D02*
G37*
G36*
X104500D02*
Y206500D01*
X108547D01*
X108284Y207482D01*
X107608Y208652D01*
X106652Y209608D01*
X105482Y210284D01*
X104500Y210547D01*
D02*
G37*
G36*
X102500D02*
X101518Y210284D01*
X100348Y209608D01*
X99392Y208652D01*
X98716Y207482D01*
X98453Y206500D01*
X102500D01*
Y210547D01*
D02*
G37*
G36*
X74500D02*
Y206500D01*
X78547D01*
X78284Y207482D01*
X77608Y208652D01*
X76652Y209608D01*
X75482Y210284D01*
X74500Y210547D01*
D02*
G37*
G36*
X72500D02*
X71518Y210284D01*
X70348Y209608D01*
X69392Y208652D01*
X68716Y207482D01*
X68453Y206500D01*
X72500D01*
Y210547D01*
D02*
G37*
G36*
X54500D02*
Y206500D01*
X58547D01*
X58284Y207482D01*
X57608Y208652D01*
X56652Y209608D01*
X55482Y210284D01*
X54500Y210547D01*
D02*
G37*
G36*
X52500D02*
X51518Y210284D01*
X50348Y209608D01*
X49392Y208652D01*
X48716Y207482D01*
X48453Y206500D01*
X52500D01*
Y210547D01*
D02*
G37*
G36*
X236547Y204500D02*
X232500D01*
Y200453D01*
X233482Y200716D01*
X234652Y201392D01*
X235608Y202348D01*
X236284Y203518D01*
X236547Y204500D01*
D02*
G37*
G36*
X230500D02*
X226453D01*
X226716Y203518D01*
X227392Y202348D01*
X228348Y201392D01*
X229518Y200716D01*
X230500Y200453D01*
Y204500D01*
D02*
G37*
G36*
X216547D02*
X212500D01*
Y200453D01*
X213482Y200716D01*
X214652Y201392D01*
X215608Y202348D01*
X216284Y203518D01*
X216547Y204500D01*
D02*
G37*
G36*
X210500D02*
X206453D01*
X206716Y203518D01*
X207392Y202348D01*
X208348Y201392D01*
X209518Y200716D01*
X210500Y200453D01*
Y204500D01*
D02*
G37*
G36*
X128547D02*
X124500D01*
Y200453D01*
X125482Y200716D01*
X126652Y201392D01*
X127608Y202348D01*
X128284Y203518D01*
X128547Y204500D01*
D02*
G37*
G36*
X122500D02*
X118453D01*
X118716Y203518D01*
X119392Y202348D01*
X120348Y201392D01*
X121518Y200716D01*
X122500Y200453D01*
Y204500D01*
D02*
G37*
G36*
X108547D02*
X104500D01*
Y200453D01*
X105482Y200716D01*
X106652Y201392D01*
X107608Y202348D01*
X108284Y203518D01*
X108547Y204500D01*
D02*
G37*
G36*
X102500D02*
X98453D01*
X98716Y203518D01*
X99392Y202348D01*
X100348Y201392D01*
X101518Y200716D01*
X102500Y200453D01*
Y204500D01*
D02*
G37*
G36*
X78547D02*
X74500D01*
Y200453D01*
X75482Y200716D01*
X76652Y201392D01*
X77608Y202348D01*
X78284Y203518D01*
X78547Y204500D01*
D02*
G37*
G36*
X72500D02*
X68453D01*
X68716Y203518D01*
X69392Y202348D01*
X70348Y201392D01*
X71518Y200716D01*
X72500Y200453D01*
Y204500D01*
D02*
G37*
G36*
X58547D02*
X54500D01*
Y200453D01*
X55482Y200716D01*
X56652Y201392D01*
X57608Y202348D01*
X58284Y203518D01*
X58547Y204500D01*
D02*
G37*
G36*
X52500D02*
X48453D01*
X48716Y203518D01*
X49392Y202348D01*
X50348Y201392D01*
X51518Y200716D01*
X52500Y200453D01*
Y204500D01*
D02*
G37*
G36*
X222084Y199937D02*
X220916D01*
X219787Y199635D01*
X218776Y199050D01*
X217950Y198224D01*
X217554Y197539D01*
X204634D01*
Y197870D01*
X200484D01*
Y195618D01*
X200461Y195500D01*
X200484Y195382D01*
Y193130D01*
X204634D01*
Y193461D01*
X217554D01*
X217950Y192776D01*
X218776Y191949D01*
X219787Y191365D01*
X220916Y191063D01*
X222084D01*
X223213Y191365D01*
X224224Y191949D01*
X225050Y192776D01*
X225635Y193787D01*
X225937Y194916D01*
Y196084D01*
X225635Y197213D01*
X225050Y198224D01*
X224224Y199050D01*
X223213Y199635D01*
X222084Y199937D01*
D02*
G37*
G36*
X8500Y200632D02*
Y197500D01*
X11632D01*
X11460Y198140D01*
X10901Y199110D01*
X10110Y199901D01*
X9140Y200460D01*
X8500Y200632D01*
D02*
G37*
G36*
X6500D02*
X5860Y200460D01*
X4890Y199901D01*
X4099Y199110D01*
X3540Y198140D01*
X3368Y197500D01*
X6500D01*
Y200632D01*
D02*
G37*
G36*
X334500Y198632D02*
Y195500D01*
X337632D01*
X337460Y196140D01*
X336901Y197110D01*
X336110Y197901D01*
X335140Y198460D01*
X334500Y198632D01*
D02*
G37*
G36*
X332500D02*
X331860Y198460D01*
X330890Y197901D01*
X330099Y197110D01*
X329540Y196140D01*
X329368Y195500D01*
X332500D01*
Y198632D01*
D02*
G37*
G36*
X114084Y199937D02*
X112916D01*
X111787Y199635D01*
X110776Y199050D01*
X109950Y198224D01*
X109365Y197213D01*
X109063Y196084D01*
Y194916D01*
X109365Y193787D01*
X109950Y192776D01*
X110776Y191949D01*
X111787Y191365D01*
X112916Y191063D01*
X114084D01*
X115213Y191365D01*
X116224Y191949D01*
X117051Y192776D01*
X117446Y193461D01*
X130366D01*
Y193130D01*
X134516D01*
Y195382D01*
X134539Y195500D01*
X134516Y195618D01*
Y197870D01*
X130366D01*
Y197539D01*
X117446D01*
X117051Y198224D01*
X116224Y199050D01*
X115213Y199635D01*
X114084Y199937D01*
D02*
G37*
G36*
X11632Y195500D02*
X8500D01*
Y192368D01*
X9140Y192540D01*
X10110Y193099D01*
X10901Y193890D01*
X11460Y194860D01*
X11632Y195500D01*
D02*
G37*
G36*
X6500D02*
X3368D01*
X3540Y194860D01*
X4099Y193890D01*
X4890Y193099D01*
X5860Y192540D01*
X6500Y192368D01*
Y195500D01*
D02*
G37*
G36*
X337632Y193500D02*
X334500D01*
Y190368D01*
X335140Y190540D01*
X336110Y191099D01*
X336901Y191890D01*
X337460Y192860D01*
X337632Y193500D01*
D02*
G37*
G36*
X332500D02*
X329368D01*
X329540Y192860D01*
X330099Y191890D01*
X330890Y191099D01*
X331860Y190540D01*
X332500Y190368D01*
Y193500D01*
D02*
G37*
G36*
X232500Y190547D02*
Y186500D01*
X236547D01*
X236284Y187482D01*
X235608Y188652D01*
X234652Y189608D01*
X233482Y190284D01*
X232500Y190547D01*
D02*
G37*
G36*
X230500D02*
X229518Y190284D01*
X228348Y189608D01*
X227392Y188652D01*
X226716Y187482D01*
X226453Y186500D01*
X230500D01*
Y190547D01*
D02*
G37*
G36*
X212500D02*
Y186500D01*
X216547D01*
X216284Y187482D01*
X215608Y188652D01*
X214652Y189608D01*
X213482Y190284D01*
X212500Y190547D01*
D02*
G37*
G36*
X210500D02*
X209518Y190284D01*
X208348Y189608D01*
X207392Y188652D01*
X206716Y187482D01*
X206453Y186500D01*
X210500D01*
Y190547D01*
D02*
G37*
G36*
X124500D02*
Y186500D01*
X128547D01*
X128284Y187482D01*
X127608Y188652D01*
X126652Y189608D01*
X125482Y190284D01*
X124500Y190547D01*
D02*
G37*
G36*
X122500D02*
X121518Y190284D01*
X120348Y189608D01*
X119392Y188652D01*
X118716Y187482D01*
X118453Y186500D01*
X122500D01*
Y190547D01*
D02*
G37*
G36*
X104500D02*
Y186500D01*
X108547D01*
X108284Y187482D01*
X107608Y188652D01*
X106652Y189608D01*
X105482Y190284D01*
X104500Y190547D01*
D02*
G37*
G36*
X102500D02*
X101518Y190284D01*
X100348Y189608D01*
X99392Y188652D01*
X98716Y187482D01*
X98453Y186500D01*
X102500D01*
Y190547D01*
D02*
G37*
G36*
X74500D02*
Y186500D01*
X78547D01*
X78284Y187482D01*
X77608Y188652D01*
X76652Y189608D01*
X75482Y190284D01*
X74500Y190547D01*
D02*
G37*
G36*
X72500D02*
X71518Y190284D01*
X70348Y189608D01*
X69392Y188652D01*
X68716Y187482D01*
X68453Y186500D01*
X72500D01*
Y190547D01*
D02*
G37*
G36*
X54500D02*
Y186500D01*
X58547D01*
X58284Y187482D01*
X57608Y188652D01*
X56652Y189608D01*
X55482Y190284D01*
X54500Y190547D01*
D02*
G37*
G36*
X52500D02*
X51518Y190284D01*
X50348Y189608D01*
X49392Y188652D01*
X48716Y187482D01*
X48453Y186500D01*
X52500D01*
Y190547D01*
D02*
G37*
G36*
X236547Y184500D02*
X232500D01*
Y180453D01*
X233482Y180716D01*
X234652Y181392D01*
X235608Y182348D01*
X236284Y183518D01*
X236547Y184500D01*
D02*
G37*
G36*
X230500D02*
X226453D01*
X226716Y183518D01*
X227392Y182348D01*
X228348Y181392D01*
X229518Y180716D01*
X230500Y180453D01*
Y184500D01*
D02*
G37*
G36*
X216547D02*
X212500D01*
Y180453D01*
X213482Y180716D01*
X214652Y181392D01*
X215608Y182348D01*
X216284Y183518D01*
X216547Y184500D01*
D02*
G37*
G36*
X210500D02*
X206453D01*
X206716Y183518D01*
X207392Y182348D01*
X208348Y181392D01*
X209518Y180716D01*
X210500Y180453D01*
Y184500D01*
D02*
G37*
G36*
X128547D02*
X124500D01*
Y180453D01*
X125482Y180716D01*
X126652Y181392D01*
X127608Y182348D01*
X128284Y183518D01*
X128547Y184500D01*
D02*
G37*
G36*
X122500D02*
X118453D01*
X118716Y183518D01*
X119392Y182348D01*
X120348Y181392D01*
X121518Y180716D01*
X122500Y180453D01*
Y184500D01*
D02*
G37*
G36*
X108547D02*
X104500D01*
Y180453D01*
X105482Y180716D01*
X106652Y181392D01*
X107608Y182348D01*
X108284Y183518D01*
X108547Y184500D01*
D02*
G37*
G36*
X102500D02*
X98453D01*
X98716Y183518D01*
X99392Y182348D01*
X100348Y181392D01*
X101518Y180716D01*
X102500Y180453D01*
Y184500D01*
D02*
G37*
G36*
X78547D02*
X74500D01*
Y180453D01*
X75482Y180716D01*
X76652Y181392D01*
X77608Y182348D01*
X78284Y183518D01*
X78547Y184500D01*
D02*
G37*
G36*
X72500D02*
X68453D01*
X68716Y183518D01*
X69392Y182348D01*
X70348Y181392D01*
X71518Y180716D01*
X72500Y180453D01*
Y184500D01*
D02*
G37*
G36*
X58547D02*
X54500D01*
Y180453D01*
X55482Y180716D01*
X56652Y181392D01*
X57608Y182348D01*
X58284Y183518D01*
X58547Y184500D01*
D02*
G37*
G36*
X52500D02*
X48453D01*
X48716Y183518D01*
X49392Y182348D01*
X50348Y181392D01*
X51518Y180716D01*
X52500Y180453D01*
Y184500D01*
D02*
G37*
G36*
X185016Y184067D02*
X180276D01*
Y184041D01*
X165500D01*
X165117Y183883D01*
X164959Y183500D01*
Y178837D01*
X157158D01*
Y173972D01*
X155386Y172200D01*
X154562D01*
X153754Y171865D01*
X153135Y171246D01*
X152800Y170438D01*
Y169614D01*
X151560Y168374D01*
X151012D01*
Y171283D01*
X150934Y171673D01*
X150713Y172003D01*
X150537Y172180D01*
Y173024D01*
X150764Y173117D01*
X151383Y173736D01*
X151717Y174545D01*
Y175420D01*
X151383Y176229D01*
X150764Y176848D01*
X149955Y177183D01*
X149080D01*
X148271Y176848D01*
X147652Y176229D01*
X147317Y175420D01*
Y174545D01*
X147652Y173736D01*
X148271Y173117D01*
X148498Y173024D01*
Y171757D01*
X148575Y171367D01*
X148796Y171036D01*
X148972Y170860D01*
Y168887D01*
X148500Y168541D01*
X145000D01*
X144617Y168383D01*
X144459Y168000D01*
Y166843D01*
X144010Y166393D01*
X142067D01*
Y166724D01*
X141539D01*
Y171174D01*
X141700Y171562D01*
Y172438D01*
X141365Y173246D01*
X140746Y173865D01*
X139938Y174200D01*
X139062D01*
X138254Y173865D01*
X137635Y173246D01*
X137300Y172438D01*
Y171562D01*
X137461Y171174D01*
Y166724D01*
X136933D01*
Y161984D01*
X142067D01*
Y162315D01*
X144854D01*
X145635Y162470D01*
X146296Y162912D01*
X147343Y163959D01*
X147949D01*
X148156Y163459D01*
X145146Y160448D01*
X144870Y160035D01*
X144773Y159547D01*
Y153799D01*
X144870Y153312D01*
X144901Y153265D01*
Y151455D01*
X144998Y150968D01*
X145274Y150554D01*
X151300Y144528D01*
Y144062D01*
X151635Y143254D01*
X152254Y142635D01*
X153062Y142300D01*
X153938D01*
X154746Y142635D01*
X155365Y143254D01*
X155700Y144062D01*
Y144938D01*
X155365Y145746D01*
X154746Y146365D01*
X153938Y146700D01*
X153062D01*
X152830Y146604D01*
X151685Y147748D01*
X151877Y148210D01*
X156849D01*
X158394Y146664D01*
X158300Y146438D01*
Y145562D01*
X158635Y144754D01*
X159254Y144135D01*
X159642Y143974D01*
X164758Y138858D01*
X165420Y138416D01*
X166200Y138261D01*
X176192D01*
X176972Y138416D01*
X177634Y138858D01*
X180673Y141898D01*
X181246Y142135D01*
X181865Y142754D01*
X182200Y143562D01*
Y144438D01*
X182106Y144664D01*
X183489Y146047D01*
X184019Y145870D01*
X184049Y145660D01*
X183635Y145246D01*
X183300Y144438D01*
Y143562D01*
X183635Y142754D01*
X184254Y142135D01*
X185062Y141800D01*
X185938D01*
X186746Y142135D01*
X187365Y142754D01*
X187700Y143562D01*
Y144438D01*
X187365Y145246D01*
X186767Y145845D01*
Y153791D01*
X186759Y153831D01*
Y158232D01*
X186662Y158720D01*
X186385Y159133D01*
X181953Y163566D01*
X182145Y164028D01*
X185709D01*
X185916Y163528D01*
X185635Y163246D01*
X185300Y162438D01*
Y161562D01*
X185635Y160754D01*
X186254Y160135D01*
X187062Y159800D01*
X187938D01*
X188746Y160135D01*
X189365Y160754D01*
X189700Y161562D01*
Y162438D01*
X189365Y163246D01*
X188751Y163860D01*
Y166177D01*
X188654Y166665D01*
X188543Y166830D01*
Y168374D01*
X186512D01*
Y172538D01*
X186746Y172635D01*
X187365Y173254D01*
X187700Y174062D01*
Y174938D01*
X187365Y175746D01*
X186746Y176365D01*
X185938Y176700D01*
X185062D01*
X184254Y176365D01*
X183706Y175817D01*
X183371Y175884D01*
X183206Y175970D01*
Y178933D01*
X185016D01*
Y179439D01*
X185041Y179500D01*
Y183500D01*
X185016Y183561D01*
Y184067D01*
D02*
G37*
G36*
X8500Y170632D02*
Y167500D01*
X11632D01*
X11460Y168140D01*
X10901Y169110D01*
X10110Y169901D01*
X9140Y170460D01*
X8500Y170632D01*
D02*
G37*
G36*
X6500D02*
X5860Y170460D01*
X4890Y169901D01*
X4099Y169110D01*
X3540Y168140D01*
X3368Y167500D01*
X6500D01*
Y170632D01*
D02*
G37*
G36*
X334500Y168632D02*
Y165500D01*
X337632D01*
X337460Y166140D01*
X336901Y167110D01*
X336110Y167901D01*
X335140Y168460D01*
X334500Y168632D01*
D02*
G37*
G36*
X332500D02*
X331860Y168460D01*
X330890Y167901D01*
X330099Y167110D01*
X329540Y166140D01*
X329368Y165500D01*
X332500D01*
Y168632D01*
D02*
G37*
G36*
X11632Y165500D02*
X8500D01*
Y162368D01*
X9140Y162540D01*
X10110Y163099D01*
X10901Y163890D01*
X11460Y164860D01*
X11632Y165500D01*
D02*
G37*
G36*
X6500D02*
X3368D01*
X3540Y164860D01*
X4099Y163890D01*
X4890Y163099D01*
X5860Y162540D01*
X6500Y162368D01*
Y165500D01*
D02*
G37*
G36*
X337632Y163500D02*
X334500D01*
Y160368D01*
X335140Y160540D01*
X336110Y161099D01*
X336901Y161890D01*
X337460Y162860D01*
X337632Y163500D01*
D02*
G37*
G36*
X332500D02*
X329368D01*
X329540Y162860D01*
X330099Y161890D01*
X330890Y161099D01*
X331860Y160540D01*
X332500Y160368D01*
Y163500D01*
D02*
G37*
G36*
X232500Y160547D02*
Y156500D01*
X236547D01*
X236284Y157482D01*
X235608Y158652D01*
X234652Y159608D01*
X233482Y160284D01*
X232500Y160547D01*
D02*
G37*
G36*
X230500D02*
X229518Y160284D01*
X228348Y159608D01*
X227392Y158652D01*
X226716Y157482D01*
X226453Y156500D01*
X230500D01*
Y160547D01*
D02*
G37*
G36*
X212500D02*
Y156500D01*
X216547D01*
X216284Y157482D01*
X215608Y158652D01*
X214652Y159608D01*
X213482Y160284D01*
X212500Y160547D01*
D02*
G37*
G36*
X210500D02*
X209518Y160284D01*
X208348Y159608D01*
X207392Y158652D01*
X206716Y157482D01*
X206453Y156500D01*
X210500D01*
Y160547D01*
D02*
G37*
G36*
X54500D02*
Y156500D01*
X58547D01*
X58284Y157482D01*
X57608Y158652D01*
X56652Y159608D01*
X55482Y160284D01*
X54500Y160547D01*
D02*
G37*
G36*
X52500D02*
X51518Y160284D01*
X50348Y159608D01*
X49392Y158652D01*
X48716Y157482D01*
X48453Y156500D01*
X52500D01*
Y160547D01*
D02*
G37*
G36*
X273224Y164567D02*
X268484D01*
Y159433D01*
X273224D01*
Y160471D01*
X279106D01*
X279526Y160051D01*
Y157949D01*
X278532Y156955D01*
X275819D01*
X275546Y156900D01*
X275314Y156745D01*
X275159Y156514D01*
X275104Y156240D01*
Y154767D01*
X274319Y153982D01*
X271843D01*
X271763Y154120D01*
X271120Y154763D01*
X270333Y155218D01*
X269455Y155453D01*
X268545D01*
X267667Y155218D01*
X266880Y154763D01*
X266237Y154120D01*
X265782Y153333D01*
X265547Y152455D01*
Y151545D01*
X265782Y150667D01*
X266237Y149880D01*
X266880Y149237D01*
X267667Y148783D01*
X268545Y148547D01*
X269455D01*
X270333Y148783D01*
X271120Y149237D01*
X271763Y149880D01*
X272217Y150667D01*
X272286Y150923D01*
X274953D01*
X275538Y151040D01*
X276034Y151371D01*
X278228Y153565D01*
X278265D01*
X278740Y153471D01*
X279215Y153565D01*
X279354D01*
X279628Y153619D01*
X279860Y153774D01*
X280014Y154006D01*
X280041Y154138D01*
X282137Y156234D01*
X282468Y156730D01*
X282585Y157315D01*
Y160685D01*
X282468Y161270D01*
X282137Y161766D01*
X280821Y163081D01*
X280325Y163413D01*
X280069Y163464D01*
Y163721D01*
X280014Y163994D01*
X279860Y164226D01*
X279628Y164381D01*
X279354Y164435D01*
X275819D01*
X275546Y164381D01*
X275314Y164226D01*
X275159Y163994D01*
X275104Y163721D01*
Y163529D01*
X273224D01*
Y164567D01*
D02*
G37*
G36*
X290181Y156955D02*
X286646D01*
X286372Y156900D01*
X286140Y156745D01*
X285985Y156514D01*
X285931Y156240D01*
Y154279D01*
X285985Y154006D01*
X286140Y153774D01*
X286372Y153619D01*
X286646Y153565D01*
X290181D01*
X290455Y153619D01*
X290621Y153730D01*
X292776D01*
Y151433D01*
X297516D01*
Y156567D01*
X294826D01*
X294668Y156673D01*
X294083Y156789D01*
X290621D01*
X290455Y156900D01*
X290181Y156955D01*
D02*
G37*
G36*
X236547Y154500D02*
X232500D01*
Y150453D01*
X233482Y150716D01*
X234652Y151392D01*
X235608Y152348D01*
X236284Y153518D01*
X236547Y154500D01*
D02*
G37*
G36*
X230500D02*
X226453D01*
X226716Y153518D01*
X227392Y152348D01*
X228348Y151392D01*
X229518Y150716D01*
X230500Y150453D01*
Y154500D01*
D02*
G37*
G36*
X216547D02*
X212500D01*
Y150453D01*
X213482Y150716D01*
X214652Y151392D01*
X215608Y152348D01*
X216284Y153518D01*
X216547Y154500D01*
D02*
G37*
G36*
X210500D02*
X206453D01*
X206716Y153518D01*
X207392Y152348D01*
X208348Y151392D01*
X209518Y150716D01*
X210500Y150453D01*
Y154500D01*
D02*
G37*
G36*
X122500D02*
X118453D01*
X118716Y153518D01*
X119392Y152348D01*
X120348Y151392D01*
X121518Y150716D01*
X122500Y150453D01*
Y154500D01*
D02*
G37*
G36*
X58547D02*
X54500D01*
Y150453D01*
X55482Y150716D01*
X56652Y151392D01*
X57608Y152348D01*
X58284Y153518D01*
X58547Y154500D01*
D02*
G37*
G36*
X52500D02*
X48453D01*
X48716Y153518D01*
X49392Y152348D01*
X50348Y151392D01*
X51518Y150716D01*
X52500Y150453D01*
Y154500D01*
D02*
G37*
G36*
X262453Y155453D02*
X255547D01*
Y155041D01*
X250500D01*
X250117Y154883D01*
X249959Y154500D01*
Y110106D01*
X249459Y109901D01*
X248738Y110200D01*
X247862D01*
X247054Y109865D01*
X246435Y109246D01*
X246100Y108438D01*
Y107963D01*
X234167Y96029D01*
X228567D01*
Y97016D01*
X223433D01*
Y94529D01*
X221728D01*
Y95902D01*
X217146D01*
Y90098D01*
X221728D01*
Y91471D01*
X224158D01*
X224743Y91587D01*
X225239Y91919D01*
X225596Y92276D01*
X228567D01*
Y92971D01*
X234800D01*
X235385Y93087D01*
X235881Y93419D01*
X248263Y105800D01*
X248738D01*
X249459Y106099D01*
X249959Y105894D01*
Y90039D01*
X241500D01*
X240720Y89884D01*
X240058Y89442D01*
X231545Y80929D01*
X231455Y80953D01*
X230545D01*
X229667Y80717D01*
X228880Y80263D01*
X228237Y79620D01*
X227783Y78833D01*
X227547Y77955D01*
Y77045D01*
X227783Y76167D01*
X228237Y75380D01*
X228880Y74737D01*
X229667Y74283D01*
X230545Y74047D01*
X231455D01*
X232333Y74283D01*
X233120Y74737D01*
X233763Y75380D01*
X234218Y76167D01*
X234453Y77045D01*
Y77955D01*
X234429Y78045D01*
X242345Y85961D01*
X249959D01*
Y85500D01*
X250117Y85117D01*
X250500Y84959D01*
X255547Y84959D01*
Y84547D01*
X262453D01*
Y91453D01*
X255547D01*
Y91041D01*
X253541D01*
Y148959D01*
X255547D01*
Y148547D01*
X262453D01*
Y155453D01*
D02*
G37*
G36*
X222084Y149937D02*
X220916D01*
X219787Y149635D01*
X218776Y149050D01*
X217950Y148224D01*
X217554Y147539D01*
X208453D01*
X207672Y147384D01*
X207011Y146942D01*
X195108Y135039D01*
X186224D01*
Y135567D01*
X181484D01*
Y130433D01*
X186224D01*
Y130961D01*
X188630D01*
Y130866D01*
X193370D01*
Y130961D01*
X195953D01*
X196733Y131116D01*
X197395Y131558D01*
X209297Y143461D01*
X217554D01*
X217950Y142776D01*
X218776Y141949D01*
X219787Y141365D01*
X220916Y141063D01*
X222084D01*
X223213Y141365D01*
X224224Y141949D01*
X225050Y142776D01*
X225635Y143787D01*
X225937Y144916D01*
Y146084D01*
X225635Y147213D01*
X225050Y148224D01*
X224224Y149050D01*
X223213Y149635D01*
X222084Y149937D01*
D02*
G37*
G36*
X8500Y140632D02*
Y137500D01*
X11632D01*
X11460Y138140D01*
X10901Y139110D01*
X10110Y139901D01*
X9140Y140460D01*
X8500Y140632D01*
D02*
G37*
G36*
X6500D02*
X5860Y140460D01*
X4890Y139901D01*
X4099Y139110D01*
X3540Y138140D01*
X3368Y137500D01*
X6500D01*
Y140632D01*
D02*
G37*
G36*
X232500Y140547D02*
Y136500D01*
X236547D01*
X236284Y137482D01*
X235608Y138652D01*
X234652Y139608D01*
X233482Y140284D01*
X232500Y140547D01*
D02*
G37*
G36*
X230500D02*
X229518Y140284D01*
X228348Y139608D01*
X227392Y138652D01*
X226716Y137482D01*
X226453Y136500D01*
X230500D01*
Y140547D01*
D02*
G37*
G36*
X212500D02*
Y136500D01*
X216547D01*
X216284Y137482D01*
X215608Y138652D01*
X214652Y139608D01*
X213482Y140284D01*
X212500Y140547D01*
D02*
G37*
G36*
X210500D02*
X209518Y140284D01*
X208348Y139608D01*
X207392Y138652D01*
X206716Y137482D01*
X206453Y136500D01*
X210500D01*
Y140547D01*
D02*
G37*
G36*
X74500D02*
Y136500D01*
X78547D01*
X78284Y137482D01*
X77608Y138652D01*
X76652Y139608D01*
X75482Y140284D01*
X74500Y140547D01*
D02*
G37*
G36*
X72500D02*
X71518Y140284D01*
X70348Y139608D01*
X69392Y138652D01*
X68716Y137482D01*
X68453Y136500D01*
X72500D01*
Y140547D01*
D02*
G37*
G36*
X54500D02*
Y136500D01*
X58547D01*
X58284Y137482D01*
X57608Y138652D01*
X56652Y139608D01*
X55482Y140284D01*
X54500Y140547D01*
D02*
G37*
G36*
X52500D02*
X51518Y140284D01*
X50348Y139608D01*
X49392Y138652D01*
X48716Y137482D01*
X48453Y136500D01*
X52500D01*
Y140547D01*
D02*
G37*
G36*
X334500Y138632D02*
Y135500D01*
X337632D01*
X337460Y136140D01*
X336901Y137110D01*
X336110Y137901D01*
X335140Y138460D01*
X334500Y138632D01*
D02*
G37*
G36*
X332500D02*
X331860Y138460D01*
X330890Y137901D01*
X330099Y137110D01*
X329540Y136140D01*
X329368Y135500D01*
X332500D01*
Y138632D01*
D02*
G37*
G36*
X180516Y135567D02*
X175776D01*
Y134304D01*
X173370D01*
Y135134D01*
X168630D01*
Y134304D01*
X167370D01*
Y135134D01*
X162630D01*
Y130984D01*
X167370D01*
Y131755D01*
X168630D01*
Y130984D01*
X173370D01*
Y131755D01*
X175776D01*
Y130433D01*
X180516D01*
Y135567D01*
D02*
G37*
G36*
X11632Y135500D02*
X8500D01*
Y132368D01*
X9140Y132540D01*
X10110Y133099D01*
X10901Y133890D01*
X11460Y134860D01*
X11632Y135500D01*
D02*
G37*
G36*
X6500D02*
X3368D01*
X3540Y134860D01*
X4099Y133890D01*
X4890Y133099D01*
X5860Y132540D01*
X6500Y132368D01*
Y135500D01*
D02*
G37*
G36*
X236547Y134500D02*
X232500D01*
Y130453D01*
X233482Y130716D01*
X234652Y131392D01*
X235608Y132348D01*
X236284Y133518D01*
X236547Y134500D01*
D02*
G37*
G36*
X230500D02*
X226453D01*
X226716Y133518D01*
X227392Y132348D01*
X228348Y131392D01*
X229518Y130716D01*
X230500Y130453D01*
Y134500D01*
D02*
G37*
G36*
X216547D02*
X212500D01*
Y130453D01*
X213482Y130716D01*
X214652Y131392D01*
X215608Y132348D01*
X216284Y133518D01*
X216547Y134500D01*
D02*
G37*
G36*
X210500D02*
X206453D01*
X206716Y133518D01*
X207392Y132348D01*
X208348Y131392D01*
X209518Y130716D01*
X210500Y130453D01*
Y134500D01*
D02*
G37*
G36*
X128547D02*
X124500D01*
Y130453D01*
X125482Y130716D01*
X126652Y131392D01*
X127608Y132348D01*
X128284Y133518D01*
X128547Y134500D01*
D02*
G37*
G36*
X122500D02*
X118453D01*
X118716Y133518D01*
X119392Y132348D01*
X120348Y131392D01*
X121518Y130716D01*
X122500Y130453D01*
Y134500D01*
D02*
G37*
G36*
X78547D02*
X74500D01*
Y130453D01*
X75482Y130716D01*
X76652Y131392D01*
X77608Y132348D01*
X78284Y133518D01*
X78547Y134500D01*
D02*
G37*
G36*
X72500D02*
X68453D01*
X68716Y133518D01*
X69392Y132348D01*
X70348Y131392D01*
X71518Y130716D01*
X72500Y130453D01*
Y134500D01*
D02*
G37*
G36*
X58547D02*
X54500D01*
Y130453D01*
X55482Y130716D01*
X56652Y131392D01*
X57608Y132348D01*
X58284Y133518D01*
X58547Y134500D01*
D02*
G37*
G36*
X52500D02*
X48453D01*
X48716Y133518D01*
X49392Y132348D01*
X50348Y131392D01*
X51518Y130716D01*
X52500Y130453D01*
Y134500D01*
D02*
G37*
G36*
X337632Y133500D02*
X334500D01*
Y130368D01*
X335140Y130540D01*
X336110Y131099D01*
X336901Y131890D01*
X337460Y132860D01*
X337632Y133500D01*
D02*
G37*
G36*
X332500D02*
X329368D01*
X329540Y132860D01*
X330099Y131890D01*
X330890Y131099D01*
X331860Y130540D01*
X332500Y130368D01*
Y133500D01*
D02*
G37*
G36*
X272453Y143453D02*
X265547D01*
Y136547D01*
X272453D01*
Y138471D01*
X278366D01*
X285931Y130906D01*
Y129760D01*
X285985Y129486D01*
X286140Y129255D01*
X286372Y129100D01*
X286646Y129045D01*
X288124D01*
X288500Y128971D01*
X288797Y129030D01*
X292776D01*
Y127433D01*
X297516D01*
Y132567D01*
X292776D01*
Y132088D01*
X290778D01*
X290686Y132226D01*
X290455Y132381D01*
X290181Y132435D01*
X288728D01*
X280081Y141081D01*
X279585Y141413D01*
X279000Y141529D01*
X272453D01*
Y143453D01*
D02*
G37*
G36*
X64084Y199937D02*
X62916D01*
X61787Y199635D01*
X60776Y199050D01*
X59949Y198224D01*
X59365Y197213D01*
X59063Y196084D01*
Y194916D01*
X59365Y193787D01*
X59949Y192776D01*
X60776Y191949D01*
X61787Y191365D01*
X62916Y191063D01*
X64084D01*
X65213Y191365D01*
X66224Y191949D01*
X67050Y192776D01*
X67446Y193461D01*
X76155D01*
X96058Y173558D01*
X96720Y173116D01*
X97500Y172961D01*
X111830D01*
X123695Y161096D01*
X123504Y160634D01*
X122824D01*
X121518Y160284D01*
X120348Y159608D01*
X119392Y158652D01*
X118716Y157482D01*
X118453Y156500D01*
X123500D01*
Y155500D01*
X124500D01*
Y150453D01*
X125482Y150716D01*
X126652Y151392D01*
X127608Y152348D01*
X128284Y153518D01*
X128634Y154824D01*
Y155504D01*
X129096Y155695D01*
X151827Y132964D01*
Y128634D01*
X151866Y128437D01*
Y126547D01*
X151366Y126340D01*
X150134Y127572D01*
Y130870D01*
X149633D01*
X149442Y131156D01*
X137522Y143076D01*
X136861Y143518D01*
X136080Y143673D01*
X119134D01*
X119134Y143673D01*
X118353Y143518D01*
X117870Y143195D01*
X117495Y143546D01*
X117635Y143787D01*
X117937Y144916D01*
Y146084D01*
X117635Y147213D01*
X117051Y148224D01*
X116224Y149050D01*
X115539Y149446D01*
Y154500D01*
X115384Y155280D01*
X114942Y155942D01*
X107808Y163076D01*
X107147Y163518D01*
X106366Y163673D01*
X101134D01*
X101134Y163673D01*
X100354Y163518D01*
X99692Y163076D01*
X99497Y162881D01*
X98971Y162529D01*
X95924Y159483D01*
X95482Y158821D01*
X95327Y158041D01*
Y132959D01*
X95482Y132179D01*
X95924Y131517D01*
X99517Y127924D01*
X100179Y127482D01*
X100959Y127327D01*
X106866D01*
X107647Y127482D01*
X108308Y127924D01*
X118512Y138128D01*
X118912Y137821D01*
X118716Y137482D01*
X118453Y136500D01*
X128547D01*
X128284Y137482D01*
X127608Y138652D01*
X127128Y139133D01*
X127319Y139595D01*
X135236D01*
X145984Y128846D01*
Y126130D01*
X148692D01*
X155647Y119175D01*
X155622Y118973D01*
X155157Y118577D01*
X154809Y118507D01*
X154513Y118310D01*
X154316Y118014D01*
X154246Y117665D01*
Y117307D01*
X151125D01*
X145211Y123221D01*
X144880Y123442D01*
X144490Y123520D01*
X139870D01*
Y124634D01*
X135130D01*
Y124598D01*
X94286D01*
X84039Y134845D01*
Y155675D01*
X83884Y156455D01*
X83442Y157116D01*
X83442Y157116D01*
X77483Y163076D01*
X76821Y163518D01*
X76041Y163673D01*
X70959D01*
X70179Y163518D01*
X69517Y163076D01*
X69517Y163076D01*
X62058Y155616D01*
X61616Y154955D01*
X61461Y154175D01*
Y149446D01*
X60776Y149050D01*
X59949Y148224D01*
X59365Y147213D01*
X59063Y146084D01*
Y144916D01*
X59365Y143787D01*
X59949Y142776D01*
X60776Y141949D01*
X61787Y141365D01*
X62916Y141063D01*
X64084D01*
X65213Y141365D01*
X66224Y141949D01*
X67050Y142776D01*
X67635Y143787D01*
X67937Y144916D01*
Y146084D01*
X67635Y147213D01*
X67050Y148224D01*
X66224Y149050D01*
X65539Y149446D01*
Y153330D01*
X67904Y155695D01*
X68366Y155504D01*
Y154824D01*
X68716Y153518D01*
X69392Y152348D01*
X70348Y151392D01*
X71518Y150716D01*
X72500Y150453D01*
Y155500D01*
X74500D01*
Y150453D01*
X75482Y150716D01*
X76652Y151392D01*
X77608Y152348D01*
X78284Y153518D01*
X78634Y154824D01*
Y155504D01*
X79096Y155695D01*
X79961Y154830D01*
Y134000D01*
X80116Y133220D01*
X80558Y132558D01*
X91999Y121117D01*
X92661Y120675D01*
X93441Y120520D01*
X93441Y120520D01*
X135130D01*
Y120484D01*
X139870D01*
Y121480D01*
X144068D01*
X149792Y115756D01*
X149585Y115256D01*
X139909D01*
X139519Y115178D01*
X139188Y114957D01*
X124761Y100530D01*
X124540Y100199D01*
X124463Y99809D01*
Y95405D01*
X122078Y93020D01*
X121224D01*
Y94567D01*
X119538D01*
Y94981D01*
X119461Y95371D01*
X119240Y95702D01*
X109606Y105336D01*
X109700Y105562D01*
Y106438D01*
X109365Y107246D01*
X108746Y107865D01*
X107938Y108200D01*
X107062D01*
X106254Y107865D01*
X105635Y107246D01*
X105300Y106438D01*
Y105562D01*
X105635Y104754D01*
X106254Y104135D01*
X107062Y103800D01*
X107938D01*
X108164Y103894D01*
X117029Y95029D01*
X116838Y94567D01*
X116484D01*
Y89433D01*
X121224D01*
Y90980D01*
X122500D01*
X122890Y91058D01*
X123221Y91279D01*
X125501Y93559D01*
X125963Y93367D01*
Y92247D01*
X119782Y86067D01*
X116484D01*
Y82375D01*
X115562Y81453D01*
X107989D01*
X102520Y86922D01*
Y98541D01*
X102746Y98635D01*
X103365Y99254D01*
X103700Y100062D01*
Y100938D01*
X103365Y101746D01*
X102746Y102365D01*
X101938Y102700D01*
X101062D01*
X100254Y102365D01*
X99635Y101746D01*
X99300Y100938D01*
Y100062D01*
X99635Y99254D01*
X100254Y98635D01*
X100480Y98541D01*
Y86500D01*
X100558Y86110D01*
X100779Y85779D01*
X106846Y79712D01*
X107177Y79491D01*
X107567Y79413D01*
X115984D01*
X116374Y79491D01*
X116705Y79712D01*
X117926Y80933D01*
X121224D01*
Y84625D01*
X127703Y91104D01*
X127924Y91435D01*
X128002Y91825D01*
Y98765D01*
X140717Y111480D01*
X151500D01*
X151890Y111558D01*
X152221Y111779D01*
X152323Y111931D01*
X153091D01*
X153439Y112001D01*
X153735Y112198D01*
X153932Y112494D01*
X154165Y112590D01*
X154190Y112574D01*
X154580Y112496D01*
X161640D01*
X162030Y112574D01*
X162361Y112795D01*
X163178Y113611D01*
X163399Y113942D01*
X163425Y114073D01*
X163497Y114146D01*
X163676Y114265D01*
X163730Y114346D01*
X164290D01*
X164309Y114334D01*
X164356Y114265D01*
X164651Y114068D01*
X165000Y113998D01*
X165349Y114068D01*
X165632Y114257D01*
X165649Y114265D01*
X166225Y114235D01*
X166279Y114155D01*
X167639Y112795D01*
X167970Y112574D01*
X168360Y112496D01*
X175612D01*
X176002Y112574D01*
X176056Y112551D01*
X176068Y112494D01*
X176265Y112198D01*
X176561Y112001D01*
X176909Y111931D01*
X177851D01*
X177897Y111900D01*
X178287Y111823D01*
X185207D01*
X185366Y111652D01*
X185324Y111362D01*
X185217Y111078D01*
X184877Y110851D01*
X184206Y110180D01*
X178287D01*
X177800Y110083D01*
X177401Y109817D01*
X176909D01*
X176561Y109747D01*
X176265Y109550D01*
X176068Y109254D01*
X175998Y108905D01*
X176068Y108557D01*
X176265Y108261D01*
X176346Y108207D01*
Y107635D01*
X176265Y107581D01*
X176068Y107286D01*
X175998Y106937D01*
X176068Y106588D01*
X176265Y106293D01*
X176346Y106239D01*
Y105667D01*
X176265Y105613D01*
X176068Y105317D01*
X175998Y104969D01*
X176068Y104620D01*
X176265Y104324D01*
X176346Y104270D01*
Y103698D01*
X176265Y103644D01*
X176068Y103349D01*
X175998Y103000D01*
X176068Y102651D01*
X176190Y102468D01*
X176139Y102133D01*
X176113Y102037D01*
X176047Y101900D01*
X175779Y101721D01*
X174795Y100737D01*
X174574Y100406D01*
X174496Y100016D01*
Y92388D01*
X174574Y91998D01*
X174551Y91944D01*
X174494Y91932D01*
X174198Y91735D01*
X174144Y91654D01*
X173572D01*
X173518Y91735D01*
X173223Y91932D01*
X172874Y92002D01*
X172525Y91932D01*
X172230Y91735D01*
X172176Y91654D01*
X171604D01*
X171550Y91735D01*
X171254Y91932D01*
X170905Y92002D01*
X170557Y91932D01*
X170261Y91735D01*
X170207Y91654D01*
X169635D01*
X169581Y91735D01*
X169286Y91932D01*
X168937Y92002D01*
X168588Y91932D01*
X168293Y91735D01*
X168095Y91439D01*
X168026Y91091D01*
Y88335D01*
X168095Y87986D01*
X168293Y87690D01*
X168588Y87493D01*
X168937Y87423D01*
X169376Y87001D01*
Y85416D01*
X169254Y85365D01*
X168635Y84746D01*
X168300Y83938D01*
Y83062D01*
X168635Y82254D01*
X169238Y81650D01*
Y81390D01*
X169355Y80804D01*
X169686Y80308D01*
X173433Y76561D01*
Y73984D01*
X178047D01*
Y67989D01*
X173700Y63642D01*
X173200Y63849D01*
Y64438D01*
X172865Y65246D01*
X172596Y65515D01*
Y73137D01*
X172480Y73722D01*
X172148Y74218D01*
X171215Y75151D01*
X170755Y75459D01*
X170067Y76147D01*
Y78724D01*
X167096D01*
X164797Y81023D01*
Y82186D01*
X164865Y82254D01*
X165200Y83062D01*
Y83938D01*
X164865Y84746D01*
X164545Y85066D01*
Y87008D01*
X165000Y87423D01*
X165349Y87493D01*
X165644Y87690D01*
X165842Y87986D01*
X165911Y88335D01*
Y91091D01*
X165842Y91439D01*
X165644Y91735D01*
X165349Y91932D01*
X165000Y92002D01*
X164651Y91932D01*
X164356Y91735D01*
X164302Y91654D01*
X163730D01*
X163676Y91735D01*
X163380Y91932D01*
X163031Y92002D01*
X162683Y91932D01*
X162387Y91735D01*
X162333Y91654D01*
X161761D01*
X161707Y91735D01*
X161412Y91932D01*
X161063Y92002D01*
X160714Y91932D01*
X160419Y91735D01*
X160365Y91654D01*
X159793D01*
X159739Y91735D01*
X159443Y91932D01*
X159095Y92002D01*
X158746Y91932D01*
X158450Y91735D01*
X158253Y91439D01*
X158183Y91091D01*
Y90149D01*
X158152Y90103D01*
X158075Y89713D01*
Y86041D01*
X155500D01*
X155117Y85883D01*
X154959Y85500D01*
Y81500D01*
X155117Y81117D01*
X155500Y80959D01*
X158075D01*
Y78724D01*
X156433D01*
Y73984D01*
X161567D01*
Y78724D01*
X160114D01*
Y87315D01*
X160614Y87560D01*
X160714Y87493D01*
X161063Y87423D01*
X161486Y86998D01*
Y85098D01*
X161135Y84746D01*
X160800Y83938D01*
Y83062D01*
X161135Y82254D01*
X161739Y81650D01*
Y80390D01*
X161855Y79804D01*
X162186Y79308D01*
X164933Y76561D01*
Y73984D01*
X167904D01*
X168900Y72989D01*
X169360Y72681D01*
X169537Y72504D01*
Y65649D01*
X169135Y65246D01*
X168800Y64438D01*
Y63562D01*
X169135Y62754D01*
X169754Y62135D01*
X170562Y61800D01*
X171151D01*
X171358Y61300D01*
X170578Y60520D01*
X142459D01*
X142365Y60746D01*
X141746Y61365D01*
X140938Y61700D01*
X140062D01*
X139254Y61365D01*
X138635Y60746D01*
X138300Y59938D01*
Y59062D01*
X138356Y58926D01*
X132401Y52970D01*
X130917D01*
Y56975D01*
X133336Y59394D01*
X133562Y59300D01*
X134438D01*
X135246Y59635D01*
X135865Y60254D01*
X136200Y61062D01*
Y61938D01*
X136106Y62164D01*
X151721Y77779D01*
X151942Y78110D01*
X152020Y78500D01*
Y86078D01*
X153827Y87885D01*
X153918Y87904D01*
X154444Y87795D01*
X154513Y87690D01*
X154809Y87493D01*
X155157Y87423D01*
X155506Y87493D01*
X155802Y87690D01*
X155999Y87986D01*
X156069Y88335D01*
Y88913D01*
X156099Y88959D01*
X156177Y89350D01*
Y89713D01*
X156099Y90103D01*
X156069Y90149D01*
Y91091D01*
X155999Y91439D01*
X155802Y91735D01*
X155506Y91932D01*
X155157Y92002D01*
X154809Y91932D01*
X154513Y91735D01*
X154316Y91439D01*
X154246Y91091D01*
Y90263D01*
X153743D01*
X153353Y90185D01*
X153022Y89964D01*
X150279Y87221D01*
X150270Y87207D01*
X149770Y87358D01*
Y90328D01*
X151688Y92246D01*
X153091D01*
X153439Y92316D01*
X153735Y92513D01*
X153932Y92809D01*
X154002Y93158D01*
X153932Y93506D01*
X153735Y93802D01*
X153654Y93856D01*
Y94428D01*
X153735Y94482D01*
X153932Y94777D01*
X154002Y95126D01*
X153932Y95475D01*
X153735Y95770D01*
X153654Y95824D01*
Y96396D01*
X153735Y96450D01*
X153932Y96746D01*
X154002Y97095D01*
X153932Y97443D01*
X153735Y97739D01*
X153654Y97793D01*
Y98365D01*
X153735Y98419D01*
X153932Y98714D01*
X154002Y99063D01*
X153932Y99412D01*
X153735Y99707D01*
X153439Y99905D01*
X153091Y99974D01*
X152149D01*
X152103Y100005D01*
X151713Y100083D01*
X149319D01*
X148958Y100011D01*
X148927Y100032D01*
X148737Y100496D01*
X149641Y101401D01*
X151388D01*
X151875Y101498D01*
X152289Y101774D01*
X152604Y102089D01*
X153091D01*
X153439Y102158D01*
X153735Y102356D01*
X153932Y102651D01*
X154002Y103000D01*
X153932Y103349D01*
X153735Y103644D01*
X153439Y103842D01*
X153091Y103911D01*
X152599D01*
X152200Y104177D01*
X151713Y104274D01*
X151225Y104177D01*
X150884Y103950D01*
X149113D01*
X148626Y103853D01*
X148212Y103576D01*
X146367Y101731D01*
X145531D01*
X144723Y101396D01*
X144104Y100777D01*
X143769Y99969D01*
Y99093D01*
X143968Y98613D01*
X139922Y94567D01*
X136984D01*
Y89953D01*
X133228D01*
X132837Y89875D01*
X132507Y89654D01*
X113779Y70926D01*
X113558Y70596D01*
X113480Y70206D01*
Y67959D01*
X113254Y67865D01*
X112635Y67246D01*
X112300Y66438D01*
Y65562D01*
X112635Y64754D01*
X113254Y64135D01*
X113502Y64032D01*
Y52970D01*
X113157D01*
Y46529D01*
X111634D01*
X90581Y67581D01*
X90085Y67913D01*
X89500Y68029D01*
X83104D01*
X82763Y68620D01*
X82120Y69263D01*
X81333Y69717D01*
X80455Y69953D01*
X79545D01*
X78667Y69717D01*
X77880Y69263D01*
X77237Y68620D01*
X76783Y67833D01*
X76547Y66955D01*
Y66045D01*
X76783Y65167D01*
X77237Y64380D01*
X77880Y63737D01*
X78471Y63396D01*
Y59067D01*
X76276D01*
Y58588D01*
X74278D01*
X74186Y58726D01*
X73954Y58881D01*
X73681Y58935D01*
X70146D01*
X69872Y58881D01*
X69640Y58726D01*
X69485Y58494D01*
X69431Y58220D01*
Y56260D01*
X69485Y55986D01*
X69640Y55755D01*
X69872Y55600D01*
X70146Y55545D01*
X72016D01*
X72095Y55530D01*
X76276D01*
Y53933D01*
X81016D01*
Y56904D01*
X81081Y56970D01*
X81413Y57466D01*
X81529Y58051D01*
Y63396D01*
X82120Y63737D01*
X82763Y64380D01*
X83104Y64971D01*
X88867D01*
X109919Y43919D01*
X110415Y43587D01*
X111000Y43471D01*
X120959D01*
Y39000D01*
X121117Y38617D01*
X121500Y38459D01*
X136433D01*
Y37984D01*
X141567D01*
Y42724D01*
X141448D01*
X141383Y42883D01*
X141000Y43041D01*
X126041D01*
Y46163D01*
X133843D01*
Y51529D01*
X139745Y57431D01*
X140062Y57300D01*
X140938D01*
X141746Y57635D01*
X142365Y58254D01*
X142459Y58480D01*
X171000D01*
X171390Y58558D01*
X171721Y58779D01*
X179788Y66846D01*
X180009Y67177D01*
X180087Y67567D01*
Y88837D01*
X180009Y89227D01*
X179788Y89558D01*
X176535Y92811D01*
Y93779D01*
X176909Y94215D01*
X177396D01*
X177711Y93900D01*
X178124Y93624D01*
X178612Y93527D01*
X179818D01*
X188876Y84469D01*
X188835Y84140D01*
X188328Y83948D01*
X187102Y85173D01*
X186865Y85746D01*
X186246Y86365D01*
X185438Y86700D01*
X184562D01*
X183754Y86365D01*
X183135Y85746D01*
X182800Y84938D01*
Y84062D01*
X183135Y83254D01*
X183754Y82635D01*
X183957Y82551D01*
X185461Y81047D01*
Y57310D01*
X185380Y57263D01*
X184737Y56620D01*
X184283Y55833D01*
X184047Y54955D01*
Y54045D01*
X184283Y53167D01*
X184737Y52380D01*
X185380Y51737D01*
X186167Y51283D01*
X187045Y51047D01*
X187955D01*
X188833Y51283D01*
X189620Y51737D01*
X190263Y52380D01*
X190717Y53167D01*
X190953Y54045D01*
Y54955D01*
X190717Y55833D01*
X190263Y56620D01*
X189620Y57263D01*
X189539Y57310D01*
Y78348D01*
X190001Y78539D01*
X191776Y76765D01*
Y73433D01*
X192106D01*
Y70146D01*
X192262Y69365D01*
X192704Y68704D01*
X196849Y64558D01*
X197511Y64116D01*
X198291Y63961D01*
X252024D01*
X256070Y59915D01*
X255879Y59453D01*
X255547D01*
Y52547D01*
X262453D01*
Y59453D01*
X261039D01*
Y66000D01*
Y73190D01*
X261120Y73237D01*
X261763Y73880D01*
X262217Y74667D01*
X262453Y75545D01*
Y76455D01*
X262217Y77333D01*
X261763Y78120D01*
X261120Y78763D01*
X260333Y79217D01*
X259455Y79453D01*
X258545D01*
X257667Y79217D01*
X256880Y78763D01*
X256237Y78120D01*
X255783Y77333D01*
X255547Y76455D01*
Y75545D01*
X255783Y74667D01*
X256237Y73880D01*
X256572Y73545D01*
X256591Y72857D01*
X251774Y68039D01*
X199136D01*
X196185Y70990D01*
Y73433D01*
X196516D01*
Y78567D01*
X193578D01*
X191525Y80620D01*
Y81537D01*
X191776Y81933D01*
X196516D01*
Y87067D01*
X193578D01*
X190373Y90272D01*
X190700Y91062D01*
Y91938D01*
X190365Y92746D01*
X189746Y93365D01*
X188938Y93700D01*
X188062D01*
X187272Y93373D01*
X183208Y97437D01*
X183415Y97937D01*
X185352D01*
X185635Y97254D01*
X186254Y96635D01*
X187062Y96300D01*
X187938D01*
X188746Y96635D01*
X189365Y97254D01*
X189700Y98062D01*
Y98938D01*
X189365Y99746D01*
X188746Y100365D01*
X187938Y100700D01*
X187062D01*
X186254Y100365D01*
X185865Y99976D01*
X180591D01*
X180472Y100151D01*
X180369Y100476D01*
X180507Y100683D01*
X180577Y101031D01*
X180538Y101225D01*
X180777Y101631D01*
X180878Y101725D01*
X188972D01*
X194313Y96385D01*
X194282Y96333D01*
X194047Y95455D01*
Y94545D01*
X194282Y93667D01*
X194737Y92880D01*
X195380Y92237D01*
X196167Y91783D01*
X197045Y91547D01*
X197955D01*
X198833Y91783D01*
X199138Y91959D01*
X204272D01*
Y90098D01*
X208854D01*
Y95902D01*
X208541D01*
Y97598D01*
X208854D01*
Y103402D01*
X204272D01*
Y98041D01*
X199138D01*
X198833Y98217D01*
X197955Y98453D01*
X197045D01*
X196167Y98217D01*
X196115Y98187D01*
X190401Y103901D01*
X189988Y104177D01*
X189500Y104274D01*
X186124D01*
X185917Y104774D01*
X186124Y104982D01*
X186562Y104800D01*
X187438D01*
X188246Y105135D01*
X188865Y105754D01*
X189200Y106562D01*
Y107438D01*
X188894Y108176D01*
X189089Y108676D01*
X191776D01*
Y106433D01*
X194713D01*
X196365Y104782D01*
X196778Y104506D01*
X197266Y104409D01*
X204840D01*
X205328Y104506D01*
X205742Y104782D01*
X207236Y106276D01*
X210567D01*
Y107371D01*
X237646D01*
X238133Y107468D01*
X238547Y107745D01*
X244602Y113800D01*
X245438D01*
X246246Y114135D01*
X246865Y114754D01*
X247200Y115562D01*
Y116438D01*
X246865Y117246D01*
X246246Y117865D01*
X245858Y118026D01*
X236942Y126942D01*
X236280Y127384D01*
X235500Y127539D01*
X227326D01*
X226938Y127700D01*
X226062D01*
X225254Y127365D01*
X224635Y126746D01*
X224300Y125938D01*
Y125062D01*
X224635Y124254D01*
X225254Y123635D01*
X226062Y123300D01*
X226938D01*
X227326Y123461D01*
X234655D01*
X242657Y115459D01*
X237118Y109920D01*
X210567D01*
Y111016D01*
X205433D01*
Y108078D01*
X204313Y106958D01*
X197794D01*
X196516Y108236D01*
Y111567D01*
X191776D01*
Y111224D01*
X188489D01*
X188443Y111303D01*
X188336Y111724D01*
X188865Y112254D01*
X189200Y113062D01*
Y113938D01*
X188865Y114746D01*
X188246Y115365D01*
X187438Y115700D01*
X186562D01*
X185754Y115365D01*
X185135Y114746D01*
X184800Y113938D01*
Y113862D01*
X178287D01*
X178062Y113817D01*
X177816Y114278D01*
X180018Y116480D01*
X191776D01*
Y114933D01*
X196516D01*
Y118625D01*
X197871Y119980D01*
X205541D01*
X205635Y119754D01*
X206254Y119135D01*
X207062Y118800D01*
X207938D01*
X208746Y119135D01*
X209365Y119754D01*
X209700Y120562D01*
Y121438D01*
X209365Y122246D01*
X208746Y122865D01*
X207938Y123200D01*
X207062D01*
X206254Y122865D01*
X205635Y122246D01*
X205541Y122020D01*
X197449D01*
X197059Y121942D01*
X196728Y121721D01*
X195074Y120067D01*
X191776D01*
Y118520D01*
X179596D01*
X179206Y118442D01*
X178875Y118221D01*
X176216Y115562D01*
X175754Y115753D01*
Y117665D01*
X175684Y118014D01*
X175487Y118310D01*
X175191Y118507D01*
X174843Y118577D01*
X174494Y118507D01*
X174198Y118310D01*
X174001Y118014D01*
X173931Y117665D01*
Y114910D01*
X173496Y114535D01*
X172252D01*
X171817Y114910D01*
Y115851D01*
X171847Y115897D01*
X171925Y116287D01*
Y117656D01*
X177713Y123444D01*
X178062Y123300D01*
X178938D01*
X179746Y123635D01*
X180365Y124254D01*
X180700Y125062D01*
Y125938D01*
X180365Y126746D01*
X179746Y127365D01*
X178938Y127700D01*
X178062D01*
X177254Y127365D01*
X176635Y126746D01*
X176300Y125938D01*
Y125062D01*
X176343Y124958D01*
X170705Y119320D01*
X170243Y119511D01*
Y120634D01*
X170246Y120635D01*
X170865Y121254D01*
X171200Y122062D01*
Y122938D01*
X170865Y123746D01*
X170246Y124365D01*
X169438Y124700D01*
X168562D01*
X167754Y124365D01*
X167135Y123746D01*
X166800Y122938D01*
Y122062D01*
X167135Y121254D01*
X167694Y120695D01*
Y118857D01*
X167570Y118742D01*
X167194Y118532D01*
X166969Y118577D01*
X166774Y118538D01*
X166369Y118777D01*
X166274Y118878D01*
Y125866D01*
X167370D01*
Y130016D01*
X162630D01*
Y125866D01*
X163725D01*
Y118878D01*
X163631Y118777D01*
X163225Y118538D01*
X163031Y118577D01*
X162806Y118532D01*
X162430Y118742D01*
X162306Y118857D01*
Y120695D01*
X162865Y121254D01*
X163200Y122062D01*
Y122938D01*
X162865Y123746D01*
X162246Y124365D01*
X161438Y124700D01*
X160562D01*
X159754Y124365D01*
X159135Y123746D01*
X158800Y122938D01*
Y122696D01*
X158300Y122488D01*
X156035Y124753D01*
Y127425D01*
X156016Y127524D01*
Y128382D01*
X156039Y128500D01*
X156016Y128618D01*
Y130870D01*
X155905D01*
Y133808D01*
X155750Y134589D01*
X155308Y135250D01*
X114117Y176442D01*
X113455Y176884D01*
X112675Y177039D01*
X98345D01*
X78442Y196942D01*
X77780Y197384D01*
X77000Y197539D01*
X67446D01*
X67050Y198224D01*
X66224Y199050D01*
X65213Y199635D01*
X64084Y199937D01*
D02*
G37*
G36*
X290181Y124955D02*
X286646D01*
X286372Y124900D01*
X286140Y124745D01*
X285985Y124514D01*
X285931Y124240D01*
Y122280D01*
X285985Y122006D01*
X286140Y121774D01*
X286372Y121619D01*
X286646Y121565D01*
X290181D01*
X290455Y121619D01*
X290621Y121730D01*
X292776D01*
Y119433D01*
X297516D01*
Y124567D01*
X294826D01*
X294668Y124673D01*
X294083Y124789D01*
X290621D01*
X290455Y124900D01*
X290181Y124955D01*
D02*
G37*
G36*
X269455Y123453D02*
X268545D01*
X267667Y123217D01*
X266880Y122763D01*
X266237Y122120D01*
X265782Y121333D01*
X265547Y120455D01*
Y119545D01*
X265782Y118667D01*
X266237Y117880D01*
X266880Y117237D01*
X267667Y116782D01*
X268545Y116547D01*
X269455D01*
X270333Y116782D01*
X271120Y117237D01*
X271763Y117880D01*
X272217Y118667D01*
X272453Y119545D01*
Y120455D01*
X272217Y121333D01*
X271763Y122120D01*
X271120Y122763D01*
X270333Y123217D01*
X269455Y123453D01*
D02*
G37*
G36*
X259455Y143453D02*
X258545D01*
X257667Y143218D01*
X256880Y142763D01*
X256237Y142120D01*
X255783Y141333D01*
X255547Y140455D01*
Y139545D01*
X255783Y138667D01*
X256237Y137880D01*
X256880Y137237D01*
X256961Y137190D01*
Y123453D01*
X255547D01*
Y116547D01*
X262453D01*
Y123453D01*
X261039D01*
Y137190D01*
X261120Y137237D01*
X261763Y137880D01*
X262217Y138667D01*
X262453Y139545D01*
Y140455D01*
X262217Y141333D01*
X261763Y142120D01*
X261120Y142763D01*
X260333Y143218D01*
X259455Y143453D01*
D02*
G37*
G36*
X170496Y111517D02*
X170221Y111404D01*
X169589Y110771D01*
X169581Y110751D01*
X169081D01*
X169073Y110771D01*
X168440Y111404D01*
X168165Y111517D01*
Y109496D01*
X166165D01*
Y111517D01*
X165891Y111404D01*
X165258Y110771D01*
X165250Y110751D01*
X164750D01*
X164742Y110771D01*
X164109Y111404D01*
X163835Y111517D01*
Y109496D01*
X161835D01*
Y111517D01*
X161560Y111404D01*
X160927Y110771D01*
X160919Y110751D01*
X160419D01*
X160411Y110771D01*
X159778Y111404D01*
X159504Y111517D01*
Y109496D01*
X158504D01*
Y108496D01*
X156483D01*
X156597Y108221D01*
X157229Y107589D01*
X157248Y107581D01*
Y107081D01*
X157229Y107073D01*
X156597Y106440D01*
X156483Y106165D01*
X158504D01*
Y104165D01*
X156483D01*
X156597Y103891D01*
X157229Y103258D01*
X157248Y103250D01*
Y102750D01*
X157229Y102742D01*
X156597Y102109D01*
X156483Y101835D01*
X158504D01*
Y99835D01*
X156483D01*
X156597Y99560D01*
X157229Y98927D01*
X157248Y98919D01*
Y98419D01*
X157229Y98411D01*
X156597Y97778D01*
X156483Y97504D01*
X158504D01*
Y96504D01*
X159504D01*
Y94483D01*
X159778Y94596D01*
X160411Y95229D01*
X160419Y95249D01*
X160919D01*
X160927Y95229D01*
X161560Y94596D01*
X161835Y94483D01*
Y96504D01*
X163835D01*
Y94483D01*
X164109Y94596D01*
X164742Y95229D01*
X164750Y95249D01*
X165250D01*
X165258Y95229D01*
X165891Y94596D01*
X166165Y94483D01*
Y96504D01*
X168165D01*
Y94483D01*
X168440Y94596D01*
X169073Y95229D01*
X169081Y95249D01*
X169581D01*
X169589Y95229D01*
X170221Y94596D01*
X170496Y94483D01*
Y96504D01*
X171496D01*
Y97504D01*
X173517D01*
X173404Y97778D01*
X172771Y98411D01*
X172751Y98419D01*
Y98919D01*
X172771Y98927D01*
X173404Y99560D01*
X173517Y99835D01*
X171496D01*
Y101835D01*
X173517D01*
X173404Y102109D01*
X172771Y102742D01*
X172751Y102750D01*
Y103250D01*
X172771Y103258D01*
X173404Y103891D01*
X173517Y104165D01*
X171496D01*
Y106165D01*
X173517D01*
X173404Y106440D01*
X172771Y107073D01*
X172751Y107081D01*
Y107581D01*
X172771Y107589D01*
X173404Y108221D01*
X173517Y108496D01*
X171496D01*
Y109496D01*
X170496D01*
Y111517D01*
D02*
G37*
G36*
X172496D02*
Y110496D01*
X173517D01*
X173404Y110771D01*
X172771Y111404D01*
X172496Y111517D01*
D02*
G37*
G36*
X157504D02*
X157229Y111404D01*
X156597Y110771D01*
X156483Y110496D01*
X157504D01*
Y111517D01*
D02*
G37*
G36*
X8500Y110632D02*
Y107500D01*
X11632D01*
X11460Y108140D01*
X10901Y109110D01*
X10110Y109901D01*
X9140Y110460D01*
X8500Y110632D01*
D02*
G37*
G36*
X6500D02*
X5860Y110460D01*
X4890Y109901D01*
X4099Y109110D01*
X3540Y108140D01*
X3368Y107500D01*
X6500D01*
Y110632D01*
D02*
G37*
G36*
X150941Y110360D02*
X147331D01*
X146745Y110244D01*
X146249Y109912D01*
X145037Y108700D01*
X144562D01*
X143754Y108365D01*
X143135Y107746D01*
X142800Y106938D01*
Y106463D01*
X139404Y103067D01*
X136984D01*
Y97933D01*
X141724D01*
Y101061D01*
X144963Y104300D01*
X145438D01*
X146246Y104635D01*
X146865Y105254D01*
X147200Y106062D01*
Y106537D01*
X147964Y107301D01*
X148986D01*
X149423Y106937D01*
X149493Y106588D01*
X149690Y106293D01*
X149986Y106095D01*
X150335Y106026D01*
X153091D01*
X153439Y106095D01*
X153735Y106293D01*
X153932Y106588D01*
X154002Y106937D01*
X153932Y107286D01*
X153735Y107581D01*
X153654Y107635D01*
Y108207D01*
X153735Y108261D01*
X153932Y108557D01*
X154002Y108905D01*
X153932Y109254D01*
X153735Y109550D01*
X153439Y109747D01*
X153091Y109817D01*
X152086D01*
X152022Y109912D01*
X151526Y110244D01*
X150941Y110360D01*
D02*
G37*
G36*
X334500Y108632D02*
Y105500D01*
X337632D01*
X337460Y106140D01*
X336901Y107110D01*
X336110Y107901D01*
X335140Y108460D01*
X334500Y108632D01*
D02*
G37*
G36*
X332500D02*
X331860Y108460D01*
X330890Y107901D01*
X330099Y107110D01*
X329540Y106140D01*
X329368Y105500D01*
X332500D01*
Y108632D01*
D02*
G37*
G36*
X11632Y105500D02*
X8500D01*
Y102368D01*
X9140Y102540D01*
X10110Y103099D01*
X10901Y103890D01*
X11460Y104860D01*
X11632Y105500D01*
D02*
G37*
G36*
X6500D02*
X3368D01*
X3540Y104860D01*
X4099Y103890D01*
X4890Y103099D01*
X5860Y102540D01*
X6500Y102368D01*
Y105500D01*
D02*
G37*
G36*
X337632Y103500D02*
X334500D01*
Y100368D01*
X335140Y100540D01*
X336110Y101099D01*
X336901Y101890D01*
X337460Y102860D01*
X337632Y103500D01*
D02*
G37*
G36*
X332500D02*
X329368D01*
X329540Y102860D01*
X330099Y101890D01*
X330890Y101099D01*
X331860Y100540D01*
X332500Y100368D01*
Y103500D01*
D02*
G37*
G36*
X83453Y109953D02*
X76547D01*
Y103047D01*
X78471D01*
Y99067D01*
X76276D01*
Y98589D01*
X74278D01*
X74186Y98726D01*
X73954Y98881D01*
X73681Y98935D01*
X70146D01*
X69872Y98881D01*
X69640Y98726D01*
X69485Y98494D01*
X69431Y98220D01*
Y96260D01*
X69485Y95986D01*
X69640Y95755D01*
X69872Y95600D01*
X70146Y95545D01*
X72016D01*
X72095Y95530D01*
X76276D01*
Y93933D01*
X81016D01*
Y96904D01*
X81081Y96970D01*
X81413Y97466D01*
X81529Y98051D01*
Y103047D01*
X83453D01*
Y109953D01*
D02*
G37*
G36*
X273224Y132567D02*
X268484D01*
Y127433D01*
X273224D01*
Y128471D01*
X279106D01*
X279526Y128051D01*
Y125949D01*
X278532Y124955D01*
X275819D01*
X275546Y124900D01*
X275314Y124745D01*
X275159Y124514D01*
X275104Y124240D01*
Y122280D01*
X275159Y122006D01*
X275314Y121774D01*
X275546Y121619D01*
X275810Y121567D01*
X275827Y121514D01*
X275902Y121065D01*
X268819Y113982D01*
X266953D01*
X266368Y113866D01*
X265871Y113534D01*
X257537Y105200D01*
X257062D01*
X256254Y104865D01*
X255635Y104246D01*
X255300Y103438D01*
Y102562D01*
X255635Y101754D01*
X256254Y101135D01*
X257062Y100800D01*
X257938D01*
X258746Y101135D01*
X259365Y101754D01*
X259700Y102562D01*
Y103037D01*
X265047Y108384D01*
X265547Y108177D01*
Y107545D01*
X265782Y106667D01*
X266237Y105880D01*
X266880Y105237D01*
X267667Y104782D01*
X268545Y104547D01*
X269455D01*
X270333Y104782D01*
X271120Y105237D01*
X271763Y105880D01*
X272104Y106471D01*
X278366D01*
X285931Y98906D01*
Y97760D01*
X285985Y97486D01*
X286140Y97255D01*
X286372Y97100D01*
X286646Y97045D01*
X288516D01*
X288595Y97030D01*
X292776D01*
Y95433D01*
X297516D01*
Y100567D01*
X292776D01*
Y100089D01*
X290778D01*
X290686Y100226D01*
X290455Y100381D01*
X290181Y100435D01*
X288728D01*
X280081Y109081D01*
X279585Y109413D01*
X279000Y109529D01*
X272104D01*
X271763Y110120D01*
X271120Y110763D01*
X270800Y110948D01*
X270764Y111006D01*
X270729Y111566D01*
X278581Y119419D01*
X278913Y119915D01*
X279029Y120500D01*
Y121528D01*
X279215Y121565D01*
X279354D01*
X279628Y121619D01*
X279860Y121774D01*
X280014Y122006D01*
X280041Y122138D01*
X282137Y124234D01*
X282468Y124730D01*
X282585Y125315D01*
Y128685D01*
X282468Y129270D01*
X282137Y129766D01*
X280821Y131081D01*
X280325Y131413D01*
X280069Y131464D01*
Y131720D01*
X280014Y131994D01*
X279860Y132226D01*
X279628Y132381D01*
X279354Y132435D01*
X275819D01*
X275546Y132381D01*
X275314Y132226D01*
X275159Y131994D01*
X275104Y131720D01*
Y131529D01*
X273224D01*
Y132567D01*
D02*
G37*
G36*
X173517Y95504D02*
X172496D01*
Y94483D01*
X172771Y94596D01*
X173404Y95229D01*
X173517Y95504D01*
D02*
G37*
G36*
X157504D02*
X156483D01*
X156597Y95229D01*
X157229Y94596D01*
X157504Y94483D01*
Y95504D01*
D02*
G37*
G36*
X56724Y99067D02*
X51984D01*
Y93933D01*
X56724D01*
Y94971D01*
X62606D01*
X63026Y94551D01*
Y92449D01*
X62032Y91455D01*
X61215D01*
X61087Y91480D01*
X60959Y91455D01*
X59319D01*
X59045Y91400D01*
X58814Y91245D01*
X58659Y91014D01*
X58604Y90740D01*
Y88779D01*
X58659Y88506D01*
X58814Y88274D01*
X59045Y88119D01*
X59047Y88119D01*
Y80159D01*
X58635Y79746D01*
X58300Y78938D01*
Y78062D01*
X58635Y77254D01*
X59254Y76635D01*
X60062Y76300D01*
X60938D01*
X61746Y76635D01*
X62365Y77254D01*
X62642Y77923D01*
X62971Y78414D01*
X63126Y79195D01*
Y88119D01*
X63128Y88119D01*
X63360Y88274D01*
X63514Y88506D01*
X63541Y88638D01*
X65637Y90734D01*
X65968Y91230D01*
X66084Y91815D01*
Y95185D01*
X65968Y95770D01*
X65637Y96266D01*
X64321Y97581D01*
X63825Y97913D01*
X63569Y97964D01*
Y98220D01*
X63514Y98494D01*
X63360Y98726D01*
X63128Y98881D01*
X62854Y98935D01*
X59319D01*
X59045Y98881D01*
X58814Y98726D01*
X58659Y98494D01*
X58604Y98220D01*
Y98029D01*
X56724D01*
Y99067D01*
D02*
G37*
G36*
X273224Y100567D02*
X268484D01*
Y95433D01*
X273224D01*
Y96471D01*
X279106D01*
X279526Y96051D01*
Y93949D01*
X278532Y92955D01*
X275819D01*
X275546Y92900D01*
X275314Y92745D01*
X275159Y92514D01*
X275104Y92240D01*
Y90767D01*
X274319Y89982D01*
X271843D01*
X271763Y90120D01*
X271120Y90763D01*
X270333Y91217D01*
X269455Y91453D01*
X268545D01*
X267667Y91217D01*
X266880Y90763D01*
X266237Y90120D01*
X265782Y89333D01*
X265547Y88455D01*
Y87545D01*
X265782Y86667D01*
X266237Y85880D01*
X266880Y85237D01*
X267667Y84783D01*
X268545Y84547D01*
X269455D01*
X270333Y84783D01*
X271120Y85237D01*
X271763Y85880D01*
X272217Y86667D01*
X272286Y86923D01*
X274953D01*
X275538Y87040D01*
X276034Y87371D01*
X278228Y89565D01*
X278265D01*
X278740Y89471D01*
X279215Y89565D01*
X279354D01*
X279628Y89619D01*
X279860Y89774D01*
X280014Y90006D01*
X280041Y90138D01*
X282137Y92234D01*
X282468Y92730D01*
X282585Y93315D01*
Y96685D01*
X282468Y97270D01*
X282137Y97766D01*
X280821Y99081D01*
X280325Y99413D01*
X280069Y99464D01*
Y99721D01*
X280014Y99994D01*
X279860Y100226D01*
X279628Y100381D01*
X279354Y100435D01*
X275819D01*
X275546Y100381D01*
X275314Y100226D01*
X275159Y99994D01*
X275104Y99721D01*
Y99529D01*
X273224D01*
Y100567D01*
D02*
G37*
G36*
X290181Y92955D02*
X286646D01*
X286372Y92900D01*
X286140Y92745D01*
X285985Y92514D01*
X285931Y92240D01*
Y90280D01*
X285985Y90006D01*
X286140Y89774D01*
X286372Y89619D01*
X286646Y89565D01*
X290181D01*
X290455Y89619D01*
X290621Y89731D01*
X292776D01*
Y87433D01*
X297516D01*
Y92567D01*
X294826D01*
X294668Y92673D01*
X294083Y92789D01*
X290621D01*
X290455Y92900D01*
X290181Y92955D01*
D02*
G37*
G36*
X73681Y91455D02*
X70146D01*
X69872Y91400D01*
X69640Y91245D01*
X69485Y91014D01*
X69431Y90740D01*
Y88779D01*
X69485Y88506D01*
X69640Y88274D01*
X69872Y88119D01*
X70146Y88065D01*
X73681D01*
X73954Y88119D01*
X74121Y88231D01*
X76276D01*
Y85933D01*
X81016D01*
Y91067D01*
X78326D01*
X78168Y91173D01*
X77583Y91289D01*
X74121D01*
X73954Y91400D01*
X73681Y91455D01*
D02*
G37*
G36*
X8500Y80632D02*
Y77500D01*
X11632D01*
X11460Y78140D01*
X10901Y79110D01*
X10110Y79901D01*
X9140Y80460D01*
X8500Y80632D01*
D02*
G37*
G36*
X6500D02*
X5860Y80460D01*
X4890Y79901D01*
X4099Y79110D01*
X3540Y78140D01*
X3368Y77500D01*
X6500D01*
Y80632D01*
D02*
G37*
G36*
X334500Y78632D02*
Y75500D01*
X337632D01*
X337460Y76140D01*
X336901Y77110D01*
X336110Y77901D01*
X335140Y78460D01*
X334500Y78632D01*
D02*
G37*
G36*
X332500D02*
X331860Y78460D01*
X330890Y77901D01*
X330099Y77110D01*
X329540Y76140D01*
X329368Y75500D01*
X332500D01*
Y78632D01*
D02*
G37*
G36*
X90455Y109953D02*
X89545D01*
X88667Y109718D01*
X87880Y109263D01*
X87237Y108620D01*
X86783Y107833D01*
X86547Y106955D01*
Y106045D01*
X86783Y105167D01*
X87237Y104380D01*
X87880Y103737D01*
X87961Y103690D01*
Y81953D01*
X86547D01*
Y75047D01*
X93453D01*
Y81953D01*
X92039D01*
Y103690D01*
X92120Y103737D01*
X92763Y104380D01*
X93217Y105167D01*
X93453Y106045D01*
Y106955D01*
X93217Y107833D01*
X92763Y108620D01*
X92120Y109263D01*
X91333Y109718D01*
X90455Y109953D01*
D02*
G37*
G36*
X80455Y81953D02*
X79545D01*
X78667Y81717D01*
X77880Y81263D01*
X77237Y80620D01*
X76783Y79833D01*
X76547Y78955D01*
Y78045D01*
X76783Y77167D01*
X77237Y76380D01*
X77880Y75737D01*
X78667Y75283D01*
X79545Y75047D01*
X80455D01*
X81333Y75283D01*
X82120Y75737D01*
X82763Y76380D01*
X83217Y77167D01*
X83453Y78045D01*
Y78955D01*
X83217Y79833D01*
X82763Y80620D01*
X82120Y81263D01*
X81333Y81717D01*
X80455Y81953D01*
D02*
G37*
G36*
X11632Y75500D02*
X8500D01*
Y72368D01*
X9140Y72540D01*
X10110Y73099D01*
X10901Y73890D01*
X11460Y74860D01*
X11632Y75500D01*
D02*
G37*
G36*
X6500D02*
X3368D01*
X3540Y74860D01*
X4099Y73890D01*
X4890Y73099D01*
X5860Y72540D01*
X6500Y72368D01*
Y75500D01*
D02*
G37*
G36*
X337632Y73500D02*
X334500D01*
Y70368D01*
X335140Y70540D01*
X336110Y71099D01*
X336901Y71890D01*
X337460Y72860D01*
X337632Y73500D01*
D02*
G37*
G36*
X332500D02*
X329368D01*
X329540Y72860D01*
X330099Y71890D01*
X330890Y71099D01*
X331860Y70540D01*
X332500Y70368D01*
Y73500D01*
D02*
G37*
G36*
X272453Y79453D02*
X265547D01*
Y72547D01*
X272453D01*
Y74471D01*
X278366D01*
X285931Y66906D01*
Y65760D01*
X285985Y65486D01*
X286140Y65255D01*
X286372Y65100D01*
X286646Y65045D01*
X288124D01*
X288500Y64971D01*
X288797Y65030D01*
X292776D01*
Y63433D01*
X297516D01*
Y68567D01*
X292776D01*
Y68089D01*
X290778D01*
X290686Y68226D01*
X290455Y68381D01*
X290181Y68435D01*
X288728D01*
X280081Y77081D01*
X279585Y77413D01*
X279000Y77529D01*
X272453D01*
Y79453D01*
D02*
G37*
G36*
X290181Y60955D02*
X286646D01*
X286372Y60900D01*
X286140Y60745D01*
X285985Y60514D01*
X285931Y60240D01*
Y58280D01*
X285985Y58006D01*
X286140Y57774D01*
X286372Y57619D01*
X286646Y57565D01*
X290181D01*
X290455Y57619D01*
X290621Y57731D01*
X292776D01*
Y55433D01*
X297516D01*
Y60567D01*
X294826D01*
X294668Y60673D01*
X294083Y60789D01*
X290621D01*
X290455Y60900D01*
X290181Y60955D01*
D02*
G37*
G36*
X217928Y60319D02*
X217019D01*
X216141Y60084D01*
X215354Y59629D01*
X214711Y58986D01*
X214256Y58199D01*
X214021Y57321D01*
Y56411D01*
X214022Y56406D01*
X204155Y46539D01*
X190953D01*
Y47953D01*
X184047D01*
Y41047D01*
X190953D01*
Y42461D01*
X205000D01*
X205780Y42616D01*
X206442Y43058D01*
X216844Y53460D01*
X217019Y53413D01*
X217928D01*
X218806Y53649D01*
X219594Y54103D01*
X220237Y54746D01*
X220691Y55533D01*
X220926Y56411D01*
Y57321D01*
X220691Y58199D01*
X220237Y58986D01*
X219594Y59629D01*
X218806Y60084D01*
X217928Y60319D01*
D02*
G37*
G36*
X269455Y59453D02*
X268545D01*
X267667Y59217D01*
X266880Y58763D01*
X266237Y58120D01*
X265782Y57333D01*
X265547Y56455D01*
Y55545D01*
X265782Y54667D01*
X266237Y53880D01*
X266880Y53237D01*
X267667Y52783D01*
X268545Y52547D01*
X269455D01*
X270333Y52783D01*
X271120Y53237D01*
X271763Y53880D01*
X272217Y54667D01*
X272453Y55545D01*
Y56455D01*
X272217Y57333D01*
X271763Y58120D01*
X271120Y58763D01*
X270333Y59217D01*
X269455Y59453D01*
D02*
G37*
G36*
X273224Y68567D02*
X268484D01*
Y63433D01*
X273224D01*
Y64471D01*
X279106D01*
X279526Y64051D01*
Y61949D01*
X278606Y61029D01*
X277500D01*
X277124Y60955D01*
X275819D01*
X275546Y60900D01*
X275314Y60745D01*
X275159Y60514D01*
X275104Y60240D01*
Y58280D01*
X275159Y58006D01*
X275314Y57774D01*
X275546Y57619D01*
X275819Y57565D01*
X275971D01*
Y56134D01*
X271367Y51529D01*
X244041D01*
Y56500D01*
X243883Y56883D01*
X243500Y57041D01*
X242770D01*
X242246Y57565D01*
X241438Y57900D01*
X240562D01*
X239754Y57565D01*
X239230Y57041D01*
X230000D01*
X229617Y56883D01*
X229459Y56500D01*
Y39539D01*
X183040D01*
X182259Y39384D01*
X181598Y38942D01*
X178471Y35814D01*
X177955Y35953D01*
X177045D01*
X176167Y35717D01*
X175380Y35263D01*
X174737Y34620D01*
X174283Y33833D01*
X174047Y32955D01*
Y32045D01*
X174283Y31167D01*
X174737Y30380D01*
X175380Y29737D01*
X176167Y29283D01*
X177045Y29047D01*
X177955D01*
X178833Y29283D01*
X179620Y29737D01*
X180263Y30380D01*
X180718Y31167D01*
X180953Y32045D01*
Y32529D01*
X183547Y35124D01*
X184047Y34916D01*
Y29047D01*
X190953D01*
Y35461D01*
X229459D01*
Y17000D01*
X229617Y16617D01*
X230000Y16459D01*
X243500D01*
X243529Y16471D01*
X271000D01*
X271585Y16587D01*
X272081Y16919D01*
X278581Y23419D01*
X278913Y23915D01*
X279029Y24500D01*
Y25528D01*
X279215Y25565D01*
X279354D01*
X279628Y25619D01*
X279860Y25774D01*
X280014Y26006D01*
X280041Y26138D01*
X282137Y28234D01*
X282468Y28730D01*
X282585Y29315D01*
Y32685D01*
X282468Y33270D01*
X282137Y33766D01*
X280821Y35081D01*
X280325Y35413D01*
X280069Y35464D01*
Y35721D01*
X280014Y35994D01*
X279860Y36226D01*
X279628Y36381D01*
X279354Y36435D01*
X275819D01*
X275546Y36381D01*
X275314Y36226D01*
X275159Y35994D01*
X275104Y35721D01*
Y35529D01*
X273224D01*
Y36567D01*
X268484D01*
Y31433D01*
X273224D01*
Y32471D01*
X279106D01*
X279526Y32051D01*
Y29949D01*
X278532Y28955D01*
X275819D01*
X275546Y28900D01*
X275314Y28745D01*
X275159Y28514D01*
X275104Y28240D01*
Y26280D01*
X275159Y26006D01*
X275314Y25774D01*
X275546Y25619D01*
X275810Y25567D01*
X275827Y25514D01*
X275902Y25065D01*
X270367Y19529D01*
X244041D01*
Y48471D01*
X272000D01*
X272585Y48587D01*
X273081Y48919D01*
X278581Y54419D01*
X278913Y54915D01*
X279029Y55500D01*
Y57565D01*
X279354D01*
X279628Y57619D01*
X279860Y57774D01*
X280014Y58006D01*
X280062Y58245D01*
X280321Y58419D01*
X282137Y60234D01*
X282468Y60730D01*
X282585Y61315D01*
Y64685D01*
X282468Y65270D01*
X282137Y65766D01*
X280821Y67081D01*
X280325Y67413D01*
X280069Y67464D01*
Y67721D01*
X280014Y67994D01*
X279860Y68226D01*
X279628Y68381D01*
X279354Y68435D01*
X275819D01*
X275546Y68381D01*
X275314Y68226D01*
X275159Y67994D01*
X275104Y67721D01*
Y67529D01*
X273224D01*
Y68567D01*
D02*
G37*
G36*
X73681Y51455D02*
X70146D01*
X69872Y51400D01*
X69640Y51245D01*
X69485Y51014D01*
X69431Y50740D01*
Y48779D01*
X69485Y48506D01*
X69640Y48274D01*
X69872Y48119D01*
X70146Y48065D01*
X73681D01*
X73954Y48119D01*
X74121Y48230D01*
X76276D01*
Y45933D01*
X81016D01*
Y51067D01*
X78326D01*
X78168Y51173D01*
X77583Y51289D01*
X74121D01*
X73954Y51400D01*
X73681Y51455D01*
D02*
G37*
G36*
X224438Y51200D02*
X223562D01*
X222754Y50865D01*
X222135Y50246D01*
X221974Y49858D01*
X216655Y44539D01*
X211826D01*
X211438Y44700D01*
X210562D01*
X209754Y44365D01*
X209135Y43746D01*
X208800Y42938D01*
Y42062D01*
X209135Y41254D01*
X209754Y40635D01*
X210562Y40300D01*
X211438D01*
X211826Y40461D01*
X217500D01*
X218280Y40616D01*
X218942Y41058D01*
X224858Y46974D01*
X225246Y47135D01*
X225865Y47754D01*
X226200Y48562D01*
Y49438D01*
X225865Y50246D01*
X225246Y50865D01*
X224438Y51200D01*
D02*
G37*
G36*
X272453Y47453D02*
X265547D01*
Y40547D01*
X272453D01*
Y42471D01*
X278366D01*
X285931Y34906D01*
Y33760D01*
X285985Y33486D01*
X286140Y33255D01*
X286372Y33100D01*
X286646Y33045D01*
X288124D01*
X288500Y32971D01*
X288797Y33030D01*
X292776D01*
Y31433D01*
X297516D01*
Y36567D01*
X292776D01*
Y36088D01*
X290778D01*
X290686Y36226D01*
X290455Y36381D01*
X290181Y36435D01*
X288728D01*
X280081Y45081D01*
X279585Y45413D01*
X279000Y45529D01*
X272453D01*
Y47453D01*
D02*
G37*
G36*
X290181Y28955D02*
X286646D01*
X286372Y28900D01*
X286140Y28745D01*
X285985Y28514D01*
X285931Y28240D01*
Y26280D01*
X285985Y26006D01*
X286140Y25774D01*
X286372Y25619D01*
X286646Y25565D01*
X290181D01*
X290455Y25619D01*
X290621Y25730D01*
X292776D01*
Y23433D01*
X297516D01*
Y28567D01*
X294826D01*
X294668Y28673D01*
X294083Y28789D01*
X290621D01*
X290455Y28900D01*
X290181Y28955D01*
D02*
G37*
G36*
X269455Y27453D02*
X268545D01*
X267667Y27218D01*
X266880Y26763D01*
X266237Y26120D01*
X265782Y25333D01*
X265547Y24455D01*
Y23545D01*
X265782Y22667D01*
X266237Y21880D01*
X266880Y21237D01*
X267667Y20783D01*
X268545Y20547D01*
X269455D01*
X270333Y20783D01*
X271120Y21237D01*
X271763Y21880D01*
X272217Y22667D01*
X272453Y23545D01*
Y24455D01*
X272217Y25333D01*
X271763Y26120D01*
X271120Y26763D01*
X270333Y27218D01*
X269455Y27453D01*
D02*
G37*
G36*
X259455Y47453D02*
X258545D01*
X257667Y47218D01*
X256880Y46763D01*
X256237Y46120D01*
X255783Y45333D01*
X255547Y44455D01*
Y43545D01*
X255783Y42667D01*
X256237Y41880D01*
X256880Y41237D01*
X256961Y41190D01*
Y27453D01*
X255547D01*
Y20547D01*
X262453D01*
Y27453D01*
X261039D01*
Y41190D01*
X261120Y41237D01*
X261763Y41880D01*
X262217Y42667D01*
X262453Y43545D01*
Y44455D01*
X262217Y45333D01*
X261763Y46120D01*
X261120Y46763D01*
X260333Y47218D01*
X259455Y47453D01*
D02*
G37*
G36*
X327000Y25979D02*
Y16000D01*
X336979D01*
X336729Y17576D01*
X336194Y19222D01*
X335408Y20765D01*
X334390Y22166D01*
X333166Y23390D01*
X331765Y24408D01*
X330223Y25194D01*
X328576Y25729D01*
X327000Y25979D01*
D02*
G37*
G36*
X16000D02*
Y16000D01*
X25979D01*
X25729Y17576D01*
X25194Y19222D01*
X24408Y20765D01*
X23390Y22166D01*
X22166Y23390D01*
X20765Y24408D01*
X19222Y25194D01*
X17576Y25729D01*
X16000Y25979D01*
D02*
G37*
G36*
X325000D02*
X323424Y25729D01*
X321778Y25194D01*
X320235Y24408D01*
X318834Y23390D01*
X317610Y22166D01*
X316592Y20765D01*
X315806Y19222D01*
X315271Y17576D01*
X315021Y16000D01*
X325000D01*
Y25979D01*
D02*
G37*
G36*
X14000D02*
X12424Y25729D01*
X10778Y25194D01*
X9235Y24408D01*
X7834Y23390D01*
X6610Y22166D01*
X5592Y20765D01*
X4806Y19222D01*
X4271Y17576D01*
X4021Y16000D01*
X14000D01*
Y25979D01*
D02*
G37*
G36*
X25979Y14000D02*
X16000D01*
Y4021D01*
X17576Y4271D01*
X19222Y4806D01*
X20765Y5592D01*
X22166Y6610D01*
X23390Y7834D01*
X24408Y9235D01*
X25194Y10778D01*
X25729Y12424D01*
X25979Y14000D01*
D02*
G37*
G36*
X336979D02*
X327000D01*
Y4021D01*
X328576Y4271D01*
X330223Y4806D01*
X331765Y5592D01*
X333166Y6610D01*
X334390Y7834D01*
X335408Y9235D01*
X336194Y10778D01*
X336729Y12424D01*
X336979Y14000D01*
D02*
G37*
G36*
X325000D02*
X315021D01*
X315271Y12424D01*
X315806Y10778D01*
X316592Y9235D01*
X317610Y7834D01*
X318834Y6610D01*
X320235Y5592D01*
X321778Y4806D01*
X323424Y4271D01*
X325000Y4021D01*
Y14000D01*
D02*
G37*
G36*
X14000D02*
X4021D01*
X4271Y12424D01*
X4806Y10778D01*
X5592Y9235D01*
X6610Y7834D01*
X7834Y6610D01*
X9235Y5592D01*
X10778Y4806D01*
X12424Y4271D01*
X14000Y4021D01*
Y14000D01*
D02*
G37*
%LPD*%
G36*
X172500Y233500D02*
X166000D01*
Y230000D01*
X162000D01*
Y241500D01*
X166000D01*
Y238000D01*
X171000D01*
Y242500D01*
X172500D01*
Y233500D01*
D02*
G37*
G36*
X141500D02*
X135000D01*
Y230000D01*
X131000D01*
Y241500D01*
X135000D01*
Y238000D01*
X140000D01*
Y242500D01*
X141500D01*
Y233500D01*
D02*
G37*
G36*
X172556Y232828D02*
X172697Y232499D01*
X170922Y230724D01*
X170645Y230311D01*
X170548Y229823D01*
Y225337D01*
X170437D01*
Y218530D01*
X178226D01*
Y217087D01*
X177099Y215960D01*
X176822Y215547D01*
X176725Y215059D01*
Y212953D01*
X174547D01*
Y207850D01*
X170573Y203876D01*
X170297Y203462D01*
X170200Y202974D01*
Y201971D01*
X169953D01*
Y195163D01*
X172813D01*
X172856Y194945D01*
X173132Y194532D01*
X174152Y193512D01*
X174565Y193236D01*
X175053Y193139D01*
X177860D01*
X178348Y193236D01*
X178761Y193512D01*
X179476Y194227D01*
X180016Y194059D01*
X180051Y193871D01*
X178709Y192529D01*
X170736D01*
X167606Y195659D01*
Y200115D01*
X167807Y200415D01*
X167923Y201000D01*
Y211838D01*
X167807Y212423D01*
X167475Y212920D01*
X161962Y218432D01*
Y228004D01*
X162140Y228181D01*
X162600Y228489D01*
X163570Y229459D01*
X166000D01*
X166061Y229484D01*
X166567D01*
Y232959D01*
X172449D01*
X172556Y232828D01*
D02*
G37*
G36*
X171000Y191500D02*
X161500D01*
X166250Y196250D01*
X171000Y191500D01*
D02*
G37*
G36*
X125500Y29000D02*
X124000D01*
Y33000D01*
X110000D01*
Y27500D01*
X106500D01*
Y35500D01*
X125500D01*
Y29000D01*
D02*
G37*
%LPC*%
G36*
X171104Y217423D02*
Y215895D01*
X172631D01*
X172620Y215937D01*
X172264Y216553D01*
X171762Y217056D01*
X171146Y217411D01*
X171104Y217423D01*
D02*
G37*
G36*
X169104D02*
X169062Y217411D01*
X168446Y217056D01*
X167943Y216553D01*
X167588Y215937D01*
X167577Y215895D01*
X169104D01*
Y217423D01*
D02*
G37*
G36*
X172631Y213895D02*
X171104D01*
Y212368D01*
X171146Y212379D01*
X171762Y212735D01*
X172264Y213237D01*
X172620Y213853D01*
X172631Y213895D01*
D02*
G37*
G36*
X169104D02*
X167577D01*
X167588Y213853D01*
X167943Y213237D01*
X168446Y212735D01*
X169062Y212379D01*
X169104Y212368D01*
Y213895D01*
D02*
G37*
%LPD*%
G36*
X184500Y179500D02*
X169500D01*
Y173000D01*
X165500D01*
Y183500D01*
X184500D01*
Y179500D01*
D02*
G37*
G36*
X170226Y169615D02*
X170323Y169127D01*
X170599Y168714D01*
X170883Y168430D01*
Y167764D01*
X170880Y167763D01*
X170237Y167120D01*
X169782Y166333D01*
X169547Y165455D01*
Y164545D01*
X169782Y163667D01*
X170237Y162880D01*
X170880Y162237D01*
X171667Y161783D01*
X172545Y161547D01*
X173455D01*
X174333Y161783D01*
X175120Y162237D01*
X175428Y162545D01*
X175928Y162338D01*
Y161297D01*
X176025Y160810D01*
X176302Y160396D01*
X180273Y156425D01*
Y153563D01*
X173462Y146753D01*
X173186Y146339D01*
X173122Y146018D01*
X172754Y145865D01*
X172135Y145246D01*
X171800Y144438D01*
Y143562D01*
X172100Y142839D01*
X171896Y142339D01*
X167045D01*
X162526Y146858D01*
X162365Y147246D01*
X161746Y147865D01*
X160938Y148200D01*
X160062D01*
X159836Y148106D01*
X157992Y149950D01*
X157661Y150171D01*
X157271Y150249D01*
X151299D01*
X150383Y151164D01*
X150575Y151626D01*
X151075D01*
Y153174D01*
X151178Y153327D01*
X151275Y153815D01*
Y155044D01*
X151775Y155251D01*
X151842Y155183D01*
X152458Y154828D01*
X152500Y154816D01*
Y157344D01*
X154500D01*
Y154816D01*
X154542Y154828D01*
X155158Y155183D01*
X155660Y155686D01*
X156016Y156301D01*
X156158Y156832D01*
X156659Y157038D01*
X157047Y156650D01*
Y151547D01*
X163953D01*
Y156650D01*
X165604Y158302D01*
X165880Y158715D01*
X165977Y159203D01*
Y168778D01*
X165880Y169266D01*
X165604Y169679D01*
X164775Y170509D01*
Y172029D01*
X170226D01*
Y169615D01*
D02*
G37*
%LPC*%
G36*
X176453Y158453D02*
X169547D01*
Y151547D01*
X176453D01*
Y158453D01*
D02*
G37*
%LPD*%
G36*
X261500Y149500D02*
X253000D01*
Y90500D01*
X261500D01*
Y85500D01*
X250500Y85500D01*
Y154500D01*
X261500D01*
Y149500D01*
D02*
G37*
G36*
X111461Y153655D02*
Y149446D01*
X110776Y149050D01*
X109950Y148224D01*
X109365Y147213D01*
X109063Y146084D01*
Y144916D01*
X109365Y143787D01*
X109950Y142776D01*
X110776Y141949D01*
X111787Y141365D01*
X112916Y141063D01*
X114084D01*
X115213Y141365D01*
X115359Y141450D01*
X115666Y141050D01*
X109022Y134406D01*
X108858Y134500D01*
X103500D01*
Y135500D01*
X102500D01*
Y140547D01*
X101518Y140284D01*
X100348Y139608D01*
X99867Y139128D01*
X99405Y139319D01*
Y151681D01*
X99867Y151872D01*
X100348Y151392D01*
X101518Y150716D01*
X102500Y150453D01*
Y155500D01*
X104500D01*
Y150453D01*
X105482Y150716D01*
X106652Y151392D01*
X107608Y152348D01*
X108284Y153518D01*
X108634Y154824D01*
Y155775D01*
X109134Y155982D01*
X111461Y153655D01*
D02*
G37*
G36*
X208000Y92500D02*
X197500D01*
Y97500D01*
X205000D01*
Y99500D01*
X208000D01*
Y92500D01*
D02*
G37*
G36*
X140807Y87451D02*
X139922Y86567D01*
X136984D01*
Y81433D01*
X140043D01*
X140235Y80971D01*
X131272Y72009D01*
X128489D01*
X128099Y71931D01*
X127768Y71710D01*
X118164Y62106D01*
X117938Y62200D01*
X117062D01*
X116254Y61865D01*
X116041Y61652D01*
X115541Y61860D01*
Y64050D01*
X115746Y64135D01*
X116365Y64754D01*
X116700Y65562D01*
Y66438D01*
X116365Y67246D01*
X115746Y67865D01*
X115520Y67959D01*
Y69783D01*
X133650Y87914D01*
X140615D01*
X140807Y87451D01*
D02*
G37*
G36*
X258000Y58750D02*
X250625Y66125D01*
X258000Y73500D01*
Y58750D01*
D02*
G37*
G36*
X125500Y42500D02*
X141000D01*
Y39000D01*
X121500D01*
Y52500D01*
X125500D01*
Y42500D01*
D02*
G37*
%LPC*%
G36*
X104500Y140547D02*
Y136500D01*
X108547D01*
X108284Y137482D01*
X107608Y138652D01*
X106652Y139608D01*
X105482Y140284D01*
X104500Y140547D01*
D02*
G37*
G36*
X127500Y77371D02*
Y75844D01*
X129027D01*
X129016Y75886D01*
X128661Y76501D01*
X128158Y77004D01*
X127542Y77360D01*
X127500Y77371D01*
D02*
G37*
G36*
X125500D02*
X125458Y77360D01*
X124842Y77004D01*
X124339Y76501D01*
X123984Y75886D01*
X123973Y75844D01*
X125500D01*
Y77371D01*
D02*
G37*
G36*
X129027Y73844D02*
X127500D01*
Y72316D01*
X127542Y72328D01*
X128158Y72683D01*
X128661Y73186D01*
X129016Y73801D01*
X129027Y73844D01*
D02*
G37*
G36*
X125500D02*
X123973D01*
X123984Y73801D01*
X124339Y73186D01*
X124842Y72683D01*
X125458Y72328D01*
X125500Y72316D01*
Y73844D01*
D02*
G37*
%LPD*%
D12*
X191453Y285547D02*
X204500Y272500D01*
X26500Y41000D02*
X54000Y13500D01*
X26500Y277000D02*
X39000Y289500D01*
X26500Y41000D02*
Y277000D01*
X29000Y42000D02*
Y269500D01*
Y42000D02*
X55000Y16000D01*
X29000Y269500D02*
X49000Y289500D01*
X31500Y262000D02*
X59000Y289500D01*
X31500Y43000D02*
X56000Y18500D01*
X31500Y43000D02*
Y262000D01*
X34000Y44000D02*
X57000Y21000D01*
X34000Y259021D02*
X55832Y280853D01*
X34000Y44000D02*
Y259021D01*
X54000Y13500D02*
X122168D01*
X55000Y16000D02*
X122109D01*
X56000Y18500D02*
X122050D01*
X57000Y21000D02*
X114314D01*
X122168Y13500D02*
X132071Y23403D01*
X122109Y16000D02*
X129512Y23403D01*
X122050Y18500D02*
X126953Y23403D01*
X114314Y21000D02*
X116717Y23403D01*
X114157Y23989D02*
Y26047D01*
X114543Y26433D01*
X58277Y23404D02*
X113572D01*
X36547Y45133D02*
X58277Y23404D01*
X113572D02*
X114157Y23989D01*
X179043Y289457D02*
X184461D01*
X187363Y285547D02*
X191453D01*
X184461Y289457D02*
X185047Y288871D01*
Y287863D02*
X187363Y285547D01*
X185047Y287863D02*
Y288871D01*
X179000Y289500D02*
X179043Y289457D01*
X155051Y89243D02*
X155157Y89350D01*
X151000Y86500D02*
X153743Y89243D01*
X151000Y78500D02*
Y86500D01*
X155157Y89350D02*
Y89713D01*
X153743Y89243D02*
X155051D01*
X184506Y104969D02*
X186538Y107000D01*
X187000D01*
X157500Y270500D02*
X167500D01*
X176971Y261030D01*
X174000Y278500D02*
X174200Y278300D01*
X182059Y245067D02*
Y270441D01*
X179000Y273500D02*
X182059Y270441D01*
X184618Y245067D02*
X184809Y245258D01*
Y267309D02*
X185000Y267500D01*
X174200Y265921D02*
Y278300D01*
X187177Y258177D02*
X190500Y261500D01*
X184809Y245258D02*
Y267309D01*
X187177Y245067D02*
Y258177D01*
X174200Y265921D02*
X179500Y260621D01*
Y245067D02*
Y260621D01*
X189863Y348000D02*
X225500D01*
X153547Y288457D02*
Y311684D01*
X189863Y348000D01*
X157385Y313400D02*
X157400D01*
X188000Y344000D01*
X155100Y311115D02*
X157385Y313400D01*
X156339Y245228D02*
Y263339D01*
X156500Y263500D01*
X156177Y245067D02*
X156339Y245228D01*
X153618Y245067D02*
Y286407D01*
X155047Y287836D01*
X151059Y245067D02*
Y285969D01*
X153547Y288457D01*
X155047Y311047D02*
X155100Y311100D01*
Y311115D01*
X155047Y287836D02*
Y311047D01*
X188000Y344000D02*
X212000D01*
X185492Y166209D02*
Y174992D01*
X185500Y175000D01*
X149517Y171757D02*
Y174983D01*
X149992Y166209D02*
Y171283D01*
X149517Y171757D02*
X149992Y171283D01*
X183516Y147516D02*
Y153799D01*
X180000Y144000D02*
X183516Y147516D01*
X157271Y149229D02*
X160500Y146000D01*
X150876Y149229D02*
X157271D01*
X148106Y151999D02*
Y153709D01*
X148016Y153799D02*
X148106Y153709D01*
Y151999D02*
X150876Y149229D01*
X194146Y117697D02*
X197449Y121000D01*
X194146Y117500D02*
Y117697D01*
X197449Y121000D02*
X207500D01*
X128489Y70989D02*
X131695D01*
X147250Y86544D02*
Y92044D01*
X131695Y70989D02*
X147250Y86544D01*
X107500Y106000D02*
X118519Y94981D01*
Y92335D02*
Y94981D01*
Y92335D02*
X118854Y92000D01*
X125482Y94982D02*
Y99809D01*
X122500Y92000D02*
X125482Y94982D01*
X119000Y92000D02*
X122500D01*
X118854D02*
X119000D01*
X118854Y83697D02*
X126982Y91825D01*
X115984Y80433D02*
X119500Y83949D01*
X101500Y86500D02*
X107567Y80433D01*
X115984D01*
X119500Y83949D02*
Y84000D01*
X101500Y86500D02*
Y100500D01*
X126982Y99188D02*
X140295Y112500D01*
X126982Y91825D02*
Y99188D01*
X140295Y112500D02*
X151500D01*
X125482Y99809D02*
X139909Y114236D01*
X153860D01*
X171000Y59500D02*
X179067Y67567D01*
Y88837D01*
X140500Y59500D02*
X171000D01*
X143750Y91044D02*
Y93494D01*
X141639Y88933D02*
X143750Y91044D01*
X133228Y88933D02*
X141639D01*
X159095Y77000D02*
Y89713D01*
X134000Y61500D02*
X151000Y78500D01*
X129898Y57398D02*
X134000Y61500D01*
X178287Y104969D02*
X184506D01*
X178394Y98957D02*
X187043D01*
X178287Y99063D02*
X178394Y98957D01*
X187043D02*
X187500Y98500D01*
X185693Y112843D02*
X186351Y113500D01*
X187000D01*
X178287Y112843D02*
X185693D01*
X178327Y125500D02*
X178500D01*
X170905Y118078D02*
X178327Y125500D01*
X170905Y116287D02*
Y118078D01*
X167000Y114875D02*
Y115000D01*
Y114875D02*
X168360Y113516D01*
X175612D01*
X179596Y117500D01*
X194146D01*
X176500Y101000D02*
X178000D01*
X175516Y100016D02*
X176500Y101000D01*
X175516Y92388D02*
Y100016D01*
Y92388D02*
X179067Y88837D01*
X148750Y85750D02*
Y90750D01*
X127000Y64000D02*
X148750Y85750D01*
Y90750D02*
X151000Y93000D01*
X143750Y93494D02*
X149319Y99063D01*
X151713D01*
X150332Y95126D02*
X151713D01*
X147250Y92044D02*
X150332Y95126D01*
X117500Y60000D02*
X128489Y70989D01*
X114500Y70206D02*
X133228Y88933D01*
X114500Y66000D02*
Y70206D01*
X114522Y49589D02*
X114543Y49567D01*
X114522Y49589D02*
Y65978D01*
X114500Y66000D02*
X114522Y65978D01*
X117301Y49766D02*
Y59801D01*
X117102Y49567D02*
X117301Y49766D01*
Y59801D02*
X117500Y60000D01*
X129898Y49567D02*
Y57398D01*
X132457Y51585D02*
X140372Y59500D01*
X140500D01*
X132457Y49567D02*
Y51585D01*
X127000Y64000D02*
X127169Y63831D01*
Y49736D02*
Y63831D01*
Y49736D02*
X127339Y49567D01*
X176971Y245096D02*
Y261030D01*
X176941Y245067D02*
X176971Y245096D01*
X125047Y287863D02*
X148500Y264410D01*
Y245067D02*
Y264410D01*
X145941Y245067D02*
Y264848D01*
X148500Y244987D02*
Y245067D01*
X148303Y244790D02*
X148500Y244987D01*
X123547Y287241D02*
X145941Y264848D01*
X116337Y299874D02*
X125047Y291164D01*
X115716Y298374D02*
X123547Y290543D01*
X83110Y299874D02*
X116337D01*
X72900Y307963D02*
X82489Y298374D01*
X74400Y308585D02*
X83110Y299874D01*
X82489Y298374D02*
X115716D01*
X123547Y287241D02*
Y290543D01*
X72900Y307963D02*
Y335600D01*
X125047Y287863D02*
Y291164D01*
X49000Y361621D02*
X74400Y336221D01*
Y308585D02*
Y336221D01*
X49000Y361621D02*
Y369500D01*
X39000D02*
X72900Y335600D01*
X149984Y166201D02*
X149992Y166209D01*
X185484Y166201D02*
X185492Y166209D01*
X159095Y117559D02*
Y120252D01*
X155016Y124331D02*
X159095Y120252D01*
X155016Y124331D02*
Y127425D01*
X148059Y128205D02*
X157000Y119264D01*
X153941Y128500D02*
X155016Y127425D01*
X157000Y116500D02*
Y119264D01*
X148059Y128205D02*
Y128500D01*
X137500Y122500D02*
X144490D01*
X150703Y116287D02*
X155157D01*
X144490Y122500D02*
X150703Y116287D01*
X153860Y114236D02*
X154580Y113516D01*
X161640D01*
X118854Y83500D02*
Y83697D01*
X162457Y114547D02*
X163031Y115122D01*
X162457Y114332D02*
Y114547D01*
X161640Y113516D02*
X162457Y114332D01*
X163031Y115122D02*
Y116287D01*
X36547Y254926D02*
Y259447D01*
X55832Y280853D02*
X60353D01*
X36547Y259447D02*
X56453Y279353D01*
X68853D01*
X36547Y45133D02*
Y254926D01*
X60353Y280853D02*
X68957Y289457D01*
X68853Y279353D02*
X79000Y289500D01*
X132071Y23403D02*
Y26047D01*
X132457Y26433D01*
X129512Y23403D02*
Y24512D01*
X130000Y25000D01*
X126953Y23403D02*
Y26047D01*
X127339Y26433D01*
X116717Y23403D02*
Y24716D01*
X117000Y25000D01*
D36*
X114559Y219500D02*
D03*
X109441D02*
D03*
X195941Y230000D02*
D03*
X201059D02*
D03*
X153941Y128500D02*
D03*
X159059D02*
D03*
X202559Y195500D02*
D03*
X197441D02*
D03*
X132441D02*
D03*
X137559D02*
D03*
X142941Y128500D02*
D03*
X148059D02*
D03*
D37*
X171000Y133059D02*
D03*
Y127941D02*
D03*
X191000Y132941D02*
D03*
Y138059D02*
D03*
X137500Y117441D02*
D03*
Y122559D02*
D03*
X165000Y127941D02*
D03*
Y133059D02*
D03*
D38*
X178146Y133000D02*
D03*
X183854D02*
D03*
X182646Y194500D02*
D03*
X188354D02*
D03*
X152354D02*
D03*
X146646D02*
D03*
X300854Y122000D02*
D03*
X295146D02*
D03*
X300854Y162000D02*
D03*
X295146D02*
D03*
X300854Y154000D02*
D03*
X295146D02*
D03*
X300854Y130000D02*
D03*
X295146D02*
D03*
X265146D02*
D03*
X270854D02*
D03*
X265146Y162000D02*
D03*
X270854D02*
D03*
X265146Y34000D02*
D03*
X270854D02*
D03*
X300854Y66000D02*
D03*
X295146D02*
D03*
X300854Y58000D02*
D03*
X295146D02*
D03*
X265146Y98000D02*
D03*
X270854D02*
D03*
X300854Y90000D02*
D03*
X295146D02*
D03*
X300854Y98000D02*
D03*
X295146D02*
D03*
X265146Y66000D02*
D03*
X270854D02*
D03*
X300854Y26000D02*
D03*
X295146D02*
D03*
X300854Y34000D02*
D03*
X295146D02*
D03*
X267854Y201500D02*
D03*
X262146D02*
D03*
X267854Y225500D02*
D03*
X262146D02*
D03*
X54354Y96500D02*
D03*
X48646D02*
D03*
X199854Y117500D02*
D03*
X194146D02*
D03*
X113146Y92000D02*
D03*
X118854D02*
D03*
X113146Y83500D02*
D03*
X118854D02*
D03*
X188354Y181500D02*
D03*
X182646D02*
D03*
X194146Y76000D02*
D03*
X199854D02*
D03*
Y84500D02*
D03*
X194146D02*
D03*
X133646Y84000D02*
D03*
X139354D02*
D03*
X133646Y92000D02*
D03*
X139354D02*
D03*
X133646Y100500D02*
D03*
X139354D02*
D03*
X199854Y109000D02*
D03*
X194146D02*
D03*
X102646Y28000D02*
D03*
X108354D02*
D03*
X78646Y48500D02*
D03*
X84354D02*
D03*
X78646Y56500D02*
D03*
X84354D02*
D03*
X78646Y88500D02*
D03*
X84354D02*
D03*
X78646Y96500D02*
D03*
X84354D02*
D03*
X54354Y56500D02*
D03*
X48646D02*
D03*
D39*
X158543Y198567D02*
D03*
X161102D02*
D03*
X163661D02*
D03*
X166220D02*
D03*
X168780D02*
D03*
X171339D02*
D03*
X173898D02*
D03*
X176457D02*
D03*
Y175433D02*
D03*
X173898D02*
D03*
X171339D02*
D03*
X168780D02*
D03*
X166220D02*
D03*
X163661D02*
D03*
X161102D02*
D03*
X158543D02*
D03*
X140823Y221933D02*
D03*
X143382D02*
D03*
X145941D02*
D03*
X148500D02*
D03*
X151059D02*
D03*
X153618D02*
D03*
X156177D02*
D03*
Y245067D02*
D03*
X153618D02*
D03*
X151059D02*
D03*
X148500D02*
D03*
X145941D02*
D03*
X143382D02*
D03*
X140823D02*
D03*
X171823Y221933D02*
D03*
X174382D02*
D03*
X176941D02*
D03*
X179500D02*
D03*
X182059D02*
D03*
X184618D02*
D03*
X187177D02*
D03*
Y245067D02*
D03*
X184618D02*
D03*
X182059D02*
D03*
X179500D02*
D03*
X176941D02*
D03*
X174382D02*
D03*
X171823D02*
D03*
X132457Y49567D02*
D03*
X129898D02*
D03*
X127339D02*
D03*
X124779D02*
D03*
X122221D02*
D03*
X119661D02*
D03*
X117102D02*
D03*
X114543D02*
D03*
Y26433D02*
D03*
X117102D02*
D03*
X119661D02*
D03*
X122221D02*
D03*
X124779D02*
D03*
X127339D02*
D03*
X129898D02*
D03*
X132457D02*
D03*
D40*
X277587Y162740D02*
D03*
Y159000D02*
D03*
Y155260D02*
D03*
X288413D02*
D03*
Y162740D02*
D03*
X277587Y130740D02*
D03*
Y127000D02*
D03*
Y123260D02*
D03*
X288413D02*
D03*
Y130740D02*
D03*
X277587Y66740D02*
D03*
Y63000D02*
D03*
Y59260D02*
D03*
X288413D02*
D03*
Y66740D02*
D03*
X277587Y98740D02*
D03*
Y95000D02*
D03*
Y91260D02*
D03*
X288413D02*
D03*
Y98740D02*
D03*
X277587Y34740D02*
D03*
Y31000D02*
D03*
Y27260D02*
D03*
X288413D02*
D03*
Y34740D02*
D03*
X71913Y97240D02*
D03*
Y89760D02*
D03*
X61087D02*
D03*
Y93500D02*
D03*
Y97240D02*
D03*
X71913Y57240D02*
D03*
Y49760D02*
D03*
X61087D02*
D03*
Y53500D02*
D03*
Y57240D02*
D03*
D41*
X194000Y164354D02*
D03*
Y158646D02*
D03*
X139500Y164354D02*
D03*
Y158646D02*
D03*
X172500Y253146D02*
D03*
Y258854D02*
D03*
X141500Y253146D02*
D03*
Y258854D02*
D03*
X159000Y70646D02*
D03*
Y76354D02*
D03*
X167500Y70646D02*
D03*
Y76354D02*
D03*
X176000Y70646D02*
D03*
Y76354D02*
D03*
X208000Y114354D02*
D03*
Y108646D02*
D03*
X133000Y231854D02*
D03*
Y226146D02*
D03*
Y239646D02*
D03*
Y245354D02*
D03*
X164000Y231854D02*
D03*
Y226146D02*
D03*
Y239646D02*
D03*
Y245354D02*
D03*
X139000Y40354D02*
D03*
Y34646D02*
D03*
X108000Y41354D02*
D03*
Y35646D02*
D03*
X226000Y100354D02*
D03*
Y94646D02*
D03*
D42*
X181547Y153799D02*
D03*
X183516D02*
D03*
X185484D02*
D03*
X187453D02*
D03*
Y166201D02*
D03*
X185484D02*
D03*
X183516D02*
D03*
X181547D02*
D03*
X146047Y153799D02*
D03*
X148016D02*
D03*
X149984D02*
D03*
X151953D02*
D03*
Y166201D02*
D03*
X149984D02*
D03*
X148016D02*
D03*
X146047D02*
D03*
D43*
X206563Y93000D02*
D03*
X219437D02*
D03*
Y100500D02*
D03*
X206563D02*
D03*
D44*
X155157Y89713D02*
D03*
X157126D02*
D03*
X159095D02*
D03*
X161063D02*
D03*
X163031D02*
D03*
X165000D02*
D03*
X166969D02*
D03*
X168937D02*
D03*
X170905D02*
D03*
X172874D02*
D03*
X174843D02*
D03*
Y116287D02*
D03*
X172874D02*
D03*
X170905D02*
D03*
X168937D02*
D03*
X166969D02*
D03*
X165000D02*
D03*
X163031D02*
D03*
X161063D02*
D03*
X159095D02*
D03*
X157126D02*
D03*
X155157D02*
D03*
D45*
X178287Y93158D02*
D03*
Y95126D02*
D03*
Y97095D02*
D03*
Y99063D02*
D03*
Y101031D02*
D03*
Y103000D02*
D03*
Y104969D02*
D03*
Y106937D02*
D03*
Y108905D02*
D03*
Y110874D02*
D03*
Y112843D02*
D03*
X151713D02*
D03*
Y110874D02*
D03*
Y108905D02*
D03*
Y106937D02*
D03*
Y104969D02*
D03*
Y103000D02*
D03*
Y101031D02*
D03*
Y99063D02*
D03*
Y97095D02*
D03*
Y95126D02*
D03*
Y93158D02*
D03*
D46*
X165000Y103000D02*
D03*
D47*
X122111Y219500D02*
X126581Y215030D01*
X114559Y219500D02*
X122111D01*
X126581Y215030D02*
X142500D01*
X109500Y219500D02*
Y219736D01*
X88500Y236825D02*
X105455Y219870D01*
X109366D01*
X109500Y219736D01*
X88500Y236825D02*
Y245500D01*
X201000Y229764D02*
Y230000D01*
X201398Y229366D02*
X214041D01*
X221500Y236825D02*
Y245500D01*
X214041Y229366D02*
X221500Y236825D01*
X201000Y229764D02*
X201398Y229366D01*
X144854Y164354D02*
X147000Y166500D01*
X139500Y164354D02*
X144854D01*
X235500Y125500D02*
X245000Y116000D01*
X226500Y125500D02*
X235500D01*
X185000Y84392D02*
X187500Y81892D01*
Y54500D02*
Y81892D01*
X185000Y84392D02*
Y84500D01*
X211000Y42500D02*
X217500D01*
X224000Y49000D01*
X183040Y37500D02*
X233500D01*
X177500Y32500D02*
X178040D01*
X183040Y37500D01*
X60500Y78608D02*
X61087Y79195D01*
X60500Y78500D02*
Y78608D01*
X61087Y79195D02*
Y89441D01*
X187000Y32000D02*
X187500Y32500D01*
Y44500D02*
X205000D01*
X217366Y56866D01*
X241500Y88000D02*
X251500D01*
X231000Y77500D02*
X241500Y88000D01*
X278000Y190000D02*
X282453Y194453D01*
Y243913D01*
X277500Y248866D02*
X282453Y243913D01*
X277500Y248866D02*
Y249500D01*
X259000Y66000D02*
Y76000D01*
Y56000D02*
Y66000D01*
X198291D02*
X259000D01*
X194146Y70146D02*
X198291Y66000D01*
X194146Y70146D02*
Y76000D01*
X194000Y164354D02*
X260735D01*
X268380Y172000D01*
X181000Y180500D02*
X181167Y180333D01*
Y170742D02*
Y180333D01*
X194000Y164354D02*
Y172000D01*
X166200Y140300D02*
X176192D01*
X160500Y146000D02*
X166200Y140300D01*
X176192D02*
X179892Y144000D01*
X180000D01*
X181243Y169757D02*
Y170666D01*
X181167Y170742D02*
X181243Y170666D01*
Y169757D02*
X182500Y168500D01*
Y167000D02*
Y168500D01*
X139500Y164354D02*
Y172000D01*
X268380D02*
X269000D01*
X90000Y78500D02*
Y106500D01*
X259000Y24000D02*
Y44000D01*
Y120000D02*
Y140000D01*
X153866Y128634D02*
X154000Y128500D01*
X63500Y195500D02*
X77000D01*
X97500Y175000D02*
X112675D01*
X77000Y195500D02*
X97500Y175000D01*
X82000Y134000D02*
Y155675D01*
Y134000D02*
X93441Y122559D01*
X137441D01*
X76041Y161634D02*
X82000Y155675D01*
X70959Y161634D02*
X76041D01*
X63500Y154175D02*
X70959Y161634D01*
X63500Y145500D02*
Y154175D01*
X106866Y129366D02*
X119134Y141634D01*
X136080D01*
X148000Y129714D01*
Y129000D02*
Y129714D01*
X97366Y132959D02*
X100959Y129366D01*
X106866D01*
X97366Y132959D02*
Y158041D01*
X100413Y161087D01*
X100587D01*
X101134Y161634D01*
X106366D01*
X113500Y154500D01*
Y145500D02*
Y154500D01*
X153866Y128634D02*
Y133808D01*
X112675Y175000D02*
X153866Y133808D01*
X183854Y133000D02*
X195953D01*
X208453Y145500D02*
X221000D01*
X195953Y133000D02*
X208453Y145500D01*
X202559Y195500D02*
X221500D01*
X202500D02*
X202559D01*
X132441D02*
X132500D01*
X113500D02*
X132441D01*
D48*
X196000Y230000D02*
Y230236D01*
X176941Y221933D02*
Y228613D01*
X180778Y232450D01*
X193786D01*
X196000Y230236D01*
X174382Y229382D02*
X183000Y238000D01*
X201500D01*
X196986Y243500D02*
X197000D01*
X182000Y240000D02*
X193486D01*
X196986Y243500D01*
X171823Y229823D02*
X182000Y240000D01*
Y229500D02*
X182029Y229470D01*
Y221963D02*
X182059Y221933D01*
X182029Y221963D02*
Y229470D01*
X143055Y215779D02*
X145805Y218530D01*
Y221797D01*
X145941Y221933D01*
X203703Y265703D02*
X279241D01*
X191000Y253000D02*
X203703Y265703D01*
X281944Y263000D02*
X286000D01*
X279241Y265703D02*
X281944Y263000D01*
X286000D02*
X287500Y261500D01*
X154500Y161000D02*
X160500Y155000D01*
X160967Y171410D02*
Y174467D01*
X156297Y166741D02*
X160967Y171410D01*
X146047Y159547D02*
X149530Y163031D01*
X152814D02*
X156297Y166514D01*
X150879Y161000D02*
X154500D01*
X150000Y160121D02*
X150879Y161000D01*
X150000Y153815D02*
Y160121D01*
X149530Y163031D02*
X152814D01*
X156297Y166514D02*
Y166741D01*
X146047Y153799D02*
Y159547D01*
X154994Y170006D02*
X155000Y170000D01*
X151953Y166965D02*
X154994Y170006D01*
X174382Y221933D02*
Y229382D01*
X181843Y97000D02*
X194146Y84697D01*
X190250Y80093D02*
X194000Y76342D01*
X190250Y80093D02*
Y84897D01*
X180346Y94801D02*
X190250Y84897D01*
X237646Y108646D02*
X245000Y116000D01*
X208000Y108646D02*
X237646D01*
X197266Y105683D02*
X204840D01*
X194146Y108803D02*
Y109000D01*
Y108803D02*
X197266Y105683D01*
X204840D02*
X207500Y108343D01*
Y108500D01*
X184734Y108905D02*
X185778Y109950D01*
X178287Y108905D02*
X184734D01*
X185778Y109950D02*
X193550D01*
X194000Y109500D01*
X159039Y256500D02*
X166500D01*
X194000Y76000D02*
Y76342D01*
X174000Y144000D02*
X174364Y144363D01*
Y145852D01*
X181547Y153035D01*
Y156953D01*
X185492Y144008D02*
X185500Y144000D01*
X185484Y153799D02*
X185492Y153791D01*
Y144008D02*
Y153791D01*
X185484Y153799D02*
Y158232D01*
X146175Y151455D02*
X153131Y144500D01*
X146175Y151455D02*
Y153671D01*
X153131Y144500D02*
X153500D01*
X146047Y153799D02*
X146175Y153671D01*
X149984Y153799D02*
X150000Y153815D01*
X145500Y89490D02*
Y92769D01*
X144010Y88000D02*
X145500Y89490D01*
X144000Y88000D02*
X144010D01*
X142532Y87375D02*
X143898D01*
X144262Y87738D01*
X139657Y84500D02*
X142532Y87375D01*
X146000Y99500D02*
Y99562D01*
X149113Y102675D01*
X151388D01*
X151713Y103000D01*
X145606Y98448D02*
Y99167D01*
X145969Y99531D01*
X139354Y92000D02*
Y92197D01*
X145606Y98448D01*
X178287Y103000D02*
X189500D01*
X197500Y95000D01*
X179095Y97000D02*
X181843D01*
X178612Y94801D02*
X180346D01*
X178287Y95126D02*
X178612Y94801D01*
X194146Y84500D02*
Y84697D01*
X149826Y97095D02*
X151713D01*
X145500Y92769D02*
X149826Y97095D01*
X171823Y221933D02*
Y229823D01*
X127720Y217779D02*
X142226D01*
X117500Y228000D02*
X127720Y217779D01*
X142226D02*
X143246Y218799D01*
Y221797D01*
X143382Y221933D01*
X130067D02*
X140823D01*
X124000Y228000D02*
X130067Y221933D01*
X151030Y221963D02*
Y229971D01*
X151000Y230000D02*
X151030Y229971D01*
Y221963D02*
X151059Y221933D01*
X172500Y253343D02*
X174382Y251461D01*
X172500Y253343D02*
Y253500D01*
X174382Y245067D02*
Y251461D01*
X141500Y253000D02*
X141842D01*
X143382Y245067D02*
Y251461D01*
X141842Y253000D02*
X143382Y251461D01*
X173898Y174898D02*
X174000Y175000D01*
X177203Y161297D02*
X181547Y156953D01*
X177203Y161297D02*
Y166741D01*
X179707Y164010D02*
Y167065D01*
Y164010D02*
X185484Y158232D01*
X187453Y166201D02*
X187476Y166177D01*
Y162024D02*
Y166177D01*
Y162024D02*
X187500Y162000D01*
X171500Y169615D02*
Y175500D01*
X154994Y170006D02*
X158268Y173280D01*
X180561Y204689D02*
X183189D01*
X176457Y198567D02*
Y200585D01*
X180561Y204689D01*
X183189D02*
X188000Y209500D01*
X163500Y199000D02*
Y203000D01*
X157000Y209500D02*
X163500Y203000D01*
X158543Y198567D02*
Y200585D01*
X151831Y207297D02*
X158543Y200585D01*
X149203Y207297D02*
X151831D01*
X147000Y209500D02*
X149203Y207297D01*
X147000Y209500D02*
Y215059D01*
X148500Y216559D01*
Y221500D01*
X177500Y209000D02*
X178000D01*
X179500Y221933D02*
Y222000D01*
Y216559D02*
Y221933D01*
X178000Y209500D02*
Y215059D01*
X179500Y216559D01*
X171339Y198567D02*
X171474Y198703D01*
Y202974D01*
X177500Y209000D01*
X137500Y195500D02*
Y195736D01*
X139581Y197817D02*
X154742D01*
X155941Y195612D02*
Y196618D01*
Y195612D02*
X157140Y194413D01*
X159947D01*
X154742Y197817D02*
X155941Y196618D01*
X159947Y194413D02*
X160967Y195433D01*
Y198431D01*
X161102Y198567D01*
X137500Y195736D02*
X139581Y197817D01*
X197500Y195500D02*
Y195736D01*
X180258Y197817D02*
X195419D01*
X179059Y196618D02*
X180258Y197817D01*
X177860Y194413D02*
X179059Y195612D01*
X175053Y194413D02*
X177860D01*
X195419Y197817D02*
X197500Y195736D01*
X174033Y195433D02*
X175053Y194413D01*
X179059Y195612D02*
Y196618D01*
X174033Y195433D02*
Y198431D01*
X173898Y198567D02*
X174033Y198431D01*
X161031Y116319D02*
X161063Y116287D01*
X161031Y116319D02*
Y122468D01*
X161000Y122500D02*
X161031Y122468D01*
X165030Y133029D02*
X178471D01*
X178500Y133000D01*
X165000Y133059D02*
X165030Y133029D01*
X176457Y170315D02*
X179707Y167065D01*
X176457Y170315D02*
Y175433D01*
X158407Y173280D02*
X158500Y173372D01*
Y175000D01*
X151953Y166201D02*
Y166965D01*
X158268Y173280D02*
X158407D01*
X160500Y155000D02*
X164703Y159203D01*
Y168778D01*
X163500Y169981D02*
Y175500D01*
Y169981D02*
X164703Y168778D01*
X172157Y165843D02*
X173000Y165000D01*
X172157Y165843D02*
Y168958D01*
X171500Y169615D02*
X172157Y168958D01*
X173898Y170046D02*
Y174898D01*
Y170046D02*
X177203Y166741D01*
X168968Y116319D02*
Y122468D01*
X169000Y122500D01*
X168937Y116287D02*
X168968Y116319D01*
X165000Y127941D02*
Y128000D01*
Y116287D02*
Y127941D01*
X239000Y289500D02*
X252000Y276500D01*
X291487D02*
X299703Y268284D01*
X252000Y276500D02*
X291487D01*
X229000Y289500D02*
X244000Y274500D01*
X290658D02*
X297703Y267456D01*
X244000Y274500D02*
X290658D01*
X236000Y272500D02*
X289830D01*
X219000Y289500D02*
X236000Y272500D01*
X289830D02*
X295703Y266627D01*
X287500Y201500D02*
X299703Y213703D01*
Y268284D01*
X295703Y233703D02*
Y266627D01*
X297703Y223703D02*
Y267456D01*
X287500Y213500D02*
X297703Y223703D01*
X289002Y270500D02*
X293703Y265799D01*
Y243703D02*
Y265799D01*
X220000Y268500D02*
X288173D01*
X228000Y270500D02*
X289002D01*
X291703Y253703D02*
Y264970D01*
X288173Y268500D02*
X291703Y264970D01*
X199000Y289500D02*
X220000Y268500D01*
X209000Y289500D02*
X228000Y270500D01*
X287500Y225500D02*
X295703Y233703D01*
X287500Y237500D02*
X293703Y243703D01*
X287500Y249500D02*
X291703Y253703D01*
X267854Y201500D02*
X277500D01*
X267854Y225500D02*
X277500D01*
D49*
X288595Y162559D02*
X295441D01*
X169647Y215352D02*
X169852D01*
X170000Y215500D01*
X242000Y50000D02*
X272000D01*
X270854Y130000D02*
X279740D01*
X270854Y66000D02*
X279740D01*
X277587Y123000D02*
X278740D01*
X277500Y59500D02*
X279240D01*
X270854Y34000D02*
X279740D01*
X277587Y27000D02*
X278740D01*
X54354Y96500D02*
X63240D01*
X61000Y89500D02*
X62240D01*
X80000Y66500D02*
X89500D01*
X111000Y45000D02*
X123000D01*
X89500Y66500D02*
X111000Y45000D01*
X80000Y58051D02*
Y66500D01*
X78646Y56303D02*
Y56500D01*
X78059Y57059D02*
X78500Y57500D01*
X69906Y35500D02*
X107500D01*
X58453Y46953D02*
X69906Y35500D01*
X242000Y18000D02*
X271000D01*
X277500Y24500D01*
Y120500D02*
Y123173D01*
X257500Y103000D02*
X266953Y112453D01*
X269453D01*
X277500Y120500D01*
Y123173D02*
X277587Y123260D01*
X277500Y24500D02*
Y27173D01*
X277587Y27260D01*
X272000Y50000D02*
X277500Y55500D01*
Y59173D01*
X277587Y59260D01*
X225500Y94342D02*
Y94500D01*
X226000D02*
X234800D01*
X248300Y108000D01*
X219437Y93000D02*
X224158D01*
X225500Y94342D01*
X270854Y162000D02*
X279740D01*
X184984Y191812D02*
Y191965D01*
X208742Y168054D02*
X258000D01*
X182646Y194303D02*
X184984Y191965D01*
Y191812D02*
X208742Y168054D01*
X179342Y191000D02*
X182646Y194303D01*
Y194500D01*
X152354Y194303D02*
X155657Y191000D01*
X179342D01*
X161519Y229570D02*
X163803Y231854D01*
X161366Y229570D02*
X161519D01*
X160433Y228637D02*
X161366Y229570D01*
X160433Y217799D02*
X166394Y211838D01*
X163803Y231854D02*
X164000D01*
X160433Y217799D02*
Y228637D01*
X166394Y201000D02*
Y211838D01*
X152354Y194303D02*
Y194500D01*
X145000Y106500D02*
X147331Y108831D01*
X140224Y101724D02*
X145000Y106500D01*
X147331Y108831D02*
X150941D01*
X140224Y101567D02*
Y101724D01*
X139500Y100842D02*
X140224Y101567D01*
X167697Y76354D02*
X169981Y74070D01*
X170134D01*
X171067Y73137D01*
Y64067D02*
Y73137D01*
X171000Y64000D02*
X171067Y64067D01*
X167500Y76354D02*
X167697D01*
X170768Y81390D02*
X175803Y76354D01*
X170768Y81390D02*
Y83232D01*
X170905Y84284D02*
Y89713D01*
X170500Y83500D02*
X170768Y83232D01*
X170500Y83500D02*
Y83879D01*
X170905Y84284D01*
X163000Y83500D02*
X163268Y83232D01*
Y80390D02*
Y83232D01*
X163000Y83500D02*
X163016Y83516D01*
Y89697D01*
X163031Y89713D01*
X163268Y80390D02*
X166947Y76710D01*
X175803Y76354D02*
X176000D01*
X279240Y59500D02*
X281055Y61315D01*
X279740Y66000D02*
X281055Y64685D01*
Y61315D02*
Y64685D01*
X45781Y258781D02*
X59353Y272353D01*
X45781Y254281D02*
Y258781D01*
X41047Y253062D02*
Y257583D01*
X38547Y254098D02*
Y258618D01*
X59353Y272353D02*
X91853D01*
X58317Y274853D02*
X84353D01*
X41047Y257583D02*
X58317Y274853D01*
X38547Y258618D02*
X57282Y277353D01*
X76853D01*
X45500Y254000D02*
X45781Y254281D01*
X38547Y236953D02*
Y254098D01*
X41047Y246453D02*
Y253062D01*
Y246453D02*
X45500Y242000D01*
X84353Y274853D02*
X99000Y289500D01*
X288595Y98559D02*
X295441D01*
X269000Y108000D02*
X279000D01*
X288000Y99000D01*
X279500Y172000D02*
X288500Y163000D01*
X269000Y172000D02*
X279500D01*
X79000Y57000D02*
Y57051D01*
X80000Y58051D01*
X38547Y236953D02*
X45500Y230000D01*
X76853Y277353D02*
X89000Y289500D01*
X91853Y272353D02*
X109000Y289500D01*
X78500Y97000D02*
X78949D01*
X80000Y98051D01*
Y106500D01*
X78500Y48000D02*
Y48842D01*
X77583Y49760D02*
X78500Y48842D01*
X71913Y49760D02*
X77583D01*
X72095Y57059D02*
X78059D01*
X71913Y57240D02*
X72095Y57059D01*
X78342Y89000D02*
X79000D01*
X71913Y89760D02*
X77583D01*
X78342Y89000D01*
X72095Y97059D02*
X78441D01*
X78500Y97000D01*
X71913Y97240D02*
X72095Y97059D01*
X52953Y46953D02*
X58453D01*
X52500Y46500D02*
X52953Y46953D01*
X58453D02*
X61000Y49500D01*
X54354Y56500D02*
X63240D01*
X62240Y49500D02*
X64555Y51815D01*
Y55185D01*
X63240Y56500D02*
X64555Y55185D01*
Y91815D02*
Y95185D01*
X62240Y89500D02*
X64555Y91815D01*
X63240Y96500D02*
X64555Y95185D01*
X288413Y130740D02*
X288595Y130559D01*
X279000Y140000D02*
X288500Y130500D01*
X269000Y140000D02*
X279000D01*
X288413Y66740D02*
X288595Y66559D01*
X279000Y76000D02*
X288500Y66500D01*
X269000Y76000D02*
X279000D01*
X288413Y34740D02*
X288595Y34559D01*
X279000Y44000D02*
X288500Y34500D01*
X269000Y44000D02*
X279000D01*
X288595Y34559D02*
X294941D01*
X295000Y34500D01*
X288595Y66559D02*
X294941D01*
X295000Y66500D01*
X288413Y27260D02*
X294083D01*
X294843Y26500D01*
X295000D01*
X294843Y58500D02*
X295500D01*
X294083Y59260D02*
X294843Y58500D01*
X288413Y59260D02*
X294083D01*
X278740Y27000D02*
X281055Y29315D01*
Y32685D01*
X279740Y34000D02*
X281055Y32685D01*
X269453Y88453D02*
X274953D01*
X269000Y88000D02*
X269453Y88453D01*
X274953D02*
X277500Y91000D01*
X269453Y152453D02*
X274953D01*
X269000Y152000D02*
X269453Y152453D01*
X274953D02*
X277500Y155000D01*
X295441Y162559D02*
X295500Y162500D01*
X288413Y162740D02*
X288595Y162559D01*
Y130559D02*
X294941D01*
X295000Y130500D01*
X295441Y98559D02*
X295500Y98500D01*
X288413Y98740D02*
X288595Y98559D01*
X294843Y90500D02*
X295500D01*
X288413Y91260D02*
X294083D01*
X294843Y90500D01*
X294083Y123260D02*
X295500Y121843D01*
X288413Y123260D02*
X294083D01*
X295500Y121500D02*
Y121843D01*
X294083Y155260D02*
X295500Y153842D01*
X288413Y155260D02*
X294083D01*
X295500Y153500D02*
Y153842D01*
X270854Y98000D02*
X279740D01*
X281055Y96685D01*
Y93315D02*
Y96685D01*
X278740Y91000D02*
X281055Y93315D01*
X278740Y123000D02*
X281055Y125315D01*
Y128685D01*
X279740Y130000D02*
X281055Y128685D01*
Y157315D02*
Y160685D01*
X279740Y162000D02*
X281055Y160685D01*
X278740Y155000D02*
X281055Y157315D01*
D50*
X59000Y379500D02*
D03*
X199000D02*
D03*
X269000D02*
D03*
X249000D02*
D03*
X259000D02*
D03*
X239000Y378000D02*
D03*
X229000Y380500D02*
D03*
X219000Y379000D02*
D03*
X209000D02*
D03*
X189000D02*
D03*
X179000Y379500D02*
D03*
X169000D02*
D03*
X159000Y380000D02*
D03*
X149000Y379000D02*
D03*
X139000Y379500D02*
D03*
X129000Y380000D02*
D03*
X119000Y379500D02*
D03*
X109000D02*
D03*
X79000D02*
D03*
X89000D02*
D03*
X99000D02*
D03*
X69000D02*
D03*
X49000D02*
D03*
X39000D02*
D03*
D51*
X157500Y83500D02*
D03*
D52*
X166250Y195750D02*
D03*
D53*
X146750Y166250D02*
D03*
D54*
X269000Y299000D02*
D03*
X259000D02*
D03*
X249000D02*
D03*
X239000D02*
D03*
X229000D02*
D03*
X219000D02*
D03*
X209000D02*
D03*
X199000D02*
D03*
X189000D02*
D03*
X179000Y299250D02*
D03*
X169000D02*
D03*
X159000D02*
D03*
X149000Y298750D02*
D03*
X139000Y299250D02*
D03*
X129000Y299000D02*
D03*
X69000D02*
D03*
X59000D02*
D03*
X49000D02*
D03*
X39000D02*
D03*
D55*
X236750Y36750D02*
D03*
D56*
X151750Y235750D02*
D03*
D57*
X204000Y357000D02*
D03*
X214000D02*
D03*
X224000D02*
D03*
X234000D02*
D03*
X244000D02*
D03*
X219000Y319500D02*
D03*
X229000D02*
D03*
X239000D02*
D03*
X259000D02*
D03*
X89000D02*
D03*
Y349500D02*
D03*
Y329500D02*
D03*
Y339500D02*
D03*
Y359500D02*
D03*
X119000Y309500D02*
D03*
X109000D02*
D03*
X99000D02*
D03*
X89000D02*
D03*
X79000D02*
D03*
X69000D02*
D03*
X59000D02*
D03*
X49000D02*
D03*
X39000D02*
D03*
Y369500D02*
D03*
X49000D02*
D03*
X59000D02*
D03*
X69000D02*
D03*
X79000D02*
D03*
X89000D02*
D03*
X99000D02*
D03*
X109000D02*
D03*
X119000D02*
D03*
X129000Y309500D02*
D03*
Y369500D02*
D03*
X269000Y309500D02*
D03*
Y369500D02*
D03*
X259000Y309500D02*
D03*
X249000D02*
D03*
X259000Y369500D02*
D03*
X239000Y309500D02*
D03*
X229000D02*
D03*
X219000D02*
D03*
X209000D02*
D03*
X199000D02*
D03*
X189000D02*
D03*
X179000D02*
D03*
X169000D02*
D03*
X159000D02*
D03*
X149000D02*
D03*
X139000D02*
D03*
Y369500D02*
D03*
X149000D02*
D03*
X159000D02*
D03*
X169000D02*
D03*
X179000D02*
D03*
X189000D02*
D03*
X199000D02*
D03*
X209000D02*
D03*
X219000D02*
D03*
X229000D02*
D03*
X239000D02*
D03*
X249000D02*
D03*
D58*
X211500Y235500D02*
D03*
X231500D02*
D03*
Y255500D02*
D03*
X211500D02*
D03*
X78500Y235500D02*
D03*
X98500D02*
D03*
Y255500D02*
D03*
X78500D02*
D03*
X103500Y155500D02*
D03*
X123500D02*
D03*
Y135500D02*
D03*
X103500D02*
D03*
Y185500D02*
D03*
X123500D02*
D03*
Y205500D02*
D03*
X103500D02*
D03*
X211500Y185500D02*
D03*
X231500D02*
D03*
Y205500D02*
D03*
X211500D02*
D03*
X53500Y155500D02*
D03*
X73500D02*
D03*
Y135500D02*
D03*
X53500D02*
D03*
Y205500D02*
D03*
X73500D02*
D03*
Y185500D02*
D03*
X53500D02*
D03*
X211500Y155500D02*
D03*
X231500D02*
D03*
Y135500D02*
D03*
X211500D02*
D03*
D59*
X221500Y245500D02*
D03*
X88500D02*
D03*
X113500Y145500D02*
D03*
Y195500D02*
D03*
X221500D02*
D03*
X63500Y145500D02*
D03*
Y195500D02*
D03*
X221500Y145500D02*
D03*
D60*
X217474Y56866D02*
D03*
X187500Y54500D02*
D03*
X231000Y77500D02*
D03*
X197500Y95000D02*
D03*
X269000Y108000D02*
D03*
X80000Y66500D02*
D03*
X269000Y172000D02*
D03*
X188000Y209500D02*
D03*
X157000D02*
D03*
X269000Y24000D02*
D03*
X259000Y44000D02*
D03*
X269000Y56000D02*
D03*
X259000Y140000D02*
D03*
X269000Y152000D02*
D03*
Y120000D02*
D03*
Y88000D02*
D03*
X259000Y76000D02*
D03*
X55500Y254000D02*
D03*
Y242000D02*
D03*
Y230000D02*
D03*
X173000Y165000D02*
D03*
X160500D02*
D03*
X277500Y225500D02*
D03*
Y261500D02*
D03*
Y249500D02*
D03*
Y237500D02*
D03*
Y201500D02*
D03*
Y213500D02*
D03*
X39000Y389500D02*
D03*
X49000D02*
D03*
X59000D02*
D03*
X69000D02*
D03*
X79000D02*
D03*
X89000D02*
D03*
X99000D02*
D03*
X109000D02*
D03*
X119000D02*
D03*
X129000D02*
D03*
X139000D02*
D03*
X149000D02*
D03*
X159000D02*
D03*
X169000D02*
D03*
X179000D02*
D03*
X189000D02*
D03*
X199000D02*
D03*
X209000D02*
D03*
X219000D02*
D03*
X229000D02*
D03*
X239000D02*
D03*
X249000D02*
D03*
X259000D02*
D03*
X39000Y289500D02*
D03*
X49000D02*
D03*
X59000D02*
D03*
X69000D02*
D03*
X79000D02*
D03*
X89000D02*
D03*
X99000D02*
D03*
X109000D02*
D03*
X119000D02*
D03*
X129000D02*
D03*
X139000D02*
D03*
X149000D02*
D03*
X159000D02*
D03*
X169000D02*
D03*
X179000D02*
D03*
X189000D02*
D03*
X199000D02*
D03*
X209000D02*
D03*
X219000D02*
D03*
X229000D02*
D03*
X239000D02*
D03*
X249000D02*
D03*
X259000D02*
D03*
X52500Y46500D02*
D03*
X90000Y106500D02*
D03*
X177500Y32500D02*
D03*
X80000Y78500D02*
D03*
D61*
X187500Y44500D02*
D03*
X173000Y155000D02*
D03*
X160500D02*
D03*
D62*
X326000Y391500D02*
D03*
X15000D02*
D03*
X326000Y15000D02*
D03*
X15000D02*
D03*
D63*
X178000Y209500D02*
D03*
X147000D02*
D03*
X259000Y24000D02*
D03*
X269000Y44000D02*
D03*
X259000Y56000D02*
D03*
X269000Y140000D02*
D03*
X259000Y152000D02*
D03*
Y120000D02*
D03*
Y88000D02*
D03*
X269000Y76000D02*
D03*
X45500Y254000D02*
D03*
Y242000D02*
D03*
Y230000D02*
D03*
X287500Y225500D02*
D03*
Y261500D02*
D03*
Y249500D02*
D03*
Y237500D02*
D03*
Y201500D02*
D03*
Y213500D02*
D03*
X269000Y389500D02*
D03*
Y289500D02*
D03*
X42500Y46500D02*
D03*
X80000Y106500D02*
D03*
X187500Y32500D02*
D03*
X90000Y78500D02*
D03*
D64*
X201500Y238000D02*
D03*
X204500Y272500D02*
D03*
X197000Y243500D02*
D03*
X182000Y229500D02*
D03*
X153500Y157344D02*
D03*
X155000Y170000D02*
D03*
X126500Y74844D02*
D03*
X156500Y227500D02*
D03*
X170104Y214895D02*
D03*
X226500Y125500D02*
D03*
X188500Y91500D02*
D03*
X185000Y84500D02*
D03*
X241000Y55700D02*
D03*
X224000Y49000D02*
D03*
X211000Y42500D02*
D03*
X60500Y78500D02*
D03*
X257500Y103000D02*
D03*
X245000Y116000D02*
D03*
X187000Y107000D02*
D03*
X191000Y253000D02*
D03*
X166500Y256500D02*
D03*
X159039D02*
D03*
X157500Y270500D02*
D03*
X179000Y273500D02*
D03*
X190500Y261500D02*
D03*
X185000Y267500D02*
D03*
X174000Y278500D02*
D03*
X278000Y190000D02*
D03*
X248300Y108000D02*
D03*
X258000Y168054D02*
D03*
X156500Y263500D02*
D03*
X225500Y348000D02*
D03*
X212000Y344000D02*
D03*
X185500Y174500D02*
D03*
X149517Y174983D02*
D03*
X194000Y172000D02*
D03*
X174000Y144000D02*
D03*
X180000D02*
D03*
X185500D02*
D03*
X181167Y170742D02*
D03*
X139500Y172000D02*
D03*
X160500Y146000D02*
D03*
X153500Y144500D02*
D03*
X207500Y121000D02*
D03*
X144262Y87738D02*
D03*
X145969Y99531D02*
D03*
X145000Y106500D02*
D03*
X107500Y106000D02*
D03*
X101500Y100500D02*
D03*
X171000Y64000D02*
D03*
X157500Y83500D02*
D03*
X170500D02*
D03*
X163000D02*
D03*
X187500Y98500D02*
D03*
X187000Y113500D02*
D03*
X178500Y125500D02*
D03*
X114500Y66000D02*
D03*
X117500Y60000D02*
D03*
X134000Y61500D02*
D03*
X140500Y59500D02*
D03*
X127000Y64000D02*
D03*
X117500Y228000D02*
D03*
X124000D02*
D03*
X151000Y230000D02*
D03*
X187500Y162000D02*
D03*
X161000Y122500D02*
D03*
X169000D02*
D03*
D65*
X333500Y284500D02*
D03*
Y164500D02*
D03*
Y134500D02*
D03*
Y104500D02*
D03*
Y314500D02*
D03*
Y254500D02*
D03*
Y224500D02*
D03*
Y194500D02*
D03*
Y74500D02*
D03*
Y344500D02*
D03*
X7500Y76500D02*
D03*
Y106500D02*
D03*
Y136500D02*
D03*
Y166500D02*
D03*
Y196500D02*
D03*
Y226500D02*
D03*
Y256500D02*
D03*
Y286500D02*
D03*
Y316500D02*
D03*
Y346500D02*
D03*
D66*
X158504Y96504D02*
D03*
Y100835D02*
D03*
Y105165D02*
D03*
Y109496D02*
D03*
X162835Y96504D02*
D03*
Y100835D02*
D03*
Y105165D02*
D03*
Y109496D02*
D03*
X167165Y96504D02*
D03*
Y100835D02*
D03*
Y105165D02*
D03*
Y109496D02*
D03*
X171496Y96504D02*
D03*
Y100835D02*
D03*
Y105165D02*
D03*
Y109496D02*
D03*
M02*
