G04*
G04 #@! TF.GenerationSoftware,Altium Limited,Altium Designer,22.3.1 (43)*
G04*
G04 Layer_Color=16711935*
%FSLAX25Y25*%
%MOIN*%
G70*
G04*
G04 #@! TF.SameCoordinates,A476BA3E-0ACD-4873-8504-19A6DC85AD4C*
G04*
G04*
G04 #@! TF.FilePolarity,Negative*
G04*
G01*
G75*
%ADD26C,0.06347*%
%ADD27R,0.06347X0.06347*%
%ADD28C,0.20441*%
%ADD29C,0.08315*%
%ADD30C,0.08709*%
%ADD31R,0.06347X0.06347*%
%ADD32C,0.06241*%
%ADD33C,0.03841*%
%ADD34C,0.06941*%
%ADD35C,0.02941*%
D26*
X217474Y56866D02*
D03*
X187500Y54500D02*
D03*
X231000Y77500D02*
D03*
X197500Y95000D02*
D03*
X269000Y108000D02*
D03*
X80000Y66500D02*
D03*
X269000Y172000D02*
D03*
X188000Y209500D02*
D03*
X157000D02*
D03*
X269000Y24000D02*
D03*
X259000Y44000D02*
D03*
X269000Y56000D02*
D03*
X259000Y140000D02*
D03*
X269000Y152000D02*
D03*
Y120000D02*
D03*
Y88000D02*
D03*
X259000Y76000D02*
D03*
X55500Y254000D02*
D03*
Y242000D02*
D03*
Y230000D02*
D03*
X173000Y165000D02*
D03*
X160500D02*
D03*
X277500Y225500D02*
D03*
Y261500D02*
D03*
Y249500D02*
D03*
Y237500D02*
D03*
Y201500D02*
D03*
Y213500D02*
D03*
X39000Y389500D02*
D03*
X49000D02*
D03*
X59000D02*
D03*
X69000D02*
D03*
X79000D02*
D03*
X89000D02*
D03*
X99000D02*
D03*
X109000D02*
D03*
X119000D02*
D03*
X129000D02*
D03*
X139000D02*
D03*
X149000D02*
D03*
X159000D02*
D03*
X169000D02*
D03*
X179000D02*
D03*
X189000D02*
D03*
X199000D02*
D03*
X209000D02*
D03*
X219000D02*
D03*
X229000D02*
D03*
X239000D02*
D03*
X249000D02*
D03*
X259000D02*
D03*
X39000Y289500D02*
D03*
X49000D02*
D03*
X59000D02*
D03*
X69000D02*
D03*
X79000D02*
D03*
X89000D02*
D03*
X99000D02*
D03*
X109000D02*
D03*
X119000D02*
D03*
X129000D02*
D03*
X139000D02*
D03*
X149000D02*
D03*
X159000D02*
D03*
X169000D02*
D03*
X179000D02*
D03*
X189000D02*
D03*
X199000D02*
D03*
X209000D02*
D03*
X219000D02*
D03*
X229000D02*
D03*
X239000D02*
D03*
X249000D02*
D03*
X259000D02*
D03*
X52500Y46500D02*
D03*
X90000Y106500D02*
D03*
X177500Y32500D02*
D03*
X80000Y78500D02*
D03*
D27*
X187500Y44500D02*
D03*
X173000Y155000D02*
D03*
X160500D02*
D03*
D28*
X326000Y391500D02*
D03*
X15000D02*
D03*
X326000Y15000D02*
D03*
X15000D02*
D03*
D29*
X113500Y145500D02*
D03*
Y195500D02*
D03*
X221500D02*
D03*
X63500Y145500D02*
D03*
Y195500D02*
D03*
X221500Y145500D02*
D03*
D30*
X103500Y155500D02*
D03*
X123500D02*
D03*
Y135500D02*
D03*
X103500D02*
D03*
Y185500D02*
D03*
X123500D02*
D03*
Y205500D02*
D03*
X103500D02*
D03*
X211500Y185500D02*
D03*
X231500D02*
D03*
Y205500D02*
D03*
X211500D02*
D03*
X53500Y155500D02*
D03*
X73500D02*
D03*
Y135500D02*
D03*
X53500D02*
D03*
Y205500D02*
D03*
X73500D02*
D03*
Y185500D02*
D03*
X53500D02*
D03*
X211500Y155500D02*
D03*
X231500D02*
D03*
Y135500D02*
D03*
X211500D02*
D03*
D31*
X178000Y209500D02*
D03*
X147000D02*
D03*
X259000Y24000D02*
D03*
X269000Y44000D02*
D03*
X259000Y56000D02*
D03*
X269000Y140000D02*
D03*
X259000Y152000D02*
D03*
Y120000D02*
D03*
Y88000D02*
D03*
X269000Y76000D02*
D03*
X45500Y254000D02*
D03*
Y242000D02*
D03*
Y230000D02*
D03*
X287500Y225500D02*
D03*
Y261500D02*
D03*
Y249500D02*
D03*
Y237500D02*
D03*
Y201500D02*
D03*
Y213500D02*
D03*
X269000Y389500D02*
D03*
Y289500D02*
D03*
X42500Y46500D02*
D03*
X80000Y106500D02*
D03*
X187500Y32500D02*
D03*
X90000Y78500D02*
D03*
D32*
X204000Y357000D02*
D03*
X214000D02*
D03*
X224000D02*
D03*
X234000D02*
D03*
X244000D02*
D03*
X219000Y319500D02*
D03*
X229000D02*
D03*
X239000D02*
D03*
X259000D02*
D03*
X89000D02*
D03*
Y349500D02*
D03*
Y329500D02*
D03*
Y339500D02*
D03*
Y359500D02*
D03*
X119000Y309500D02*
D03*
X109000D02*
D03*
X99000D02*
D03*
X89000D02*
D03*
X79000D02*
D03*
X69000D02*
D03*
X59000D02*
D03*
X49000D02*
D03*
X39000D02*
D03*
Y369500D02*
D03*
X49000D02*
D03*
X59000D02*
D03*
X69000D02*
D03*
X79000D02*
D03*
X89000D02*
D03*
X99000D02*
D03*
X109000D02*
D03*
X119000D02*
D03*
X129000Y309500D02*
D03*
Y369500D02*
D03*
X269000Y309500D02*
D03*
Y369500D02*
D03*
X259000Y309500D02*
D03*
X249000D02*
D03*
X259000Y369500D02*
D03*
X239000Y309500D02*
D03*
X229000D02*
D03*
X219000D02*
D03*
X209000D02*
D03*
X199000D02*
D03*
X189000D02*
D03*
X179000D02*
D03*
X169000D02*
D03*
X159000D02*
D03*
X149000D02*
D03*
X139000D02*
D03*
Y369500D02*
D03*
X149000D02*
D03*
X159000D02*
D03*
X169000D02*
D03*
X179000D02*
D03*
X189000D02*
D03*
X199000D02*
D03*
X209000D02*
D03*
X219000D02*
D03*
X229000D02*
D03*
X239000D02*
D03*
X249000D02*
D03*
D33*
X153500Y157344D02*
D03*
X155000Y170000D02*
D03*
X126500Y74844D02*
D03*
X156500Y227500D02*
D03*
X170104Y214895D02*
D03*
X182000Y229500D02*
D03*
X226500Y125500D02*
D03*
X188500Y91500D02*
D03*
X185000Y84500D02*
D03*
X241000Y55700D02*
D03*
X224000Y49000D02*
D03*
X211000Y42500D02*
D03*
X60500Y78500D02*
D03*
X257500Y103000D02*
D03*
X209500Y267500D02*
D03*
X207659Y232841D02*
D03*
X245000Y116000D02*
D03*
X187000Y107000D02*
D03*
X191000Y253000D02*
D03*
X166500Y256500D02*
D03*
X159039D02*
D03*
X157500Y270500D02*
D03*
X195000Y241000D02*
D03*
X179000Y273500D02*
D03*
X190500Y261500D02*
D03*
X185000Y267500D02*
D03*
X174000Y278500D02*
D03*
X278000Y190000D02*
D03*
X248300Y108000D02*
D03*
X258000Y168054D02*
D03*
X156500Y263500D02*
D03*
X225500Y348000D02*
D03*
X212000Y344000D02*
D03*
X185500Y174500D02*
D03*
X149517Y174983D02*
D03*
X194000Y172000D02*
D03*
X174000Y144000D02*
D03*
X180000D02*
D03*
X185500D02*
D03*
X181167Y170742D02*
D03*
X139500Y172000D02*
D03*
X160500Y146000D02*
D03*
X153500Y144500D02*
D03*
X207500Y121000D02*
D03*
X144262Y87738D02*
D03*
X145969Y99531D02*
D03*
X145000Y106500D02*
D03*
X107500Y106000D02*
D03*
X101500Y100500D02*
D03*
X171000Y64000D02*
D03*
X157500Y83500D02*
D03*
X170500D02*
D03*
X163000D02*
D03*
X187500Y98500D02*
D03*
X187000Y113500D02*
D03*
X178500Y125500D02*
D03*
X114500Y66000D02*
D03*
X117500Y60000D02*
D03*
X134000Y61500D02*
D03*
X140500Y59500D02*
D03*
X127000Y64000D02*
D03*
X117500Y228000D02*
D03*
X111000D02*
D03*
X201000Y236500D02*
D03*
X124000Y228000D02*
D03*
X151000Y230000D02*
D03*
X187500Y162000D02*
D03*
X161000Y122500D02*
D03*
X169000D02*
D03*
D34*
X333500Y284500D02*
D03*
Y164500D02*
D03*
Y134500D02*
D03*
Y104500D02*
D03*
Y314500D02*
D03*
Y254500D02*
D03*
Y224500D02*
D03*
Y194500D02*
D03*
Y74500D02*
D03*
Y344500D02*
D03*
X7500Y76500D02*
D03*
Y106500D02*
D03*
Y136500D02*
D03*
Y166500D02*
D03*
Y196500D02*
D03*
Y226500D02*
D03*
Y256500D02*
D03*
Y286500D02*
D03*
Y316500D02*
D03*
Y346500D02*
D03*
D35*
X158504Y96504D02*
D03*
Y100835D02*
D03*
Y105165D02*
D03*
Y109496D02*
D03*
X162835Y96504D02*
D03*
Y100835D02*
D03*
Y105165D02*
D03*
Y109496D02*
D03*
X167165Y96504D02*
D03*
Y100835D02*
D03*
Y105165D02*
D03*
Y109496D02*
D03*
X171496Y96504D02*
D03*
Y100835D02*
D03*
Y105165D02*
D03*
Y109496D02*
D03*
M02*
