%TF.GenerationSoftware,Altium Limited,Altium Designer,21.6.4 (81)*%
G04 Layer_Color=8388736*
%FSLAX26Y26*%
%MOIN*%
%TF.SameCoordinates,879DA611-49A8-4675-8A71-469A8E5B397B*%
%TF.FilePolarity,Negative*%
%TF.FileFunction,Soldermask,Top*%
%TF.Part,Single*%
G01*
G75*
%TA.AperFunction,SMDPad,CuDef*%
%ADD14R,0.035433X0.031496*%
%ADD27R,0.018432X0.018601*%
%ADD28R,0.029528X0.039370*%
%TA.AperFunction,ViaPad*%
%ADD41C,0.204409*%
%TA.AperFunction,ComponentPad*%
%ADD42C,0.063465*%
%ADD43R,0.063465X0.063465*%
%ADD44R,0.063465X0.063465*%
%ADD45C,0.062409*%
%TA.AperFunction,ViaPad*%
%ADD46C,0.069409*%
%ADD47C,0.029409*%
%ADD48C,0.064409*%
%TA.AperFunction,SMDPad,CuDef*%
%ADD53R,0.053622X0.061496*%
%ADD54O,0.012283X0.039843*%
%ADD55O,0.039843X0.012283*%
%ADD56R,0.161890X0.161890*%
%ADD57R,0.016220X0.022716*%
%ADD58R,0.040236X0.052441*%
%ADD59R,0.061496X0.053622*%
%ADD60R,0.053622X0.028031*%
G04:AMPARAMS|DCode=61|XSize=28.031mil|YSize=43.779mil|CornerRadius=4.213mil|HoleSize=0mil|Usage=FLASHONLY|Rotation=0.000|XOffset=0mil|YOffset=0mil|HoleType=Round|Shape=RoundedRectangle|*
%AMROUNDEDRECTD61*
21,1,0.028031,0.035354,0,0,0.0*
21,1,0.019606,0.043779,0,0,0.0*
1,1,0.008425,0.009803,-0.017677*
1,1,0.008425,-0.009803,-0.017677*
1,1,0.008425,-0.009803,0.017677*
1,1,0.008425,0.009803,0.017677*
%
%ADD61ROUNDEDRECTD61*%
G04:AMPARAMS|DCode=62|XSize=28.031mil|YSize=43.779mil|CornerRadius=4.213mil|HoleSize=0mil|Usage=FLASHONLY|Rotation=90.000|XOffset=0mil|YOffset=0mil|HoleType=Round|Shape=RoundedRectangle|*
%AMROUNDEDRECTD62*
21,1,0.028031,0.035354,0,0,90.0*
21,1,0.019606,0.043779,0,0,90.0*
1,1,0.008425,0.017677,0.009803*
1,1,0.008425,0.017677,-0.009803*
1,1,0.008425,-0.017677,-0.009803*
1,1,0.008425,-0.017677,0.009803*
%
%ADD62ROUNDEDRECTD62*%
%ADD63R,0.028031X0.026063*%
%ADD64R,0.030000X0.024094*%
%ADD65R,0.026063X0.028031*%
%ADD66R,0.062480X0.022126*%
%ADD67R,0.016220X0.037874*%
%ADD68R,0.035118X0.022913*%
D14*
X1889370Y2155000D02*
D03*
X1810630Y2117598D02*
D03*
Y2192402D02*
D03*
X3164370Y2155000D02*
D03*
X3085630Y2117598D02*
D03*
Y2192402D02*
D03*
D27*
X3019167Y1450000D02*
D03*
X3050833D02*
D03*
X2055833D02*
D03*
X2024167D02*
D03*
D28*
X1760472Y1890000D02*
D03*
X1819528D02*
D03*
X3314528D02*
D03*
X3255472D02*
D03*
D41*
X3500000Y175000D02*
D03*
Y2660000D02*
D03*
X175000D02*
D03*
Y175000D02*
D03*
D42*
X2235000Y125000D02*
D03*
X2935000Y90000D02*
D03*
X1345000Y1220000D02*
D03*
X2245000Y2410000D02*
D03*
X3290000Y260000D02*
D03*
Y740000D02*
D03*
X2485000Y1910000D02*
D03*
X1650000Y740000D02*
D03*
X3070000Y870000D02*
D03*
X1995000Y685000D02*
D03*
X2485000Y1760000D02*
D03*
D43*
X2235000Y225000D02*
D03*
X2245000Y2510000D02*
D03*
X3290000Y360000D02*
D03*
Y640000D02*
D03*
X1650000D02*
D03*
D44*
X2835000Y90000D02*
D03*
X1245000Y1220000D02*
D03*
X2585000Y1910000D02*
D03*
X2970000Y870000D02*
D03*
X2095000Y685000D02*
D03*
X2585000Y1760000D02*
D03*
D45*
X530000Y1790000D02*
D03*
Y1890000D02*
D03*
Y1990000D02*
D03*
Y2090000D02*
D03*
Y2190000D02*
D03*
X905000Y1940000D02*
D03*
Y2040000D02*
D03*
Y2140000D02*
D03*
Y2340000D02*
D03*
Y640000D02*
D03*
X605000D02*
D03*
X805000D02*
D03*
X705000D02*
D03*
X505000D02*
D03*
X1005000Y940000D02*
D03*
Y840000D02*
D03*
Y740000D02*
D03*
Y640000D02*
D03*
Y540000D02*
D03*
Y440000D02*
D03*
Y340000D02*
D03*
Y240000D02*
D03*
Y140000D02*
D03*
X405000D02*
D03*
Y240000D02*
D03*
Y340000D02*
D03*
Y440000D02*
D03*
Y540000D02*
D03*
Y640000D02*
D03*
Y740000D02*
D03*
Y840000D02*
D03*
Y940000D02*
D03*
X1005000Y1040000D02*
D03*
X405000D02*
D03*
X1005000Y2440000D02*
D03*
X405000D02*
D03*
X1005000Y2340000D02*
D03*
Y2240000D02*
D03*
X405000Y2340000D02*
D03*
X1005000Y2140000D02*
D03*
Y2040000D02*
D03*
Y1940000D02*
D03*
Y1840000D02*
D03*
Y1740000D02*
D03*
Y1640000D02*
D03*
Y1540000D02*
D03*
Y1440000D02*
D03*
Y1340000D02*
D03*
Y1240000D02*
D03*
Y1140000D02*
D03*
X405000D02*
D03*
Y1240000D02*
D03*
Y1340000D02*
D03*
Y1440000D02*
D03*
Y1540000D02*
D03*
Y1640000D02*
D03*
Y1740000D02*
D03*
Y1840000D02*
D03*
Y1940000D02*
D03*
Y2040000D02*
D03*
Y2140000D02*
D03*
Y2240000D02*
D03*
D46*
X3555000Y1625000D02*
D03*
X2135000Y120000D02*
D03*
X3215000Y2715000D02*
D03*
X1215000Y1715000D02*
D03*
Y2215000D02*
D03*
X2215000Y2715000D02*
D03*
X1715000Y2720000D02*
D03*
X1215000Y2715000D02*
D03*
X2715000D02*
D03*
X3555000Y1800000D02*
D03*
Y1205000D02*
D03*
X1940000Y120000D02*
D03*
X1203859D02*
D03*
X1355000D02*
D03*
X2775000Y1060000D02*
D03*
X2455000Y120000D02*
D03*
X3220000D02*
D03*
X3555000Y740000D02*
D03*
Y2030000D02*
D03*
D47*
X2810000Y2190000D02*
D03*
X1995000D02*
D03*
X2400039Y500039D02*
D03*
Y543346D02*
D03*
Y586654D02*
D03*
Y629961D02*
D03*
X2443347Y500039D02*
D03*
Y543346D02*
D03*
Y586654D02*
D03*
Y629961D02*
D03*
X2486654Y500039D02*
D03*
Y543346D02*
D03*
Y586654D02*
D03*
Y629961D02*
D03*
X2529961Y500039D02*
D03*
Y543346D02*
D03*
Y586654D02*
D03*
Y629961D02*
D03*
X2710000Y1915000D02*
D03*
X2130000Y1840000D02*
D03*
X1720000D02*
D03*
X3150000Y1610000D02*
D03*
X3135000Y1675000D02*
D03*
X2945000Y1550000D02*
D03*
X2580000Y1420000D02*
D03*
X2615000Y1460000D02*
D03*
X2480000D02*
D03*
X1685000Y310000D02*
D03*
Y345000D02*
D03*
Y380000D02*
D03*
X1675000Y520000D02*
D03*
Y480000D02*
D03*
X2415000Y390000D02*
D03*
X2795000Y690000D02*
D03*
X2915000Y1655000D02*
D03*
X2930000Y1450000D02*
D03*
X2110000D02*
D03*
X2145000Y1730000D02*
D03*
X1910000Y1980000D02*
D03*
X2140000Y220000D02*
D03*
X2515000Y320000D02*
D03*
X2415000Y1890000D02*
D03*
X1745000Y1330000D02*
D03*
X1352341Y323621D02*
D03*
X1330000Y520000D02*
D03*
Y470000D02*
D03*
Y350000D02*
D03*
Y385000D02*
D03*
X2070000Y332500D02*
D03*
X2685028Y1036326D02*
D03*
X2435000Y870000D02*
D03*
X2290000Y530000D02*
D03*
X2140000Y425000D02*
D03*
X2095000Y365000D02*
D03*
X2235000Y470000D02*
D03*
X2560000Y1005000D02*
D03*
X2585000Y1285000D02*
D03*
X2540000Y750000D02*
D03*
X2505000D02*
D03*
X2685000Y1690000D02*
D03*
X1785000Y1605000D02*
D03*
X1925000D02*
D03*
X3315000Y1690000D02*
D03*
X3135000Y1760000D02*
D03*
X2770000Y430000D02*
D03*
X2701590Y431590D02*
D03*
X2203172Y444654D02*
D03*
X2810000Y625000D02*
D03*
X2645000Y545000D02*
D03*
X2610000Y1540000D02*
D03*
X2475000D02*
D03*
X2430000Y1665000D02*
D03*
X2565000D02*
D03*
X2360000Y1450000D02*
D03*
X2715000D02*
D03*
X2580000Y1615000D02*
D03*
X2615000D02*
D03*
X2479841Y1613739D02*
D03*
X2355000Y1615000D02*
D03*
X2720000D02*
D03*
X2870000Y1760000D02*
D03*
X2205000Y1620000D02*
D03*
X1950000Y1690000D02*
D03*
X2885000Y355000D02*
D03*
X2945000D02*
D03*
X2865000Y1085000D02*
D03*
X2080000Y1100000D02*
D03*
X2085000Y915000D02*
D03*
X1785000D02*
D03*
X2535000Y375000D02*
D03*
D48*
X2510000Y1065000D02*
D03*
X2635000Y785000D02*
D03*
X2245000Y690000D02*
D03*
X2335000Y1175000D02*
D03*
X2300000Y795000D02*
D03*
X2400000D02*
D03*
X2700000Y525000D02*
D03*
X2750000Y579055D02*
D03*
X2535000Y1175000D02*
D03*
D53*
X1723465Y80000D02*
D03*
X1656535D02*
D03*
X2363465Y2115000D02*
D03*
X2296535D02*
D03*
X1383465Y235000D02*
D03*
X1316535D02*
D03*
X2716535Y985000D02*
D03*
X2783465D02*
D03*
X1418465Y1335000D02*
D03*
X1351535D02*
D03*
X1691535Y1180000D02*
D03*
X1758465D02*
D03*
X1768465Y430000D02*
D03*
X1701535D02*
D03*
X2313465Y1450000D02*
D03*
X2246535D02*
D03*
X2083465Y585000D02*
D03*
X2016535D02*
D03*
X2846535Y265000D02*
D03*
X2913465D02*
D03*
X2846535Y585000D02*
D03*
X2913465D02*
D03*
X2846535Y745000D02*
D03*
X2913465D02*
D03*
X2846535Y425000D02*
D03*
X2913465D02*
D03*
X2083465D02*
D03*
X2016535D02*
D03*
X2761535Y1450000D02*
D03*
X2828465D02*
D03*
X2083465Y265000D02*
D03*
X2016535D02*
D03*
X3068465Y1550000D02*
D03*
X3001535D02*
D03*
X3318465D02*
D03*
X3251535D02*
D03*
X2828465D02*
D03*
X2761535D02*
D03*
X2006535D02*
D03*
X2073465D02*
D03*
X1756535D02*
D03*
X1823465D02*
D03*
X2246535D02*
D03*
X2313465D02*
D03*
X2006535Y1890000D02*
D03*
X2073465D02*
D03*
X3068465D02*
D03*
X3001535D02*
D03*
D54*
X2376417Y432126D02*
D03*
X2396102D02*
D03*
X2415787D02*
D03*
X2435472D02*
D03*
X2455157D02*
D03*
X2474843D02*
D03*
X2494528D02*
D03*
X2514213D02*
D03*
X2533898D02*
D03*
X2553583D02*
D03*
Y697874D02*
D03*
X2533898D02*
D03*
X2514213D02*
D03*
X2494528D02*
D03*
X2474843D02*
D03*
X2455157D02*
D03*
X2435472D02*
D03*
X2415787D02*
D03*
X2396102D02*
D03*
X2376417D02*
D03*
D55*
X2597874Y466575D02*
D03*
Y486260D02*
D03*
Y505945D02*
D03*
Y525630D02*
D03*
Y545315D02*
D03*
Y565000D02*
D03*
Y584685D02*
D03*
Y604370D02*
D03*
Y624055D02*
D03*
Y643740D02*
D03*
Y663425D02*
D03*
X2332126D02*
D03*
Y643740D02*
D03*
Y624055D02*
D03*
Y604370D02*
D03*
Y584685D02*
D03*
Y565000D02*
D03*
Y545315D02*
D03*
Y525630D02*
D03*
Y505945D02*
D03*
Y486260D02*
D03*
Y466575D02*
D03*
D56*
X2465000Y565000D02*
D03*
D57*
X2450315Y1582244D02*
D03*
X2470000D02*
D03*
X2489685D02*
D03*
Y1647756D02*
D03*
X2450315D02*
D03*
X2585315Y1582244D02*
D03*
X2605000D02*
D03*
X2624685D02*
D03*
Y1647756D02*
D03*
X2585315D02*
D03*
D58*
X2085630Y1305000D02*
D03*
X2214370D02*
D03*
Y1155000D02*
D03*
X2085630D02*
D03*
Y1010000D02*
D03*
X2214370D02*
D03*
Y860000D02*
D03*
X2085630D02*
D03*
X1785630Y1010000D02*
D03*
X1914370D02*
D03*
Y860000D02*
D03*
X1785630D02*
D03*
X2735630Y1140000D02*
D03*
X2864370D02*
D03*
Y1305000D02*
D03*
X2735630D02*
D03*
D59*
X3120000Y651535D02*
D03*
Y718465D02*
D03*
X2210000Y2113465D02*
D03*
Y2046535D02*
D03*
X2365000Y2386535D02*
D03*
Y2453465D02*
D03*
X1665000Y233464D02*
D03*
Y166535D02*
D03*
X2510000Y836535D02*
D03*
Y903465D02*
D03*
X1690000Y1333465D02*
D03*
Y1266535D02*
D03*
X1165000Y401536D02*
D03*
Y468465D02*
D03*
X1260000Y401536D02*
D03*
Y468465D02*
D03*
X2455000Y343464D02*
D03*
Y276535D02*
D03*
X2335000Y343464D02*
D03*
Y276535D02*
D03*
X2575000Y343464D02*
D03*
Y276535D02*
D03*
X3120000Y343464D02*
D03*
Y276535D02*
D03*
X2635000Y1191535D02*
D03*
Y1258465D02*
D03*
X2435000Y1191535D02*
D03*
Y1258465D02*
D03*
X1820000Y651535D02*
D03*
Y718465D02*
D03*
X2000000Y1216535D02*
D03*
Y1283465D02*
D03*
X1700000Y921535D02*
D03*
Y988465D02*
D03*
X2000000Y921535D02*
D03*
Y988465D02*
D03*
X2950000Y1216535D02*
D03*
Y1283465D02*
D03*
D60*
X2834213Y1652598D02*
D03*
Y1690000D02*
D03*
Y1727402D02*
D03*
X2735787D02*
D03*
Y1652598D02*
D03*
X2240787Y1727402D02*
D03*
Y1690000D02*
D03*
Y1652598D02*
D03*
X2339213D02*
D03*
Y1727402D02*
D03*
X3326339Y1652598D02*
D03*
Y1727402D02*
D03*
X3243661Y1690000D02*
D03*
X3084213Y1652598D02*
D03*
Y1690000D02*
D03*
Y1727402D02*
D03*
X2985787D02*
D03*
Y1652598D02*
D03*
X1748661Y1727402D02*
D03*
Y1652598D02*
D03*
X1831339Y1690000D02*
D03*
X1990787Y1727402D02*
D03*
Y1690000D02*
D03*
Y1652598D02*
D03*
X2089213D02*
D03*
Y1727402D02*
D03*
D61*
X2327402Y2195866D02*
D03*
X2252599D02*
D03*
Y2304134D02*
D03*
X2290000D02*
D03*
X2327402D02*
D03*
D62*
X1574134Y197402D02*
D03*
Y122599D02*
D03*
X1465866D02*
D03*
Y160000D02*
D03*
Y197402D02*
D03*
X1609134Y1297402D02*
D03*
Y1222599D02*
D03*
X1500866D02*
D03*
Y1260000D02*
D03*
Y1297402D02*
D03*
D63*
X2736732Y865000D02*
D03*
X2703268D02*
D03*
X2736732Y920000D02*
D03*
X2703268D02*
D03*
D64*
X2581614Y890000D02*
D03*
X2658386Y915591D02*
D03*
Y864409D02*
D03*
D65*
X2510000Y1006732D02*
D03*
Y973268D02*
D03*
D66*
X1620669Y340433D02*
D03*
Y366024D02*
D03*
Y391614D02*
D03*
Y417205D02*
D03*
Y442795D02*
D03*
Y468386D02*
D03*
Y493976D02*
D03*
Y519567D02*
D03*
X1389331D02*
D03*
Y493976D02*
D03*
Y468386D02*
D03*
Y442795D02*
D03*
Y417205D02*
D03*
Y391614D02*
D03*
Y366024D02*
D03*
Y340433D02*
D03*
D67*
X2440472Y1502008D02*
D03*
X2460157D02*
D03*
X2479843D02*
D03*
X2499528D02*
D03*
Y1377992D02*
D03*
X2479843D02*
D03*
X2460157D02*
D03*
X2440472D02*
D03*
X2575472Y1502008D02*
D03*
X2595157D02*
D03*
X2614843D02*
D03*
X2634528D02*
D03*
Y1377992D02*
D03*
X2614843D02*
D03*
X2595157D02*
D03*
X2575472D02*
D03*
D68*
X3258425Y1450000D02*
D03*
X3311575D02*
D03*
X1816575D02*
D03*
X1763425D02*
D03*
%TF.MD5,4635dc0d98214ace522a630d3afe32fc*%
M02*
