M48
;Layer_Color=9474304
;FILE_FORMAT=2:4
INCH,LZ
;TYPE=PLATED
T1F00S00C0.0150
T2F00S00C0.0354
T3F00S00C0.0380
T4F00S00C0.0450
T5F00S00C0.1000
%
T01
X013523Y003236
X0133Y0035
Y00385
Y0047
Y0052
X01675
Y0048
X01685Y0038
Y00345
Y0031
X0207Y003325
X02095Y00365
X0214Y00425
X022032Y004447
X02235Y0047
X0229Y0053
X024Y005433
Y005
X024433
Y005433
Y005867
X024
X024867
Y005433
Y005
X02415Y0039
X02515Y0032
X0214Y0022
X02535Y00375
X0253Y005
Y005433
Y005867
X02645Y00545
X027016Y004316
X0277Y0043
X02885Y00355
X02945
X0281Y00625
X02795Y0069
X0254Y0075
X0253Y0063
X0256Y01005
X02685Y010363
X02865Y01085
X0293Y0145
X02945Y0155
X02915Y01655
X0287Y0176
X02685Y0169
X0272Y01615
X02615
X0258
X02565Y01665
X0261Y0154
X02615Y0146
X0258Y0142
X02585Y01285
X02715Y0145
X0271Y01915
X03135Y0176
Y01675
X0315Y0161
X03315Y0169
X0243Y01665
X024798Y016137
X02475Y0154
X0248Y0146
X0236Y0145
X02355Y01615
X02205Y0162
X02145Y0173
X0213Y0184
X0195Y0169
X01925Y01605
X01785
X0172Y0184
X0191Y0198
X02415Y0189
X0211Y0145
X0208Y011
X02085Y00915
X01785
X01745Y0133
X02435Y0087
X02505Y0075
X024867Y0063
X024433
X024
X01995Y0219
X0281
T02
X02235Y00125
Y00225
X02835Y0009
X02935
X0329Y0026
Y0036
X027Y00525
X0275Y005791
X02635Y00785
X0297Y0087
X0307
X0329Y0074
Y0064
X02535Y01175
X02585Y0176
Y0191
X02485
Y0176
X0251Y01065
X02335Y01175
X023Y00795
X024
X02245Y0069
X02095Y00685
X01995
X0165Y0064
Y0074
X01345Y0122
X01245
X02245Y0241
Y0251
T03
X00405Y0014
Y0024
Y0034
Y0044
Y0054
X01005
Y0044
Y0034
Y0024
Y0014
Y0064
Y0074
Y0084
Y0094
Y0104
Y0114
Y0124
Y0134
Y0144
Y0154
Y0164
Y0174
Y0184
Y0194
Y0204
Y0214
X00905
Y0204
Y0194
X0053Y0189
Y0179
X00405Y0174
Y0164
Y0154
Y0144
Y0134
Y0124
Y0114
Y0104
Y0094
Y0084
Y0074
Y0064
X00505
X00605
X00705
X00805
X00905
X00405Y0184
Y0194
Y0204
Y0214
X0053Y0209
Y0199
Y0219
X00405Y0224
Y0234
Y0244
X00905Y0234
X01005
Y0244
Y0224
T04
X012039Y0012
X01355
X0194
X02135
X02455
X0322
X03555Y0074
Y01205
Y01625
Y018
Y0203
X02775Y0106
X01215Y01715
Y02215
Y02715
X01715Y0272
X02215Y02715
X02715
X03215
T05
X00175Y00175
X035
X00175Y0266
X035
M30
