%TF.GenerationSoftware,Altium Limited,Altium Designer,22.3.1 (43)*%
G04 Layer_Color=16711935*
%FSLAX26Y26*%
%MOIN*%
%TF.SameCoordinates,25215B7F-5601-44EC-B639-707B6E2D0B24*%
%TF.FilePolarity,Positive*%
%TF.FileFunction,Other,Mechanical_1*%
%TF.Part,Single*%
G01*
G75*
%TA.AperFunction,NonConductor*%
%ADD85C,0.002362*%
D85*
X2805000Y1595743D02*
Y1582624D01*
X2807624Y1580000D01*
X2812872D01*
X2815495Y1582624D01*
Y1595743D01*
X2831238Y1580000D02*
X2820743D01*
X2831238Y1590495D01*
Y1593119D01*
X2828614Y1595743D01*
X2823367D01*
X2820743Y1593119D01*
X2805000Y1275743D02*
Y1262624D01*
X2807624Y1260000D01*
X2812872D01*
X2815495Y1262624D01*
Y1275743D01*
X2828614Y1260000D02*
Y1275743D01*
X2820743Y1267871D01*
X2831238D01*
X2805000Y635743D02*
Y622624D01*
X2807624Y620000D01*
X2812872D01*
X2815495Y622624D01*
Y635743D01*
X2831238D02*
X2825990Y633119D01*
X2820743Y627871D01*
Y622624D01*
X2823367Y620000D01*
X2828614D01*
X2831238Y622624D01*
Y625248D01*
X2828614Y627871D01*
X2820743D01*
X2805000Y955743D02*
Y942624D01*
X2807624Y940000D01*
X2812872D01*
X2815495Y942624D01*
Y955743D01*
X2820743Y940000D02*
X2825990D01*
X2823367D01*
Y955743D01*
X2820743Y953119D01*
X2805000Y315743D02*
Y302624D01*
X2807624Y300000D01*
X2812872D01*
X2815495Y302624D01*
Y315743D01*
X2820743D02*
X2831238D01*
Y313119D01*
X2820743Y302624D01*
Y300000D01*
X640000Y940743D02*
Y927624D01*
X642624Y925000D01*
X647871D01*
X650495Y927624D01*
Y940743D01*
X666238D02*
X655743D01*
Y932871D01*
X660990Y935495D01*
X663614D01*
X666238Y932871D01*
Y927624D01*
X663614Y925000D01*
X658367D01*
X655743Y927624D01*
X640000Y540743D02*
Y527624D01*
X642624Y525000D01*
X647871D01*
X650495Y527624D01*
Y540743D01*
X655743Y538119D02*
X658367Y540743D01*
X663614D01*
X666238Y538119D01*
Y535495D01*
X663614Y532871D01*
X660990D01*
X663614D01*
X666238Y530248D01*
Y527624D01*
X663614Y525000D01*
X658367D01*
X655743Y527624D01*
%TF.MD5,665303bc80b42088dd2f60a919f89f02*%
M02*
