G04*
G04 #@! TF.GenerationSoftware,Altium Limited,Altium Designer,22.3.1 (43)*
G04*
G04 Layer_Color=255*
%FSLAX25Y25*%
%MOIN*%
G70*
G04*
G04 #@! TF.SameCoordinates,A476BA3E-0ACD-4873-8504-19A6DC85AD4C*
G04*
G04*
G04 #@! TF.FilePolarity,Positive*
G04*
G01*
G75*
%ADD36R,0.03150X0.03740*%
%ADD37R,0.03740X0.03150*%
%ADD38R,0.03740X0.04134*%
%ADD39R,0.01772X0.05807*%
G04:AMPARAMS|DCode=40|XSize=23.62mil|YSize=39.37mil|CornerRadius=2.01mil|HoleSize=0mil|Usage=FLASHONLY|Rotation=90.000|XOffset=0mil|YOffset=0mil|HoleType=Round|Shape=RoundedRectangle|*
%AMROUNDEDRECTD40*
21,1,0.02362,0.03535,0,0,90.0*
21,1,0.01961,0.03937,0,0,90.0*
1,1,0.00402,0.01768,0.00980*
1,1,0.00402,0.01768,-0.00980*
1,1,0.00402,-0.01768,-0.00980*
1,1,0.00402,-0.01768,0.00980*
%
%ADD40ROUNDEDRECTD40*%
%ADD41R,0.04134X0.03740*%
%ADD42R,0.01181X0.03347*%
%ADD43R,0.03583X0.04803*%
%ADD44O,0.00787X0.03543*%
%ADD45O,0.03543X0.00787*%
%ADD46R,0.15748X0.15748*%
%ADD57C,0.05906*%
%ADD58R,0.05906X0.05906*%
%ADD59C,0.20000*%
%ADD60C,0.07874*%
%ADD61C,0.08268*%
%ADD62R,0.05906X0.05906*%
%ADD63C,0.05800*%
D36*
X153941Y128500D02*
D03*
X159059D02*
D03*
X202559Y195500D02*
D03*
X197441D02*
D03*
X132441D02*
D03*
X137559D02*
D03*
X142941Y128500D02*
D03*
X148059D02*
D03*
D37*
X171000Y133059D02*
D03*
Y127941D02*
D03*
X191000Y132941D02*
D03*
Y138059D02*
D03*
X137500Y117441D02*
D03*
Y122559D02*
D03*
X165000Y127941D02*
D03*
Y133059D02*
D03*
D38*
X178146Y133000D02*
D03*
X183854D02*
D03*
X182646Y194500D02*
D03*
X188354D02*
D03*
X152354D02*
D03*
X146646D02*
D03*
X300854Y122000D02*
D03*
X295146D02*
D03*
X300854Y162000D02*
D03*
X295146D02*
D03*
X300854Y154000D02*
D03*
X295146D02*
D03*
X300854Y130000D02*
D03*
X295146D02*
D03*
X265146D02*
D03*
X270854D02*
D03*
X265146Y162000D02*
D03*
X270854D02*
D03*
X265146Y34000D02*
D03*
X270854D02*
D03*
X300854Y66000D02*
D03*
X295146D02*
D03*
X300854Y58000D02*
D03*
X295146D02*
D03*
X265146Y98000D02*
D03*
X270854D02*
D03*
X300854Y90000D02*
D03*
X295146D02*
D03*
X300854Y98000D02*
D03*
X295146D02*
D03*
X265146Y66000D02*
D03*
X270854D02*
D03*
X300854Y26000D02*
D03*
X295146D02*
D03*
X300854Y34000D02*
D03*
X295146D02*
D03*
X267854Y201500D02*
D03*
X262146D02*
D03*
X267854Y225500D02*
D03*
X262146D02*
D03*
X54354Y96500D02*
D03*
X48646D02*
D03*
X199854Y117500D02*
D03*
X194146D02*
D03*
X113146Y92000D02*
D03*
X118854D02*
D03*
X113146Y83500D02*
D03*
X118854D02*
D03*
X188354Y181500D02*
D03*
X182646D02*
D03*
X194146Y76000D02*
D03*
X199854D02*
D03*
Y84500D02*
D03*
X194146D02*
D03*
X133646Y84000D02*
D03*
X139354D02*
D03*
X133646Y92000D02*
D03*
X139354D02*
D03*
X133646Y100500D02*
D03*
X139354D02*
D03*
X199854Y109000D02*
D03*
X194146D02*
D03*
X102646Y28000D02*
D03*
X108354D02*
D03*
X78646Y48500D02*
D03*
X84354D02*
D03*
X78646Y56500D02*
D03*
X84354D02*
D03*
X78646Y88500D02*
D03*
X84354D02*
D03*
X78646Y96500D02*
D03*
X84354D02*
D03*
X54354Y56500D02*
D03*
X48646D02*
D03*
D39*
X158543Y198567D02*
D03*
X161102D02*
D03*
X163661D02*
D03*
X166220D02*
D03*
X168780D02*
D03*
X171339D02*
D03*
X173898D02*
D03*
X176457D02*
D03*
Y175433D02*
D03*
X173898D02*
D03*
X171339D02*
D03*
X168780D02*
D03*
X166220D02*
D03*
X163661D02*
D03*
X161102D02*
D03*
X158543D02*
D03*
X140823Y221933D02*
D03*
X143382D02*
D03*
X145941D02*
D03*
X148500D02*
D03*
X151059D02*
D03*
X153618D02*
D03*
X156177D02*
D03*
Y245067D02*
D03*
X153618D02*
D03*
X151059D02*
D03*
X148500D02*
D03*
X145941D02*
D03*
X143382D02*
D03*
X140823D02*
D03*
X171823Y221933D02*
D03*
X174382D02*
D03*
X176941D02*
D03*
X179500D02*
D03*
X182059D02*
D03*
X184618D02*
D03*
X187177D02*
D03*
Y245067D02*
D03*
X184618D02*
D03*
X182059D02*
D03*
X179500D02*
D03*
X176941D02*
D03*
X174382D02*
D03*
X171823D02*
D03*
X132457Y49567D02*
D03*
X129898D02*
D03*
X127339D02*
D03*
X124779D02*
D03*
X122221D02*
D03*
X119661D02*
D03*
X117102D02*
D03*
X114543D02*
D03*
Y26433D02*
D03*
X117102D02*
D03*
X119661D02*
D03*
X122221D02*
D03*
X124779D02*
D03*
X127339D02*
D03*
X129898D02*
D03*
X132457D02*
D03*
D40*
X277587Y162740D02*
D03*
Y159000D02*
D03*
Y155260D02*
D03*
X288413D02*
D03*
Y162740D02*
D03*
X277587Y130740D02*
D03*
Y127000D02*
D03*
Y123260D02*
D03*
X288413D02*
D03*
Y130740D02*
D03*
X277587Y66740D02*
D03*
Y63000D02*
D03*
Y59260D02*
D03*
X288413D02*
D03*
Y66740D02*
D03*
X277587Y98740D02*
D03*
Y95000D02*
D03*
Y91260D02*
D03*
X288413D02*
D03*
Y98740D02*
D03*
X277587Y34740D02*
D03*
Y31000D02*
D03*
Y27260D02*
D03*
X288413D02*
D03*
Y34740D02*
D03*
X71913Y97240D02*
D03*
Y89760D02*
D03*
X61087D02*
D03*
Y93500D02*
D03*
Y97240D02*
D03*
X71913Y57240D02*
D03*
Y49760D02*
D03*
X61087D02*
D03*
Y53500D02*
D03*
Y57240D02*
D03*
D41*
X194000Y164354D02*
D03*
Y158646D02*
D03*
X139500Y164354D02*
D03*
Y158646D02*
D03*
X172500Y253146D02*
D03*
Y258854D02*
D03*
X141500Y253146D02*
D03*
Y258854D02*
D03*
X159000Y70646D02*
D03*
Y76354D02*
D03*
X167500Y70646D02*
D03*
Y76354D02*
D03*
X176000Y70646D02*
D03*
Y76354D02*
D03*
X208000Y114354D02*
D03*
Y108646D02*
D03*
X133000Y231854D02*
D03*
Y226146D02*
D03*
Y239646D02*
D03*
Y245354D02*
D03*
X164000Y231854D02*
D03*
Y226146D02*
D03*
Y239646D02*
D03*
Y245354D02*
D03*
X139000Y40354D02*
D03*
Y34646D02*
D03*
X108000Y41354D02*
D03*
Y35646D02*
D03*
X226000Y100354D02*
D03*
Y94646D02*
D03*
D42*
X181547Y153799D02*
D03*
X183516D02*
D03*
X185484D02*
D03*
X187453D02*
D03*
Y166201D02*
D03*
X185484D02*
D03*
X183516D02*
D03*
X181547D02*
D03*
X146047Y153799D02*
D03*
X148016D02*
D03*
X149984D02*
D03*
X151953D02*
D03*
Y166201D02*
D03*
X149984D02*
D03*
X148016D02*
D03*
X146047D02*
D03*
D43*
X206563Y93000D02*
D03*
X219437D02*
D03*
Y100500D02*
D03*
X206563D02*
D03*
D44*
X155157Y89713D02*
D03*
X157126D02*
D03*
X159095D02*
D03*
X161063D02*
D03*
X163031D02*
D03*
X165000D02*
D03*
X166969D02*
D03*
X168937D02*
D03*
X170905D02*
D03*
X172874D02*
D03*
X174843D02*
D03*
Y116287D02*
D03*
X172874D02*
D03*
X170905D02*
D03*
X168937D02*
D03*
X166969D02*
D03*
X165000D02*
D03*
X163031D02*
D03*
X161063D02*
D03*
X159095D02*
D03*
X157126D02*
D03*
X155157D02*
D03*
D45*
X178287Y93158D02*
D03*
Y95126D02*
D03*
Y97095D02*
D03*
Y99063D02*
D03*
Y101031D02*
D03*
Y103000D02*
D03*
Y104969D02*
D03*
Y106937D02*
D03*
Y108905D02*
D03*
Y110874D02*
D03*
Y112843D02*
D03*
X151713D02*
D03*
Y110874D02*
D03*
Y108905D02*
D03*
Y106937D02*
D03*
Y104969D02*
D03*
Y103000D02*
D03*
Y101031D02*
D03*
Y99063D02*
D03*
Y97095D02*
D03*
Y95126D02*
D03*
Y93158D02*
D03*
D46*
X165000Y103000D02*
D03*
D57*
X217474Y56866D02*
D03*
X187500Y54500D02*
D03*
X231000Y77500D02*
D03*
X197500Y95000D02*
D03*
X269000Y108000D02*
D03*
X80000Y66500D02*
D03*
X269000Y172000D02*
D03*
X188000Y209500D02*
D03*
X157000D02*
D03*
X269000Y24000D02*
D03*
X259000Y44000D02*
D03*
X269000Y56000D02*
D03*
X259000Y140000D02*
D03*
X269000Y152000D02*
D03*
Y120000D02*
D03*
Y88000D02*
D03*
X259000Y76000D02*
D03*
X55500Y254000D02*
D03*
Y242000D02*
D03*
Y230000D02*
D03*
X173000Y165000D02*
D03*
X160500D02*
D03*
X277500Y225500D02*
D03*
Y261500D02*
D03*
Y249500D02*
D03*
Y237500D02*
D03*
Y201500D02*
D03*
Y213500D02*
D03*
X39000Y389500D02*
D03*
X49000D02*
D03*
X59000D02*
D03*
X69000D02*
D03*
X79000D02*
D03*
X89000D02*
D03*
X99000D02*
D03*
X109000D02*
D03*
X119000D02*
D03*
X129000D02*
D03*
X139000D02*
D03*
X149000D02*
D03*
X159000D02*
D03*
X169000D02*
D03*
X179000D02*
D03*
X189000D02*
D03*
X199000D02*
D03*
X209000D02*
D03*
X219000D02*
D03*
X229000D02*
D03*
X239000D02*
D03*
X249000D02*
D03*
X259000D02*
D03*
X39000Y289500D02*
D03*
X49000D02*
D03*
X59000D02*
D03*
X69000D02*
D03*
X79000D02*
D03*
X89000D02*
D03*
X99000D02*
D03*
X109000D02*
D03*
X119000D02*
D03*
X129000D02*
D03*
X139000D02*
D03*
X149000D02*
D03*
X159000D02*
D03*
X169000D02*
D03*
X179000D02*
D03*
X189000D02*
D03*
X199000D02*
D03*
X209000D02*
D03*
X219000D02*
D03*
X229000D02*
D03*
X239000D02*
D03*
X249000D02*
D03*
X259000D02*
D03*
X52500Y46500D02*
D03*
X90000Y106500D02*
D03*
X177500Y32500D02*
D03*
X80000Y78500D02*
D03*
D58*
X187500Y44500D02*
D03*
X173000Y155000D02*
D03*
X160500D02*
D03*
D59*
X326000Y391500D02*
D03*
X15000D02*
D03*
X326000Y15000D02*
D03*
X15000D02*
D03*
D60*
X113500Y145500D02*
D03*
Y195500D02*
D03*
X221500D02*
D03*
X63500Y145500D02*
D03*
Y195500D02*
D03*
X221500Y145500D02*
D03*
D61*
X103500Y155500D02*
D03*
X123500D02*
D03*
Y135500D02*
D03*
X103500D02*
D03*
Y185500D02*
D03*
X123500D02*
D03*
Y205500D02*
D03*
X103500D02*
D03*
X211500Y185500D02*
D03*
X231500D02*
D03*
Y205500D02*
D03*
X211500D02*
D03*
X53500Y155500D02*
D03*
X73500D02*
D03*
Y135500D02*
D03*
X53500D02*
D03*
Y205500D02*
D03*
X73500D02*
D03*
Y185500D02*
D03*
X53500D02*
D03*
X211500Y155500D02*
D03*
X231500D02*
D03*
Y135500D02*
D03*
X211500D02*
D03*
D62*
X178000Y209500D02*
D03*
X147000D02*
D03*
X259000Y24000D02*
D03*
X269000Y44000D02*
D03*
X259000Y56000D02*
D03*
X269000Y140000D02*
D03*
X259000Y152000D02*
D03*
Y120000D02*
D03*
Y88000D02*
D03*
X269000Y76000D02*
D03*
X45500Y254000D02*
D03*
Y242000D02*
D03*
Y230000D02*
D03*
X287500Y225500D02*
D03*
Y261500D02*
D03*
Y249500D02*
D03*
Y237500D02*
D03*
Y201500D02*
D03*
Y213500D02*
D03*
X269000Y389500D02*
D03*
Y289500D02*
D03*
X42500Y46500D02*
D03*
X80000Y106500D02*
D03*
X187500Y32500D02*
D03*
X90000Y78500D02*
D03*
D63*
X204000Y357000D02*
D03*
X214000D02*
D03*
X224000D02*
D03*
X234000D02*
D03*
X244000D02*
D03*
X219000Y319500D02*
D03*
X229000D02*
D03*
X239000D02*
D03*
X259000D02*
D03*
X89000D02*
D03*
Y349500D02*
D03*
Y329500D02*
D03*
Y339500D02*
D03*
Y359500D02*
D03*
X119000Y309500D02*
D03*
X109000D02*
D03*
X99000D02*
D03*
X89000D02*
D03*
X79000D02*
D03*
X69000D02*
D03*
X59000D02*
D03*
X49000D02*
D03*
X39000D02*
D03*
Y369500D02*
D03*
X49000D02*
D03*
X59000D02*
D03*
X69000D02*
D03*
X79000D02*
D03*
X89000D02*
D03*
X99000D02*
D03*
X109000D02*
D03*
X119000D02*
D03*
X129000Y309500D02*
D03*
Y369500D02*
D03*
X269000Y309500D02*
D03*
Y369500D02*
D03*
X259000Y309500D02*
D03*
X249000D02*
D03*
X259000Y369500D02*
D03*
X239000Y309500D02*
D03*
X229000D02*
D03*
X219000D02*
D03*
X209000D02*
D03*
X199000D02*
D03*
X189000D02*
D03*
X179000D02*
D03*
X169000D02*
D03*
X159000D02*
D03*
X149000D02*
D03*
X139000D02*
D03*
Y369500D02*
D03*
X149000D02*
D03*
X159000D02*
D03*
X169000D02*
D03*
X179000D02*
D03*
X189000D02*
D03*
X199000D02*
D03*
X209000D02*
D03*
X219000D02*
D03*
X229000D02*
D03*
X239000D02*
D03*
X249000D02*
D03*
M02*
