%TF.GenerationSoftware,Altium Limited,Altium Designer,21.7.1 (17)*%
G04 Layer_Color=255*
%FSLAX26Y26*%
%MOIN*%
%TF.SameCoordinates,27FB9546-20EE-4E74-96E1-B46C9306E405*%
%TF.FilePolarity,Positive*%
%TF.FileFunction,Pads,Top*%
%TF.Part,Single*%
G01*
G75*
%TA.AperFunction,SMDPad,CuDef*%
%ADD10R,0.037402X0.031496*%
%ADD11R,0.041339X0.037402*%
%ADD12R,0.035827X0.048032*%
%ADD13R,0.037402X0.041339*%
%ADD14R,0.017716X0.058071*%
%ADD15R,0.033465X0.011811*%
%ADD16R,0.031496X0.037402*%
G04:AMPARAMS|DCode=17|XSize=23.622mil|YSize=39.37mil|CornerRadius=2.008mil|HoleSize=0mil|Usage=FLASHONLY|Rotation=90.000|XOffset=0mil|YOffset=0mil|HoleType=Round|Shape=RoundedRectangle|*
%AMROUNDEDRECTD17*
21,1,0.023622,0.035354,0,0,90.0*
21,1,0.019606,0.039370,0,0,90.0*
1,1,0.004016,0.017677,0.009803*
1,1,0.004016,0.017677,-0.009803*
1,1,0.004016,-0.017677,-0.009803*
1,1,0.004016,-0.017677,0.009803*
%
%ADD17ROUNDEDRECTD17*%
%ADD18R,0.025591X0.019685*%
%ADD19R,0.157480X0.157480*%
%ADD20O,0.035433X0.007874*%
%ADD21O,0.007874X0.035433*%
%TA.AperFunction,ComponentPad*%
%ADD26C,0.058000*%
%ADD27C,0.059055*%
%ADD28R,0.059055X0.059055*%
%ADD29R,0.059055X0.059055*%
%TA.AperFunction,ViaPad*%
%ADD30C,0.200000*%
%ADD31C,0.059055*%
%TA.AperFunction,ComponentPad*%
%ADD32C,0.082677*%
%ADD33C,0.078740*%
D10*
X1915000Y1115591D02*
D03*
Y1064409D02*
D03*
D11*
X2305000Y811457D02*
D03*
Y868543D02*
D03*
X1290000Y2223543D02*
D03*
Y2166457D02*
D03*
X1205000Y1896457D02*
D03*
Y1953543D02*
D03*
Y2088543D02*
D03*
Y2031457D02*
D03*
X1600000Y2223543D02*
D03*
Y2166457D02*
D03*
X1515000Y1896457D02*
D03*
Y1953543D02*
D03*
Y2088543D02*
D03*
Y2031457D02*
D03*
X1590000Y1341457D02*
D03*
Y1398543D02*
D03*
X1330000Y1341457D02*
D03*
Y1398543D02*
D03*
X1515000Y341457D02*
D03*
Y398543D02*
D03*
X1190000Y968543D02*
D03*
Y911457D02*
D03*
Y1096457D02*
D03*
Y1153543D02*
D03*
X1450000Y1186457D02*
D03*
Y1243543D02*
D03*
X1795000Y1096457D02*
D03*
Y1153543D02*
D03*
X1885000Y601457D02*
D03*
Y658543D02*
D03*
X1800000Y601457D02*
D03*
Y658543D02*
D03*
X1715000Y601457D02*
D03*
Y658543D02*
D03*
X2125000Y1008543D02*
D03*
Y951457D02*
D03*
D12*
X2239370Y795000D02*
D03*
X2110630D02*
D03*
Y870000D02*
D03*
X2239370D02*
D03*
X1384370Y900000D02*
D03*
X1255630D02*
D03*
Y975000D02*
D03*
X1384370D02*
D03*
Y1160000D02*
D03*
X1255630D02*
D03*
Y1085000D02*
D03*
X1384370D02*
D03*
X1515630Y1175000D02*
D03*
X1644370D02*
D03*
Y1250000D02*
D03*
X1515630D02*
D03*
D13*
X2458543Y1320000D02*
D03*
X2401457D02*
D03*
X1398543Y1640000D02*
D03*
X1341457D02*
D03*
X1701457Y1510000D02*
D03*
X1758543D02*
D03*
X1701457Y1640000D02*
D03*
X1758543D02*
D03*
X1368543Y75000D02*
D03*
X1311457D02*
D03*
X1368543Y160000D02*
D03*
X1311457D02*
D03*
X1328543Y765000D02*
D03*
X1271457D02*
D03*
X968543Y815000D02*
D03*
X911457D02*
D03*
X968543Y895000D02*
D03*
X911457D02*
D03*
X611457D02*
D03*
X668543D02*
D03*
X2476457Y385000D02*
D03*
X2533543D02*
D03*
X2833543Y305000D02*
D03*
X2776457D02*
D03*
X2833543Y385000D02*
D03*
X2776457D02*
D03*
X2833543Y945000D02*
D03*
X2776457D02*
D03*
X2833543Y1025000D02*
D03*
X2776457D02*
D03*
X2476457D02*
D03*
X2533543D02*
D03*
X968543Y1125000D02*
D03*
X911457D02*
D03*
X968543Y1205000D02*
D03*
X911457D02*
D03*
X611457D02*
D03*
X668543D02*
D03*
X2476457Y705000D02*
D03*
X2533543D02*
D03*
X2833543D02*
D03*
X2776457D02*
D03*
X2833543Y625000D02*
D03*
X2776457D02*
D03*
X611457Y495000D02*
D03*
X668543D02*
D03*
X968543Y415000D02*
D03*
X911457D02*
D03*
X968543Y495000D02*
D03*
X911457D02*
D03*
X611457Y1505000D02*
D03*
X668543D02*
D03*
X968543Y1425000D02*
D03*
X911457D02*
D03*
X968543Y1505000D02*
D03*
X911457D02*
D03*
X1856457Y1360000D02*
D03*
X1913543D02*
D03*
X2043543Y1040000D02*
D03*
X1986457D02*
D03*
X1271457Y680000D02*
D03*
X1328543D02*
D03*
X2401457Y1560000D02*
D03*
X2458543D02*
D03*
X2043543Y770000D02*
D03*
X1986457D02*
D03*
Y685000D02*
D03*
X2043543D02*
D03*
X1476457D02*
D03*
X1533543D02*
D03*
X1476457Y765000D02*
D03*
X1533543D02*
D03*
X2043543Y955000D02*
D03*
X1986457D02*
D03*
X1476457Y850000D02*
D03*
X1533543D02*
D03*
D14*
X1283228Y2085669D02*
D03*
X1308819D02*
D03*
X1334409D02*
D03*
X1360000D02*
D03*
X1385591D02*
D03*
X1411181D02*
D03*
X1436772D02*
D03*
Y1854331D02*
D03*
X1411181D02*
D03*
X1385591D02*
D03*
X1360000D02*
D03*
X1334409D02*
D03*
X1308819D02*
D03*
X1283228D02*
D03*
X1593228Y2085669D02*
D03*
X1618819D02*
D03*
X1644409D02*
D03*
X1670000D02*
D03*
X1695591D02*
D03*
X1721181D02*
D03*
X1746772D02*
D03*
Y1854331D02*
D03*
X1721181D02*
D03*
X1695591D02*
D03*
X1670000D02*
D03*
X1644409D02*
D03*
X1618819D02*
D03*
X1593228D02*
D03*
X1460433Y1735669D02*
D03*
X1486024D02*
D03*
X1511614D02*
D03*
X1537205D02*
D03*
X1562795D02*
D03*
X1588386D02*
D03*
X1613976D02*
D03*
X1639567D02*
D03*
Y1504331D02*
D03*
X1613976D02*
D03*
X1588386D02*
D03*
X1562795D02*
D03*
X1537205D02*
D03*
X1511614D02*
D03*
X1486024D02*
D03*
X1460433D02*
D03*
X1449567Y259331D02*
D03*
X1423976D02*
D03*
X1398386D02*
D03*
X1372795D02*
D03*
X1347205D02*
D03*
X1321614D02*
D03*
X1296024D02*
D03*
X1270433D02*
D03*
Y490669D02*
D03*
X1296024D02*
D03*
X1321614D02*
D03*
X1347205D02*
D03*
X1372795D02*
D03*
X1398386D02*
D03*
X1423976D02*
D03*
X1449567D02*
D03*
D15*
X1782008Y1325472D02*
D03*
Y1345158D02*
D03*
Y1364842D02*
D03*
Y1384528D02*
D03*
X1657992D02*
D03*
Y1364842D02*
D03*
Y1345158D02*
D03*
Y1325472D02*
D03*
X1522008D02*
D03*
Y1345158D02*
D03*
Y1364842D02*
D03*
Y1384528D02*
D03*
X1397992D02*
D03*
Y1364842D02*
D03*
Y1345158D02*
D03*
Y1325472D02*
D03*
D16*
X680591Y1675000D02*
D03*
X629409D02*
D03*
X2470590Y1920000D02*
D03*
X2419409D02*
D03*
X2470590Y1800000D02*
D03*
X2419409D02*
D03*
X2470590Y1680000D02*
D03*
X2419409D02*
D03*
X1874409Y1285000D02*
D03*
X1925591D02*
D03*
X1810591Y1225000D02*
D03*
X1759409D02*
D03*
D17*
X735866Y902402D02*
D03*
Y865000D02*
D03*
Y827598D02*
D03*
X844134D02*
D03*
Y902402D02*
D03*
X2600866Y712402D02*
D03*
Y675000D02*
D03*
Y637598D02*
D03*
X2709134D02*
D03*
Y712402D02*
D03*
X2600866Y392402D02*
D03*
Y355000D02*
D03*
Y317599D02*
D03*
X2709134D02*
D03*
Y392402D02*
D03*
X2600866Y1032402D02*
D03*
Y995000D02*
D03*
Y957598D02*
D03*
X2709134D02*
D03*
Y1032402D02*
D03*
X735866Y1212402D02*
D03*
Y1175000D02*
D03*
Y1137599D02*
D03*
X844134D02*
D03*
Y1212402D02*
D03*
X735866Y502402D02*
D03*
Y465000D02*
D03*
Y427599D02*
D03*
X844134D02*
D03*
Y502402D02*
D03*
X735866Y1512402D02*
D03*
Y1475000D02*
D03*
Y1437599D02*
D03*
X844134D02*
D03*
Y1512402D02*
D03*
D18*
X1856614Y1205000D02*
D03*
X1933386Y1230591D02*
D03*
Y1179409D02*
D03*
D19*
X1775000Y875000D02*
D03*
D20*
X1642126Y776575D02*
D03*
Y796260D02*
D03*
Y815945D02*
D03*
Y835630D02*
D03*
Y855315D02*
D03*
Y875000D02*
D03*
Y894685D02*
D03*
Y914370D02*
D03*
Y934055D02*
D03*
Y953740D02*
D03*
Y973425D02*
D03*
X1907874D02*
D03*
Y953740D02*
D03*
Y934055D02*
D03*
Y914370D02*
D03*
Y894685D02*
D03*
Y875000D02*
D03*
Y855315D02*
D03*
Y835630D02*
D03*
Y815945D02*
D03*
Y796260D02*
D03*
Y776575D02*
D03*
D21*
X1676575Y1007874D02*
D03*
X1696260D02*
D03*
X1715945D02*
D03*
X1735630D02*
D03*
X1755315D02*
D03*
X1775000D02*
D03*
X1794685D02*
D03*
X1814370D02*
D03*
X1834055D02*
D03*
X1853740D02*
D03*
X1873425D02*
D03*
Y742126D02*
D03*
X1853740D02*
D03*
X1834055D02*
D03*
X1814370D02*
D03*
X1794685D02*
D03*
X1775000D02*
D03*
X1755315D02*
D03*
X1735630D02*
D03*
X1715945D02*
D03*
X1696260D02*
D03*
X1676575D02*
D03*
D26*
X2415000Y3095000D02*
D03*
X2315000D02*
D03*
X2215000D02*
D03*
X2115000D02*
D03*
X2015000D02*
D03*
X1915000D02*
D03*
X1815000D02*
D03*
X1715000D02*
D03*
X1615000D02*
D03*
X1515000D02*
D03*
X1415000D02*
D03*
X1315000D02*
D03*
Y2495000D02*
D03*
X1415000D02*
D03*
X1515000D02*
D03*
X1615000D02*
D03*
X1715000D02*
D03*
X1815000D02*
D03*
X1915000D02*
D03*
X2015000D02*
D03*
X2115000D02*
D03*
X2215000D02*
D03*
X2315000D02*
D03*
X2515000Y3095000D02*
D03*
X2415000Y2495000D02*
D03*
X2515000D02*
D03*
X2615000Y3095000D02*
D03*
Y2495000D02*
D03*
X1215000Y3095000D02*
D03*
Y2495000D02*
D03*
X1115000Y3095000D02*
D03*
X1015000D02*
D03*
X915000D02*
D03*
X815000D02*
D03*
X715000D02*
D03*
X615000D02*
D03*
X515000D02*
D03*
X415000D02*
D03*
X315000D02*
D03*
Y2495000D02*
D03*
X415000D02*
D03*
X515000D02*
D03*
X615000D02*
D03*
X715000D02*
D03*
X815000D02*
D03*
X915000D02*
D03*
X1015000D02*
D03*
X1115000D02*
D03*
X815000Y2995000D02*
D03*
Y2795000D02*
D03*
Y2695000D02*
D03*
Y2895000D02*
D03*
Y2595000D02*
D03*
X2515000D02*
D03*
X2315000D02*
D03*
X2215000D02*
D03*
X2115000D02*
D03*
X2365000Y2970000D02*
D03*
X2265000D02*
D03*
X2165000D02*
D03*
X2065000D02*
D03*
X1965000D02*
D03*
D27*
X2555000Y1320000D02*
D03*
X1185000Y1680000D02*
D03*
X1860000D02*
D03*
X1230000Y1560000D02*
D03*
X1860000D02*
D03*
X545000Y1795000D02*
D03*
Y1915000D02*
D03*
Y1675000D02*
D03*
X2555000Y1680000D02*
D03*
Y1800000D02*
D03*
Y1440000D02*
D03*
X2415000Y805000D02*
D03*
X925000Y715000D02*
D03*
X1025000Y995000D02*
D03*
X2515000Y285000D02*
D03*
X2415000Y485000D02*
D03*
X2000000Y560000D02*
D03*
X2515000Y925000D02*
D03*
X2415000Y1125000D02*
D03*
X650000Y1105000D02*
D03*
X1550000Y975000D02*
D03*
X2555000Y1920000D02*
D03*
Y1560000D02*
D03*
X650000Y395000D02*
D03*
Y1405000D02*
D03*
X1900000Y340000D02*
D03*
X2515000Y605000D02*
D03*
D28*
X2655000Y1320000D02*
D03*
X445000Y1795000D02*
D03*
Y1915000D02*
D03*
Y1675000D02*
D03*
X2655000Y1680000D02*
D03*
Y1800000D02*
D03*
Y1440000D02*
D03*
X2515000Y805000D02*
D03*
X1025000Y715000D02*
D03*
X925000Y995000D02*
D03*
X2415000Y285000D02*
D03*
X2515000Y485000D02*
D03*
X2415000Y925000D02*
D03*
X2515000Y1125000D02*
D03*
X550000Y1105000D02*
D03*
X2655000Y1920000D02*
D03*
Y1560000D02*
D03*
X550000Y395000D02*
D03*
Y1405000D02*
D03*
X2000000Y340000D02*
D03*
X2415000Y605000D02*
D03*
D29*
X1185000Y1780000D02*
D03*
X1860000D02*
D03*
X1230000Y1460000D02*
D03*
X1860000D02*
D03*
X2000000Y460000D02*
D03*
X1550000Y1075000D02*
D03*
D30*
X3035000Y150000D02*
D03*
Y3160000D02*
D03*
X150000D02*
D03*
Y150000D02*
D03*
D31*
X925000Y1605000D02*
D03*
Y1305000D02*
D03*
Y595000D02*
D03*
X2010000Y855000D02*
D03*
X1705000Y1195000D02*
D03*
Y1095000D02*
D03*
D32*
X2015000Y1150000D02*
D03*
X2215000D02*
D03*
Y1350000D02*
D03*
X2015000D02*
D03*
D33*
X2115000Y1250000D02*
D03*
%TF.MD5,39ac71d565d7c6f1f8e78400f0af31e5*%
M02*
