%TF.GenerationSoftware,Altium Limited,Altium Designer,22.3.1 (43)*%
G04 Layer_Color=32768*
%FSLAX26Y26*%
%MOIN*%
%TF.SameCoordinates,25215B7F-5601-44EC-B639-707B6E2D0B24*%
%TF.FilePolarity,Positive*%
%TF.FileFunction,Other,Mechanical_15*%
%TF.Part,Single*%
G01*
G75*
%TA.AperFunction,NonConductor*%
%ADD84C,0.003937*%
%ADD87C,0.001968*%
D84*
X1101299Y2195000D02*
X1138701D01*
X1120000Y2176299D02*
Y2213701D01*
X1966299Y2300000D02*
X2003701D01*
X1985000Y2281299D02*
Y2318701D01*
X2195315Y2455000D02*
X2234685D01*
X2215000Y2435315D02*
Y2474685D01*
X865315Y2455000D02*
X904685D01*
X885000Y2435315D02*
Y2474685D01*
X1565000Y1266299D02*
Y1303701D01*
X1546299Y1285000D02*
X1583701D01*
X1691299Y1305000D02*
X1728701D01*
X1710000Y1286299D02*
Y1323701D01*
X1792284Y1330000D02*
X1827716D01*
X1810000Y1312284D02*
Y1347716D01*
X1891299Y1355000D02*
X1928701D01*
X1910000Y1336299D02*
Y1373701D01*
X1981299Y1955000D02*
X2018701D01*
X2000000Y1936299D02*
Y1973701D01*
X1331299Y1955000D02*
X1368701D01*
X1350000Y1936299D02*
Y1973701D01*
X1135000Y1435315D02*
Y1474685D01*
X1115315Y1455000D02*
X1154685D01*
X1115315Y1955000D02*
X1154685D01*
X1135000Y1935315D02*
Y1974685D01*
X2195315Y1955000D02*
X2234685D01*
X2215000Y1935315D02*
Y1974685D01*
X1375000Y1181299D02*
Y1218701D01*
X1356299Y1200000D02*
X1393701D01*
X1436299Y1285000D02*
X1473701D01*
X1455000Y1266299D02*
Y1303701D01*
X1650000Y1286299D02*
Y1323701D01*
X1631299Y1305000D02*
X1668701D01*
X1855000Y1927284D02*
Y1962716D01*
X1837284Y1945000D02*
X1872716D01*
X1495000Y1927284D02*
Y1962716D01*
X1477284Y1945000D02*
X1512716D01*
X2810315Y1590000D02*
X2849685D01*
X2830000Y1570315D02*
Y1609685D01*
X2810315Y1270000D02*
X2849685D01*
X2830000Y1250315D02*
Y1289685D01*
X2980000Y1202284D02*
Y1237716D01*
X2962284Y1220000D02*
X2997716D01*
X2980000Y1602284D02*
Y1637716D01*
X2962284Y1620000D02*
X2997716D01*
X2980000Y1522284D02*
Y1557716D01*
X2962284Y1540000D02*
X2997716D01*
X2980000Y1282284D02*
Y1317716D01*
X2962284Y1300000D02*
X2997716D01*
X2680000Y1282284D02*
Y1317716D01*
X2662284Y1300000D02*
X2697716D01*
X2680000Y1602284D02*
Y1637716D01*
X2662284Y1620000D02*
X2697716D01*
X2680000Y322284D02*
Y357716D01*
X2662284Y340000D02*
X2697716D01*
X2980000Y642284D02*
Y677716D01*
X2962284Y660000D02*
X2997716D01*
X2810315Y630000D02*
X2849685D01*
X2830000Y610315D02*
Y649685D01*
X2980000Y562284D02*
Y597716D01*
X2962284Y580000D02*
X2997716D01*
X2810315Y950000D02*
X2849685D01*
X2830000Y930315D02*
Y969685D01*
X2680000Y962284D02*
Y997716D01*
X2662284Y980000D02*
X2697716D01*
X2980000Y882284D02*
Y917716D01*
X2962284Y900000D02*
X2997716D01*
X2980000Y962284D02*
Y997716D01*
X2962284Y980000D02*
X2997716D01*
X2680000Y642284D02*
Y677716D01*
X2662284Y660000D02*
X2697716D01*
X2810315Y310000D02*
X2849685D01*
X2830000Y290315D02*
Y329685D01*
X2980000Y242284D02*
Y277716D01*
X2962284Y260000D02*
X2997716D01*
X2980000Y322284D02*
Y357716D01*
X2962284Y340000D02*
X2997716D01*
X1922284Y1615000D02*
X1957716D01*
X1940000Y1597284D02*
Y1632716D01*
X1377284Y1615000D02*
X1412716D01*
X1395000Y1597284D02*
Y1632716D01*
X635000Y1435315D02*
Y1474685D01*
X615315Y1455000D02*
X654685D01*
X635000Y1935315D02*
Y1974685D01*
X615315Y1955000D02*
X654685D01*
X2215000Y1435315D02*
Y1474685D01*
X2195315Y1455000D02*
X2234685D01*
X2650000Y1997284D02*
Y2032716D01*
X2632284Y2015000D02*
X2667716D01*
X2650000Y2237284D02*
Y2272716D01*
X2632284Y2255000D02*
X2667716D01*
X497284Y965000D02*
X532716D01*
X515000Y947284D02*
Y982716D01*
X1725000Y2542284D02*
Y2577716D01*
X1707284Y2560000D02*
X1742716D01*
X1415000Y2542284D02*
Y2577716D01*
X1397284Y2560000D02*
X1432716D01*
X1952284Y1175000D02*
X1987716D01*
X1970000Y1157284D02*
Y1192716D01*
X1142284Y920000D02*
X1177716D01*
X1160000Y902284D02*
Y937716D01*
X1142284Y835000D02*
X1177716D01*
X1160000Y817284D02*
Y852716D01*
X1837284Y1815000D02*
X1872716D01*
X1855000Y1797284D02*
Y1832716D01*
X1952284Y760000D02*
X1987716D01*
X1970000Y742284D02*
Y777716D01*
X1952284Y845000D02*
X1987716D01*
X1970000Y827284D02*
Y862716D01*
X1590000Y717284D02*
Y752716D01*
X1572284Y735000D02*
X1607716D01*
X1675000Y717284D02*
Y752716D01*
X1657284Y735000D02*
X1692716D01*
X1760000Y717284D02*
Y752716D01*
X1742284Y735000D02*
X1777716D01*
X1347284Y840000D02*
X1382716D01*
X1365000Y822284D02*
Y857716D01*
X1347284Y920000D02*
X1382716D01*
X1365000Y902284D02*
Y937716D01*
X1347284Y1005000D02*
X1382716D01*
X1365000Y987284D02*
Y1022716D01*
X1952284Y1090000D02*
X1987716D01*
X1970000Y1072284D02*
Y1107716D01*
X2080000Y1097284D02*
Y1132716D01*
X2062284Y1115000D02*
X2097716D01*
X1330000Y2272284D02*
Y2307716D01*
X1312284Y2290000D02*
X1347716D01*
X1330000Y2407284D02*
Y2442716D01*
X1312284Y2425000D02*
X1347716D01*
X1640000Y2272284D02*
Y2307716D01*
X1622284Y2290000D02*
X1657716D01*
X1640000Y2407284D02*
Y2442716D01*
X1622284Y2425000D02*
X1657716D01*
X1390000Y357284D02*
Y392716D01*
X1372284Y375000D02*
X1407716D01*
X1037284Y280000D02*
X1072716D01*
X1055000Y262284D02*
Y297716D01*
X1080000Y367284D02*
Y402716D01*
X1062284Y385000D02*
X1097716D01*
X2130000Y910315D02*
Y949685D01*
X2110315Y930000D02*
X2149685D01*
X2130000Y985315D02*
Y1024685D01*
X2110315Y1005000D02*
X2149685D01*
X2260000Y957284D02*
Y992716D01*
X2242284Y975000D02*
X2277716D01*
X665000Y915315D02*
Y954685D01*
X645315Y935000D02*
X684685D01*
X665000Y515315D02*
Y554685D01*
X645315Y535000D02*
X684685D01*
X797284Y485000D02*
X832716D01*
X815000Y467284D02*
Y502716D01*
X797284Y565000D02*
X832716D01*
X815000Y547284D02*
Y582716D01*
X797284Y885000D02*
X832716D01*
X815000Y867284D02*
Y902716D01*
X797284Y965000D02*
X832716D01*
X815000Y947284D02*
Y982716D01*
X497284Y565000D02*
X532716D01*
X515000Y547284D02*
Y582716D01*
X1650000Y1010315D02*
Y1049685D01*
X1630315Y1030000D02*
X1669685D01*
D87*
X1171181Y2165472D02*
Y2224528D01*
X1068819Y2165472D02*
Y2224528D01*
Y2165472D02*
X1171181D01*
X1068819Y2224528D02*
X1171181D01*
X1933819Y2270472D02*
Y2329528D01*
X2036181Y2270472D02*
Y2329528D01*
X1933819D02*
X2036181D01*
X1933819Y2270472D02*
X2036181D01*
X2069724Y2309724D02*
X2360276D01*
X2069724D02*
Y2600276D01*
X2360276D01*
Y2309724D02*
Y2600276D01*
X739724Y2309724D02*
X1030276D01*
X739724D02*
Y2600276D01*
X1030276D01*
Y2309724D02*
Y2600276D01*
X1513819Y1314527D02*
X1616181D01*
X1513819Y1255472D02*
X1616181D01*
X1513819D02*
Y1314527D01*
X1616181Y1255472D02*
Y1314527D01*
X1739527Y1253819D02*
Y1356181D01*
X1680472Y1253819D02*
Y1356181D01*
X1739527D01*
X1680472Y1253819D02*
X1739527D01*
X1743071Y1288661D02*
Y1371339D01*
X1876929Y1288661D02*
Y1371339D01*
X1743071D02*
X1876929D01*
X1743071Y1288661D02*
X1876929D01*
X1880473Y1303819D02*
Y1406181D01*
X1939528Y1303819D02*
Y1406181D01*
X1880473Y1303819D02*
X1939528D01*
X1880473Y1406181D02*
X1939528D01*
X2051181Y1925472D02*
Y1984527D01*
X1948819Y1925472D02*
Y1984527D01*
Y1925472D02*
X2051181D01*
X1948819Y1984527D02*
X2051181D01*
X1298819Y1925473D02*
Y1984528D01*
X1401181Y1925473D02*
Y1984528D01*
X1298819D02*
X1401181D01*
X1298819Y1925473D02*
X1401181D01*
X1280276Y1309724D02*
Y1600276D01*
X989724D02*
X1280276D01*
X989724Y1309724D02*
Y1600276D01*
Y1309724D02*
X1280276D01*
X989724Y1809724D02*
X1280276D01*
X989724D02*
Y2100276D01*
X1280276D01*
Y1809724D02*
Y2100276D01*
X2069724Y1809724D02*
X2360276D01*
X2069724D02*
Y2100276D01*
X2360276D01*
Y1809724D02*
Y2100276D01*
X1345472Y1148819D02*
X1404527D01*
X1345472Y1251181D02*
X1404527D01*
X1345472Y1148819D02*
Y1251181D01*
X1404527Y1148819D02*
Y1251181D01*
X1403819Y1255473D02*
Y1314528D01*
X1506181Y1255473D02*
Y1314528D01*
X1403819D02*
X1506181D01*
X1403819Y1255473D02*
X1506181D01*
X1620472Y1253819D02*
X1679527D01*
X1620472Y1356181D02*
X1679527D01*
X1620472Y1253819D02*
Y1356181D01*
X1679527Y1253819D02*
Y1356181D01*
X1564764Y1715472D02*
X1785236D01*
Y2024528D01*
X1564764D02*
X1785236D01*
X1564764Y1715472D02*
Y2024528D01*
X1788071Y1986339D02*
X1921929D01*
X1788071Y1903661D02*
X1921929D01*
X1788071D02*
Y1986339D01*
X1921929Y1903661D02*
Y1986339D01*
X1428071Y1903661D02*
X1561929D01*
X1428071Y1986339D02*
X1561929D01*
Y1903661D02*
Y1986339D01*
X1428071Y1903661D02*
Y1986339D01*
X2747323Y1519134D02*
Y1660866D01*
X2912677Y1519134D02*
Y1660866D01*
X2747323D02*
X2912677D01*
X2747323Y1519134D02*
X2912677D01*
X2747323Y1199134D02*
Y1340866D01*
X2912677Y1199134D02*
Y1340866D01*
X2747323D02*
X2912677D01*
X2747323Y1199134D02*
X2912677D01*
X2913071Y1178661D02*
X3046929D01*
X2913071Y1261339D02*
X3046929D01*
Y1178661D02*
Y1261339D01*
X2913071Y1178661D02*
Y1261339D01*
Y1578661D02*
X3046929D01*
X2913071Y1661339D02*
X3046929D01*
Y1578661D02*
Y1661339D01*
X2913071Y1578661D02*
Y1661339D01*
Y1498661D02*
X3046929D01*
X2913071Y1581339D02*
X3046929D01*
Y1498661D02*
Y1581339D01*
X2913071Y1498661D02*
Y1581339D01*
Y1258661D02*
X3046929D01*
X2913071Y1341339D02*
X3046929D01*
Y1258661D02*
Y1341339D01*
X2913071Y1258661D02*
Y1341339D01*
X2613071D02*
X2746929D01*
X2613071Y1258661D02*
X2746929D01*
X2613071D02*
Y1341339D01*
X2746929Y1258661D02*
Y1341339D01*
X2613071Y1661339D02*
X2746929D01*
X2613071Y1578661D02*
X2746929D01*
X2613071D02*
Y1661339D01*
X2746929Y1578661D02*
Y1661339D01*
X2613071Y381339D02*
X2746929D01*
X2613071Y298661D02*
X2746929D01*
X2613071D02*
Y381339D01*
X2746929Y298661D02*
Y381339D01*
X2913071Y618661D02*
X3046929D01*
X2913071Y701339D02*
X3046929D01*
Y618661D02*
Y701339D01*
X2913071Y618661D02*
Y701339D01*
X2747323Y559134D02*
Y700866D01*
X2912677Y559134D02*
Y700866D01*
X2747323D02*
X2912677D01*
X2747323Y559134D02*
X2912677D01*
X2913071Y538661D02*
X3046929D01*
X2913071Y621339D02*
X3046929D01*
Y538661D02*
Y621339D01*
X2913071Y538661D02*
Y621339D01*
X2747323Y879134D02*
Y1020866D01*
X2912677Y879134D02*
Y1020866D01*
X2747323D02*
X2912677D01*
X2747323Y879134D02*
X2912677D01*
X2613071Y1021339D02*
X2746929D01*
X2613071Y938661D02*
X2746929D01*
X2613071D02*
Y1021339D01*
X2746929Y938661D02*
Y1021339D01*
X2913071Y858661D02*
X3046929D01*
X2913071Y941339D02*
X3046929D01*
Y858661D02*
Y941339D01*
X2913071Y858661D02*
Y941339D01*
Y938661D02*
X3046929D01*
X2913071Y1021339D02*
X3046929D01*
Y938661D02*
Y1021339D01*
X2913071Y938661D02*
Y1021339D01*
X2613071Y701339D02*
X2746929D01*
X2613071Y618661D02*
X2746929D01*
X2613071D02*
Y701339D01*
X2746929Y618661D02*
Y701339D01*
X2747323Y239134D02*
Y380866D01*
X2912677Y239134D02*
Y380866D01*
X2747323D02*
X2912677D01*
X2747323Y239134D02*
X2912677D01*
X2913071Y218661D02*
X3046929D01*
X2913071Y301339D02*
X3046929D01*
Y218661D02*
Y301339D01*
X2913071Y218661D02*
Y301339D01*
Y298661D02*
X3046929D01*
X2913071Y381339D02*
X3046929D01*
Y298661D02*
Y381339D01*
X2913071Y298661D02*
Y381339D01*
X1981339Y1548071D02*
Y1681929D01*
X1898661Y1548071D02*
Y1681929D01*
X1981339D01*
X1898661Y1548071D02*
X1981339D01*
X1793819Y1511417D02*
Y1688583D01*
X1896181D01*
Y1511417D02*
Y1688583D01*
X1793819Y1511417D02*
X1896181D01*
X1436339Y1548071D02*
Y1681929D01*
X1353661Y1548071D02*
Y1681929D01*
X1436339D01*
X1353661Y1548071D02*
X1436339D01*
X1438819Y1511417D02*
Y1688583D01*
X1541181D01*
Y1511417D02*
Y1688583D01*
X1438819Y1511417D02*
X1541181D01*
X780276Y1309724D02*
Y1600276D01*
X489724D02*
X780276D01*
X489724Y1309724D02*
Y1600276D01*
Y1309724D02*
X780276D01*
Y1809724D02*
Y2100276D01*
X489724D02*
X780276D01*
X489724Y1809724D02*
Y2100276D01*
Y1809724D02*
X780276D01*
X2360276Y1309724D02*
Y1600276D01*
X2069724D02*
X2360276D01*
X2069724Y1309724D02*
Y1600276D01*
Y1309724D02*
X2360276D01*
X2583071Y1973661D02*
X2716929D01*
X2583071Y2056339D02*
X2716929D01*
Y1973661D02*
Y2056339D01*
X2583071Y1973661D02*
Y2056339D01*
Y2213661D02*
X2716929D01*
X2583071Y2296339D02*
X2716929D01*
Y2213661D02*
Y2296339D01*
X2583071Y2213661D02*
Y2296339D01*
X1374764Y2180472D02*
Y2489528D01*
X1595236D01*
Y2180472D02*
Y2489528D01*
X1374764Y2180472D02*
X1595236D01*
X581929Y923661D02*
Y1006339D01*
X448071Y923661D02*
Y1006339D01*
Y923661D02*
X581929D01*
X448071Y1006339D02*
X581929D01*
X1683661Y2493071D02*
X1766339D01*
X1683661Y2626929D02*
X1766339D01*
X1683661Y2493071D02*
Y2626929D01*
X1766339Y2493071D02*
Y2626929D01*
X1373661Y2493071D02*
X1456339D01*
X1373661Y2626929D02*
X1456339D01*
X1373661Y2493071D02*
Y2626929D01*
X1456339Y2493071D02*
Y2626929D01*
X2036929Y1133661D02*
Y1216339D01*
X1903071Y1133661D02*
Y1216339D01*
Y1133661D02*
X2036929D01*
X1903071Y1216339D02*
X2036929D01*
X1093071Y878661D02*
Y961339D01*
X1226929Y878661D02*
Y961339D01*
X1093071D02*
X1226929D01*
X1093071Y878661D02*
X1226929D01*
X1093071Y793661D02*
Y876339D01*
X1226929Y793661D02*
Y876339D01*
X1093071D02*
X1226929D01*
X1093071Y793661D02*
X1226929D01*
X1921929Y1773661D02*
Y1856339D01*
X1788071Y1773661D02*
Y1856339D01*
Y1773661D02*
X1921929D01*
X1788071Y1856339D02*
X1921929D01*
X1903071Y718661D02*
Y801339D01*
X2036929Y718661D02*
Y801339D01*
X1903071D02*
X2036929D01*
X1903071Y718661D02*
X2036929D01*
Y803661D02*
Y886339D01*
X1903071Y803661D02*
Y886339D01*
Y803661D02*
X2036929D01*
X1903071Y886339D02*
X2036929D01*
X1548661Y668071D02*
X1631339D01*
X1548661Y801929D02*
X1631339D01*
X1548661Y668071D02*
Y801929D01*
X1631339Y668071D02*
Y801929D01*
X1633661Y668071D02*
X1716339D01*
X1633661Y801929D02*
X1716339D01*
X1633661Y668071D02*
Y801929D01*
X1716339Y668071D02*
Y801929D01*
X1718661Y668071D02*
X1801339D01*
X1718661Y801929D02*
X1801339D01*
X1718661Y668071D02*
Y801929D01*
X1801339Y668071D02*
Y801929D01*
X1298071Y798661D02*
Y881339D01*
X1431929Y798661D02*
Y881339D01*
X1298071D02*
X1431929D01*
X1298071Y798661D02*
X1431929D01*
X1298071Y878661D02*
Y961339D01*
X1431929Y878661D02*
Y961339D01*
X1298071D02*
X1431929D01*
X1298071Y878661D02*
X1431929D01*
X1298071Y963661D02*
Y1046339D01*
X1431929Y963661D02*
Y1046339D01*
X1298071D02*
X1431929D01*
X1298071Y963661D02*
X1431929D01*
X2036929Y1048661D02*
Y1131339D01*
X1903071Y1048661D02*
Y1131339D01*
Y1048661D02*
X2036929D01*
X1903071Y1131339D02*
X2036929D01*
X2038661Y1181929D02*
X2121339D01*
X2038661Y1048071D02*
X2121339D01*
Y1181929D01*
X2038661Y1048071D02*
Y1181929D01*
X1288661Y2356929D02*
X1371339D01*
X1288661Y2223071D02*
X1371339D01*
Y2356929D01*
X1288661Y2223071D02*
Y2356929D01*
Y2358071D02*
X1371339D01*
X1288661Y2491929D02*
X1371339D01*
X1288661Y2358071D02*
Y2491929D01*
X1371339Y2358071D02*
Y2491929D01*
X1598661Y2356929D02*
X1681339D01*
X1598661Y2223071D02*
X1681339D01*
Y2356929D01*
X1598661Y2223071D02*
Y2356929D01*
X1684764Y2180472D02*
Y2489528D01*
X1905236D01*
Y2180472D02*
Y2489528D01*
X1684764Y2180472D02*
X1905236D01*
X1598661Y2358071D02*
X1681339D01*
X1598661Y2491929D02*
X1681339D01*
X1598661Y2358071D02*
Y2491929D01*
X1681339Y2358071D02*
Y2491929D01*
X1345236Y225472D02*
Y534528D01*
X1124764Y225472D02*
X1345236D01*
X1124764D02*
Y534528D01*
X1345236D01*
X1348661Y441929D02*
X1431339D01*
X1348661Y308071D02*
X1431339D01*
Y441929D01*
X1348661Y308071D02*
Y441929D01*
X988071Y238661D02*
Y321339D01*
X1121929Y238661D02*
Y321339D01*
X988071D02*
X1121929D01*
X988071Y238661D02*
X1121929D01*
X1038661Y451929D02*
X1121339D01*
X1038661Y318071D02*
X1121339D01*
Y451929D01*
X1038661Y318071D02*
Y451929D01*
X2043780Y965433D02*
X2216220D01*
Y894567D02*
Y965433D01*
X2043780Y894567D02*
Y965433D01*
Y894567D02*
X2216220D01*
X2043780Y969567D02*
X2216220D01*
X2043780D02*
Y1040433D01*
X2216220Y969567D02*
Y1040433D01*
X2043780D02*
X2216220D01*
X2218661Y1041929D02*
X2301339D01*
X2218661Y908071D02*
X2301339D01*
Y1041929D01*
X2218661Y908071D02*
Y1041929D01*
X582323Y864134D02*
X747677D01*
X582323Y1005866D02*
X747677D01*
Y864134D02*
Y1005866D01*
X582323Y864134D02*
Y1005866D01*
Y464134D02*
X747677D01*
X582323Y605866D02*
X747677D01*
Y464134D02*
Y605866D01*
X582323Y464134D02*
Y605866D01*
X748071Y443661D02*
Y526339D01*
X881929Y443661D02*
Y526339D01*
X748071D02*
X881929D01*
X748071Y443661D02*
X881929D01*
X748071Y523661D02*
Y606339D01*
X881929Y523661D02*
Y606339D01*
X748071D02*
X881929D01*
X748071Y523661D02*
X881929D01*
X748071Y843661D02*
Y926339D01*
X881929Y843661D02*
Y926339D01*
X748071D02*
X881929D01*
X748071Y843661D02*
X881929D01*
X748071Y923661D02*
Y1006339D01*
X881929Y923661D02*
Y1006339D01*
X748071D02*
X881929D01*
X748071Y923661D02*
X881929D01*
X581929Y523661D02*
Y606339D01*
X448071Y523661D02*
Y606339D01*
Y523661D02*
X581929D01*
X448071Y606339D02*
X581929D01*
X1489567Y869567D02*
X1810433D01*
X1489567Y1190433D02*
X1810433D01*
X1489567Y869567D02*
Y1190433D01*
X1810433Y869567D02*
Y1190433D01*
%TF.MD5,9b13f62af0389ebb244dfe2468c45fed*%
M02*
