%TF.GenerationSoftware,Altium Limited,Altium Designer,21.7.1 (17)*%
G04 Layer_Color=32768*
%FSLAX26Y26*%
%MOIN*%
%TF.SameCoordinates,27FB9546-20EE-4E74-96E1-B46C9306E405*%
%TF.FilePolarity,Positive*%
%TF.FileFunction,Other,Mechanical_15*%
%TF.Part,Single*%
G01*
G75*
%TA.AperFunction,NonConductor*%
%ADD65C,0.003937*%
%ADD68C,0.001968*%
D65*
X1896299Y1090000D02*
X1933701D01*
X1915000Y1071299D02*
Y1108701D01*
X2287284Y840000D02*
X2322716D01*
X2305000Y822284D02*
Y857716D01*
X2155315Y795000D02*
X2194685D01*
X2175000Y775315D02*
Y814685D01*
X2155315Y870000D02*
X2194685D01*
X2175000Y850315D02*
Y889685D01*
X2430000Y1302284D02*
Y1337716D01*
X2412284Y1320000D02*
X2447716D01*
X1272284Y2195000D02*
X1307716D01*
X1290000Y2177284D02*
Y2212716D01*
X1187284Y1925000D02*
X1222716D01*
X1205000Y1907284D02*
Y1942716D01*
X1187284Y2060000D02*
X1222716D01*
X1205000Y2042284D02*
Y2077716D01*
X1582284Y2195000D02*
X1617716D01*
X1600000Y2177284D02*
Y2212716D01*
X1497284Y1925000D02*
X1532716D01*
X1515000Y1907284D02*
Y1942716D01*
X1497284Y2060000D02*
X1532716D01*
X1515000Y2042284D02*
Y2077716D01*
X1572284Y1370000D02*
X1607716D01*
X1590000Y1352284D02*
Y1387716D01*
X1370000Y1622284D02*
Y1657716D01*
X1352284Y1640000D02*
X1387716D01*
X1730000Y1492284D02*
Y1527716D01*
X1712284Y1510000D02*
X1747716D01*
X1730000Y1622284D02*
Y1657716D01*
X1712284Y1640000D02*
X1747716D01*
X1312284Y1370000D02*
X1347716D01*
X1330000Y1352284D02*
Y1387716D01*
X636299Y1675000D02*
X673701D01*
X655000Y1656299D02*
Y1693701D01*
X1497284Y370000D02*
X1532716D01*
X1515000Y352284D02*
Y387716D01*
X1340000Y57283D02*
Y92716D01*
X1322284Y75000D02*
X1357716D01*
X1340000Y142284D02*
Y177716D01*
X1322284Y160000D02*
X1357716D01*
X2445000Y1901299D02*
Y1938701D01*
X2426299Y1920000D02*
X2463701D01*
X2445000Y1781299D02*
Y1818701D01*
X2426299Y1800000D02*
X2463701D01*
X2445000Y1661299D02*
Y1698701D01*
X2426299Y1680000D02*
X2463701D01*
X1300315Y900000D02*
X1339685D01*
X1320000Y880315D02*
Y919685D01*
X1300315Y975000D02*
X1339685D01*
X1320000Y955315D02*
Y994685D01*
X1172284Y940000D02*
X1207716D01*
X1190000Y922284D02*
Y957716D01*
X1300000Y747284D02*
Y782716D01*
X1282284Y765000D02*
X1317716D01*
X770315Y865000D02*
X809685D01*
X790000Y845315D02*
Y884685D01*
X2635315Y675000D02*
X2674685D01*
X2655000Y655315D02*
Y694685D01*
X940000Y797284D02*
Y832716D01*
X922284Y815000D02*
X957716D01*
X940000Y877284D02*
Y912716D01*
X922284Y895000D02*
X957716D01*
X640000Y877284D02*
Y912716D01*
X622284Y895000D02*
X657716D01*
X2505000Y367284D02*
Y402716D01*
X2487284Y385000D02*
X2522716D01*
X2635315Y355000D02*
X2674685D01*
X2655000Y335315D02*
Y374685D01*
X2805000Y287284D02*
Y322716D01*
X2787284Y305000D02*
X2822716D01*
X2805000Y367284D02*
Y402716D01*
X2787284Y385000D02*
X2822716D01*
X2635315Y995000D02*
X2674685D01*
X2655000Y975315D02*
Y1014685D01*
X2805000Y927284D02*
Y962716D01*
X2787284Y945000D02*
X2822716D01*
X2805000Y1007284D02*
Y1042716D01*
X2787284Y1025000D02*
X2822716D01*
X2505000Y1007284D02*
Y1042716D01*
X2487284Y1025000D02*
X2522716D01*
X770315Y1175000D02*
X809685D01*
X790000Y1155315D02*
Y1194685D01*
X940000Y1107284D02*
Y1142716D01*
X922284Y1125000D02*
X957716D01*
X940000Y1187284D02*
Y1222716D01*
X922284Y1205000D02*
X957716D01*
X640000Y1187284D02*
Y1222716D01*
X622284Y1205000D02*
X657716D01*
X2505000Y687284D02*
Y722716D01*
X2487284Y705000D02*
X2522716D01*
X2805000Y687284D02*
Y722716D01*
X2787284Y705000D02*
X2822716D01*
X2805000Y607284D02*
Y642716D01*
X2787284Y625000D02*
X2822716D01*
X640000Y477284D02*
Y512716D01*
X622284Y495000D02*
X657716D01*
X940000Y397284D02*
Y432716D01*
X922284Y415000D02*
X957716D01*
X940000Y477284D02*
Y512716D01*
X922284Y495000D02*
X957716D01*
X770315Y465000D02*
X809685D01*
X790000Y445315D02*
Y484685D01*
X640000Y1487284D02*
Y1522716D01*
X622284Y1505000D02*
X657716D01*
X940000Y1407284D02*
Y1442716D01*
X922284Y1425000D02*
X957716D01*
X940000Y1487284D02*
Y1522716D01*
X922284Y1505000D02*
X957716D01*
X770315Y1475000D02*
X809685D01*
X790000Y1455315D02*
Y1494685D01*
X2095315Y1250000D02*
X2134685D01*
X2115000Y1230315D02*
Y1269685D01*
X1881299Y1285000D02*
X1918701D01*
X1900000Y1266299D02*
Y1303701D01*
X1867284Y1360000D02*
X1902716D01*
X1885000Y1342284D02*
Y1377716D01*
X1190000Y1107284D02*
Y1142716D01*
X1172284Y1125000D02*
X1207716D01*
X1320000Y1140315D02*
Y1179685D01*
X1300315Y1160000D02*
X1339685D01*
X1320000Y1065315D02*
Y1104685D01*
X1300315Y1085000D02*
X1339685D01*
X1450000Y1197284D02*
Y1232716D01*
X1432284Y1215000D02*
X1467716D01*
X1580000Y1155315D02*
Y1194685D01*
X1560315Y1175000D02*
X1599685D01*
X1580000Y1230315D02*
Y1269685D01*
X1560315Y1250000D02*
X1599685D01*
X1895000Y1185315D02*
Y1224685D01*
X1875315Y1205000D02*
X1914685D01*
X1766299Y1225000D02*
X1803701D01*
X1785000Y1206299D02*
Y1243701D01*
X1795000Y1107284D02*
Y1142716D01*
X1777284Y1125000D02*
X1812716D01*
X1997284Y1040000D02*
X2032716D01*
X2015000Y1022284D02*
Y1057716D01*
X1282284Y680000D02*
X1317716D01*
X1300000Y662284D02*
Y697716D01*
X2412284Y1560000D02*
X2447716D01*
X2430000Y1542284D02*
Y1577716D01*
X1885000Y612284D02*
Y647716D01*
X1867284Y630000D02*
X1902716D01*
X1997284Y770000D02*
X2032716D01*
X2015000Y752284D02*
Y787716D01*
X1800000Y612284D02*
Y647716D01*
X1782284Y630000D02*
X1817716D01*
X1715000Y612284D02*
Y647716D01*
X1697284Y630000D02*
X1732716D01*
X1997284Y685000D02*
X2032716D01*
X2015000Y667284D02*
Y702716D01*
X1487284Y685000D02*
X1522716D01*
X1505000Y667284D02*
Y702716D01*
X1487284Y765000D02*
X1522716D01*
X1505000Y747284D02*
Y782716D01*
X2125000Y962284D02*
Y997716D01*
X2107284Y980000D02*
X2142716D01*
X1997284Y955000D02*
X2032716D01*
X2015000Y937284D02*
Y972716D01*
X1487284Y850000D02*
X1522716D01*
X1505000Y832284D02*
Y867716D01*
X1755315Y875000D02*
X1794685D01*
X1775000Y855315D02*
Y894685D01*
D68*
X1944527Y1038819D02*
Y1141181D01*
X1885472Y1038819D02*
Y1141181D01*
X1944527D01*
X1885472Y1038819D02*
X1944527D01*
X2263661Y773071D02*
Y906929D01*
X2346339Y773071D02*
Y906929D01*
X2263661Y773071D02*
X2346339D01*
X2263661Y906929D02*
X2346339D01*
X2088780Y759567D02*
X2261220D01*
X2088780D02*
Y830433D01*
X2261220Y759567D02*
Y830433D01*
X2088780D02*
X2261220D01*
X2088780Y905433D02*
X2261220D01*
Y834567D02*
Y905433D01*
X2088780Y834567D02*
Y905433D01*
Y834567D02*
X2261220D01*
X2363071Y1278661D02*
X2496929D01*
X2363071Y1361339D02*
X2496929D01*
Y1278661D02*
Y1361339D01*
X2363071Y1278661D02*
Y1361339D01*
X1249764Y1815472D02*
X1470236D01*
Y2124528D01*
X1249764D02*
X1470236D01*
X1249764Y1815472D02*
Y2124528D01*
X1559764Y1815472D02*
X1780236D01*
Y2124528D01*
X1559764D02*
X1780236D01*
X1559764Y1815472D02*
Y2124528D01*
X1631417Y1303819D02*
X1808583D01*
X1631417D02*
Y1406181D01*
X1808583D01*
Y1303819D02*
Y1406181D01*
X1439764Y1465472D02*
X1660236D01*
Y1774528D01*
X1439764D02*
X1660236D01*
X1439764Y1465472D02*
Y1774528D01*
X1371417Y1303819D02*
X1548583D01*
X1371417D02*
Y1406181D01*
X1548583D01*
Y1303819D02*
Y1406181D01*
X1331339Y2128071D02*
Y2261929D01*
X1248661Y2128071D02*
Y2261929D01*
X1331339D01*
X1248661Y2128071D02*
X1331339D01*
X1163661Y1858071D02*
Y1991929D01*
X1246339Y1858071D02*
Y1991929D01*
X1163661Y1858071D02*
X1246339D01*
X1163661Y1991929D02*
X1246339D01*
Y1993071D02*
Y2126929D01*
X1163661Y1993071D02*
Y2126929D01*
X1246339D01*
X1163661Y1993071D02*
X1246339D01*
X1641339Y2128071D02*
Y2261929D01*
X1558661Y2128071D02*
Y2261929D01*
X1641339D01*
X1558661Y2128071D02*
X1641339D01*
X1473661Y1858071D02*
Y1991929D01*
X1556339Y1858071D02*
Y1991929D01*
X1473661Y1858071D02*
X1556339D01*
X1473661Y1991929D02*
X1556339D01*
Y1993071D02*
Y2126929D01*
X1473661Y1993071D02*
Y2126929D01*
X1556339D01*
X1473661Y1993071D02*
X1556339D01*
X1548661Y1303071D02*
Y1436929D01*
X1631339Y1303071D02*
Y1436929D01*
X1548661Y1303071D02*
X1631339D01*
X1548661Y1436929D02*
X1631339D01*
X1303071Y1598661D02*
X1436929D01*
X1303071Y1681339D02*
X1436929D01*
Y1598661D02*
Y1681339D01*
X1303071Y1598661D02*
Y1681339D01*
X1663071Y1551339D02*
X1796929D01*
X1663071Y1468661D02*
X1796929D01*
X1663071D02*
Y1551339D01*
X1796929Y1468661D02*
Y1551339D01*
X1663071Y1681339D02*
X1796929D01*
X1663071Y1598661D02*
X1796929D01*
X1663071D02*
Y1681339D01*
X1796929Y1598661D02*
Y1681339D01*
X1288661Y1303071D02*
Y1436929D01*
X1371339Y1303071D02*
Y1436929D01*
X1288661Y1303071D02*
X1371339D01*
X1288661Y1436929D02*
X1371339D01*
X706181Y1645472D02*
Y1704527D01*
X603819Y1645472D02*
Y1704527D01*
Y1645472D02*
X706181D01*
X603819Y1704527D02*
X706181D01*
X1473661Y303071D02*
Y436929D01*
X1556339Y303071D02*
Y436929D01*
X1473661Y303071D02*
X1556339D01*
X1473661Y436929D02*
X1556339D01*
X1273071Y33661D02*
X1406929D01*
X1273071Y116339D02*
X1406929D01*
Y33661D02*
Y116339D01*
X1273071Y33661D02*
Y116339D01*
Y118661D02*
X1406929D01*
X1273071Y201339D02*
X1406929D01*
Y118661D02*
Y201339D01*
X1273071Y118661D02*
Y201339D01*
X2393819Y1890473D02*
X2496181D01*
X2393819Y1949528D02*
X2496181D01*
Y1890473D02*
Y1949528D01*
X2393819Y1890473D02*
Y1949528D01*
Y1770473D02*
X2496181D01*
X2393819Y1829528D02*
X2496181D01*
Y1770473D02*
Y1829528D01*
X2393819Y1770473D02*
Y1829528D01*
Y1650473D02*
X2496181D01*
X2393819Y1709528D02*
X2496181D01*
Y1650473D02*
Y1709528D01*
X2393819Y1650473D02*
Y1709528D01*
X1249764Y529528D02*
X1470236D01*
X1249764Y220472D02*
Y529528D01*
Y220472D02*
X1470236D01*
Y529528D01*
X1233780Y864567D02*
X1406220D01*
X1233780D02*
Y935433D01*
X1406220Y864567D02*
Y935433D01*
X1233780D02*
X1406220D01*
X1233780Y1010433D02*
X1406220D01*
Y939567D02*
Y1010433D01*
X1233780Y939567D02*
Y1010433D01*
Y939567D02*
X1406220D01*
X1231339Y873071D02*
Y1006929D01*
X1148661Y873071D02*
Y1006929D01*
X1231339D01*
X1148661Y873071D02*
X1231339D01*
X1233071Y723661D02*
X1366929D01*
X1233071Y806339D02*
X1366929D01*
Y723661D02*
Y806339D01*
X1233071Y723661D02*
Y806339D01*
X707323Y794134D02*
Y935866D01*
X872677Y794134D02*
Y935866D01*
X707323D02*
X872677D01*
X707323Y794134D02*
X872677D01*
X2572323Y604134D02*
Y745866D01*
X2737677Y604134D02*
Y745866D01*
X2572323D02*
X2737677D01*
X2572323Y604134D02*
X2737677D01*
X873071Y773661D02*
X1006929D01*
X873071Y856339D02*
X1006929D01*
Y773661D02*
Y856339D01*
X873071Y773661D02*
Y856339D01*
Y853661D02*
X1006929D01*
X873071Y936339D02*
X1006929D01*
Y853661D02*
Y936339D01*
X873071Y853661D02*
Y936339D01*
X573071D02*
X706929D01*
X573071Y853661D02*
X706929D01*
X573071D02*
Y936339D01*
X706929Y853661D02*
Y936339D01*
X2438071Y426339D02*
X2571929D01*
X2438071Y343661D02*
X2571929D01*
X2438071D02*
Y426339D01*
X2571929Y343661D02*
Y426339D01*
X2572323Y284134D02*
Y425866D01*
X2737677Y284134D02*
Y425866D01*
X2572323D02*
X2737677D01*
X2572323Y284134D02*
X2737677D01*
X2738071Y263661D02*
X2871929D01*
X2738071Y346339D02*
X2871929D01*
Y263661D02*
Y346339D01*
X2738071Y263661D02*
Y346339D01*
Y343661D02*
X2871929D01*
X2738071Y426339D02*
X2871929D01*
Y343661D02*
Y426339D01*
X2738071Y343661D02*
Y426339D01*
X2572323Y924134D02*
Y1065866D01*
X2737677Y924134D02*
Y1065866D01*
X2572323D02*
X2737677D01*
X2572323Y924134D02*
X2737677D01*
X2738071Y903661D02*
X2871929D01*
X2738071Y986339D02*
X2871929D01*
Y903661D02*
Y986339D01*
X2738071Y903661D02*
Y986339D01*
Y983661D02*
X2871929D01*
X2738071Y1066339D02*
X2871929D01*
Y983661D02*
Y1066339D01*
X2738071Y983661D02*
Y1066339D01*
X2438071D02*
X2571929D01*
X2438071Y983661D02*
X2571929D01*
X2438071D02*
Y1066339D01*
X2571929Y983661D02*
Y1066339D01*
X707323Y1104134D02*
Y1245866D01*
X872677Y1104134D02*
Y1245866D01*
X707323D02*
X872677D01*
X707323Y1104134D02*
X872677D01*
X873071Y1083661D02*
X1006929D01*
X873071Y1166339D02*
X1006929D01*
Y1083661D02*
Y1166339D01*
X873071Y1083661D02*
Y1166339D01*
Y1163661D02*
X1006929D01*
X873071Y1246339D02*
X1006929D01*
Y1163661D02*
Y1246339D01*
X873071Y1163661D02*
Y1246339D01*
X573071D02*
X706929D01*
X573071Y1163661D02*
X706929D01*
X573071D02*
Y1246339D01*
X706929Y1163661D02*
Y1246339D01*
X2438071Y746339D02*
X2571929D01*
X2438071Y663661D02*
X2571929D01*
X2438071D02*
Y746339D01*
X2571929Y663661D02*
Y746339D01*
X2738071Y663661D02*
X2871929D01*
X2738071Y746339D02*
X2871929D01*
Y663661D02*
Y746339D01*
X2738071Y663661D02*
Y746339D01*
Y583661D02*
X2871929D01*
X2738071Y666339D02*
X2871929D01*
Y583661D02*
Y666339D01*
X2738071Y583661D02*
Y666339D01*
X573071Y536339D02*
X706929D01*
X573071Y453661D02*
X706929D01*
X573071D02*
Y536339D01*
X706929Y453661D02*
Y536339D01*
X873071Y373661D02*
X1006929D01*
X873071Y456339D02*
X1006929D01*
Y373661D02*
Y456339D01*
X873071Y373661D02*
Y456339D01*
Y453661D02*
X1006929D01*
X873071Y536339D02*
X1006929D01*
Y453661D02*
Y536339D01*
X873071Y453661D02*
Y536339D01*
X707323Y394134D02*
Y535866D01*
X872677Y394134D02*
Y535866D01*
X707323D02*
X872677D01*
X707323Y394134D02*
X872677D01*
X573071Y1546339D02*
X706929D01*
X573071Y1463661D02*
X706929D01*
X573071D02*
Y1546339D01*
X706929Y1463661D02*
Y1546339D01*
X873071Y1383661D02*
X1006929D01*
X873071Y1466339D02*
X1006929D01*
Y1383661D02*
Y1466339D01*
X873071Y1383661D02*
Y1466339D01*
Y1463661D02*
X1006929D01*
X873071Y1546339D02*
X1006929D01*
Y1463661D02*
Y1546339D01*
X873071Y1463661D02*
Y1546339D01*
X707323Y1404134D02*
Y1545866D01*
X872677Y1404134D02*
Y1545866D01*
X707323D02*
X872677D01*
X707323Y1404134D02*
X872677D01*
X1969724Y1104724D02*
X2260276D01*
X1969724D02*
Y1395276D01*
X2260276D01*
Y1104724D02*
Y1395276D01*
X1848819Y1255473D02*
Y1314528D01*
X1951181Y1255473D02*
Y1314528D01*
X1848819D02*
X1951181D01*
X1848819Y1255473D02*
X1951181D01*
X1818071Y1318661D02*
Y1401339D01*
X1951929Y1318661D02*
Y1401339D01*
X1818071D02*
X1951929D01*
X1818071Y1318661D02*
X1951929D01*
X1148661Y1058071D02*
X1231339D01*
X1148661Y1191929D02*
X1231339D01*
X1148661Y1058071D02*
Y1191929D01*
X1231339Y1058071D02*
Y1191929D01*
X1233780Y1124567D02*
X1406220D01*
X1233780D02*
Y1195433D01*
X1406220Y1124567D02*
Y1195433D01*
X1233780D02*
X1406220D01*
X1233780Y1120433D02*
X1406220D01*
Y1049567D02*
Y1120433D01*
X1233780Y1049567D02*
Y1120433D01*
Y1049567D02*
X1406220D01*
X1408661Y1148071D02*
X1491339D01*
X1408661Y1281929D02*
X1491339D01*
X1408661Y1148071D02*
Y1281929D01*
X1491339Y1148071D02*
Y1281929D01*
X1493780Y1210433D02*
X1666220D01*
Y1139567D02*
Y1210433D01*
X1493780Y1139567D02*
Y1210433D01*
Y1139567D02*
X1666220D01*
X1493780Y1214567D02*
X1666220D01*
X1493780D02*
Y1285433D01*
X1666220Y1214567D02*
Y1285433D01*
X1493780D02*
X1666220D01*
X1839882Y1252244D02*
X1950118D01*
X1839882Y1157756D02*
X1950118D01*
X1839882D02*
Y1252244D01*
X1950118Y1157756D02*
Y1252244D01*
X1836181Y1195472D02*
Y1254527D01*
X1733819Y1195472D02*
Y1254527D01*
Y1195472D02*
X1836181D01*
X1733819Y1254527D02*
X1836181D01*
X1753661Y1058071D02*
X1836339D01*
X1753661Y1191929D02*
X1836339D01*
X1753661Y1058071D02*
Y1191929D01*
X1836339Y1058071D02*
Y1191929D01*
X2081929Y998661D02*
Y1081339D01*
X1948071Y998661D02*
Y1081339D01*
Y998661D02*
X2081929D01*
X1948071Y1081339D02*
X2081929D01*
X1233071Y638661D02*
Y721339D01*
X1366929Y638661D02*
Y721339D01*
X1233071D02*
X1366929D01*
X1233071Y638661D02*
X1366929D01*
X2363071Y1518661D02*
Y1601339D01*
X2496929Y1518661D02*
Y1601339D01*
X2363071D02*
X2496929D01*
X2363071Y1518661D02*
X2496929D01*
X1843661Y563071D02*
X1926339D01*
X1843661Y696929D02*
X1926339D01*
X1843661Y563071D02*
Y696929D01*
X1926339Y563071D02*
Y696929D01*
X2081929Y728661D02*
Y811339D01*
X1948071Y728661D02*
Y811339D01*
Y728661D02*
X2081929D01*
X1948071Y811339D02*
X2081929D01*
X1758661Y563071D02*
X1841339D01*
X1758661Y696929D02*
X1841339D01*
X1758661Y563071D02*
Y696929D01*
X1841339Y563071D02*
Y696929D01*
X1673661Y563071D02*
X1756339D01*
X1673661Y696929D02*
X1756339D01*
X1673661Y563071D02*
Y696929D01*
X1756339Y563071D02*
Y696929D01*
X1948071Y643661D02*
Y726339D01*
X2081929Y643661D02*
Y726339D01*
X1948071D02*
X2081929D01*
X1948071Y643661D02*
X2081929D01*
X1438071D02*
Y726339D01*
X1571929Y643661D02*
Y726339D01*
X1438071D02*
X1571929D01*
X1438071Y643661D02*
X1571929D01*
X1438071Y723661D02*
Y806339D01*
X1571929Y723661D02*
Y806339D01*
X1438071D02*
X1571929D01*
X1438071Y723661D02*
X1571929D01*
X2083661Y1046929D02*
X2166339D01*
X2083661Y913071D02*
X2166339D01*
Y1046929D01*
X2083661Y913071D02*
Y1046929D01*
X2081929Y913661D02*
Y996339D01*
X1948071Y913661D02*
Y996339D01*
Y913661D02*
X2081929D01*
X1948071Y996339D02*
X2081929D01*
X1438071Y808661D02*
Y891339D01*
X1571929Y808661D02*
Y891339D01*
X1438071D02*
X1571929D01*
X1438071Y808661D02*
X1571929D01*
X1935433Y714567D02*
Y1035433D01*
X1614567Y714567D02*
Y1035433D01*
X1935433D01*
X1614567Y714567D02*
X1935433D01*
%TF.MD5,6a81fac0480115a0826272ada9b46b55*%
M02*
