%TF.GenerationSoftware,Altium Limited,Altium Designer,21.7.1 (17)*%
G04 Layer_Color=8388736*
%FSLAX26Y26*%
%MOIN*%
%TF.SameCoordinates,27FB9546-20EE-4E74-96E1-B46C9306E405*%
%TF.FilePolarity,Negative*%
%TF.FileFunction,Soldermask,Top*%
%TF.Part,Single*%
G01*
G75*
%TA.AperFunction,ComponentPad*%
%ADD37C,0.062409*%
%ADD38C,0.063465*%
%ADD39R,0.063465X0.063465*%
%ADD40R,0.063465X0.063465*%
%TA.AperFunction,ViaPad*%
%ADD41C,0.204409*%
%ADD42C,0.063465*%
%TA.AperFunction,ComponentPad*%
%ADD43C,0.087087*%
%ADD44C,0.083150*%
%TA.AperFunction,ViaPad*%
%ADD45C,0.069409*%
%ADD46C,0.029409*%
%ADD47C,0.038409*%
%TA.AperFunction,SMDPad,CuDef*%
%ADD53R,0.041811X0.035906*%
%ADD54R,0.045748X0.041811*%
%ADD55R,0.040236X0.052441*%
%ADD56R,0.041811X0.045748*%
%ADD57R,0.022126X0.062480*%
%ADD58R,0.037874X0.016220*%
%ADD59R,0.035906X0.041811*%
G04:AMPARAMS|DCode=60|XSize=28.031mil|YSize=43.779mil|CornerRadius=4.213mil|HoleSize=0mil|Usage=FLASHONLY|Rotation=90.000|XOffset=0mil|YOffset=0mil|HoleType=Round|Shape=RoundedRectangle|*
%AMROUNDEDRECTD60*
21,1,0.028031,0.035354,0,0,90.0*
21,1,0.019606,0.043779,0,0,90.0*
1,1,0.008425,0.017677,0.009803*
1,1,0.008425,0.017677,-0.009803*
1,1,0.008425,-0.017677,-0.009803*
1,1,0.008425,-0.017677,0.009803*
%
%ADD60ROUNDEDRECTD60*%
%ADD61R,0.030000X0.024094*%
%ADD62R,0.161890X0.161890*%
%ADD63O,0.039843X0.012283*%
%ADD64O,0.012283X0.039843*%
D37*
X2415000Y3095000D02*
D03*
X2315000D02*
D03*
X2215000D02*
D03*
X2115000D02*
D03*
X2015000D02*
D03*
X1915000D02*
D03*
X1815000D02*
D03*
X1715000D02*
D03*
X1615000D02*
D03*
X1515000D02*
D03*
X1415000D02*
D03*
X1315000D02*
D03*
Y2495000D02*
D03*
X1415000D02*
D03*
X1515000D02*
D03*
X1615000D02*
D03*
X1715000D02*
D03*
X1815000D02*
D03*
X1915000D02*
D03*
X2015000D02*
D03*
X2115000D02*
D03*
X2215000D02*
D03*
X2315000D02*
D03*
X2515000Y3095000D02*
D03*
X2415000Y2495000D02*
D03*
X2515000D02*
D03*
X2615000Y3095000D02*
D03*
Y2495000D02*
D03*
X1215000Y3095000D02*
D03*
Y2495000D02*
D03*
X1115000Y3095000D02*
D03*
X1015000D02*
D03*
X915000D02*
D03*
X815000D02*
D03*
X715000D02*
D03*
X615000D02*
D03*
X515000D02*
D03*
X415000D02*
D03*
X315000D02*
D03*
Y2495000D02*
D03*
X415000D02*
D03*
X515000D02*
D03*
X615000D02*
D03*
X715000D02*
D03*
X815000D02*
D03*
X915000D02*
D03*
X1015000D02*
D03*
X1115000D02*
D03*
X815000Y2995000D02*
D03*
Y2795000D02*
D03*
Y2695000D02*
D03*
Y2895000D02*
D03*
Y2595000D02*
D03*
X2515000D02*
D03*
X2315000D02*
D03*
X2215000D02*
D03*
X2115000D02*
D03*
X2365000Y2970000D02*
D03*
X2265000D02*
D03*
X2165000D02*
D03*
X2065000D02*
D03*
X1965000D02*
D03*
D38*
X2555000Y1320000D02*
D03*
X1185000Y1680000D02*
D03*
X1860000D02*
D03*
X1230000Y1560000D02*
D03*
X1860000D02*
D03*
X545000Y1795000D02*
D03*
Y1915000D02*
D03*
Y1675000D02*
D03*
X2555000Y1680000D02*
D03*
Y1800000D02*
D03*
Y1440000D02*
D03*
X2415000Y805000D02*
D03*
X925000Y715000D02*
D03*
X1025000Y995000D02*
D03*
X2515000Y285000D02*
D03*
X2415000Y485000D02*
D03*
X2000000Y560000D02*
D03*
X2515000Y925000D02*
D03*
X2415000Y1125000D02*
D03*
X650000Y1105000D02*
D03*
X1550000Y975000D02*
D03*
X2555000Y1920000D02*
D03*
Y1560000D02*
D03*
X650000Y395000D02*
D03*
Y1405000D02*
D03*
X1900000Y340000D02*
D03*
X2515000Y605000D02*
D03*
D39*
X2655000Y1320000D02*
D03*
X445000Y1795000D02*
D03*
Y1915000D02*
D03*
Y1675000D02*
D03*
X2655000Y1680000D02*
D03*
Y1800000D02*
D03*
Y1440000D02*
D03*
X2515000Y805000D02*
D03*
X1025000Y715000D02*
D03*
X925000Y995000D02*
D03*
X2415000Y285000D02*
D03*
X2515000Y485000D02*
D03*
X2415000Y925000D02*
D03*
X2515000Y1125000D02*
D03*
X550000Y1105000D02*
D03*
X2655000Y1920000D02*
D03*
Y1560000D02*
D03*
X550000Y395000D02*
D03*
Y1405000D02*
D03*
X2000000Y340000D02*
D03*
X2415000Y605000D02*
D03*
D40*
X1185000Y1780000D02*
D03*
X1860000D02*
D03*
X1230000Y1460000D02*
D03*
X1860000D02*
D03*
X2000000Y460000D02*
D03*
X1550000Y1075000D02*
D03*
D41*
X3035000Y150000D02*
D03*
Y3160000D02*
D03*
X150000D02*
D03*
Y150000D02*
D03*
D42*
X925000Y1605000D02*
D03*
Y1305000D02*
D03*
Y595000D02*
D03*
X2010000Y855000D02*
D03*
X1705000Y1195000D02*
D03*
Y1095000D02*
D03*
D43*
X2015000Y1150000D02*
D03*
X2215000D02*
D03*
Y1350000D02*
D03*
X2015000D02*
D03*
D44*
X2115000Y1250000D02*
D03*
D45*
X3085000Y1400000D02*
D03*
Y1700000D02*
D03*
Y2000000D02*
D03*
Y2300000D02*
D03*
Y2600000D02*
D03*
X100000D02*
D03*
X800000Y100000D02*
D03*
X100000Y2300000D02*
D03*
Y2000000D02*
D03*
Y1700000D02*
D03*
Y1400000D02*
D03*
Y1100000D02*
D03*
Y800000D02*
D03*
Y500000D02*
D03*
X1100000Y100000D02*
D03*
X1945000D02*
D03*
X500000D02*
D03*
D46*
X2132388Y1062500D02*
D03*
X1780000Y705000D02*
D03*
X1696192Y1908808D02*
D03*
X2260000Y965000D02*
D03*
X1470000Y2085000D02*
D03*
X1255000Y1910000D02*
D03*
X1620000Y2415000D02*
D03*
X1650000Y2335000D02*
D03*
X1695000Y2185000D02*
D03*
X1725000Y2220000D02*
D03*
X1465000Y205000D02*
D03*
X1599408Y835475D02*
D03*
X1592880Y867806D02*
D03*
X1715998Y704717D02*
D03*
X1145000Y1890000D02*
D03*
X1290000Y1800000D02*
D03*
X1335000Y1785000D02*
D03*
X1950141Y727977D02*
D03*
X1567230Y722036D02*
D03*
X1400000Y780000D02*
D03*
X1142500Y1205000D02*
D03*
Y1022500D02*
D03*
X1579620Y897652D02*
D03*
X1525000Y1415000D02*
D03*
X1585000Y1440000D02*
D03*
X1640000Y1445000D02*
D03*
X1705000Y1385000D02*
D03*
X1445000D02*
D03*
X1286169Y1412372D02*
D03*
X1396101Y1270173D02*
D03*
X1950000Y845000D02*
D03*
X1961400Y922339D02*
D03*
X1875000Y1090000D02*
D03*
X1825000Y1050000D02*
D03*
X1945141Y812977D02*
D03*
X1640000Y1560000D02*
D03*
X1440000Y2140000D02*
D03*
X1480000Y2220000D02*
D03*
X1520000Y2260000D02*
D03*
X1385000Y1910000D02*
D03*
X1450000Y145000D02*
D03*
X1425000Y175000D02*
D03*
X1260000Y195000D02*
D03*
X1230000Y255000D02*
D03*
X1835000Y705000D02*
D03*
X1820000Y1305000D02*
D03*
X1760000Y1060000D02*
D03*
X1330000Y815000D02*
D03*
X1560000Y1300000D02*
D03*
X1745000Y1145000D02*
D03*
X1839961Y939961D02*
D03*
Y896654D02*
D03*
Y853346D02*
D03*
Y810039D02*
D03*
X1796654Y939961D02*
D03*
Y896654D02*
D03*
Y853346D02*
D03*
Y810039D02*
D03*
X1753347Y939961D02*
D03*
Y896654D02*
D03*
Y853346D02*
D03*
Y810039D02*
D03*
X1710039Y939961D02*
D03*
Y896654D02*
D03*
Y853346D02*
D03*
Y810039D02*
D03*
D47*
X1645000Y2675000D02*
D03*
X2300000Y1920000D02*
D03*
X1725000Y2600000D02*
D03*
X1420000Y2580000D02*
D03*
X1265000D02*
D03*
X1080000Y640000D02*
D03*
X1310000Y575000D02*
D03*
X1360000D02*
D03*
X1550000Y495000D02*
D03*
X2715000Y245000D02*
D03*
X2711706Y565998D02*
D03*
X2710407Y887284D02*
D03*
X1145000Y635000D02*
D03*
X1705000Y435000D02*
D03*
X1545000Y575000D02*
D03*
X1460000D02*
D03*
D53*
X1915000Y1115591D02*
D03*
Y1064409D02*
D03*
D54*
X2305000Y811457D02*
D03*
Y868543D02*
D03*
X1290000Y2223543D02*
D03*
Y2166457D02*
D03*
X1205000Y1896457D02*
D03*
Y1953543D02*
D03*
Y2088543D02*
D03*
Y2031457D02*
D03*
X1600000Y2223543D02*
D03*
Y2166457D02*
D03*
X1515000Y1896457D02*
D03*
Y1953543D02*
D03*
Y2088543D02*
D03*
Y2031457D02*
D03*
X1590000Y1341457D02*
D03*
Y1398543D02*
D03*
X1330000Y1341457D02*
D03*
Y1398543D02*
D03*
X1515000Y341457D02*
D03*
Y398543D02*
D03*
X1190000Y968543D02*
D03*
Y911457D02*
D03*
Y1096457D02*
D03*
Y1153543D02*
D03*
X1450000Y1186457D02*
D03*
Y1243543D02*
D03*
X1795000Y1096457D02*
D03*
Y1153543D02*
D03*
X1885000Y601457D02*
D03*
Y658543D02*
D03*
X1800000Y601457D02*
D03*
Y658543D02*
D03*
X1715000Y601457D02*
D03*
Y658543D02*
D03*
X2125000Y1008543D02*
D03*
Y951457D02*
D03*
D55*
X2239370Y795000D02*
D03*
X2110630D02*
D03*
Y870000D02*
D03*
X2239370D02*
D03*
X1384370Y900000D02*
D03*
X1255630D02*
D03*
Y975000D02*
D03*
X1384370D02*
D03*
Y1160000D02*
D03*
X1255630D02*
D03*
Y1085000D02*
D03*
X1384370D02*
D03*
X1515630Y1175000D02*
D03*
X1644370D02*
D03*
Y1250000D02*
D03*
X1515630D02*
D03*
D56*
X2458543Y1320000D02*
D03*
X2401457D02*
D03*
X1398543Y1640000D02*
D03*
X1341457D02*
D03*
X1701457Y1510000D02*
D03*
X1758543D02*
D03*
X1701457Y1640000D02*
D03*
X1758543D02*
D03*
X1368543Y75000D02*
D03*
X1311457D02*
D03*
X1368543Y160000D02*
D03*
X1311457D02*
D03*
X1328543Y765000D02*
D03*
X1271457D02*
D03*
X968543Y815000D02*
D03*
X911457D02*
D03*
X968543Y895000D02*
D03*
X911457D02*
D03*
X611457D02*
D03*
X668543D02*
D03*
X2476457Y385000D02*
D03*
X2533543D02*
D03*
X2833543Y305000D02*
D03*
X2776457D02*
D03*
X2833543Y385000D02*
D03*
X2776457D02*
D03*
X2833543Y945000D02*
D03*
X2776457D02*
D03*
X2833543Y1025000D02*
D03*
X2776457D02*
D03*
X2476457D02*
D03*
X2533543D02*
D03*
X968543Y1125000D02*
D03*
X911457D02*
D03*
X968543Y1205000D02*
D03*
X911457D02*
D03*
X611457D02*
D03*
X668543D02*
D03*
X2476457Y705000D02*
D03*
X2533543D02*
D03*
X2833543D02*
D03*
X2776457D02*
D03*
X2833543Y625000D02*
D03*
X2776457D02*
D03*
X611457Y495000D02*
D03*
X668543D02*
D03*
X968543Y415000D02*
D03*
X911457D02*
D03*
X968543Y495000D02*
D03*
X911457D02*
D03*
X611457Y1505000D02*
D03*
X668543D02*
D03*
X968543Y1425000D02*
D03*
X911457D02*
D03*
X968543Y1505000D02*
D03*
X911457D02*
D03*
X1856457Y1360000D02*
D03*
X1913543D02*
D03*
X2043543Y1040000D02*
D03*
X1986457D02*
D03*
X1271457Y680000D02*
D03*
X1328543D02*
D03*
X2401457Y1560000D02*
D03*
X2458543D02*
D03*
X2043543Y770000D02*
D03*
X1986457D02*
D03*
Y685000D02*
D03*
X2043543D02*
D03*
X1476457D02*
D03*
X1533543D02*
D03*
X1476457Y765000D02*
D03*
X1533543D02*
D03*
X2043543Y955000D02*
D03*
X1986457D02*
D03*
X1476457Y850000D02*
D03*
X1533543D02*
D03*
D57*
X1283228Y2085669D02*
D03*
X1308819D02*
D03*
X1334409D02*
D03*
X1360000D02*
D03*
X1385591D02*
D03*
X1411181D02*
D03*
X1436772D02*
D03*
Y1854331D02*
D03*
X1411181D02*
D03*
X1385591D02*
D03*
X1360000D02*
D03*
X1334409D02*
D03*
X1308819D02*
D03*
X1283228D02*
D03*
X1593228Y2085669D02*
D03*
X1618819D02*
D03*
X1644409D02*
D03*
X1670000D02*
D03*
X1695591D02*
D03*
X1721181D02*
D03*
X1746772D02*
D03*
Y1854331D02*
D03*
X1721181D02*
D03*
X1695591D02*
D03*
X1670000D02*
D03*
X1644409D02*
D03*
X1618819D02*
D03*
X1593228D02*
D03*
X1460433Y1735669D02*
D03*
X1486024D02*
D03*
X1511614D02*
D03*
X1537205D02*
D03*
X1562795D02*
D03*
X1588386D02*
D03*
X1613976D02*
D03*
X1639567D02*
D03*
Y1504331D02*
D03*
X1613976D02*
D03*
X1588386D02*
D03*
X1562795D02*
D03*
X1537205D02*
D03*
X1511614D02*
D03*
X1486024D02*
D03*
X1460433D02*
D03*
X1449567Y259331D02*
D03*
X1423976D02*
D03*
X1398386D02*
D03*
X1372795D02*
D03*
X1347205D02*
D03*
X1321614D02*
D03*
X1296024D02*
D03*
X1270433D02*
D03*
Y490669D02*
D03*
X1296024D02*
D03*
X1321614D02*
D03*
X1347205D02*
D03*
X1372795D02*
D03*
X1398386D02*
D03*
X1423976D02*
D03*
X1449567D02*
D03*
D58*
X1782008Y1325472D02*
D03*
Y1345158D02*
D03*
Y1364842D02*
D03*
Y1384528D02*
D03*
X1657992D02*
D03*
Y1364842D02*
D03*
Y1345158D02*
D03*
Y1325472D02*
D03*
X1522008D02*
D03*
Y1345158D02*
D03*
Y1364842D02*
D03*
Y1384528D02*
D03*
X1397992D02*
D03*
Y1364842D02*
D03*
Y1345158D02*
D03*
Y1325472D02*
D03*
D59*
X680591Y1675000D02*
D03*
X629409D02*
D03*
X2470590Y1920000D02*
D03*
X2419409D02*
D03*
X2470590Y1800000D02*
D03*
X2419409D02*
D03*
X2470590Y1680000D02*
D03*
X2419409D02*
D03*
X1874409Y1285000D02*
D03*
X1925591D02*
D03*
X1810591Y1225000D02*
D03*
X1759409D02*
D03*
D60*
X735866Y902402D02*
D03*
Y865000D02*
D03*
Y827598D02*
D03*
X844134D02*
D03*
Y902402D02*
D03*
X2600866Y712402D02*
D03*
Y675000D02*
D03*
Y637598D02*
D03*
X2709134D02*
D03*
Y712402D02*
D03*
X2600866Y392402D02*
D03*
Y355000D02*
D03*
Y317599D02*
D03*
X2709134D02*
D03*
Y392402D02*
D03*
X2600866Y1032402D02*
D03*
Y995000D02*
D03*
Y957598D02*
D03*
X2709134D02*
D03*
Y1032402D02*
D03*
X735866Y1212402D02*
D03*
Y1175000D02*
D03*
Y1137599D02*
D03*
X844134D02*
D03*
Y1212402D02*
D03*
X735866Y502402D02*
D03*
Y465000D02*
D03*
Y427599D02*
D03*
X844134D02*
D03*
Y502402D02*
D03*
X735866Y1512402D02*
D03*
Y1475000D02*
D03*
Y1437599D02*
D03*
X844134D02*
D03*
Y1512402D02*
D03*
D61*
X1856614Y1205000D02*
D03*
X1933386Y1230591D02*
D03*
Y1179409D02*
D03*
D62*
X1775000Y875000D02*
D03*
D63*
X1642126Y776575D02*
D03*
Y796260D02*
D03*
Y815945D02*
D03*
Y835630D02*
D03*
Y855315D02*
D03*
Y875000D02*
D03*
Y894685D02*
D03*
Y914370D02*
D03*
Y934055D02*
D03*
Y953740D02*
D03*
Y973425D02*
D03*
X1907874D02*
D03*
Y953740D02*
D03*
Y934055D02*
D03*
Y914370D02*
D03*
Y894685D02*
D03*
Y875000D02*
D03*
Y855315D02*
D03*
Y835630D02*
D03*
Y815945D02*
D03*
Y796260D02*
D03*
Y776575D02*
D03*
D64*
X1676575Y1007874D02*
D03*
X1696260D02*
D03*
X1715945D02*
D03*
X1735630D02*
D03*
X1755315D02*
D03*
X1775000D02*
D03*
X1794685D02*
D03*
X1814370D02*
D03*
X1834055D02*
D03*
X1853740D02*
D03*
X1873425D02*
D03*
Y742126D02*
D03*
X1853740D02*
D03*
X1834055D02*
D03*
X1814370D02*
D03*
X1794685D02*
D03*
X1775000D02*
D03*
X1755315D02*
D03*
X1735630D02*
D03*
X1715945D02*
D03*
X1696260D02*
D03*
X1676575D02*
D03*
%TF.MD5,6e6c686f03c8784f0452b6a52717fd72*%
M02*
