%TF.GenerationSoftware,Altium Limited,Altium Designer,22.3.1 (43)*%
G04 Layer_Color=32768*
%FSLAX26Y26*%
%MOIN*%
%TF.SameCoordinates,25215B7F-5601-44EC-B639-707B6E2D0B24*%
%TF.FilePolarity,Positive*%
%TF.FileFunction,Other,Mechanical_7*%
%TF.Part,Single*%
G01*
G75*
%TA.AperFunction,NonConductor*%
%ADD72C,0.005000*%
%ADD86C,0.012000*%
D72*
X2621690Y3520000D02*
G03*
X2611290Y3514430I4J-12501D01*
G01*
Y3275570D02*
G03*
X2621690Y3270000I10404J6931D01*
G01*
X440000Y3170000D02*
G03*
X452500Y3182500I0J12500D01*
G01*
X502500D02*
G03*
X490000Y3195000I-12500J0D01*
G01*
X792500Y3470000D02*
G03*
X802500Y3480000I0J10000D01*
G01*
X740000D02*
G03*
X750000Y3470000I10000J0D01*
G01*
Y3507500D02*
G03*
X740000Y3497500I0J-10000D01*
G01*
X802500D02*
G03*
X792500Y3507500I-10000J0D01*
G01*
X2105000Y3345000D02*
G03*
X2115000Y3355000I0J10000D01*
G01*
X2015000D02*
G03*
X2025000Y3345000I10000J0D01*
G01*
Y3445000D02*
G03*
X2015000Y3435000I0J-10000D01*
G01*
X2115000D02*
G03*
X2105000Y3445000I-10000J0D01*
G01*
X1915000Y3610000D02*
G03*
X1905000Y3620000I-10000J0D01*
G01*
Y3495000D02*
G03*
X1915000Y3505000I0J10000D01*
G01*
X1790000D02*
G03*
X1800000Y3495000I10000J0D01*
G01*
Y3620000D02*
G03*
X1790000Y3610000I0J-10000D01*
G01*
X2690000Y3482500D02*
G03*
X2702500Y3470000I12500J0D01*
G01*
Y3520000D02*
G03*
X2690000Y3507500I0J-12500D01*
G01*
X2702500Y3320000D02*
G03*
X2690000Y3307500I0J-12500D01*
G01*
Y3282500D02*
G03*
X2702500Y3270000I12500J0D01*
G01*
X1090000Y3485000D02*
G03*
X1080000Y3495000I-10000J0D01*
G01*
Y3295000D02*
G03*
X1090000Y3305000I0J10000D01*
G01*
X940000D02*
G03*
X950000Y3295000I10000J0D01*
G01*
Y3495000D02*
G03*
X940000Y3485000I0J-10000D01*
G01*
X375000Y3595000D02*
G03*
X365000Y3585000I0J-10000D01*
G01*
Y3580000D02*
G03*
X375000Y3570000I10000J0D01*
G01*
Y3545000D02*
G03*
X365000Y3535000I0J-10000D01*
G01*
Y3530000D02*
G03*
X375000Y3520000I10000J0D01*
G01*
Y3495000D02*
G03*
X365000Y3485000I0J-10000D01*
G01*
Y3480000D02*
G03*
X375000Y3470000I10000J0D01*
G01*
Y3445000D02*
G03*
X365000Y3435000I0J-10000D01*
G01*
Y3430000D02*
G03*
X375000Y3420000I10000J0D01*
G01*
Y3395000D02*
G03*
X365000Y3385000I0J-10000D01*
G01*
Y3380000D02*
G03*
X375000Y3370000I10000J0D01*
G01*
Y3345000D02*
G03*
X365000Y3335000I0J-10000D01*
G01*
Y3330000D02*
G03*
X375000Y3320000I10000J0D01*
G01*
Y3295000D02*
G03*
X365000Y3285000I0J-10000D01*
G01*
Y3280000D02*
G03*
X375000Y3270000I10000J0D01*
G01*
X830000Y3145000D02*
G03*
X840000Y3155000I0J10000D01*
G01*
X2590000Y3482500D02*
X2611290Y3514430D01*
X2621690Y3520000D02*
X2640000D01*
Y3445000D02*
Y3520000D01*
X2590000Y3445000D02*
X2640000D01*
X2590000Y3307500D02*
X2611290Y3275570D01*
X2621690Y3270000D02*
X2640000D01*
Y3345000D01*
X2590000D02*
X2640000D01*
X427500Y3170000D02*
X440000D01*
X452500Y3182500D02*
Y3195000D01*
X490000D01*
X502500Y3145000D02*
Y3182500D01*
X1890000Y3620000D02*
Y3632500D01*
X1865000Y3620000D02*
Y3632500D01*
X1840000Y3620000D02*
Y3632500D01*
X1815000Y3620000D02*
Y3632500D01*
X1915000Y3595000D02*
X1927500D01*
X1915000Y3570000D02*
X1927500D01*
X1915000Y3545000D02*
X1927500D01*
X1915000Y3520000D02*
X1927500D01*
X1890000Y3482500D02*
Y3495000D01*
X1865000Y3482500D02*
Y3495000D01*
X1840000Y3482500D02*
Y3495000D01*
X1815000Y3482500D02*
Y3495000D01*
X1777500Y3520000D02*
X1790000D01*
X1777500Y3595000D02*
X1790000D01*
X1777500Y3570000D02*
X1790000D01*
X1777500Y3545000D02*
X1790000D01*
X740000Y3607500D02*
X802500D01*
Y3545000D02*
Y3607500D01*
X750000Y3470000D02*
X792500D01*
X740000Y3480000D02*
Y3497500D01*
X750000Y3507500D02*
X792500D01*
X802500Y3480000D02*
Y3497500D01*
X2025000Y3345000D02*
X2105000D01*
X2015000Y3355000D02*
Y3435000D01*
X2025000Y3445000D02*
X2105000D01*
X2115000Y3355000D02*
Y3435000D01*
X1815000Y3620000D02*
X1840000D01*
X1865000D01*
X1890000D01*
X1905000D01*
X1915000Y3595000D02*
Y3610000D01*
Y3570000D02*
Y3595000D01*
Y3545000D02*
Y3570000D01*
Y3520000D02*
Y3545000D01*
Y3505000D02*
Y3520000D01*
X1890000Y3495000D02*
X1905000D01*
X1865000D02*
X1890000D01*
X1840000D02*
X1865000D01*
X1815000D02*
X1840000D01*
X1800000D02*
X1815000D01*
X1790000Y3505000D02*
Y3520000D01*
Y3545000D01*
Y3570000D01*
Y3595000D01*
Y3610000D01*
X1800000Y3620000D02*
X1815000D01*
X2765000Y3470000D02*
Y3520000D01*
Y3270000D02*
Y3320000D01*
X2702500Y3470000D02*
X2765000D01*
X2690000Y3482500D02*
Y3507500D01*
X2702500Y3520000D02*
X2765000D01*
X2702500Y3320000D02*
X2765000D01*
X2690000Y3282500D02*
Y3307500D01*
X2702500Y3270000D02*
X2765000D01*
X2665000Y3545000D02*
Y3595000D01*
X2715000D01*
Y3545000D02*
Y3595000D01*
X2665000Y3195000D02*
Y3245000D01*
Y3195000D02*
X2715000D01*
Y3245000D01*
X2540000Y3520000D02*
X2590000D01*
X2540000Y3470000D02*
Y3520000D01*
Y3470000D02*
X2590000D01*
X2540000Y3270000D02*
X2590000D01*
X2540000D02*
Y3320000D01*
X2590000D01*
X2540000Y3445000D02*
X2590000D01*
X2540000Y3420000D02*
X2590000D01*
X2540000Y3345000D02*
X2590000D01*
X2540000Y3370000D02*
X2590000D01*
X2540000Y3395000D02*
X2590000D01*
X2390000Y3520000D02*
Y3620000D01*
X2490000Y3520000D02*
Y3620000D01*
X2390000D02*
X2490000D01*
X1990000D02*
X2390000D01*
X1990000Y3520000D02*
Y3620000D01*
Y3520000D02*
X2390000D01*
X2490000D01*
X1090000Y3305000D02*
Y3485000D01*
X950000Y3295000D02*
X1080000D01*
X940000Y3305000D02*
Y3485000D01*
X950000Y3495000D02*
X1080000D01*
X375000Y3595000D02*
X440000D01*
X365000Y3580000D02*
Y3585000D01*
X375000Y3570000D02*
X440000D01*
X375000Y3545000D02*
X440000D01*
X365000Y3530000D02*
Y3535000D01*
X375000Y3520000D02*
X440000D01*
X375000Y3495000D02*
X440000D01*
X365000Y3480000D02*
Y3485000D01*
X375000Y3470000D02*
X440000D01*
X375000Y3445000D02*
X440000D01*
X365000Y3430000D02*
Y3435000D01*
X375000Y3420000D02*
X440000D01*
X375000Y3395000D02*
X440000D01*
X365000Y3380000D02*
Y3385000D01*
X375000Y3370000D02*
X440000D01*
X375000Y3345000D02*
X440000D01*
X365000Y3330000D02*
Y3335000D01*
X375000Y3320000D02*
X440000D01*
X375000Y3295000D02*
X440000D01*
X365000Y3280000D02*
Y3285000D01*
X375000Y3270000D02*
X440000D01*
X590000Y3145000D02*
X665000D01*
X740000D02*
X830000D01*
X840000Y3155000D02*
Y3195000D01*
D86*
X600000D02*
G03*
X590000Y3185000I0J-10000D01*
G01*
X665000D02*
G03*
X655000Y3195000I-10000J0D01*
G01*
X750000D02*
G03*
X740000Y3185000I0J-10000D01*
G01*
X1015000Y3470000D02*
G03*
X965000Y3420000I0J-50000D01*
G01*
Y3370000D02*
G03*
X1015000Y3320000I50000J0D01*
G01*
D02*
G03*
X1065000Y3370000I0J50000D01*
G01*
Y3420000D02*
G03*
X1015000Y3470000I-50000J0D01*
G01*
X840000Y3635000D02*
G03*
X830000Y3645000I-10000J0D01*
G01*
X375000D02*
G03*
X365000Y3635000I0J-10000D01*
G01*
Y3632500D02*
G03*
X377500Y3620000I12500J0D01*
G01*
X440000Y3595000D02*
G03*
X415000Y3620000I-25000J0D01*
G01*
Y3195000D02*
G03*
X440000Y3220000I0J25000D01*
G01*
X377500Y3195000D02*
G03*
X365000Y3182500I0J-12500D01*
G01*
Y3155000D02*
G03*
X375000Y3145000I10000J0D01*
G01*
X1250000Y3645000D02*
G03*
X1240000Y3635000I0J-10000D01*
G01*
Y3155000D02*
G03*
X1250000Y3145000I10000J0D01*
G01*
X1730000D02*
G03*
X1740000Y3155000I0J10000D01*
G01*
Y3635000D02*
G03*
X1730000Y3645000I-10000J0D01*
G01*
X590000Y3145000D02*
Y3185000D01*
X600000Y3195000D02*
X655000D01*
X665000Y3145000D02*
Y3185000D01*
X740000Y3145000D02*
Y3185000D01*
X750000Y3195000D02*
X840000D01*
X965000Y3370000D02*
Y3420000D01*
X1065000Y3370000D02*
Y3420000D01*
X840000Y3195000D02*
Y3635000D01*
X375000Y3645000D02*
X830000D01*
X365000Y3632500D02*
Y3635000D01*
X377500Y3620000D02*
X415000D01*
X440000Y3570000D02*
Y3595000D01*
Y3545000D02*
Y3570000D01*
Y3520000D02*
Y3545000D01*
Y3495000D02*
Y3520000D01*
Y3470000D02*
Y3495000D01*
Y3445000D02*
Y3470000D01*
Y3420000D02*
Y3445000D01*
Y3395000D02*
Y3420000D01*
Y3370000D02*
Y3395000D01*
Y3345000D02*
Y3370000D01*
Y3320000D02*
Y3345000D01*
Y3295000D02*
Y3320000D01*
Y3270000D02*
Y3295000D01*
Y3220000D02*
Y3270000D01*
X377500Y3195000D02*
X415000D01*
X365000Y3155000D02*
Y3182500D01*
X375000Y3145000D02*
X502500D01*
X590000D01*
X665000D02*
X740000D01*
X2740000Y3545000D02*
Y3745000D01*
Y3045000D02*
Y3245000D01*
X2590000D02*
Y3270000D01*
Y3307500D01*
Y3320000D01*
Y3345000D01*
Y3370000D01*
Y3395000D01*
Y3420000D01*
Y3445000D01*
Y3470000D01*
Y3482500D01*
Y3520000D01*
Y3545000D01*
X2665000D01*
X2715000D01*
X2740000D01*
X2790000D01*
Y3245000D02*
Y3545000D01*
X2740000Y3245000D02*
X2790000D01*
X2715000D02*
X2740000D01*
X2665000D02*
X2715000D01*
X2590000D02*
X2665000D01*
X340000Y3045000D02*
Y3745000D01*
X1240000Y3155000D02*
Y3635000D01*
X1250000Y3145000D02*
X1730000D01*
X1740000Y3155000D02*
Y3635000D01*
X1250000Y3645000D02*
X1730000D01*
X340000Y3745000D02*
X2740000D01*
X340000Y3045000D02*
X2740000D01*
%TF.MD5,e654b304de61646cf98ad0c9b61a92ea*%
M02*
