%TF.GenerationSoftware,Altium Limited,Altium Designer,21.6.4 (81)*%
G04 Layer_Color=16711935*
%FSLAX26Y26*%
%MOIN*%
%TF.SameCoordinates,879DA611-49A8-4675-8A71-469A8E5B397B*%
%TF.FilePolarity,Positive*%
%TF.FileFunction,Other,Mechanical_13*%
%TF.Part,Single*%
G01*
G75*
%TA.AperFunction,NonConductor*%
%ADD69C,0.003937*%
D69*
X2382323Y462638D02*
G03*
X2382323Y462638I-19685J0D01*
G01*
X1732323Y52441D02*
Y107559D01*
X1647677Y52441D02*
Y107559D01*
Y52441D02*
X1732323D01*
X1647677Y107559D02*
X1732323D01*
X2327205Y427205D02*
X2602795D01*
X2327205Y702795D02*
X2602795D01*
X2327205Y427205D02*
Y702795D01*
X2602795Y427205D02*
Y702795D01*
X2438504Y1591378D02*
Y1638622D01*
X2501496D01*
Y1591378D02*
Y1638622D01*
X2438504Y1591378D02*
X2501496D01*
X2438504Y1611063D02*
X2458189Y1591378D01*
X2573504D02*
Y1638622D01*
X2636496D01*
Y1591378D02*
Y1638622D01*
X2573504Y1591378D02*
X2636496D01*
X2573504Y1611063D02*
X2593189Y1591378D01*
X2097047Y1336496D02*
X2202953D01*
Y1273504D02*
Y1336496D01*
X2097047Y1273504D02*
Y1336496D01*
Y1273504D02*
X2202953D01*
X2097047Y1123504D02*
X2202953D01*
X2097047D02*
Y1186496D01*
X2202953Y1123504D02*
Y1186496D01*
X2097047D02*
X2202953D01*
X2097047Y1041496D02*
X2202953D01*
Y978504D02*
Y1041496D01*
X2097047Y978504D02*
Y1041496D01*
Y978504D02*
X2202953D01*
X2097047Y828504D02*
X2202953D01*
X2097047D02*
Y891496D01*
X2202953Y828504D02*
Y891496D01*
X2097047D02*
X2202953D01*
X1797047Y1041496D02*
X1902953D01*
Y978504D02*
Y1041496D01*
X1797047Y978504D02*
Y1041496D01*
Y978504D02*
X1902953D01*
X1797047Y828504D02*
X1902953D01*
X1797047D02*
Y891496D01*
X1902953Y828504D02*
Y891496D01*
X1797047D02*
X1902953D01*
X3092441Y642677D02*
Y727323D01*
X3147559Y642677D02*
Y727323D01*
X3092441Y642677D02*
X3147559D01*
X3092441Y727323D02*
X3147559D01*
X2753032Y1632913D02*
X2816968D01*
X2753032D02*
Y1747087D01*
X2816968D01*
Y1632913D02*
Y1747087D01*
X2779567Y1632913D02*
X2816968Y1670315D01*
X2258032Y1747087D02*
X2321968D01*
Y1632913D02*
Y1747087D01*
X2258032Y1632913D02*
X2321968D01*
X2258032D02*
Y1747087D01*
Y1709685D02*
X2295433Y1747087D01*
X2229961Y2215551D02*
Y2284449D01*
X2350039Y2215551D02*
Y2284449D01*
X2229961Y2215551D02*
X2350039D01*
X2229961Y2284449D02*
X2350039D01*
X2237559Y2037677D02*
Y2122323D01*
X2182441Y2037677D02*
Y2122323D01*
X2237559D01*
X2182441Y2037677D02*
X2237559D01*
X2287677Y2087441D02*
X2372323D01*
X2287677Y2142559D02*
X2372323D01*
Y2087441D02*
Y2142559D01*
X2287677Y2087441D02*
Y2142559D01*
X2337441Y2377677D02*
Y2462323D01*
X2392559Y2377677D02*
Y2462323D01*
X2337441Y2377677D02*
X2392559D01*
X2337441Y2462323D02*
X2392559D01*
X1692559Y157677D02*
Y242323D01*
X1637441Y157677D02*
Y242323D01*
X1692559D01*
X1637441Y157677D02*
X1692559D01*
X1307677Y207441D02*
X1392323D01*
X1307677Y262559D02*
X1392323D01*
Y207441D02*
Y262559D01*
X1307677Y207441D02*
Y262559D01*
X1485551Y99961D02*
X1554449D01*
X1485551Y220039D02*
X1554449D01*
Y99961D02*
Y220039D01*
X1485551Y99961D02*
Y220039D01*
X2707677Y1012559D02*
X2792323D01*
X2707677Y957441D02*
X2792323D01*
X2707677D02*
Y1012559D01*
X2792323Y957441D02*
Y1012559D01*
X2740669Y854173D02*
Y875827D01*
X2699331Y854173D02*
Y875827D01*
Y854173D02*
X2740669D01*
X2699331Y875827D02*
X2740669D01*
Y909173D02*
Y930827D01*
X2699331Y909173D02*
Y930827D01*
Y909173D02*
X2740669D01*
X2699331Y930827D02*
X2740669D01*
X2482441Y827677D02*
Y912323D01*
X2537559Y827677D02*
Y912323D01*
X2482441Y827677D02*
X2537559D01*
X2482441Y912323D02*
X2537559D01*
X2593425Y933307D02*
X2646575D01*
X2593425Y846693D02*
X2646575D01*
X2593425D02*
Y933307D01*
X2646575Y846693D02*
Y933307D01*
X2499173Y1010669D02*
X2520827D01*
X2499173Y969331D02*
X2520827D01*
Y1010669D01*
X2499173Y969331D02*
Y1010669D01*
X1520551Y1199961D02*
X1589449D01*
X1520551Y1320039D02*
X1589449D01*
Y1199961D02*
Y1320039D01*
X1520551Y1199961D02*
Y1320039D01*
X1717559Y1257677D02*
Y1342323D01*
X1662441Y1257677D02*
Y1342323D01*
X1717559D01*
X1662441Y1257677D02*
X1717559D01*
X1342677Y1307441D02*
X1427323D01*
X1342677Y1362559D02*
X1427323D01*
Y1307441D02*
Y1362559D01*
X1342677Y1307441D02*
X1342677Y1362559D01*
X1682677Y1207559D02*
X1767323D01*
X1682677Y1152441D02*
X1767323D01*
X1682677D02*
Y1207559D01*
X1767323Y1152441D02*
Y1207559D01*
X1418386Y331575D02*
X1591614D01*
X1418386D02*
Y528425D01*
X1591614D01*
Y331575D02*
Y528425D01*
X1566024Y331575D02*
X1591614Y357165D01*
X1137441Y392677D02*
Y477323D01*
X1192559Y392677D02*
Y477323D01*
X1137441Y392677D02*
X1192559D01*
X1137441Y477323D02*
X1192559D01*
X1692677Y402441D02*
X1777323D01*
X1692677Y457559D02*
X1777323D01*
Y402441D02*
Y457559D01*
X1692677Y402441D02*
Y457559D01*
X1232441Y392677D02*
Y477323D01*
X1287559Y392677D02*
Y477323D01*
X1232441Y392677D02*
X1287559D01*
X1232441Y477323D02*
X1287559D01*
X2237677Y1422441D02*
X2322323D01*
X2237677Y1477559D02*
X2322323D01*
Y1422441D02*
Y1477559D01*
X2237677Y1422441D02*
Y1477559D01*
X2007677Y557441D02*
X2092323D01*
X2007677Y612559D02*
X2092323D01*
Y557441D02*
Y612559D01*
X2007677Y557441D02*
Y612559D01*
X2837677Y292559D02*
X2922323D01*
X2837677Y237441D02*
X2922323D01*
X2837677D02*
Y292559D01*
X2922323Y237441D02*
Y292559D01*
X2837677Y612559D02*
X2922323D01*
X2837677Y557441D02*
X2922323D01*
X2837677D02*
Y612559D01*
X2922323Y557441D02*
Y612559D01*
X2837677Y772559D02*
X2922323D01*
X2837677Y717441D02*
X2922323D01*
X2837677D02*
Y772559D01*
X2922323Y717441D02*
Y772559D01*
X2837677Y452559D02*
X2922323D01*
X2837677Y397441D02*
X2922323D01*
X2837677D02*
Y452559D01*
X2922323Y397441D02*
Y452559D01*
X2482559Y267677D02*
Y352323D01*
X2427441Y267677D02*
Y352323D01*
X2482559D01*
X2427441Y267677D02*
X2482559D01*
X2007677Y397441D02*
X2092323D01*
X2007677Y452559D02*
X2092323D01*
Y397441D02*
Y452559D01*
X2007677Y397441D02*
Y452559D01*
X2752677Y1477559D02*
X2837323D01*
X2752677Y1422441D02*
X2837323D01*
X2752677D02*
Y1477559D01*
X2837323Y1422441D02*
Y1477559D01*
X2007677Y237441D02*
X2092323D01*
X2007677Y292559D02*
X2092323D01*
Y237441D02*
Y292559D01*
X2007677Y237441D02*
Y292559D01*
X2362559Y267677D02*
Y352323D01*
X2307441Y267677D02*
Y352323D01*
X2362559D01*
X2307441Y267677D02*
X2362559D01*
X2602559D02*
Y352323D01*
X2547441Y267677D02*
Y352323D01*
X2602559D01*
X2547441Y267677D02*
X2602559D01*
X2430630Y1414409D02*
X2450315Y1394724D01*
X2430630D02*
X2509370D01*
Y1485276D01*
X2430630D02*
X2509370D01*
X2430630Y1394724D02*
Y1485276D01*
X2565630Y1414409D02*
X2585315Y1394724D01*
X2565630D02*
X2644370D01*
Y1485276D01*
X2565630D02*
X2644370D01*
X2565630Y1394724D02*
Y1485276D01*
X2992677Y1522441D02*
X3077323D01*
X2992677Y1577559D02*
X3077323D01*
Y1522441D02*
Y1577559D01*
X2992677Y1522441D02*
Y1577559D01*
X3242677Y1522441D02*
X3327323D01*
X3242677Y1577559D02*
X3327323D01*
Y1522441D02*
Y1577559D01*
X3242677Y1522441D02*
Y1577559D01*
X2752677Y1522441D02*
X2837323D01*
X2752677Y1577559D02*
X2837323D01*
Y1522441D02*
Y1577559D01*
X2752677Y1522441D02*
Y1577559D01*
X1997677Y1577559D02*
X2082323D01*
X1997677Y1522441D02*
X2082323D01*
X1997677D02*
Y1577559D01*
X2082323Y1522441D02*
Y1577559D01*
X1747677D02*
X1832323D01*
X1747677Y1522441D02*
X1832323D01*
X1747677D02*
Y1577559D01*
X1832323Y1522441D02*
Y1577559D01*
X2237677D02*
X2322323D01*
X2237677Y1522441D02*
X2322323D01*
X2237677D02*
Y1577559D01*
X2322323Y1522441D02*
Y1577559D01*
X3147559Y267677D02*
Y352323D01*
X3092441Y267677D02*
Y352323D01*
X3147559D01*
X3092441Y267677D02*
X3147559D01*
X2607441Y1182677D02*
Y1267323D01*
X2662559Y1182677D02*
Y1267323D01*
X2607441Y1182677D02*
X2662559D01*
X2607441Y1267323D02*
X2662559D01*
X2407441Y1182677D02*
Y1267323D01*
X2462559Y1182677D02*
Y1267323D01*
X2407441Y1182677D02*
X2462559D01*
X2407441Y1267323D02*
X2462559D01*
X1792441Y642677D02*
Y727323D01*
X1847559Y642677D02*
Y727323D01*
X1792441Y642677D02*
X1847559D01*
X1792441Y727323D02*
X1847559D01*
X1972441Y1207677D02*
Y1292323D01*
X2027559Y1207677D02*
Y1292323D01*
X1972441Y1207677D02*
X2027559D01*
X1972441Y1292323D02*
X2027559D01*
X1672441Y912677D02*
Y997323D01*
X1727559Y912677D02*
Y997323D01*
X1672441Y912677D02*
X1727559D01*
X1672441Y997323D02*
X1727559D01*
X1972441Y912677D02*
Y997323D01*
X2027559Y912677D02*
Y997323D01*
X1972441Y912677D02*
X2027559D01*
X1972441Y997323D02*
X2027559D01*
X2922441Y1207677D02*
Y1292323D01*
X2977559Y1207677D02*
Y1292323D01*
X2922441Y1207677D02*
X2977559D01*
X2922441Y1292323D02*
X2977559D01*
X1997677Y1917559D02*
X2082323D01*
X1997677Y1862441D02*
X2082323D01*
X1997677D02*
Y1917559D01*
X2082323Y1862441D02*
Y1917559D01*
X2992677Y1862441D02*
X3077323D01*
X2992677Y1917559D02*
X3077323D01*
Y1862441D02*
Y1917559D01*
X2992677Y1862441D02*
Y1917559D01*
X3293268Y1434252D02*
X3308622Y1449606D01*
Y1434252D02*
Y1465748D01*
X3261378D02*
X3308622D01*
X3261378Y1434252D02*
Y1465748D01*
Y1434252D02*
X3308622D01*
X1766378Y1450394D02*
X1781732Y1465748D01*
X1766378Y1434252D02*
Y1465748D01*
Y1434252D02*
X1813622D01*
Y1465748D01*
X1766378D02*
X1813622D01*
X2747047Y1171496D02*
X2852953D01*
Y1108504D02*
Y1171496D01*
X2747047Y1108504D02*
Y1171496D01*
Y1108504D02*
X2852953D01*
X2747047Y1273504D02*
X2852953D01*
X2747047D02*
Y1336496D01*
X2852953Y1273504D02*
Y1336496D01*
X2747047D02*
X2852953D01*
X3259409Y1632520D02*
X3310591D01*
X3259409D02*
Y1747480D01*
X3310591D01*
Y1632520D02*
Y1747480D01*
X3273189Y1632520D02*
X3310591Y1669921D01*
X3003032Y1632913D02*
X3066968D01*
X3003032D02*
Y1747087D01*
X3066968D01*
Y1632913D02*
Y1747087D01*
X3029567Y1632913D02*
X3066968Y1670315D01*
X1764409Y1747480D02*
X1815591D01*
Y1632520D02*
Y1747480D01*
X1764409Y1632520D02*
X1815591D01*
X1764409D02*
Y1747480D01*
Y1710079D02*
X1801811Y1747480D01*
X2008032Y1747087D02*
X2071968D01*
Y1632913D02*
Y1747087D01*
X2008032Y1632913D02*
X2071968D01*
X2008032D02*
Y1747087D01*
Y1709685D02*
X2045433Y1747087D01*
%TF.MD5,f851db9f7e26ceca0522ea67f0ff91d1*%
M02*
