G04*
G04 #@! TF.GenerationSoftware,Altium Limited,Altium Designer,22.3.1 (43)*
G04*
G04 Layer_Color=16711935*
%FSLAX25Y25*%
%MOIN*%
G70*
G04*
G04 #@! TF.SameCoordinates,E19C0AB1-6057-4413-9D38-1CFD4383DBF5*
G04*
G04*
G04 #@! TF.FilePolarity,Positive*
G04*
G01*
G75*
%ADD68C,0.00236*%
D68*
X280500Y159574D02*
Y158262D01*
X280762Y158000D01*
X281287D01*
X281550Y158262D01*
Y159574D01*
X283124Y158000D02*
X282074D01*
X283124Y159049D01*
Y159312D01*
X282861Y159574D01*
X282337D01*
X282074Y159312D01*
X280500Y127574D02*
Y126262D01*
X280762Y126000D01*
X281287D01*
X281550Y126262D01*
Y127574D01*
X282861Y126000D02*
Y127574D01*
X282074Y126787D01*
X283124D01*
X280500Y63574D02*
Y62262D01*
X280762Y62000D01*
X281287D01*
X281550Y62262D01*
Y63574D01*
X283124D02*
X282599Y63312D01*
X282074Y62787D01*
Y62262D01*
X282337Y62000D01*
X282861D01*
X283124Y62262D01*
Y62525D01*
X282861Y62787D01*
X282074D01*
X280500Y95574D02*
Y94262D01*
X280762Y94000D01*
X281287D01*
X281550Y94262D01*
Y95574D01*
X282074Y94000D02*
X282599D01*
X282337D01*
Y95574D01*
X282074Y95312D01*
X280500Y31574D02*
Y30262D01*
X280762Y30000D01*
X281287D01*
X281550Y30262D01*
Y31574D01*
X282074D02*
X283124D01*
Y31312D01*
X282074Y30262D01*
Y30000D01*
X64000Y94074D02*
Y92762D01*
X64262Y92500D01*
X64787D01*
X65049Y92762D01*
Y94074D01*
X66624D02*
X65574D01*
Y93287D01*
X66099Y93550D01*
X66361D01*
X66624Y93287D01*
Y92762D01*
X66361Y92500D01*
X65837D01*
X65574Y92762D01*
X64000Y54074D02*
Y52762D01*
X64262Y52500D01*
X64787D01*
X65049Y52762D01*
Y54074D01*
X65574Y53812D02*
X65837Y54074D01*
X66361D01*
X66624Y53812D01*
Y53549D01*
X66361Y53287D01*
X66099D01*
X66361D01*
X66624Y53025D01*
Y52762D01*
X66361Y52500D01*
X65837D01*
X65574Y52762D01*
M02*
