G04*
G04 #@! TF.GenerationSoftware,Altium Limited,Altium Designer,22.3.1 (43)*
G04*
G04 Layer_Color=32768*
%FSLAX25Y25*%
%MOIN*%
G70*
G04*
G04 #@! TF.SameCoordinates,A476BA3E-0ACD-4873-8504-19A6DC85AD4C*
G04*
G04*
G04 #@! TF.FilePolarity,Positive*
G04*
G01*
G75*
%ADD70C,0.00394*%
%ADD71C,0.00197*%
D70*
X156500Y126630D02*
Y130370D01*
X154630Y128500D02*
X158370D01*
X169130Y130500D02*
X172870D01*
X171000Y128630D02*
Y132370D01*
X179228Y133000D02*
X182772D01*
X181000Y131228D02*
Y134772D01*
X189130Y135500D02*
X192870D01*
X191000Y133630D02*
Y137370D01*
X198130Y195500D02*
X201870D01*
X200000Y193630D02*
Y197370D01*
X133130Y195500D02*
X136870D01*
X135000Y193630D02*
Y197370D01*
X113500Y143532D02*
Y147468D01*
X111531Y145500D02*
X115469D01*
X111531Y195500D02*
X115469D01*
X113500Y193532D02*
Y197468D01*
X219531Y195500D02*
X223468D01*
X221500Y193532D02*
Y197468D01*
X137500Y118130D02*
Y121870D01*
X135630Y120000D02*
X139370D01*
X143630Y128500D02*
X147370D01*
X145500Y126630D02*
Y130370D01*
X165000Y128630D02*
Y132370D01*
X163130Y130500D02*
X166870D01*
X185500Y192728D02*
Y196272D01*
X183728Y194500D02*
X187272D01*
X149500Y192728D02*
Y196272D01*
X147728Y194500D02*
X151272D01*
X281031Y159000D02*
X284968D01*
X283000Y157032D02*
Y160968D01*
X281031Y127000D02*
X284968D01*
X283000Y125031D02*
Y128969D01*
X298000Y120228D02*
Y123772D01*
X296228Y122000D02*
X299772D01*
X298000Y160228D02*
Y163772D01*
X296228Y162000D02*
X299772D01*
X298000Y152228D02*
Y155772D01*
X296228Y154000D02*
X299772D01*
X298000Y128228D02*
Y131772D01*
X296228Y130000D02*
X299772D01*
X268000Y128228D02*
Y131772D01*
X266228Y130000D02*
X269772D01*
X268000Y160228D02*
Y163772D01*
X266228Y162000D02*
X269772D01*
X268000Y32228D02*
Y35772D01*
X266228Y34000D02*
X269772D01*
X298000Y64228D02*
Y67772D01*
X296228Y66000D02*
X299772D01*
X281031Y63000D02*
X284968D01*
X283000Y61032D02*
Y64969D01*
X298000Y56228D02*
Y59772D01*
X296228Y58000D02*
X299772D01*
X281031Y95000D02*
X284968D01*
X283000Y93032D02*
Y96969D01*
X268000Y96228D02*
Y99772D01*
X266228Y98000D02*
X269772D01*
X298000Y88228D02*
Y91772D01*
X296228Y90000D02*
X299772D01*
X298000Y96228D02*
Y99772D01*
X296228Y98000D02*
X299772D01*
X268000Y64228D02*
Y67772D01*
X266228Y66000D02*
X269772D01*
X281031Y31000D02*
X284968D01*
X283000Y29032D02*
Y32969D01*
X298000Y24228D02*
Y27772D01*
X296228Y26000D02*
X299772D01*
X298000Y32228D02*
Y35772D01*
X296228Y34000D02*
X299772D01*
X192228Y161500D02*
X195772D01*
X194000Y159728D02*
Y163272D01*
X137728Y161500D02*
X141272D01*
X139500Y159728D02*
Y163272D01*
X63500Y143532D02*
Y147468D01*
X61532Y145500D02*
X65469D01*
X63500Y193532D02*
Y197468D01*
X61532Y195500D02*
X65469D01*
X221500Y143532D02*
Y147468D01*
X219531Y145500D02*
X223468D01*
X265000Y199728D02*
Y203272D01*
X263228Y201500D02*
X266772D01*
X265000Y223728D02*
Y227272D01*
X263228Y225500D02*
X266772D01*
X49728Y96500D02*
X53272D01*
X51500Y94728D02*
Y98272D01*
X172500Y254228D02*
Y257772D01*
X170728Y256000D02*
X174272D01*
X141500Y254228D02*
Y257772D01*
X139728Y256000D02*
X143272D01*
X195228Y117500D02*
X198772D01*
X197000Y115728D02*
Y119272D01*
X114228Y92000D02*
X117772D01*
X116000Y90228D02*
Y93772D01*
X114228Y83500D02*
X117772D01*
X116000Y81728D02*
Y85272D01*
X183728Y181500D02*
X187272D01*
X185500Y179728D02*
Y183272D01*
X195228Y76000D02*
X198772D01*
X197000Y74228D02*
Y77772D01*
X195228Y84500D02*
X198772D01*
X197000Y82728D02*
Y86272D01*
X159000Y71728D02*
Y75272D01*
X157228Y73500D02*
X160772D01*
X167500Y71728D02*
Y75272D01*
X165728Y73500D02*
X169272D01*
X176000Y71728D02*
Y75272D01*
X174228Y73500D02*
X177772D01*
X134728Y84000D02*
X138272D01*
X136500Y82228D02*
Y85772D01*
X134728Y92000D02*
X138272D01*
X136500Y90228D02*
Y93772D01*
X134728Y100500D02*
X138272D01*
X136500Y98728D02*
Y102272D01*
X195228Y109000D02*
X198772D01*
X197000Y107228D02*
Y110772D01*
X208000Y109728D02*
Y113272D01*
X206228Y111500D02*
X209772D01*
X133000Y227228D02*
Y230772D01*
X131228Y229000D02*
X134772D01*
X133000Y240728D02*
Y244272D01*
X131228Y242500D02*
X134772D01*
X164000Y227228D02*
Y230772D01*
X162228Y229000D02*
X165772D01*
X164000Y240728D02*
Y244272D01*
X162228Y242500D02*
X165772D01*
X139000Y35728D02*
Y39272D01*
X137228Y37500D02*
X140772D01*
X103728Y28000D02*
X107272D01*
X105500Y26228D02*
Y29772D01*
X108000Y36728D02*
Y40272D01*
X106228Y38500D02*
X109772D01*
X213000Y91031D02*
Y94968D01*
X211032Y93000D02*
X214968D01*
X213000Y98532D02*
Y102469D01*
X211032Y100500D02*
X214968D01*
X226000Y95728D02*
Y99272D01*
X224228Y97500D02*
X227772D01*
X66500Y91531D02*
Y95468D01*
X64531Y93500D02*
X68468D01*
X66500Y51531D02*
Y55468D01*
X64531Y53500D02*
X68468D01*
X79728Y48500D02*
X83272D01*
X81500Y46728D02*
Y50272D01*
X79728Y56500D02*
X83272D01*
X81500Y54728D02*
Y58272D01*
X79728Y88500D02*
X83272D01*
X81500Y86728D02*
Y90272D01*
X79728Y96500D02*
X83272D01*
X81500Y94728D02*
Y98272D01*
X49728Y56500D02*
X53272D01*
X51500Y54728D02*
Y58272D01*
X165000Y101031D02*
Y104969D01*
X163031Y103000D02*
X166969D01*
D71*
X151382Y131453D02*
X161618D01*
X151382Y125547D02*
X161618D01*
X151382D02*
Y131453D01*
X161618Y125547D02*
Y131453D01*
X173953Y125382D02*
Y135618D01*
X168047Y125382D02*
Y135618D01*
X173953D01*
X168047Y125382D02*
X173953D01*
X174307Y128866D02*
Y137134D01*
X187693Y128866D02*
Y137134D01*
X174307D02*
X187693D01*
X174307Y128866D02*
X187693D01*
X188047Y130382D02*
Y140618D01*
X193953Y130382D02*
Y140618D01*
X188047Y130382D02*
X193953D01*
X188047Y140618D02*
X193953D01*
X205118Y192547D02*
Y198453D01*
X194882Y192547D02*
Y198453D01*
Y192547D02*
X205118D01*
X194882Y198453D02*
X205118D01*
X129882Y192547D02*
Y198453D01*
X140118Y192547D02*
Y198453D01*
X129882D02*
X140118D01*
X129882Y192547D02*
X140118D01*
X128028Y130972D02*
Y160028D01*
X98972D02*
X128028D01*
X98972Y130972D02*
Y160028D01*
Y130972D02*
X128028D01*
X98972Y180972D02*
X128028D01*
X98972D02*
Y210028D01*
X128028D01*
Y180972D02*
Y210028D01*
X206972Y180972D02*
X236028D01*
X206972D02*
Y210028D01*
X236028D01*
Y180972D02*
Y210028D01*
X134547Y114882D02*
X140453D01*
X134547Y125118D02*
X140453D01*
X134547Y114882D02*
Y125118D01*
X140453Y114882D02*
Y125118D01*
X140382Y125547D02*
Y131453D01*
X150618Y125547D02*
Y131453D01*
X140382D02*
X150618D01*
X140382Y125547D02*
X150618D01*
X162047Y125382D02*
X167953D01*
X162047Y135618D02*
X167953D01*
X162047Y125382D02*
Y135618D01*
X167953Y125382D02*
Y135618D01*
X156476Y171547D02*
X178524D01*
Y202453D01*
X156476D02*
X178524D01*
X156476Y171547D02*
Y202453D01*
X178807Y198634D02*
X192193D01*
X178807Y190366D02*
X192193D01*
X178807D02*
Y198634D01*
X192193Y190366D02*
Y198634D01*
X142807Y190366D02*
X156193D01*
X142807Y198634D02*
X156193D01*
Y190366D02*
Y198634D01*
X142807Y190366D02*
Y198634D01*
X274732Y151913D02*
Y166087D01*
X291268Y151913D02*
Y166087D01*
X274732D02*
X291268D01*
X274732Y151913D02*
X291268D01*
X274732Y119913D02*
Y134087D01*
X291268Y119913D02*
Y134087D01*
X274732D02*
X291268D01*
X274732Y119913D02*
X291268D01*
X291307Y117866D02*
X304693D01*
X291307Y126134D02*
X304693D01*
Y117866D02*
Y126134D01*
X291307Y117866D02*
Y126134D01*
Y157866D02*
X304693D01*
X291307Y166134D02*
X304693D01*
Y157866D02*
Y166134D01*
X291307Y157866D02*
Y166134D01*
Y149866D02*
X304693D01*
X291307Y158134D02*
X304693D01*
Y149866D02*
Y158134D01*
X291307Y149866D02*
Y158134D01*
Y125866D02*
X304693D01*
X291307Y134134D02*
X304693D01*
Y125866D02*
Y134134D01*
X291307Y125866D02*
Y134134D01*
X261307D02*
X274693D01*
X261307Y125866D02*
X274693D01*
X261307D02*
Y134134D01*
X274693Y125866D02*
Y134134D01*
X261307Y166134D02*
X274693D01*
X261307Y157866D02*
X274693D01*
X261307D02*
Y166134D01*
X274693Y157866D02*
Y166134D01*
X261307Y38134D02*
X274693D01*
X261307Y29866D02*
X274693D01*
X261307D02*
Y38134D01*
X274693Y29866D02*
Y38134D01*
X291307Y61866D02*
X304693D01*
X291307Y70134D02*
X304693D01*
Y61866D02*
Y70134D01*
X291307Y61866D02*
Y70134D01*
X274732Y55913D02*
Y70087D01*
X291268Y55913D02*
Y70087D01*
X274732D02*
X291268D01*
X274732Y55913D02*
X291268D01*
X291307Y53866D02*
X304693D01*
X291307Y62134D02*
X304693D01*
Y53866D02*
Y62134D01*
X291307Y53866D02*
Y62134D01*
X274732Y87913D02*
Y102087D01*
X291268Y87913D02*
Y102087D01*
X274732D02*
X291268D01*
X274732Y87913D02*
X291268D01*
X261307Y102134D02*
X274693D01*
X261307Y93866D02*
X274693D01*
X261307D02*
Y102134D01*
X274693Y93866D02*
Y102134D01*
X291307Y85866D02*
X304693D01*
X291307Y94134D02*
X304693D01*
Y85866D02*
Y94134D01*
X291307Y85866D02*
Y94134D01*
Y93866D02*
X304693D01*
X291307Y102134D02*
X304693D01*
Y93866D02*
Y102134D01*
X291307Y93866D02*
Y102134D01*
X261307Y70134D02*
X274693D01*
X261307Y61866D02*
X274693D01*
X261307D02*
Y70134D01*
X274693Y61866D02*
Y70134D01*
X274732Y23913D02*
Y38087D01*
X291268Y23913D02*
Y38087D01*
X274732D02*
X291268D01*
X274732Y23913D02*
X291268D01*
X291307Y21866D02*
X304693D01*
X291307Y30134D02*
X304693D01*
Y21866D02*
Y30134D01*
X291307Y21866D02*
Y30134D01*
Y29866D02*
X304693D01*
X291307Y38134D02*
X304693D01*
Y29866D02*
Y38134D01*
X291307Y29866D02*
Y38134D01*
X198134Y154807D02*
Y168193D01*
X189866Y154807D02*
Y168193D01*
X198134D01*
X189866Y154807D02*
X198134D01*
X179382Y151142D02*
Y168858D01*
X189618D01*
Y151142D02*
Y168858D01*
X179382Y151142D02*
X189618D01*
X143634Y154807D02*
Y168193D01*
X135366Y154807D02*
Y168193D01*
X143634D01*
X135366Y154807D02*
X143634D01*
X143882Y151142D02*
Y168858D01*
X154118D01*
Y151142D02*
Y168858D01*
X143882Y151142D02*
X154118D01*
X78028Y130972D02*
Y160028D01*
X48972D02*
X78028D01*
X48972Y130972D02*
Y160028D01*
Y130972D02*
X78028D01*
Y180972D02*
Y210028D01*
X48972D02*
X78028D01*
X48972Y180972D02*
Y210028D01*
Y180972D02*
X78028D01*
X236028Y130972D02*
Y160028D01*
X206972D02*
X236028D01*
X206972Y130972D02*
Y160028D01*
Y130972D02*
X236028D01*
X258307Y197366D02*
X271693D01*
X258307Y205634D02*
X271693D01*
Y197366D02*
Y205634D01*
X258307Y197366D02*
Y205634D01*
Y221366D02*
X271693D01*
X258307Y229634D02*
X271693D01*
Y221366D02*
Y229634D01*
X258307Y221366D02*
Y229634D01*
X137476Y218047D02*
Y248953D01*
X159524D01*
Y218047D02*
Y248953D01*
X137476Y218047D02*
X159524D01*
X58193Y92366D02*
Y100634D01*
X44807Y92366D02*
Y100634D01*
Y92366D02*
X58193D01*
X44807Y100634D02*
X58193D01*
X168366Y249307D02*
X176634D01*
X168366Y262693D02*
X176634D01*
X168366Y249307D02*
Y262693D01*
X176634Y249307D02*
Y262693D01*
X137366Y249307D02*
X145634D01*
X137366Y262693D02*
X145634D01*
X137366Y249307D02*
Y262693D01*
X145634Y249307D02*
Y262693D01*
X203693Y113366D02*
Y121634D01*
X190307Y113366D02*
Y121634D01*
Y113366D02*
X203693D01*
X190307Y121634D02*
X203693D01*
X109307Y87866D02*
Y96134D01*
X122693Y87866D02*
Y96134D01*
X109307D02*
X122693D01*
X109307Y87866D02*
X122693D01*
X109307Y79366D02*
Y87634D01*
X122693Y79366D02*
Y87634D01*
X109307D02*
X122693D01*
X109307Y79366D02*
X122693D01*
X192193Y177366D02*
Y185634D01*
X178807Y177366D02*
Y185634D01*
Y177366D02*
X192193D01*
X178807Y185634D02*
X192193D01*
X190307Y71866D02*
Y80134D01*
X203693Y71866D02*
Y80134D01*
X190307D02*
X203693D01*
X190307Y71866D02*
X203693D01*
Y80366D02*
Y88634D01*
X190307Y80366D02*
Y88634D01*
Y80366D02*
X203693D01*
X190307Y88634D02*
X203693D01*
X154866Y66807D02*
X163134D01*
X154866Y80193D02*
X163134D01*
X154866Y66807D02*
Y80193D01*
X163134Y66807D02*
Y80193D01*
X163366Y66807D02*
X171634D01*
X163366Y80193D02*
X171634D01*
X163366Y66807D02*
Y80193D01*
X171634Y66807D02*
Y80193D01*
X171866Y66807D02*
X180134D01*
X171866Y80193D02*
X180134D01*
X171866Y66807D02*
Y80193D01*
X180134Y66807D02*
Y80193D01*
X129807Y79866D02*
Y88134D01*
X143193Y79866D02*
Y88134D01*
X129807D02*
X143193D01*
X129807Y79866D02*
X143193D01*
X129807Y87866D02*
Y96134D01*
X143193Y87866D02*
Y96134D01*
X129807D02*
X143193D01*
X129807Y87866D02*
X143193D01*
X129807Y96366D02*
Y104634D01*
X143193Y96366D02*
Y104634D01*
X129807D02*
X143193D01*
X129807Y96366D02*
X143193D01*
X203693Y104866D02*
Y113134D01*
X190307Y104866D02*
Y113134D01*
Y104866D02*
X203693D01*
X190307Y113134D02*
X203693D01*
X203866Y118193D02*
X212134D01*
X203866Y104807D02*
X212134D01*
Y118193D01*
X203866Y104807D02*
Y118193D01*
X128866Y235693D02*
X137134D01*
X128866Y222307D02*
X137134D01*
Y235693D01*
X128866Y222307D02*
Y235693D01*
Y235807D02*
X137134D01*
X128866Y249193D02*
X137134D01*
X128866Y235807D02*
Y249193D01*
X137134Y235807D02*
Y249193D01*
X159866Y235693D02*
X168134D01*
X159866Y222307D02*
X168134D01*
Y235693D01*
X159866Y222307D02*
Y235693D01*
X168476Y218047D02*
Y248953D01*
X190524D01*
Y218047D02*
Y248953D01*
X168476Y218047D02*
X190524D01*
X159866Y235807D02*
X168134D01*
X159866Y249193D02*
X168134D01*
X159866Y235807D02*
Y249193D01*
X168134Y235807D02*
Y249193D01*
X134524Y22547D02*
Y53453D01*
X112476Y22547D02*
X134524D01*
X112476D02*
Y53453D01*
X134524D01*
X134866Y44193D02*
X143134D01*
X134866Y30807D02*
X143134D01*
Y44193D01*
X134866Y30807D02*
Y44193D01*
X98807Y23866D02*
Y32134D01*
X112193Y23866D02*
Y32134D01*
X98807D02*
X112193D01*
X98807Y23866D02*
X112193D01*
X103866Y45193D02*
X112134D01*
X103866Y31807D02*
X112134D01*
Y45193D01*
X103866Y31807D02*
Y45193D01*
X204378Y96543D02*
X221622D01*
Y89457D02*
Y96543D01*
X204378Y89457D02*
Y96543D01*
Y89457D02*
X221622D01*
X204378Y96957D02*
X221622D01*
X204378D02*
Y104043D01*
X221622Y96957D02*
Y104043D01*
X204378D02*
X221622D01*
X221866Y104193D02*
X230134D01*
X221866Y90807D02*
X230134D01*
Y104193D01*
X221866Y90807D02*
Y104193D01*
X58232Y86413D02*
X74768D01*
X58232Y100587D02*
X74768D01*
Y86413D02*
Y100587D01*
X58232Y86413D02*
Y100587D01*
Y46413D02*
X74768D01*
X58232Y60587D02*
X74768D01*
Y46413D02*
Y60587D01*
X58232Y46413D02*
Y60587D01*
X74807Y44366D02*
Y52634D01*
X88193Y44366D02*
Y52634D01*
X74807D02*
X88193D01*
X74807Y44366D02*
X88193D01*
X74807Y52366D02*
Y60634D01*
X88193Y52366D02*
Y60634D01*
X74807D02*
X88193D01*
X74807Y52366D02*
X88193D01*
X74807Y84366D02*
Y92634D01*
X88193Y84366D02*
Y92634D01*
X74807D02*
X88193D01*
X74807Y84366D02*
X88193D01*
X74807Y92366D02*
Y100634D01*
X88193Y92366D02*
Y100634D01*
X74807D02*
X88193D01*
X74807Y92366D02*
X88193D01*
X58193Y52366D02*
Y60634D01*
X44807Y52366D02*
Y60634D01*
Y52366D02*
X58193D01*
X44807Y60634D02*
X58193D01*
X148957Y86957D02*
X181043D01*
X148957Y119043D02*
X181043D01*
X148957Y86957D02*
Y119043D01*
X181043Y86957D02*
Y119043D01*
M02*
