%TF.GenerationSoftware,Altium Limited,Altium Designer,22.3.1 (43)*%
G04 Layer_Color=2752767*
%FSLAX26Y26*%
%MOIN*%
%TF.SameCoordinates,25215B7F-5601-44EC-B639-707B6E2D0B24*%
%TF.FilePolarity,Positive*%
%TF.FileFunction,Drawing*%
%TF.Part,Single*%
G01*
G75*
%TA.AperFunction,NonConductor*%
%ADD72C,0.005000*%
%ADD101C,0.006667*%
D72*
X2020000Y3550000D02*
Y3590000D01*
X2060000D01*
Y3550000D01*
X2020000D01*
X2120000D02*
Y3590000D01*
X2160000D01*
Y3550000D01*
X2120000D01*
X2220000D02*
Y3590000D01*
X2260000D01*
Y3550000D01*
X2220000D01*
X2320000D02*
Y3590000D01*
X2360000D01*
Y3550000D01*
X2320000D01*
X2420000D02*
Y3590000D01*
X2460000D01*
Y3550000D01*
X2420000D01*
X2170000Y3175000D02*
Y3215000D01*
X2210000D01*
Y3175000D01*
X2170000D01*
X2270000D02*
Y3215000D01*
X2310000D01*
Y3175000D01*
X2270000D01*
X2370000D02*
Y3215000D01*
X2410000D01*
Y3175000D01*
X2370000D01*
X2570000D02*
Y3215000D01*
X2610000D01*
Y3175000D01*
X2570000D01*
X870000D02*
Y3215000D01*
X910000D01*
Y3175000D01*
X870000D01*
Y3475000D02*
Y3515000D01*
X910000D01*
Y3475000D01*
X870000D01*
Y3275000D02*
Y3315000D01*
X910000D01*
Y3275000D01*
X870000D01*
Y3375000D02*
Y3415000D01*
X910000D01*
Y3375000D01*
X870000D01*
Y3575000D02*
Y3615000D01*
X910000D01*
Y3575000D01*
X870000D01*
X1170000Y3075000D02*
Y3115000D01*
X1210000D01*
Y3075000D01*
X1170000D01*
X1070000D02*
Y3115000D01*
X1110000D01*
Y3075000D01*
X1070000D01*
X970000D02*
Y3115000D01*
X1010000D01*
Y3075000D01*
X970000D01*
X870000D02*
Y3115000D01*
X910000D01*
Y3075000D01*
X870000D01*
X770000D02*
Y3115000D01*
X810000D01*
Y3075000D01*
X770000D01*
X670000D02*
Y3115000D01*
X710000D01*
Y3075000D01*
X670000D01*
X570000D02*
Y3115000D01*
X610000D01*
Y3075000D01*
X570000D01*
X470000D02*
Y3115000D01*
X510000D01*
Y3075000D01*
X470000D01*
X370000D02*
Y3115000D01*
X410000D01*
Y3075000D01*
X370000D01*
Y3675000D02*
Y3715000D01*
X410000D01*
Y3675000D01*
X370000D01*
X470000D02*
Y3715000D01*
X510000D01*
Y3675000D01*
X470000D01*
X570000D02*
Y3715000D01*
X610000D01*
Y3675000D01*
X570000D01*
X670000D02*
Y3715000D01*
X710000D01*
Y3675000D01*
X670000D01*
X770000D02*
Y3715000D01*
X810000D01*
Y3675000D01*
X770000D01*
X870000D02*
Y3715000D01*
X910000D01*
Y3675000D01*
X870000D01*
X970000D02*
Y3715000D01*
X1010000D01*
Y3675000D01*
X970000D01*
X1070000D02*
Y3715000D01*
X1110000D01*
Y3675000D01*
X1070000D01*
X1170000D02*
Y3715000D01*
X1210000D01*
Y3675000D01*
X1170000D01*
X1270000Y3075000D02*
Y3115000D01*
X1310000D01*
Y3075000D01*
X1270000D01*
Y3675000D02*
Y3715000D01*
X1310000D01*
Y3675000D01*
X1270000D01*
X2670000Y3075000D02*
Y3115000D01*
X2710000D01*
Y3075000D01*
X2670000D01*
Y3675000D02*
Y3715000D01*
X2710000D01*
Y3675000D01*
X2670000D01*
X2570000Y3075000D02*
Y3115000D01*
X2610000D01*
Y3075000D01*
X2570000D01*
X2470000D02*
Y3115000D01*
X2510000D01*
Y3075000D01*
X2470000D01*
X2570000Y3675000D02*
Y3715000D01*
X2610000D01*
Y3675000D01*
X2570000D01*
X2370000Y3075000D02*
Y3115000D01*
X2410000D01*
Y3075000D01*
X2370000D01*
X2270000D02*
Y3115000D01*
X2310000D01*
Y3075000D01*
X2270000D01*
X2170000D02*
Y3115000D01*
X2210000D01*
Y3075000D01*
X2170000D01*
X2070000D02*
Y3115000D01*
X2110000D01*
Y3075000D01*
X2070000D01*
X1970000D02*
Y3115000D01*
X2010000D01*
Y3075000D01*
X1970000D01*
X1870000D02*
Y3115000D01*
X1910000D01*
Y3075000D01*
X1870000D01*
X1770000D02*
Y3115000D01*
X1810000D01*
Y3075000D01*
X1770000D01*
X1670000D02*
Y3115000D01*
X1710000D01*
Y3075000D01*
X1670000D01*
X1570000D02*
Y3115000D01*
X1610000D01*
Y3075000D01*
X1570000D01*
X1470000D02*
Y3115000D01*
X1510000D01*
Y3075000D01*
X1470000D01*
X1370000D02*
Y3115000D01*
X1410000D01*
Y3075000D01*
X1370000D01*
Y3675000D02*
Y3715000D01*
X1410000D01*
Y3675000D01*
X1370000D01*
X1470000D02*
Y3715000D01*
X1510000D01*
Y3675000D01*
X1470000D01*
X1570000D02*
Y3715000D01*
X1610000D01*
Y3675000D01*
X1570000D01*
X1670000D02*
Y3715000D01*
X1710000D01*
Y3675000D01*
X1670000D01*
X1770000D02*
Y3715000D01*
X1810000D01*
Y3675000D01*
X1770000D01*
X1870000D02*
Y3715000D01*
X1910000D01*
Y3675000D01*
X1870000D01*
X1970000D02*
Y3715000D01*
X2010000D01*
Y3675000D01*
X1970000D01*
X2070000D02*
Y3715000D01*
X2110000D01*
Y3675000D01*
X2070000D01*
X2170000D02*
Y3715000D01*
X2210000D01*
Y3675000D01*
X2170000D01*
X2270000D02*
Y3715000D01*
X2310000D01*
Y3675000D01*
X2270000D01*
X2370000D02*
Y3715000D01*
X2410000D01*
Y3675000D01*
X2370000D01*
X2470000D02*
Y3715000D01*
X2510000D01*
Y3675000D01*
X2470000D01*
X2215000Y2435000D02*
X2195000Y2475000D01*
X2235000D01*
X2215000Y2435000D01*
X885000D02*
X865000Y2475000D01*
X905000D01*
X885000Y2435000D01*
X2174737Y548660D02*
X2184737Y558660D01*
X2194737D01*
X2184737Y568660D01*
X2194737Y578660D01*
X2184737D01*
X2174737Y588660D01*
X2164737Y578660D01*
X2154737D01*
X2164737Y568660D01*
X2154737Y558660D01*
X2164737D01*
X2174737Y548660D01*
X1875000Y425000D02*
X1885000Y435000D01*
X1895000D01*
X1885000Y445000D01*
X1895000Y455000D01*
X1885000D01*
X1875000Y465000D01*
X1865000Y455000D01*
X1855000D01*
X1865000Y445000D01*
X1855000Y435000D01*
X1865000D01*
X1875000Y425000D01*
Y525000D02*
X1885000Y535000D01*
X1895000D01*
X1885000Y545000D01*
X1895000Y555000D01*
X1885000D01*
X1875000Y565000D01*
X1865000Y555000D01*
X1855000D01*
X1865000Y545000D01*
X1855000Y535000D01*
X1865000D01*
X1875000Y525000D01*
X2310000Y755000D02*
X2320000Y765000D01*
X2330000D01*
X2320000Y775000D01*
X2330000Y785000D01*
X2320000D01*
X2310000Y795000D01*
X2300000Y785000D01*
X2290000D01*
X2300000Y775000D01*
X2290000Y765000D01*
X2300000D01*
X2310000Y755000D01*
X1975000Y930000D02*
X1985000Y940000D01*
X1995000D01*
X1985000Y950000D01*
X1995000Y960000D01*
X1985000D01*
X1975000Y970000D01*
X1965000Y960000D01*
X1955000D01*
X1965000Y950000D01*
X1955000Y940000D01*
X1965000D01*
X1975000Y930000D01*
X3240000Y3895000D02*
X3250000Y3915000D01*
X3240000Y3935000D01*
X3260000Y3925000D01*
X3280000Y3935000D01*
X3270000Y3915000D01*
X3280000Y3895000D01*
X3260000Y3905000D01*
X3240000Y3895000D01*
X130000D02*
X140000Y3915000D01*
X130000Y3935000D01*
X150000Y3925000D01*
X170000Y3935000D01*
X160000Y3915000D01*
X170000Y3895000D01*
X150000Y3905000D01*
X130000Y3895000D01*
X3240000Y130000D02*
X3250000Y150000D01*
X3240000Y170000D01*
X3260000Y160000D01*
X3280000Y170000D01*
X3270000Y150000D01*
X3280000Y130000D01*
X3260000Y140000D01*
X3240000Y130000D01*
X130000D02*
X140000Y150000D01*
X130000Y170000D01*
X150000Y160000D01*
X170000Y170000D01*
X160000Y150000D01*
X170000Y130000D01*
X150000Y140000D01*
X130000Y130000D01*
X2690000Y1060000D02*
X2700000Y1070000D01*
X2710000D01*
X2700000Y1080000D01*
X2710000Y1090000D01*
X2700000D01*
X2690000Y1100000D01*
X2680000Y1090000D01*
X2670000D01*
X2680000Y1080000D01*
X2670000Y1070000D01*
X2680000D01*
X2690000Y1060000D01*
X800000Y645000D02*
X810000Y655000D01*
X820000D01*
X810000Y665000D01*
X820000Y675000D01*
X810000D01*
X800000Y685000D01*
X790000Y675000D01*
X780000D01*
X790000Y665000D01*
X780000Y655000D01*
X790000D01*
X800000Y645000D01*
X2690000Y1700000D02*
X2700000Y1710000D01*
X2710000D01*
X2700000Y1720000D01*
X2710000Y1730000D01*
X2700000D01*
X2690000Y1740000D01*
X2680000Y1730000D01*
X2670000D01*
X2680000Y1720000D01*
X2670000Y1710000D01*
X2680000D01*
X2690000Y1700000D01*
X1135000Y1435000D02*
X1115000Y1475000D01*
X1155000D01*
X1135000Y1435000D01*
Y1935000D02*
X1115000Y1975000D01*
X1155000D01*
X1135000Y1935000D01*
X1780000Y2075000D02*
X1790000Y2085000D01*
X1800000D01*
X1790000Y2095000D01*
X1800000Y2105000D01*
X1790000D01*
X1780000Y2115000D01*
X1770000Y2105000D01*
X1760000D01*
X1770000Y2095000D01*
X1760000Y2085000D01*
X1770000D01*
X1780000Y2075000D01*
X1880000D02*
X1890000Y2085000D01*
X1900000D01*
X1890000Y2095000D01*
X1900000Y2105000D01*
X1890000D01*
X1880000Y2115000D01*
X1870000Y2105000D01*
X1860000D01*
X1870000Y2095000D01*
X1860000Y2085000D01*
X1870000D01*
X1880000Y2075000D01*
X1470000D02*
X1480000Y2085000D01*
X1490000D01*
X1480000Y2095000D01*
X1490000Y2105000D01*
X1480000D01*
X1470000Y2115000D01*
X1460000Y2105000D01*
X1450000D01*
X1460000Y2095000D01*
X1450000Y2085000D01*
X1460000D01*
X1470000Y2075000D01*
X1570000D02*
X1580000Y2085000D01*
X1590000D01*
X1580000Y2095000D01*
X1590000Y2105000D01*
X1580000D01*
X1570000Y2115000D01*
X1560000Y2105000D01*
X1550000D01*
X1560000Y2095000D01*
X1550000Y2085000D01*
X1560000D01*
X1570000Y2075000D01*
X2215000Y1935000D02*
X2195000Y1975000D01*
X2235000D01*
X2215000Y1935000D01*
X2690000Y220000D02*
X2700000Y230000D01*
X2710000D01*
X2700000Y240000D01*
X2710000Y250000D01*
X2700000D01*
X2690000Y260000D01*
X2680000Y250000D01*
X2670000D01*
X2680000Y240000D01*
X2670000Y230000D01*
X2680000D01*
X2690000Y220000D01*
X2590000D02*
X2600000Y230000D01*
X2610000D01*
X2600000Y240000D01*
X2610000Y250000D01*
X2600000D01*
X2590000Y260000D01*
X2580000Y250000D01*
X2570000D01*
X2580000Y240000D01*
X2570000Y230000D01*
X2580000D01*
X2590000Y220000D01*
Y420000D02*
X2600000Y430000D01*
X2610000D01*
X2600000Y440000D01*
X2610000Y450000D01*
X2600000D01*
X2590000Y460000D01*
X2580000Y450000D01*
X2570000D01*
X2580000Y440000D01*
X2570000Y430000D01*
X2580000D01*
X2590000Y420000D01*
X2690000D02*
X2700000Y430000D01*
X2710000D01*
X2700000Y440000D01*
X2710000Y450000D01*
X2700000D01*
X2690000Y460000D01*
X2680000Y450000D01*
X2670000D01*
X2680000Y440000D01*
X2670000Y430000D01*
X2680000D01*
X2690000Y420000D01*
Y540000D02*
X2700000Y550000D01*
X2710000D01*
X2700000Y560000D01*
X2710000Y570000D01*
X2700000D01*
X2690000Y580000D01*
X2680000Y570000D01*
X2670000D01*
X2680000Y560000D01*
X2670000Y550000D01*
X2680000D01*
X2690000Y540000D01*
X2590000D02*
X2600000Y550000D01*
X2610000D01*
X2600000Y560000D01*
X2610000Y570000D01*
X2600000D01*
X2590000Y580000D01*
X2580000Y570000D01*
X2570000D01*
X2580000Y560000D01*
X2570000Y550000D01*
X2580000D01*
X2590000Y540000D01*
Y1380000D02*
X2600000Y1390000D01*
X2610000D01*
X2600000Y1400000D01*
X2610000Y1410000D01*
X2600000D01*
X2590000Y1420000D01*
X2580000Y1410000D01*
X2570000D01*
X2580000Y1400000D01*
X2570000Y1390000D01*
X2580000D01*
X2590000Y1380000D01*
X2690000D02*
X2700000Y1390000D01*
X2710000D01*
X2700000Y1400000D01*
X2710000Y1410000D01*
X2700000D01*
X2690000Y1420000D01*
X2680000Y1410000D01*
X2670000D01*
X2680000Y1400000D01*
X2670000Y1390000D01*
X2680000D01*
X2690000Y1380000D01*
Y1500000D02*
X2700000Y1510000D01*
X2710000D01*
X2700000Y1520000D01*
X2710000Y1530000D01*
X2700000D01*
X2690000Y1540000D01*
X2680000Y1530000D01*
X2670000D01*
X2680000Y1520000D01*
X2670000Y1510000D01*
X2680000D01*
X2690000Y1500000D01*
X2590000D02*
X2600000Y1510000D01*
X2610000D01*
X2600000Y1520000D01*
X2610000Y1530000D01*
X2600000D01*
X2590000Y1540000D01*
X2580000Y1530000D01*
X2570000D01*
X2580000Y1520000D01*
X2570000Y1510000D01*
X2580000D01*
X2590000Y1500000D01*
X2690000Y1180000D02*
X2700000Y1190000D01*
X2710000D01*
X2700000Y1200000D01*
X2710000Y1210000D01*
X2700000D01*
X2690000Y1220000D01*
X2680000Y1210000D01*
X2670000D01*
X2680000Y1200000D01*
X2670000Y1190000D01*
X2680000D01*
X2690000Y1180000D01*
X2590000D02*
X2600000Y1190000D01*
X2610000D01*
X2600000Y1200000D01*
X2610000Y1210000D01*
X2600000D01*
X2590000Y1220000D01*
X2580000Y1210000D01*
X2570000D01*
X2580000Y1200000D01*
X2570000Y1190000D01*
X2580000D01*
X2590000Y1180000D01*
X2690000Y860000D02*
X2700000Y870000D01*
X2710000D01*
X2700000Y880000D01*
X2710000Y890000D01*
X2700000D01*
X2690000Y900000D01*
X2680000Y890000D01*
X2670000D01*
X2680000Y880000D01*
X2670000Y870000D01*
X2680000D01*
X2690000Y860000D01*
X2590000D02*
X2600000Y870000D01*
X2610000D01*
X2600000Y880000D01*
X2610000Y890000D01*
X2600000D01*
X2590000Y900000D01*
X2580000Y890000D01*
X2570000D01*
X2580000Y880000D01*
X2570000Y870000D01*
X2580000D01*
X2590000Y860000D01*
Y740000D02*
X2600000Y750000D01*
X2610000D01*
X2600000Y760000D01*
X2610000Y770000D01*
X2600000D01*
X2590000Y780000D01*
X2580000Y770000D01*
X2570000D01*
X2580000Y760000D01*
X2570000Y750000D01*
X2580000D01*
X2590000Y740000D01*
X2690000D02*
X2700000Y750000D01*
X2710000D01*
X2700000Y760000D01*
X2710000Y770000D01*
X2700000D01*
X2690000Y780000D01*
X2680000Y770000D01*
X2670000D01*
X2680000Y760000D01*
X2670000Y750000D01*
X2680000D01*
X2690000Y740000D01*
X555000Y2520000D02*
X565000Y2530000D01*
X575000D01*
X565000Y2540000D01*
X575000Y2550000D01*
X565000D01*
X555000Y2560000D01*
X545000Y2550000D01*
X535000D01*
X545000Y2540000D01*
X535000Y2530000D01*
X545000D01*
X555000Y2520000D01*
X455000D02*
X465000Y2530000D01*
X475000D01*
X465000Y2540000D01*
X475000Y2550000D01*
X465000D01*
X455000Y2560000D01*
X445000Y2550000D01*
X435000D01*
X445000Y2540000D01*
X435000Y2530000D01*
X445000D01*
X455000Y2520000D01*
X555000Y2400000D02*
X565000Y2410000D01*
X575000D01*
X565000Y2420000D01*
X575000Y2430000D01*
X565000D01*
X555000Y2440000D01*
X545000Y2430000D01*
X535000D01*
X545000Y2420000D01*
X535000Y2410000D01*
X545000D01*
X555000Y2400000D01*
X455000D02*
X465000Y2410000D01*
X475000D01*
X465000Y2420000D01*
X475000Y2430000D01*
X465000D01*
X455000Y2440000D01*
X445000Y2430000D01*
X435000D01*
X445000Y2420000D01*
X435000Y2410000D01*
X445000D01*
X455000Y2400000D01*
X555000Y2280000D02*
X565000Y2290000D01*
X575000D01*
X565000Y2300000D01*
X575000Y2310000D01*
X565000D01*
X555000Y2320000D01*
X545000Y2310000D01*
X535000D01*
X545000Y2300000D01*
X535000Y2290000D01*
X545000D01*
X555000Y2280000D01*
X455000D02*
X465000Y2290000D01*
X475000D01*
X465000Y2300000D01*
X475000Y2310000D01*
X465000D01*
X455000Y2320000D01*
X445000Y2310000D01*
X435000D01*
X445000Y2300000D01*
X435000Y2290000D01*
X445000D01*
X455000Y2280000D01*
X1730000Y1530000D02*
X1740000Y1540000D01*
X1750000D01*
X1740000Y1550000D01*
X1750000Y1560000D01*
X1740000D01*
X1730000Y1570000D01*
X1720000Y1560000D01*
X1710000D01*
X1720000Y1550000D01*
X1710000Y1540000D01*
X1720000D01*
X1730000Y1530000D01*
Y1630000D02*
X1740000Y1640000D01*
X1750000D01*
X1740000Y1650000D01*
X1750000Y1660000D01*
X1740000D01*
X1730000Y1670000D01*
X1720000Y1660000D01*
X1710000D01*
X1720000Y1650000D01*
X1710000Y1640000D01*
X1720000D01*
X1730000Y1630000D01*
X1605000Y1530000D02*
X1615000Y1540000D01*
X1625000D01*
X1615000Y1550000D01*
X1625000Y1560000D01*
X1615000D01*
X1605000Y1570000D01*
X1595000Y1560000D01*
X1585000D01*
X1595000Y1550000D01*
X1585000Y1540000D01*
X1595000D01*
X1605000Y1530000D01*
Y1630000D02*
X1615000Y1640000D01*
X1625000D01*
X1615000Y1650000D01*
X1625000Y1660000D01*
X1615000D01*
X1605000Y1670000D01*
X1595000Y1660000D01*
X1585000D01*
X1595000Y1650000D01*
X1585000Y1640000D01*
X1595000D01*
X1605000Y1630000D01*
X635000Y1435000D02*
X615000Y1475000D01*
X655000D01*
X635000Y1435000D01*
Y1935000D02*
X615000Y1975000D01*
X655000D01*
X635000Y1935000D01*
X2215000Y1435000D02*
X2195000Y1475000D01*
X2235000D01*
X2215000Y1435000D01*
X2775000Y2235000D02*
X2785000Y2245000D01*
X2795000D01*
X2785000Y2255000D01*
X2795000Y2265000D01*
X2785000D01*
X2775000Y2275000D01*
X2765000Y2265000D01*
X2755000D01*
X2765000Y2255000D01*
X2755000Y2245000D01*
X2765000D01*
X2775000Y2235000D01*
X2875000D02*
X2885000Y2245000D01*
X2895000D01*
X2885000Y2255000D01*
X2895000Y2265000D01*
X2885000D01*
X2875000Y2275000D01*
X2865000Y2265000D01*
X2855000D01*
X2865000Y2255000D01*
X2855000Y2245000D01*
X2865000D01*
X2875000Y2235000D01*
X2775000Y2595000D02*
X2785000Y2605000D01*
X2795000D01*
X2785000Y2615000D01*
X2795000Y2625000D01*
X2785000D01*
X2775000Y2635000D01*
X2765000Y2625000D01*
X2755000D01*
X2765000Y2615000D01*
X2755000Y2605000D01*
X2765000D01*
X2775000Y2595000D01*
X2875000D02*
X2885000Y2605000D01*
X2895000D01*
X2885000Y2615000D01*
X2895000Y2625000D01*
X2885000D01*
X2875000Y2635000D01*
X2865000Y2625000D01*
X2855000D01*
X2865000Y2615000D01*
X2855000Y2605000D01*
X2865000D01*
X2875000Y2595000D01*
X2775000Y2475000D02*
X2785000Y2485000D01*
X2795000D01*
X2785000Y2495000D01*
X2795000Y2505000D01*
X2785000D01*
X2775000Y2515000D01*
X2765000Y2505000D01*
X2755000D01*
X2765000Y2495000D01*
X2755000Y2485000D01*
X2765000D01*
X2775000Y2475000D01*
X2875000D02*
X2885000Y2485000D01*
X2895000D01*
X2885000Y2495000D01*
X2895000Y2505000D01*
X2885000D01*
X2875000Y2515000D01*
X2865000Y2505000D01*
X2855000D01*
X2865000Y2495000D01*
X2855000Y2485000D01*
X2865000D01*
X2875000Y2475000D01*
X2775000Y2355000D02*
X2785000Y2365000D01*
X2795000D01*
X2785000Y2375000D01*
X2795000Y2385000D01*
X2785000D01*
X2775000Y2395000D01*
X2765000Y2385000D01*
X2755000D01*
X2765000Y2375000D01*
X2755000Y2365000D01*
X2765000D01*
X2775000Y2355000D01*
X2875000D02*
X2885000Y2365000D01*
X2895000D01*
X2885000Y2375000D01*
X2895000Y2385000D01*
X2885000D01*
X2875000Y2395000D01*
X2865000Y2385000D01*
X2855000D01*
X2865000Y2375000D01*
X2855000Y2365000D01*
X2865000D01*
X2875000Y2355000D01*
X2775000Y1995000D02*
X2785000Y2005000D01*
X2795000D01*
X2785000Y2015000D01*
X2795000Y2025000D01*
X2785000D01*
X2775000Y2035000D01*
X2765000Y2025000D01*
X2755000D01*
X2765000Y2015000D01*
X2755000Y2005000D01*
X2765000D01*
X2775000Y1995000D01*
X2875000D02*
X2885000Y2005000D01*
X2895000D01*
X2885000Y2015000D01*
X2895000Y2025000D01*
X2885000D01*
X2875000Y2035000D01*
X2865000Y2025000D01*
X2855000D01*
X2865000Y2015000D01*
X2855000Y2005000D01*
X2865000D01*
X2875000Y1995000D01*
X2775000Y2115000D02*
X2785000Y2125000D01*
X2795000D01*
X2785000Y2135000D01*
X2795000Y2145000D01*
X2785000D01*
X2775000Y2155000D01*
X2765000Y2145000D01*
X2755000D01*
X2765000Y2135000D01*
X2755000Y2125000D01*
X2765000D01*
X2775000Y2115000D01*
X2875000D02*
X2885000Y2125000D01*
X2895000D01*
X2885000Y2135000D01*
X2895000Y2145000D01*
X2885000D01*
X2875000Y2155000D01*
X2865000Y2145000D01*
X2855000D01*
X2865000Y2135000D01*
X2855000Y2125000D01*
X2865000D01*
X2875000Y2115000D01*
X2690000Y3875000D02*
X2700000Y3885000D01*
X2710000D01*
X2700000Y3895000D01*
X2710000Y3905000D01*
X2700000D01*
X2690000Y3915000D01*
X2680000Y3905000D01*
X2670000D01*
X2680000Y3895000D01*
X2670000Y3885000D01*
X2680000D01*
X2690000Y3875000D01*
X390000D02*
X400000Y3885000D01*
X410000D01*
X400000Y3895000D01*
X410000Y3905000D01*
X400000D01*
X390000Y3915000D01*
X380000Y3905000D01*
X370000D01*
X380000Y3895000D01*
X370000Y3885000D01*
X380000D01*
X390000Y3875000D01*
X490000D02*
X500000Y3885000D01*
X510000D01*
X500000Y3895000D01*
X510000Y3905000D01*
X500000D01*
X490000Y3915000D01*
X480000Y3905000D01*
X470000D01*
X480000Y3895000D01*
X470000Y3885000D01*
X480000D01*
X490000Y3875000D01*
X590000D02*
X600000Y3885000D01*
X610000D01*
X600000Y3895000D01*
X610000Y3905000D01*
X600000D01*
X590000Y3915000D01*
X580000Y3905000D01*
X570000D01*
X580000Y3895000D01*
X570000Y3885000D01*
X580000D01*
X590000Y3875000D01*
X690000D02*
X700000Y3885000D01*
X710000D01*
X700000Y3895000D01*
X710000Y3905000D01*
X700000D01*
X690000Y3915000D01*
X680000Y3905000D01*
X670000D01*
X680000Y3895000D01*
X670000Y3885000D01*
X680000D01*
X690000Y3875000D01*
X790000D02*
X800000Y3885000D01*
X810000D01*
X800000Y3895000D01*
X810000Y3905000D01*
X800000D01*
X790000Y3915000D01*
X780000Y3905000D01*
X770000D01*
X780000Y3895000D01*
X770000Y3885000D01*
X780000D01*
X790000Y3875000D01*
X890000D02*
X900000Y3885000D01*
X910000D01*
X900000Y3895000D01*
X910000Y3905000D01*
X900000D01*
X890000Y3915000D01*
X880000Y3905000D01*
X870000D01*
X880000Y3895000D01*
X870000Y3885000D01*
X880000D01*
X890000Y3875000D01*
X990000D02*
X1000000Y3885000D01*
X1010000D01*
X1000000Y3895000D01*
X1010000Y3905000D01*
X1000000D01*
X990000Y3915000D01*
X980000Y3905000D01*
X970000D01*
X980000Y3895000D01*
X970000Y3885000D01*
X980000D01*
X990000Y3875000D01*
X1090000D02*
X1100000Y3885000D01*
X1110000D01*
X1100000Y3895000D01*
X1110000Y3905000D01*
X1100000D01*
X1090000Y3915000D01*
X1080000Y3905000D01*
X1070000D01*
X1080000Y3895000D01*
X1070000Y3885000D01*
X1080000D01*
X1090000Y3875000D01*
X1190000D02*
X1200000Y3885000D01*
X1210000D01*
X1200000Y3895000D01*
X1210000Y3905000D01*
X1200000D01*
X1190000Y3915000D01*
X1180000Y3905000D01*
X1170000D01*
X1180000Y3895000D01*
X1170000Y3885000D01*
X1180000D01*
X1190000Y3875000D01*
X1290000D02*
X1300000Y3885000D01*
X1310000D01*
X1300000Y3895000D01*
X1310000Y3905000D01*
X1300000D01*
X1290000Y3915000D01*
X1280000Y3905000D01*
X1270000D01*
X1280000Y3895000D01*
X1270000Y3885000D01*
X1280000D01*
X1290000Y3875000D01*
X1390000D02*
X1400000Y3885000D01*
X1410000D01*
X1400000Y3895000D01*
X1410000Y3905000D01*
X1400000D01*
X1390000Y3915000D01*
X1380000Y3905000D01*
X1370000D01*
X1380000Y3895000D01*
X1370000Y3885000D01*
X1380000D01*
X1390000Y3875000D01*
X1490000D02*
X1500000Y3885000D01*
X1510000D01*
X1500000Y3895000D01*
X1510000Y3905000D01*
X1500000D01*
X1490000Y3915000D01*
X1480000Y3905000D01*
X1470000D01*
X1480000Y3895000D01*
X1470000Y3885000D01*
X1480000D01*
X1490000Y3875000D01*
X1590000D02*
X1600000Y3885000D01*
X1610000D01*
X1600000Y3895000D01*
X1610000Y3905000D01*
X1600000D01*
X1590000Y3915000D01*
X1580000Y3905000D01*
X1570000D01*
X1580000Y3895000D01*
X1570000Y3885000D01*
X1580000D01*
X1590000Y3875000D01*
X1690000D02*
X1700000Y3885000D01*
X1710000D01*
X1700000Y3895000D01*
X1710000Y3905000D01*
X1700000D01*
X1690000Y3915000D01*
X1680000Y3905000D01*
X1670000D01*
X1680000Y3895000D01*
X1670000Y3885000D01*
X1680000D01*
X1690000Y3875000D01*
X1790000D02*
X1800000Y3885000D01*
X1810000D01*
X1800000Y3895000D01*
X1810000Y3905000D01*
X1800000D01*
X1790000Y3915000D01*
X1780000Y3905000D01*
X1770000D01*
X1780000Y3895000D01*
X1770000Y3885000D01*
X1780000D01*
X1790000Y3875000D01*
X1890000D02*
X1900000Y3885000D01*
X1910000D01*
X1900000Y3895000D01*
X1910000Y3905000D01*
X1900000D01*
X1890000Y3915000D01*
X1880000Y3905000D01*
X1870000D01*
X1880000Y3895000D01*
X1870000Y3885000D01*
X1880000D01*
X1890000Y3875000D01*
X1990000D02*
X2000000Y3885000D01*
X2010000D01*
X2000000Y3895000D01*
X2010000Y3905000D01*
X2000000D01*
X1990000Y3915000D01*
X1980000Y3905000D01*
X1970000D01*
X1980000Y3895000D01*
X1970000Y3885000D01*
X1980000D01*
X1990000Y3875000D01*
X2090000D02*
X2100000Y3885000D01*
X2110000D01*
X2100000Y3895000D01*
X2110000Y3905000D01*
X2100000D01*
X2090000Y3915000D01*
X2080000Y3905000D01*
X2070000D01*
X2080000Y3895000D01*
X2070000Y3885000D01*
X2080000D01*
X2090000Y3875000D01*
X2190000D02*
X2200000Y3885000D01*
X2210000D01*
X2200000Y3895000D01*
X2210000Y3905000D01*
X2200000D01*
X2190000Y3915000D01*
X2180000Y3905000D01*
X2170000D01*
X2180000Y3895000D01*
X2170000Y3885000D01*
X2180000D01*
X2190000Y3875000D01*
X2290000D02*
X2300000Y3885000D01*
X2310000D01*
X2300000Y3895000D01*
X2310000Y3905000D01*
X2300000D01*
X2290000Y3915000D01*
X2280000Y3905000D01*
X2270000D01*
X2280000Y3895000D01*
X2270000Y3885000D01*
X2280000D01*
X2290000Y3875000D01*
X2390000D02*
X2400000Y3885000D01*
X2410000D01*
X2400000Y3895000D01*
X2410000Y3905000D01*
X2400000D01*
X2390000Y3915000D01*
X2380000Y3905000D01*
X2370000D01*
X2380000Y3895000D01*
X2370000Y3885000D01*
X2380000D01*
X2390000Y3875000D01*
X2490000D02*
X2500000Y3885000D01*
X2510000D01*
X2500000Y3895000D01*
X2510000Y3905000D01*
X2500000D01*
X2490000Y3915000D01*
X2480000Y3905000D01*
X2470000D01*
X2480000Y3895000D01*
X2470000Y3885000D01*
X2480000D01*
X2490000Y3875000D01*
X2590000D02*
X2600000Y3885000D01*
X2610000D01*
X2600000Y3895000D01*
X2610000Y3905000D01*
X2600000D01*
X2590000Y3915000D01*
X2580000Y3905000D01*
X2570000D01*
X2580000Y3895000D01*
X2570000Y3885000D01*
X2580000D01*
X2590000Y3875000D01*
X2690000Y2875000D02*
X2700000Y2885000D01*
X2710000D01*
X2700000Y2895000D01*
X2710000Y2905000D01*
X2700000D01*
X2690000Y2915000D01*
X2680000Y2905000D01*
X2670000D01*
X2680000Y2895000D01*
X2670000Y2885000D01*
X2680000D01*
X2690000Y2875000D01*
X390000D02*
X400000Y2885000D01*
X410000D01*
X400000Y2895000D01*
X410000Y2905000D01*
X400000D01*
X390000Y2915000D01*
X380000Y2905000D01*
X370000D01*
X380000Y2895000D01*
X370000Y2885000D01*
X380000D01*
X390000Y2875000D01*
X490000D02*
X500000Y2885000D01*
X510000D01*
X500000Y2895000D01*
X510000Y2905000D01*
X500000D01*
X490000Y2915000D01*
X480000Y2905000D01*
X470000D01*
X480000Y2895000D01*
X470000Y2885000D01*
X480000D01*
X490000Y2875000D01*
X590000D02*
X600000Y2885000D01*
X610000D01*
X600000Y2895000D01*
X610000Y2905000D01*
X600000D01*
X590000Y2915000D01*
X580000Y2905000D01*
X570000D01*
X580000Y2895000D01*
X570000Y2885000D01*
X580000D01*
X590000Y2875000D01*
X690000D02*
X700000Y2885000D01*
X710000D01*
X700000Y2895000D01*
X710000Y2905000D01*
X700000D01*
X690000Y2915000D01*
X680000Y2905000D01*
X670000D01*
X680000Y2895000D01*
X670000Y2885000D01*
X680000D01*
X690000Y2875000D01*
X790000D02*
X800000Y2885000D01*
X810000D01*
X800000Y2895000D01*
X810000Y2905000D01*
X800000D01*
X790000Y2915000D01*
X780000Y2905000D01*
X770000D01*
X780000Y2895000D01*
X770000Y2885000D01*
X780000D01*
X790000Y2875000D01*
X890000D02*
X900000Y2885000D01*
X910000D01*
X900000Y2895000D01*
X910000Y2905000D01*
X900000D01*
X890000Y2915000D01*
X880000Y2905000D01*
X870000D01*
X880000Y2895000D01*
X870000Y2885000D01*
X880000D01*
X890000Y2875000D01*
X990000D02*
X1000000Y2885000D01*
X1010000D01*
X1000000Y2895000D01*
X1010000Y2905000D01*
X1000000D01*
X990000Y2915000D01*
X980000Y2905000D01*
X970000D01*
X980000Y2895000D01*
X970000Y2885000D01*
X980000D01*
X990000Y2875000D01*
X1090000D02*
X1100000Y2885000D01*
X1110000D01*
X1100000Y2895000D01*
X1110000Y2905000D01*
X1100000D01*
X1090000Y2915000D01*
X1080000Y2905000D01*
X1070000D01*
X1080000Y2895000D01*
X1070000Y2885000D01*
X1080000D01*
X1090000Y2875000D01*
X1190000D02*
X1200000Y2885000D01*
X1210000D01*
X1200000Y2895000D01*
X1210000Y2905000D01*
X1200000D01*
X1190000Y2915000D01*
X1180000Y2905000D01*
X1170000D01*
X1180000Y2895000D01*
X1170000Y2885000D01*
X1180000D01*
X1190000Y2875000D01*
X1290000D02*
X1300000Y2885000D01*
X1310000D01*
X1300000Y2895000D01*
X1310000Y2905000D01*
X1300000D01*
X1290000Y2915000D01*
X1280000Y2905000D01*
X1270000D01*
X1280000Y2895000D01*
X1270000Y2885000D01*
X1280000D01*
X1290000Y2875000D01*
X1390000D02*
X1400000Y2885000D01*
X1410000D01*
X1400000Y2895000D01*
X1410000Y2905000D01*
X1400000D01*
X1390000Y2915000D01*
X1380000Y2905000D01*
X1370000D01*
X1380000Y2895000D01*
X1370000Y2885000D01*
X1380000D01*
X1390000Y2875000D01*
X1490000D02*
X1500000Y2885000D01*
X1510000D01*
X1500000Y2895000D01*
X1510000Y2905000D01*
X1500000D01*
X1490000Y2915000D01*
X1480000Y2905000D01*
X1470000D01*
X1480000Y2895000D01*
X1470000Y2885000D01*
X1480000D01*
X1490000Y2875000D01*
X1590000D02*
X1600000Y2885000D01*
X1610000D01*
X1600000Y2895000D01*
X1610000Y2905000D01*
X1600000D01*
X1590000Y2915000D01*
X1580000Y2905000D01*
X1570000D01*
X1580000Y2895000D01*
X1570000Y2885000D01*
X1580000D01*
X1590000Y2875000D01*
X1690000D02*
X1700000Y2885000D01*
X1710000D01*
X1700000Y2895000D01*
X1710000Y2905000D01*
X1700000D01*
X1690000Y2915000D01*
X1680000Y2905000D01*
X1670000D01*
X1680000Y2895000D01*
X1670000Y2885000D01*
X1680000D01*
X1690000Y2875000D01*
X1790000D02*
X1800000Y2885000D01*
X1810000D01*
X1800000Y2895000D01*
X1810000Y2905000D01*
X1800000D01*
X1790000Y2915000D01*
X1780000Y2905000D01*
X1770000D01*
X1780000Y2895000D01*
X1770000Y2885000D01*
X1780000D01*
X1790000Y2875000D01*
X1890000D02*
X1900000Y2885000D01*
X1910000D01*
X1900000Y2895000D01*
X1910000Y2905000D01*
X1900000D01*
X1890000Y2915000D01*
X1880000Y2905000D01*
X1870000D01*
X1880000Y2895000D01*
X1870000Y2885000D01*
X1880000D01*
X1890000Y2875000D01*
X1990000D02*
X2000000Y2885000D01*
X2010000D01*
X2000000Y2895000D01*
X2010000Y2905000D01*
X2000000D01*
X1990000Y2915000D01*
X1980000Y2905000D01*
X1970000D01*
X1980000Y2895000D01*
X1970000Y2885000D01*
X1980000D01*
X1990000Y2875000D01*
X2090000D02*
X2100000Y2885000D01*
X2110000D01*
X2100000Y2895000D01*
X2110000Y2905000D01*
X2100000D01*
X2090000Y2915000D01*
X2080000Y2905000D01*
X2070000D01*
X2080000Y2895000D01*
X2070000Y2885000D01*
X2080000D01*
X2090000Y2875000D01*
X2190000D02*
X2200000Y2885000D01*
X2210000D01*
X2200000Y2895000D01*
X2210000Y2905000D01*
X2200000D01*
X2190000Y2915000D01*
X2180000Y2905000D01*
X2170000D01*
X2180000Y2895000D01*
X2170000Y2885000D01*
X2180000D01*
X2190000Y2875000D01*
X2290000D02*
X2300000Y2885000D01*
X2310000D01*
X2300000Y2895000D01*
X2310000Y2905000D01*
X2300000D01*
X2290000Y2915000D01*
X2280000Y2905000D01*
X2270000D01*
X2280000Y2895000D01*
X2270000Y2885000D01*
X2280000D01*
X2290000Y2875000D01*
X2390000D02*
X2400000Y2885000D01*
X2410000D01*
X2400000Y2895000D01*
X2410000Y2905000D01*
X2400000D01*
X2390000Y2915000D01*
X2380000Y2905000D01*
X2370000D01*
X2380000Y2895000D01*
X2370000Y2885000D01*
X2380000D01*
X2390000Y2875000D01*
X2490000D02*
X2500000Y2885000D01*
X2510000D01*
X2500000Y2895000D01*
X2510000Y2905000D01*
X2500000D01*
X2490000Y2915000D01*
X2480000Y2905000D01*
X2470000D01*
X2480000Y2895000D01*
X2470000Y2885000D01*
X2480000D01*
X2490000Y2875000D01*
X2590000D02*
X2600000Y2885000D01*
X2610000D01*
X2600000Y2895000D01*
X2610000Y2905000D01*
X2600000D01*
X2590000Y2915000D01*
X2580000Y2905000D01*
X2570000D01*
X2580000Y2895000D01*
X2570000Y2885000D01*
X2580000D01*
X2590000Y2875000D01*
X425000Y445000D02*
X435000Y455000D01*
X445000D01*
X435000Y465000D01*
X445000Y475000D01*
X435000D01*
X425000Y485000D01*
X415000Y475000D01*
X405000D01*
X415000Y465000D01*
X405000Y455000D01*
X415000D01*
X425000Y445000D01*
X525000D02*
X535000Y455000D01*
X545000D01*
X535000Y465000D01*
X545000Y475000D01*
X535000D01*
X525000Y485000D01*
X515000Y475000D01*
X505000D01*
X515000Y465000D01*
X505000Y455000D01*
X515000D01*
X525000Y445000D01*
X800000Y1045000D02*
X810000Y1055000D01*
X820000D01*
X810000Y1065000D01*
X820000Y1075000D01*
X810000D01*
X800000Y1085000D01*
X790000Y1075000D01*
X780000D01*
X790000Y1065000D01*
X780000Y1055000D01*
X790000D01*
X800000Y1045000D01*
X900000D02*
X910000Y1055000D01*
X920000D01*
X910000Y1065000D01*
X920000Y1075000D01*
X910000D01*
X900000Y1085000D01*
X890000Y1075000D01*
X880000D01*
X890000Y1065000D01*
X880000Y1055000D01*
X890000D01*
X900000Y1045000D01*
X1875000Y305000D02*
X1885000Y315000D01*
X1895000D01*
X1885000Y325000D01*
X1895000Y335000D01*
X1885000D01*
X1875000Y345000D01*
X1865000Y335000D01*
X1855000D01*
X1865000Y325000D01*
X1855000Y315000D01*
X1865000D01*
X1875000Y305000D01*
X1775000D02*
X1785000Y315000D01*
X1795000D01*
X1785000Y325000D01*
X1795000Y335000D01*
X1785000D01*
X1775000Y345000D01*
X1765000Y335000D01*
X1755000D01*
X1765000Y325000D01*
X1755000Y315000D01*
X1765000D01*
X1775000Y305000D01*
X900000Y765000D02*
X910000Y775000D01*
X920000D01*
X910000Y785000D01*
X920000Y795000D01*
X910000D01*
X900000Y805000D01*
X890000Y795000D01*
X880000D01*
X890000Y785000D01*
X880000Y775000D01*
X890000D01*
X900000Y765000D01*
X800000D02*
X810000Y775000D01*
X820000D01*
X810000Y785000D01*
X820000Y795000D01*
X810000D01*
X800000Y805000D01*
X790000Y795000D01*
X780000D01*
X790000Y785000D01*
X780000Y775000D01*
X790000D01*
X800000Y765000D01*
X2005000Y2370000D02*
Y2360000D01*
X2025000D01*
Y2370000D01*
X2035000D01*
Y2390000D01*
X2025000D01*
Y2400000D01*
X2005000D01*
Y2390000D01*
X1995000D01*
Y2370000D01*
X2005000D01*
X2035000Y2715000D02*
Y2705000D01*
X2055000D01*
Y2715000D01*
X2065000D01*
Y2735000D01*
X2055000D01*
Y2745000D01*
X2035000D01*
Y2735000D01*
X2025000D01*
Y2715000D01*
X2035000D01*
X1960000Y2425000D02*
Y2415000D01*
X1980000D01*
Y2425000D01*
X1990000D01*
Y2445000D01*
X1980000D01*
Y2455000D01*
X1960000D01*
Y2445000D01*
X1950000D01*
Y2425000D01*
X1960000D01*
X1810000Y2285000D02*
Y2275000D01*
X1830000D01*
Y2285000D01*
X1840000D01*
Y2305000D01*
X1830000D01*
Y2315000D01*
X1810000D01*
Y2305000D01*
X1800000D01*
Y2285000D01*
X1810000D01*
X1525000Y1563436D02*
Y1553436D01*
X1545000D01*
Y1563436D01*
X1555000D01*
Y1583436D01*
X1545000D01*
Y1593436D01*
X1525000D01*
Y1583436D01*
X1515000D01*
Y1563436D01*
X1525000D01*
X1540000Y1690000D02*
Y1680000D01*
X1560000D01*
Y1690000D01*
X1570000D01*
Y1710000D01*
X1560000D01*
Y1720000D01*
X1540000D01*
Y1710000D01*
X1530000D01*
Y1690000D01*
X1540000D01*
X1255000Y738436D02*
Y728436D01*
X1275000D01*
Y738436D01*
X1285000D01*
Y758436D01*
X1275000D01*
Y768436D01*
X1255000D01*
Y758436D01*
X1245000D01*
Y738436D01*
X1255000D01*
X1555000Y2265000D02*
Y2255000D01*
X1575000D01*
Y2265000D01*
X1585000D01*
Y2285000D01*
X1575000D01*
Y2295000D01*
X1555000D01*
Y2285000D01*
X1545000D01*
Y2265000D01*
X1555000D01*
X1691038Y2138952D02*
Y2128952D01*
X1711038D01*
Y2138952D01*
X1721038D01*
Y2158952D01*
X1711038D01*
Y2168952D01*
X1691038D01*
Y2158952D01*
X1681038D01*
Y2138952D01*
X1691038D01*
X3315000Y2825000D02*
X3325000D01*
X3335000Y2835000D01*
X3345000Y2825000D01*
X3355000D01*
Y2835000D01*
X3345000Y2845000D01*
X3355000Y2855000D01*
Y2865000D01*
X3345000D01*
X3335000Y2855000D01*
X3325000Y2865000D01*
X3315000D01*
Y2855000D01*
X3325000Y2845000D01*
X3315000Y2835000D01*
Y2825000D01*
Y1625000D02*
X3325000D01*
X3335000Y1635000D01*
X3345000Y1625000D01*
X3355000D01*
Y1635000D01*
X3345000Y1645000D01*
X3355000Y1655000D01*
Y1665000D01*
X3345000D01*
X3335000Y1655000D01*
X3325000Y1665000D01*
X3315000D01*
Y1655000D01*
X3325000Y1645000D01*
X3315000Y1635000D01*
Y1625000D01*
Y1325000D02*
X3325000D01*
X3335000Y1335000D01*
X3345000Y1325000D01*
X3355000D01*
Y1335000D01*
X3345000Y1345000D01*
X3355000Y1355000D01*
Y1365000D01*
X3345000D01*
X3335000Y1355000D01*
X3325000Y1365000D01*
X3315000D01*
Y1355000D01*
X3325000Y1345000D01*
X3315000Y1335000D01*
Y1325000D01*
Y1025000D02*
X3325000D01*
X3335000Y1035000D01*
X3345000Y1025000D01*
X3355000D01*
Y1035000D01*
X3345000Y1045000D01*
X3355000Y1055000D01*
Y1065000D01*
X3345000D01*
X3335000Y1055000D01*
X3325000Y1065000D01*
X3315000D01*
Y1055000D01*
X3325000Y1045000D01*
X3315000Y1035000D01*
Y1025000D01*
Y3125000D02*
X3325000D01*
X3335000Y3135000D01*
X3345000Y3125000D01*
X3355000D01*
Y3135000D01*
X3345000Y3145000D01*
X3355000Y3155000D01*
Y3165000D01*
X3345000D01*
X3335000Y3155000D01*
X3325000Y3165000D01*
X3315000D01*
Y3155000D01*
X3325000Y3145000D01*
X3315000Y3135000D01*
Y3125000D01*
Y2525000D02*
X3325000D01*
X3335000Y2535000D01*
X3345000Y2525000D01*
X3355000D01*
Y2535000D01*
X3345000Y2545000D01*
X3355000Y2555000D01*
Y2565000D01*
X3345000D01*
X3335000Y2555000D01*
X3325000Y2565000D01*
X3315000D01*
Y2555000D01*
X3325000Y2545000D01*
X3315000Y2535000D01*
Y2525000D01*
Y2225000D02*
X3325000D01*
X3335000Y2235000D01*
X3345000Y2225000D01*
X3355000D01*
Y2235000D01*
X3345000Y2245000D01*
X3355000Y2255000D01*
Y2265000D01*
X3345000D01*
X3335000Y2255000D01*
X3325000Y2265000D01*
X3315000D01*
Y2255000D01*
X3325000Y2245000D01*
X3315000Y2235000D01*
Y2225000D01*
Y1925000D02*
X3325000D01*
X3335000Y1935000D01*
X3345000Y1925000D01*
X3355000D01*
Y1935000D01*
X3345000Y1945000D01*
X3355000Y1955000D01*
Y1965000D01*
X3345000D01*
X3335000Y1955000D01*
X3325000Y1965000D01*
X3315000D01*
Y1955000D01*
X3325000Y1945000D01*
X3315000Y1935000D01*
Y1925000D01*
Y725000D02*
X3325000D01*
X3335000Y735000D01*
X3345000Y725000D01*
X3355000D01*
Y735000D01*
X3345000Y745000D01*
X3355000Y755000D01*
Y765000D01*
X3345000D01*
X3335000Y755000D01*
X3325000Y765000D01*
X3315000D01*
Y755000D01*
X3325000Y745000D01*
X3315000Y735000D01*
Y725000D01*
Y3425000D02*
X3325000D01*
X3335000Y3435000D01*
X3345000Y3425000D01*
X3355000D01*
Y3435000D01*
X3345000Y3445000D01*
X3355000Y3455000D01*
Y3465000D01*
X3345000D01*
X3335000Y3455000D01*
X3325000Y3465000D01*
X3315000D01*
Y3455000D01*
X3325000Y3445000D01*
X3315000Y3435000D01*
Y3425000D01*
X55000Y745000D02*
X65000D01*
X75000Y755000D01*
X85000Y745000D01*
X95000D01*
Y755000D01*
X85000Y765000D01*
X95000Y775000D01*
Y785000D01*
X85000D01*
X75000Y775000D01*
X65000Y785000D01*
X55000D01*
Y775000D01*
X65000Y765000D01*
X55000Y755000D01*
Y745000D01*
Y1045000D02*
X65000D01*
X75000Y1055000D01*
X85000Y1045000D01*
X95000D01*
Y1055000D01*
X85000Y1065000D01*
X95000Y1075000D01*
Y1085000D01*
X85000D01*
X75000Y1075000D01*
X65000Y1085000D01*
X55000D01*
Y1075000D01*
X65000Y1065000D01*
X55000Y1055000D01*
Y1045000D01*
Y1345000D02*
X65000D01*
X75000Y1355000D01*
X85000Y1345000D01*
X95000D01*
Y1355000D01*
X85000Y1365000D01*
X95000Y1375000D01*
Y1385000D01*
X85000D01*
X75000Y1375000D01*
X65000Y1385000D01*
X55000D01*
Y1375000D01*
X65000Y1365000D01*
X55000Y1355000D01*
Y1345000D01*
Y1645000D02*
X65000D01*
X75000Y1655000D01*
X85000Y1645000D01*
X95000D01*
Y1655000D01*
X85000Y1665000D01*
X95000Y1675000D01*
Y1685000D01*
X85000D01*
X75000Y1675000D01*
X65000Y1685000D01*
X55000D01*
Y1675000D01*
X65000Y1665000D01*
X55000Y1655000D01*
Y1645000D01*
Y1945000D02*
X65000D01*
X75000Y1955000D01*
X85000Y1945000D01*
X95000D01*
Y1955000D01*
X85000Y1965000D01*
X95000Y1975000D01*
Y1985000D01*
X85000D01*
X75000Y1975000D01*
X65000Y1985000D01*
X55000D01*
Y1975000D01*
X65000Y1965000D01*
X55000Y1955000D01*
Y1945000D01*
Y2245000D02*
X65000D01*
X75000Y2255000D01*
X85000Y2245000D01*
X95000D01*
Y2255000D01*
X85000Y2265000D01*
X95000Y2275000D01*
Y2285000D01*
X85000D01*
X75000Y2275000D01*
X65000Y2285000D01*
X55000D01*
Y2275000D01*
X65000Y2265000D01*
X55000Y2255000D01*
Y2245000D01*
Y2545000D02*
X65000D01*
X75000Y2555000D01*
X85000Y2545000D01*
X95000D01*
Y2555000D01*
X85000Y2565000D01*
X95000Y2575000D01*
Y2585000D01*
X85000D01*
X75000Y2575000D01*
X65000Y2585000D01*
X55000D01*
Y2575000D01*
X65000Y2565000D01*
X55000Y2555000D01*
Y2545000D01*
Y2845000D02*
X65000D01*
X75000Y2855000D01*
X85000Y2845000D01*
X95000D01*
Y2855000D01*
X85000Y2865000D01*
X95000Y2875000D01*
Y2885000D01*
X85000D01*
X75000Y2875000D01*
X65000Y2885000D01*
X55000D01*
Y2875000D01*
X65000Y2865000D01*
X55000Y2855000D01*
Y2845000D01*
Y3145000D02*
X65000D01*
X75000Y3155000D01*
X85000Y3145000D01*
X95000D01*
Y3155000D01*
X85000Y3165000D01*
X95000Y3175000D01*
Y3185000D01*
X85000D01*
X75000Y3175000D01*
X65000Y3185000D01*
X55000D01*
Y3175000D01*
X65000Y3165000D01*
X55000Y3155000D01*
Y3145000D01*
Y3445000D02*
X65000D01*
X75000Y3455000D01*
X85000Y3445000D01*
X95000D01*
Y3455000D01*
X85000Y3465000D01*
X95000Y3475000D01*
Y3485000D01*
X85000D01*
X75000Y3475000D01*
X65000Y3485000D01*
X55000D01*
Y3475000D01*
X65000Y3465000D01*
X55000Y3455000D01*
Y3445000D01*
X2255000Y1245000D02*
Y1235000D01*
X2275000D01*
Y1245000D01*
X2285000D01*
Y1265000D01*
X2275000D01*
Y1275000D01*
X2255000D01*
Y1265000D01*
X2245000D01*
Y1245000D01*
X2255000D01*
X1875000Y905000D02*
Y895000D01*
X1895000D01*
Y905000D01*
X1905000D01*
Y925000D01*
X1895000D01*
Y935000D01*
X1875000D01*
Y925000D01*
X1865000D01*
Y905000D01*
X1875000D01*
X1840000Y835000D02*
Y825000D01*
X1860000D01*
Y835000D01*
X1870000D01*
Y855000D01*
X1860000D01*
Y865000D01*
X1840000D01*
Y855000D01*
X1830000D01*
Y835000D01*
X1840000D01*
X2400000Y547000D02*
Y537000D01*
X2420000D01*
Y547000D01*
X2430000D01*
Y567000D01*
X2420000D01*
Y577000D01*
X2400000D01*
Y567000D01*
X2390000D01*
Y547000D01*
X2400000D01*
X2230000Y480000D02*
Y470000D01*
X2250000D01*
Y480000D01*
X2260000D01*
Y500000D01*
X2250000D01*
Y510000D01*
X2230000D01*
Y500000D01*
X2220000D01*
Y480000D01*
X2230000D01*
X2100000Y415000D02*
Y405000D01*
X2120000D01*
Y415000D01*
X2130000D01*
Y435000D01*
X2120000D01*
Y445000D01*
X2100000D01*
Y435000D01*
X2090000D01*
Y415000D01*
X2100000D01*
X595000Y775000D02*
Y765000D01*
X615000D01*
Y775000D01*
X625000D01*
Y795000D01*
X615000D01*
Y805000D01*
X595000D01*
Y795000D01*
X585000D01*
Y775000D01*
X595000D01*
X2565000Y1020000D02*
Y1010000D01*
X2585000D01*
Y1020000D01*
X2595000D01*
Y1040000D01*
X2585000D01*
Y1050000D01*
X2565000D01*
Y1040000D01*
X2555000D01*
Y1020000D01*
X2565000D01*
X2440000Y1150000D02*
Y1140000D01*
X2460000D01*
Y1150000D01*
X2470000D01*
Y1170000D01*
X2460000D01*
Y1180000D01*
X2440000D01*
Y1170000D01*
X2430000D01*
Y1150000D01*
X2440000D01*
X1860000Y1060000D02*
Y1050000D01*
X1880000D01*
Y1060000D01*
X1890000D01*
Y1080000D01*
X1880000D01*
Y1090000D01*
X1860000D01*
Y1080000D01*
X1850000D01*
Y1060000D01*
X1860000D01*
X1900000Y2520000D02*
Y2510000D01*
X1920000D01*
Y2520000D01*
X1930000D01*
Y2540000D01*
X1920000D01*
Y2550000D01*
X1900000D01*
Y2540000D01*
X1890000D01*
Y2520000D01*
X1900000D01*
X1655000Y2555000D02*
Y2545000D01*
X1675000D01*
Y2555000D01*
X1685000D01*
Y2575000D01*
X1675000D01*
Y2585000D01*
X1655000D01*
Y2575000D01*
X1645000D01*
Y2555000D01*
X1655000D01*
X1580386D02*
Y2545000D01*
X1600386D01*
Y2555000D01*
X1610386D01*
Y2575000D01*
X1600386D01*
Y2585000D01*
X1580386D01*
Y2575000D01*
X1570386D01*
Y2555000D01*
X1580386D01*
X1565000Y2695000D02*
Y2685000D01*
X1585000D01*
Y2695000D01*
X1595000D01*
Y2715000D01*
X1585000D01*
Y2725000D01*
X1565000D01*
Y2715000D01*
X1555000D01*
Y2695000D01*
X1565000D01*
X1780000Y2725000D02*
Y2715000D01*
X1800000D01*
Y2725000D01*
X1810000D01*
Y2745000D01*
X1800000D01*
Y2755000D01*
X1780000D01*
Y2745000D01*
X1770000D01*
Y2725000D01*
X1780000D01*
X1895000Y2605000D02*
Y2595000D01*
X1915000D01*
Y2605000D01*
X1925000D01*
Y2625000D01*
X1915000D01*
Y2635000D01*
X1895000D01*
Y2625000D01*
X1885000D01*
Y2605000D01*
X1895000D01*
X1840000Y2665000D02*
Y2655000D01*
X1860000D01*
Y2665000D01*
X1870000D01*
Y2685000D01*
X1860000D01*
Y2695000D01*
X1840000D01*
Y2685000D01*
X1830000D01*
Y2665000D01*
X1840000D01*
X1730000Y2775000D02*
Y2765000D01*
X1750000D01*
Y2775000D01*
X1760000D01*
Y2795000D01*
X1750000D01*
Y2805000D01*
X1730000D01*
Y2795000D01*
X1720000D01*
Y2775000D01*
X1730000D01*
X2770000Y1890000D02*
Y1880000D01*
X2790000D01*
Y1890000D01*
X2800000D01*
Y1910000D01*
X2790000D01*
Y1920000D01*
X2770000D01*
Y1910000D01*
X2760000D01*
Y1890000D01*
X2770000D01*
X2473000Y1070000D02*
Y1060000D01*
X2493000D01*
Y1070000D01*
X2503000D01*
Y1090000D01*
X2493000D01*
Y1100000D01*
X2473000D01*
Y1090000D01*
X2463000D01*
Y1070000D01*
X2473000D01*
X2570000Y1670543D02*
Y1660543D01*
X2590000D01*
Y1670543D01*
X2600000D01*
Y1690543D01*
X2590000D01*
Y1700543D01*
X2570000D01*
Y1690543D01*
X2560000D01*
Y1670543D01*
X2570000D01*
X1555000Y2625000D02*
Y2615000D01*
X1575000D01*
Y2625000D01*
X1585000D01*
Y2645000D01*
X1575000D01*
Y2655000D01*
X1555000D01*
Y2645000D01*
X1545000D01*
Y2625000D01*
X1555000D01*
X2245000Y3470000D02*
Y3460000D01*
X2265000D01*
Y3470000D01*
X2275000D01*
Y3490000D01*
X2265000D01*
Y3500000D01*
X2245000D01*
Y3490000D01*
X2235000D01*
Y3470000D01*
X2245000D01*
X2110000Y3430000D02*
Y3420000D01*
X2130000D01*
Y3430000D01*
X2140000D01*
Y3450000D01*
X2130000D01*
Y3460000D01*
X2110000D01*
Y3450000D01*
X2100000D01*
Y3430000D01*
X2110000D01*
X1845000Y1735000D02*
Y1725000D01*
X1865000D01*
Y1735000D01*
X1875000D01*
Y1755000D01*
X1865000D01*
Y1765000D01*
X1845000D01*
Y1755000D01*
X1835000D01*
Y1735000D01*
X1845000D01*
X1485174Y1739826D02*
Y1729826D01*
X1505174D01*
Y1739826D01*
X1515174D01*
Y1759826D01*
X1505174D01*
Y1769826D01*
X1485174D01*
Y1759826D01*
X1475174D01*
Y1739826D01*
X1485174D01*
X1930000Y1710000D02*
Y1700000D01*
X1950000D01*
Y1710000D01*
X1960000D01*
Y1730000D01*
X1950000D01*
Y1740000D01*
X1930000D01*
Y1730000D01*
X1920000D01*
Y1710000D01*
X1930000D01*
X1730000Y1430000D02*
Y1420000D01*
X1750000D01*
Y1430000D01*
X1760000D01*
Y1450000D01*
X1750000D01*
Y1460000D01*
X1730000D01*
Y1450000D01*
X1720000D01*
Y1430000D01*
X1730000D01*
X1790000D02*
Y1420000D01*
X1810000D01*
Y1430000D01*
X1820000D01*
Y1450000D01*
X1810000D01*
Y1460000D01*
X1790000D01*
Y1450000D01*
X1780000D01*
Y1430000D01*
X1790000D01*
X1845000D02*
Y1420000D01*
X1865000D01*
Y1430000D01*
X1875000D01*
Y1450000D01*
X1865000D01*
Y1460000D01*
X1845000D01*
Y1450000D01*
X1835000D01*
Y1430000D01*
X1845000D01*
X1801666Y1697425D02*
Y1687425D01*
X1821666D01*
Y1697425D01*
X1831666D01*
Y1717425D01*
X1821666D01*
Y1727425D01*
X1801666D01*
Y1717425D01*
X1791666D01*
Y1697425D01*
X1801666D01*
X1385000Y1710000D02*
Y1700000D01*
X1405000D01*
Y1710000D01*
X1415000D01*
Y1730000D01*
X1405000D01*
Y1740000D01*
X1385000D01*
Y1730000D01*
X1375000D01*
Y1710000D01*
X1385000D01*
X1595000Y1450000D02*
Y1440000D01*
X1615000D01*
Y1450000D01*
X1625000D01*
Y1470000D01*
X1615000D01*
Y1480000D01*
X1595000D01*
Y1470000D01*
X1585000D01*
Y1450000D01*
X1595000D01*
X1525000Y1435000D02*
Y1425000D01*
X1545000D01*
Y1435000D01*
X1555000D01*
Y1455000D01*
X1545000D01*
Y1465000D01*
X1525000D01*
Y1455000D01*
X1515000D01*
Y1435000D01*
X1525000D01*
X2065000Y1200000D02*
Y1190000D01*
X2085000D01*
Y1200000D01*
X2095000D01*
Y1220000D01*
X2085000D01*
Y1230000D01*
X2065000D01*
Y1220000D01*
X2055000D01*
Y1200000D01*
X2065000D01*
X1432620Y867380D02*
Y857380D01*
X1452620D01*
Y867380D01*
X1462620D01*
Y887380D01*
X1452620D01*
Y897380D01*
X1432620D01*
Y887380D01*
X1422620D01*
Y867380D01*
X1432620D01*
X1449690Y985310D02*
Y975310D01*
X1469690D01*
Y985310D01*
X1479690D01*
Y1005310D01*
X1469690D01*
Y1015310D01*
X1449690D01*
Y1005310D01*
X1439690D01*
Y985310D01*
X1449690D01*
X1440000Y1055000D02*
Y1045000D01*
X1460000D01*
Y1055000D01*
X1470000D01*
Y1075000D01*
X1460000D01*
Y1085000D01*
X1440000D01*
Y1075000D01*
X1430000D01*
Y1055000D01*
X1440000D01*
X1065000Y1050000D02*
Y1040000D01*
X1085000D01*
Y1050000D01*
X1095000D01*
Y1070000D01*
X1085000D01*
Y1080000D01*
X1065000D01*
Y1070000D01*
X1055000D01*
Y1050000D01*
X1065000D01*
X1005000Y995000D02*
Y985000D01*
X1025000D01*
Y995000D01*
X1035000D01*
Y1015000D01*
X1025000D01*
Y1025000D01*
X1005000D01*
Y1015000D01*
X995000D01*
Y995000D01*
X1005000D01*
X1700000Y630000D02*
Y620000D01*
X1720000D01*
Y630000D01*
X1730000D01*
Y650000D01*
X1720000D01*
Y660000D01*
X1700000D01*
Y650000D01*
X1690000D01*
Y630000D01*
X1700000D01*
X1565000Y825000D02*
Y815000D01*
X1585000D01*
Y825000D01*
X1595000D01*
Y845000D01*
X1585000D01*
Y855000D01*
X1565000D01*
Y845000D01*
X1555000D01*
Y825000D01*
X1565000D01*
X1695000D02*
Y815000D01*
X1715000D01*
Y825000D01*
X1725000D01*
Y845000D01*
X1715000D01*
Y855000D01*
X1695000D01*
Y845000D01*
X1685000D01*
Y825000D01*
X1695000D01*
X1620000D02*
Y815000D01*
X1640000D01*
Y825000D01*
X1650000D01*
Y845000D01*
X1640000D01*
Y855000D01*
X1620000D01*
Y845000D01*
X1610000D01*
Y825000D01*
X1620000D01*
X1865000Y975000D02*
Y965000D01*
X1885000D01*
Y975000D01*
X1895000D01*
Y995000D01*
X1885000D01*
Y1005000D01*
X1865000D01*
Y995000D01*
X1855000D01*
Y975000D01*
X1865000D01*
X1860000Y1125000D02*
Y1115000D01*
X1880000D01*
Y1125000D01*
X1890000D01*
Y1145000D01*
X1880000D01*
Y1155000D01*
X1860000D01*
Y1145000D01*
X1850000D01*
Y1125000D01*
X1860000D01*
X1775000Y1245000D02*
Y1235000D01*
X1795000D01*
Y1245000D01*
X1805000D01*
Y1265000D01*
X1795000D01*
Y1275000D01*
X1775000D01*
Y1265000D01*
X1765000D01*
Y1245000D01*
X1775000D01*
X1135000Y650000D02*
Y640000D01*
X1155000D01*
Y650000D01*
X1165000D01*
Y670000D01*
X1155000D01*
Y680000D01*
X1135000D01*
Y670000D01*
X1125000D01*
Y650000D01*
X1135000D01*
X1165000Y590000D02*
Y580000D01*
X1185000D01*
Y590000D01*
X1195000D01*
Y610000D01*
X1185000D01*
Y620000D01*
X1165000D01*
Y610000D01*
X1155000D01*
Y590000D01*
X1165000D01*
X1330000Y605000D02*
Y595000D01*
X1350000D01*
Y605000D01*
X1360000D01*
Y625000D01*
X1350000D01*
Y635000D01*
X1330000D01*
Y625000D01*
X1320000D01*
Y605000D01*
X1330000D01*
X1395000Y585000D02*
Y575000D01*
X1415000D01*
Y585000D01*
X1425000D01*
Y605000D01*
X1415000D01*
Y615000D01*
X1395000D01*
Y605000D01*
X1385000D01*
Y585000D01*
X1395000D01*
X1260000Y630000D02*
Y620000D01*
X1280000D01*
Y630000D01*
X1290000D01*
Y650000D01*
X1280000D01*
Y660000D01*
X1260000D01*
Y650000D01*
X1250000D01*
Y630000D01*
X1260000D01*
X1165000Y2270000D02*
Y2260000D01*
X1185000D01*
Y2270000D01*
X1195000D01*
Y2290000D01*
X1185000D01*
Y2300000D01*
X1165000D01*
Y2290000D01*
X1155000D01*
Y2270000D01*
X1165000D01*
X1230000D02*
Y2260000D01*
X1250000D01*
Y2270000D01*
X1260000D01*
Y2290000D01*
X1250000D01*
Y2300000D01*
X1230000D01*
Y2290000D01*
X1220000D01*
Y2270000D01*
X1230000D01*
X1500000Y2290000D02*
Y2280000D01*
X1520000D01*
Y2290000D01*
X1530000D01*
Y2310000D01*
X1520000D01*
Y2320000D01*
X1500000D01*
Y2310000D01*
X1490000D01*
Y2290000D01*
X1500000D01*
X1865000Y1610000D02*
Y1600000D01*
X1885000D01*
Y1610000D01*
X1895000D01*
Y1630000D01*
X1885000D01*
Y1640000D01*
X1865000D01*
Y1630000D01*
X1855000D01*
Y1610000D01*
X1865000D01*
X1600000Y1215000D02*
Y1205000D01*
X1620000D01*
Y1215000D01*
X1630000D01*
Y1235000D01*
X1620000D01*
Y1245000D01*
X1600000D01*
Y1235000D01*
X1590000D01*
Y1215000D01*
X1600000D01*
X1680000D02*
Y1205000D01*
X1700000D01*
Y1215000D01*
X1710000D01*
Y1235000D01*
X1700000D01*
Y1245000D01*
X1680000D01*
Y1235000D01*
X1670000D01*
Y1215000D01*
X1680000D01*
X1565039Y965039D02*
X1585039Y985039D01*
X1605039Y965039D01*
X1585039Y945039D01*
X1565039Y965039D01*
Y1008346D02*
X1585039Y1028347D01*
X1605039Y1008346D01*
X1585039Y988346D01*
X1565039Y1008346D01*
Y1051654D02*
X1585039Y1071654D01*
X1605039Y1051654D01*
X1585039Y1031654D01*
X1565039Y1051654D01*
Y1094961D02*
X1585039Y1114961D01*
X1605039Y1094961D01*
X1585039Y1074961D01*
X1565039Y1094961D01*
X1608347Y965039D02*
X1628347Y985039D01*
X1648347Y965039D01*
X1628347Y945039D01*
X1608347Y965039D01*
Y1008346D02*
X1628347Y1028347D01*
X1648347Y1008346D01*
X1628347Y988346D01*
X1608347Y1008346D01*
Y1051654D02*
X1628347Y1071654D01*
X1648347Y1051654D01*
X1628347Y1031654D01*
X1608347Y1051654D01*
Y1094961D02*
X1628347Y1114961D01*
X1648347Y1094961D01*
X1628347Y1074961D01*
X1608347Y1094961D01*
X1651654Y965039D02*
X1671654Y985039D01*
X1691654Y965039D01*
X1671654Y945039D01*
X1651654Y965039D01*
Y1008346D02*
X1671654Y1028347D01*
X1691654Y1008346D01*
X1671654Y988346D01*
X1651654Y1008346D01*
Y1051654D02*
X1671654Y1071654D01*
X1691654Y1051654D01*
X1671654Y1031654D01*
X1651654Y1051654D01*
Y1094961D02*
X1671654Y1114961D01*
X1691654Y1094961D01*
X1671654Y1074961D01*
X1651654Y1094961D01*
X1694961Y965039D02*
X1714961Y985039D01*
X1734961Y965039D01*
X1714961Y945039D01*
X1694961Y965039D01*
Y1008346D02*
X1714961Y1028347D01*
X1734961Y1008346D01*
X1714961Y988346D01*
X1694961Y1008346D01*
Y1051654D02*
X1714961Y1071654D01*
X1734961Y1051654D01*
X1714961Y1031654D01*
X1694961Y1051654D01*
Y1094961D02*
X1714961Y1114961D01*
X1734961Y1094961D01*
X1714961Y1074961D01*
X1694961Y1094961D01*
D101*
X2135000Y2355000D02*
G03*
X2135000Y2355000I-20000J0D01*
G01*
X2335000D02*
G03*
X2335000Y2355000I-20000J0D01*
G01*
Y2555000D02*
G03*
X2335000Y2555000I-20000J0D01*
G01*
X2135000D02*
G03*
X2135000Y2555000I-20000J0D01*
G01*
X805000Y2355000D02*
G03*
X805000Y2355000I-20000J0D01*
G01*
X1005000D02*
G03*
X1005000Y2355000I-20000J0D01*
G01*
Y2555000D02*
G03*
X1005000Y2555000I-20000J0D01*
G01*
X805000D02*
G03*
X805000Y2555000I-20000J0D01*
G01*
X1055000Y1555000D02*
G03*
X1055000Y1555000I-20000J0D01*
G01*
X1255000D02*
G03*
X1255000Y1555000I-20000J0D01*
G01*
Y1355000D02*
G03*
X1255000Y1355000I-20000J0D01*
G01*
X1055000D02*
G03*
X1055000Y1355000I-20000J0D01*
G01*
Y1855000D02*
G03*
X1055000Y1855000I-20000J0D01*
G01*
X1255000D02*
G03*
X1255000Y1855000I-20000J0D01*
G01*
Y2055000D02*
G03*
X1255000Y2055000I-20000J0D01*
G01*
X1055000D02*
G03*
X1055000Y2055000I-20000J0D01*
G01*
X2135000Y1855000D02*
G03*
X2135000Y1855000I-20000J0D01*
G01*
X2335000D02*
G03*
X2335000Y1855000I-20000J0D01*
G01*
Y2055000D02*
G03*
X2335000Y2055000I-20000J0D01*
G01*
X2135000D02*
G03*
X2135000Y2055000I-20000J0D01*
G01*
X555000Y1555000D02*
G03*
X555000Y1555000I-20000J0D01*
G01*
X755000D02*
G03*
X755000Y1555000I-20000J0D01*
G01*
Y1355000D02*
G03*
X755000Y1355000I-20000J0D01*
G01*
X555000D02*
G03*
X555000Y1355000I-20000J0D01*
G01*
Y2055000D02*
G03*
X555000Y2055000I-20000J0D01*
G01*
X755000D02*
G03*
X755000Y2055000I-20000J0D01*
G01*
Y1855000D02*
G03*
X755000Y1855000I-20000J0D01*
G01*
X555000D02*
G03*
X555000Y1855000I-20000J0D01*
G01*
X2135000Y1555000D02*
G03*
X2135000Y1555000I-20000J0D01*
G01*
X2335000D02*
G03*
X2335000Y1555000I-20000J0D01*
G01*
Y1355000D02*
G03*
X2335000Y1355000I-20000J0D01*
G01*
X2135000D02*
G03*
X2135000Y1355000I-20000J0D01*
G01*
%TF.MD5,26410045bb6f0dad068662bc71fd4488*%
M02*
