%TF.GenerationSoftware,Altium Limited,Altium Designer,22.3.1 (43)*%
G04 Layer_Physical_Order=1*
G04 Layer_Color=255*
%FSLAX26Y26*%
%MOIN*%
%TF.SameCoordinates,25215B7F-5601-44EC-B639-707B6E2D0B24*%
%TF.FilePolarity,Positive*%
%TF.FileFunction,Copper,L1,Top,Signal*%
%TF.Part,Single*%
G01*
G75*
%TA.AperFunction,SMDPad,CuDef*%
%ADD10R,0.031496X0.037402*%
%ADD11R,0.037402X0.031496*%
%ADD12R,0.037402X0.041339*%
%ADD13R,0.017716X0.058071*%
G04:AMPARAMS|DCode=14|XSize=23.622mil|YSize=39.37mil|CornerRadius=2.008mil|HoleSize=0mil|Usage=FLASHONLY|Rotation=90.000|XOffset=0mil|YOffset=0mil|HoleType=Round|Shape=RoundedRectangle|*
%AMROUNDEDRECTD14*
21,1,0.023622,0.035354,0,0,90.0*
21,1,0.019606,0.039370,0,0,90.0*
1,1,0.004016,0.017677,0.009803*
1,1,0.004016,0.017677,-0.009803*
1,1,0.004016,-0.017677,-0.009803*
1,1,0.004016,-0.017677,0.009803*
%
%ADD14ROUNDEDRECTD14*%
%ADD15R,0.041339X0.037402*%
%ADD16R,0.011811X0.033465*%
%ADD17R,0.035827X0.048032*%
%ADD18O,0.007874X0.035433*%
%ADD19O,0.035433X0.007874*%
%ADD20R,0.157480X0.157480*%
%TA.AperFunction,Conductor*%
%ADD21C,0.030000*%
%ADD22C,0.015000*%
%ADD23C,0.010000*%
%ADD24C,0.020000*%
%ADD25R,0.050000X0.200000*%
%ADD26R,0.040000X0.040000*%
%ADD27R,0.015000X0.025000*%
%ADD28R,0.035000X0.035000*%
%ADD29R,0.050000X0.205000*%
%ADD30R,0.135000X0.395000*%
%ADD31R,0.215000X0.045000*%
%TA.AperFunction,ComponentPad*%
%ADD32C,0.058000*%
%ADD33C,0.082677*%
%ADD34C,0.078740*%
%TA.AperFunction,ViaPad*%
%ADD35C,0.059055*%
%TA.AperFunction,ComponentPad*%
%ADD36R,0.059055X0.059055*%
%ADD37C,0.059055*%
%ADD38C,0.200000*%
%ADD39R,0.059055X0.059055*%
%TA.AperFunction,ViaPad*%
%ADD40C,0.034000*%
%ADD41C,0.065000*%
%ADD42C,0.025000*%
G36*
X3394707Y15293D02*
X15293D01*
Y4049707D01*
X3394707D01*
Y15293D01*
D02*
G37*
%LPC*%
G36*
X3270000Y4024787D02*
Y3925000D01*
X3369787D01*
X3367291Y3940758D01*
X3361941Y3957225D01*
X3354080Y3972653D01*
X3343903Y3986660D01*
X3331660Y3998903D01*
X3317653Y4009080D01*
X3302225Y4016941D01*
X3285758Y4022291D01*
X3270000Y4024787D01*
D02*
G37*
G36*
X160000D02*
Y3925000D01*
X259787D01*
X257291Y3940758D01*
X251941Y3957225D01*
X244080Y3972653D01*
X233903Y3986660D01*
X221660Y3998903D01*
X207653Y4009080D01*
X192225Y4016941D01*
X175758Y4022291D01*
X160000Y4024787D01*
D02*
G37*
G36*
X3250000D02*
X3234242Y4022291D01*
X3217775Y4016941D01*
X3202347Y4009080D01*
X3188340Y3998903D01*
X3176097Y3986660D01*
X3165920Y3972653D01*
X3158059Y3957225D01*
X3152709Y3940758D01*
X3150213Y3925000D01*
X3250000D01*
Y4024787D01*
D02*
G37*
G36*
X140000D02*
X124242Y4022291D01*
X107775Y4016941D01*
X92347Y4009080D01*
X78340Y3998903D01*
X66097Y3986660D01*
X55920Y3972653D01*
X48059Y3957225D01*
X42709Y3940758D01*
X40213Y3925000D01*
X140000D01*
Y4024787D01*
D02*
G37*
G36*
X2729528Y3934528D02*
X2700000D01*
Y3905000D01*
X2729528D01*
Y3934528D01*
D02*
G37*
G36*
X2680000D02*
X2650472D01*
Y3905000D01*
X2680000D01*
Y3934528D01*
D02*
G37*
G36*
X2729528Y3885000D02*
X2700000D01*
Y3855472D01*
X2729528D01*
Y3885000D01*
D02*
G37*
G36*
X2680000D02*
X2650472D01*
Y3855472D01*
X2680000D01*
Y3885000D01*
D02*
G37*
G36*
X3369787Y3905000D02*
X3270000D01*
Y3805213D01*
X3285758Y3807709D01*
X3302225Y3813059D01*
X3317653Y3820920D01*
X3331660Y3831097D01*
X3343903Y3843340D01*
X3354080Y3857347D01*
X3361941Y3872775D01*
X3367291Y3889242D01*
X3369787Y3905000D01*
D02*
G37*
G36*
X259787D02*
X160000D01*
Y3805213D01*
X175758Y3807709D01*
X192225Y3813059D01*
X207653Y3820920D01*
X221660Y3831097D01*
X233903Y3843340D01*
X244080Y3857347D01*
X251941Y3872775D01*
X257291Y3889242D01*
X259787Y3905000D01*
D02*
G37*
G36*
X3250000D02*
X3150213D01*
X3152709Y3889242D01*
X3158059Y3872775D01*
X3165920Y3857347D01*
X3176097Y3843340D01*
X3188340Y3831097D01*
X3202347Y3820920D01*
X3217775Y3813059D01*
X3234242Y3807709D01*
X3250000Y3805213D01*
Y3905000D01*
D02*
G37*
G36*
X140000D02*
X40213D01*
X42709Y3889242D01*
X48059Y3872775D01*
X55920Y3857347D01*
X66097Y3843340D01*
X78340Y3831097D01*
X92347Y3820920D01*
X107775Y3813059D01*
X124242Y3807709D01*
X140000Y3805213D01*
Y3905000D01*
D02*
G37*
G36*
X2700000Y3732696D02*
Y3705000D01*
X2727696D01*
X2726342Y3710053D01*
X2721208Y3718947D01*
X2713947Y3726208D01*
X2705053Y3731342D01*
X2700000Y3732696D01*
D02*
G37*
G36*
X2680000D02*
X2674947Y3731342D01*
X2666053Y3726208D01*
X2658792Y3718947D01*
X2653658Y3710053D01*
X2652304Y3705000D01*
X2680000D01*
Y3732696D01*
D02*
G37*
G36*
X2594546Y3929528D02*
X2585454D01*
X2576673Y3927175D01*
X2568800Y3922629D01*
X2562371Y3916200D01*
X2557825Y3908327D01*
X2555472Y3899546D01*
Y3890454D01*
X2557825Y3881673D01*
X2559588Y3878620D01*
Y3710325D01*
X2558317Y3708124D01*
X2556000Y3699476D01*
Y3690524D01*
X2558317Y3681876D01*
X2562793Y3674124D01*
X2569124Y3667793D01*
X2576876Y3663317D01*
X2585524Y3661000D01*
X2594476D01*
X2603124Y3663317D01*
X2610876Y3667793D01*
X2617207Y3674124D01*
X2621683Y3681876D01*
X2624000Y3690524D01*
Y3699476D01*
X2621683Y3708124D01*
X2620412Y3710325D01*
Y3878620D01*
X2622175Y3881673D01*
X2624528Y3890454D01*
Y3899546D01*
X2622175Y3908327D01*
X2617629Y3916200D01*
X2611200Y3922629D01*
X2603327Y3927175D01*
X2594546Y3929528D01*
D02*
G37*
G36*
X2494546D02*
X2485454D01*
X2476673Y3927175D01*
X2468800Y3922629D01*
X2462371Y3916200D01*
X2457825Y3908327D01*
X2455472Y3899546D01*
Y3890454D01*
X2457825Y3881673D01*
X2459588Y3878620D01*
Y3710325D01*
X2458317Y3708124D01*
X2456000Y3699476D01*
Y3690524D01*
X2458317Y3681876D01*
X2462793Y3674124D01*
X2469124Y3667793D01*
X2476876Y3663317D01*
X2485524Y3661000D01*
X2494476D01*
X2503124Y3663317D01*
X2510876Y3667793D01*
X2517207Y3674124D01*
X2521683Y3681876D01*
X2524000Y3690524D01*
Y3699476D01*
X2521683Y3708124D01*
X2520412Y3710325D01*
Y3878620D01*
X2522175Y3881673D01*
X2524528Y3890454D01*
Y3899546D01*
X2522175Y3908327D01*
X2517629Y3916200D01*
X2511200Y3922629D01*
X2503327Y3927175D01*
X2494546Y3929528D01*
D02*
G37*
G36*
X2394546D02*
X2385454D01*
X2376673Y3927175D01*
X2368800Y3922629D01*
X2362371Y3916200D01*
X2357825Y3908327D01*
X2355472Y3899546D01*
Y3890454D01*
X2357825Y3881673D01*
X2359588Y3878620D01*
Y3710325D01*
X2358317Y3708124D01*
X2356000Y3699476D01*
Y3690524D01*
X2358317Y3681876D01*
X2360064Y3678850D01*
X2361173Y3676173D01*
X2361747Y3675935D01*
X2362793Y3674124D01*
X2369124Y3667793D01*
X2376876Y3663317D01*
X2385524Y3661000D01*
X2394476D01*
X2403124Y3663317D01*
X2410876Y3667793D01*
X2417207Y3674124D01*
X2418253Y3675935D01*
X2418827Y3676173D01*
X2419936Y3678850D01*
X2421683Y3681876D01*
X2424000Y3690524D01*
Y3699476D01*
X2421683Y3708124D01*
X2420412Y3710325D01*
Y3878620D01*
X2422175Y3881673D01*
X2424528Y3890454D01*
Y3899546D01*
X2422175Y3908327D01*
X2417629Y3916200D01*
X2411200Y3922629D01*
X2403327Y3927175D01*
X2394546Y3929528D01*
D02*
G37*
G36*
X2294546D02*
X2285454D01*
X2276673Y3927175D01*
X2268800Y3922629D01*
X2262371Y3916200D01*
X2257825Y3908327D01*
X2255472Y3899546D01*
Y3890454D01*
X2257825Y3881673D01*
X2259588Y3878620D01*
Y3710325D01*
X2258317Y3708124D01*
X2256000Y3699476D01*
Y3690524D01*
X2258317Y3681876D01*
X2262793Y3674124D01*
X2269124Y3667793D01*
X2276876Y3663317D01*
X2285524Y3661000D01*
X2294476D01*
X2303124Y3663317D01*
X2310876Y3667793D01*
X2317207Y3674124D01*
X2321683Y3681876D01*
X2324000Y3690524D01*
Y3699476D01*
X2321683Y3708124D01*
X2320412Y3710325D01*
Y3878620D01*
X2322175Y3881673D01*
X2324528Y3890454D01*
Y3899546D01*
X2322175Y3908327D01*
X2317629Y3916200D01*
X2311200Y3922629D01*
X2303327Y3927175D01*
X2294546Y3929528D01*
D02*
G37*
G36*
X2194546D02*
X2185454D01*
X2176673Y3927175D01*
X2168800Y3922629D01*
X2162371Y3916200D01*
X2157825Y3908327D01*
X2155472Y3899546D01*
Y3890454D01*
X2157825Y3881673D01*
X2159588Y3878620D01*
Y3710325D01*
X2158317Y3708124D01*
X2156000Y3699476D01*
Y3690524D01*
X2158317Y3681876D01*
X2162793Y3674124D01*
X2169124Y3667793D01*
X2176876Y3663317D01*
X2185524Y3661000D01*
X2194476D01*
X2203124Y3663317D01*
X2210876Y3667793D01*
X2217207Y3674124D01*
X2221683Y3681876D01*
X2224000Y3690524D01*
Y3699476D01*
X2221683Y3708124D01*
X2220412Y3710325D01*
Y3878620D01*
X2222175Y3881673D01*
X2224528Y3890454D01*
Y3899546D01*
X2222175Y3908327D01*
X2217629Y3916200D01*
X2211200Y3922629D01*
X2203327Y3927175D01*
X2194546Y3929528D01*
D02*
G37*
G36*
X2094546D02*
X2085454D01*
X2076673Y3927175D01*
X2068800Y3922629D01*
X2062371Y3916200D01*
X2057825Y3908327D01*
X2055472Y3899546D01*
Y3890454D01*
X2057825Y3881673D01*
X2059588Y3878620D01*
Y3710325D01*
X2058317Y3708124D01*
X2056000Y3699476D01*
Y3690524D01*
X2058317Y3681876D01*
X2062793Y3674124D01*
X2069124Y3667793D01*
X2076876Y3663317D01*
X2085524Y3661000D01*
X2094476D01*
X2103124Y3663317D01*
X2110876Y3667793D01*
X2117207Y3674124D01*
X2121683Y3681876D01*
X2124000Y3690524D01*
Y3699476D01*
X2121683Y3708124D01*
X2120412Y3710325D01*
Y3878620D01*
X2122175Y3881673D01*
X2124528Y3890454D01*
Y3899546D01*
X2122175Y3908327D01*
X2117629Y3916200D01*
X2111200Y3922629D01*
X2103327Y3927175D01*
X2094546Y3929528D01*
D02*
G37*
G36*
X1994546D02*
X1985454D01*
X1976673Y3927175D01*
X1968800Y3922629D01*
X1962371Y3916200D01*
X1957825Y3908327D01*
X1955473Y3899546D01*
Y3890454D01*
X1957825Y3881673D01*
X1959588Y3878620D01*
Y3710325D01*
X1958317Y3708124D01*
X1956000Y3699476D01*
Y3690524D01*
X1958317Y3681876D01*
X1962793Y3674124D01*
X1969123Y3667793D01*
X1976877Y3663317D01*
X1985524Y3661000D01*
X1994476D01*
X2003123Y3663317D01*
X2010877Y3667793D01*
X2017207Y3674124D01*
X2021683Y3681876D01*
X2024000Y3690524D01*
Y3699476D01*
X2021683Y3708124D01*
X2020412Y3710325D01*
Y3878620D01*
X2022175Y3881673D01*
X2024527Y3890454D01*
Y3899546D01*
X2022175Y3908327D01*
X2017629Y3916200D01*
X2011200Y3922629D01*
X2003327Y3927175D01*
X1994546Y3929528D01*
D02*
G37*
G36*
X1894546D02*
X1885454D01*
X1876673Y3927175D01*
X1868800Y3922629D01*
X1862371Y3916200D01*
X1857825Y3908327D01*
X1855473Y3899546D01*
Y3890454D01*
X1857825Y3881673D01*
X1859588Y3878620D01*
Y3710325D01*
X1858317Y3708124D01*
X1856000Y3699476D01*
Y3690524D01*
X1858317Y3681876D01*
X1862793Y3674124D01*
X1869123Y3667793D01*
X1876877Y3663317D01*
X1885524Y3661000D01*
X1894476D01*
X1903123Y3663317D01*
X1910877Y3667793D01*
X1917207Y3674124D01*
X1921683Y3681876D01*
X1924000Y3690524D01*
Y3699476D01*
X1921683Y3708124D01*
X1920412Y3710325D01*
Y3878620D01*
X1922175Y3881673D01*
X1924527Y3890454D01*
Y3899546D01*
X1922175Y3908327D01*
X1917629Y3916200D01*
X1911200Y3922629D01*
X1903327Y3927175D01*
X1894546Y3929528D01*
D02*
G37*
G36*
X1794546D02*
X1785454D01*
X1776673Y3927175D01*
X1768800Y3922629D01*
X1762371Y3916200D01*
X1757825Y3908327D01*
X1755473Y3899546D01*
Y3890454D01*
X1757825Y3881673D01*
X1759588Y3878620D01*
Y3710325D01*
X1758317Y3708124D01*
X1756000Y3699476D01*
Y3690524D01*
X1758317Y3681876D01*
X1762793Y3674124D01*
X1769123Y3667793D01*
X1776877Y3663317D01*
X1785524Y3661000D01*
X1794476D01*
X1803123Y3663317D01*
X1810877Y3667793D01*
X1817207Y3674124D01*
X1821683Y3681876D01*
X1824000Y3690524D01*
Y3699476D01*
X1821683Y3708124D01*
X1820412Y3710325D01*
Y3878620D01*
X1822175Y3881673D01*
X1824527Y3890454D01*
Y3899546D01*
X1822175Y3908327D01*
X1817629Y3916200D01*
X1811200Y3922629D01*
X1803327Y3927175D01*
X1794546Y3929528D01*
D02*
G37*
G36*
X1694546D02*
X1685454D01*
X1676673Y3927175D01*
X1668800Y3922629D01*
X1662371Y3916200D01*
X1657825Y3908327D01*
X1655473Y3899546D01*
Y3890454D01*
X1657825Y3881673D01*
X1659588Y3878620D01*
Y3710325D01*
X1658317Y3708124D01*
X1656000Y3699476D01*
Y3690524D01*
X1658317Y3681876D01*
X1662793Y3674124D01*
X1669123Y3667793D01*
X1676877Y3663317D01*
X1685524Y3661000D01*
X1694476D01*
X1703123Y3663317D01*
X1710877Y3667793D01*
X1717207Y3674124D01*
X1721683Y3681876D01*
X1724000Y3690524D01*
Y3699476D01*
X1721683Y3708124D01*
X1720412Y3710325D01*
Y3878620D01*
X1722175Y3881673D01*
X1724527Y3890454D01*
Y3899546D01*
X1722175Y3908327D01*
X1717629Y3916200D01*
X1711200Y3922629D01*
X1703327Y3927175D01*
X1694546Y3929528D01*
D02*
G37*
G36*
X1594546D02*
X1585454D01*
X1576673Y3927175D01*
X1568800Y3922629D01*
X1562371Y3916200D01*
X1557825Y3908327D01*
X1555473Y3899546D01*
Y3890454D01*
X1557825Y3881673D01*
X1559588Y3878620D01*
Y3710325D01*
X1558317Y3708124D01*
X1556000Y3699476D01*
Y3690524D01*
X1558317Y3681876D01*
X1562793Y3674124D01*
X1569123Y3667793D01*
X1576877Y3663317D01*
X1585524Y3661000D01*
X1594476D01*
X1603123Y3663317D01*
X1610877Y3667793D01*
X1617207Y3674124D01*
X1621683Y3681876D01*
X1624000Y3690524D01*
Y3699476D01*
X1621683Y3708124D01*
X1620412Y3710325D01*
Y3878620D01*
X1622175Y3881673D01*
X1624527Y3890454D01*
Y3899546D01*
X1622175Y3908327D01*
X1617629Y3916200D01*
X1611200Y3922629D01*
X1603327Y3927175D01*
X1594546Y3929528D01*
D02*
G37*
G36*
X1494546D02*
X1485454D01*
X1476673Y3927175D01*
X1468800Y3922629D01*
X1462371Y3916200D01*
X1457825Y3908327D01*
X1455473Y3899546D01*
Y3890454D01*
X1457825Y3881673D01*
X1459588Y3878620D01*
Y3710325D01*
X1458317Y3708124D01*
X1456000Y3699476D01*
Y3690524D01*
X1458317Y3681876D01*
X1462793Y3674124D01*
X1469123Y3667793D01*
X1476877Y3663317D01*
X1485524Y3661000D01*
X1494476D01*
X1503123Y3663317D01*
X1510877Y3667793D01*
X1517207Y3674124D01*
X1521683Y3681876D01*
X1524000Y3690524D01*
Y3699476D01*
X1521683Y3708124D01*
X1520412Y3710325D01*
Y3878620D01*
X1522175Y3881673D01*
X1524527Y3890454D01*
Y3899546D01*
X1522175Y3908327D01*
X1517629Y3916200D01*
X1511200Y3922629D01*
X1503327Y3927175D01*
X1494546Y3929528D01*
D02*
G37*
G36*
X1394546D02*
X1385454D01*
X1376673Y3927175D01*
X1368800Y3922629D01*
X1362371Y3916200D01*
X1357825Y3908327D01*
X1355473Y3899546D01*
Y3890454D01*
X1357825Y3881673D01*
X1359588Y3878620D01*
Y3710325D01*
X1358317Y3708124D01*
X1356000Y3699476D01*
Y3690524D01*
X1358317Y3681876D01*
X1362793Y3674124D01*
X1369123Y3667793D01*
X1376877Y3663317D01*
X1385524Y3661000D01*
X1394476D01*
X1403123Y3663317D01*
X1410877Y3667793D01*
X1417207Y3674124D01*
X1421683Y3681876D01*
X1424000Y3690524D01*
Y3699476D01*
X1421683Y3708124D01*
X1420412Y3710325D01*
Y3878620D01*
X1422175Y3881673D01*
X1424527Y3890454D01*
Y3899546D01*
X1422175Y3908327D01*
X1417629Y3916200D01*
X1411200Y3922629D01*
X1403327Y3927175D01*
X1394546Y3929528D01*
D02*
G37*
G36*
X1294546D02*
X1285454D01*
X1276673Y3927175D01*
X1268800Y3922629D01*
X1262371Y3916200D01*
X1257825Y3908327D01*
X1255473Y3899546D01*
Y3890454D01*
X1257825Y3881673D01*
X1259588Y3878620D01*
Y3710325D01*
X1258317Y3708124D01*
X1256000Y3699476D01*
Y3690524D01*
X1258317Y3681876D01*
X1262793Y3674124D01*
X1269123Y3667793D01*
X1276877Y3663317D01*
X1285524Y3661000D01*
X1294476D01*
X1303123Y3663317D01*
X1310877Y3667793D01*
X1317207Y3674124D01*
X1321683Y3681876D01*
X1324000Y3690524D01*
Y3699476D01*
X1321683Y3708124D01*
X1320412Y3710325D01*
Y3878620D01*
X1322175Y3881673D01*
X1324527Y3890454D01*
Y3899546D01*
X1322175Y3908327D01*
X1317629Y3916200D01*
X1311200Y3922629D01*
X1303327Y3927175D01*
X1294546Y3929528D01*
D02*
G37*
G36*
X1194546D02*
X1185454D01*
X1176673Y3927175D01*
X1168800Y3922629D01*
X1162371Y3916200D01*
X1157825Y3908327D01*
X1155473Y3899546D01*
Y3890454D01*
X1157825Y3881673D01*
X1159588Y3878620D01*
Y3710325D01*
X1158317Y3708124D01*
X1156000Y3699476D01*
Y3690524D01*
X1158317Y3681876D01*
X1162793Y3674124D01*
X1169123Y3667793D01*
X1176877Y3663317D01*
X1185524Y3661000D01*
X1194476D01*
X1203123Y3663317D01*
X1210877Y3667793D01*
X1217207Y3674124D01*
X1221683Y3681876D01*
X1224000Y3690524D01*
Y3699476D01*
X1221683Y3708124D01*
X1220412Y3710325D01*
Y3878620D01*
X1222175Y3881673D01*
X1224527Y3890454D01*
Y3899546D01*
X1222175Y3908327D01*
X1217629Y3916200D01*
X1211200Y3922629D01*
X1203327Y3927175D01*
X1194546Y3929528D01*
D02*
G37*
G36*
X1094546D02*
X1085454D01*
X1076673Y3927175D01*
X1068800Y3922629D01*
X1062371Y3916200D01*
X1057825Y3908327D01*
X1055473Y3899546D01*
Y3890454D01*
X1057825Y3881673D01*
X1059588Y3878620D01*
Y3710325D01*
X1058317Y3708124D01*
X1056000Y3699476D01*
Y3690524D01*
X1058317Y3681876D01*
X1062793Y3674124D01*
X1069123Y3667793D01*
X1076877Y3663317D01*
X1085524Y3661000D01*
X1094476D01*
X1103123Y3663317D01*
X1110877Y3667793D01*
X1117207Y3674124D01*
X1121683Y3681876D01*
X1124000Y3690524D01*
Y3699476D01*
X1121683Y3708124D01*
X1120412Y3710325D01*
Y3878620D01*
X1122175Y3881673D01*
X1124527Y3890454D01*
Y3899546D01*
X1122175Y3908327D01*
X1117629Y3916200D01*
X1111200Y3922629D01*
X1103327Y3927175D01*
X1094546Y3929528D01*
D02*
G37*
G36*
X994546D02*
X985454D01*
X976673Y3927175D01*
X968800Y3922629D01*
X962371Y3916200D01*
X957826Y3908327D01*
X955472Y3899546D01*
Y3890454D01*
X957826Y3881673D01*
X959588Y3878620D01*
Y3710325D01*
X958317Y3708124D01*
X956000Y3699476D01*
Y3690524D01*
X958317Y3681876D01*
X962793Y3674124D01*
X969124Y3667793D01*
X976876Y3663317D01*
X985524Y3661000D01*
X994476D01*
X1003124Y3663317D01*
X1010876Y3667793D01*
X1017207Y3674124D01*
X1021683Y3681876D01*
X1024000Y3690524D01*
Y3699476D01*
X1021683Y3708124D01*
X1020412Y3710325D01*
Y3878620D01*
X1022174Y3881673D01*
X1024527Y3890454D01*
Y3899546D01*
X1022174Y3908327D01*
X1017629Y3916200D01*
X1011200Y3922629D01*
X1003327Y3927175D01*
X994546Y3929528D01*
D02*
G37*
G36*
X894546D02*
X885454D01*
X876673Y3927175D01*
X868800Y3922629D01*
X862371Y3916200D01*
X857826Y3908327D01*
X855472Y3899546D01*
Y3890454D01*
X857826Y3881673D01*
X859588Y3878620D01*
Y3710325D01*
X858317Y3708124D01*
X856000Y3699476D01*
Y3690524D01*
X858317Y3681876D01*
X862793Y3674124D01*
X869124Y3667793D01*
X876876Y3663317D01*
X885524Y3661000D01*
X894476D01*
X903124Y3663317D01*
X910876Y3667793D01*
X917207Y3674124D01*
X921683Y3681876D01*
X924000Y3690524D01*
Y3699476D01*
X921683Y3708124D01*
X920412Y3710325D01*
Y3878620D01*
X922174Y3881673D01*
X924528Y3890454D01*
Y3899546D01*
X922174Y3908327D01*
X917629Y3916200D01*
X911200Y3922629D01*
X903327Y3927175D01*
X894546Y3929528D01*
D02*
G37*
G36*
X794546D02*
X785454D01*
X776673Y3927175D01*
X768800Y3922629D01*
X762371Y3916200D01*
X757826Y3908327D01*
X755472Y3899546D01*
Y3890454D01*
X757826Y3881673D01*
X759588Y3878620D01*
Y3710325D01*
X758317Y3708124D01*
X756000Y3699476D01*
Y3690524D01*
X758317Y3681876D01*
X762793Y3674124D01*
X769124Y3667793D01*
X776876Y3663317D01*
X785524Y3661000D01*
X794476D01*
X803124Y3663317D01*
X810876Y3667793D01*
X817207Y3674124D01*
X821683Y3681876D01*
X824000Y3690524D01*
Y3699476D01*
X821683Y3708124D01*
X820412Y3710325D01*
Y3878620D01*
X822174Y3881673D01*
X824528Y3890454D01*
Y3899546D01*
X822174Y3908327D01*
X817629Y3916200D01*
X811200Y3922629D01*
X803327Y3927175D01*
X794546Y3929528D01*
D02*
G37*
G36*
X694546D02*
X685454D01*
X676673Y3927175D01*
X668800Y3922629D01*
X662371Y3916200D01*
X657826Y3908327D01*
X655472Y3899546D01*
Y3890454D01*
X657826Y3881673D01*
X659588Y3878620D01*
Y3710325D01*
X658317Y3708124D01*
X656000Y3699476D01*
Y3690524D01*
X658317Y3681876D01*
X662793Y3674124D01*
X669124Y3667793D01*
X676876Y3663317D01*
X685524Y3661000D01*
X694476D01*
X703124Y3663317D01*
X710876Y3667793D01*
X717207Y3674124D01*
X721683Y3681876D01*
X724000Y3690524D01*
Y3699476D01*
X721683Y3708124D01*
X720412Y3710325D01*
Y3878620D01*
X722174Y3881673D01*
X724528Y3890454D01*
Y3899546D01*
X722174Y3908327D01*
X717629Y3916200D01*
X711200Y3922629D01*
X703327Y3927175D01*
X694546Y3929528D01*
D02*
G37*
G36*
X594546D02*
X585454D01*
X576673Y3927175D01*
X568800Y3922629D01*
X562371Y3916200D01*
X557826Y3908327D01*
X555472Y3899546D01*
Y3890454D01*
X557826Y3881673D01*
X559588Y3878620D01*
Y3710325D01*
X558317Y3708124D01*
X556000Y3699476D01*
Y3690524D01*
X558317Y3681876D01*
X562793Y3674124D01*
X569124Y3667793D01*
X576876Y3663317D01*
X585524Y3661000D01*
X594476D01*
X603124Y3663317D01*
X610876Y3667793D01*
X617207Y3674124D01*
X621683Y3681876D01*
X624000Y3690524D01*
Y3699476D01*
X621683Y3708124D01*
X620412Y3710325D01*
Y3878620D01*
X622174Y3881673D01*
X624528Y3890454D01*
Y3899546D01*
X622174Y3908327D01*
X617629Y3916200D01*
X611200Y3922629D01*
X603327Y3927175D01*
X594546Y3929528D01*
D02*
G37*
G36*
X2727696Y3685000D02*
X2700000D01*
Y3657304D01*
X2705053Y3658658D01*
X2713947Y3663792D01*
X2721208Y3671053D01*
X2726342Y3679947D01*
X2727696Y3685000D01*
D02*
G37*
G36*
X2680000D02*
X2652304D01*
X2653658Y3679947D01*
X2658792Y3671053D01*
X2666053Y3663792D01*
X2674947Y3658658D01*
X2680000Y3657304D01*
Y3685000D01*
D02*
G37*
G36*
X494546Y3929528D02*
X485454D01*
X476673Y3927175D01*
X468800Y3922629D01*
X462371Y3916200D01*
X457825Y3908327D01*
X455473Y3899546D01*
Y3890454D01*
X457825Y3881673D01*
X459588Y3878620D01*
Y3710325D01*
X458317Y3708124D01*
X456000Y3699476D01*
Y3690524D01*
X458317Y3681876D01*
X462793Y3674124D01*
X469123Y3667793D01*
X476877Y3663317D01*
X479804Y3662533D01*
Y3626148D01*
X475185Y3624235D01*
X420168Y3679252D01*
X421683Y3681876D01*
X424000Y3690524D01*
Y3699476D01*
X421683Y3708124D01*
X420412Y3710325D01*
Y3878620D01*
X422175Y3881673D01*
X424527Y3890454D01*
Y3899546D01*
X422175Y3908327D01*
X417629Y3916200D01*
X411200Y3922629D01*
X403327Y3927175D01*
X394546Y3929528D01*
X385454D01*
X376673Y3927175D01*
X368800Y3922629D01*
X362371Y3916200D01*
X357825Y3908327D01*
X355473Y3899546D01*
Y3890454D01*
X357825Y3881673D01*
X359588Y3878620D01*
Y3710325D01*
X358317Y3708124D01*
X356000Y3699476D01*
Y3690524D01*
X358317Y3681876D01*
X362793Y3674124D01*
X369123Y3667793D01*
X376877Y3663317D01*
X385524Y3661000D01*
X394476D01*
X403123Y3663317D01*
X405748Y3664832D01*
X718804Y3351777D01*
Y3121350D01*
X713804Y3119279D01*
X710876Y3122207D01*
X703124Y3126683D01*
X694476Y3129000D01*
X685524D01*
X676876Y3126683D01*
X669124Y3122207D01*
X662793Y3115876D01*
X658317Y3108124D01*
X656000Y3099476D01*
Y3090524D01*
X658317Y3081876D01*
X659588Y3079675D01*
Y2911380D01*
X657826Y2908327D01*
X655472Y2899546D01*
Y2890454D01*
X657826Y2881673D01*
X659446Y2878865D01*
X599304Y2818723D01*
X558319D01*
X554418Y2817947D01*
X551110Y2815737D01*
X332790Y2597418D01*
X330580Y2594110D01*
X330196Y2592178D01*
X325196Y2592670D01*
Y2615777D01*
X573865Y2864446D01*
X576673Y2862825D01*
X585454Y2860472D01*
X594546D01*
X603327Y2862825D01*
X611200Y2867371D01*
X617629Y2873800D01*
X622174Y2881673D01*
X624528Y2890454D01*
Y2899546D01*
X622174Y2908327D01*
X620412Y2911380D01*
Y3079675D01*
X621683Y3081876D01*
X624000Y3090524D01*
Y3099476D01*
X621683Y3108124D01*
X617207Y3115876D01*
X610876Y3122207D01*
X603124Y3126683D01*
X594476Y3129000D01*
X585524D01*
X576876Y3126683D01*
X569124Y3122207D01*
X562793Y3115876D01*
X558317Y3108124D01*
X556000Y3099476D01*
Y3090524D01*
X558317Y3081876D01*
X559588Y3079675D01*
Y2911380D01*
X557826Y2908327D01*
X555472Y2899546D01*
Y2890454D01*
X557826Y2881673D01*
X559446Y2878865D01*
X307790Y2627210D01*
X305580Y2623902D01*
X305196Y2621970D01*
X300196Y2622462D01*
Y2690777D01*
X473865Y2864446D01*
X476673Y2862825D01*
X485454Y2860472D01*
X494546D01*
X503327Y2862825D01*
X511200Y2867371D01*
X517629Y2873800D01*
X522174Y2881673D01*
X524528Y2890454D01*
Y2899546D01*
X522174Y2908327D01*
X520412Y2911380D01*
Y3079675D01*
X521683Y3081876D01*
X524000Y3090524D01*
Y3099476D01*
X521683Y3108124D01*
X517207Y3115876D01*
X510877Y3122207D01*
X503123Y3126683D01*
X494476Y3129000D01*
X485524D01*
X476877Y3126683D01*
X469123Y3122207D01*
X462793Y3115876D01*
X458317Y3108124D01*
X456000Y3099476D01*
Y3090524D01*
X458317Y3081876D01*
X459588Y3079675D01*
Y2911380D01*
X457825Y2908327D01*
X455473Y2899546D01*
Y2890454D01*
X457825Y2881673D01*
X459446Y2878865D01*
X282790Y2702210D01*
X280580Y2698902D01*
X280196Y2696970D01*
X275196Y2697462D01*
Y2765777D01*
X373865Y2864446D01*
X376673Y2862825D01*
X385454Y2860472D01*
X394546D01*
X403327Y2862825D01*
X411200Y2867371D01*
X417629Y2873800D01*
X422175Y2881673D01*
X424527Y2890454D01*
Y2899546D01*
X422175Y2908327D01*
X420412Y2911380D01*
Y3079675D01*
X421683Y3081876D01*
X424000Y3090524D01*
Y3099476D01*
X421683Y3108124D01*
X417207Y3115876D01*
X410877Y3122207D01*
X403123Y3126683D01*
X394476Y3129000D01*
X385524D01*
X376877Y3126683D01*
X369123Y3122207D01*
X362793Y3115876D01*
X358317Y3108124D01*
X356000Y3099476D01*
Y3090524D01*
X358317Y3081876D01*
X359588Y3079675D01*
Y2911380D01*
X357825Y2908327D01*
X355473Y2899546D01*
Y2890454D01*
X357825Y2881673D01*
X359446Y2878865D01*
X257790Y2777210D01*
X255580Y2773902D01*
X254804Y2770000D01*
Y410000D01*
X255580Y406098D01*
X257790Y402791D01*
X532790Y127790D01*
X536098Y125580D01*
X540000Y124804D01*
X1221682D01*
X1225583Y125580D01*
X1228891Y127790D01*
X1327918Y226817D01*
X1330128Y230125D01*
X1330162Y230295D01*
X1338425D01*
Y298366D01*
X1260412D01*
Y355000D01*
X1258827Y358827D01*
X1255000Y360412D01*
X1105669D01*
Y380158D01*
X1054331D01*
Y370294D01*
X705390D01*
X606156Y469528D01*
X617279Y480650D01*
X617653D01*
X622399Y479706D01*
X627145Y480650D01*
X628543D01*
X631278Y481194D01*
X633596Y482743D01*
X635144Y485061D01*
X635407Y486379D01*
X656366Y507338D01*
X659681Y512299D01*
X660845Y518152D01*
Y551848D01*
X659681Y557701D01*
X656366Y562662D01*
X643214Y575814D01*
X638252Y579130D01*
X635688Y579640D01*
Y582205D01*
X635144Y584939D01*
X633596Y587257D01*
X631278Y588806D01*
X628543Y589350D01*
X593189D01*
X590455Y588806D01*
X588137Y587257D01*
X586588Y584939D01*
X586044Y582205D01*
Y580294D01*
X567244D01*
Y590669D01*
X519842D01*
Y539331D01*
X567244D01*
Y549706D01*
X626064D01*
X630257Y545513D01*
Y524487D01*
X620317Y514547D01*
X593189D01*
X590455Y514003D01*
X588137Y512454D01*
X586588Y510136D01*
X586044Y507402D01*
Y492673D01*
X578193Y484822D01*
X553425D01*
X552629Y486200D01*
X546200Y492629D01*
X538327Y497175D01*
X529546Y499527D01*
X520454D01*
X511673Y497175D01*
X503800Y492629D01*
X497371Y486200D01*
X492825Y478327D01*
X490473Y469546D01*
Y460454D01*
X492825Y451673D01*
X497371Y443800D01*
X503800Y437371D01*
X511673Y432825D01*
X520454Y430473D01*
X529546D01*
X538327Y432825D01*
X546200Y437371D01*
X552629Y443800D01*
X557174Y451673D01*
X557861Y454234D01*
X578193D01*
X688241Y344186D01*
X693202Y340870D01*
X699055Y339706D01*
X1054331D01*
Y332756D01*
X1059588D01*
Y275000D01*
X1059842Y274386D01*
Y254331D01*
X1107244D01*
Y305669D01*
X1105412D01*
Y324588D01*
X1234588D01*
Y298366D01*
X1233937D01*
Y230295D01*
X1244844D01*
X1246757Y225676D01*
X1216277Y195196D01*
X1145601D01*
X1145108Y200196D01*
X1147040Y200580D01*
X1150348Y202790D01*
X1174375Y226817D01*
X1176585Y230125D01*
X1176619Y230295D01*
X1184882D01*
Y298366D01*
X1131575D01*
Y261458D01*
X1131379Y260472D01*
Y244231D01*
X586990D01*
X405369Y425853D01*
X407282Y430473D01*
X459527D01*
Y499527D01*
X390473D01*
Y447282D01*
X385853Y445369D01*
X375668Y455554D01*
Y2351170D01*
X380288Y2353084D01*
X420473Y2312899D01*
Y2265472D01*
X489527D01*
Y2334528D01*
X442101D01*
X400766Y2375863D01*
Y2446072D01*
X405386Y2447985D01*
X420473Y2432899D01*
Y2385472D01*
X489527D01*
Y2454528D01*
X442101D01*
X425766Y2470863D01*
Y2505472D01*
X489527D01*
Y2574528D01*
X473106D01*
Y2581477D01*
X599862Y2708233D01*
X918527D01*
X924380Y2709398D01*
X929342Y2712713D01*
X1078867Y2862238D01*
X1085454Y2860472D01*
X1094546D01*
X1103327Y2862825D01*
X1111200Y2867371D01*
X1117629Y2873800D01*
X1122175Y2881673D01*
X1124527Y2890454D01*
Y2899546D01*
X1122175Y2908327D01*
X1117629Y2916200D01*
X1111200Y2922629D01*
X1103327Y2927175D01*
X1094546Y2929528D01*
X1085454D01*
X1076673Y2927175D01*
X1068800Y2922629D01*
X1062371Y2916200D01*
X1057825Y2908327D01*
X1055473Y2899546D01*
Y2890454D01*
X1057238Y2883867D01*
X912192Y2738821D01*
X861983D01*
X860069Y2743441D01*
X978866Y2862238D01*
X985454Y2860472D01*
X994546D01*
X1003327Y2862825D01*
X1011200Y2867371D01*
X1017629Y2873800D01*
X1022174Y2881673D01*
X1024527Y2890454D01*
Y2899546D01*
X1022174Y2908327D01*
X1017629Y2916200D01*
X1011200Y2922629D01*
X1003327Y2927175D01*
X994546Y2929528D01*
X985454D01*
X976673Y2927175D01*
X968800Y2922629D01*
X962371Y2916200D01*
X957826Y2908327D01*
X955472Y2899546D01*
Y2890454D01*
X957238Y2883867D01*
X837192Y2763821D01*
X786983D01*
X785069Y2768441D01*
X878866Y2862238D01*
X885454Y2860472D01*
X894546D01*
X903327Y2862825D01*
X911200Y2867371D01*
X917629Y2873800D01*
X922174Y2881673D01*
X924528Y2890454D01*
Y2899546D01*
X922174Y2908327D01*
X917629Y2916200D01*
X911200Y2922629D01*
X903327Y2927175D01*
X894546Y2929528D01*
X885454D01*
X876673Y2927175D01*
X868800Y2922629D01*
X862371Y2916200D01*
X857826Y2908327D01*
X855472Y2899546D01*
Y2890454D01*
X857238Y2883867D01*
X762192Y2788821D01*
X704773D01*
X702860Y2793441D01*
X773865Y2864446D01*
X776673Y2862825D01*
X785454Y2860472D01*
X794546D01*
X803327Y2862825D01*
X811200Y2867371D01*
X817629Y2873800D01*
X822174Y2881673D01*
X824528Y2890454D01*
Y2899546D01*
X822174Y2908327D01*
X817629Y2916200D01*
X811200Y2922629D01*
X803327Y2927175D01*
X794546Y2929528D01*
X785454D01*
X776673Y2927175D01*
X768800Y2922629D01*
X762371Y2916200D01*
X757826Y2908327D01*
X755472Y2899546D01*
Y2890454D01*
X757826Y2881673D01*
X759446Y2878865D01*
X684304Y2803723D01*
X619675D01*
X617762Y2808343D01*
X673865Y2864446D01*
X676673Y2862825D01*
X685454Y2860472D01*
X694546D01*
X703327Y2862825D01*
X711200Y2867371D01*
X717629Y2873800D01*
X722174Y2881673D01*
X724528Y2890454D01*
Y2899546D01*
X722174Y2908327D01*
X720412Y2911380D01*
Y3066730D01*
X725412Y3068801D01*
X817679Y2976534D01*
X820987Y2974324D01*
X824889Y2973548D01*
X1152934D01*
X1191954Y2934528D01*
X1189883Y2929528D01*
X1185454D01*
X1176673Y2927175D01*
X1168800Y2922629D01*
X1162371Y2916200D01*
X1157825Y2908327D01*
X1155473Y2899546D01*
Y2890454D01*
X1157825Y2881673D01*
X1162371Y2873800D01*
X1168800Y2867371D01*
X1176673Y2862825D01*
X1185454Y2860472D01*
X1194546D01*
X1203327Y2862825D01*
X1211200Y2867371D01*
X1217629Y2873800D01*
X1220276Y2878385D01*
X1225276Y2877046D01*
Y2872414D01*
X1226053Y2868512D01*
X1228263Y2865204D01*
X1449214Y2644254D01*
Y2523066D01*
X1444214Y2521549D01*
X1442831Y2523618D01*
X1440669Y2525780D01*
Y2555157D01*
X1389331D01*
Y2507756D01*
X1421074D01*
Y2484705D01*
X1394370D01*
Y2416634D01*
X1394588D01*
Y2385412D01*
X1355669D01*
Y2420157D01*
X1350614D01*
X1350000Y2420412D01*
X1310000D01*
X1309386Y2420157D01*
X1304331D01*
Y2372756D01*
X1304588D01*
Y2342244D01*
X1304331D01*
Y2294843D01*
X1309386D01*
X1310000Y2294588D01*
X1350000D01*
X1350614Y2294843D01*
X1355669D01*
Y2329588D01*
X1614331D01*
Y2316471D01*
X1607452Y2309592D01*
X1602846Y2306515D01*
X1593516Y2297185D01*
X1591170Y2293673D01*
X1590078Y2293172D01*
X1586603Y2292743D01*
X1585245Y2292939D01*
X1581578Y2296605D01*
X1575422Y2300160D01*
X1575000Y2300273D01*
Y2275000D01*
Y2249727D01*
X1575422Y2249840D01*
X1581578Y2253395D01*
X1584037Y2255853D01*
X1589037Y2253782D01*
Y2177988D01*
X1590201Y2172136D01*
X1593516Y2167174D01*
X1648643Y2112047D01*
Y2041081D01*
X1645202Y2039544D01*
X1643643Y2039381D01*
X1601873Y2081151D01*
X1602175Y2081673D01*
X1604527Y2090454D01*
Y2099546D01*
X1602175Y2108327D01*
X1597629Y2116200D01*
X1591200Y2122629D01*
X1583327Y2127175D01*
X1574546Y2129528D01*
X1565454D01*
X1556673Y2127175D01*
X1548800Y2122629D01*
X1542371Y2116200D01*
X1537825Y2108327D01*
X1535473Y2099546D01*
Y2090454D01*
X1537825Y2081673D01*
X1542371Y2073800D01*
X1538691Y2070612D01*
X1527319Y2081984D01*
X1523185Y2084747D01*
X1518307Y2085717D01*
X1504527D01*
Y2129528D01*
X1482745D01*
Y2145311D01*
X1494012Y2156579D01*
X1496775Y2160713D01*
X1497745Y2165591D01*
Y2185295D01*
X1550039D01*
Y2247461D01*
X1553535Y2249479D01*
X1555000Y2249710D01*
Y2265000D01*
X1539727D01*
X1539840Y2264578D01*
X1543395Y2258422D01*
X1543450Y2258366D01*
X1541379Y2253366D01*
X1523040D01*
Y2281927D01*
X1528651Y2287538D01*
X1532000Y2295624D01*
Y2304376D01*
X1528651Y2312462D01*
X1522462Y2318651D01*
X1514376Y2322000D01*
X1505624D01*
X1497538Y2318651D01*
X1491349Y2312462D01*
X1488000Y2304376D01*
Y2295624D01*
X1491349Y2287538D01*
X1497538Y2281349D01*
X1497550Y2281344D01*
Y2253366D01*
X1394370D01*
Y2232076D01*
X1305948D01*
X1262000Y2276024D01*
Y2284376D01*
X1258651Y2292462D01*
X1252462Y2298651D01*
X1244376Y2302000D01*
X1235624D01*
X1227538Y2298651D01*
X1221349Y2292462D01*
X1218000Y2284376D01*
Y2275624D01*
X1221349Y2267538D01*
X1227538Y2261349D01*
X1235624Y2258000D01*
X1243976D01*
X1291657Y2210319D01*
X1295792Y2207556D01*
X1300669Y2206586D01*
X1394370D01*
Y2190540D01*
X1282484D01*
X1197000Y2276024D01*
Y2284376D01*
X1193651Y2292462D01*
X1187462Y2298651D01*
X1179376Y2302000D01*
X1170624D01*
X1162538Y2298651D01*
X1156349Y2292462D01*
X1153000Y2284376D01*
Y2275624D01*
X1156349Y2267538D01*
X1162538Y2261349D01*
X1170624Y2258000D01*
X1178976D01*
X1216584Y2220392D01*
X1214513Y2215392D01*
X1166339D01*
Y2218701D01*
X1124843D01*
Y2171299D01*
X1166339D01*
Y2174608D01*
X1212663D01*
X1251395Y2135876D01*
X1258010Y2131456D01*
X1265814Y2129903D01*
X1425000D01*
X1429470Y2130793D01*
X1433866Y2128957D01*
X1435472Y2127277D01*
X1435472Y2127276D01*
X1435473Y2125955D01*
Y2060472D01*
X1490796D01*
X1492028Y2060227D01*
X1513028D01*
X1571575Y2001681D01*
Y1979111D01*
X1566575Y1977040D01*
X1556434Y1987181D01*
X1552299Y1989944D01*
X1547422Y1990914D01*
X1395807D01*
X1390930Y1989944D01*
X1386795Y1987181D01*
X1378315Y1978701D01*
X1354842D01*
Y1931299D01*
X1396339D01*
Y1960677D01*
X1401086Y1965424D01*
X1499842D01*
Y1919331D01*
X1525615D01*
X1545760Y1899186D01*
X1550722Y1895870D01*
X1556575Y1894706D01*
X1793425D01*
X1799278Y1895870D01*
X1804240Y1899186D01*
X1824385Y1919331D01*
X1828529D01*
X1835951Y1911909D01*
X1839028Y1907303D01*
X2076602Y1669729D01*
X2077790Y1668935D01*
X2076273Y1663935D01*
X1965669D01*
Y1667244D01*
X1960392D01*
Y1711741D01*
X1962000Y1715624D01*
Y1724376D01*
X1958651Y1732462D01*
X1952462Y1738651D01*
X1944376Y1742000D01*
X1935624D01*
X1927538Y1738651D01*
X1921349Y1732462D01*
X1918000Y1724376D01*
Y1715624D01*
X1919608Y1711741D01*
Y1667244D01*
X1914331D01*
Y1619842D01*
X1965669D01*
Y1623151D01*
X2607346D01*
X2615149Y1624704D01*
X2621765Y1629124D01*
X2679665Y1687024D01*
X2685454Y1685473D01*
X2694546D01*
X2703327Y1687825D01*
X2711200Y1692371D01*
X2717629Y1698800D01*
X2721039Y1704706D01*
X2788665D01*
X2859311Y1634060D01*
Y1617599D01*
X2859855Y1614864D01*
X2861404Y1612546D01*
X2863722Y1610997D01*
X2866457Y1610453D01*
X2885157D01*
X2885945Y1610297D01*
X2927756D01*
Y1594331D01*
X2975157D01*
Y1645669D01*
X2927756D01*
Y1640884D01*
X2907780D01*
X2906863Y1642257D01*
X2904545Y1643806D01*
X2901811Y1644350D01*
X2892279D01*
X2805814Y1730814D01*
X2800853Y1734130D01*
X2795000Y1735294D01*
X2721039D01*
X2717629Y1741200D01*
X2711200Y1747629D01*
X2703327Y1752175D01*
X2694546Y1754527D01*
X2685454D01*
X2676673Y1752175D01*
X2668800Y1747629D01*
X2662371Y1741200D01*
X2657825Y1733327D01*
X2655472Y1724546D01*
Y1720508D01*
X2604782Y1669818D01*
X2600543Y1672650D01*
X2602000Y1676167D01*
Y1684919D01*
X2598651Y1693005D01*
X2592462Y1699194D01*
X2584376Y1702543D01*
X2575624D01*
X2567538Y1699194D01*
X2564181Y1695837D01*
X2093752D01*
X1863734Y1925855D01*
X1860657Y1930460D01*
X1850158Y1940959D01*
Y1965424D01*
X1948914D01*
X1953661Y1960677D01*
Y1931299D01*
X1995158D01*
Y1978701D01*
X1971685D01*
X1963205Y1987181D01*
X1959070Y1989944D01*
X1954193Y1990914D01*
X1802578D01*
X1797701Y1989944D01*
X1793566Y1987181D01*
X1783425Y1977040D01*
X1778425Y1979111D01*
Y2001681D01*
X1810887Y2034143D01*
X1831888D01*
X1836765Y2035113D01*
X1840900Y2037876D01*
X1866151Y2063127D01*
X1866673Y2062825D01*
X1875454Y2060472D01*
X1884546D01*
X1893327Y2062825D01*
X1901200Y2067371D01*
X1907629Y2073800D01*
X1912175Y2081673D01*
X1914527Y2090454D01*
Y2099546D01*
X1912175Y2108327D01*
X1907629Y2116200D01*
X1901200Y2122629D01*
X1893327Y2127175D01*
X1884546Y2129528D01*
X1875454D01*
X1866673Y2127175D01*
X1858800Y2122629D01*
X1852371Y2116200D01*
X1847825Y2108327D01*
X1845473Y2099546D01*
Y2090454D01*
X1847825Y2081673D01*
X1848127Y2081151D01*
X1826609Y2059633D01*
X1819180D01*
X1814527Y2060473D01*
Y2129528D01*
X1792745D01*
Y2145311D01*
X1804012Y2156579D01*
X1806775Y2160713D01*
X1807745Y2165591D01*
Y2185295D01*
X1860039D01*
Y2253366D01*
X1833040D01*
Y2276927D01*
X1838651Y2282538D01*
X1842000Y2290624D01*
Y2299376D01*
X1838944Y2306755D01*
X1840890Y2311755D01*
X1932583D01*
X1938661Y2305677D01*
Y2276299D01*
X1980157D01*
Y2323701D01*
X1956685D01*
X1946874Y2333512D01*
X1942739Y2336275D01*
X1937862Y2337245D01*
X1812340D01*
X1810269Y2342245D01*
X1835279Y2367255D01*
X1996632D01*
X2002538Y2361349D01*
X2010624Y2358000D01*
X2019376D01*
X2027462Y2361349D01*
X2033651Y2367538D01*
X2037000Y2375624D01*
Y2384376D01*
X2033651Y2392462D01*
X2027462Y2398651D01*
X2019376Y2402000D01*
X2010624D01*
X2002538Y2398651D01*
X1996632Y2392745D01*
X1952160D01*
X1950247Y2397364D01*
X1965883Y2413000D01*
X1974376D01*
X1982462Y2416349D01*
X1988651Y2422538D01*
X1992000Y2430624D01*
Y2439376D01*
X1988651Y2447462D01*
X1982462Y2453651D01*
X1974376Y2457000D01*
X1965624D01*
X1957538Y2453651D01*
X1951349Y2447462D01*
X1948000Y2439376D01*
Y2431165D01*
X1929580Y2412745D01*
X1888312D01*
X1885630Y2416634D01*
Y2484705D01*
X1881968D01*
Y2577548D01*
X1898358Y2593939D01*
X1900624Y2593000D01*
X1909376D01*
X1917462Y2596349D01*
X1923651Y2602538D01*
X1927000Y2610624D01*
Y2619376D01*
X1923651Y2627462D01*
X1917462Y2633651D01*
X1909376Y2637000D01*
X1900624D01*
X1892538Y2633651D01*
X1886349Y2627462D01*
X1883000Y2619376D01*
Y2610624D01*
X1883939Y2608358D01*
X1864562Y2588981D01*
X1863286Y2587072D01*
X1858286Y2588589D01*
Y2654620D01*
X1862462Y2656349D01*
X1868651Y2662538D01*
X1872000Y2670624D01*
Y2679376D01*
X1868651Y2687462D01*
X1862462Y2693651D01*
X1854376Y2697000D01*
X1845624D01*
X1837538Y2693651D01*
X1835786Y2691899D01*
X1830786Y2693970D01*
Y2704409D01*
X1830010Y2708311D01*
X1827800Y2711619D01*
X1811061Y2728358D01*
X1812000Y2730624D01*
Y2739376D01*
X1808651Y2747462D01*
X1802462Y2753651D01*
X1794376Y2757000D01*
X1785624D01*
X1777538Y2753651D01*
X1771349Y2747462D01*
X1768000Y2739376D01*
Y2730624D01*
X1771349Y2722538D01*
X1777538Y2716349D01*
X1785624Y2713000D01*
X1794376D01*
X1796642Y2713939D01*
X1810395Y2700186D01*
Y2484705D01*
X1805196D01*
Y2606213D01*
X1804420Y2610115D01*
X1802210Y2613423D01*
X1752196Y2663436D01*
Y2766239D01*
X1752462Y2766349D01*
X1758651Y2772538D01*
X1762000Y2780624D01*
Y2789376D01*
X1758651Y2797462D01*
X1752462Y2803651D01*
X1744376Y2807000D01*
X1735624D01*
X1727538Y2803651D01*
X1721349Y2797462D01*
X1718000Y2789376D01*
Y2780624D01*
X1721349Y2772538D01*
X1727538Y2766349D01*
X1731804Y2764582D01*
Y2669148D01*
X1727185Y2667235D01*
X1682210Y2712210D01*
X1678902Y2714420D01*
X1675000Y2715196D01*
X1594589D01*
X1593651Y2717462D01*
X1587462Y2723651D01*
X1579376Y2727000D01*
X1570624D01*
X1562538Y2723651D01*
X1556349Y2717462D01*
X1553000Y2709376D01*
Y2700624D01*
X1556349Y2692538D01*
X1562538Y2686349D01*
X1570624Y2683000D01*
X1579376D01*
X1587462Y2686349D01*
X1593651Y2692538D01*
X1594589Y2694804D01*
X1670777D01*
X1759509Y2606072D01*
Y2522624D01*
X1754509Y2521107D01*
X1752831Y2523618D01*
X1750669Y2525780D01*
Y2555157D01*
X1699331D01*
Y2507756D01*
X1731074D01*
Y2484705D01*
X1704370D01*
Y2416634D01*
X1704588D01*
Y2385412D01*
X1665669D01*
Y2420157D01*
X1660614D01*
X1660000Y2420412D01*
X1620000D01*
X1619386Y2420157D01*
X1614331D01*
Y2385412D01*
X1420412D01*
Y2416634D01*
X1575630D01*
Y2484705D01*
X1573582D01*
Y2544159D01*
X1578582Y2546077D01*
X1586010Y2543000D01*
X1594762D01*
X1602848Y2546349D01*
X1608754Y2552255D01*
X1646632D01*
X1652538Y2546349D01*
X1660624Y2543000D01*
X1669376D01*
X1677462Y2546349D01*
X1683651Y2552538D01*
X1687000Y2560624D01*
Y2569376D01*
X1683651Y2577462D01*
X1677462Y2583651D01*
X1669376Y2587000D01*
X1660624D01*
X1652538Y2583651D01*
X1646632Y2577745D01*
X1608754D01*
X1602848Y2583651D01*
X1594762Y2587000D01*
X1586010D01*
X1578582Y2583923D01*
X1573582Y2585841D01*
Y2614742D01*
X1577462Y2616349D01*
X1583651Y2622538D01*
X1587000Y2630624D01*
Y2639376D01*
X1583651Y2647462D01*
X1577462Y2653651D01*
X1569376Y2657000D01*
X1560624D01*
X1552538Y2653651D01*
X1550996Y2652109D01*
X1546377Y2654023D01*
Y2859844D01*
X1557682Y2871149D01*
X1557921Y2871507D01*
X1558666Y2871891D01*
X1564123Y2872048D01*
X1568800Y2867371D01*
X1576673Y2862825D01*
X1585454Y2860472D01*
X1594546D01*
X1603327Y2862825D01*
X1611200Y2867371D01*
X1617629Y2873800D01*
X1622175Y2881673D01*
X1624527Y2890454D01*
Y2899546D01*
X1622175Y2908327D01*
X1620412Y2911380D01*
Y3079675D01*
X1621683Y3081876D01*
X1624000Y3090524D01*
Y3099476D01*
X1621683Y3108124D01*
X1617207Y3115876D01*
X1610877Y3122207D01*
X1603123Y3126683D01*
X1594476Y3129000D01*
X1590490D01*
X1588419Y3134000D01*
X1884223Y3429804D01*
X2100411D01*
X2101349Y3427538D01*
X2107538Y3421349D01*
X2115624Y3418000D01*
X2124376D01*
X2132462Y3421349D01*
X2138651Y3427538D01*
X2142000Y3435624D01*
Y3444376D01*
X2138651Y3452462D01*
X2132462Y3458651D01*
X2124376Y3462000D01*
X2115624D01*
X2107538Y3458651D01*
X2101349Y3452462D01*
X2100411Y3450196D01*
X1889781D01*
X1887867Y3454815D01*
X1902856Y3469804D01*
X2235411D01*
X2236349Y3467538D01*
X2242538Y3461349D01*
X2250624Y3458000D01*
X2259376D01*
X2267462Y3461349D01*
X2273651Y3467538D01*
X2277000Y3475624D01*
Y3484376D01*
X2273651Y3492462D01*
X2267462Y3498651D01*
X2259376Y3502000D01*
X2250624D01*
X2242538Y3498651D01*
X2236349Y3492462D01*
X2235411Y3490196D01*
X1898632D01*
X1894731Y3489420D01*
X1891423Y3487210D01*
X1528263Y3124050D01*
X1526053Y3120742D01*
X1525276Y3116840D01*
Y3111899D01*
X1520276Y3110560D01*
X1517207Y3115876D01*
X1510877Y3122207D01*
X1503123Y3126683D01*
X1494476Y3129000D01*
X1485524D01*
X1476877Y3126683D01*
X1469123Y3122207D01*
X1462793Y3115876D01*
X1458317Y3108124D01*
X1456000Y3099476D01*
Y3090524D01*
X1458317Y3081876D01*
X1459588Y3079675D01*
Y2911380D01*
X1457825Y2908327D01*
X1455473Y2899546D01*
Y2890454D01*
X1457825Y2881673D01*
X1462371Y2873800D01*
X1468800Y2867371D01*
X1476673Y2862825D01*
X1485454Y2860472D01*
X1494546D01*
X1495865Y2860826D01*
X1500395Y2856863D01*
Y2484705D01*
X1495196D01*
Y2644100D01*
X1494420Y2648001D01*
X1492210Y2651309D01*
X1292666Y2850853D01*
X1294579Y2855472D01*
X1295204D01*
X1305257Y2858166D01*
X1314271Y2863370D01*
X1321630Y2870729D01*
X1326834Y2879743D01*
X1328242Y2885000D01*
X1290000D01*
Y2895000D01*
X1280000D01*
Y2933242D01*
X1274743Y2931834D01*
X1265729Y2926630D01*
X1261173Y2922074D01*
X1258239Y2919365D01*
X1254449Y2922084D01*
X1170580Y3005953D01*
X1167272Y3008163D01*
X1163370Y3008939D01*
X835326D01*
X788265Y3056000D01*
X790336Y3061000D01*
X794476D01*
X803124Y3063317D01*
X810876Y3067793D01*
X817207Y3074124D01*
X821683Y3081876D01*
X824000Y3090524D01*
Y3099476D01*
X821683Y3108124D01*
X817207Y3115876D01*
X810876Y3122207D01*
X803124Y3126683D01*
X794476Y3129000D01*
X785524D01*
X776876Y3126683D01*
X769124Y3122207D01*
X762793Y3115876D01*
X759196Y3109646D01*
X754196Y3110986D01*
Y3362213D01*
X753420Y3366115D01*
X751210Y3369423D01*
X500196Y3620436D01*
Y3662533D01*
X503123Y3663317D01*
X510877Y3667793D01*
X517207Y3674124D01*
X521683Y3681876D01*
X524000Y3690524D01*
Y3699476D01*
X521683Y3708124D01*
X520412Y3710325D01*
Y3878620D01*
X522174Y3881673D01*
X524528Y3890454D01*
Y3899546D01*
X522174Y3908327D01*
X517629Y3916200D01*
X511200Y3922629D01*
X503327Y3927175D01*
X494546Y3929528D01*
D02*
G37*
G36*
X894476Y3629000D02*
X885524D01*
X876876Y3626683D01*
X869124Y3622207D01*
X862793Y3615876D01*
X858317Y3608124D01*
X856000Y3599476D01*
Y3590524D01*
X858317Y3581876D01*
X862793Y3574124D01*
X869124Y3567793D01*
X876876Y3563317D01*
X885524Y3561000D01*
X894476D01*
X903124Y3563317D01*
X910876Y3567793D01*
X917207Y3574124D01*
X921683Y3581876D01*
X924000Y3590524D01*
Y3599476D01*
X921683Y3608124D01*
X917207Y3615876D01*
X910876Y3622207D01*
X903124Y3626683D01*
X894476Y3629000D01*
D02*
G37*
G36*
X2444476Y3604000D02*
X2435524D01*
X2426876Y3601683D01*
X2419124Y3597207D01*
X2412793Y3590876D01*
X2408317Y3583124D01*
X2406000Y3574476D01*
Y3565524D01*
X2408317Y3556876D01*
X2412793Y3549124D01*
X2419124Y3542793D01*
X2426876Y3538317D01*
X2435524Y3536000D01*
X2444476D01*
X2453124Y3538317D01*
X2460876Y3542793D01*
X2467207Y3549124D01*
X2471683Y3556876D01*
X2474000Y3565524D01*
Y3574476D01*
X2471683Y3583124D01*
X2467207Y3590876D01*
X2460876Y3597207D01*
X2453124Y3601683D01*
X2444476Y3604000D01*
D02*
G37*
G36*
X2344476D02*
X2335524D01*
X2326876Y3601683D01*
X2319124Y3597207D01*
X2312793Y3590876D01*
X2308317Y3583124D01*
X2306000Y3574476D01*
Y3565524D01*
X2308317Y3556876D01*
X2312793Y3549124D01*
X2319124Y3542793D01*
X2326876Y3538317D01*
X2335524Y3536000D01*
X2344476D01*
X2353124Y3538317D01*
X2360876Y3542793D01*
X2367207Y3549124D01*
X2371683Y3556876D01*
X2374000Y3565524D01*
Y3574476D01*
X2371683Y3583124D01*
X2367207Y3590876D01*
X2360876Y3597207D01*
X2353124Y3601683D01*
X2344476Y3604000D01*
D02*
G37*
G36*
X2244476D02*
X2235524D01*
X2226876Y3601683D01*
X2219124Y3597207D01*
X2212793Y3590876D01*
X2208317Y3583124D01*
X2206000Y3574476D01*
Y3565524D01*
X2208317Y3556876D01*
X2212793Y3549124D01*
X2219124Y3542793D01*
X2226876Y3538317D01*
X2235524Y3536000D01*
X2244476D01*
X2253124Y3538317D01*
X2260876Y3542793D01*
X2267207Y3549124D01*
X2271683Y3556876D01*
X2274000Y3565524D01*
Y3574476D01*
X2271683Y3583124D01*
X2267207Y3590876D01*
X2260876Y3597207D01*
X2253124Y3601683D01*
X2244476Y3604000D01*
D02*
G37*
G36*
X2144476D02*
X2135524D01*
X2126876Y3601683D01*
X2119124Y3597207D01*
X2112793Y3590876D01*
X2108317Y3583124D01*
X2106000Y3574476D01*
Y3565524D01*
X2108317Y3556876D01*
X2112793Y3549124D01*
X2119124Y3542793D01*
X2126876Y3538317D01*
X2135524Y3536000D01*
X2144476D01*
X2153124Y3538317D01*
X2160876Y3542793D01*
X2167207Y3549124D01*
X2171683Y3556876D01*
X2174000Y3565524D01*
Y3574476D01*
X2171683Y3583124D01*
X2167207Y3590876D01*
X2160876Y3597207D01*
X2153124Y3601683D01*
X2144476Y3604000D01*
D02*
G37*
G36*
X2044476D02*
X2035524D01*
X2026877Y3601683D01*
X2019123Y3597207D01*
X2012793Y3590876D01*
X2008317Y3583124D01*
X2006000Y3574476D01*
Y3565524D01*
X2008317Y3556876D01*
X2012793Y3549124D01*
X2019123Y3542793D01*
X2026877Y3538317D01*
X2035524Y3536000D01*
X2044476D01*
X2053124Y3538317D01*
X2060876Y3542793D01*
X2067207Y3549124D01*
X2071683Y3556876D01*
X2074000Y3565524D01*
Y3574476D01*
X2071683Y3583124D01*
X2067207Y3590876D01*
X2060876Y3597207D01*
X2053124Y3601683D01*
X2044476Y3604000D01*
D02*
G37*
G36*
X85000Y3506320D02*
Y3475000D01*
X116320D01*
X114604Y3481404D01*
X109008Y3491096D01*
X101096Y3499008D01*
X91404Y3504604D01*
X85000Y3506320D01*
D02*
G37*
G36*
X65000D02*
X58596Y3504604D01*
X48904Y3499008D01*
X40992Y3491096D01*
X35396Y3481404D01*
X33680Y3475000D01*
X65000D01*
Y3506320D01*
D02*
G37*
G36*
X894476Y3529000D02*
X885524D01*
X876876Y3526683D01*
X869124Y3522207D01*
X862793Y3515876D01*
X858317Y3508124D01*
X856000Y3499476D01*
Y3490524D01*
X858317Y3481876D01*
X862793Y3474124D01*
X869124Y3467793D01*
X876876Y3463317D01*
X885524Y3461000D01*
X894476D01*
X903124Y3463317D01*
X910876Y3467793D01*
X917207Y3474124D01*
X921683Y3481876D01*
X924000Y3490524D01*
Y3499476D01*
X921683Y3508124D01*
X917207Y3515876D01*
X910876Y3522207D01*
X903124Y3526683D01*
X894476Y3529000D01*
D02*
G37*
G36*
X3345000Y3486320D02*
Y3455000D01*
X3376320D01*
X3374604Y3461404D01*
X3369008Y3471096D01*
X3361096Y3479008D01*
X3351404Y3484604D01*
X3345000Y3486320D01*
D02*
G37*
G36*
X3325000D02*
X3318596Y3484604D01*
X3308904Y3479008D01*
X3300992Y3471096D01*
X3295396Y3461404D01*
X3293680Y3455000D01*
X3325000D01*
Y3486320D01*
D02*
G37*
G36*
X116320Y3455000D02*
X85000D01*
Y3423680D01*
X91404Y3425396D01*
X101096Y3430992D01*
X109008Y3438904D01*
X114604Y3448596D01*
X116320Y3455000D01*
D02*
G37*
G36*
X65000D02*
X33680D01*
X35396Y3448596D01*
X40992Y3438904D01*
X48904Y3430992D01*
X58596Y3425396D01*
X65000Y3423680D01*
Y3455000D01*
D02*
G37*
G36*
X3376320Y3435000D02*
X3345000D01*
Y3403680D01*
X3351404Y3405396D01*
X3361096Y3410992D01*
X3369008Y3418904D01*
X3374604Y3428596D01*
X3376320Y3435000D01*
D02*
G37*
G36*
X3325000D02*
X3293680D01*
X3295396Y3428596D01*
X3300992Y3418904D01*
X3308904Y3410992D01*
X3318596Y3405396D01*
X3325000Y3403680D01*
Y3435000D01*
D02*
G37*
G36*
X894476Y3429000D02*
X885524D01*
X876876Y3426683D01*
X869124Y3422207D01*
X862793Y3415876D01*
X858317Y3408124D01*
X856000Y3399476D01*
Y3390524D01*
X858317Y3381876D01*
X862793Y3374124D01*
X869124Y3367793D01*
X876876Y3363317D01*
X885524Y3361000D01*
X894476D01*
X903124Y3363317D01*
X910876Y3367793D01*
X917207Y3374124D01*
X921683Y3381876D01*
X924000Y3390524D01*
Y3399476D01*
X921683Y3408124D01*
X917207Y3415876D01*
X910876Y3422207D01*
X903124Y3426683D01*
X894476Y3429000D01*
D02*
G37*
G36*
Y3329000D02*
X885524D01*
X876876Y3326683D01*
X869124Y3322207D01*
X862793Y3315876D01*
X858317Y3308124D01*
X856000Y3299476D01*
Y3290524D01*
X858317Y3281876D01*
X862793Y3274124D01*
X869124Y3267793D01*
X876876Y3263317D01*
X885524Y3261000D01*
X894476D01*
X903124Y3263317D01*
X910876Y3267793D01*
X917207Y3274124D01*
X921683Y3281876D01*
X924000Y3290524D01*
Y3299476D01*
X921683Y3308124D01*
X917207Y3315876D01*
X910876Y3322207D01*
X903124Y3326683D01*
X894476Y3329000D01*
D02*
G37*
G36*
X85000Y3206320D02*
Y3175000D01*
X116320D01*
X114604Y3181404D01*
X109008Y3191096D01*
X101096Y3199008D01*
X91404Y3204604D01*
X85000Y3206320D01*
D02*
G37*
G36*
X65000D02*
X58596Y3204604D01*
X48904Y3199008D01*
X40992Y3191096D01*
X35396Y3181404D01*
X33680Y3175000D01*
X65000D01*
Y3206320D01*
D02*
G37*
G36*
X2594476Y3229000D02*
X2585524D01*
X2576876Y3226683D01*
X2569124Y3222207D01*
X2562793Y3215876D01*
X2558317Y3208124D01*
X2556000Y3199476D01*
Y3190524D01*
X2558317Y3181876D01*
X2562793Y3174124D01*
X2569124Y3167793D01*
X2576876Y3163317D01*
X2585524Y3161000D01*
X2594476D01*
X2603124Y3163317D01*
X2610876Y3167793D01*
X2617207Y3174124D01*
X2621683Y3181876D01*
X2624000Y3190524D01*
Y3199476D01*
X2621683Y3208124D01*
X2617207Y3215876D01*
X2610876Y3222207D01*
X2603124Y3226683D01*
X2594476Y3229000D01*
D02*
G37*
G36*
X2394476D02*
X2385524D01*
X2376876Y3226683D01*
X2369124Y3222207D01*
X2362793Y3215876D01*
X2358317Y3208124D01*
X2356000Y3199476D01*
Y3190524D01*
X2358317Y3181876D01*
X2362793Y3174124D01*
X2369124Y3167793D01*
X2376876Y3163317D01*
X2385524Y3161000D01*
X2394476D01*
X2403124Y3163317D01*
X2410876Y3167793D01*
X2417207Y3174124D01*
X2421683Y3181876D01*
X2424000Y3190524D01*
Y3199476D01*
X2421683Y3208124D01*
X2417207Y3215876D01*
X2410876Y3222207D01*
X2403124Y3226683D01*
X2394476Y3229000D01*
D02*
G37*
G36*
X2294476D02*
X2285524D01*
X2276876Y3226683D01*
X2269124Y3222207D01*
X2262793Y3215876D01*
X2258317Y3208124D01*
X2256000Y3199476D01*
Y3190524D01*
X2258317Y3181876D01*
X2262793Y3174124D01*
X2269124Y3167793D01*
X2276876Y3163317D01*
X2285524Y3161000D01*
X2294476D01*
X2303124Y3163317D01*
X2310876Y3167793D01*
X2317207Y3174124D01*
X2321683Y3181876D01*
X2324000Y3190524D01*
Y3199476D01*
X2321683Y3208124D01*
X2317207Y3215876D01*
X2310876Y3222207D01*
X2303124Y3226683D01*
X2294476Y3229000D01*
D02*
G37*
G36*
X2194476D02*
X2185524D01*
X2176876Y3226683D01*
X2169124Y3222207D01*
X2162793Y3215876D01*
X2158317Y3208124D01*
X2156000Y3199476D01*
Y3190524D01*
X2158317Y3181876D01*
X2162793Y3174124D01*
X2169124Y3167793D01*
X2176876Y3163317D01*
X2185524Y3161000D01*
X2194476D01*
X2203124Y3163317D01*
X2210876Y3167793D01*
X2217207Y3174124D01*
X2221683Y3181876D01*
X2224000Y3190524D01*
Y3199476D01*
X2221683Y3208124D01*
X2217207Y3215876D01*
X2210876Y3222207D01*
X2203124Y3226683D01*
X2194476Y3229000D01*
D02*
G37*
G36*
X894476D02*
X885524D01*
X876876Y3226683D01*
X869124Y3222207D01*
X862793Y3215876D01*
X858317Y3208124D01*
X856000Y3199476D01*
Y3190524D01*
X858317Y3181876D01*
X862793Y3174124D01*
X869124Y3167793D01*
X876876Y3163317D01*
X885524Y3161000D01*
X894476D01*
X903124Y3163317D01*
X910876Y3167793D01*
X917207Y3174124D01*
X921683Y3181876D01*
X924000Y3190524D01*
Y3199476D01*
X921683Y3208124D01*
X917207Y3215876D01*
X910876Y3222207D01*
X903124Y3226683D01*
X894476Y3229000D01*
D02*
G37*
G36*
X3345000Y3186320D02*
Y3155000D01*
X3376320D01*
X3374604Y3161404D01*
X3369008Y3171096D01*
X3361096Y3179008D01*
X3351404Y3184604D01*
X3345000Y3186320D01*
D02*
G37*
G36*
X3325000D02*
X3318596Y3184604D01*
X3308904Y3179008D01*
X3300992Y3171096D01*
X3295396Y3161404D01*
X3293680Y3155000D01*
X3325000D01*
Y3186320D01*
D02*
G37*
G36*
X116320Y3155000D02*
X85000D01*
Y3123680D01*
X91404Y3125396D01*
X101096Y3130992D01*
X109008Y3138904D01*
X114604Y3148596D01*
X116320Y3155000D01*
D02*
G37*
G36*
X65000D02*
X33680D01*
X35396Y3148596D01*
X40992Y3138904D01*
X48904Y3130992D01*
X58596Y3125396D01*
X65000Y3123680D01*
Y3155000D01*
D02*
G37*
G36*
X1300000Y3132696D02*
Y3105000D01*
X1327696D01*
X1326342Y3110053D01*
X1321208Y3118947D01*
X1313947Y3126208D01*
X1305053Y3131342D01*
X1300000Y3132696D01*
D02*
G37*
G36*
X2600000D02*
Y3105000D01*
X2627696D01*
X2626342Y3110053D01*
X2621208Y3118947D01*
X2613947Y3126208D01*
X2605053Y3131342D01*
X2600000Y3132696D01*
D02*
G37*
G36*
X1280000D02*
X1274947Y3131342D01*
X1266053Y3126208D01*
X1258792Y3118947D01*
X1253658Y3110053D01*
X1252304Y3105000D01*
X1280000D01*
Y3132696D01*
D02*
G37*
G36*
X2580000D02*
X2574947Y3131342D01*
X2566053Y3126208D01*
X2558792Y3118947D01*
X2553658Y3110053D01*
X2552304Y3105000D01*
X2580000D01*
Y3132696D01*
D02*
G37*
G36*
X3376320Y3135000D02*
X3345000D01*
Y3103680D01*
X3351404Y3105396D01*
X3361096Y3110992D01*
X3369008Y3118904D01*
X3374604Y3128596D01*
X3376320Y3135000D01*
D02*
G37*
G36*
X3325000D02*
X3293680D01*
X3295396Y3128596D01*
X3300992Y3118904D01*
X3308904Y3110992D01*
X3318596Y3105396D01*
X3325000Y3103680D01*
Y3135000D01*
D02*
G37*
G36*
X1194476Y3129000D02*
X1185524D01*
X1176877Y3126683D01*
X1169123Y3122207D01*
X1162793Y3115876D01*
X1158317Y3108124D01*
X1156000Y3099476D01*
Y3090524D01*
X1158317Y3081876D01*
X1162793Y3074124D01*
X1169123Y3067793D01*
X1176877Y3063317D01*
X1185524Y3061000D01*
X1194476D01*
X1203123Y3063317D01*
X1210877Y3067793D01*
X1217207Y3074124D01*
X1221683Y3081876D01*
X1224000Y3090524D01*
Y3099476D01*
X1221683Y3108124D01*
X1217207Y3115876D01*
X1210877Y3122207D01*
X1203123Y3126683D01*
X1194476Y3129000D01*
D02*
G37*
G36*
X1094476D02*
X1085524D01*
X1076877Y3126683D01*
X1069123Y3122207D01*
X1062793Y3115876D01*
X1058317Y3108124D01*
X1056000Y3099476D01*
Y3090524D01*
X1058317Y3081876D01*
X1062793Y3074124D01*
X1069123Y3067793D01*
X1076877Y3063317D01*
X1085524Y3061000D01*
X1094476D01*
X1103123Y3063317D01*
X1110877Y3067793D01*
X1117207Y3074124D01*
X1121683Y3081876D01*
X1124000Y3090524D01*
Y3099476D01*
X1121683Y3108124D01*
X1117207Y3115876D01*
X1110877Y3122207D01*
X1103123Y3126683D01*
X1094476Y3129000D01*
D02*
G37*
G36*
X994476D02*
X985524D01*
X976876Y3126683D01*
X969124Y3122207D01*
X962793Y3115876D01*
X958317Y3108124D01*
X956000Y3099476D01*
Y3090524D01*
X958317Y3081876D01*
X962793Y3074124D01*
X969124Y3067793D01*
X976876Y3063317D01*
X985524Y3061000D01*
X994476D01*
X1003124Y3063317D01*
X1010876Y3067793D01*
X1017207Y3074124D01*
X1021683Y3081876D01*
X1024000Y3090524D01*
Y3099476D01*
X1021683Y3108124D01*
X1017207Y3115876D01*
X1010876Y3122207D01*
X1003124Y3126683D01*
X994476Y3129000D01*
D02*
G37*
G36*
X894476D02*
X885524D01*
X876876Y3126683D01*
X869124Y3122207D01*
X862793Y3115876D01*
X858317Y3108124D01*
X856000Y3099476D01*
Y3090524D01*
X858317Y3081876D01*
X862793Y3074124D01*
X869124Y3067793D01*
X876876Y3063317D01*
X885524Y3061000D01*
X894476D01*
X903124Y3063317D01*
X910876Y3067793D01*
X917207Y3074124D01*
X921683Y3081876D01*
X924000Y3090524D01*
Y3099476D01*
X921683Y3108124D01*
X917207Y3115876D01*
X910876Y3122207D01*
X903124Y3126683D01*
X894476Y3129000D01*
D02*
G37*
G36*
X2627696Y3085000D02*
X2600000D01*
Y3057304D01*
X2605053Y3058658D01*
X2613947Y3063792D01*
X2621208Y3071053D01*
X2626342Y3079947D01*
X2627696Y3085000D01*
D02*
G37*
G36*
X1327696D02*
X1300000D01*
Y3057304D01*
X1305053Y3058658D01*
X1313947Y3063792D01*
X1321208Y3071053D01*
X1326342Y3079947D01*
X1327696Y3085000D01*
D02*
G37*
G36*
X2580000D02*
X2552304D01*
X2553658Y3079947D01*
X2558792Y3071053D01*
X2566053Y3063792D01*
X2574947Y3058658D01*
X2580000Y3057304D01*
Y3085000D01*
D02*
G37*
G36*
X1280000D02*
X1252304D01*
X1253658Y3079947D01*
X1258792Y3071053D01*
X1266053Y3063792D01*
X1274947Y3058658D01*
X1280000Y3057304D01*
Y3085000D01*
D02*
G37*
G36*
X1300000Y2933242D02*
Y2905000D01*
X1328242D01*
X1326834Y2910257D01*
X1321630Y2919271D01*
X1314271Y2926630D01*
X1305257Y2931834D01*
X1300000Y2933242D01*
D02*
G37*
G36*
X2600000D02*
Y2905000D01*
X2628242D01*
X2626834Y2910257D01*
X2621630Y2919271D01*
X2614271Y2926630D01*
X2605257Y2931834D01*
X2600000Y2933242D01*
D02*
G37*
G36*
X2580000D02*
X2574743Y2931834D01*
X2565729Y2926630D01*
X2558370Y2919271D01*
X2553166Y2910257D01*
X2551758Y2905000D01*
X2580000D01*
Y2933242D01*
D02*
G37*
G36*
X1894476Y3129000D02*
X1885524D01*
X1876877Y3126683D01*
X1869123Y3122207D01*
X1862793Y3115876D01*
X1858317Y3108124D01*
X1856000Y3099476D01*
Y3090524D01*
X1858317Y3081876D01*
X1859588Y3079675D01*
Y2911380D01*
X1857825Y2908327D01*
X1856668Y2904008D01*
X1854011Y2902787D01*
X1851036Y2902308D01*
X1848516Y2903992D01*
X1844614Y2904768D01*
X1823128D01*
X1822175Y2908327D01*
X1820412Y2911380D01*
Y3079675D01*
X1821683Y3081876D01*
X1824000Y3090524D01*
Y3099476D01*
X1821683Y3108124D01*
X1817207Y3115876D01*
X1810877Y3122207D01*
X1803123Y3126683D01*
X1794476Y3129000D01*
X1785524D01*
X1776877Y3126683D01*
X1769123Y3122207D01*
X1762793Y3115876D01*
X1758317Y3108124D01*
X1756000Y3099476D01*
Y3090524D01*
X1758317Y3081876D01*
X1759588Y3079675D01*
Y2911380D01*
X1757825Y2908327D01*
X1755473Y2899546D01*
Y2890454D01*
X1757825Y2881673D01*
X1762371Y2873800D01*
X1768800Y2867371D01*
X1776673Y2862825D01*
X1785454Y2860472D01*
X1794546D01*
X1803327Y2862825D01*
X1811200Y2867371D01*
X1817629Y2873800D01*
X1822175Y2881673D01*
X1822899Y2884376D01*
X1840276D01*
Y2878627D01*
X1841053Y2874725D01*
X1843263Y2871418D01*
X1866418Y2848263D01*
X1869725Y2846053D01*
X1873627Y2845276D01*
X1910304D01*
X2023939Y2731642D01*
X2023000Y2729376D01*
Y2720624D01*
X2026349Y2712538D01*
X2032538Y2706349D01*
X2040624Y2703000D01*
X2049376D01*
X2057462Y2706349D01*
X2063651Y2712538D01*
X2067000Y2720624D01*
Y2729376D01*
X2063651Y2737462D01*
X2057462Y2743651D01*
X2049376Y2747000D01*
X2040624D01*
X2038358Y2746061D01*
X1921737Y2862682D01*
X1918429Y2864892D01*
X1916230Y2865330D01*
X1914505Y2869407D01*
X1914497Y2870668D01*
X1917629Y2873800D01*
X1922175Y2881673D01*
X1924527Y2890454D01*
Y2899546D01*
X1922175Y2908327D01*
X1920412Y2911380D01*
Y3079675D01*
X1921683Y3081876D01*
X1924000Y3090524D01*
Y3099476D01*
X1921683Y3108124D01*
X1917207Y3115876D01*
X1910877Y3122207D01*
X1903123Y3126683D01*
X1894476Y3129000D01*
D02*
G37*
G36*
X85000Y2906320D02*
Y2875000D01*
X116320D01*
X114604Y2881404D01*
X109008Y2891096D01*
X101096Y2899008D01*
X91404Y2904604D01*
X85000Y2906320D01*
D02*
G37*
G36*
X65000D02*
X58596Y2904604D01*
X48904Y2899008D01*
X40992Y2891096D01*
X35396Y2881404D01*
X33680Y2875000D01*
X65000D01*
Y2906320D01*
D02*
G37*
G36*
X2694476Y3129000D02*
X2685524D01*
X2676876Y3126683D01*
X2669124Y3122207D01*
X2662793Y3115876D01*
X2658317Y3108124D01*
X2656000Y3099476D01*
Y3090524D01*
X2658317Y3081876D01*
X2659588Y3079675D01*
Y2929528D01*
X2655472D01*
Y2860472D01*
X2724528D01*
Y2929528D01*
X2720412D01*
Y3079675D01*
X2721683Y3081876D01*
X2724000Y3090524D01*
Y3099476D01*
X2721683Y3108124D01*
X2717207Y3115876D01*
X2710876Y3122207D01*
X2703124Y3126683D01*
X2694476Y3129000D01*
D02*
G37*
G36*
X2494476D02*
X2485524D01*
X2476876Y3126683D01*
X2469124Y3122207D01*
X2462793Y3115876D01*
X2458317Y3108124D01*
X2456000Y3099476D01*
Y3090524D01*
X2458317Y3081876D01*
X2459588Y3079675D01*
Y2911380D01*
X2457825Y2908327D01*
X2455472Y2899546D01*
Y2890454D01*
X2457825Y2881673D01*
X2462371Y2873800D01*
X2468800Y2867371D01*
X2476673Y2862825D01*
X2485454Y2860472D01*
X2494546D01*
X2503327Y2862825D01*
X2511200Y2867371D01*
X2517629Y2873800D01*
X2522175Y2881673D01*
X2524528Y2890454D01*
Y2899546D01*
X2522175Y2908327D01*
X2520412Y2911380D01*
Y3079675D01*
X2521683Y3081876D01*
X2524000Y3090524D01*
Y3099476D01*
X2521683Y3108124D01*
X2517207Y3115876D01*
X2510876Y3122207D01*
X2503124Y3126683D01*
X2494476Y3129000D01*
D02*
G37*
G36*
X1694476D02*
X1685524D01*
X1676877Y3126683D01*
X1669123Y3122207D01*
X1662793Y3115876D01*
X1658317Y3108124D01*
X1656000Y3099476D01*
Y3090524D01*
X1658317Y3081876D01*
X1659588Y3079675D01*
Y2911380D01*
X1657825Y2908327D01*
X1655473Y2899546D01*
Y2890454D01*
X1657825Y2881673D01*
X1662371Y2873800D01*
X1668800Y2867371D01*
X1676673Y2862825D01*
X1685454Y2860472D01*
X1694546D01*
X1703327Y2862825D01*
X1711200Y2867371D01*
X1717629Y2873800D01*
X1722175Y2881673D01*
X1724527Y2890454D01*
Y2899546D01*
X1722175Y2908327D01*
X1720412Y2911380D01*
Y3079675D01*
X1721683Y3081876D01*
X1724000Y3090524D01*
Y3099476D01*
X1721683Y3108124D01*
X1717207Y3115876D01*
X1710877Y3122207D01*
X1703123Y3126683D01*
X1694476Y3129000D01*
D02*
G37*
G36*
X1394476D02*
X1385524D01*
X1376877Y3126683D01*
X1369123Y3122207D01*
X1362793Y3115876D01*
X1358317Y3108124D01*
X1356000Y3099476D01*
Y3090524D01*
X1358317Y3081876D01*
X1359588Y3079675D01*
Y2911380D01*
X1357825Y2908327D01*
X1355473Y2899546D01*
Y2890454D01*
X1357825Y2881673D01*
X1362371Y2873800D01*
X1368800Y2867371D01*
X1376673Y2862825D01*
X1385454Y2860472D01*
X1394546D01*
X1403327Y2862825D01*
X1411200Y2867371D01*
X1417629Y2873800D01*
X1422175Y2881673D01*
X1424527Y2890454D01*
Y2899546D01*
X1422175Y2908327D01*
X1420412Y2911380D01*
Y3079675D01*
X1421683Y3081876D01*
X1424000Y3090524D01*
Y3099476D01*
X1421683Y3108124D01*
X1417207Y3115876D01*
X1410877Y3122207D01*
X1403123Y3126683D01*
X1394476Y3129000D01*
D02*
G37*
G36*
X2628242Y2885000D02*
X2600000D01*
Y2856758D01*
X2605257Y2858166D01*
X2614271Y2863370D01*
X2621630Y2870729D01*
X2626834Y2879743D01*
X2628242Y2885000D01*
D02*
G37*
G36*
X2580000D02*
X2551758D01*
X2553166Y2879743D01*
X2558370Y2870729D01*
X2565729Y2863370D01*
X2574743Y2858166D01*
X2580000Y2856758D01*
Y2885000D01*
D02*
G37*
G36*
X3345000Y2886320D02*
Y2855000D01*
X3376320D01*
X3374604Y2861404D01*
X3369008Y2871096D01*
X3361096Y2879008D01*
X3351404Y2884604D01*
X3345000Y2886320D01*
D02*
G37*
G36*
X3325000D02*
X3318596Y2884604D01*
X3308904Y2879008D01*
X3300992Y2871096D01*
X3295396Y2861404D01*
X3293680Y2855000D01*
X3325000D01*
Y2886320D01*
D02*
G37*
G36*
X116320Y2855000D02*
X85000D01*
Y2823680D01*
X91404Y2825396D01*
X101096Y2830992D01*
X109008Y2838904D01*
X114604Y2848596D01*
X116320Y2855000D01*
D02*
G37*
G36*
X65000D02*
X33680D01*
X35396Y2848596D01*
X40992Y2838904D01*
X48904Y2830992D01*
X58596Y2825396D01*
X65000Y2823680D01*
Y2855000D01*
D02*
G37*
G36*
X3376320Y2835000D02*
X3345000D01*
Y2803680D01*
X3351404Y2805396D01*
X3361096Y2810992D01*
X3369008Y2818904D01*
X3374604Y2828596D01*
X3376320Y2835000D01*
D02*
G37*
G36*
X3325000D02*
X3293680D01*
X3295396Y2828596D01*
X3300992Y2818904D01*
X3308904Y2810992D01*
X3318596Y2805396D01*
X3325000Y2803680D01*
Y2835000D01*
D02*
G37*
G36*
X2394476Y3129000D02*
X2385524D01*
X2376876Y3126683D01*
X2369124Y3122207D01*
X2362793Y3115876D01*
X2358317Y3108124D01*
X2356000Y3099476D01*
Y3090524D01*
X2358317Y3081876D01*
X2359588Y3079675D01*
Y2911380D01*
X2357825Y2908327D01*
X2355472Y2899546D01*
Y2890454D01*
X2357825Y2881673D01*
X2362371Y2873800D01*
X2368800Y2867371D01*
X2376673Y2862825D01*
X2385454Y2860472D01*
X2394546D01*
X2403327Y2862825D01*
X2403849Y2863127D01*
X2504612Y2762364D01*
X2502698Y2757745D01*
X2445279D01*
X2321873Y2881151D01*
X2322175Y2881673D01*
X2324528Y2890454D01*
Y2899546D01*
X2322175Y2908327D01*
X2320412Y2911380D01*
Y3079675D01*
X2321683Y3081876D01*
X2324000Y3090524D01*
Y3099476D01*
X2321683Y3108124D01*
X2317207Y3115876D01*
X2310876Y3122207D01*
X2303124Y3126683D01*
X2294476Y3129000D01*
X2285524D01*
X2276876Y3126683D01*
X2269124Y3122207D01*
X2262793Y3115876D01*
X2258317Y3108124D01*
X2256000Y3099476D01*
Y3090524D01*
X2258317Y3081876D01*
X2259588Y3079675D01*
Y2911380D01*
X2257825Y2908327D01*
X2255472Y2899546D01*
Y2890454D01*
X2257825Y2881673D01*
X2262371Y2873800D01*
X2268800Y2867371D01*
X2276673Y2862825D01*
X2285454Y2860472D01*
X2294546D01*
X2303327Y2862825D01*
X2303849Y2863127D01*
X2424612Y2742364D01*
X2422698Y2737745D01*
X2365279D01*
X2221873Y2881151D01*
X2222175Y2881673D01*
X2224528Y2890454D01*
Y2899546D01*
X2222175Y2908327D01*
X2220412Y2911380D01*
Y3079675D01*
X2221683Y3081876D01*
X2224000Y3090524D01*
Y3099476D01*
X2221683Y3108124D01*
X2217207Y3115876D01*
X2210876Y3122207D01*
X2203124Y3126683D01*
X2194476Y3129000D01*
X2185524D01*
X2176876Y3126683D01*
X2169124Y3122207D01*
X2162793Y3115876D01*
X2158317Y3108124D01*
X2156000Y3099476D01*
Y3090524D01*
X2158317Y3081876D01*
X2159588Y3079675D01*
Y2911380D01*
X2157825Y2908327D01*
X2155472Y2899546D01*
Y2890454D01*
X2157825Y2881673D01*
X2162371Y2873800D01*
X2168800Y2867371D01*
X2176673Y2862825D01*
X2185454Y2860472D01*
X2194546D01*
X2203327Y2862825D01*
X2203849Y2863127D01*
X2344612Y2722364D01*
X2342698Y2717745D01*
X2285279D01*
X2121873Y2881151D01*
X2122175Y2881673D01*
X2124528Y2890454D01*
Y2899546D01*
X2122175Y2908327D01*
X2120412Y2911380D01*
Y3079675D01*
X2121683Y3081876D01*
X2124000Y3090524D01*
Y3099476D01*
X2121683Y3108124D01*
X2117207Y3115876D01*
X2110876Y3122207D01*
X2103124Y3126683D01*
X2094476Y3129000D01*
X2085524D01*
X2076876Y3126683D01*
X2069124Y3122207D01*
X2062793Y3115876D01*
X2058317Y3108124D01*
X2056000Y3099476D01*
Y3090524D01*
X2058317Y3081876D01*
X2059588Y3079675D01*
Y2911380D01*
X2057825Y2908327D01*
X2055472Y2899546D01*
Y2890454D01*
X2057825Y2881673D01*
X2062371Y2873800D01*
X2068800Y2867371D01*
X2076673Y2862825D01*
X2085454Y2860472D01*
X2094546D01*
X2103327Y2862825D01*
X2103849Y2863127D01*
X2264612Y2702364D01*
X2262698Y2697745D01*
X2205279D01*
X2021873Y2881151D01*
X2022175Y2881673D01*
X2024527Y2890454D01*
Y2899546D01*
X2022175Y2908327D01*
X2020412Y2911380D01*
Y3079675D01*
X2021683Y3081876D01*
X2024000Y3090524D01*
Y3099476D01*
X2021683Y3108124D01*
X2017207Y3115876D01*
X2010877Y3122207D01*
X2003123Y3126683D01*
X1994476Y3129000D01*
X1985524D01*
X1976877Y3126683D01*
X1969123Y3122207D01*
X1962793Y3115876D01*
X1958317Y3108124D01*
X1956000Y3099476D01*
Y3090524D01*
X1958317Y3081876D01*
X1959588Y3079675D01*
Y2911380D01*
X1957825Y2908327D01*
X1955473Y2899546D01*
Y2890454D01*
X1957825Y2881673D01*
X1962371Y2873800D01*
X1968800Y2867371D01*
X1976673Y2862825D01*
X1985454Y2860472D01*
X1994546D01*
X2003327Y2862825D01*
X2003849Y2863127D01*
X2190988Y2675988D01*
X2192807Y2674773D01*
X2191290Y2669773D01*
X2037028D01*
X2032150Y2668802D01*
X2028016Y2666040D01*
X1913976Y2552000D01*
X1905624D01*
X1897538Y2548651D01*
X1891349Y2542462D01*
X1888000Y2534376D01*
Y2525624D01*
X1891349Y2517538D01*
X1897538Y2511349D01*
X1905624Y2508000D01*
X1914376D01*
X1922462Y2511349D01*
X1928651Y2517538D01*
X1932000Y2525624D01*
Y2533976D01*
X2042307Y2644283D01*
X2748382D01*
X2750454Y2639283D01*
X2747371Y2636200D01*
X2742825Y2628327D01*
X2740472Y2619546D01*
Y2610454D01*
X2742825Y2601673D01*
X2747371Y2593800D01*
X2753800Y2587371D01*
X2761673Y2582825D01*
X2770454Y2580472D01*
X2779546D01*
X2788327Y2582825D01*
X2796200Y2587371D01*
X2802629Y2593800D01*
X2807175Y2601673D01*
X2809528Y2610454D01*
Y2615573D01*
X2814528Y2618246D01*
X2814559Y2618225D01*
X2819436Y2617255D01*
X2840472D01*
Y2580472D01*
X2904283D01*
Y2542307D01*
X2891503Y2529528D01*
X2840472D01*
Y2460472D01*
X2909528D01*
Y2511503D01*
X2919663Y2521639D01*
X2924283Y2519726D01*
Y2442307D01*
X2891503Y2409528D01*
X2844919D01*
Y2439130D01*
X2843367Y2446933D01*
X2838947Y2453549D01*
X2807945Y2484550D01*
X2809528Y2490454D01*
Y2499546D01*
X2807175Y2508327D01*
X2802629Y2516200D01*
X2796200Y2522629D01*
X2788327Y2527175D01*
X2779546Y2529528D01*
X2770454D01*
X2761673Y2527175D01*
X2753800Y2522629D01*
X2747371Y2516200D01*
X2742825Y2508327D01*
X2740472Y2499546D01*
Y2490454D01*
X2742825Y2481673D01*
X2747371Y2473800D01*
X2753800Y2467371D01*
X2761673Y2462825D01*
X2770454Y2460472D01*
X2774347D01*
X2804136Y2430683D01*
Y2401765D01*
X2799136Y2399693D01*
X2796200Y2402629D01*
X2788327Y2407175D01*
X2779546Y2409528D01*
X2770454D01*
X2761673Y2407175D01*
X2753800Y2402629D01*
X2747371Y2396200D01*
X2742825Y2388327D01*
X2740472Y2379546D01*
Y2370454D01*
X2742825Y2361673D01*
X2747371Y2353800D01*
X2753800Y2347371D01*
X2761673Y2342825D01*
X2770454Y2340472D01*
X2779546D01*
X2788327Y2342825D01*
X2796200Y2347371D01*
X2799136Y2350307D01*
X2804136Y2348235D01*
Y2281765D01*
X2799136Y2279693D01*
X2796200Y2282629D01*
X2788327Y2287175D01*
X2779546Y2289528D01*
X2770454D01*
X2761673Y2287175D01*
X2753800Y2282629D01*
X2747371Y2276200D01*
X2742825Y2268327D01*
X2742669Y2267745D01*
X2702244D01*
Y2280669D01*
X2654843D01*
Y2229331D01*
X2702244D01*
Y2242255D01*
X2742669D01*
X2742825Y2241673D01*
X2747371Y2233800D01*
X2753800Y2227371D01*
X2761673Y2222825D01*
X2770454Y2220472D01*
X2779546D01*
X2788327Y2222825D01*
X2796200Y2227371D01*
X2799136Y2230307D01*
X2804136Y2228235D01*
Y2161765D01*
X2799136Y2159693D01*
X2796200Y2162629D01*
X2788327Y2167175D01*
X2779546Y2169528D01*
X2770454D01*
X2761673Y2167175D01*
X2753800Y2162629D01*
X2747371Y2156200D01*
X2742825Y2148327D01*
X2740472Y2139546D01*
Y2130454D01*
X2742825Y2121673D01*
X2747371Y2113800D01*
X2753800Y2107371D01*
X2761673Y2102825D01*
X2770454Y2100472D01*
X2779546D01*
X2788327Y2102825D01*
X2796200Y2107371D01*
X2799136Y2110307D01*
X2804136Y2108235D01*
Y2041764D01*
X2799136Y2039693D01*
X2796200Y2042629D01*
X2788327Y2047175D01*
X2779546Y2049528D01*
X2770454D01*
X2761673Y2047175D01*
X2753800Y2042629D01*
X2747371Y2036200D01*
X2742825Y2028327D01*
X2742669Y2027745D01*
X2702244D01*
Y2040669D01*
X2654843D01*
Y1989331D01*
X2702244D01*
Y2002255D01*
X2742669D01*
X2742825Y2001673D01*
X2747371Y1993800D01*
X2753800Y1987371D01*
X2761673Y1982825D01*
X2770454Y1980473D01*
X2779546D01*
X2788327Y1982825D01*
X2796200Y1987371D01*
X2799136Y1990307D01*
X2804136Y1988236D01*
Y1952974D01*
X2771421Y1920259D01*
X2767538Y1918651D01*
X2761349Y1912462D01*
X2758000Y1904376D01*
Y1895624D01*
X2761349Y1887538D01*
X2767538Y1881349D01*
X2775624Y1878000D01*
X2784376D01*
X2792462Y1881349D01*
X2798651Y1887538D01*
X2800259Y1891420D01*
X2838947Y1930108D01*
X2843367Y1936724D01*
X2844919Y1944528D01*
Y1980473D01*
X2909528D01*
Y2031504D01*
X3006040Y2128016D01*
X3008802Y2132150D01*
X3009773Y2137028D01*
Y2682842D01*
X3008802Y2687719D01*
X3006040Y2691854D01*
X2923882Y2774012D01*
X2919747Y2776775D01*
X2914870Y2777745D01*
X2525279D01*
X2421873Y2881151D01*
X2422175Y2881673D01*
X2424528Y2890454D01*
Y2899546D01*
X2422175Y2908327D01*
X2420412Y2911380D01*
Y3079675D01*
X2421683Y3081876D01*
X2424000Y3090524D01*
Y3099476D01*
X2421683Y3108124D01*
X2417207Y3115876D01*
X2410876Y3122207D01*
X2403124Y3126683D01*
X2394476Y3129000D01*
D02*
G37*
G36*
X85000Y2606320D02*
Y2575000D01*
X116320D01*
X114604Y2581404D01*
X109008Y2591096D01*
X101096Y2599008D01*
X91404Y2604604D01*
X85000Y2606320D01*
D02*
G37*
G36*
X65000D02*
X58596Y2604604D01*
X48904Y2599008D01*
X40992Y2591096D01*
X35396Y2581404D01*
X33680Y2575000D01*
X65000D01*
Y2606320D01*
D02*
G37*
G36*
X2325000Y2605470D02*
Y2565000D01*
X2365470D01*
X2362840Y2574816D01*
X2356081Y2586523D01*
X2346523Y2596081D01*
X2334816Y2602840D01*
X2325000Y2605470D01*
D02*
G37*
G36*
X2305000D02*
X2295184Y2602840D01*
X2283477Y2596081D01*
X2273919Y2586523D01*
X2267160Y2574816D01*
X2264530Y2565000D01*
X2305000D01*
Y2605470D01*
D02*
G37*
G36*
X2125000D02*
Y2565000D01*
X2165470D01*
X2162840Y2574816D01*
X2156081Y2586523D01*
X2146523Y2596081D01*
X2134816Y2602840D01*
X2125000Y2605470D01*
D02*
G37*
G36*
X2105000D02*
X2095184Y2602840D01*
X2083477Y2596081D01*
X2073919Y2586523D01*
X2067160Y2574816D01*
X2064530Y2565000D01*
X2105000D01*
Y2605470D01*
D02*
G37*
G36*
X995000D02*
Y2565000D01*
X1035470D01*
X1032840Y2574816D01*
X1026081Y2586523D01*
X1016523Y2596081D01*
X1004816Y2602840D01*
X995000Y2605470D01*
D02*
G37*
G36*
X975000D02*
X965184Y2602840D01*
X953477Y2596081D01*
X943919Y2586523D01*
X937160Y2574816D01*
X934530Y2565000D01*
X975000D01*
Y2605470D01*
D02*
G37*
G36*
X795000D02*
Y2565000D01*
X835470D01*
X832840Y2574816D01*
X826081Y2586523D01*
X816523Y2596081D01*
X804816Y2602840D01*
X795000Y2605470D01*
D02*
G37*
G36*
X775000D02*
X765184Y2602840D01*
X753477Y2596081D01*
X743919Y2586523D01*
X737160Y2574816D01*
X734530Y2565000D01*
X775000D01*
Y2605470D01*
D02*
G37*
G36*
X3345000Y2586320D02*
Y2555000D01*
X3376320D01*
X3374604Y2561404D01*
X3369008Y2571096D01*
X3361096Y2579008D01*
X3351404Y2584604D01*
X3345000Y2586320D01*
D02*
G37*
G36*
X3325000D02*
X3318596Y2584604D01*
X3308904Y2579008D01*
X3300992Y2571096D01*
X3295396Y2561404D01*
X3293680Y2555000D01*
X3325000D01*
Y2586320D01*
D02*
G37*
G36*
X116320Y2555000D02*
X85000D01*
Y2523680D01*
X91404Y2525396D01*
X101096Y2530992D01*
X109008Y2538904D01*
X114604Y2548596D01*
X116320Y2555000D01*
D02*
G37*
G36*
X65000D02*
X33680D01*
X35396Y2548596D01*
X40992Y2538904D01*
X48904Y2530992D01*
X58596Y2525396D01*
X65000Y2523680D01*
Y2555000D01*
D02*
G37*
G36*
X559546Y2574528D02*
X550454D01*
X541673Y2572175D01*
X533800Y2567629D01*
X527371Y2561200D01*
X522826Y2553327D01*
X520472Y2544546D01*
Y2535454D01*
X522826Y2526673D01*
X527371Y2518800D01*
X533800Y2512371D01*
X541673Y2507825D01*
X550454Y2505472D01*
X559546D01*
X568327Y2507825D01*
X576200Y2512371D01*
X582629Y2518800D01*
X587174Y2526673D01*
X589528Y2535454D01*
Y2544546D01*
X587174Y2553327D01*
X582629Y2561200D01*
X576200Y2567629D01*
X568327Y2572175D01*
X559546Y2574528D01*
D02*
G37*
G36*
X2365470Y2545000D02*
X2325000D01*
Y2504530D01*
X2334816Y2507160D01*
X2346523Y2513919D01*
X2356081Y2523477D01*
X2362840Y2535184D01*
X2365470Y2545000D01*
D02*
G37*
G36*
X2305000D02*
X2264530D01*
X2267160Y2535184D01*
X2273919Y2523477D01*
X2283477Y2513919D01*
X2295184Y2507160D01*
X2305000Y2504530D01*
Y2545000D01*
D02*
G37*
G36*
X2165470D02*
X2125000D01*
Y2504530D01*
X2134816Y2507160D01*
X2146523Y2513919D01*
X2156081Y2523477D01*
X2162840Y2535184D01*
X2165470Y2545000D01*
D02*
G37*
G36*
X2105000D02*
X2064530D01*
X2067160Y2535184D01*
X2073919Y2523477D01*
X2083477Y2513919D01*
X2095184Y2507160D01*
X2105000Y2504530D01*
Y2545000D01*
D02*
G37*
G36*
X1035470D02*
X995000D01*
Y2504530D01*
X1004816Y2507160D01*
X1016523Y2513919D01*
X1026081Y2523477D01*
X1032840Y2535184D01*
X1035470Y2545000D01*
D02*
G37*
G36*
X975000D02*
X934530D01*
X937160Y2535184D01*
X943919Y2523477D01*
X953477Y2513919D01*
X965184Y2507160D01*
X975000Y2504530D01*
Y2545000D01*
D02*
G37*
G36*
X835470D02*
X795000D01*
Y2504530D01*
X804816Y2507160D01*
X816523Y2513919D01*
X826081Y2523477D01*
X832840Y2535184D01*
X835470Y2545000D01*
D02*
G37*
G36*
X775000D02*
X734530D01*
X737160Y2535184D01*
X743919Y2523477D01*
X753477Y2513919D01*
X765184Y2507160D01*
X775000Y2504530D01*
Y2545000D01*
D02*
G37*
G36*
X3376320Y2535000D02*
X3345000D01*
Y2503680D01*
X3351404Y2505396D01*
X3361096Y2510992D01*
X3369008Y2518904D01*
X3374604Y2528596D01*
X3376320Y2535000D01*
D02*
G37*
G36*
X3325000D02*
X3293680D01*
X3295396Y2528596D01*
X3300992Y2518904D01*
X3308904Y2510992D01*
X3318596Y2505396D01*
X3325000Y2503680D01*
Y2535000D01*
D02*
G37*
G36*
X559546Y2454528D02*
X550454D01*
X541673Y2452175D01*
X533800Y2447629D01*
X527371Y2441200D01*
X522826Y2433327D01*
X520472Y2424546D01*
Y2415454D01*
X522826Y2406673D01*
X527371Y2398800D01*
X533800Y2392371D01*
X541673Y2387825D01*
X550454Y2385472D01*
X559546D01*
X568327Y2387825D01*
X576200Y2392371D01*
X582629Y2398800D01*
X587174Y2406673D01*
X589528Y2415454D01*
Y2424546D01*
X587174Y2433327D01*
X582629Y2441200D01*
X576200Y2447629D01*
X568327Y2452175D01*
X559546Y2454528D01*
D02*
G37*
G36*
X2325000Y2405470D02*
Y2365000D01*
X2365470D01*
X2362840Y2374816D01*
X2356081Y2386523D01*
X2346523Y2396081D01*
X2334816Y2402840D01*
X2325000Y2405470D01*
D02*
G37*
G36*
X2305000D02*
X2295184Y2402840D01*
X2283477Y2396081D01*
X2273919Y2386523D01*
X2267160Y2374816D01*
X2264530Y2365000D01*
X2305000D01*
Y2405470D01*
D02*
G37*
G36*
X2105000D02*
X2095184Y2402840D01*
X2083477Y2396081D01*
X2073919Y2386523D01*
X2067160Y2374816D01*
X2064530Y2365000D01*
X2105000D01*
Y2405470D01*
D02*
G37*
G36*
X995000D02*
Y2365000D01*
X1035470D01*
X1032840Y2374816D01*
X1026081Y2386523D01*
X1016523Y2396081D01*
X1004816Y2402840D01*
X995000Y2405470D01*
D02*
G37*
G36*
X795000D02*
Y2365000D01*
X835470D01*
X832840Y2374816D01*
X826081Y2386523D01*
X816523Y2396081D01*
X804816Y2402840D01*
X795000Y2405470D01*
D02*
G37*
G36*
X775000D02*
X765184Y2402840D01*
X753477Y2396081D01*
X743919Y2386523D01*
X737160Y2374816D01*
X734530Y2365000D01*
X775000D01*
Y2405470D01*
D02*
G37*
G36*
X2220841Y2499370D02*
X2209159D01*
X2197874Y2496346D01*
X2187756Y2490505D01*
X2179495Y2482244D01*
X2173654Y2472126D01*
X2170630Y2460841D01*
Y2449159D01*
X2173654Y2437874D01*
X2179495Y2427756D01*
X2187756Y2419495D01*
X2194608Y2415539D01*
Y2376701D01*
X2170958Y2353051D01*
X2166339Y2354964D01*
Y2361759D01*
X2162840Y2374816D01*
X2156081Y2386523D01*
X2146523Y2396081D01*
X2134816Y2402840D01*
X2125000Y2405470D01*
Y2355000D01*
X2115000D01*
Y2345000D01*
X2064530D01*
X2067160Y2335184D01*
X2073919Y2323477D01*
X2078724Y2318673D01*
X2076810Y2314053D01*
X2031339D01*
Y2323701D01*
X1989842D01*
Y2301178D01*
X1989608Y2300000D01*
Y2297638D01*
X1989842Y2296460D01*
Y2276299D01*
X2003962D01*
X2006173Y2274822D01*
X2013976Y2273270D01*
X2140407D01*
X2148211Y2274822D01*
X2154826Y2279242D01*
X2229419Y2353835D01*
X2229419Y2353835D01*
X2233840Y2360450D01*
X2235392Y2368254D01*
Y2415539D01*
X2242244Y2419495D01*
X2250505Y2427756D01*
X2256346Y2437874D01*
X2259370Y2449159D01*
Y2460841D01*
X2256346Y2472126D01*
X2250505Y2482244D01*
X2242244Y2490505D01*
X2232126Y2496346D01*
X2220841Y2499370D01*
D02*
G37*
G36*
X2365470Y2345000D02*
X2325000D01*
Y2304530D01*
X2334816Y2307160D01*
X2346523Y2313919D01*
X2356081Y2323477D01*
X2362840Y2335184D01*
X2365470Y2345000D01*
D02*
G37*
G36*
X2305000D02*
X2264530D01*
X2267160Y2335184D01*
X2273919Y2323477D01*
X2283477Y2313919D01*
X2295184Y2307160D01*
X2305000Y2304530D01*
Y2345000D01*
D02*
G37*
G36*
X835470D02*
X795000D01*
Y2304530D01*
X804816Y2307160D01*
X816523Y2313919D01*
X826081Y2323477D01*
X832840Y2335184D01*
X835470Y2345000D01*
D02*
G37*
G36*
X775000D02*
X734530D01*
X737160Y2335184D01*
X743919Y2323477D01*
X753477Y2313919D01*
X765184Y2307160D01*
X775000Y2304530D01*
Y2345000D01*
D02*
G37*
G36*
X1555000Y2300273D02*
X1554578Y2300160D01*
X1548422Y2296605D01*
X1543395Y2291578D01*
X1539840Y2285422D01*
X1539727Y2285000D01*
X1555000D01*
Y2300273D01*
D02*
G37*
G36*
X85000Y2306320D02*
Y2275000D01*
X116320D01*
X114604Y2281404D01*
X109008Y2291096D01*
X101096Y2299008D01*
X91404Y2304604D01*
X85000Y2306320D01*
D02*
G37*
G36*
X65000D02*
X58596Y2304604D01*
X48904Y2299008D01*
X40992Y2291096D01*
X35396Y2281404D01*
X33680Y2275000D01*
X65000D01*
Y2306320D01*
D02*
G37*
G36*
X559546Y2334528D02*
X550454D01*
X541673Y2332175D01*
X533800Y2327629D01*
X527371Y2321200D01*
X522826Y2313327D01*
X520472Y2304546D01*
Y2295454D01*
X522826Y2286673D01*
X527371Y2278800D01*
X533800Y2272371D01*
X541673Y2267825D01*
X550454Y2265472D01*
X559546D01*
X568327Y2267825D01*
X576200Y2272371D01*
X582629Y2278800D01*
X587174Y2286673D01*
X589528Y2295454D01*
Y2304546D01*
X587174Y2313327D01*
X582629Y2321200D01*
X576200Y2327629D01*
X568327Y2332175D01*
X559546Y2334528D01*
D02*
G37*
G36*
X3345000Y2286320D02*
Y2255000D01*
X3376320D01*
X3374604Y2261404D01*
X3369008Y2271096D01*
X3361096Y2279008D01*
X3351404Y2284604D01*
X3345000Y2286320D01*
D02*
G37*
G36*
X3325000D02*
X3318596Y2284604D01*
X3308904Y2279008D01*
X3300992Y2271096D01*
X3295396Y2261404D01*
X3293680Y2255000D01*
X3325000D01*
Y2286320D01*
D02*
G37*
G36*
X116320Y2255000D02*
X85000D01*
Y2223680D01*
X91404Y2225396D01*
X101096Y2230992D01*
X109008Y2238904D01*
X114604Y2248596D01*
X116320Y2255000D01*
D02*
G37*
G36*
X65000D02*
X33680D01*
X35396Y2248596D01*
X40992Y2238904D01*
X48904Y2230992D01*
X58596Y2225396D01*
X65000Y2223680D01*
Y2255000D01*
D02*
G37*
G36*
X3376320Y2235000D02*
X3345000D01*
Y2203680D01*
X3351404Y2205396D01*
X3361096Y2210992D01*
X3369008Y2218904D01*
X3374604Y2228596D01*
X3376320Y2235000D01*
D02*
G37*
G36*
X3325000D02*
X3293680D01*
X3295396Y2228596D01*
X3300992Y2218904D01*
X3308904Y2210992D01*
X3318596Y2205396D01*
X3325000Y2203680D01*
Y2235000D01*
D02*
G37*
G36*
X890841Y2499370D02*
X879159D01*
X867874Y2496346D01*
X857756Y2490505D01*
X849495Y2482244D01*
X843654Y2472126D01*
X840630Y2460841D01*
Y2449159D01*
X843654Y2437874D01*
X849495Y2427756D01*
X857756Y2419495D01*
X864608Y2415539D01*
Y2368254D01*
X866160Y2360451D01*
X870581Y2353835D01*
X1040134Y2184282D01*
X1046750Y2179861D01*
X1054553Y2178309D01*
X1073661D01*
Y2171299D01*
X1115158D01*
Y2193822D01*
X1115392Y2195000D01*
Y2197362D01*
X1115392Y2197362D01*
X1115158Y2198541D01*
Y2218701D01*
X1095631D01*
X1093661Y2219093D01*
X1063000D01*
X983051Y2299042D01*
X984964Y2303661D01*
X991759D01*
X1004816Y2307160D01*
X1016523Y2313919D01*
X1026081Y2323477D01*
X1032840Y2335184D01*
X1035470Y2345000D01*
X985000D01*
Y2355000D01*
X975000D01*
Y2405470D01*
X965184Y2402840D01*
X953477Y2396081D01*
X943919Y2386523D01*
X937160Y2374816D01*
X933661Y2361759D01*
Y2354964D01*
X929042Y2353051D01*
X905392Y2376701D01*
Y2415539D01*
X912244Y2419495D01*
X920505Y2427756D01*
X926346Y2437874D01*
X929370Y2449159D01*
Y2460841D01*
X926346Y2472126D01*
X920505Y2482244D01*
X912244Y2490505D01*
X902126Y2496346D01*
X890841Y2499370D01*
D02*
G37*
G36*
X2325000Y2105470D02*
Y2065000D01*
X2365470D01*
X2362840Y2074816D01*
X2356081Y2086523D01*
X2346523Y2096081D01*
X2334816Y2102840D01*
X2325000Y2105470D01*
D02*
G37*
G36*
X2305000D02*
X2295184Y2102840D01*
X2283477Y2096081D01*
X2273919Y2086523D01*
X2267160Y2074816D01*
X2264530Y2065000D01*
X2305000D01*
Y2105470D01*
D02*
G37*
G36*
X2125000D02*
Y2065000D01*
X2165470D01*
X2162840Y2074816D01*
X2156081Y2086523D01*
X2146523Y2096081D01*
X2134816Y2102840D01*
X2125000Y2105470D01*
D02*
G37*
G36*
X2105000D02*
X2095184Y2102840D01*
X2083477Y2096081D01*
X2073919Y2086523D01*
X2067160Y2074816D01*
X2064530Y2065000D01*
X2105000D01*
Y2105470D01*
D02*
G37*
G36*
X1245000D02*
Y2065000D01*
X1285470D01*
X1282840Y2074816D01*
X1276081Y2086523D01*
X1266523Y2096081D01*
X1254816Y2102840D01*
X1245000Y2105470D01*
D02*
G37*
G36*
X1225000D02*
X1215184Y2102840D01*
X1203477Y2096081D01*
X1193919Y2086523D01*
X1187160Y2074816D01*
X1184530Y2065000D01*
X1225000D01*
Y2105470D01*
D02*
G37*
G36*
X1045000D02*
Y2065000D01*
X1085470D01*
X1082840Y2074816D01*
X1076081Y2086523D01*
X1066523Y2096081D01*
X1054816Y2102840D01*
X1045000Y2105470D01*
D02*
G37*
G36*
X1025000D02*
X1015184Y2102840D01*
X1003477Y2096081D01*
X993919Y2086523D01*
X987160Y2074816D01*
X984530Y2065000D01*
X1025000D01*
Y2105470D01*
D02*
G37*
G36*
X745000D02*
Y2065000D01*
X785470D01*
X782840Y2074816D01*
X776081Y2086523D01*
X766523Y2096081D01*
X754816Y2102840D01*
X745000Y2105470D01*
D02*
G37*
G36*
X725000D02*
X715184Y2102840D01*
X703477Y2096081D01*
X693919Y2086523D01*
X687160Y2074816D01*
X684530Y2065000D01*
X725000D01*
Y2105470D01*
D02*
G37*
G36*
X545000D02*
Y2065000D01*
X585470D01*
X582840Y2074816D01*
X576081Y2086523D01*
X566523Y2096081D01*
X554816Y2102840D01*
X545000Y2105470D01*
D02*
G37*
G36*
X525000D02*
X515184Y2102840D01*
X503477Y2096081D01*
X493919Y2086523D01*
X487160Y2074816D01*
X484530Y2065000D01*
X525000D01*
Y2105470D01*
D02*
G37*
G36*
X2365470Y2045000D02*
X2325000D01*
Y2004530D01*
X2334816Y2007160D01*
X2346523Y2013919D01*
X2356081Y2023477D01*
X2362840Y2035184D01*
X2365470Y2045000D01*
D02*
G37*
G36*
X2305000D02*
X2264530D01*
X2267160Y2035184D01*
X2273919Y2023477D01*
X2283477Y2013919D01*
X2295184Y2007160D01*
X2305000Y2004530D01*
Y2045000D01*
D02*
G37*
G36*
X2165470D02*
X2125000D01*
Y2004530D01*
X2134816Y2007160D01*
X2146523Y2013919D01*
X2156081Y2023477D01*
X2162840Y2035184D01*
X2165470Y2045000D01*
D02*
G37*
G36*
X2105000D02*
X2064530D01*
X2067160Y2035184D01*
X2073919Y2023477D01*
X2083477Y2013919D01*
X2095184Y2007160D01*
X2105000Y2004530D01*
Y2045000D01*
D02*
G37*
G36*
X1285470D02*
X1245000D01*
Y2004530D01*
X1254816Y2007160D01*
X1266523Y2013919D01*
X1276081Y2023477D01*
X1282840Y2035184D01*
X1285470Y2045000D01*
D02*
G37*
G36*
X1225000D02*
X1184530D01*
X1187160Y2035184D01*
X1193919Y2023477D01*
X1203477Y2013919D01*
X1215184Y2007160D01*
X1225000Y2004530D01*
Y2045000D01*
D02*
G37*
G36*
X1085470D02*
X1045000D01*
Y2004530D01*
X1054816Y2007160D01*
X1066523Y2013919D01*
X1076081Y2023477D01*
X1082840Y2035184D01*
X1085470Y2045000D01*
D02*
G37*
G36*
X1025000D02*
X984530D01*
X987160Y2035184D01*
X993919Y2023477D01*
X1003477Y2013919D01*
X1015184Y2007160D01*
X1025000Y2004530D01*
Y2045000D01*
D02*
G37*
G36*
X785470D02*
X745000D01*
Y2004530D01*
X754816Y2007160D01*
X766523Y2013919D01*
X776081Y2023477D01*
X782840Y2035184D01*
X785470Y2045000D01*
D02*
G37*
G36*
X725000D02*
X684530D01*
X687160Y2035184D01*
X693919Y2023477D01*
X703477Y2013919D01*
X715184Y2007160D01*
X725000Y2004530D01*
Y2045000D01*
D02*
G37*
G36*
X585470D02*
X545000D01*
Y2004530D01*
X554816Y2007160D01*
X566523Y2013919D01*
X576081Y2023477D01*
X582840Y2035184D01*
X585470Y2045000D01*
D02*
G37*
G36*
X525000D02*
X484530D01*
X487160Y2035184D01*
X493919Y2023477D01*
X503477Y2013919D01*
X515184Y2007160D01*
X525000Y2004530D01*
Y2045000D01*
D02*
G37*
G36*
X2220841Y1999370D02*
X2209159D01*
X2197874Y1996346D01*
X2187756Y1990505D01*
X2179495Y1982244D01*
X2175539Y1975392D01*
X2046339D01*
Y1978701D01*
X2004843D01*
Y1956178D01*
X2004608Y1955000D01*
X2004843Y1953822D01*
Y1931299D01*
X2046339D01*
Y1934608D01*
X2175539D01*
X2179495Y1927756D01*
X2187756Y1919495D01*
X2197874Y1913654D01*
X2209159Y1910630D01*
X2220841D01*
X2232126Y1913654D01*
X2242244Y1919495D01*
X2250505Y1927756D01*
X2256346Y1937874D01*
X2259370Y1949159D01*
Y1960841D01*
X2256346Y1972126D01*
X2250505Y1982244D01*
X2242244Y1990505D01*
X2232126Y1996346D01*
X2220841Y1999370D01*
D02*
G37*
G36*
X85000Y2006320D02*
Y1975000D01*
X116320D01*
X114604Y1981404D01*
X109008Y1991096D01*
X101096Y1999008D01*
X91404Y2004604D01*
X85000Y2006320D01*
D02*
G37*
G36*
X65000D02*
X58596Y2004604D01*
X48904Y1999008D01*
X40992Y1991096D01*
X35396Y1981404D01*
X33680Y1975000D01*
X65000D01*
Y2006320D01*
D02*
G37*
G36*
X3345000Y1986320D02*
Y1955000D01*
X3376320D01*
X3374604Y1961404D01*
X3369008Y1971096D01*
X3361096Y1979008D01*
X3351404Y1984604D01*
X3345000Y1986320D01*
D02*
G37*
G36*
X3325000D02*
X3318596Y1984604D01*
X3308904Y1979008D01*
X3300992Y1971096D01*
X3295396Y1961404D01*
X3293680Y1955000D01*
X3325000D01*
Y1986320D01*
D02*
G37*
G36*
X1140841Y1999370D02*
X1129159D01*
X1117874Y1996346D01*
X1107756Y1990505D01*
X1099495Y1982244D01*
X1093654Y1972126D01*
X1090630Y1960841D01*
Y1949159D01*
X1093654Y1937874D01*
X1099495Y1927756D01*
X1107756Y1919495D01*
X1117874Y1913654D01*
X1129159Y1910630D01*
X1140841D01*
X1152126Y1913654D01*
X1162244Y1919495D01*
X1170505Y1927756D01*
X1174461Y1934608D01*
X1303661D01*
Y1931299D01*
X1345157D01*
Y1953822D01*
X1345392Y1955000D01*
X1345157Y1956178D01*
Y1978701D01*
X1303661D01*
Y1975392D01*
X1174461D01*
X1170505Y1982244D01*
X1162244Y1990505D01*
X1152126Y1996346D01*
X1140841Y1999370D01*
D02*
G37*
G36*
X116320Y1955000D02*
X85000D01*
Y1923680D01*
X91404Y1925396D01*
X101096Y1930992D01*
X109008Y1938904D01*
X114604Y1948596D01*
X116320Y1955000D01*
D02*
G37*
G36*
X65000D02*
X33680D01*
X35396Y1948596D01*
X40992Y1938904D01*
X48904Y1930992D01*
X58596Y1925396D01*
X65000Y1923680D01*
Y1955000D01*
D02*
G37*
G36*
X3376320Y1935000D02*
X3345000D01*
Y1903680D01*
X3351404Y1905396D01*
X3361096Y1910992D01*
X3369008Y1918904D01*
X3374604Y1928596D01*
X3376320Y1935000D01*
D02*
G37*
G36*
X3325000D02*
X3293680D01*
X3295396Y1928596D01*
X3300992Y1918904D01*
X3308904Y1910992D01*
X3318596Y1905396D01*
X3325000Y1903680D01*
Y1935000D01*
D02*
G37*
G36*
X2325000Y1905470D02*
Y1865000D01*
X2365470D01*
X2362840Y1874816D01*
X2356081Y1886523D01*
X2346523Y1896081D01*
X2334816Y1902840D01*
X2325000Y1905470D01*
D02*
G37*
G36*
X2305000D02*
X2295184Y1902840D01*
X2283477Y1896081D01*
X2273919Y1886523D01*
X2267160Y1874816D01*
X2264530Y1865000D01*
X2305000D01*
Y1905470D01*
D02*
G37*
G36*
X2125000D02*
Y1865000D01*
X2165470D01*
X2162840Y1874816D01*
X2156081Y1886523D01*
X2146523Y1896081D01*
X2134816Y1902840D01*
X2125000Y1905470D01*
D02*
G37*
G36*
X2105000D02*
X2095184Y1902840D01*
X2083477Y1896081D01*
X2073919Y1886523D01*
X2067160Y1874816D01*
X2064530Y1865000D01*
X2105000D01*
Y1905470D01*
D02*
G37*
G36*
X1245000D02*
Y1865000D01*
X1285470D01*
X1282840Y1874816D01*
X1276081Y1886523D01*
X1266523Y1896081D01*
X1254816Y1902840D01*
X1245000Y1905470D01*
D02*
G37*
G36*
X1225000D02*
X1215184Y1902840D01*
X1203477Y1896081D01*
X1193919Y1886523D01*
X1187160Y1874816D01*
X1184530Y1865000D01*
X1225000D01*
Y1905470D01*
D02*
G37*
G36*
X1045000D02*
Y1865000D01*
X1085470D01*
X1082840Y1874816D01*
X1076081Y1886523D01*
X1066523Y1896081D01*
X1054816Y1902840D01*
X1045000Y1905470D01*
D02*
G37*
G36*
X1025000D02*
X1015184Y1902840D01*
X1003477Y1896081D01*
X993919Y1886523D01*
X987160Y1874816D01*
X984530Y1865000D01*
X1025000D01*
Y1905470D01*
D02*
G37*
G36*
X745000D02*
Y1865000D01*
X785470D01*
X782840Y1874816D01*
X776081Y1886523D01*
X766523Y1896081D01*
X754816Y1902840D01*
X745000Y1905470D01*
D02*
G37*
G36*
X725000D02*
X715184Y1902840D01*
X703477Y1896081D01*
X693919Y1886523D01*
X687160Y1874816D01*
X684530Y1865000D01*
X725000D01*
Y1905470D01*
D02*
G37*
G36*
X545000D02*
Y1865000D01*
X585470D01*
X582840Y1874816D01*
X576081Y1886523D01*
X566523Y1896081D01*
X554816Y1902840D01*
X545000Y1905470D01*
D02*
G37*
G36*
X525000D02*
X515184Y1902840D01*
X503477Y1896081D01*
X493919Y1886523D01*
X487160Y1874816D01*
X484530Y1865000D01*
X525000D01*
Y1905470D01*
D02*
G37*
G36*
X2365470Y1845000D02*
X2325000D01*
Y1804530D01*
X2334816Y1807160D01*
X2346523Y1813919D01*
X2356081Y1823477D01*
X2362840Y1835184D01*
X2365470Y1845000D01*
D02*
G37*
G36*
X2305000D02*
X2264530D01*
X2267160Y1835184D01*
X2273919Y1823477D01*
X2283477Y1813919D01*
X2295184Y1807160D01*
X2305000Y1804530D01*
Y1845000D01*
D02*
G37*
G36*
X2165470D02*
X2125000D01*
Y1804530D01*
X2134816Y1807160D01*
X2146523Y1813919D01*
X2156081Y1823477D01*
X2162840Y1835184D01*
X2165470Y1845000D01*
D02*
G37*
G36*
X2105000D02*
X2064530D01*
X2067160Y1835184D01*
X2073919Y1823477D01*
X2083477Y1813919D01*
X2095184Y1807160D01*
X2105000Y1804530D01*
Y1845000D01*
D02*
G37*
G36*
X1285470D02*
X1245000D01*
Y1804530D01*
X1254816Y1807160D01*
X1266523Y1813919D01*
X1276081Y1823477D01*
X1282840Y1835184D01*
X1285470Y1845000D01*
D02*
G37*
G36*
X1225000D02*
X1184530D01*
X1187160Y1835184D01*
X1193919Y1823477D01*
X1203477Y1813919D01*
X1215184Y1807160D01*
X1225000Y1804530D01*
Y1845000D01*
D02*
G37*
G36*
X1085470D02*
X1045000D01*
Y1804530D01*
X1054816Y1807160D01*
X1066523Y1813919D01*
X1076081Y1823477D01*
X1082840Y1835184D01*
X1085470Y1845000D01*
D02*
G37*
G36*
X1025000D02*
X984530D01*
X987160Y1835184D01*
X993919Y1823477D01*
X1003477Y1813919D01*
X1015184Y1807160D01*
X1025000Y1804530D01*
Y1845000D01*
D02*
G37*
G36*
X785470D02*
X745000D01*
Y1804530D01*
X754816Y1807160D01*
X766523Y1813919D01*
X776081Y1823477D01*
X782840Y1835184D01*
X785470Y1845000D01*
D02*
G37*
G36*
X725000D02*
X684530D01*
X687160Y1835184D01*
X693919Y1823477D01*
X703477Y1813919D01*
X715184Y1807160D01*
X725000Y1804530D01*
Y1845000D01*
D02*
G37*
G36*
X585470D02*
X545000D01*
Y1804530D01*
X554816Y1807160D01*
X566523Y1813919D01*
X576081Y1823477D01*
X582840Y1835184D01*
X585470Y1845000D01*
D02*
G37*
G36*
X525000D02*
X484530D01*
X487160Y1835184D01*
X493919Y1823477D01*
X503477Y1813919D01*
X515184Y1807160D01*
X525000Y1804530D01*
Y1845000D01*
D02*
G37*
G36*
X1850158Y1840669D02*
X1802756D01*
Y1840412D01*
X1655000D01*
X1651173Y1838827D01*
X1649588Y1835000D01*
Y1788366D01*
X1571575D01*
Y1739717D01*
X1553858Y1722000D01*
X1545624D01*
X1537538Y1718651D01*
X1531349Y1712462D01*
X1528000Y1704376D01*
Y1696142D01*
X1515598Y1683740D01*
X1510117D01*
Y1712826D01*
X1509341Y1716727D01*
X1507131Y1720035D01*
X1505370Y1721796D01*
Y1730236D01*
X1507636Y1731175D01*
X1513825Y1737364D01*
X1517174Y1745450D01*
Y1754202D01*
X1513825Y1762288D01*
X1507636Y1768477D01*
X1499550Y1771826D01*
X1490798D01*
X1482712Y1768477D01*
X1476523Y1762288D01*
X1473174Y1754202D01*
Y1745450D01*
X1476523Y1737364D01*
X1482712Y1731175D01*
X1484978Y1730236D01*
Y1717573D01*
X1485754Y1713671D01*
X1487965Y1710363D01*
X1489725Y1708602D01*
Y1688867D01*
X1485000Y1685412D01*
X1450000D01*
X1446173Y1683827D01*
X1444588Y1680000D01*
Y1668426D01*
X1440097Y1663935D01*
X1420669D01*
Y1667244D01*
X1415392D01*
Y1711741D01*
X1417000Y1715624D01*
Y1724376D01*
X1413651Y1732462D01*
X1407462Y1738651D01*
X1399376Y1742000D01*
X1390624D01*
X1382538Y1738651D01*
X1376349Y1732462D01*
X1373000Y1724376D01*
Y1715624D01*
X1374608Y1711741D01*
Y1667244D01*
X1369331D01*
Y1619842D01*
X1420669D01*
Y1623151D01*
X1448543D01*
X1456347Y1624704D01*
X1462963Y1629124D01*
X1473426Y1639588D01*
X1479493D01*
X1481564Y1634588D01*
X1451460Y1604484D01*
X1448698Y1600350D01*
X1447727Y1595472D01*
Y1537992D01*
X1448698Y1533115D01*
X1449007Y1532652D01*
Y1514554D01*
X1449977Y1509677D01*
X1452740Y1505542D01*
X1513000Y1445282D01*
Y1440624D01*
X1516349Y1432538D01*
X1522538Y1426349D01*
X1530624Y1423000D01*
X1539376D01*
X1547462Y1426349D01*
X1553651Y1432538D01*
X1557000Y1440624D01*
Y1449376D01*
X1553651Y1457462D01*
X1547462Y1463651D01*
X1539376Y1467000D01*
X1530624D01*
X1528295Y1466035D01*
X1516853Y1477477D01*
X1518767Y1482096D01*
X1568485D01*
X1583939Y1466642D01*
X1583000Y1464376D01*
Y1455624D01*
X1586349Y1447538D01*
X1592538Y1441349D01*
X1596420Y1439741D01*
X1647581Y1388581D01*
X1654196Y1384160D01*
X1662000Y1382608D01*
X1761918D01*
X1769721Y1384160D01*
X1776337Y1388581D01*
X1806732Y1418976D01*
X1812462Y1421349D01*
X1818651Y1427538D01*
X1822000Y1435624D01*
Y1444376D01*
X1821061Y1446642D01*
X1834889Y1460469D01*
X1840192Y1458702D01*
X1840492Y1456605D01*
X1836349Y1452462D01*
X1833000Y1444376D01*
Y1435624D01*
X1836349Y1427538D01*
X1842538Y1421349D01*
X1850624Y1418000D01*
X1859376D01*
X1867462Y1421349D01*
X1873651Y1427538D01*
X1877000Y1435624D01*
Y1444376D01*
X1873651Y1452462D01*
X1867666Y1458447D01*
Y1537913D01*
X1867587Y1538309D01*
Y1582322D01*
X1866617Y1587200D01*
X1863854Y1591334D01*
X1819533Y1635656D01*
X1821446Y1640276D01*
X1857092D01*
X1859163Y1635276D01*
X1856349Y1632462D01*
X1853000Y1624376D01*
Y1615624D01*
X1856349Y1607538D01*
X1862538Y1601349D01*
X1870624Y1598000D01*
X1879376D01*
X1887462Y1601349D01*
X1893651Y1607538D01*
X1897000Y1615624D01*
Y1624376D01*
X1893651Y1632462D01*
X1887509Y1638604D01*
Y1661772D01*
X1886539Y1666649D01*
X1885433Y1668303D01*
Y1683740D01*
X1865117D01*
Y1725378D01*
X1867462Y1726349D01*
X1873651Y1732538D01*
X1877000Y1740624D01*
Y1749376D01*
X1873651Y1757462D01*
X1867462Y1763651D01*
X1859376Y1767000D01*
X1850624D01*
X1842538Y1763651D01*
X1837058Y1758171D01*
X1833706Y1758843D01*
X1832058Y1759704D01*
Y1789331D01*
X1850158D01*
Y1794386D01*
X1850412Y1795000D01*
Y1835000D01*
X1850158Y1835614D01*
Y1840669D01*
D02*
G37*
G36*
X85000Y1706320D02*
Y1675000D01*
X116320D01*
X114604Y1681404D01*
X109008Y1691096D01*
X101096Y1699008D01*
X91404Y1704604D01*
X85000Y1706320D01*
D02*
G37*
G36*
X65000D02*
X58596Y1704604D01*
X48904Y1699008D01*
X40992Y1691096D01*
X35396Y1681404D01*
X33680Y1675000D01*
X65000D01*
Y1706320D01*
D02*
G37*
G36*
X3345000Y1686320D02*
Y1655000D01*
X3376320D01*
X3374604Y1661404D01*
X3369008Y1671096D01*
X3361096Y1679008D01*
X3351404Y1684604D01*
X3345000Y1686320D01*
D02*
G37*
G36*
X3325000D02*
X3318596Y1684604D01*
X3308904Y1679008D01*
X3300992Y1671096D01*
X3295396Y1661404D01*
X3293680Y1655000D01*
X3325000D01*
Y1686320D01*
D02*
G37*
G36*
X116320Y1655000D02*
X85000D01*
Y1623680D01*
X91404Y1625396D01*
X101096Y1630992D01*
X109008Y1638904D01*
X114604Y1648596D01*
X116320Y1655000D01*
D02*
G37*
G36*
X65000D02*
X33680D01*
X35396Y1648596D01*
X40992Y1638904D01*
X48904Y1630992D01*
X58596Y1625396D01*
X65000Y1623680D01*
Y1655000D01*
D02*
G37*
G36*
X3376320Y1635000D02*
X3345000D01*
Y1603680D01*
X3351404Y1605396D01*
X3361096Y1610992D01*
X3369008Y1618904D01*
X3374604Y1628596D01*
X3376320Y1635000D01*
D02*
G37*
G36*
X3325000D02*
X3293680D01*
X3295396Y1628596D01*
X3300992Y1618904D01*
X3308904Y1610992D01*
X3318596Y1605396D01*
X3325000Y1603680D01*
Y1635000D01*
D02*
G37*
G36*
X2325000Y1605470D02*
Y1565000D01*
X2365470D01*
X2362840Y1574816D01*
X2356081Y1586523D01*
X2346523Y1596081D01*
X2334816Y1602840D01*
X2325000Y1605470D01*
D02*
G37*
G36*
X2305000D02*
X2295184Y1602840D01*
X2283477Y1596081D01*
X2273919Y1586523D01*
X2267160Y1574816D01*
X2264530Y1565000D01*
X2305000D01*
Y1605470D01*
D02*
G37*
G36*
X2125000D02*
Y1565000D01*
X2165470D01*
X2162840Y1574816D01*
X2156081Y1586523D01*
X2146523Y1596081D01*
X2134816Y1602840D01*
X2125000Y1605470D01*
D02*
G37*
G36*
X2105000D02*
X2095184Y1602840D01*
X2083477Y1596081D01*
X2073919Y1586523D01*
X2067160Y1574816D01*
X2064530Y1565000D01*
X2105000D01*
Y1605470D01*
D02*
G37*
G36*
X545000D02*
Y1565000D01*
X585470D01*
X582840Y1574816D01*
X576081Y1586523D01*
X566523Y1596081D01*
X554816Y1602840D01*
X545000Y1605470D01*
D02*
G37*
G36*
X525000D02*
X515184Y1602840D01*
X503477Y1596081D01*
X493919Y1586523D01*
X487160Y1574816D01*
X484530Y1565000D01*
X525000D01*
Y1605470D01*
D02*
G37*
G36*
X2732244Y1645669D02*
X2684843D01*
Y1594331D01*
X2732244D01*
Y1604706D01*
X2791064D01*
X2795257Y1600513D01*
Y1579487D01*
X2785317Y1569547D01*
X2758189D01*
X2755455Y1569003D01*
X2753137Y1567454D01*
X2751588Y1565136D01*
X2751044Y1562402D01*
Y1547673D01*
X2743193Y1539822D01*
X2718425D01*
X2717629Y1541200D01*
X2711200Y1547629D01*
X2703327Y1552175D01*
X2694546Y1554527D01*
X2685454D01*
X2676673Y1552175D01*
X2668800Y1547629D01*
X2662371Y1541200D01*
X2657825Y1533327D01*
X2655472Y1524546D01*
Y1515454D01*
X2657825Y1506673D01*
X2662371Y1498800D01*
X2668800Y1492371D01*
X2676673Y1487825D01*
X2685454Y1485473D01*
X2694546D01*
X2703327Y1487825D01*
X2711200Y1492371D01*
X2717629Y1498800D01*
X2722175Y1506673D01*
X2722861Y1509234D01*
X2749528D01*
X2755380Y1510398D01*
X2760342Y1513713D01*
X2782279Y1535650D01*
X2782653D01*
X2787399Y1534706D01*
X2792145Y1535650D01*
X2793543D01*
X2796278Y1536194D01*
X2798596Y1537743D01*
X2800144Y1540061D01*
X2800407Y1541379D01*
X2821366Y1562338D01*
X2824681Y1567299D01*
X2825845Y1573152D01*
Y1606848D01*
X2824681Y1612701D01*
X2821366Y1617662D01*
X2808214Y1630814D01*
X2803252Y1634130D01*
X2800688Y1634640D01*
Y1637205D01*
X2800144Y1639939D01*
X2798596Y1642257D01*
X2796278Y1643806D01*
X2793543Y1644350D01*
X2758189D01*
X2755455Y1643806D01*
X2753137Y1642257D01*
X2751588Y1639939D01*
X2751044Y1637205D01*
Y1635294D01*
X2732244D01*
Y1645669D01*
D02*
G37*
G36*
X2901811Y1569547D02*
X2866457D01*
X2863722Y1569003D01*
X2861404Y1567454D01*
X2859855Y1565136D01*
X2859311Y1562402D01*
Y1542795D01*
X2859855Y1540061D01*
X2861404Y1537743D01*
X2863722Y1536194D01*
X2866457Y1535650D01*
X2901811D01*
X2904545Y1536194D01*
X2906207Y1537305D01*
X2927756D01*
Y1514331D01*
X2975157D01*
Y1565669D01*
X2948264D01*
X2946679Y1566728D01*
X2940827Y1567892D01*
X2906207D01*
X2904545Y1569003D01*
X2901811Y1569547D01*
D02*
G37*
G36*
X2365470Y1545000D02*
X2325000D01*
Y1504530D01*
X2334816Y1507160D01*
X2346523Y1513919D01*
X2356081Y1523477D01*
X2362840Y1535184D01*
X2365470Y1545000D01*
D02*
G37*
G36*
X2305000D02*
X2264530D01*
X2267160Y1535184D01*
X2273919Y1523477D01*
X2283477Y1513919D01*
X2295184Y1507160D01*
X2305000Y1504530D01*
Y1545000D01*
D02*
G37*
G36*
X2165470D02*
X2125000D01*
Y1504530D01*
X2134816Y1507160D01*
X2146523Y1513919D01*
X2156081Y1523477D01*
X2162840Y1535184D01*
X2165470Y1545000D01*
D02*
G37*
G36*
X2105000D02*
X2064530D01*
X2067160Y1535184D01*
X2073919Y1523477D01*
X2083477Y1513919D01*
X2095184Y1507160D01*
X2105000Y1504530D01*
Y1545000D01*
D02*
G37*
G36*
X1225000D02*
X1184530D01*
X1187160Y1535184D01*
X1193919Y1523477D01*
X1203477Y1513919D01*
X1215184Y1507160D01*
X1225000Y1504530D01*
Y1545000D01*
D02*
G37*
G36*
X585470D02*
X545000D01*
Y1504530D01*
X554816Y1507160D01*
X566523Y1513919D01*
X576081Y1523477D01*
X582840Y1535184D01*
X585470Y1545000D01*
D02*
G37*
G36*
X525000D02*
X484530D01*
X487160Y1535184D01*
X493919Y1523477D01*
X503477Y1513919D01*
X515184Y1507160D01*
X525000Y1504530D01*
Y1545000D01*
D02*
G37*
G36*
X2624528Y1554527D02*
X2555472D01*
Y1550412D01*
X2505000D01*
X2501173Y1548827D01*
X2499588Y1545000D01*
Y1101058D01*
X2494588Y1099013D01*
X2487376Y1102000D01*
X2478624D01*
X2470538Y1098651D01*
X2464349Y1092462D01*
X2461000Y1084376D01*
Y1079629D01*
X2341665Y960294D01*
X2285669D01*
Y970158D01*
X2234331D01*
Y945294D01*
X2217284D01*
Y959016D01*
X2171457D01*
Y900984D01*
X2217284D01*
Y914706D01*
X2241575D01*
X2247427Y915870D01*
X2252389Y919186D01*
X2255959Y922756D01*
X2285669D01*
Y929706D01*
X2348000D01*
X2353853Y930870D01*
X2358814Y934186D01*
X2482629Y1058000D01*
X2487376D01*
X2494588Y1060987D01*
X2499588Y1058942D01*
Y900392D01*
X2415000D01*
X2407196Y898840D01*
X2400581Y894419D01*
X2315447Y809286D01*
X2314546Y809528D01*
X2305454D01*
X2296673Y807174D01*
X2288800Y802629D01*
X2282371Y796200D01*
X2277825Y788327D01*
X2275472Y779546D01*
Y770454D01*
X2277825Y761673D01*
X2282371Y753800D01*
X2288800Y747371D01*
X2296673Y742826D01*
X2305454Y740472D01*
X2314546D01*
X2323327Y742826D01*
X2331200Y747371D01*
X2337629Y753800D01*
X2342175Y761673D01*
X2344528Y770454D01*
Y779546D01*
X2344286Y780447D01*
X2423447Y859608D01*
X2499588D01*
Y855000D01*
X2501173Y851173D01*
X2505000Y849588D01*
X2555472Y849588D01*
Y845472D01*
X2624528D01*
Y914528D01*
X2555472D01*
Y910412D01*
X2535412D01*
Y1489588D01*
X2555472D01*
Y1485473D01*
X2624528D01*
Y1554527D01*
D02*
G37*
G36*
X2220841Y1499370D02*
X2209159D01*
X2197874Y1496346D01*
X2187756Y1490505D01*
X2179495Y1482244D01*
X2175539Y1475392D01*
X2084528D01*
X2076724Y1473840D01*
X2070108Y1469419D01*
X1951081Y1350392D01*
X1862244D01*
Y1355669D01*
X1814842D01*
Y1304331D01*
X1862244D01*
Y1309608D01*
X1886299D01*
Y1308661D01*
X1933701D01*
Y1309608D01*
X1959528D01*
X1967331Y1311160D01*
X1973947Y1315581D01*
X2092974Y1434608D01*
X2175539D01*
X2179495Y1427756D01*
X2187756Y1419495D01*
X2197874Y1413654D01*
X2209159Y1410630D01*
X2220841D01*
X2232126Y1413654D01*
X2242244Y1419495D01*
X2250505Y1427756D01*
X2256346Y1437874D01*
X2259370Y1449159D01*
Y1460841D01*
X2256346Y1472126D01*
X2250505Y1482244D01*
X2242244Y1490505D01*
X2232126Y1496346D01*
X2220841Y1499370D01*
D02*
G37*
G36*
X85000Y1406320D02*
Y1375000D01*
X116320D01*
X114604Y1381404D01*
X109008Y1391096D01*
X101096Y1399008D01*
X91404Y1404604D01*
X85000Y1406320D01*
D02*
G37*
G36*
X65000D02*
X58596Y1404604D01*
X48904Y1399008D01*
X40992Y1391096D01*
X35396Y1381404D01*
X33680Y1375000D01*
X65000D01*
Y1406320D01*
D02*
G37*
G36*
X2325000Y1405470D02*
Y1365000D01*
X2365470D01*
X2362840Y1374816D01*
X2356081Y1386523D01*
X2346523Y1396081D01*
X2334816Y1402840D01*
X2325000Y1405470D01*
D02*
G37*
G36*
X2305000D02*
X2295184Y1402840D01*
X2283477Y1396081D01*
X2273919Y1386523D01*
X2267160Y1374816D01*
X2264530Y1365000D01*
X2305000D01*
Y1405470D01*
D02*
G37*
G36*
X2125000D02*
Y1365000D01*
X2165470D01*
X2162840Y1374816D01*
X2156081Y1386523D01*
X2146523Y1396081D01*
X2134816Y1402840D01*
X2125000Y1405470D01*
D02*
G37*
G36*
X2105000D02*
X2095184Y1402840D01*
X2083477Y1396081D01*
X2073919Y1386523D01*
X2067160Y1374816D01*
X2064530Y1365000D01*
X2105000D01*
Y1405470D01*
D02*
G37*
G36*
X745000D02*
Y1365000D01*
X785470D01*
X782840Y1374816D01*
X776081Y1386523D01*
X766523Y1396081D01*
X754816Y1402840D01*
X745000Y1405470D01*
D02*
G37*
G36*
X725000D02*
X715184Y1402840D01*
X703477Y1396081D01*
X693919Y1386523D01*
X687160Y1374816D01*
X684530Y1365000D01*
X725000D01*
Y1405470D01*
D02*
G37*
G36*
X545000D02*
Y1365000D01*
X585470D01*
X582840Y1374816D01*
X576081Y1386523D01*
X566523Y1396081D01*
X554816Y1402840D01*
X545000Y1405470D01*
D02*
G37*
G36*
X525000D02*
X515184Y1402840D01*
X503477Y1396081D01*
X493919Y1386523D01*
X487160Y1374816D01*
X484530Y1365000D01*
X525000D01*
Y1405470D01*
D02*
G37*
G36*
X3345000Y1386320D02*
Y1355000D01*
X3376320D01*
X3374604Y1361404D01*
X3369008Y1371096D01*
X3361096Y1379008D01*
X3351404Y1384604D01*
X3345000Y1386320D01*
D02*
G37*
G36*
X3325000D02*
X3318596Y1384604D01*
X3308904Y1379008D01*
X3300992Y1371096D01*
X3295396Y1361404D01*
X3293680Y1355000D01*
X3325000D01*
Y1386320D01*
D02*
G37*
G36*
X1805158Y1355669D02*
X1757756D01*
Y1343040D01*
X1733701D01*
Y1351339D01*
X1686299D01*
Y1343040D01*
X1673701D01*
Y1351339D01*
X1626299D01*
Y1309842D01*
X1673701D01*
Y1317550D01*
X1686299D01*
Y1309842D01*
X1733701D01*
Y1317550D01*
X1757756D01*
Y1304331D01*
X1805158D01*
Y1355669D01*
D02*
G37*
G36*
X116320Y1355000D02*
X85000D01*
Y1323680D01*
X91404Y1325396D01*
X101096Y1330992D01*
X109008Y1338904D01*
X114604Y1348596D01*
X116320Y1355000D01*
D02*
G37*
G36*
X65000D02*
X33680D01*
X35396Y1348596D01*
X40992Y1338904D01*
X48904Y1330992D01*
X58596Y1325396D01*
X65000Y1323680D01*
Y1355000D01*
D02*
G37*
G36*
X2365470Y1345000D02*
X2325000D01*
Y1304530D01*
X2334816Y1307160D01*
X2346523Y1313919D01*
X2356081Y1323477D01*
X2362840Y1335184D01*
X2365470Y1345000D01*
D02*
G37*
G36*
X2305000D02*
X2264530D01*
X2267160Y1335184D01*
X2273919Y1323477D01*
X2283477Y1313919D01*
X2295184Y1307160D01*
X2305000Y1304530D01*
Y1345000D01*
D02*
G37*
G36*
X2165470D02*
X2125000D01*
Y1304530D01*
X2134816Y1307160D01*
X2146523Y1313919D01*
X2156081Y1323477D01*
X2162840Y1335184D01*
X2165470Y1345000D01*
D02*
G37*
G36*
X2105000D02*
X2064530D01*
X2067160Y1335184D01*
X2073919Y1323477D01*
X2083477Y1313919D01*
X2095184Y1307160D01*
X2105000Y1304530D01*
Y1345000D01*
D02*
G37*
G36*
X1285470D02*
X1245000D01*
Y1304530D01*
X1254816Y1307160D01*
X1266523Y1313919D01*
X1276081Y1323477D01*
X1282840Y1335184D01*
X1285470Y1345000D01*
D02*
G37*
G36*
X1225000D02*
X1184530D01*
X1187160Y1335184D01*
X1193919Y1323477D01*
X1203477Y1313919D01*
X1215184Y1307160D01*
X1225000Y1304530D01*
Y1345000D01*
D02*
G37*
G36*
X785470D02*
X745000D01*
Y1304530D01*
X754816Y1307160D01*
X766523Y1313919D01*
X776081Y1323477D01*
X782840Y1335184D01*
X785470Y1345000D01*
D02*
G37*
G36*
X725000D02*
X684530D01*
X687160Y1335184D01*
X693919Y1323477D01*
X703477Y1313919D01*
X715184Y1307160D01*
X725000Y1304530D01*
Y1345000D01*
D02*
G37*
G36*
X585470D02*
X545000D01*
Y1304530D01*
X554816Y1307160D01*
X566523Y1313919D01*
X576081Y1323477D01*
X582840Y1335184D01*
X585470Y1345000D01*
D02*
G37*
G36*
X525000D02*
X484530D01*
X487160Y1335184D01*
X493919Y1323477D01*
X503477Y1313919D01*
X515184Y1307160D01*
X525000Y1304530D01*
Y1345000D01*
D02*
G37*
G36*
X3376320Y1335000D02*
X3345000D01*
Y1303680D01*
X3351404Y1305396D01*
X3361096Y1310992D01*
X3369008Y1318904D01*
X3374604Y1328596D01*
X3376320Y1335000D01*
D02*
G37*
G36*
X3325000D02*
X3293680D01*
X3295396Y1328596D01*
X3300992Y1318904D01*
X3308904Y1310992D01*
X3318596Y1305396D01*
X3325000Y1303680D01*
Y1335000D01*
D02*
G37*
G36*
X2724528Y1434527D02*
X2655472D01*
Y1365473D01*
X2724528D01*
Y1384706D01*
X2783665D01*
X2859311Y1309060D01*
Y1297599D01*
X2859855Y1294864D01*
X2861404Y1292546D01*
X2863722Y1290997D01*
X2866457Y1290453D01*
X2881244D01*
X2885000Y1289706D01*
X2887969Y1290297D01*
X2927756D01*
Y1274331D01*
X2975157D01*
Y1325669D01*
X2927756D01*
Y1320884D01*
X2907780D01*
X2906863Y1322257D01*
X2904545Y1323806D01*
X2901811Y1324350D01*
X2887279D01*
X2800814Y1410814D01*
X2795853Y1414130D01*
X2790000Y1415294D01*
X2724528D01*
Y1434527D01*
D02*
G37*
G36*
X640841Y1999370D02*
X629159D01*
X617874Y1996346D01*
X607756Y1990505D01*
X599495Y1982244D01*
X593654Y1972126D01*
X590630Y1960841D01*
Y1949159D01*
X593654Y1937874D01*
X599495Y1927756D01*
X607756Y1919495D01*
X617874Y1913654D01*
X629159Y1910630D01*
X640841D01*
X652126Y1913654D01*
X662244Y1919495D01*
X670505Y1927756D01*
X674461Y1934608D01*
X761553D01*
X960581Y1735581D01*
X967197Y1731160D01*
X975000Y1729608D01*
X1118299D01*
X1236949Y1610958D01*
X1235036Y1606339D01*
X1228241D01*
X1215184Y1602840D01*
X1203477Y1596081D01*
X1193919Y1586523D01*
X1187160Y1574816D01*
X1184530Y1565000D01*
X1235000D01*
Y1555000D01*
X1245000D01*
Y1504530D01*
X1254816Y1507160D01*
X1266523Y1513919D01*
X1276081Y1523477D01*
X1282840Y1535184D01*
X1286339Y1548241D01*
Y1555036D01*
X1290958Y1556949D01*
X1518270Y1329638D01*
Y1286339D01*
X1518661Y1284368D01*
Y1265467D01*
X1513661Y1263396D01*
X1501339Y1275718D01*
Y1308701D01*
X1496331D01*
X1494419Y1311562D01*
X1375223Y1430758D01*
X1368608Y1435178D01*
X1360804Y1436730D01*
X1191339D01*
X1191339Y1436730D01*
X1183535Y1435178D01*
X1178697Y1431946D01*
X1174950Y1435456D01*
X1176346Y1437874D01*
X1179370Y1449159D01*
Y1460841D01*
X1176346Y1472126D01*
X1170505Y1482244D01*
X1162244Y1490505D01*
X1155392Y1494461D01*
Y1545000D01*
X1153840Y1552804D01*
X1149419Y1559419D01*
X1078081Y1630758D01*
X1071465Y1635178D01*
X1063661Y1636730D01*
X1011339D01*
X1011339Y1636730D01*
X1003535Y1635178D01*
X996919Y1630758D01*
X994969Y1628808D01*
X989708Y1625292D01*
X959242Y1594826D01*
X954822Y1588211D01*
X953270Y1580407D01*
Y1329593D01*
X954822Y1321789D01*
X959242Y1315174D01*
X995174Y1279242D01*
X1001789Y1274822D01*
X1009593Y1273270D01*
X1068661D01*
X1076465Y1274822D01*
X1083081Y1279242D01*
X1185119Y1381280D01*
X1189120Y1378210D01*
X1187160Y1374816D01*
X1184530Y1365000D01*
X1285470D01*
X1282840Y1374816D01*
X1276081Y1386523D01*
X1271276Y1391327D01*
X1273190Y1395947D01*
X1352357D01*
X1459842Y1288462D01*
Y1261299D01*
X1486919D01*
X1556471Y1191748D01*
X1556222Y1189731D01*
X1551575Y1185766D01*
X1548088Y1185072D01*
X1545132Y1183097D01*
X1543156Y1180140D01*
X1542463Y1176653D01*
Y1173070D01*
X1511251D01*
X1452111Y1232210D01*
X1448803Y1234420D01*
X1444902Y1235196D01*
X1398701D01*
Y1246339D01*
X1351299D01*
Y1245982D01*
X942856D01*
X840392Y1348447D01*
Y1556746D01*
X838840Y1564550D01*
X834419Y1571165D01*
X834419Y1571165D01*
X774826Y1630758D01*
X768211Y1635178D01*
X760407Y1636730D01*
X709593D01*
X701789Y1635178D01*
X695174Y1630758D01*
X695173Y1630757D01*
X620581Y1556165D01*
X616160Y1549549D01*
X614608Y1541746D01*
Y1494461D01*
X607756Y1490505D01*
X599495Y1482244D01*
X593654Y1472126D01*
X590630Y1460841D01*
Y1449159D01*
X593654Y1437874D01*
X599495Y1427756D01*
X607756Y1419495D01*
X617874Y1413654D01*
X629159Y1410630D01*
X640841D01*
X652126Y1413654D01*
X662244Y1419495D01*
X670505Y1427756D01*
X676346Y1437874D01*
X679370Y1449159D01*
Y1460841D01*
X676346Y1472126D01*
X670505Y1482244D01*
X662244Y1490505D01*
X655392Y1494461D01*
Y1533299D01*
X679042Y1556949D01*
X683661Y1555036D01*
Y1548241D01*
X687160Y1535184D01*
X693919Y1523477D01*
X703477Y1513919D01*
X715184Y1507160D01*
X725000Y1504530D01*
Y1555000D01*
X745000D01*
Y1504530D01*
X754816Y1507160D01*
X766523Y1513919D01*
X776081Y1523477D01*
X782840Y1535184D01*
X786339Y1548241D01*
Y1555036D01*
X790958Y1556949D01*
X799608Y1548299D01*
Y1340000D01*
X801160Y1332196D01*
X805581Y1325581D01*
X919990Y1211171D01*
X926606Y1206751D01*
X934409Y1205199D01*
X934410Y1205199D01*
X1351299D01*
Y1204842D01*
X1398701D01*
Y1214804D01*
X1440678D01*
X1497924Y1157558D01*
X1495853Y1152558D01*
X1399093D01*
X1395192Y1151782D01*
X1391884Y1149572D01*
X1247613Y1005301D01*
X1245403Y1001993D01*
X1244627Y998091D01*
Y954046D01*
X1220777Y930196D01*
X1212244D01*
Y945669D01*
X1195384D01*
Y949811D01*
X1194608Y953713D01*
X1192398Y957021D01*
X1096061Y1053358D01*
X1097000Y1055624D01*
Y1064376D01*
X1093651Y1072462D01*
X1087462Y1078651D01*
X1079376Y1082000D01*
X1070624D01*
X1062538Y1078651D01*
X1056349Y1072462D01*
X1053000Y1064376D01*
Y1055624D01*
X1056349Y1047538D01*
X1062538Y1041349D01*
X1070624Y1038000D01*
X1079376D01*
X1081642Y1038939D01*
X1170292Y950289D01*
X1168379Y945669D01*
X1164842D01*
Y894331D01*
X1212244D01*
Y909804D01*
X1225000D01*
X1228902Y910580D01*
X1232210Y912790D01*
X1255007Y935588D01*
X1259627Y933674D01*
Y922471D01*
X1197825Y860669D01*
X1164842D01*
Y823750D01*
X1155619Y814527D01*
X1079893D01*
X1025196Y869223D01*
Y985411D01*
X1027462Y986349D01*
X1033651Y992538D01*
X1037000Y1000624D01*
Y1009376D01*
X1033651Y1017462D01*
X1027462Y1023651D01*
X1019376Y1027000D01*
X1010624D01*
X1002538Y1023651D01*
X996349Y1017462D01*
X993000Y1009376D01*
Y1000624D01*
X996349Y992538D01*
X1002538Y986349D01*
X1004804Y985411D01*
Y865000D01*
X1005580Y861098D01*
X1007790Y857790D01*
X1068460Y797121D01*
X1071767Y794911D01*
X1075669Y794135D01*
X1159842D01*
X1163744Y794911D01*
X1167052Y797121D01*
X1179262Y809331D01*
X1212244D01*
Y846250D01*
X1277032Y911038D01*
X1279242Y914346D01*
X1280018Y918248D01*
Y987655D01*
X1407168Y1114804D01*
X1515000D01*
X1518902Y1115580D01*
X1522210Y1117790D01*
X1523227Y1119313D01*
X1530906D01*
X1534392Y1120007D01*
X1537349Y1121982D01*
X1539324Y1124938D01*
X1541653Y1125903D01*
X1541900Y1125738D01*
X1545802Y1124961D01*
X1616403D01*
X1620304Y1125738D01*
X1623612Y1127948D01*
X1631776Y1136112D01*
X1633987Y1139420D01*
X1634248Y1140734D01*
X1634971Y1141457D01*
X1636758Y1142651D01*
X1637299Y1143460D01*
X1642900D01*
X1643093Y1143345D01*
X1643557Y1142651D01*
X1646513Y1140676D01*
X1650000Y1139982D01*
X1653487Y1140676D01*
X1656324Y1142572D01*
X1656495Y1142649D01*
X1662254Y1142348D01*
X1662790Y1141545D01*
X1676388Y1127948D01*
X1679696Y1125738D01*
X1683597Y1124961D01*
X1756117D01*
X1760018Y1125738D01*
X1760562Y1125513D01*
X1760676Y1124938D01*
X1762651Y1121982D01*
X1765608Y1120007D01*
X1769094Y1119313D01*
X1778512D01*
X1778972Y1119005D01*
X1782874Y1118229D01*
X1852073D01*
X1853659Y1116523D01*
X1853240Y1113615D01*
X1852168Y1110784D01*
X1848769Y1108512D01*
X1842057Y1101800D01*
X1782874D01*
X1777997Y1100830D01*
X1774012Y1098167D01*
X1769094D01*
X1765608Y1097474D01*
X1762651Y1095498D01*
X1760676Y1092542D01*
X1759982Y1089055D01*
X1760676Y1085568D01*
X1762651Y1082612D01*
X1763460Y1082071D01*
Y1076354D01*
X1762651Y1075813D01*
X1760676Y1072857D01*
X1759982Y1069370D01*
X1760676Y1065883D01*
X1762651Y1062927D01*
X1763460Y1062386D01*
Y1056669D01*
X1762651Y1056128D01*
X1760676Y1053172D01*
X1759982Y1049685D01*
X1760676Y1046198D01*
X1762651Y1043242D01*
X1763460Y1042701D01*
Y1036984D01*
X1762651Y1036443D01*
X1760676Y1033487D01*
X1759982Y1030000D01*
X1760676Y1026513D01*
X1761902Y1024678D01*
X1761390Y1021330D01*
X1761127Y1020373D01*
X1760471Y1019000D01*
X1757790Y1017210D01*
X1747948Y1007367D01*
X1745738Y1004059D01*
X1744961Y1000157D01*
Y923883D01*
X1745738Y919981D01*
X1745513Y919438D01*
X1744938Y919324D01*
X1741982Y917349D01*
X1741441Y916540D01*
X1735724D01*
X1735183Y917349D01*
X1732227Y919324D01*
X1728740Y920018D01*
X1725253Y919324D01*
X1722297Y917349D01*
X1721756Y916540D01*
X1716039D01*
X1715498Y917349D01*
X1712542Y919324D01*
X1709055Y920018D01*
X1705568Y919324D01*
X1702612Y917349D01*
X1702071Y916540D01*
X1696354D01*
X1695813Y917349D01*
X1692857Y919324D01*
X1689370Y920018D01*
X1685883Y919324D01*
X1682927Y917349D01*
X1680952Y914393D01*
X1680258Y910905D01*
Y883346D01*
X1680952Y879860D01*
X1682927Y876903D01*
X1685883Y874928D01*
X1689370Y874234D01*
X1693761Y870010D01*
Y854157D01*
X1692538Y853651D01*
X1686349Y847462D01*
X1683000Y839376D01*
Y830624D01*
X1686349Y822538D01*
X1692385Y816503D01*
Y813896D01*
X1693549Y808043D01*
X1696864Y803082D01*
X1734331Y765615D01*
Y739842D01*
X1780473D01*
Y679893D01*
X1737000Y636419D01*
X1732000Y638490D01*
Y644376D01*
X1728651Y652462D01*
X1725963Y655149D01*
Y731371D01*
X1724799Y737223D01*
X1721484Y742185D01*
X1712154Y751515D01*
X1707549Y754592D01*
X1700669Y761471D01*
Y787244D01*
X1670959D01*
X1647973Y810231D01*
Y821860D01*
X1648651Y822538D01*
X1652000Y830624D01*
Y839376D01*
X1648651Y847462D01*
X1645451Y850661D01*
Y870082D01*
X1650000Y874234D01*
X1653487Y874928D01*
X1656443Y876903D01*
X1658418Y879860D01*
X1659112Y883346D01*
Y910905D01*
X1658418Y914393D01*
X1656443Y917349D01*
X1653487Y919324D01*
X1650000Y920018D01*
X1646513Y919324D01*
X1643557Y917349D01*
X1643016Y916540D01*
X1637299D01*
X1636758Y917349D01*
X1633802Y919324D01*
X1630315Y920018D01*
X1626828Y919324D01*
X1623872Y917349D01*
X1623331Y916540D01*
X1617614D01*
X1617073Y917349D01*
X1614117Y919324D01*
X1610630Y920018D01*
X1607143Y919324D01*
X1604187Y917349D01*
X1603646Y916540D01*
X1597929D01*
X1597388Y917349D01*
X1594432Y919324D01*
X1590945Y920018D01*
X1587458Y919324D01*
X1584502Y917349D01*
X1582526Y914393D01*
X1581833Y910905D01*
Y901488D01*
X1581525Y901028D01*
X1580749Y897126D01*
Y860412D01*
X1555000D01*
X1551173Y858827D01*
X1549588Y855000D01*
Y815000D01*
X1551173Y811173D01*
X1555000Y809588D01*
X1580749D01*
Y787244D01*
X1564331D01*
Y739842D01*
X1615669D01*
Y787244D01*
X1601141D01*
Y873147D01*
X1606141Y875598D01*
X1607143Y874928D01*
X1610630Y874234D01*
X1614864Y869979D01*
Y850976D01*
X1611349Y847462D01*
X1608000Y839376D01*
Y830624D01*
X1611349Y822538D01*
X1617385Y816503D01*
Y803896D01*
X1618549Y798043D01*
X1621864Y793082D01*
X1649331Y765615D01*
Y739842D01*
X1679041D01*
X1688997Y729886D01*
X1693602Y726809D01*
X1695375Y725036D01*
Y656488D01*
X1691349Y652462D01*
X1688000Y644376D01*
Y635624D01*
X1691349Y627538D01*
X1697538Y621349D01*
X1705624Y618000D01*
X1711510D01*
X1713581Y613000D01*
X1705777Y605196D01*
X1424589D01*
X1423651Y607462D01*
X1417462Y613651D01*
X1409376Y617000D01*
X1400624D01*
X1392538Y613651D01*
X1386349Y607462D01*
X1383000Y599376D01*
Y590624D01*
X1383564Y589263D01*
X1324006Y529705D01*
X1309172D01*
Y569753D01*
X1333358Y593939D01*
X1335624Y593000D01*
X1344376D01*
X1352462Y596349D01*
X1358651Y602538D01*
X1362000Y610624D01*
Y619376D01*
X1361061Y621642D01*
X1517210Y777790D01*
X1519420Y781098D01*
X1520196Y785000D01*
Y860777D01*
X1538273Y878854D01*
X1539182Y879041D01*
X1544436Y877945D01*
X1545132Y876903D01*
X1548088Y874928D01*
X1551575Y874234D01*
X1555062Y874928D01*
X1558018Y876903D01*
X1559993Y879860D01*
X1560687Y883346D01*
Y889133D01*
X1560995Y889594D01*
X1561771Y893496D01*
Y897126D01*
X1560995Y901028D01*
X1560687Y901488D01*
Y910905D01*
X1559993Y914393D01*
X1558018Y917349D01*
X1555062Y919324D01*
X1551575Y920018D01*
X1548088Y919324D01*
X1545132Y917349D01*
X1543156Y914393D01*
X1542463Y910905D01*
Y902629D01*
X1537433D01*
X1533531Y901852D01*
X1530223Y899642D01*
X1502790Y872210D01*
X1502696Y872068D01*
X1497696Y873585D01*
Y903277D01*
X1516882Y922463D01*
X1530906D01*
X1534392Y923156D01*
X1537349Y925132D01*
X1539324Y928088D01*
X1540018Y931575D01*
X1539324Y935062D01*
X1537349Y938018D01*
X1536540Y938559D01*
Y944276D01*
X1537349Y944817D01*
X1539324Y947773D01*
X1540018Y951260D01*
X1539324Y954747D01*
X1537349Y957703D01*
X1536540Y958244D01*
Y963961D01*
X1537349Y964502D01*
X1539324Y967458D01*
X1540018Y970945D01*
X1539324Y974432D01*
X1537349Y977388D01*
X1536540Y977929D01*
Y983646D01*
X1537349Y984187D01*
X1539324Y987143D01*
X1540018Y990630D01*
X1539324Y994117D01*
X1537349Y997073D01*
X1534392Y999048D01*
X1530906Y999742D01*
X1521488D01*
X1521028Y1000050D01*
X1517126Y1000826D01*
X1493194D01*
X1489583Y1000108D01*
X1489275Y1000324D01*
X1487368Y1004964D01*
X1496412Y1014007D01*
X1513878D01*
X1518755Y1014977D01*
X1522890Y1017740D01*
X1526038Y1020888D01*
X1530906D01*
X1534392Y1021582D01*
X1537349Y1023557D01*
X1539324Y1026513D01*
X1540018Y1030000D01*
X1539324Y1033487D01*
X1537349Y1036443D01*
X1534392Y1038418D01*
X1530906Y1039112D01*
X1525988D01*
X1522003Y1041775D01*
X1517126Y1042745D01*
X1512249Y1041775D01*
X1508840Y1039497D01*
X1491133D01*
X1486255Y1038527D01*
X1482121Y1035764D01*
X1463666Y1017310D01*
X1455314D01*
X1447228Y1013960D01*
X1441040Y1007772D01*
X1437690Y999686D01*
Y990933D01*
X1439680Y986129D01*
X1399220Y945669D01*
X1369842D01*
Y899527D01*
X1332275D01*
X1328373Y898750D01*
X1325066Y896540D01*
X1137790Y709265D01*
X1135580Y705957D01*
X1134804Y702056D01*
Y679589D01*
X1132538Y678651D01*
X1126349Y672462D01*
X1123000Y664376D01*
Y655624D01*
X1126349Y647538D01*
X1132538Y641349D01*
X1135021Y640321D01*
Y529705D01*
X1131575D01*
Y465294D01*
X1116335D01*
X905814Y675814D01*
X900853Y679130D01*
X895000Y680294D01*
X831039D01*
X827629Y686200D01*
X821200Y692629D01*
X813327Y697174D01*
X804546Y699528D01*
X795454D01*
X786673Y697174D01*
X778800Y692629D01*
X772371Y686200D01*
X767826Y678327D01*
X765472Y669546D01*
Y660454D01*
X767826Y651673D01*
X772371Y643800D01*
X778800Y637371D01*
X784706Y633961D01*
Y590669D01*
X762756D01*
Y585885D01*
X742780D01*
X741863Y587257D01*
X739545Y588806D01*
X736811Y589350D01*
X701457D01*
X698722Y588806D01*
X696404Y587257D01*
X694855Y584939D01*
X694312Y582205D01*
Y562598D01*
X694855Y559864D01*
X696404Y557546D01*
X698722Y555997D01*
X701457Y555453D01*
X720158D01*
X720945Y555297D01*
X762756D01*
Y539331D01*
X810158D01*
Y569040D01*
X810814Y569697D01*
X814130Y574659D01*
X815294Y580512D01*
Y633961D01*
X821200Y637371D01*
X827629Y643800D01*
X831039Y649706D01*
X888665D01*
X1099186Y439186D01*
X1104147Y435870D01*
X1110000Y434706D01*
X1209588D01*
Y390000D01*
X1211173Y386173D01*
X1215000Y384588D01*
X1364331D01*
Y379842D01*
X1415669D01*
Y427244D01*
X1414483D01*
X1413827Y428827D01*
X1410000Y430412D01*
X1260412D01*
Y461634D01*
X1338425D01*
Y515285D01*
X1397453Y574313D01*
X1400624Y573000D01*
X1409376D01*
X1417462Y576349D01*
X1423651Y582538D01*
X1424589Y584804D01*
X1710000D01*
X1713902Y585580D01*
X1717210Y587790D01*
X1797879Y668460D01*
X1800089Y671768D01*
X1800865Y675669D01*
Y888371D01*
X1800089Y892273D01*
X1797879Y895581D01*
X1765353Y928106D01*
Y937794D01*
X1769095Y942148D01*
X1773962D01*
X1777110Y939000D01*
X1781245Y936237D01*
X1786122Y935267D01*
X1798183D01*
X1888758Y844692D01*
X1888346Y841403D01*
X1883275Y839481D01*
X1871024Y851732D01*
X1868651Y857462D01*
X1862462Y863651D01*
X1854376Y867000D01*
X1845624D01*
X1837538Y863651D01*
X1831349Y857462D01*
X1828000Y849376D01*
Y840624D01*
X1831349Y832538D01*
X1837538Y826349D01*
X1839573Y825506D01*
X1854608Y810471D01*
Y573096D01*
X1853800Y572629D01*
X1847371Y566200D01*
X1842825Y558327D01*
X1840473Y549546D01*
Y540454D01*
X1842825Y531673D01*
X1847371Y523800D01*
X1853800Y517371D01*
X1861673Y512826D01*
X1870454Y510473D01*
X1879546D01*
X1888327Y512826D01*
X1896200Y517371D01*
X1902629Y523800D01*
X1907175Y531673D01*
X1909527Y540454D01*
Y549546D01*
X1907175Y558327D01*
X1902629Y566200D01*
X1896200Y572629D01*
X1895392Y573096D01*
Y783476D01*
X1900011Y785390D01*
X1917756Y767645D01*
Y734331D01*
X1921065D01*
Y701457D01*
X1922617Y693653D01*
X1927037Y687038D01*
X1968494Y645581D01*
X1975110Y641160D01*
X1982913Y639608D01*
X2520238D01*
X2560699Y599147D01*
X2558786Y594528D01*
X2555472D01*
Y525472D01*
X2624528D01*
Y594528D01*
X2610392D01*
Y660000D01*
Y731904D01*
X2611200Y732371D01*
X2617629Y738800D01*
X2622175Y746673D01*
X2624528Y755454D01*
Y764546D01*
X2622175Y773327D01*
X2617629Y781200D01*
X2611200Y787629D01*
X2603327Y792174D01*
X2594546Y794528D01*
X2585454D01*
X2576673Y792174D01*
X2568800Y787629D01*
X2562371Y781200D01*
X2557825Y773327D01*
X2555472Y764546D01*
Y755454D01*
X2557825Y746673D01*
X2562371Y738800D01*
X2565723Y735448D01*
X2565913Y728567D01*
X2517738Y680392D01*
X1991360D01*
X1961849Y709903D01*
Y734331D01*
X1965158D01*
Y785669D01*
X1935780D01*
X1915245Y806204D01*
Y815371D01*
X1917756Y819331D01*
X1965158D01*
Y870669D01*
X1935780D01*
X1903727Y902722D01*
X1907000Y910624D01*
Y919376D01*
X1903651Y927462D01*
X1897462Y933651D01*
X1889376Y937000D01*
X1880624D01*
X1872722Y933727D01*
X1832078Y974371D01*
X1834149Y979371D01*
X1853519D01*
X1856349Y972538D01*
X1862538Y966349D01*
X1870624Y963000D01*
X1879376D01*
X1887462Y966349D01*
X1893651Y972538D01*
X1897000Y980624D01*
Y989376D01*
X1893651Y997462D01*
X1887462Y1003651D01*
X1879376Y1007000D01*
X1870624D01*
X1862538Y1003651D01*
X1858650Y999763D01*
X1805907D01*
X1804715Y1001506D01*
X1803692Y1004763D01*
X1805072Y1006828D01*
X1805766Y1010315D01*
X1805380Y1012255D01*
X1807765Y1016312D01*
X1808778Y1017255D01*
X1889721D01*
X1943127Y963849D01*
X1942825Y963327D01*
X1940473Y954546D01*
Y945454D01*
X1942825Y936673D01*
X1947371Y928800D01*
X1953800Y922371D01*
X1961673Y917826D01*
X1970454Y915472D01*
X1979546D01*
X1988327Y917826D01*
X1991380Y919588D01*
X2042716D01*
Y900984D01*
X2088543D01*
Y959016D01*
X2085412D01*
Y975984D01*
X2088543D01*
Y1034016D01*
X2042716D01*
Y980412D01*
X1991380D01*
X1988327Y982174D01*
X1979546Y984528D01*
X1970454D01*
X1961673Y982174D01*
X1961151Y981873D01*
X1904012Y1039012D01*
X1899877Y1041775D01*
X1895000Y1042745D01*
X1861240D01*
X1859169Y1047745D01*
X1861240Y1049816D01*
X1865624Y1048000D01*
X1874376D01*
X1882462Y1051349D01*
X1888651Y1057538D01*
X1892000Y1065624D01*
Y1074376D01*
X1888944Y1081755D01*
X1890890Y1086755D01*
X1917756D01*
Y1064331D01*
X1947133D01*
X1963646Y1047819D01*
X1967780Y1045056D01*
X1972658Y1044086D01*
X2048405D01*
X2053283Y1045056D01*
X2057418Y1047819D01*
X2072355Y1062756D01*
X2105669D01*
Y1073712D01*
X2376457D01*
X2381334Y1074682D01*
X2385469Y1077445D01*
X2446024Y1138000D01*
X2454376D01*
X2462462Y1141349D01*
X2468651Y1147538D01*
X2472000Y1155624D01*
Y1164376D01*
X2468651Y1172462D01*
X2462462Y1178651D01*
X2458579Y1180259D01*
X2369419Y1269419D01*
X2362804Y1273840D01*
X2355000Y1275392D01*
X2273259D01*
X2269376Y1277000D01*
X2260624D01*
X2252538Y1273651D01*
X2246349Y1267462D01*
X2243000Y1259376D01*
Y1250624D01*
X2246349Y1242538D01*
X2252538Y1236349D01*
X2260624Y1233000D01*
X2269376D01*
X2273259Y1234608D01*
X2346553D01*
X2426569Y1154593D01*
X2371178Y1099202D01*
X2105669D01*
Y1110158D01*
X2054331D01*
Y1080780D01*
X2043126Y1069576D01*
X1977937D01*
X1965158Y1082355D01*
Y1115669D01*
X1917756D01*
Y1112245D01*
X1884890D01*
X1884425Y1113032D01*
X1883358Y1117245D01*
X1888651Y1122538D01*
X1892000Y1130624D01*
Y1139376D01*
X1888651Y1147462D01*
X1882462Y1153651D01*
X1874376Y1157000D01*
X1865624D01*
X1857538Y1153651D01*
X1851349Y1147462D01*
X1848000Y1139376D01*
Y1138621D01*
X1782874D01*
X1780623Y1138173D01*
X1778160Y1142781D01*
X1800183Y1164804D01*
X1917756D01*
Y1149331D01*
X1965158D01*
Y1186250D01*
X1978711Y1199804D01*
X2055411D01*
X2056349Y1197538D01*
X2062538Y1191349D01*
X2070624Y1188000D01*
X2079376D01*
X2087462Y1191349D01*
X2093651Y1197538D01*
X2097000Y1205624D01*
Y1214376D01*
X2093651Y1222462D01*
X2087462Y1228651D01*
X2079376Y1232000D01*
X2070624D01*
X2062538Y1228651D01*
X2056349Y1222462D01*
X2055411Y1220196D01*
X1974488D01*
X1970586Y1219420D01*
X1967279Y1217210D01*
X1950738Y1200669D01*
X1917756D01*
Y1185196D01*
X1795959D01*
X1792058Y1184420D01*
X1788750Y1182210D01*
X1762157Y1155617D01*
X1757537Y1157530D01*
Y1176653D01*
X1756844Y1180140D01*
X1754868Y1183097D01*
X1751912Y1185072D01*
X1748425Y1185766D01*
X1744938Y1185072D01*
X1741982Y1183097D01*
X1740007Y1180140D01*
X1739313Y1176653D01*
Y1149095D01*
X1734959Y1145353D01*
X1722521D01*
X1718167Y1149095D01*
Y1158512D01*
X1718475Y1158972D01*
X1719251Y1162874D01*
Y1176562D01*
X1777134Y1234445D01*
X1780624Y1233000D01*
X1789376D01*
X1797462Y1236349D01*
X1803651Y1242538D01*
X1807000Y1250624D01*
Y1259376D01*
X1803651Y1267462D01*
X1797462Y1273651D01*
X1789376Y1277000D01*
X1780624D01*
X1772538Y1273651D01*
X1766349Y1267462D01*
X1763000Y1259376D01*
Y1250624D01*
X1763432Y1249581D01*
X1707049Y1193199D01*
X1702430Y1195112D01*
Y1206336D01*
X1702462Y1206349D01*
X1708651Y1212538D01*
X1712000Y1220624D01*
Y1229376D01*
X1708651Y1237462D01*
X1702462Y1243651D01*
X1694376Y1247000D01*
X1685624D01*
X1677538Y1243651D01*
X1671349Y1237462D01*
X1668000Y1229376D01*
Y1220624D01*
X1671349Y1212538D01*
X1676940Y1206947D01*
Y1188568D01*
X1675700Y1187417D01*
X1671940Y1185317D01*
X1669685Y1185766D01*
X1667745Y1185380D01*
X1663688Y1187765D01*
X1662745Y1188778D01*
Y1258661D01*
X1673701D01*
Y1300157D01*
X1626299D01*
Y1258661D01*
X1637255D01*
Y1188778D01*
X1636312Y1187765D01*
X1632255Y1185380D01*
X1630315Y1185766D01*
X1628060Y1185317D01*
X1624300Y1187417D01*
X1623060Y1188568D01*
Y1206947D01*
X1628651Y1212538D01*
X1632000Y1220624D01*
Y1229376D01*
X1628651Y1237462D01*
X1622462Y1243651D01*
X1614376Y1247000D01*
X1605624D01*
X1597538Y1243651D01*
X1591349Y1237462D01*
X1588000Y1229376D01*
Y1226955D01*
X1583000Y1224884D01*
X1560353Y1247530D01*
Y1274252D01*
X1560158Y1275237D01*
Y1283822D01*
X1560392Y1285000D01*
X1560158Y1286178D01*
Y1308701D01*
X1559053D01*
Y1338084D01*
X1557501Y1345888D01*
X1553081Y1352504D01*
X1141165Y1764419D01*
X1134549Y1768840D01*
X1126746Y1770392D01*
X983447D01*
X784419Y1969419D01*
X777804Y1973840D01*
X770000Y1975392D01*
X674461D01*
X670505Y1982244D01*
X662244Y1990505D01*
X652126Y1996346D01*
X640841Y1999370D01*
D02*
G37*
G36*
X2901811Y1249547D02*
X2866457D01*
X2863722Y1249003D01*
X2861404Y1247454D01*
X2859855Y1245136D01*
X2859311Y1242402D01*
Y1222795D01*
X2859855Y1220061D01*
X2861404Y1217743D01*
X2863722Y1216194D01*
X2866457Y1215650D01*
X2901811D01*
X2904545Y1216194D01*
X2906207Y1217305D01*
X2927756D01*
Y1194331D01*
X2975157D01*
Y1245669D01*
X2948264D01*
X2946679Y1246728D01*
X2940827Y1247892D01*
X2906207D01*
X2904545Y1249003D01*
X2901811Y1249547D01*
D02*
G37*
G36*
X2694546Y1234527D02*
X2685454D01*
X2676673Y1232175D01*
X2668800Y1227629D01*
X2662371Y1221200D01*
X2657825Y1213327D01*
X2655472Y1204546D01*
Y1195454D01*
X2657825Y1186673D01*
X2662371Y1178800D01*
X2668800Y1172371D01*
X2676673Y1167825D01*
X2685454Y1165473D01*
X2694546D01*
X2703327Y1167825D01*
X2711200Y1172371D01*
X2717629Y1178800D01*
X2722175Y1186673D01*
X2724528Y1195454D01*
Y1204546D01*
X2722175Y1213327D01*
X2717629Y1221200D01*
X2711200Y1227629D01*
X2703327Y1232175D01*
X2694546Y1234527D01*
D02*
G37*
G36*
X2594546Y1434527D02*
X2585454D01*
X2576673Y1432175D01*
X2568800Y1427629D01*
X2562371Y1421200D01*
X2557825Y1413327D01*
X2555472Y1404546D01*
Y1395454D01*
X2557825Y1386673D01*
X2562371Y1378800D01*
X2568800Y1372371D01*
X2569608Y1371904D01*
Y1234527D01*
X2555472D01*
Y1165473D01*
X2624528D01*
Y1234527D01*
X2610392D01*
Y1371904D01*
X2611200Y1372371D01*
X2617629Y1378800D01*
X2622175Y1386673D01*
X2624528Y1395454D01*
Y1404546D01*
X2622175Y1413327D01*
X2617629Y1421200D01*
X2611200Y1427629D01*
X2603327Y1432175D01*
X2594546Y1434527D01*
D02*
G37*
G36*
X1704961Y1115172D02*
X1702215Y1114035D01*
X1695886Y1107706D01*
X1695807Y1107515D01*
X1690807D01*
X1690728Y1107706D01*
X1684399Y1114035D01*
X1681654Y1115172D01*
Y1094961D01*
X1661654D01*
Y1115172D01*
X1658908Y1114035D01*
X1652579Y1107706D01*
X1652500Y1107515D01*
X1647500D01*
X1647421Y1107706D01*
X1641092Y1114035D01*
X1638347Y1115172D01*
Y1094961D01*
X1618347D01*
Y1115172D01*
X1615601Y1114035D01*
X1609272Y1107706D01*
X1609193Y1107515D01*
X1604193D01*
X1604114Y1107706D01*
X1597785Y1114035D01*
X1595039Y1115172D01*
Y1094961D01*
X1585039D01*
Y1084961D01*
X1564828D01*
X1565965Y1082215D01*
X1572294Y1075886D01*
X1572485Y1075807D01*
Y1070807D01*
X1572294Y1070728D01*
X1565965Y1064399D01*
X1564828Y1061654D01*
X1585039D01*
Y1041654D01*
X1564828D01*
X1565965Y1038908D01*
X1572294Y1032579D01*
X1572485Y1032500D01*
Y1027500D01*
X1572294Y1027421D01*
X1565965Y1021092D01*
X1564828Y1018346D01*
X1585039D01*
Y998346D01*
X1564828D01*
X1565965Y995601D01*
X1572294Y989272D01*
X1572485Y989193D01*
Y984193D01*
X1572294Y984114D01*
X1565965Y977785D01*
X1564828Y975039D01*
X1585039D01*
Y965039D01*
X1595039D01*
Y944828D01*
X1597785Y945965D01*
X1604114Y952294D01*
X1604193Y952485D01*
X1609193D01*
X1609272Y952294D01*
X1615601Y945965D01*
X1618347Y944828D01*
Y965039D01*
X1638347D01*
Y944828D01*
X1641092Y945965D01*
X1647421Y952294D01*
X1647500Y952485D01*
X1652500D01*
X1652579Y952294D01*
X1658908Y945965D01*
X1661654Y944828D01*
Y965039D01*
X1681654D01*
Y944828D01*
X1684399Y945965D01*
X1690728Y952294D01*
X1690807Y952485D01*
X1695807D01*
X1695886Y952294D01*
X1702215Y945965D01*
X1704961Y944828D01*
Y965039D01*
X1714961D01*
Y975039D01*
X1735172D01*
X1734035Y977785D01*
X1727706Y984114D01*
X1727515Y984193D01*
Y989193D01*
X1727706Y989272D01*
X1734035Y995601D01*
X1735172Y998346D01*
X1714961D01*
Y1018346D01*
X1735172D01*
X1734035Y1021092D01*
X1727706Y1027421D01*
X1727515Y1027500D01*
Y1032500D01*
X1727706Y1032579D01*
X1734035Y1038908D01*
X1735172Y1041654D01*
X1714961D01*
Y1061654D01*
X1735172D01*
X1734035Y1064399D01*
X1727706Y1070728D01*
X1727515Y1070807D01*
Y1075807D01*
X1727706Y1075886D01*
X1734035Y1082215D01*
X1735172Y1084961D01*
X1714961D01*
Y1094961D01*
X1704961D01*
Y1115172D01*
D02*
G37*
G36*
X1724961D02*
Y1104961D01*
X1735172D01*
X1734035Y1107706D01*
X1727706Y1114035D01*
X1724961Y1115172D01*
D02*
G37*
G36*
X1575039D02*
X1572294Y1114035D01*
X1565965Y1107706D01*
X1564828Y1104961D01*
X1575039D01*
Y1115172D01*
D02*
G37*
G36*
X85000Y1106320D02*
Y1075000D01*
X116320D01*
X114604Y1081404D01*
X109008Y1091096D01*
X101096Y1099008D01*
X91404Y1104604D01*
X85000Y1106320D01*
D02*
G37*
G36*
X65000D02*
X58596Y1104604D01*
X48904Y1099008D01*
X40992Y1091096D01*
X35396Y1081404D01*
X33680Y1075000D01*
X65000D01*
Y1106320D01*
D02*
G37*
G36*
X1509409Y1103601D02*
X1473307D01*
X1467454Y1102437D01*
X1462493Y1099121D01*
X1450371Y1087000D01*
X1445624D01*
X1437538Y1083651D01*
X1431349Y1077462D01*
X1428000Y1069376D01*
Y1064629D01*
X1394041Y1030669D01*
X1369842D01*
Y979331D01*
X1417244D01*
Y1010615D01*
X1449629Y1043000D01*
X1454376D01*
X1462462Y1046349D01*
X1468651Y1052538D01*
X1472000Y1060624D01*
Y1065371D01*
X1479642Y1073013D01*
X1489861D01*
X1494234Y1069370D01*
X1494928Y1065883D01*
X1496903Y1062927D01*
X1499860Y1060952D01*
X1503347Y1060258D01*
X1530906D01*
X1534392Y1060952D01*
X1537349Y1062927D01*
X1539324Y1065883D01*
X1540018Y1069370D01*
X1539324Y1072857D01*
X1537349Y1075813D01*
X1536540Y1076354D01*
Y1082071D01*
X1537349Y1082612D01*
X1539324Y1085568D01*
X1540018Y1089055D01*
X1539324Y1092542D01*
X1537349Y1095498D01*
X1534392Y1097474D01*
X1530906Y1098167D01*
X1520861D01*
X1520224Y1099121D01*
X1515262Y1102437D01*
X1509409Y1103601D01*
D02*
G37*
G36*
X3345000Y1086320D02*
Y1055000D01*
X3376320D01*
X3374604Y1061404D01*
X3369008Y1071096D01*
X3361096Y1079008D01*
X3351404Y1084604D01*
X3345000Y1086320D01*
D02*
G37*
G36*
X3325000D02*
X3318596Y1084604D01*
X3308904Y1079008D01*
X3300992Y1071096D01*
X3295396Y1061404D01*
X3293680Y1055000D01*
X3325000D01*
Y1086320D01*
D02*
G37*
G36*
X116320Y1055000D02*
X85000D01*
Y1023680D01*
X91404Y1025396D01*
X101096Y1030992D01*
X109008Y1038904D01*
X114604Y1048596D01*
X116320Y1055000D01*
D02*
G37*
G36*
X65000D02*
X33680D01*
X35396Y1048596D01*
X40992Y1038904D01*
X48904Y1030992D01*
X58596Y1025396D01*
X65000Y1023680D01*
Y1055000D01*
D02*
G37*
G36*
X3376320Y1035000D02*
X3345000D01*
Y1003680D01*
X3351404Y1005396D01*
X3361096Y1010992D01*
X3369008Y1018904D01*
X3374604Y1028596D01*
X3376320Y1035000D01*
D02*
G37*
G36*
X3325000D02*
X3293680D01*
X3295396Y1028596D01*
X3300992Y1018904D01*
X3308904Y1010992D01*
X3318596Y1005396D01*
X3325000Y1003680D01*
Y1035000D01*
D02*
G37*
G36*
X834528Y1099527D02*
X765472D01*
Y1030473D01*
X784706D01*
Y990669D01*
X762756D01*
Y985885D01*
X742780D01*
X741863Y987257D01*
X739545Y988806D01*
X736811Y989350D01*
X701457D01*
X698722Y988806D01*
X696404Y987257D01*
X694855Y984939D01*
X694312Y982205D01*
Y962598D01*
X694855Y959864D01*
X696404Y957546D01*
X698722Y955997D01*
X701457Y955453D01*
X720158D01*
X720945Y955297D01*
X762756D01*
Y939331D01*
X810158D01*
Y969040D01*
X810814Y969697D01*
X814130Y974659D01*
X815294Y980512D01*
Y1030473D01*
X834528D01*
Y1099527D01*
D02*
G37*
G36*
X2732244Y1325669D02*
X2684843D01*
Y1274331D01*
X2732244D01*
Y1284706D01*
X2791064D01*
X2795257Y1280513D01*
Y1259487D01*
X2785317Y1249547D01*
X2758189D01*
X2755455Y1249003D01*
X2753137Y1247454D01*
X2751588Y1245136D01*
X2751044Y1242402D01*
Y1222795D01*
X2751588Y1220061D01*
X2753137Y1217743D01*
X2755455Y1216194D01*
X2758097Y1215668D01*
X2758273Y1215143D01*
X2759021Y1210650D01*
X2688193Y1139822D01*
X2669528D01*
X2663675Y1138657D01*
X2658713Y1135342D01*
X2575371Y1052000D01*
X2570624D01*
X2562538Y1048651D01*
X2556349Y1042462D01*
X2553000Y1034376D01*
Y1025624D01*
X2556349Y1017538D01*
X2562538Y1011349D01*
X2570624Y1008000D01*
X2579376D01*
X2587462Y1011349D01*
X2593651Y1017538D01*
X2597000Y1025624D01*
Y1030371D01*
X2650472Y1083844D01*
X2655472Y1081773D01*
Y1075454D01*
X2657825Y1066673D01*
X2662371Y1058800D01*
X2668800Y1052371D01*
X2676673Y1047825D01*
X2685454Y1045473D01*
X2694546D01*
X2703327Y1047825D01*
X2711200Y1052371D01*
X2717629Y1058800D01*
X2721039Y1064706D01*
X2783665D01*
X2859311Y989060D01*
Y977598D01*
X2859855Y974864D01*
X2861404Y972546D01*
X2863722Y970997D01*
X2866457Y970453D01*
X2885157D01*
X2885945Y970297D01*
X2927756D01*
Y954331D01*
X2975157D01*
Y1005669D01*
X2927756D01*
Y1000885D01*
X2907780D01*
X2906863Y1002257D01*
X2904545Y1003806D01*
X2901811Y1004350D01*
X2887279D01*
X2800814Y1090814D01*
X2795853Y1094130D01*
X2790000Y1095294D01*
X2721039D01*
X2717629Y1101200D01*
X2711200Y1107629D01*
X2708001Y1109476D01*
X2707636Y1110058D01*
X2707289Y1115660D01*
X2785814Y1194186D01*
X2789130Y1199147D01*
X2790294Y1205000D01*
Y1215282D01*
X2792145Y1215650D01*
X2793543D01*
X2796278Y1216194D01*
X2798596Y1217743D01*
X2800144Y1220061D01*
X2800407Y1221379D01*
X2821366Y1242338D01*
X2824681Y1247299D01*
X2825845Y1253152D01*
Y1286848D01*
X2824681Y1292701D01*
X2821366Y1297662D01*
X2808214Y1310814D01*
X2803252Y1314130D01*
X2800688Y1314640D01*
Y1317205D01*
X2800144Y1319939D01*
X2798596Y1322257D01*
X2796278Y1323806D01*
X2793543Y1324350D01*
X2758189D01*
X2755455Y1323806D01*
X2753137Y1322257D01*
X2751588Y1319939D01*
X2751044Y1317205D01*
Y1315294D01*
X2732244D01*
Y1325669D01*
D02*
G37*
G36*
X1735172Y955039D02*
X1724961D01*
Y944828D01*
X1727706Y945965D01*
X1734035Y952294D01*
X1735172Y955039D01*
D02*
G37*
G36*
X1575039D02*
X1564828D01*
X1565965Y952294D01*
X1572294Y945965D01*
X1575039Y944828D01*
Y955039D01*
D02*
G37*
G36*
X567244Y990669D02*
X519842D01*
Y939331D01*
X567244D01*
Y949706D01*
X626064D01*
X630257Y945513D01*
Y924487D01*
X620317Y914547D01*
X612146D01*
X610866Y914801D01*
X609587Y914547D01*
X593189D01*
X590455Y914003D01*
X588137Y912454D01*
X586588Y910136D01*
X586044Y907402D01*
Y887795D01*
X586588Y885061D01*
X588137Y882743D01*
X590455Y881194D01*
X590474Y881190D01*
Y801587D01*
X586349Y797462D01*
X583000Y789376D01*
Y780624D01*
X586349Y772538D01*
X592538Y766349D01*
X600624Y763000D01*
X609376D01*
X617462Y766349D01*
X623651Y772538D01*
X626424Y779234D01*
X629706Y784145D01*
X631258Y791948D01*
Y881190D01*
X631278Y881194D01*
X633596Y882743D01*
X635144Y885061D01*
X635407Y886379D01*
X656366Y907338D01*
X659681Y912299D01*
X660845Y918152D01*
Y951848D01*
X659681Y957701D01*
X656366Y962662D01*
X643214Y975814D01*
X638252Y979130D01*
X635688Y979640D01*
Y982205D01*
X635144Y984939D01*
X633596Y987257D01*
X631278Y988806D01*
X628543Y989350D01*
X593189D01*
X590455Y988806D01*
X588137Y987257D01*
X586588Y984939D01*
X586044Y982205D01*
Y980294D01*
X567244D01*
Y990669D01*
D02*
G37*
G36*
X2732244Y1005669D02*
X2684843D01*
Y954331D01*
X2732244D01*
Y964706D01*
X2791064D01*
X2795257Y960513D01*
Y939487D01*
X2785317Y929547D01*
X2758189D01*
X2755455Y929003D01*
X2753137Y927454D01*
X2751588Y925136D01*
X2751044Y922402D01*
Y907673D01*
X2743193Y899822D01*
X2718425D01*
X2717629Y901200D01*
X2711200Y907629D01*
X2703327Y912174D01*
X2694546Y914528D01*
X2685454D01*
X2676673Y912174D01*
X2668800Y907629D01*
X2662371Y901200D01*
X2657825Y893327D01*
X2655472Y884546D01*
Y875454D01*
X2657825Y866673D01*
X2662371Y858800D01*
X2668800Y852371D01*
X2676673Y847826D01*
X2685454Y845472D01*
X2694546D01*
X2703327Y847826D01*
X2711200Y852371D01*
X2717629Y858800D01*
X2722175Y866673D01*
X2722861Y869234D01*
X2749528D01*
X2755380Y870398D01*
X2760342Y873713D01*
X2782279Y895650D01*
X2782653D01*
X2787399Y894706D01*
X2792145Y895650D01*
X2793543D01*
X2796278Y896194D01*
X2798596Y897743D01*
X2800144Y900061D01*
X2800407Y901379D01*
X2821366Y922338D01*
X2824681Y927299D01*
X2825845Y933152D01*
Y966848D01*
X2824681Y972701D01*
X2821366Y977662D01*
X2808214Y990814D01*
X2803252Y994130D01*
X2800688Y994640D01*
Y997205D01*
X2800144Y999939D01*
X2798596Y1002257D01*
X2796278Y1003806D01*
X2793543Y1004350D01*
X2758189D01*
X2755455Y1003806D01*
X2753137Y1002257D01*
X2751588Y999939D01*
X2751044Y997205D01*
Y995294D01*
X2732244D01*
Y1005669D01*
D02*
G37*
G36*
X2901811Y929547D02*
X2866457D01*
X2863722Y929003D01*
X2861404Y927454D01*
X2859855Y925136D01*
X2859311Y922402D01*
Y902795D01*
X2859855Y900061D01*
X2861404Y897743D01*
X2863722Y896194D01*
X2866457Y895650D01*
X2901811D01*
X2904545Y896194D01*
X2906207Y897305D01*
X2927756D01*
Y874331D01*
X2975157D01*
Y925669D01*
X2948264D01*
X2946679Y926728D01*
X2940827Y927892D01*
X2906207D01*
X2904545Y929003D01*
X2901811Y929547D01*
D02*
G37*
G36*
X736811Y914547D02*
X701457D01*
X698722Y914003D01*
X696404Y912454D01*
X694855Y910136D01*
X694312Y907402D01*
Y887795D01*
X694855Y885061D01*
X696404Y882743D01*
X698722Y881194D01*
X701457Y880650D01*
X736811D01*
X739545Y881194D01*
X741207Y882305D01*
X762756D01*
Y859331D01*
X810158D01*
Y910669D01*
X783264D01*
X781679Y911728D01*
X775827Y912892D01*
X741207D01*
X739545Y914003D01*
X736811Y914547D01*
D02*
G37*
G36*
X85000Y806320D02*
Y775000D01*
X116320D01*
X114604Y781404D01*
X109008Y791096D01*
X101096Y799008D01*
X91404Y804604D01*
X85000Y806320D01*
D02*
G37*
G36*
X65000D02*
X58596Y804604D01*
X48904Y799008D01*
X40992Y791096D01*
X35396Y781404D01*
X33680Y775000D01*
X65000D01*
Y806320D01*
D02*
G37*
G36*
X3345000Y786320D02*
Y755000D01*
X3376320D01*
X3374604Y761404D01*
X3369008Y771096D01*
X3361096Y779008D01*
X3351404Y784604D01*
X3345000Y786320D01*
D02*
G37*
G36*
X3325000D02*
X3318596Y784604D01*
X3308904Y779008D01*
X3300992Y771096D01*
X3295396Y761404D01*
X3293680Y755000D01*
X3325000D01*
Y786320D01*
D02*
G37*
G36*
X904546Y1099527D02*
X895454D01*
X886673Y1097175D01*
X878800Y1092629D01*
X872371Y1086200D01*
X867826Y1078327D01*
X865472Y1069546D01*
Y1060454D01*
X867826Y1051673D01*
X872371Y1043800D01*
X878800Y1037371D01*
X879608Y1036904D01*
Y819528D01*
X865472D01*
Y750472D01*
X934528D01*
Y819528D01*
X920392D01*
Y1036904D01*
X921200Y1037371D01*
X927629Y1043800D01*
X932174Y1051673D01*
X934528Y1060454D01*
Y1069546D01*
X932174Y1078327D01*
X927629Y1086200D01*
X921200Y1092629D01*
X913327Y1097175D01*
X904546Y1099527D01*
D02*
G37*
G36*
X804546Y819528D02*
X795454D01*
X786673Y817174D01*
X778800Y812629D01*
X772371Y806200D01*
X767826Y798327D01*
X765472Y789546D01*
Y780454D01*
X767826Y771673D01*
X772371Y763800D01*
X778800Y757371D01*
X786673Y752826D01*
X795454Y750472D01*
X804546D01*
X813327Y752826D01*
X821200Y757371D01*
X827629Y763800D01*
X832174Y771673D01*
X834528Y780454D01*
Y789546D01*
X832174Y798327D01*
X827629Y806200D01*
X821200Y812629D01*
X813327Y817174D01*
X804546Y819528D01*
D02*
G37*
G36*
X116320Y755000D02*
X85000D01*
Y723680D01*
X91404Y725396D01*
X101096Y730992D01*
X109008Y738904D01*
X114604Y748596D01*
X116320Y755000D01*
D02*
G37*
G36*
X65000D02*
X33680D01*
X35396Y748596D01*
X40992Y738904D01*
X48904Y730992D01*
X58596Y725396D01*
X65000Y723680D01*
Y755000D01*
D02*
G37*
G36*
X3376320Y735000D02*
X3345000D01*
Y703680D01*
X3351404Y705396D01*
X3361096Y710992D01*
X3369008Y718904D01*
X3374604Y728596D01*
X3376320Y735000D01*
D02*
G37*
G36*
X3325000D02*
X3293680D01*
X3295396Y728596D01*
X3300992Y718904D01*
X3308904Y710992D01*
X3318596Y705396D01*
X3325000Y703680D01*
Y735000D01*
D02*
G37*
G36*
X2724528Y794528D02*
X2655472D01*
Y725472D01*
X2724528D01*
Y744706D01*
X2783665D01*
X2859311Y669060D01*
Y657598D01*
X2859855Y654864D01*
X2861404Y652546D01*
X2863722Y650997D01*
X2866457Y650453D01*
X2881244D01*
X2885000Y649706D01*
X2887969Y650297D01*
X2927756D01*
Y634331D01*
X2975157D01*
Y685669D01*
X2927756D01*
Y680885D01*
X2907780D01*
X2906863Y682257D01*
X2904545Y683806D01*
X2901811Y684350D01*
X2887279D01*
X2800814Y770814D01*
X2795853Y774130D01*
X2790000Y775294D01*
X2724528D01*
Y794528D01*
D02*
G37*
G36*
X2901811Y609547D02*
X2866457D01*
X2863722Y609003D01*
X2861404Y607454D01*
X2859855Y605136D01*
X2859311Y602402D01*
Y582795D01*
X2859855Y580061D01*
X2861404Y577743D01*
X2863722Y576194D01*
X2866457Y575650D01*
X2901811D01*
X2904545Y576194D01*
X2906207Y577305D01*
X2927756D01*
Y554331D01*
X2975157D01*
Y605669D01*
X2948264D01*
X2946679Y606728D01*
X2940827Y607892D01*
X2906207D01*
X2904545Y609003D01*
X2901811Y609547D01*
D02*
G37*
G36*
X2179283Y603188D02*
X2170192D01*
X2161410Y600835D01*
X2153537Y596289D01*
X2147109Y589861D01*
X2142563Y581988D01*
X2140210Y573206D01*
Y564115D01*
X2140224Y564062D01*
X2041553Y465392D01*
X1909527D01*
Y479527D01*
X1840473D01*
Y410473D01*
X1909527D01*
Y424608D01*
X2050000D01*
X2057804Y426160D01*
X2064419Y430581D01*
X2168441Y534602D01*
X2170192Y534133D01*
X2179283D01*
X2188064Y536486D01*
X2195938Y541032D01*
X2202366Y547460D01*
X2206912Y555333D01*
X2209265Y564115D01*
Y573206D01*
X2206912Y581988D01*
X2202366Y589861D01*
X2195938Y596289D01*
X2188064Y600835D01*
X2179283Y603188D01*
D02*
G37*
G36*
X2694546Y594528D02*
X2685454D01*
X2676673Y592174D01*
X2668800Y587629D01*
X2662371Y581200D01*
X2657825Y573327D01*
X2655472Y564546D01*
Y555454D01*
X2657825Y546673D01*
X2662371Y538800D01*
X2668800Y532371D01*
X2676673Y527826D01*
X2685454Y525472D01*
X2694546D01*
X2703327Y527826D01*
X2711200Y532371D01*
X2717629Y538800D01*
X2722175Y546673D01*
X2724528Y555454D01*
Y564546D01*
X2722175Y573327D01*
X2717629Y581200D01*
X2711200Y587629D01*
X2703327Y592174D01*
X2694546Y594528D01*
D02*
G37*
G36*
X2732244Y685669D02*
X2684843D01*
Y634331D01*
X2732244D01*
Y644706D01*
X2791064D01*
X2795257Y640513D01*
Y619487D01*
X2786064Y610294D01*
X2775000D01*
X2771244Y609547D01*
X2758189D01*
X2755455Y609003D01*
X2753137Y607454D01*
X2751588Y605136D01*
X2751044Y602402D01*
Y582795D01*
X2751588Y580061D01*
X2753137Y577743D01*
X2755455Y576194D01*
X2758189Y575650D01*
X2759706D01*
Y561335D01*
X2713665Y515294D01*
X2440412D01*
Y565000D01*
X2438827Y568827D01*
X2435000Y570412D01*
X2427701D01*
X2422462Y575651D01*
X2414376Y579000D01*
X2405624D01*
X2397538Y575651D01*
X2392299Y570412D01*
X2300000D01*
X2296173Y568827D01*
X2294588Y565000D01*
Y395392D01*
X1830398D01*
X1822594Y393840D01*
X1815979Y389419D01*
X1784705Y358145D01*
X1779546Y359527D01*
X1770454D01*
X1761673Y357175D01*
X1753800Y352629D01*
X1747371Y346200D01*
X1742825Y338327D01*
X1740473Y329546D01*
Y320454D01*
X1742825Y311673D01*
X1747371Y303800D01*
X1753800Y297371D01*
X1761673Y292825D01*
X1770454Y290473D01*
X1779546D01*
X1788327Y292825D01*
X1796200Y297371D01*
X1802629Y303800D01*
X1807175Y311673D01*
X1809527Y320454D01*
Y325291D01*
X1835473Y351236D01*
X1840473Y349165D01*
Y290473D01*
X1909527D01*
Y354608D01*
X2294588D01*
Y170000D01*
X2296173Y166173D01*
X2300000Y164588D01*
X2435000D01*
X2435285Y164706D01*
X2710000D01*
X2715853Y165870D01*
X2720814Y169186D01*
X2785814Y234186D01*
X2789130Y239147D01*
X2790294Y245000D01*
Y255282D01*
X2792145Y255650D01*
X2793543D01*
X2796278Y256194D01*
X2798596Y257743D01*
X2800144Y260061D01*
X2800407Y261379D01*
X2821366Y282338D01*
X2824681Y287299D01*
X2825845Y293152D01*
Y326848D01*
X2824681Y332701D01*
X2821366Y337662D01*
X2808214Y350814D01*
X2803252Y354130D01*
X2800688Y354640D01*
Y357205D01*
X2800144Y359939D01*
X2798596Y362257D01*
X2796278Y363806D01*
X2793543Y364350D01*
X2758189D01*
X2755455Y363806D01*
X2753137Y362257D01*
X2751588Y359939D01*
X2751044Y357205D01*
Y355294D01*
X2732244D01*
Y365669D01*
X2684843D01*
Y314331D01*
X2732244D01*
Y324706D01*
X2791064D01*
X2795257Y320513D01*
Y299487D01*
X2785317Y289547D01*
X2758189D01*
X2755455Y289003D01*
X2753137Y287454D01*
X2751588Y285136D01*
X2751044Y282402D01*
Y262795D01*
X2751588Y260061D01*
X2753137Y257743D01*
X2755455Y256194D01*
X2758097Y255668D01*
X2758273Y255143D01*
X2759021Y250650D01*
X2703665Y195294D01*
X2440412D01*
Y484706D01*
X2720000D01*
X2725853Y485870D01*
X2730814Y489186D01*
X2785814Y544186D01*
X2789130Y549147D01*
X2790294Y555000D01*
Y575650D01*
X2793543D01*
X2796278Y576194D01*
X2798596Y577743D01*
X2800144Y580061D01*
X2800620Y582453D01*
X2803214Y584186D01*
X2821366Y602338D01*
X2824681Y607299D01*
X2825845Y613152D01*
Y646848D01*
X2824681Y652701D01*
X2821366Y657662D01*
X2808214Y670814D01*
X2803252Y674130D01*
X2800688Y674640D01*
Y677205D01*
X2800144Y679939D01*
X2798596Y682257D01*
X2796278Y683806D01*
X2793543Y684350D01*
X2758189D01*
X2755455Y683806D01*
X2753137Y682257D01*
X2751588Y679939D01*
X2751044Y677205D01*
Y675294D01*
X2732244D01*
Y685669D01*
D02*
G37*
G36*
X736811Y514547D02*
X701457D01*
X698722Y514003D01*
X696404Y512454D01*
X694855Y510136D01*
X694312Y507402D01*
Y487795D01*
X694855Y485061D01*
X696404Y482743D01*
X698722Y481194D01*
X701457Y480650D01*
X736811D01*
X739545Y481194D01*
X741207Y482305D01*
X762756D01*
Y459331D01*
X810158D01*
Y510669D01*
X783264D01*
X781679Y511728D01*
X775827Y512892D01*
X741207D01*
X739545Y514003D01*
X736811Y514547D01*
D02*
G37*
G36*
X2244376Y512000D02*
X2235624D01*
X2227538Y508651D01*
X2221349Y502462D01*
X2219741Y498579D01*
X2166553Y445392D01*
X2118259D01*
X2114376Y447000D01*
X2105624D01*
X2097538Y443651D01*
X2091349Y437462D01*
X2088000Y429376D01*
Y420624D01*
X2091349Y412538D01*
X2097538Y406349D01*
X2105624Y403000D01*
X2114376D01*
X2118259Y404608D01*
X2175000D01*
X2182804Y406160D01*
X2189419Y410581D01*
X2248579Y469741D01*
X2252462Y471349D01*
X2258651Y477538D01*
X2262000Y485624D01*
Y494376D01*
X2258651Y502462D01*
X2252462Y508651D01*
X2244376Y512000D01*
D02*
G37*
G36*
X2724528Y474527D02*
X2655472D01*
Y405473D01*
X2724528D01*
Y424706D01*
X2783665D01*
X2859311Y349060D01*
Y337599D01*
X2859855Y334864D01*
X2861404Y332546D01*
X2863722Y330997D01*
X2866457Y330453D01*
X2881244D01*
X2885000Y329706D01*
X2887969Y330297D01*
X2927756D01*
Y314331D01*
X2975157D01*
Y365669D01*
X2927756D01*
Y360885D01*
X2907780D01*
X2906863Y362257D01*
X2904545Y363806D01*
X2901811Y364350D01*
X2887279D01*
X2800814Y450814D01*
X2795853Y454130D01*
X2790000Y455294D01*
X2724528D01*
Y474527D01*
D02*
G37*
G36*
X2901811Y289547D02*
X2866457D01*
X2863722Y289003D01*
X2861404Y287454D01*
X2859855Y285136D01*
X2859311Y282402D01*
Y262795D01*
X2859855Y260061D01*
X2861404Y257743D01*
X2863722Y256194D01*
X2866457Y255650D01*
X2901811D01*
X2904545Y256194D01*
X2906207Y257305D01*
X2927756D01*
Y234331D01*
X2975157D01*
Y285669D01*
X2948264D01*
X2946679Y286728D01*
X2940827Y287892D01*
X2906207D01*
X2904545Y289003D01*
X2901811Y289547D01*
D02*
G37*
G36*
X2694546Y274527D02*
X2685454D01*
X2676673Y272175D01*
X2668800Y267629D01*
X2662371Y261200D01*
X2657825Y253327D01*
X2655472Y244546D01*
Y235454D01*
X2657825Y226673D01*
X2662371Y218800D01*
X2668800Y212371D01*
X2676673Y207826D01*
X2685454Y205472D01*
X2694546D01*
X2703327Y207826D01*
X2711200Y212371D01*
X2717629Y218800D01*
X2722175Y226673D01*
X2724528Y235454D01*
Y244546D01*
X2722175Y253327D01*
X2717629Y261200D01*
X2711200Y267629D01*
X2703327Y272175D01*
X2694546Y274527D01*
D02*
G37*
G36*
X2594546Y474527D02*
X2585454D01*
X2576673Y472175D01*
X2568800Y467629D01*
X2562371Y461200D01*
X2557825Y453327D01*
X2555472Y444546D01*
Y435454D01*
X2557825Y426673D01*
X2562371Y418800D01*
X2568800Y412371D01*
X2569608Y411904D01*
Y274527D01*
X2555472D01*
Y205472D01*
X2624528D01*
Y274527D01*
X2610392D01*
Y411904D01*
X2611200Y412371D01*
X2617629Y418800D01*
X2622175Y426673D01*
X2624528Y435454D01*
Y444546D01*
X2622175Y453327D01*
X2617629Y461200D01*
X2611200Y467629D01*
X2603327Y472175D01*
X2594546Y474527D01*
D02*
G37*
G36*
X3270000Y259787D02*
Y160000D01*
X3369787D01*
X3367291Y175758D01*
X3361941Y192225D01*
X3354080Y207653D01*
X3343903Y221660D01*
X3331660Y233903D01*
X3317653Y244080D01*
X3302225Y251941D01*
X3285758Y257291D01*
X3270000Y259787D01*
D02*
G37*
G36*
X160000D02*
Y160000D01*
X259787D01*
X257291Y175758D01*
X251941Y192225D01*
X244080Y207653D01*
X233903Y221660D01*
X221660Y233903D01*
X207653Y244080D01*
X192225Y251941D01*
X175758Y257291D01*
X160000Y259787D01*
D02*
G37*
G36*
X3250000D02*
X3234242Y257291D01*
X3217775Y251941D01*
X3202347Y244080D01*
X3188340Y233903D01*
X3176097Y221660D01*
X3165920Y207653D01*
X3158059Y192225D01*
X3152709Y175758D01*
X3150213Y160000D01*
X3250000D01*
Y259787D01*
D02*
G37*
G36*
X140000D02*
X124242Y257291D01*
X107775Y251941D01*
X92347Y244080D01*
X78340Y233903D01*
X66097Y221660D01*
X55920Y207653D01*
X48059Y192225D01*
X42709Y175758D01*
X40213Y160000D01*
X140000D01*
Y259787D01*
D02*
G37*
G36*
X259787Y140000D02*
X160000D01*
Y40213D01*
X175758Y42709D01*
X192225Y48059D01*
X207653Y55920D01*
X221660Y66097D01*
X233903Y78340D01*
X244080Y92347D01*
X251941Y107775D01*
X257291Y124242D01*
X259787Y140000D01*
D02*
G37*
G36*
X3369787D02*
X3270000D01*
Y40213D01*
X3285758Y42709D01*
X3302225Y48059D01*
X3317653Y55920D01*
X3331660Y66097D01*
X3343903Y78340D01*
X3354080Y92347D01*
X3361941Y107775D01*
X3367291Y124242D01*
X3369787Y140000D01*
D02*
G37*
G36*
X3250000D02*
X3150213D01*
X3152709Y124242D01*
X3158059Y107775D01*
X3165920Y92347D01*
X3176097Y78340D01*
X3188340Y66097D01*
X3202347Y55920D01*
X3217775Y48059D01*
X3234242Y42709D01*
X3250000Y40213D01*
Y140000D01*
D02*
G37*
G36*
X140000D02*
X40213D01*
X42709Y124242D01*
X48059Y107775D01*
X55920Y92347D01*
X66097Y78340D01*
X78340Y66097D01*
X92347Y55920D01*
X107775Y48059D01*
X124242Y42709D01*
X140000Y40213D01*
Y140000D01*
D02*
G37*
%LPD*%
G36*
X1725000Y2335000D02*
X1660000D01*
Y2300000D01*
X1620000D01*
Y2415000D01*
X1660000D01*
Y2380000D01*
X1710000D01*
Y2425000D01*
X1725000D01*
Y2335000D01*
D02*
G37*
G36*
X1415000D02*
X1350000D01*
Y2300000D01*
X1310000D01*
Y2415000D01*
X1350000D01*
Y2380000D01*
X1400000D01*
Y2425000D01*
X1415000D01*
Y2335000D01*
D02*
G37*
G36*
X1725559Y2328281D02*
X1726967Y2324991D01*
X1709216Y2307240D01*
X1706454Y2303106D01*
X1705483Y2298228D01*
Y2253366D01*
X1704370D01*
Y2185295D01*
X1782255D01*
Y2170870D01*
X1770988Y2159603D01*
X1768225Y2155468D01*
X1767255Y2150591D01*
Y2129528D01*
X1745473D01*
Y2078497D01*
X1705732Y2038756D01*
X1702969Y2034621D01*
X1701999Y2029744D01*
Y2019705D01*
X1699528D01*
Y1951634D01*
X1728126D01*
X1728560Y1949453D01*
X1731323Y1945318D01*
X1741519Y1935122D01*
X1745654Y1932359D01*
X1750531Y1931389D01*
X1778603D01*
X1783480Y1932359D01*
X1787615Y1935122D01*
X1794759Y1942266D01*
X1800157Y1940593D01*
X1800507Y1938711D01*
X1787090Y1925294D01*
X1707360D01*
X1676063Y1956591D01*
Y2001148D01*
X1678067Y2004147D01*
X1679231Y2010000D01*
Y2118382D01*
X1678067Y2124235D01*
X1674751Y2129197D01*
X1619625Y2184323D01*
Y2280036D01*
X1621398Y2281809D01*
X1626003Y2284886D01*
X1635705Y2294588D01*
X1660000D01*
X1660614Y2294843D01*
X1665669D01*
Y2329588D01*
X1724493D01*
X1725559Y2328281D01*
D02*
G37*
G36*
X1710000Y1915000D02*
X1615000D01*
X1662500Y1962500D01*
X1710000Y1915000D01*
D02*
G37*
G36*
X1255000Y290000D02*
X1240000D01*
Y330000D01*
X1100000D01*
Y275000D01*
X1065000D01*
Y355000D01*
X1255000D01*
Y290000D01*
D02*
G37*
%LPC*%
G36*
X1711038Y2174225D02*
Y2158952D01*
X1726311D01*
X1726198Y2159373D01*
X1722644Y2165530D01*
X1717617Y2170557D01*
X1711460Y2174112D01*
X1711038Y2174225D01*
D02*
G37*
G36*
X1691038D02*
X1690617Y2174112D01*
X1684460Y2170557D01*
X1679433Y2165530D01*
X1675878Y2159373D01*
X1675765Y2158952D01*
X1691038D01*
Y2174225D01*
D02*
G37*
G36*
X1726311Y2138952D02*
X1711038D01*
Y2123679D01*
X1711460Y2123792D01*
X1717617Y2127346D01*
X1722644Y2132373D01*
X1726198Y2138530D01*
X1726311Y2138952D01*
D02*
G37*
G36*
X1691038D02*
X1675765D01*
X1675878Y2138530D01*
X1679433Y2132373D01*
X1684460Y2127346D01*
X1690617Y2123792D01*
X1691038Y2123679D01*
Y2138952D01*
D02*
G37*
%LPD*%
G36*
X1845000Y1795000D02*
X1695000D01*
Y1730000D01*
X1655000D01*
Y1835000D01*
X1845000D01*
Y1795000D01*
D02*
G37*
G36*
X1702255Y1696152D02*
X1703225Y1691274D01*
X1705988Y1687140D01*
X1708826Y1684302D01*
Y1677644D01*
X1708800Y1677629D01*
X1702371Y1671200D01*
X1697825Y1663327D01*
X1695473Y1654546D01*
Y1645454D01*
X1697825Y1636673D01*
X1702371Y1628800D01*
X1708800Y1622371D01*
X1716673Y1617825D01*
X1725454Y1615473D01*
X1734546D01*
X1743327Y1617825D01*
X1751200Y1622371D01*
X1754283Y1625454D01*
X1759283Y1623382D01*
Y1612973D01*
X1760253Y1608095D01*
X1763016Y1603960D01*
X1802727Y1564249D01*
Y1535633D01*
X1734623Y1467529D01*
X1731861Y1463395D01*
X1731220Y1460176D01*
X1727538Y1458651D01*
X1721349Y1452462D01*
X1718000Y1444376D01*
Y1435624D01*
X1720996Y1428392D01*
X1718963Y1423392D01*
X1670447D01*
X1625259Y1468580D01*
X1623651Y1472462D01*
X1617462Y1478651D01*
X1609376Y1482000D01*
X1600624D01*
X1598358Y1481061D01*
X1579918Y1499502D01*
X1576610Y1501712D01*
X1572708Y1502488D01*
X1512986D01*
X1503833Y1511640D01*
X1505747Y1516260D01*
X1510748D01*
Y1531736D01*
X1511775Y1533272D01*
X1512745Y1538150D01*
Y1550436D01*
X1517745Y1552507D01*
X1518422Y1551830D01*
X1524578Y1548276D01*
X1525000Y1548163D01*
Y1573436D01*
X1545000D01*
Y1548163D01*
X1545422Y1548276D01*
X1551578Y1551830D01*
X1556605Y1556857D01*
X1560160Y1563014D01*
X1561582Y1568322D01*
X1566593Y1570383D01*
X1570473Y1566504D01*
Y1515473D01*
X1639527D01*
Y1566504D01*
X1656040Y1583016D01*
X1658802Y1587150D01*
X1659773Y1592028D01*
Y1687782D01*
X1658802Y1692659D01*
X1656040Y1696794D01*
X1647745Y1705089D01*
Y1720295D01*
X1702255D01*
Y1696152D01*
D02*
G37*
%LPC*%
G36*
X1764527Y1584527D02*
X1695473D01*
Y1515473D01*
X1764527D01*
Y1584527D01*
D02*
G37*
%LPD*%
G36*
X2615000Y1495000D02*
X2530000D01*
Y905000D01*
X2615000D01*
Y855000D01*
X2505000Y855000D01*
Y1545000D01*
X2615000D01*
Y1495000D01*
D02*
G37*
G36*
X1114608Y1536553D02*
Y1494461D01*
X1107756Y1490505D01*
X1099495Y1482244D01*
X1093654Y1472126D01*
X1090630Y1460841D01*
Y1449159D01*
X1093654Y1437874D01*
X1099495Y1427756D01*
X1107756Y1419495D01*
X1117874Y1413654D01*
X1129159Y1410630D01*
X1140841D01*
X1152126Y1413654D01*
X1153588Y1414498D01*
X1156658Y1410497D01*
X1090217Y1344055D01*
X1088581Y1345000D01*
X1035000D01*
Y1355000D01*
X1025000D01*
Y1405470D01*
X1015184Y1402840D01*
X1003477Y1396081D01*
X998673Y1391276D01*
X994053Y1393190D01*
Y1516810D01*
X998673Y1518724D01*
X1003477Y1513919D01*
X1015184Y1507160D01*
X1025000Y1504530D01*
Y1555000D01*
X1045000D01*
Y1504530D01*
X1054816Y1507160D01*
X1066523Y1513919D01*
X1076081Y1523477D01*
X1082840Y1535184D01*
X1086339Y1548241D01*
Y1557752D01*
X1091339Y1559823D01*
X1114608Y1536553D01*
D02*
G37*
G36*
X2080000Y925000D02*
X1975000D01*
Y975000D01*
X2050000D01*
Y995000D01*
X2080000D01*
Y925000D01*
D02*
G37*
G36*
X1408066Y874515D02*
X1399220Y865669D01*
X1369842D01*
Y814331D01*
X1400434D01*
X1402348Y809711D01*
X1312723Y720086D01*
X1284890D01*
X1280989Y719310D01*
X1277681Y717100D01*
X1181642Y621061D01*
X1179376Y622000D01*
X1170624D01*
X1162538Y618651D01*
X1160412Y616525D01*
X1155412Y618596D01*
Y640500D01*
X1157462Y641349D01*
X1163651Y647538D01*
X1167000Y655624D01*
Y664376D01*
X1163651Y672462D01*
X1157462Y678651D01*
X1155196Y679589D01*
Y697832D01*
X1336498Y879135D01*
X1406153D01*
X1408066Y874515D01*
D02*
G37*
G36*
X2580000Y587500D02*
X2506250Y661250D01*
X2580000Y735000D01*
Y587500D01*
D02*
G37*
G36*
X1255000Y425000D02*
X1410000D01*
Y390000D01*
X1215000D01*
Y525000D01*
X1255000D01*
Y425000D01*
D02*
G37*
%LPC*%
G36*
X1045000Y1405470D02*
Y1365000D01*
X1085470D01*
X1082840Y1374816D01*
X1076081Y1386523D01*
X1066523Y1396081D01*
X1054816Y1402840D01*
X1045000Y1405470D01*
D02*
G37*
G36*
X1275000Y773709D02*
Y758436D01*
X1290273D01*
X1290160Y758857D01*
X1286605Y765014D01*
X1281578Y770041D01*
X1275422Y773596D01*
X1275000Y773709D01*
D02*
G37*
G36*
X1255000D02*
X1254578Y773596D01*
X1248422Y770041D01*
X1243395Y765014D01*
X1239840Y758857D01*
X1239727Y758436D01*
X1255000D01*
Y773709D01*
D02*
G37*
G36*
X1290273Y738436D02*
X1275000D01*
Y723163D01*
X1275422Y723276D01*
X1281578Y726830D01*
X1286605Y731857D01*
X1290160Y738014D01*
X1290273Y738436D01*
D02*
G37*
G36*
X1255000D02*
X1239727D01*
X1239840Y738014D01*
X1243395Y731857D01*
X1248422Y726830D01*
X1254578Y723276D01*
X1255000Y723163D01*
Y738436D01*
D02*
G37*
%LPD*%
D10*
X1145591Y2195000D02*
D03*
X1094409D02*
D03*
X1959409Y2300000D02*
D03*
X2010591D02*
D03*
X1539409Y1285000D02*
D03*
X1590591D02*
D03*
X2025591Y1955000D02*
D03*
X1974409D02*
D03*
X1324409D02*
D03*
X1375591D02*
D03*
X1429409Y1285000D02*
D03*
X1480591D02*
D03*
D11*
X1710000Y1330591D02*
D03*
Y1279409D02*
D03*
X1910000Y1329409D02*
D03*
Y1380591D02*
D03*
X1375000Y1174409D02*
D03*
Y1225591D02*
D03*
X1650000Y1279409D02*
D03*
Y1330591D02*
D03*
D12*
X1781457Y1330000D02*
D03*
X1838543D02*
D03*
X1826457Y1945000D02*
D03*
X1883543D02*
D03*
X1523543D02*
D03*
X1466457D02*
D03*
X3008543Y1220000D02*
D03*
X2951457D02*
D03*
X3008543Y1620000D02*
D03*
X2951457D02*
D03*
X3008543Y1540000D02*
D03*
X2951457D02*
D03*
X3008543Y1300000D02*
D03*
X2951457D02*
D03*
X2651457D02*
D03*
X2708543D02*
D03*
X2651457Y1620000D02*
D03*
X2708543D02*
D03*
X2651457Y340000D02*
D03*
X2708543D02*
D03*
X3008543Y660000D02*
D03*
X2951457D02*
D03*
X3008543Y580000D02*
D03*
X2951457D02*
D03*
X2651457Y980000D02*
D03*
X2708543D02*
D03*
X3008543Y900000D02*
D03*
X2951457D02*
D03*
X3008543Y980000D02*
D03*
X2951457D02*
D03*
X2651457Y660000D02*
D03*
X2708543D02*
D03*
X3008543Y260000D02*
D03*
X2951457D02*
D03*
X3008543Y340000D02*
D03*
X2951457D02*
D03*
X2678543Y2015000D02*
D03*
X2621457D02*
D03*
X2678543Y2255000D02*
D03*
X2621457D02*
D03*
X543543Y965000D02*
D03*
X486457D02*
D03*
X1998543Y1175000D02*
D03*
X1941457D02*
D03*
X1131457Y920000D02*
D03*
X1188543D02*
D03*
X1131457Y835000D02*
D03*
X1188543D02*
D03*
X1883543Y1815000D02*
D03*
X1826457D02*
D03*
X1941457Y760000D02*
D03*
X1998543D02*
D03*
Y845000D02*
D03*
X1941457D02*
D03*
X1336457Y840000D02*
D03*
X1393543D02*
D03*
X1336457Y920000D02*
D03*
X1393543D02*
D03*
X1336457Y1005000D02*
D03*
X1393543D02*
D03*
X1998543Y1090000D02*
D03*
X1941457D02*
D03*
X1026457Y280000D02*
D03*
X1083543D02*
D03*
X786457Y485000D02*
D03*
X843543D02*
D03*
X786457Y565000D02*
D03*
X843543D02*
D03*
X786457Y885000D02*
D03*
X843543D02*
D03*
X786457Y965000D02*
D03*
X843543D02*
D03*
X543543Y565000D02*
D03*
X486457D02*
D03*
D13*
X1585433Y1985669D02*
D03*
X1611024D02*
D03*
X1636614D02*
D03*
X1662205D02*
D03*
X1687795D02*
D03*
X1713386D02*
D03*
X1738976D02*
D03*
X1764567D02*
D03*
Y1754331D02*
D03*
X1738976D02*
D03*
X1713386D02*
D03*
X1687795D02*
D03*
X1662205D02*
D03*
X1636614D02*
D03*
X1611024D02*
D03*
X1585433D02*
D03*
X1408228Y2219331D02*
D03*
X1433819D02*
D03*
X1459409D02*
D03*
X1485000D02*
D03*
X1510591D02*
D03*
X1536181D02*
D03*
X1561772D02*
D03*
Y2450669D02*
D03*
X1536181D02*
D03*
X1510591D02*
D03*
X1485000D02*
D03*
X1459409D02*
D03*
X1433819D02*
D03*
X1408228D02*
D03*
X1718228Y2219331D02*
D03*
X1743819D02*
D03*
X1769409D02*
D03*
X1795000D02*
D03*
X1820591D02*
D03*
X1846181D02*
D03*
X1871772D02*
D03*
Y2450669D02*
D03*
X1846181D02*
D03*
X1820591D02*
D03*
X1795000D02*
D03*
X1769409D02*
D03*
X1743819D02*
D03*
X1718228D02*
D03*
X1324567Y495669D02*
D03*
X1298976D02*
D03*
X1273386D02*
D03*
X1247795D02*
D03*
X1222205D02*
D03*
X1196614D02*
D03*
X1171024D02*
D03*
X1145433D02*
D03*
Y264331D02*
D03*
X1171024D02*
D03*
X1196614D02*
D03*
X1222205D02*
D03*
X1247795D02*
D03*
X1273386D02*
D03*
X1298976D02*
D03*
X1324567D02*
D03*
D14*
X2775866Y1627402D02*
D03*
Y1590000D02*
D03*
Y1552599D02*
D03*
X2884134D02*
D03*
Y1627402D02*
D03*
X2775866Y1307402D02*
D03*
Y1270000D02*
D03*
Y1232599D02*
D03*
X2884134D02*
D03*
Y1307402D02*
D03*
X2775866Y667402D02*
D03*
Y630000D02*
D03*
Y592598D02*
D03*
X2884134D02*
D03*
Y667402D02*
D03*
X2775866Y987402D02*
D03*
Y950000D02*
D03*
Y912598D02*
D03*
X2884134D02*
D03*
Y987402D02*
D03*
X2775866Y347402D02*
D03*
Y310000D02*
D03*
Y272599D02*
D03*
X2884134D02*
D03*
Y347402D02*
D03*
X719134Y972402D02*
D03*
Y897598D02*
D03*
X610866D02*
D03*
Y935000D02*
D03*
Y972402D02*
D03*
X719134Y572402D02*
D03*
Y497599D02*
D03*
X610866D02*
D03*
Y535000D02*
D03*
Y572402D02*
D03*
D15*
X1940000Y1643543D02*
D03*
Y1586457D02*
D03*
X1395000Y1643543D02*
D03*
Y1586457D02*
D03*
X1725000Y2531457D02*
D03*
Y2588543D02*
D03*
X1415000Y2531457D02*
D03*
Y2588543D02*
D03*
X1590000Y706457D02*
D03*
Y763543D02*
D03*
X1675000Y706457D02*
D03*
Y763543D02*
D03*
X1760000Y706457D02*
D03*
Y763543D02*
D03*
X2080000Y1143543D02*
D03*
Y1086457D02*
D03*
X1330000Y2318543D02*
D03*
Y2261457D02*
D03*
Y2396457D02*
D03*
Y2453543D02*
D03*
X1640000Y2318543D02*
D03*
Y2261457D02*
D03*
Y2396457D02*
D03*
Y2453543D02*
D03*
X1390000Y403543D02*
D03*
Y346457D02*
D03*
X1080000Y413543D02*
D03*
Y356457D02*
D03*
X2260000Y1003543D02*
D03*
Y946457D02*
D03*
D16*
X1815472Y1537992D02*
D03*
X1835158D02*
D03*
X1854842D02*
D03*
X1874528D02*
D03*
Y1662008D02*
D03*
X1854842D02*
D03*
X1835158D02*
D03*
X1815472D02*
D03*
X1460472Y1537992D02*
D03*
X1480158D02*
D03*
X1499842D02*
D03*
X1519528D02*
D03*
Y1662008D02*
D03*
X1499842D02*
D03*
X1480158D02*
D03*
X1460472D02*
D03*
D17*
X2065630Y930000D02*
D03*
X2194370D02*
D03*
Y1005000D02*
D03*
X2065630D02*
D03*
D18*
X1551575Y897126D02*
D03*
X1571260D02*
D03*
X1590945D02*
D03*
X1610630D02*
D03*
X1630315D02*
D03*
X1650000D02*
D03*
X1669685D02*
D03*
X1689370D02*
D03*
X1709055D02*
D03*
X1728740D02*
D03*
X1748425D02*
D03*
Y1162874D02*
D03*
X1728740D02*
D03*
X1709055D02*
D03*
X1689370D02*
D03*
X1669685D02*
D03*
X1650000D02*
D03*
X1630315D02*
D03*
X1610630D02*
D03*
X1590945D02*
D03*
X1571260D02*
D03*
X1551575D02*
D03*
D19*
X1782874Y931575D02*
D03*
Y951260D02*
D03*
Y970945D02*
D03*
Y990630D02*
D03*
Y1010315D02*
D03*
Y1030000D02*
D03*
Y1049685D02*
D03*
Y1069370D02*
D03*
Y1089055D02*
D03*
Y1108740D02*
D03*
Y1128425D02*
D03*
X1517126D02*
D03*
Y1108740D02*
D03*
Y1089055D02*
D03*
Y1069370D02*
D03*
Y1049685D02*
D03*
Y1030000D02*
D03*
Y1010315D02*
D03*
Y990630D02*
D03*
Y970945D02*
D03*
Y951260D02*
D03*
Y931575D02*
D03*
D20*
X1650000Y1030000D02*
D03*
D21*
X1221109Y2195000D02*
X1265814Y2150295D01*
X1145591Y2195000D02*
X1221109D01*
X1265814Y2150295D02*
X1425000D01*
X1095000Y2195000D02*
Y2197362D01*
X885000Y2368254D02*
X1054553Y2198701D01*
X1093661D01*
X1095000Y2197362D01*
X885000Y2368254D02*
Y2455000D01*
X2010000Y2297638D02*
Y2300000D01*
X2013976Y2293661D02*
X2140407D01*
X2215000Y2368254D02*
Y2455000D01*
X2140407Y2293661D02*
X2215000Y2368254D01*
X2010000Y2297638D02*
X2013976Y2293661D01*
X1448543Y1643543D02*
X1470000Y1665000D01*
X1395000Y1643543D02*
X1448543D01*
X2355000Y1255000D02*
X2450000Y1160000D01*
X2265000Y1255000D02*
X2355000D01*
X1850000Y843918D02*
X1875000Y818918D01*
Y545000D02*
Y818918D01*
X1850000Y843918D02*
Y845000D01*
X2110000Y425000D02*
X2175000D01*
X2240000Y490000D01*
X1830398Y375000D02*
X2335000D01*
X1775000Y325000D02*
X1780398D01*
X1830398Y375000D01*
X605000Y786082D02*
X610866Y791948D01*
X605000Y785000D02*
Y786082D01*
X610866Y791948D02*
Y894409D01*
X1870000Y320000D02*
X1875000Y325000D01*
Y445000D02*
X2050000D01*
X2173660Y568660D01*
X2415000Y880000D02*
X2515000D01*
X2310000Y775000D02*
X2415000Y880000D01*
X2780000Y1900000D02*
X2824528Y1944528D01*
Y2439130D01*
X2775000Y2488657D02*
X2824528Y2439130D01*
X2775000Y2488657D02*
Y2495000D01*
X2590000Y660000D02*
Y760000D01*
Y560000D02*
Y660000D01*
X1982913D02*
X2590000D01*
X1941457Y701457D02*
X1982913Y660000D01*
X1941457Y701457D02*
Y760000D01*
X1940000Y1643543D02*
X2607346D01*
X2683802Y1720000D01*
X1810000Y1805000D02*
X1811666Y1803334D01*
Y1707425D02*
Y1803334D01*
X1940000Y1643543D02*
Y1720000D01*
X1662000Y1403000D02*
X1761918D01*
X1605000Y1460000D02*
X1662000Y1403000D01*
X1761918D02*
X1798918Y1440000D01*
X1800000D01*
X1812432Y1697568D02*
Y1706660D01*
X1811666Y1707425D02*
X1812432Y1706660D01*
Y1697568D02*
X1825000Y1685000D01*
Y1670000D02*
Y1685000D01*
X1395000Y1643543D02*
Y1720000D01*
X2683802D02*
X2690000D01*
X900000Y785000D02*
Y1065000D01*
X2590000Y240000D02*
Y440000D01*
Y1200000D02*
Y1400000D01*
X1538661Y1286339D02*
X1540000Y1285000D01*
X635000Y1955000D02*
X770000D01*
X975000Y1750000D02*
X1126746D01*
X770000Y1955000D02*
X975000Y1750000D01*
X820000Y1340000D02*
Y1556746D01*
Y1340000D02*
X934409Y1225591D01*
X1374409D01*
X760407Y1616339D02*
X820000Y1556746D01*
X709593Y1616339D02*
X760407D01*
X635000Y1541746D02*
X709593Y1616339D01*
X635000Y1455000D02*
Y1541746D01*
X1068661Y1293661D02*
X1191339Y1416339D01*
X1360804D01*
X1480000Y1297142D01*
Y1290000D02*
Y1297142D01*
X973661Y1329593D02*
X1009593Y1293661D01*
X1068661D01*
X973661Y1329593D02*
Y1580407D01*
X1004127Y1610873D01*
X1005873D01*
X1011339Y1616339D01*
X1063661D01*
X1135000Y1545000D01*
Y1455000D02*
Y1545000D01*
X1538661Y1286339D02*
Y1338084D01*
X1126746Y1750000D02*
X1538661Y1338084D01*
X1838543Y1330000D02*
X1959528D01*
X2084528Y1455000D02*
X2210000D01*
X1959528Y1330000D02*
X2084528Y1455000D01*
X2025591Y1955000D02*
X2215000D01*
X2025000D02*
X2025591D01*
X1324409D02*
X1325000D01*
X1135000D02*
X1324409D01*
D22*
X1960000Y2300000D02*
Y2302362D01*
X1769409Y2219331D02*
Y2286129D01*
X1807781Y2324500D01*
X1937862D01*
X1960000Y2302362D01*
X1743819Y2293819D02*
X1830000Y2380000D01*
X2015000D01*
X1969859Y2435000D02*
X1970000D01*
X1820000Y2400000D02*
X1934859D01*
X1969859Y2435000D01*
X1718228Y2298228D02*
X1820000Y2400000D01*
Y2295000D02*
X1820295Y2294705D01*
Y2219626D02*
X1820591Y2219331D01*
X1820295Y2219626D02*
Y2294705D01*
X1430548Y2157795D02*
X1458051Y2185298D01*
Y2217972D01*
X1459409Y2219331D01*
X2037028Y2657028D02*
X2792408D01*
X1910000Y2530000D02*
X2037028Y2657028D01*
X2819436Y2630000D02*
X2860000D01*
X2792408Y2657028D02*
X2819436Y2630000D01*
X2860000D02*
X2875000Y2615000D01*
X1545000Y1610000D02*
X1605000Y1550000D01*
X1609665Y1714101D02*
Y1744665D01*
X1562972Y1667408D02*
X1609665Y1714101D01*
X1460472Y1595472D02*
X1495305Y1630305D01*
X1528140D02*
X1562972Y1665138D01*
X1508787Y1610000D02*
X1545000D01*
X1500000Y1601213D02*
X1508787Y1610000D01*
X1500000Y1538150D02*
Y1601213D01*
X1495305Y1630305D02*
X1528140D01*
X1562972Y1665138D02*
Y1667408D01*
X1460472Y1537992D02*
Y1595472D01*
X1549941Y1700059D02*
X1550000Y1700000D01*
X1519528Y1669646D02*
X1549941Y1700059D01*
X1743819Y2219331D02*
Y2293819D01*
X1818425Y970000D02*
X1941457Y846968D01*
X1902500Y800925D02*
X1940000Y763425D01*
X1902500Y800925D02*
Y848974D01*
X1803462Y948012D02*
X1902500Y848974D01*
X2376457Y1086457D02*
X2450000Y1160000D01*
X2080000Y1086457D02*
X2376457D01*
X1972658Y1056831D02*
X2048405D01*
X1941457Y1088032D02*
Y1090000D01*
Y1088032D02*
X1972658Y1056831D01*
X2048405D02*
X2075000Y1083425D01*
Y1085000D01*
X1847336Y1089055D02*
X1857781Y1099500D01*
X1782874Y1089055D02*
X1847336D01*
X1857781Y1099500D02*
X1935500D01*
X1940000Y1095000D01*
X1590386Y2565000D02*
X1665000D01*
X1940000Y760000D02*
Y763425D01*
X1740000Y1440000D02*
X1743635Y1443635D01*
Y1458517D01*
X1815472Y1530354D01*
Y1569528D01*
X1854921Y1440079D02*
X1855000Y1440000D01*
X1854842Y1537992D02*
X1854921Y1537913D01*
Y1440079D02*
Y1537913D01*
X1854842Y1537992D02*
Y1582322D01*
X1461752Y1514554D02*
X1531306Y1445000D01*
X1461752Y1514554D02*
Y1536713D01*
X1531306Y1445000D02*
X1535000D01*
X1460472Y1537992D02*
X1461752Y1536713D01*
X1499842Y1537992D02*
X1500000Y1538150D01*
X1455000Y894902D02*
Y927687D01*
X1440098Y880000D02*
X1455000Y894902D01*
X1440000Y880000D02*
X1440098D01*
X1425320Y873745D02*
X1438984D01*
X1442620Y877380D01*
X1396575Y845000D02*
X1425320Y873745D01*
X1460000Y995000D02*
Y995619D01*
X1491133Y1026752D01*
X1513878D01*
X1517126Y1030000D01*
X1456055Y984480D02*
Y991674D01*
X1459690Y995310D01*
X1393543Y920000D02*
Y921968D01*
X1456055Y984480D01*
X1782874Y1030000D02*
X1895000D01*
X1975000Y950000D01*
X1790945Y970000D02*
X1818425D01*
X1786122Y948012D02*
X1803462D01*
X1782874Y951260D02*
X1786122Y948012D01*
X1941457Y845000D02*
Y846968D01*
X1498258Y970945D02*
X1517126D01*
X1455000Y927687D02*
X1498258Y970945D01*
X1718228Y2219331D02*
Y2298228D01*
X1277205Y2177795D02*
X1422264D01*
X1175000Y2280000D02*
X1277205Y2177795D01*
X1422264D02*
X1432461Y2187992D01*
Y2217972D01*
X1433819Y2219331D01*
X1300669D02*
X1408228D01*
X1240000Y2280000D02*
X1300669Y2219331D01*
X1510295Y2219626D02*
Y2299705D01*
X1510000Y2300000D02*
X1510295Y2299705D01*
Y2219626D02*
X1510591Y2219331D01*
X1725000Y2533425D02*
X1743819Y2514606D01*
X1725000Y2533425D02*
Y2535000D01*
X1743819Y2450669D02*
Y2514606D01*
X1415000Y2530000D02*
X1418425D01*
X1433819Y2450669D02*
Y2514606D01*
X1418425Y2530000D02*
X1433819Y2514606D01*
X1738976Y1748976D02*
X1740000Y1750000D01*
X1772028Y1612973D02*
X1815472Y1569528D01*
X1772028Y1612973D02*
Y1667408D01*
X1797067Y1640098D02*
Y1670653D01*
Y1640098D02*
X1854842Y1582322D01*
X1874528Y1662008D02*
X1874764Y1661772D01*
Y1620236D02*
Y1661772D01*
Y1620236D02*
X1875000Y1620000D01*
X1715000Y1696152D02*
Y1755000D01*
X1549941Y1700059D02*
X1582677Y1732795D01*
X1805608Y2046888D02*
X1831888D01*
X1764567Y1985669D02*
Y2005847D01*
X1805608Y2046888D01*
X1831888D02*
X1880000Y2095000D01*
X1635000Y1990000D02*
Y2030000D01*
X1570000Y2095000D02*
X1635000Y2030000D01*
X1585433Y1985669D02*
Y2005847D01*
X1518307Y2072972D02*
X1585433Y2005847D01*
X1492028Y2072972D02*
X1518307D01*
X1470000Y2095000D02*
X1492028Y2072972D01*
X1470000Y2095000D02*
Y2150591D01*
X1485000Y2165591D01*
Y2215000D01*
X1775000Y2090000D02*
X1780000D01*
X1795000Y2219331D02*
Y2220000D01*
Y2165591D02*
Y2219331D01*
X1780000Y2095000D02*
Y2150591D01*
X1795000Y2165591D01*
X1713386Y1985669D02*
X1714744Y1987028D01*
Y2029744D01*
X1775000Y2090000D01*
X1375000Y1955000D02*
Y1957362D01*
X1395807Y1978169D02*
X1547422D01*
X1559409Y1956122D02*
Y1966182D01*
Y1956122D02*
X1571397Y1944134D01*
X1599469D01*
X1547422Y1978169D02*
X1559409Y1966182D01*
X1599469Y1944134D02*
X1609665Y1954330D01*
Y1984311D01*
X1611024Y1985669D01*
X1375000Y1957362D02*
X1395807Y1978169D01*
X1975000Y1955000D02*
Y1957362D01*
X1802578Y1978169D02*
X1954193D01*
X1790591Y1966182D02*
X1802578Y1978169D01*
X1778603Y1944134D02*
X1790591Y1956122D01*
X1750531Y1944134D02*
X1778603D01*
X1954193Y1978169D02*
X1975000Y1957362D01*
X1740335Y1954330D02*
X1750531Y1944134D01*
X1790591Y1956122D02*
Y1966182D01*
X1740335Y1954330D02*
Y1984311D01*
X1738976Y1985669D02*
X1740335Y1984311D01*
X1610315Y1163189D02*
X1610630Y1162874D01*
X1610315Y1163189D02*
Y1224685D01*
X1610000Y1225000D02*
X1610315Y1224685D01*
X1650295Y1330295D02*
X1784705D01*
X1785000Y1330000D01*
X1650000Y1330591D02*
X1650295Y1330295D01*
X1764567Y1703153D02*
X1797067Y1670653D01*
X1764567Y1703153D02*
Y1754331D01*
X1584075Y1732795D02*
X1585000Y1733720D01*
Y1750000D01*
X1519528Y1662008D02*
Y1669646D01*
X1582677Y1732795D02*
X1584075D01*
X1605000Y1550000D02*
X1647028Y1592028D01*
Y1687782D01*
X1635000Y1699810D02*
Y1755000D01*
Y1699810D02*
X1647028Y1687782D01*
X1721571Y1658429D02*
X1730000Y1650000D01*
X1721571Y1658429D02*
Y1689581D01*
X1715000Y1696152D02*
X1721571Y1689581D01*
X1738976Y1700460D02*
Y1748976D01*
Y1700460D02*
X1772028Y1667408D01*
X1689685Y1163189D02*
Y1224685D01*
X1690000Y1225000D01*
X1689370Y1162874D02*
X1689685Y1163189D01*
X1650000Y1279409D02*
Y1280000D01*
Y1162874D02*
Y1279409D01*
X2390000Y2895000D02*
X2520000Y2765000D01*
X2914870D02*
X2997028Y2682842D01*
X2520000Y2765000D02*
X2914870D01*
X2290000Y2895000D02*
X2440000Y2745000D01*
X2906585D02*
X2977028Y2674558D01*
X2440000Y2745000D02*
X2906585D01*
X2360000Y2725000D02*
X2898301D01*
X2190000Y2895000D02*
X2360000Y2725000D01*
X2898301D02*
X2957028Y2666274D01*
X2875000Y2015000D02*
X2997028Y2137028D01*
Y2682842D01*
X2957028Y2337028D02*
Y2666274D01*
X2977028Y2237028D02*
Y2674558D01*
X2875000Y2135000D02*
X2977028Y2237028D01*
X2890017Y2705000D02*
X2937028Y2657989D01*
Y2437028D02*
Y2657989D01*
X2200000Y2685000D02*
X2881733D01*
X2280000Y2705000D02*
X2890017D01*
X2917028Y2537028D02*
Y2649705D01*
X2881733Y2685000D02*
X2917028Y2649705D01*
X1990000Y2895000D02*
X2200000Y2685000D01*
X2090000Y2895000D02*
X2280000Y2705000D01*
X2875000Y2255000D02*
X2957028Y2337028D01*
X2875000Y2375000D02*
X2937028Y2437028D01*
X2875000Y2495000D02*
X2917028Y2537028D01*
X2678543Y2015000D02*
X2775000D01*
X2678543Y2255000D02*
X2775000D01*
D23*
X1914528Y2855472D02*
X2045000Y2725000D01*
X265000Y410000D02*
X540000Y135000D01*
X265000Y2770000D02*
X390000Y2895000D01*
X265000Y410000D02*
Y2770000D01*
X290000Y420000D02*
Y2695000D01*
Y420000D02*
X550000Y160000D01*
X290000Y2695000D02*
X490000Y2895000D01*
X315000Y2620000D02*
X590000Y2895000D01*
X315000Y430000D02*
X560000Y185000D01*
X315000Y430000D02*
Y2620000D01*
X340000Y440000D02*
X570000Y210000D01*
X340000Y2590208D02*
X558319Y2808527D01*
X340000Y440000D02*
Y2590208D01*
X540000Y135000D02*
X1221682D01*
X550000Y160000D02*
X1221091D01*
X560000Y185000D02*
X1220501D01*
X570000Y210000D02*
X1143138D01*
X1221682Y135000D02*
X1320709Y234027D01*
X1221091Y160000D02*
X1295118Y234027D01*
X1220501Y185000D02*
X1269527Y234027D01*
X1143138Y210000D02*
X1167165Y234027D01*
X1141575Y239893D02*
Y260472D01*
X1145433Y264331D01*
X582767Y234036D02*
X1135717D01*
X365472Y451330D02*
X582767Y234036D01*
X1135717D02*
X1141575Y239893D01*
X1790428Y2894572D02*
X1844614D01*
X1873627Y2855472D02*
X1914528D01*
X1844614Y2894572D02*
X1850472Y2888714D01*
Y2878627D02*
X1873627Y2855472D01*
X1850472Y2878627D02*
Y2888714D01*
X1790000Y2895000D02*
X1790428Y2894572D01*
X1550512Y892433D02*
X1551575Y893496D01*
X1510000Y865000D02*
X1537433Y892433D01*
X1510000Y785000D02*
Y865000D01*
X1551575Y893496D02*
Y897126D01*
X1537433Y892433D02*
X1550512D01*
X1845060Y1049685D02*
X1865375Y1070000D01*
X1870000D01*
X1575000Y2705000D02*
X1675000D01*
X1769705Y2610295D01*
X1740000Y2785000D02*
X1742000Y2783000D01*
X1820591Y2450669D02*
Y2704409D01*
X1790000Y2735000D02*
X1820591Y2704409D01*
X1846181Y2450669D02*
X1848091Y2452579D01*
Y2673090D02*
X1850000Y2675000D01*
X1742000Y2659213D02*
Y2783000D01*
X1871772Y2581772D02*
X1905000Y2615000D01*
X1848091Y2452579D02*
Y2673090D01*
X1871772Y2450669D02*
Y2581772D01*
X1742000Y2659213D02*
X1795000Y2606213D01*
Y2450669D02*
Y2606213D01*
X1898632Y3480000D02*
X2255000D01*
X1535472Y2884572D02*
Y3116840D01*
X1898632Y3480000D01*
X1573846Y3134000D02*
X1574000D01*
X1880000Y3440000D01*
X1551000Y3111154D02*
X1573846Y3134000D01*
X1563386Y2452284D02*
Y2633386D01*
X1565000Y2635000D01*
X1561772Y2450669D02*
X1563386Y2452284D01*
X1536181Y2450669D02*
Y2864068D01*
X1550472Y2878359D01*
X1510591Y2450669D02*
Y2859690D01*
X1535472Y2884572D01*
X1550472Y3110472D02*
X1551000Y3111000D01*
Y3111154D01*
X1550472Y2878359D02*
Y3110472D01*
X1880000Y3440000D02*
X2120000D01*
X1854921Y1662087D02*
Y1749921D01*
X1855000Y1750000D01*
X1495174Y1717573D02*
Y1749826D01*
X1499921Y1662087D02*
Y1712826D01*
X1495174Y1717573D02*
X1499921Y1712826D01*
X1835158Y1475158D02*
Y1537992D01*
X1800000Y1440000D02*
X1835158Y1475158D01*
X1572708Y1492292D02*
X1605000Y1460000D01*
X1508763Y1492292D02*
X1572708D01*
X1481063Y1519992D02*
Y1537087D01*
X1480158Y1537992D02*
X1481063Y1537087D01*
Y1519992D02*
X1508763Y1492292D01*
X1941457Y1176968D02*
X1974488Y1210000D01*
X1941457Y1175000D02*
Y1176968D01*
X1974488Y1210000D02*
X2075000D01*
X1284890Y709890D02*
X1316946D01*
X1472500Y865444D02*
Y920438D01*
X1316946Y709890D02*
X1472500Y865444D01*
X1075000Y1060000D02*
X1185189Y949811D01*
Y923355D02*
Y949811D01*
Y923355D02*
X1188543Y920000D01*
X1254822Y949822D02*
Y998091D01*
X1225000Y920000D02*
X1254822Y949822D01*
X1190000Y920000D02*
X1225000D01*
X1188543D02*
X1190000D01*
X1188543Y836968D02*
X1269822Y918248D01*
X1159842Y804331D02*
X1195000Y839488D01*
X1015000Y865000D02*
X1075669Y804331D01*
X1159842D01*
X1195000Y839488D02*
Y840000D01*
X1015000Y865000D02*
Y1005000D01*
X1269822Y991878D02*
X1402945Y1125000D01*
X1269822Y918248D02*
Y991878D01*
X1402945Y1125000D02*
X1515000D01*
X1254822Y998091D02*
X1399093Y1142362D01*
X1538597D01*
X1710000Y595000D02*
X1790669Y675669D01*
Y888371D01*
X1405000Y595000D02*
X1710000D01*
X1437500Y910444D02*
Y934936D01*
X1416386Y889331D02*
X1437500Y910444D01*
X1332275Y889331D02*
X1416386D01*
X1590945Y770000D02*
Y897126D01*
X1340000Y615000D02*
X1510000Y785000D01*
X1298976Y573976D02*
X1340000Y615000D01*
X1782874Y1049685D02*
X1845060D01*
X1783937Y989567D02*
X1870433D01*
X1782874Y990630D02*
X1783937Y989567D01*
X1870433D02*
X1875000Y985000D01*
X1856931Y1128425D02*
X1863506Y1135000D01*
X1870000D01*
X1782874Y1128425D02*
X1856931D01*
X1783270Y1255000D02*
X1785000D01*
X1709055Y1180785D02*
X1783270Y1255000D01*
X1709055Y1162874D02*
Y1180785D01*
X1670000Y1148755D02*
Y1150000D01*
Y1148755D02*
X1683597Y1135157D01*
X1756117D01*
X1795959Y1175000D01*
X1941457D01*
X1765000Y1010000D02*
X1780000D01*
X1755157Y1000157D02*
X1765000Y1010000D01*
X1755157Y923883D02*
Y1000157D01*
Y923883D02*
X1790669Y888371D01*
X1487500Y857500D02*
Y907500D01*
X1270000Y640000D02*
X1487500Y857500D01*
Y907500D02*
X1510000Y930000D01*
X1437500Y934936D02*
X1493194Y990630D01*
X1517126D01*
X1503322Y951260D02*
X1517126D01*
X1472500Y920438D02*
X1503322Y951260D01*
X1175000Y600000D02*
X1284890Y709890D01*
X1145000Y702056D02*
X1332275Y889331D01*
X1145000Y660000D02*
Y702056D01*
X1145217Y495886D02*
X1145433Y495669D01*
X1145217Y495886D02*
Y659783D01*
X1145000Y660000D02*
X1145217Y659783D01*
X1173012Y497658D02*
Y598012D01*
X1171024Y495669D02*
X1173012Y497658D01*
Y598012D02*
X1175000Y600000D01*
X1298976Y495669D02*
Y573976D01*
X1324567Y515846D02*
X1403720Y595000D01*
X1405000D01*
X1324567Y495669D02*
Y515846D01*
X1270000Y640000D02*
X1271693Y638307D01*
Y497362D02*
Y638307D01*
Y497362D02*
X1273386Y495669D01*
X1769705Y2450965D02*
Y2610295D01*
X1769409Y2450669D02*
X1769705Y2450965D01*
X1250472Y2878627D02*
X1485000Y2644100D01*
Y2450669D02*
Y2644100D01*
X1459409Y2450669D02*
Y2648477D01*
X1485000Y2449868D02*
Y2450669D01*
X1483032Y2447900D02*
X1485000Y2449868D01*
X1235472Y2872414D02*
X1459409Y2648477D01*
X1163370Y2998743D02*
X1250472Y2911641D01*
X1157157Y2983743D02*
X1235472Y2905428D01*
X831102Y2998743D02*
X1163370D01*
X729000Y3079633D02*
X824889Y2983743D01*
X744000Y3085846D02*
X831102Y2998743D01*
X824889Y2983743D02*
X1157157D01*
X1235472Y2872414D02*
Y2905428D01*
X729000Y3079633D02*
Y3356000D01*
X1250472Y2878627D02*
Y2911641D01*
X490000Y3616213D02*
X744000Y3362213D01*
Y3085846D02*
Y3362213D01*
X490000Y3616213D02*
Y3695000D01*
X390000D02*
X729000Y3356000D01*
X1499842Y1662008D02*
X1499921Y1662087D01*
X1854842Y1662008D02*
X1854921Y1662087D01*
X1590945Y1175591D02*
Y1202520D01*
X1550158Y1243307D02*
X1590945Y1202520D01*
X1550158Y1243307D02*
Y1274252D01*
X1480591Y1282047D02*
X1570000Y1192638D01*
X1539409Y1285000D02*
X1550158Y1274252D01*
X1570000Y1165000D02*
Y1192638D01*
X1480591Y1282047D02*
Y1285000D01*
X1375000Y1225000D02*
X1444902D01*
X1507028Y1162874D02*
X1551575D01*
X1444902Y1225000D02*
X1507028Y1162874D01*
X1538597Y1142362D02*
X1545802Y1135157D01*
X1616403D01*
X1188543Y835000D02*
Y836968D01*
X1624567Y1145472D02*
X1630315Y1151220D01*
X1624567Y1143322D02*
Y1145472D01*
X1616403Y1135157D02*
X1624567Y1143322D01*
X1630315Y1151220D02*
Y1162874D01*
X365472Y2549259D02*
Y2594467D01*
X558319Y2808527D02*
X603527D01*
X365472Y2594467D02*
X564533Y2793527D01*
X688527D01*
X365472Y451330D02*
Y2549259D01*
X603527Y2808527D02*
X689572Y2894572D01*
X688527Y2793527D02*
X790000Y2895000D01*
X1320709Y234027D02*
Y260472D01*
X1324567Y264331D01*
X1295118Y234027D02*
Y245118D01*
X1300000Y250000D01*
X1269527Y234027D02*
Y260472D01*
X1273386Y264331D01*
X1167165Y234027D02*
Y247165D01*
X1170000Y250000D01*
D24*
X2885945Y1625591D02*
X2954409D01*
X1696466Y2153524D02*
X1698524D01*
X1700000Y2155000D01*
X2420000Y500000D02*
X2720000D01*
X2708543Y1300000D02*
X2797399D01*
X2708543Y660000D02*
X2797399D01*
X2775866Y1230000D02*
X2787399D01*
X2775000Y595000D02*
X2792399D01*
X2708543Y340000D02*
X2797399D01*
X2775866Y270000D02*
X2787399D01*
X543543Y965000D02*
X632399D01*
X610000Y895000D02*
X622399D01*
X800000Y665000D02*
X895000D01*
X1110000Y450000D02*
X1230000D01*
X895000Y665000D02*
X1110000Y450000D01*
X800000Y580512D02*
Y665000D01*
X786457Y563032D02*
Y565000D01*
X780591Y570591D02*
X785000Y575000D01*
X699055Y355000D02*
X1075000D01*
X584528Y469528D02*
X699055Y355000D01*
X2420000Y180000D02*
X2710000D01*
X2775000Y245000D01*
Y1205000D02*
Y1231732D01*
X2575000Y1030000D02*
X2669528Y1124528D01*
X2694528D01*
X2775000Y1205000D01*
Y1231732D02*
X2775866Y1232599D01*
X2775000Y245000D02*
Y271732D01*
X2775866Y272599D01*
X2720000Y500000D02*
X2775000Y555000D01*
Y591732D01*
X2775866Y592598D01*
X2255000Y943425D02*
Y945000D01*
X2260000D02*
X2348000D01*
X2483000Y1080000D01*
X2194370Y930000D02*
X2241575D01*
X2255000Y943425D01*
X2708543Y1620000D02*
X2797399D01*
X1849842Y1918118D02*
Y1919646D01*
X2087417Y1680543D02*
X2580000D01*
X1826457Y1943032D02*
X1849842Y1919646D01*
Y1918118D02*
X2087417Y1680543D01*
X1793425Y1910000D02*
X1826457Y1943032D01*
Y1945000D01*
X1523543Y1943032D02*
X1556575Y1910000D01*
X1793425D01*
X1615188Y2295700D02*
X1638032Y2318543D01*
X1613660Y2295700D02*
X1615188D01*
X1604331Y2286371D02*
X1613660Y2295700D01*
X1604331Y2177988D02*
X1663937Y2118382D01*
X1638032Y2318543D02*
X1640000D01*
X1604331Y2177988D02*
Y2286371D01*
X1663937Y2010000D02*
Y2118382D01*
X1523543Y1943032D02*
Y1945000D01*
X1450000Y1065000D02*
X1473307Y1088307D01*
X1402244Y1017244D02*
X1450000Y1065000D01*
X1473307Y1088307D02*
X1509409D01*
X1402244Y1015669D02*
Y1017244D01*
X1395000Y1008425D02*
X1402244Y1015669D01*
X1676968Y763543D02*
X1699812Y740700D01*
X1701340D01*
X1710669Y731371D01*
Y640669D02*
Y731371D01*
X1710000Y640000D02*
X1710669Y640669D01*
X1675000Y763543D02*
X1676968D01*
X1707679Y813896D02*
X1758032Y763543D01*
X1707679Y813896D02*
Y832321D01*
X1709055Y842843D02*
Y897126D01*
X1705000Y835000D02*
X1707679Y832321D01*
X1705000Y835000D02*
Y838788D01*
X1709055Y842843D01*
X1630000Y835000D02*
X1632679Y832321D01*
Y803896D02*
Y832321D01*
X1630000Y835000D02*
X1630158Y835158D01*
Y896968D01*
X1630315Y897126D01*
X1632679Y803896D02*
X1669475Y767100D01*
X1758032Y763543D02*
X1760000D01*
X2792399Y595000D02*
X2810551Y613152D01*
X2797399Y660000D02*
X2810551Y646848D01*
Y613152D02*
Y646848D01*
X457812Y2587812D02*
X593527Y2723527D01*
X457812Y2542812D02*
Y2587812D01*
X410472Y2530620D02*
Y2575828D01*
X385472Y2540975D02*
Y2586183D01*
X593527Y2723527D02*
X918527D01*
X583172Y2748527D02*
X843527D01*
X410472Y2575828D02*
X583172Y2748527D01*
X385472Y2586183D02*
X572817Y2773527D01*
X768527D01*
X455000Y2540000D02*
X457812Y2542812D01*
X385472Y2369528D02*
Y2540975D01*
X410472Y2464528D02*
Y2530620D01*
Y2464528D02*
X455000Y2420000D01*
X843527Y2748527D02*
X990000Y2895000D01*
X2885945Y985591D02*
X2954409D01*
X2690000Y1080000D02*
X2790000D01*
X2880000Y990000D01*
X2795000Y1720000D02*
X2885000Y1630000D01*
X2690000Y1720000D02*
X2795000D01*
X790000Y570000D02*
Y570512D01*
X800000Y580512D01*
X385472Y2369528D02*
X455000Y2300000D01*
X768527Y2773527D02*
X890000Y2895000D01*
X918527Y2723527D02*
X1090000Y2895000D01*
X785000Y970000D02*
X789488D01*
X800000Y980512D01*
Y1065000D01*
X785000Y480000D02*
Y488425D01*
X775827Y497599D02*
X785000Y488425D01*
X719134Y497599D02*
X775827D01*
X720945Y570591D02*
X780591D01*
X719134Y572402D02*
X720945Y570591D01*
X783425Y890000D02*
X790000D01*
X719134Y897598D02*
X775827D01*
X783425Y890000D01*
X720945Y970591D02*
X784409D01*
X785000Y970000D01*
X719134Y972402D02*
X720945Y970591D01*
X529528Y469528D02*
X584528D01*
X525000Y465000D02*
X529528Y469528D01*
X584528D02*
X610000Y495000D01*
X543543Y565000D02*
X632399D01*
X622399Y495000D02*
X645551Y518152D01*
Y551848D01*
X632399Y565000D02*
X645551Y551848D01*
Y918152D02*
Y951848D01*
X622399Y895000D02*
X645551Y918152D01*
X632399Y965000D02*
X645551Y951848D01*
X2884134Y1307402D02*
X2885945Y1305591D01*
X2790000Y1400000D02*
X2885000Y1305000D01*
X2690000Y1400000D02*
X2790000D01*
X2884134Y667402D02*
X2885945Y665591D01*
X2790000Y760000D02*
X2885000Y665000D01*
X2690000Y760000D02*
X2790000D01*
X2884134Y347402D02*
X2885945Y345591D01*
X2790000Y440000D02*
X2885000Y345000D01*
X2690000Y440000D02*
X2790000D01*
X2885945Y345591D02*
X2949409D01*
X2950000Y345000D01*
X2885945Y665591D02*
X2949409D01*
X2950000Y665000D01*
X2884134Y272599D02*
X2940827D01*
X2948425Y265000D01*
X2950000D01*
X2948425Y585000D02*
X2955000D01*
X2940827Y592598D02*
X2948425Y585000D01*
X2884134Y592598D02*
X2940827D01*
X2787399Y270000D02*
X2810551Y293152D01*
Y326848D01*
X2797399Y340000D02*
X2810551Y326848D01*
X2694528Y884528D02*
X2749528D01*
X2690000Y880000D02*
X2694528Y884528D01*
X2749528D02*
X2775000Y910000D01*
X2694528Y1524528D02*
X2749528D01*
X2690000Y1520000D02*
X2694528Y1524528D01*
X2749528D02*
X2775000Y1550000D01*
X2954409Y1625591D02*
X2955000Y1625000D01*
X2884134Y1627402D02*
X2885945Y1625591D01*
Y1305591D02*
X2949409D01*
X2950000Y1305000D01*
X2954409Y985591D02*
X2955000Y985000D01*
X2884134Y987402D02*
X2885945Y985591D01*
X2948425Y905000D02*
X2955000D01*
X2884134Y912598D02*
X2940827D01*
X2948425Y905000D01*
X2940827Y1232599D02*
X2955000Y1218425D01*
X2884134Y1232599D02*
X2940827D01*
X2955000Y1215000D02*
Y1218425D01*
X2940827Y1552599D02*
X2955000Y1538425D01*
X2884134Y1552599D02*
X2940827D01*
X2955000Y1535000D02*
Y1538425D01*
X2708543Y980000D02*
X2797399D01*
X2810551Y966848D01*
Y933152D02*
Y966848D01*
X2787399Y910000D02*
X2810551Y933152D01*
X2787399Y1230000D02*
X2810551Y1253152D01*
Y1286848D01*
X2797399Y1300000D02*
X2810551Y1286848D01*
Y1573152D02*
Y1606848D01*
X2797399Y1620000D02*
X2810551Y1606848D01*
X2787399Y1550000D02*
X2810551Y1573152D01*
D25*
X590000Y3795000D02*
D03*
X1990000D02*
D03*
X2690000D02*
D03*
X2490000D02*
D03*
X2590000D02*
D03*
X2390000Y3780000D02*
D03*
X2290000Y3805000D02*
D03*
X2190000Y3790000D02*
D03*
X2090000D02*
D03*
X1890000D02*
D03*
X1790000Y3795000D02*
D03*
X1690000D02*
D03*
X1590000Y3800000D02*
D03*
X1490000Y3790000D02*
D03*
X1390000Y3795000D02*
D03*
X1290000Y3800000D02*
D03*
X1190000Y3795000D02*
D03*
X1090000D02*
D03*
X790000D02*
D03*
X890000D02*
D03*
X990000D02*
D03*
X690000D02*
D03*
X490000D02*
D03*
X390000D02*
D03*
D26*
X1575000Y835000D02*
D03*
D27*
X1662500Y1957500D02*
D03*
D28*
X1467500Y1662500D02*
D03*
D29*
X2690000Y2990000D02*
D03*
X2590000D02*
D03*
X2490000D02*
D03*
X2390000D02*
D03*
X2290000D02*
D03*
X2190000D02*
D03*
X2090000D02*
D03*
X1990000D02*
D03*
X1890000D02*
D03*
X1790000Y2992500D02*
D03*
X1690000D02*
D03*
X1590000D02*
D03*
X1490000Y2987500D02*
D03*
X1390000Y2992500D02*
D03*
X1290000Y2990000D02*
D03*
X690000D02*
D03*
X590000D02*
D03*
X490000D02*
D03*
X390000D02*
D03*
D30*
X2367500Y367500D02*
D03*
D31*
X1517500Y2357500D02*
D03*
D32*
X2040000Y3570000D02*
D03*
X2140000D02*
D03*
X2240000D02*
D03*
X2340000D02*
D03*
X2440000D02*
D03*
X2190000Y3195000D02*
D03*
X2290000D02*
D03*
X2390000D02*
D03*
X2590000D02*
D03*
X890000D02*
D03*
Y3495000D02*
D03*
Y3295000D02*
D03*
Y3395000D02*
D03*
Y3595000D02*
D03*
X1190000Y3095000D02*
D03*
X1090000D02*
D03*
X990000D02*
D03*
X890000D02*
D03*
X790000D02*
D03*
X690000D02*
D03*
X590000D02*
D03*
X490000D02*
D03*
X390000D02*
D03*
Y3695000D02*
D03*
X490000D02*
D03*
X590000D02*
D03*
X690000D02*
D03*
X790000D02*
D03*
X890000D02*
D03*
X990000D02*
D03*
X1090000D02*
D03*
X1190000D02*
D03*
X1290000Y3095000D02*
D03*
Y3695000D02*
D03*
X2690000Y3095000D02*
D03*
Y3695000D02*
D03*
X2590000Y3095000D02*
D03*
X2490000D02*
D03*
X2590000Y3695000D02*
D03*
X2390000Y3095000D02*
D03*
X2290000D02*
D03*
X2190000D02*
D03*
X2090000D02*
D03*
X1990000D02*
D03*
X1890000D02*
D03*
X1790000D02*
D03*
X1690000D02*
D03*
X1590000D02*
D03*
X1490000D02*
D03*
X1390000D02*
D03*
Y3695000D02*
D03*
X1490000D02*
D03*
X1590000D02*
D03*
X1690000D02*
D03*
X1790000D02*
D03*
X1890000D02*
D03*
X1990000D02*
D03*
X2090000D02*
D03*
X2190000D02*
D03*
X2290000D02*
D03*
X2390000D02*
D03*
X2490000D02*
D03*
D33*
X2115000Y2355000D02*
D03*
X2315000D02*
D03*
Y2555000D02*
D03*
X2115000D02*
D03*
X785000Y2355000D02*
D03*
X985000D02*
D03*
Y2555000D02*
D03*
X785000D02*
D03*
X1035000Y1555000D02*
D03*
X1235000D02*
D03*
Y1355000D02*
D03*
X1035000D02*
D03*
Y1855000D02*
D03*
X1235000D02*
D03*
Y2055000D02*
D03*
X1035000D02*
D03*
X2115000Y1855000D02*
D03*
X2315000D02*
D03*
Y2055000D02*
D03*
X2115000D02*
D03*
X535000Y1555000D02*
D03*
X735000D02*
D03*
Y1355000D02*
D03*
X535000D02*
D03*
Y2055000D02*
D03*
X735000D02*
D03*
Y1855000D02*
D03*
X535000D02*
D03*
X2115000Y1555000D02*
D03*
X2315000D02*
D03*
Y1355000D02*
D03*
X2115000D02*
D03*
D34*
X2215000Y2455000D02*
D03*
X885000D02*
D03*
X1135000Y1455000D02*
D03*
Y1955000D02*
D03*
X2215000D02*
D03*
X635000Y1455000D02*
D03*
Y1955000D02*
D03*
X2215000Y1455000D02*
D03*
D35*
X2174737Y568660D02*
D03*
X2310000Y775000D02*
D03*
D36*
X1875000Y445000D02*
D03*
X1730000Y1550000D02*
D03*
X1605000D02*
D03*
D37*
X1875000Y545000D02*
D03*
X1975000Y950000D02*
D03*
X2690000Y1080000D02*
D03*
X800000Y665000D02*
D03*
X2690000Y1720000D02*
D03*
X1880000Y2095000D02*
D03*
X1570000D02*
D03*
X2690000Y240000D02*
D03*
X2590000Y440000D02*
D03*
X2690000Y560000D02*
D03*
X2590000Y1400000D02*
D03*
X2690000Y1520000D02*
D03*
Y1200000D02*
D03*
Y880000D02*
D03*
X2590000Y760000D02*
D03*
X555000Y2540000D02*
D03*
Y2420000D02*
D03*
Y2300000D02*
D03*
X1730000Y1650000D02*
D03*
X1605000D02*
D03*
X2775000Y2255000D02*
D03*
Y2615000D02*
D03*
Y2495000D02*
D03*
Y2375000D02*
D03*
Y2015000D02*
D03*
Y2135000D02*
D03*
X390000Y3895000D02*
D03*
X490000D02*
D03*
X590000D02*
D03*
X690000D02*
D03*
X790000D02*
D03*
X890000D02*
D03*
X990000D02*
D03*
X1090000D02*
D03*
X1190000D02*
D03*
X1290000D02*
D03*
X1390000D02*
D03*
X1490000D02*
D03*
X1590000D02*
D03*
X1690000D02*
D03*
X1790000D02*
D03*
X1890000D02*
D03*
X1990000D02*
D03*
X2090000D02*
D03*
X2190000D02*
D03*
X2290000D02*
D03*
X2390000D02*
D03*
X2490000D02*
D03*
X2590000D02*
D03*
X390000Y2895000D02*
D03*
X490000D02*
D03*
X590000D02*
D03*
X690000D02*
D03*
X790000D02*
D03*
X890000D02*
D03*
X990000D02*
D03*
X1090000D02*
D03*
X1190000D02*
D03*
X1290000D02*
D03*
X1390000D02*
D03*
X1490000D02*
D03*
X1590000D02*
D03*
X1690000D02*
D03*
X1790000D02*
D03*
X1890000D02*
D03*
X1990000D02*
D03*
X2090000D02*
D03*
X2190000D02*
D03*
X2290000D02*
D03*
X2390000D02*
D03*
X2490000D02*
D03*
X2590000D02*
D03*
X525000Y465000D02*
D03*
X900000Y1065000D02*
D03*
X1775000Y325000D02*
D03*
X800000Y785000D02*
D03*
D38*
X3260000Y3915000D02*
D03*
X150000D02*
D03*
X3260000Y150000D02*
D03*
X150000D02*
D03*
D39*
X1780000Y2095000D02*
D03*
X1470000D02*
D03*
X2590000Y240000D02*
D03*
X2690000Y440000D02*
D03*
X2590000Y560000D02*
D03*
X2690000Y1400000D02*
D03*
X2590000Y1520000D02*
D03*
Y1200000D02*
D03*
Y880000D02*
D03*
X2690000Y760000D02*
D03*
X455000Y2540000D02*
D03*
Y2420000D02*
D03*
Y2300000D02*
D03*
X2875000Y2255000D02*
D03*
Y2615000D02*
D03*
Y2495000D02*
D03*
Y2375000D02*
D03*
Y2015000D02*
D03*
Y2135000D02*
D03*
X2690000Y3895000D02*
D03*
Y2895000D02*
D03*
X425000Y465000D02*
D03*
X800000Y1065000D02*
D03*
X1875000Y325000D02*
D03*
X900000Y785000D02*
D03*
D40*
X2015000Y2380000D02*
D03*
X2045000Y2725000D02*
D03*
X1970000Y2435000D02*
D03*
X1820000Y2295000D02*
D03*
X1535000Y1573436D02*
D03*
X1550000Y1700000D02*
D03*
X1265000Y748436D02*
D03*
X1565000Y2275000D02*
D03*
X1701038Y2148952D02*
D03*
X2265000Y1255000D02*
D03*
X1885000Y915000D02*
D03*
X1850000Y845000D02*
D03*
X2410000Y557000D02*
D03*
X2240000Y490000D02*
D03*
X2110000Y425000D02*
D03*
X605000Y785000D02*
D03*
X2575000Y1030000D02*
D03*
X2450000Y1160000D02*
D03*
X1870000Y1070000D02*
D03*
X1910000Y2530000D02*
D03*
X1665000Y2565000D02*
D03*
X1590386D02*
D03*
X1575000Y2705000D02*
D03*
X1790000Y2735000D02*
D03*
X1905000Y2615000D02*
D03*
X1850000Y2675000D02*
D03*
X1740000Y2785000D02*
D03*
X2780000Y1900000D02*
D03*
X2483000Y1080000D02*
D03*
X2580000Y1680543D02*
D03*
X1565000Y2635000D02*
D03*
X2255000Y3480000D02*
D03*
X2120000Y3440000D02*
D03*
X1855000Y1745000D02*
D03*
X1495174Y1749826D02*
D03*
X1940000Y1720000D02*
D03*
X1740000Y1440000D02*
D03*
X1800000D02*
D03*
X1855000D02*
D03*
X1811666Y1707425D02*
D03*
X1395000Y1720000D02*
D03*
X1605000Y1460000D02*
D03*
X1535000Y1445000D02*
D03*
X2075000Y1210000D02*
D03*
X1442620Y877380D02*
D03*
X1459690Y995310D02*
D03*
X1450000Y1065000D02*
D03*
X1075000Y1060000D02*
D03*
X1015000Y1005000D02*
D03*
X1710000Y640000D02*
D03*
X1575000Y835000D02*
D03*
X1705000D02*
D03*
X1630000D02*
D03*
X1875000Y985000D02*
D03*
X1870000Y1135000D02*
D03*
X1785000Y1255000D02*
D03*
X1145000Y660000D02*
D03*
X1175000Y600000D02*
D03*
X1340000Y615000D02*
D03*
X1405000Y595000D02*
D03*
X1270000Y640000D02*
D03*
X1175000Y2280000D02*
D03*
X1240000D02*
D03*
X1510000Y2300000D02*
D03*
X1875000Y1620000D02*
D03*
X1610000Y1225000D02*
D03*
X1690000D02*
D03*
D41*
X3335000Y2845000D02*
D03*
Y1645000D02*
D03*
Y1345000D02*
D03*
Y1045000D02*
D03*
Y3145000D02*
D03*
Y2545000D02*
D03*
Y2245000D02*
D03*
Y1945000D02*
D03*
Y745000D02*
D03*
Y3445000D02*
D03*
X75000Y765000D02*
D03*
Y1065000D02*
D03*
Y1365000D02*
D03*
Y1665000D02*
D03*
Y1965000D02*
D03*
Y2265000D02*
D03*
Y2565000D02*
D03*
Y2865000D02*
D03*
Y3165000D02*
D03*
Y3465000D02*
D03*
D42*
X1585039Y965039D02*
D03*
Y1008346D02*
D03*
Y1051654D02*
D03*
Y1094961D02*
D03*
X1628347Y965039D02*
D03*
Y1008346D02*
D03*
Y1051654D02*
D03*
Y1094961D02*
D03*
X1671654Y965039D02*
D03*
Y1008346D02*
D03*
Y1051654D02*
D03*
Y1094961D02*
D03*
X1714961Y965039D02*
D03*
Y1008346D02*
D03*
Y1051654D02*
D03*
Y1094961D02*
D03*
%TF.MD5,71bdfcbd790326cacbe1ae7c9b5ff03f*%
M02*
