%TF.GenerationSoftware,Altium Limited,Altium Designer,21.9.2 (33)*%
G04 Layer_Color=16711935*
%FSLAX26Y26*%
%MOIN*%
%TF.SameCoordinates,EB25F4C7-955C-4A9D-8DD9-FEE0DACB2CC0*%
%TF.FilePolarity,Positive*%
%TF.FileFunction,Other,Mechanical_1*%
%TF.Part,Single*%
G01*
G75*
%TA.AperFunction,NonConductor*%
%ADD66C,0.002362*%
D66*
X765000Y870743D02*
Y857624D01*
X767624Y855000D01*
X772871D01*
X775495Y857624D01*
Y870743D01*
X791238D02*
X780743D01*
Y862871D01*
X785990Y865495D01*
X788614D01*
X791238Y862871D01*
Y857624D01*
X788614Y855000D01*
X783367D01*
X780743Y857624D01*
X2630000Y680743D02*
Y667624D01*
X2632624Y665000D01*
X2637872D01*
X2640495Y667624D01*
Y680743D01*
X2656238D02*
X2650990Y678119D01*
X2645743Y672871D01*
Y667624D01*
X2648367Y665000D01*
X2653614D01*
X2656238Y667624D01*
Y670248D01*
X2653614Y672871D01*
X2645743D01*
X2630000Y360743D02*
Y347624D01*
X2632624Y345000D01*
X2637872D01*
X2640495Y347624D01*
Y360743D01*
X2645743D02*
X2656238D01*
Y358119D01*
X2645743Y347624D01*
Y345000D01*
X2630000Y1000743D02*
Y987624D01*
X2632624Y985000D01*
X2637872D01*
X2640495Y987624D01*
Y1000743D01*
X2653614Y985000D02*
Y1000743D01*
X2645743Y992871D01*
X2656238D01*
X765000Y1180743D02*
Y1167624D01*
X767624Y1165000D01*
X772871D01*
X775495Y1167624D01*
Y1180743D01*
X780743Y1165000D02*
X785990D01*
X783367D01*
Y1180743D01*
X780743Y1178119D01*
X765000Y470743D02*
Y457624D01*
X767624Y455000D01*
X772871D01*
X775495Y457624D01*
Y470743D01*
X780743Y468119D02*
X783367Y470743D01*
X788614D01*
X791238Y468119D01*
Y465495D01*
X788614Y462872D01*
X785990D01*
X788614D01*
X791238Y460248D01*
Y457624D01*
X788614Y455000D01*
X783367D01*
X780743Y457624D01*
X765000Y1480743D02*
Y1467624D01*
X767624Y1465000D01*
X772871D01*
X775495Y1467624D01*
Y1480743D01*
X791238Y1465000D02*
X780743D01*
X791238Y1475495D01*
Y1478119D01*
X788614Y1480743D01*
X783367D01*
X780743Y1478119D01*
%TF.MD5,ad6b616ad0b2256d40f9b47e90112ad8*%
M02*
