%TF.GenerationSoftware,Altium Limited,Altium Designer,22.3.1 (43)*%
G04 Layer_Color=0*
%FSLAX26Y26*%
%MOIN*%
%TF.SameCoordinates,25215B7F-5601-44EC-B639-707B6E2D0B24*%
%TF.FilePolarity,Positive*%
%TF.FileFunction,Plated,1,4,PTH,Drill*%
%TF.Part,Single*%
G01*
G75*
%TA.AperFunction,ComponentDrill*%
%ADD89C,0.038000*%
%ADD90C,0.062992*%
%ADD91C,0.059055*%
%TA.AperFunction,OtherDrill,Free Pad (2174.737mil,568.66mil)*%
%ADD92C,0.035433*%
%TA.AperFunction,ComponentDrill*%
%ADD93C,0.035433*%
%TA.AperFunction,OtherDrill,Free Pad (2310mil,775mil)*%
%ADD94C,0.035433*%
%TA.AperFunction,ComponentDrill*%
%ADD95C,0.035433*%
%ADD96C,0.100000*%
%TA.AperFunction,ViaDrill,NotFilled*%
%ADD97C,0.020000*%
%ADD98C,0.045000*%
%ADD99C,0.015000*%
D89*
X2040000Y3570000D02*
D03*
X2140000D02*
D03*
X2240000D02*
D03*
X2340000D02*
D03*
X2440000D02*
D03*
X2190000Y3195000D02*
D03*
X2290000D02*
D03*
X2390000D02*
D03*
X2590000D02*
D03*
X890000D02*
D03*
Y3495000D02*
D03*
Y3295000D02*
D03*
Y3395000D02*
D03*
Y3595000D02*
D03*
X1190000Y3095000D02*
D03*
X1090000D02*
D03*
X990000D02*
D03*
X890000D02*
D03*
X790000D02*
D03*
X690000D02*
D03*
X590000D02*
D03*
X490000D02*
D03*
X390000D02*
D03*
Y3695000D02*
D03*
X490000D02*
D03*
X590000D02*
D03*
X690000D02*
D03*
X790000D02*
D03*
X890000D02*
D03*
X990000D02*
D03*
X1090000D02*
D03*
X1190000D02*
D03*
X1290000Y3095000D02*
D03*
Y3695000D02*
D03*
X2690000Y3095000D02*
D03*
Y3695000D02*
D03*
X2590000Y3095000D02*
D03*
X2490000D02*
D03*
X2590000Y3695000D02*
D03*
X2390000Y3095000D02*
D03*
X2290000D02*
D03*
X2190000D02*
D03*
X2090000D02*
D03*
X1990000D02*
D03*
X1890000D02*
D03*
X1790000D02*
D03*
X1690000D02*
D03*
X1590000D02*
D03*
X1490000D02*
D03*
X1390000D02*
D03*
Y3695000D02*
D03*
X1490000D02*
D03*
X1590000D02*
D03*
X1690000D02*
D03*
X1790000D02*
D03*
X1890000D02*
D03*
X1990000D02*
D03*
X2090000D02*
D03*
X2190000D02*
D03*
X2290000D02*
D03*
X2390000D02*
D03*
X2490000D02*
D03*
D90*
X2115000Y2355000D02*
D03*
X2315000D02*
D03*
Y2555000D02*
D03*
X2115000D02*
D03*
X785000Y2355000D02*
D03*
X985000D02*
D03*
Y2555000D02*
D03*
X785000D02*
D03*
X1035000Y1555000D02*
D03*
X1235000D02*
D03*
Y1355000D02*
D03*
X1035000D02*
D03*
Y1855000D02*
D03*
X1235000D02*
D03*
Y2055000D02*
D03*
X1035000D02*
D03*
X2115000Y1855000D02*
D03*
X2315000D02*
D03*
Y2055000D02*
D03*
X2115000D02*
D03*
X535000Y1555000D02*
D03*
X735000D02*
D03*
Y1355000D02*
D03*
X535000D02*
D03*
Y2055000D02*
D03*
X735000D02*
D03*
Y1855000D02*
D03*
X535000D02*
D03*
X2115000Y1555000D02*
D03*
X2315000D02*
D03*
Y1355000D02*
D03*
X2115000D02*
D03*
D91*
X2215000Y2455000D02*
D03*
X885000D02*
D03*
X1135000Y1455000D02*
D03*
Y1955000D02*
D03*
X2215000D02*
D03*
X635000Y1455000D02*
D03*
Y1955000D02*
D03*
X2215000Y1455000D02*
D03*
D92*
X2174737Y568660D02*
D03*
D93*
X1875000Y445000D02*
D03*
Y545000D02*
D03*
X1730000Y1550000D02*
D03*
Y1650000D02*
D03*
X1605000Y1550000D02*
D03*
Y1650000D02*
D03*
D94*
X2310000Y775000D02*
D03*
D95*
X1975000Y950000D02*
D03*
X2690000Y1080000D02*
D03*
X800000Y665000D02*
D03*
X2690000Y1720000D02*
D03*
X1780000Y2095000D02*
D03*
X1880000D02*
D03*
X1470000D02*
D03*
X1570000D02*
D03*
X2690000Y240000D02*
D03*
X2590000D02*
D03*
Y440000D02*
D03*
X2690000D02*
D03*
Y560000D02*
D03*
X2590000D02*
D03*
Y1400000D02*
D03*
X2690000D02*
D03*
Y1520000D02*
D03*
X2590000D02*
D03*
X2690000Y1200000D02*
D03*
X2590000D02*
D03*
X2690000Y880000D02*
D03*
X2590000D02*
D03*
Y760000D02*
D03*
X2690000D02*
D03*
X555000Y2540000D02*
D03*
X455000D02*
D03*
X555000Y2420000D02*
D03*
X455000D02*
D03*
X555000Y2300000D02*
D03*
X455000D02*
D03*
X2775000Y2255000D02*
D03*
X2875000D02*
D03*
X2775000Y2615000D02*
D03*
X2875000D02*
D03*
X2775000Y2495000D02*
D03*
X2875000D02*
D03*
X2775000Y2375000D02*
D03*
X2875000D02*
D03*
X2775000Y2015000D02*
D03*
X2875000D02*
D03*
X2775000Y2135000D02*
D03*
X2875000D02*
D03*
X2690000Y3895000D02*
D03*
X390000D02*
D03*
X490000D02*
D03*
X590000D02*
D03*
X690000D02*
D03*
X790000D02*
D03*
X890000D02*
D03*
X990000D02*
D03*
X1090000D02*
D03*
X1190000D02*
D03*
X1290000D02*
D03*
X1390000D02*
D03*
X1490000D02*
D03*
X1590000D02*
D03*
X1690000D02*
D03*
X1790000D02*
D03*
X1890000D02*
D03*
X1990000D02*
D03*
X2090000D02*
D03*
X2190000D02*
D03*
X2290000D02*
D03*
X2390000D02*
D03*
X2490000D02*
D03*
X2590000D02*
D03*
X2690000Y2895000D02*
D03*
X390000D02*
D03*
X490000D02*
D03*
X590000D02*
D03*
X690000D02*
D03*
X790000D02*
D03*
X890000D02*
D03*
X990000D02*
D03*
X1090000D02*
D03*
X1190000D02*
D03*
X1290000D02*
D03*
X1390000D02*
D03*
X1490000D02*
D03*
X1590000D02*
D03*
X1690000D02*
D03*
X1790000D02*
D03*
X1890000D02*
D03*
X1990000D02*
D03*
X2090000D02*
D03*
X2190000D02*
D03*
X2290000D02*
D03*
X2390000D02*
D03*
X2490000D02*
D03*
X2590000D02*
D03*
X425000Y465000D02*
D03*
X525000D02*
D03*
X800000Y1065000D02*
D03*
X900000D02*
D03*
X1875000Y325000D02*
D03*
X1775000D02*
D03*
X900000Y785000D02*
D03*
X800000D02*
D03*
D96*
X3260000Y3915000D02*
D03*
X150000D02*
D03*
X3260000Y150000D02*
D03*
X150000D02*
D03*
D97*
X2015000Y2380000D02*
D03*
X2045000Y2725000D02*
D03*
X1970000Y2435000D02*
D03*
X1820000Y2295000D02*
D03*
X1535000Y1573436D02*
D03*
X1550000Y1700000D02*
D03*
X1265000Y748436D02*
D03*
X1565000Y2275000D02*
D03*
X1701038Y2148952D02*
D03*
X2265000Y1255000D02*
D03*
X1885000Y915000D02*
D03*
X1850000Y845000D02*
D03*
X2410000Y557000D02*
D03*
X2240000Y490000D02*
D03*
X2110000Y425000D02*
D03*
X605000Y785000D02*
D03*
X2575000Y1030000D02*
D03*
X2450000Y1160000D02*
D03*
X1870000Y1070000D02*
D03*
X1910000Y2530000D02*
D03*
X1665000Y2565000D02*
D03*
X1590386D02*
D03*
X1575000Y2705000D02*
D03*
X1790000Y2735000D02*
D03*
X1905000Y2615000D02*
D03*
X1850000Y2675000D02*
D03*
X1740000Y2785000D02*
D03*
X2780000Y1900000D02*
D03*
X2483000Y1080000D02*
D03*
X2580000Y1680543D02*
D03*
X1565000Y2635000D02*
D03*
X2255000Y3480000D02*
D03*
X2120000Y3440000D02*
D03*
X1855000Y1745000D02*
D03*
X1495174Y1749826D02*
D03*
X1940000Y1720000D02*
D03*
X1740000Y1440000D02*
D03*
X1800000D02*
D03*
X1855000D02*
D03*
X1811666Y1707425D02*
D03*
X1395000Y1720000D02*
D03*
X1605000Y1460000D02*
D03*
X1535000Y1445000D02*
D03*
X2075000Y1210000D02*
D03*
X1442620Y877380D02*
D03*
X1459690Y995310D02*
D03*
X1450000Y1065000D02*
D03*
X1075000Y1060000D02*
D03*
X1015000Y1005000D02*
D03*
X1710000Y640000D02*
D03*
X1575000Y835000D02*
D03*
X1705000D02*
D03*
X1630000D02*
D03*
X1875000Y985000D02*
D03*
X1870000Y1135000D02*
D03*
X1785000Y1255000D02*
D03*
X1145000Y660000D02*
D03*
X1175000Y600000D02*
D03*
X1340000Y615000D02*
D03*
X1405000Y595000D02*
D03*
X1270000Y640000D02*
D03*
X1175000Y2280000D02*
D03*
X1240000D02*
D03*
X1510000Y2300000D02*
D03*
X1875000Y1620000D02*
D03*
X1610000Y1225000D02*
D03*
X1690000D02*
D03*
D98*
X3335000Y2845000D02*
D03*
Y1645000D02*
D03*
Y1345000D02*
D03*
Y1045000D02*
D03*
Y3145000D02*
D03*
Y2545000D02*
D03*
Y2245000D02*
D03*
Y1945000D02*
D03*
Y745000D02*
D03*
Y3445000D02*
D03*
X75000Y765000D02*
D03*
Y1065000D02*
D03*
Y1365000D02*
D03*
Y1665000D02*
D03*
Y1965000D02*
D03*
Y2265000D02*
D03*
Y2565000D02*
D03*
Y2865000D02*
D03*
Y3165000D02*
D03*
Y3465000D02*
D03*
D99*
X1585039Y965039D02*
D03*
Y1008346D02*
D03*
Y1051654D02*
D03*
Y1094961D02*
D03*
X1628347Y965039D02*
D03*
Y1008346D02*
D03*
Y1051654D02*
D03*
Y1094961D02*
D03*
X1671654Y965039D02*
D03*
Y1008346D02*
D03*
Y1051654D02*
D03*
Y1094961D02*
D03*
X1714961Y965039D02*
D03*
Y1008346D02*
D03*
Y1051654D02*
D03*
Y1094961D02*
D03*
%TF.MD5,73412e55bd5fbbfe949979c31d9a3b2f*%
M02*
