G04*
G04 #@! TF.GenerationSoftware,Altium Limited,Altium Designer,22.3.1 (43)*
G04*
G04 Layer_Color=32768*
%FSLAX25Y25*%
%MOIN*%
G70*
G04*
G04 #@! TF.SameCoordinates,E19C0AB1-6057-4413-9D38-1CFD4383DBF5*
G04*
G04*
G04 #@! TF.FilePolarity,Positive*
G04*
G01*
G75*
%ADD14C,0.00500*%
%ADD69C,0.01200*%
D14*
X262169Y352000D02*
G03*
X261129Y351443I0J-1250D01*
G01*
Y327557D02*
G03*
X262169Y327000I1040J693D01*
G01*
X44000Y317000D02*
G03*
X45250Y318250I0J1250D01*
G01*
X50250D02*
G03*
X49000Y319500I-1250J0D01*
G01*
X79250Y347000D02*
G03*
X80250Y348000I0J1000D01*
G01*
X74000D02*
G03*
X75000Y347000I1000J0D01*
G01*
Y350750D02*
G03*
X74000Y349750I0J-1000D01*
G01*
X80250D02*
G03*
X79250Y350750I-1000J0D01*
G01*
X210500Y334500D02*
G03*
X211500Y335500I0J1000D01*
G01*
X201500D02*
G03*
X202500Y334500I1000J0D01*
G01*
Y344500D02*
G03*
X201500Y343500I0J-1000D01*
G01*
X211500D02*
G03*
X210500Y344500I-1000J0D01*
G01*
X191500Y361000D02*
G03*
X190500Y362000I-1000J0D01*
G01*
Y349500D02*
G03*
X191500Y350500I0J1000D01*
G01*
X179000D02*
G03*
X180000Y349500I1000J0D01*
G01*
Y362000D02*
G03*
X179000Y361000I0J-1000D01*
G01*
X269000Y348250D02*
G03*
X270250Y347000I1250J0D01*
G01*
Y352000D02*
G03*
X269000Y350750I0J-1250D01*
G01*
X270250Y332000D02*
G03*
X269000Y330750I0J-1250D01*
G01*
Y328250D02*
G03*
X270250Y327000I1250J0D01*
G01*
X109000Y348500D02*
G03*
X108000Y349500I-1000J0D01*
G01*
Y329500D02*
G03*
X109000Y330500I0J1000D01*
G01*
X94000D02*
G03*
X95000Y329500I1000J0D01*
G01*
Y349500D02*
G03*
X94000Y348500I0J-1000D01*
G01*
X37500Y359500D02*
G03*
X36500Y358500I0J-1000D01*
G01*
Y358000D02*
G03*
X37500Y357000I1000J0D01*
G01*
Y354500D02*
G03*
X36500Y353500I0J-1000D01*
G01*
Y353000D02*
G03*
X37500Y352000I1000J0D01*
G01*
Y349500D02*
G03*
X36500Y348500I0J-1000D01*
G01*
Y348000D02*
G03*
X37500Y347000I1000J0D01*
G01*
Y344500D02*
G03*
X36500Y343500I0J-1000D01*
G01*
Y343000D02*
G03*
X37500Y342000I1000J0D01*
G01*
Y339500D02*
G03*
X36500Y338500I0J-1000D01*
G01*
Y338000D02*
G03*
X37500Y337000I1000J0D01*
G01*
Y334500D02*
G03*
X36500Y333500I0J-1000D01*
G01*
Y333000D02*
G03*
X37500Y332000I1000J0D01*
G01*
Y329500D02*
G03*
X36500Y328500I0J-1000D01*
G01*
Y328000D02*
G03*
X37500Y327000I1000J0D01*
G01*
X83000Y314500D02*
G03*
X84000Y315500I0J1000D01*
G01*
X259000Y348250D02*
X261129Y351443D01*
X262169Y352000D02*
X264000D01*
Y344500D02*
Y352000D01*
X259000Y344500D02*
X264000D01*
X259000Y330750D02*
X261129Y327557D01*
X262169Y327000D02*
X264000D01*
Y334500D01*
X259000D02*
X264000D01*
X42750Y317000D02*
X44000D01*
X45250Y318250D02*
Y319500D01*
X49000D01*
X50250Y314500D02*
Y318250D01*
X189000Y362000D02*
Y363250D01*
X186500Y362000D02*
Y363250D01*
X184000Y362000D02*
Y363250D01*
X181500Y362000D02*
Y363250D01*
X191500Y359500D02*
X192750D01*
X191500Y357000D02*
X192750D01*
X191500Y354500D02*
X192750D01*
X191500Y352000D02*
X192750D01*
X189000Y348250D02*
Y349500D01*
X186500Y348250D02*
Y349500D01*
X184000Y348250D02*
Y349500D01*
X181500Y348250D02*
Y349500D01*
X177750Y352000D02*
X179000D01*
X177750Y359500D02*
X179000D01*
X177750Y357000D02*
X179000D01*
X177750Y354500D02*
X179000D01*
X74000Y360750D02*
X80250D01*
Y354500D02*
Y360750D01*
X75000Y347000D02*
X79250D01*
X74000Y348000D02*
Y349750D01*
X75000Y350750D02*
X79250D01*
X80250Y348000D02*
Y349750D01*
X202500Y334500D02*
X210500D01*
X201500Y335500D02*
Y343500D01*
X202500Y344500D02*
X210500D01*
X211500Y335500D02*
Y343500D01*
X181500Y362000D02*
X184000D01*
X186500D01*
X189000D01*
X190500D01*
X191500Y359500D02*
Y361000D01*
Y357000D02*
Y359500D01*
Y354500D02*
Y357000D01*
Y352000D02*
Y354500D01*
Y350500D02*
Y352000D01*
X189000Y349500D02*
X190500D01*
X186500D02*
X189000D01*
X184000D02*
X186500D01*
X181500D02*
X184000D01*
X180000D02*
X181500D01*
X179000Y350500D02*
Y352000D01*
Y354500D01*
Y357000D01*
Y359500D01*
Y361000D01*
X180000Y362000D02*
X181500D01*
X276500Y347000D02*
Y352000D01*
Y327000D02*
Y332000D01*
X270250Y347000D02*
X276500D01*
X269000Y348250D02*
Y350750D01*
X270250Y352000D02*
X276500D01*
X270250Y332000D02*
X276500D01*
X269000Y328250D02*
Y330750D01*
X270250Y327000D02*
X276500D01*
X266500Y354500D02*
Y359500D01*
X271500D01*
Y354500D02*
Y359500D01*
X266500Y319500D02*
Y324500D01*
Y319500D02*
X271500D01*
Y324500D01*
X254000Y352000D02*
X259000D01*
X254000Y347000D02*
Y352000D01*
Y347000D02*
X259000D01*
X254000Y327000D02*
X259000D01*
X254000D02*
Y332000D01*
X259000D01*
X254000Y344500D02*
X259000D01*
X254000Y342000D02*
X259000D01*
X254000Y334500D02*
X259000D01*
X254000Y337000D02*
X259000D01*
X254000Y339500D02*
X259000D01*
X239000Y352000D02*
Y362000D01*
X249000Y352000D02*
Y362000D01*
X239000D02*
X249000D01*
X199000D02*
X239000D01*
X199000Y352000D02*
Y362000D01*
Y352000D02*
X239000D01*
X249000D01*
X109000Y330500D02*
Y348500D01*
X95000Y329500D02*
X108000D01*
X94000Y330500D02*
Y348500D01*
X95000Y349500D02*
X108000D01*
X37500Y359500D02*
X44000D01*
X36500Y358000D02*
Y358500D01*
X37500Y357000D02*
X44000D01*
X37500Y354500D02*
X44000D01*
X36500Y353000D02*
Y353500D01*
X37500Y352000D02*
X44000D01*
X37500Y349500D02*
X44000D01*
X36500Y348000D02*
Y348500D01*
X37500Y347000D02*
X44000D01*
X37500Y344500D02*
X44000D01*
X36500Y343000D02*
Y343500D01*
X37500Y342000D02*
X44000D01*
X37500Y339500D02*
X44000D01*
X36500Y338000D02*
Y338500D01*
X37500Y337000D02*
X44000D01*
X37500Y334500D02*
X44000D01*
X36500Y333000D02*
Y333500D01*
X37500Y332000D02*
X44000D01*
X37500Y329500D02*
X44000D01*
X36500Y328000D02*
Y328500D01*
X37500Y327000D02*
X44000D01*
X59000Y314500D02*
X66500D01*
X74000D02*
X83000D01*
X84000Y315500D02*
Y319500D01*
D69*
X60000D02*
G03*
X59000Y318500I0J-1000D01*
G01*
X66500D02*
G03*
X65500Y319500I-1000J0D01*
G01*
X75000D02*
G03*
X74000Y318500I0J-1000D01*
G01*
X101500Y347000D02*
G03*
X96500Y342000I0J-5000D01*
G01*
Y337000D02*
G03*
X101500Y332000I5000J0D01*
G01*
D02*
G03*
X106500Y337000I0J5000D01*
G01*
Y342000D02*
G03*
X101500Y347000I-5000J0D01*
G01*
X84000Y363500D02*
G03*
X83000Y364500I-1000J0D01*
G01*
X37500D02*
G03*
X36500Y363500I0J-1000D01*
G01*
Y363250D02*
G03*
X37750Y362000I1250J0D01*
G01*
X44000Y359500D02*
G03*
X41500Y362000I-2500J0D01*
G01*
Y319500D02*
G03*
X44000Y322000I0J2500D01*
G01*
X37750Y319500D02*
G03*
X36500Y318250I0J-1250D01*
G01*
Y315500D02*
G03*
X37500Y314500I1000J0D01*
G01*
X125000Y364500D02*
G03*
X124000Y363500I0J-1000D01*
G01*
Y315500D02*
G03*
X125000Y314500I1000J0D01*
G01*
X173000D02*
G03*
X174000Y315500I0J1000D01*
G01*
Y363500D02*
G03*
X173000Y364500I-1000J0D01*
G01*
X59000Y314500D02*
Y318500D01*
X60000Y319500D02*
X65500D01*
X66500Y314500D02*
Y318500D01*
X74000Y314500D02*
Y318500D01*
X75000Y319500D02*
X84000D01*
X96500Y337000D02*
Y342000D01*
X106500Y337000D02*
Y342000D01*
X84000Y319500D02*
Y363500D01*
X37500Y364500D02*
X83000D01*
X36500Y363250D02*
Y363500D01*
X37750Y362000D02*
X41500D01*
X44000Y357000D02*
Y359500D01*
Y354500D02*
Y357000D01*
Y352000D02*
Y354500D01*
Y349500D02*
Y352000D01*
Y347000D02*
Y349500D01*
Y344500D02*
Y347000D01*
Y342000D02*
Y344500D01*
Y339500D02*
Y342000D01*
Y337000D02*
Y339500D01*
Y334500D02*
Y337000D01*
Y332000D02*
Y334500D01*
Y329500D02*
Y332000D01*
Y327000D02*
Y329500D01*
Y322000D02*
Y327000D01*
X37750Y319500D02*
X41500D01*
X36500Y315500D02*
Y318250D01*
X37500Y314500D02*
X50250D01*
X59000D01*
X66500D02*
X74000D01*
X274000Y354500D02*
Y374500D01*
Y304500D02*
Y324500D01*
X259000D02*
Y327000D01*
Y330750D01*
Y332000D01*
Y334500D01*
Y337000D01*
Y339500D01*
Y342000D01*
Y344500D01*
Y347000D01*
Y348250D01*
Y352000D01*
Y354500D01*
X266500D01*
X271500D01*
X274000D01*
X279000D01*
Y324500D02*
Y354500D01*
X274000Y324500D02*
X279000D01*
X271500D02*
X274000D01*
X266500D02*
X271500D01*
X259000D02*
X266500D01*
X34000Y304500D02*
Y374500D01*
X124000Y315500D02*
Y363500D01*
X125000Y314500D02*
X173000D01*
X174000Y315500D02*
Y363500D01*
X125000Y364500D02*
X173000D01*
X34000Y374500D02*
X274000D01*
X34000Y304500D02*
X274000D01*
M02*
