%TF.GenerationSoftware,Altium Limited,Altium Designer,21.9.2 (33)*%
G04 Layer_Physical_Order=2*
G04 Layer_Color=16711680*
%FSLAX26Y26*%
%MOIN*%
%TF.SameCoordinates,EB25F4C7-955C-4A9D-8DD9-FEE0DACB2CC0*%
%TF.FilePolarity,Positive*%
%TF.FileFunction,Copper,L2,Bot,Signal*%
%TF.Part,Single*%
G01*
G75*
%TA.AperFunction,Conductor*%
%ADD22C,0.010000*%
%ADD23C,0.030000*%
%ADD24C,0.015000*%
%ADD25C,0.020000*%
%TA.AperFunction,ComponentPad*%
%ADD26C,0.058000*%
%ADD27C,0.059055*%
%ADD28R,0.059055X0.059055*%
%ADD29R,0.059055X0.059055*%
%TA.AperFunction,ViaPad*%
%ADD30C,0.200000*%
%ADD31C,0.059055*%
%TA.AperFunction,ComponentPad*%
%ADD32C,0.082677*%
%ADD33C,0.078740*%
%TA.AperFunction,ViaPad*%
%ADD34C,0.065000*%
%ADD35C,0.025000*%
%ADD36C,0.034000*%
G36*
X3169707Y15293D02*
X15293D01*
Y3294707D01*
X3169707D01*
Y15293D01*
D02*
G37*
%LPC*%
G36*
X3045000Y3269787D02*
Y3170000D01*
X3144787D01*
X3142291Y3185758D01*
X3136941Y3202225D01*
X3129080Y3217653D01*
X3118903Y3231660D01*
X3106660Y3243903D01*
X3092653Y3254080D01*
X3077225Y3261941D01*
X3060758Y3267291D01*
X3045000Y3269787D01*
D02*
G37*
G36*
X3025000D02*
X3009242Y3267291D01*
X2992775Y3261941D01*
X2977347Y3254080D01*
X2963340Y3243903D01*
X2951097Y3231660D01*
X2940920Y3217653D01*
X2933059Y3202225D01*
X2927709Y3185758D01*
X2925213Y3170000D01*
X3025000D01*
Y3269787D01*
D02*
G37*
G36*
X160000D02*
Y3170000D01*
X259787D01*
X257291Y3185758D01*
X251941Y3202225D01*
X244080Y3217653D01*
X233903Y3231660D01*
X221660Y3243903D01*
X207653Y3254080D01*
X192225Y3261941D01*
X175758Y3267291D01*
X160000Y3269787D01*
D02*
G37*
G36*
X140000D02*
X124242Y3267291D01*
X107775Y3261941D01*
X92347Y3254080D01*
X78340Y3243903D01*
X66097Y3231660D01*
X55920Y3217653D01*
X48059Y3202225D01*
X42709Y3185758D01*
X40213Y3170000D01*
X140000D01*
Y3269787D01*
D02*
G37*
G36*
X2625000Y3132696D02*
Y3105000D01*
X2652696D01*
X2651342Y3110053D01*
X2646208Y3118947D01*
X2638947Y3126208D01*
X2630053Y3131342D01*
X2625000Y3132696D01*
D02*
G37*
G36*
X2605000D02*
X2599947Y3131342D01*
X2591053Y3126208D01*
X2583792Y3118947D01*
X2578658Y3110053D01*
X2577304Y3105000D01*
X2605000D01*
Y3132696D01*
D02*
G37*
G36*
X2319476Y3129000D02*
X2310524D01*
X2301876Y3126683D01*
X2294124Y3122207D01*
X2287793Y3115876D01*
X2283317Y3108124D01*
X2281000Y3099476D01*
Y3090524D01*
X2283317Y3081876D01*
X2287793Y3074124D01*
X2294124Y3067793D01*
X2301876Y3063317D01*
X2310524Y3061000D01*
X2319476D01*
X2328124Y3063317D01*
X2335876Y3067793D01*
X2342207Y3074124D01*
X2346683Y3081876D01*
X2349000Y3090524D01*
Y3099476D01*
X2346683Y3108124D01*
X2342207Y3115876D01*
X2335876Y3122207D01*
X2328124Y3126683D01*
X2319476Y3129000D01*
D02*
G37*
G36*
X2219476D02*
X2210524D01*
X2201876Y3126683D01*
X2194124Y3122207D01*
X2187793Y3115876D01*
X2183317Y3108124D01*
X2181000Y3099476D01*
Y3090524D01*
X2183317Y3081876D01*
X2187793Y3074124D01*
X2194124Y3067793D01*
X2201876Y3063317D01*
X2210524Y3061000D01*
X2219476D01*
X2228124Y3063317D01*
X2235876Y3067793D01*
X2242207Y3074124D01*
X2246683Y3081876D01*
X2249000Y3090524D01*
Y3099476D01*
X2246683Y3108124D01*
X2242207Y3115876D01*
X2235876Y3122207D01*
X2228124Y3126683D01*
X2219476Y3129000D01*
D02*
G37*
G36*
X2119476D02*
X2110524D01*
X2101876Y3126683D01*
X2094124Y3122207D01*
X2087793Y3115876D01*
X2083317Y3108124D01*
X2081000Y3099476D01*
Y3090524D01*
X2083317Y3081876D01*
X2087793Y3074124D01*
X2094124Y3067793D01*
X2101876Y3063317D01*
X2110524Y3061000D01*
X2119476D01*
X2128124Y3063317D01*
X2135876Y3067793D01*
X2142207Y3074124D01*
X2146683Y3081876D01*
X2149000Y3090524D01*
Y3099476D01*
X2146683Y3108124D01*
X2142207Y3115876D01*
X2135876Y3122207D01*
X2128124Y3126683D01*
X2119476Y3129000D01*
D02*
G37*
G36*
X2019476D02*
X2010524D01*
X2001877Y3126683D01*
X1994123Y3122207D01*
X1987793Y3115876D01*
X1983317Y3108124D01*
X1981000Y3099476D01*
Y3090524D01*
X1983317Y3081876D01*
X1987793Y3074124D01*
X1994123Y3067793D01*
X2001877Y3063317D01*
X2010524Y3061000D01*
X2019476D01*
X2028123Y3063317D01*
X2035877Y3067793D01*
X2042207Y3074124D01*
X2046683Y3081876D01*
X2049000Y3090524D01*
Y3099476D01*
X2046683Y3108124D01*
X2042207Y3115876D01*
X2035877Y3122207D01*
X2028123Y3126683D01*
X2019476Y3129000D01*
D02*
G37*
G36*
X1919476D02*
X1910524D01*
X1901877Y3126683D01*
X1894123Y3122207D01*
X1887793Y3115876D01*
X1883317Y3108124D01*
X1881000Y3099476D01*
Y3090524D01*
X1883317Y3081876D01*
X1887793Y3074124D01*
X1894123Y3067793D01*
X1901877Y3063317D01*
X1910524Y3061000D01*
X1919476D01*
X1928123Y3063317D01*
X1935877Y3067793D01*
X1942207Y3074124D01*
X1946683Y3081876D01*
X1949000Y3090524D01*
Y3099476D01*
X1946683Y3108124D01*
X1942207Y3115876D01*
X1935877Y3122207D01*
X1928123Y3126683D01*
X1919476Y3129000D01*
D02*
G37*
G36*
X1819476D02*
X1810524D01*
X1801877Y3126683D01*
X1794123Y3122207D01*
X1787793Y3115876D01*
X1783317Y3108124D01*
X1781000Y3099476D01*
Y3090524D01*
X1783317Y3081876D01*
X1787793Y3074124D01*
X1794123Y3067793D01*
X1801877Y3063317D01*
X1810524Y3061000D01*
X1819476D01*
X1828123Y3063317D01*
X1835877Y3067793D01*
X1842207Y3074124D01*
X1846683Y3081876D01*
X1849000Y3090524D01*
Y3099476D01*
X1846683Y3108124D01*
X1842207Y3115876D01*
X1835877Y3122207D01*
X1828123Y3126683D01*
X1819476Y3129000D01*
D02*
G37*
G36*
X1719476D02*
X1710524D01*
X1701877Y3126683D01*
X1694123Y3122207D01*
X1687793Y3115876D01*
X1683317Y3108124D01*
X1681000Y3099476D01*
Y3090524D01*
X1683317Y3081876D01*
X1687793Y3074124D01*
X1694123Y3067793D01*
X1701877Y3063317D01*
X1710524Y3061000D01*
X1719476D01*
X1728123Y3063317D01*
X1735877Y3067793D01*
X1742207Y3074124D01*
X1746683Y3081876D01*
X1749000Y3090524D01*
Y3099476D01*
X1746683Y3108124D01*
X1742207Y3115876D01*
X1735877Y3122207D01*
X1728123Y3126683D01*
X1719476Y3129000D01*
D02*
G37*
G36*
X1619476D02*
X1610524D01*
X1601877Y3126683D01*
X1594123Y3122207D01*
X1587793Y3115876D01*
X1583317Y3108124D01*
X1581000Y3099476D01*
Y3090524D01*
X1583317Y3081876D01*
X1587793Y3074124D01*
X1594123Y3067793D01*
X1601877Y3063317D01*
X1610524Y3061000D01*
X1619476D01*
X1628123Y3063317D01*
X1635877Y3067793D01*
X1642207Y3074124D01*
X1646683Y3081876D01*
X1649000Y3090524D01*
Y3099476D01*
X1646683Y3108124D01*
X1642207Y3115876D01*
X1635877Y3122207D01*
X1628123Y3126683D01*
X1619476Y3129000D01*
D02*
G37*
G36*
X1519476D02*
X1510524D01*
X1501877Y3126683D01*
X1494123Y3122207D01*
X1487793Y3115876D01*
X1483317Y3108124D01*
X1481000Y3099476D01*
Y3090524D01*
X1483317Y3081876D01*
X1487793Y3074124D01*
X1494123Y3067793D01*
X1501877Y3063317D01*
X1510524Y3061000D01*
X1519476D01*
X1528123Y3063317D01*
X1535877Y3067793D01*
X1542207Y3074124D01*
X1546683Y3081876D01*
X1549000Y3090524D01*
Y3099476D01*
X1546683Y3108124D01*
X1542207Y3115876D01*
X1535877Y3122207D01*
X1528123Y3126683D01*
X1519476Y3129000D01*
D02*
G37*
G36*
X1419476D02*
X1410524D01*
X1401877Y3126683D01*
X1394123Y3122207D01*
X1387793Y3115876D01*
X1383317Y3108124D01*
X1381000Y3099476D01*
Y3090524D01*
X1383317Y3081876D01*
X1387793Y3074124D01*
X1394123Y3067793D01*
X1401877Y3063317D01*
X1410524Y3061000D01*
X1419476D01*
X1428123Y3063317D01*
X1435877Y3067793D01*
X1442207Y3074124D01*
X1446683Y3081876D01*
X1449000Y3090524D01*
Y3099476D01*
X1446683Y3108124D01*
X1442207Y3115876D01*
X1435877Y3122207D01*
X1428123Y3126683D01*
X1419476Y3129000D01*
D02*
G37*
G36*
X1319476D02*
X1310524D01*
X1301877Y3126683D01*
X1294123Y3122207D01*
X1287793Y3115876D01*
X1283317Y3108124D01*
X1281000Y3099476D01*
Y3090524D01*
X1283317Y3081876D01*
X1287793Y3074124D01*
X1294123Y3067793D01*
X1301877Y3063317D01*
X1310524Y3061000D01*
X1319476D01*
X1328123Y3063317D01*
X1335877Y3067793D01*
X1342207Y3074124D01*
X1346683Y3081876D01*
X1349000Y3090524D01*
Y3099476D01*
X1346683Y3108124D01*
X1342207Y3115876D01*
X1335877Y3122207D01*
X1328123Y3126683D01*
X1319476Y3129000D01*
D02*
G37*
G36*
X1219476D02*
X1210524D01*
X1201877Y3126683D01*
X1194123Y3122207D01*
X1187793Y3115876D01*
X1183317Y3108124D01*
X1181000Y3099476D01*
Y3090524D01*
X1183317Y3081876D01*
X1187793Y3074124D01*
X1194123Y3067793D01*
X1201877Y3063317D01*
X1210524Y3061000D01*
X1219476D01*
X1228123Y3063317D01*
X1235877Y3067793D01*
X1242207Y3074124D01*
X1246683Y3081876D01*
X1249000Y3090524D01*
Y3099476D01*
X1246683Y3108124D01*
X1242207Y3115876D01*
X1235877Y3122207D01*
X1228123Y3126683D01*
X1219476Y3129000D01*
D02*
G37*
G36*
X1119476D02*
X1110524D01*
X1101877Y3126683D01*
X1094123Y3122207D01*
X1087793Y3115876D01*
X1083317Y3108124D01*
X1081000Y3099476D01*
Y3090524D01*
X1083317Y3081876D01*
X1087793Y3074124D01*
X1094123Y3067793D01*
X1101877Y3063317D01*
X1110524Y3061000D01*
X1119476D01*
X1128123Y3063317D01*
X1135877Y3067793D01*
X1142207Y3074124D01*
X1146683Y3081876D01*
X1149000Y3090524D01*
Y3099476D01*
X1146683Y3108124D01*
X1142207Y3115876D01*
X1135877Y3122207D01*
X1128123Y3126683D01*
X1119476Y3129000D01*
D02*
G37*
G36*
X1019476D02*
X1010524D01*
X1001876Y3126683D01*
X994124Y3122207D01*
X987793Y3115876D01*
X983317Y3108124D01*
X981000Y3099476D01*
Y3090524D01*
X983317Y3081876D01*
X987793Y3074124D01*
X994124Y3067793D01*
X1001876Y3063317D01*
X1010524Y3061000D01*
X1019476D01*
X1028123Y3063317D01*
X1035877Y3067793D01*
X1042207Y3074124D01*
X1046683Y3081876D01*
X1049000Y3090524D01*
Y3099476D01*
X1046683Y3108124D01*
X1042207Y3115876D01*
X1035877Y3122207D01*
X1028123Y3126683D01*
X1019476Y3129000D01*
D02*
G37*
G36*
X919476D02*
X910524D01*
X901876Y3126683D01*
X894124Y3122207D01*
X887793Y3115876D01*
X883317Y3108124D01*
X881000Y3099476D01*
Y3090524D01*
X883317Y3081876D01*
X887793Y3074124D01*
X894124Y3067793D01*
X901876Y3063317D01*
X910524Y3061000D01*
X919476D01*
X928124Y3063317D01*
X935876Y3067793D01*
X942207Y3074124D01*
X946683Y3081876D01*
X949000Y3090524D01*
Y3099476D01*
X946683Y3108124D01*
X942207Y3115876D01*
X935876Y3122207D01*
X928124Y3126683D01*
X919476Y3129000D01*
D02*
G37*
G36*
X419476D02*
X410524D01*
X401877Y3126683D01*
X394123Y3122207D01*
X387793Y3115876D01*
X383317Y3108124D01*
X381000Y3099476D01*
Y3090524D01*
X383317Y3081876D01*
X387793Y3074124D01*
X394123Y3067793D01*
X401877Y3063317D01*
X410524Y3061000D01*
X419476D01*
X428123Y3063317D01*
X435877Y3067793D01*
X442207Y3074124D01*
X446683Y3081876D01*
X449000Y3090524D01*
Y3099476D01*
X446683Y3108124D01*
X442207Y3115876D01*
X435877Y3122207D01*
X428123Y3126683D01*
X419476Y3129000D01*
D02*
G37*
G36*
X319476D02*
X310524D01*
X301877Y3126683D01*
X294123Y3122207D01*
X287793Y3115876D01*
X283317Y3108124D01*
X281000Y3099476D01*
Y3090524D01*
X283317Y3081876D01*
X287793Y3074124D01*
X294123Y3067793D01*
X301877Y3063317D01*
X310524Y3061000D01*
X319476D01*
X328123Y3063317D01*
X335877Y3067793D01*
X342207Y3074124D01*
X346683Y3081876D01*
X349000Y3090524D01*
Y3099476D01*
X346683Y3108124D01*
X342207Y3115876D01*
X335877Y3122207D01*
X328123Y3126683D01*
X319476Y3129000D01*
D02*
G37*
G36*
X2652696Y3085000D02*
X2625000D01*
Y3057304D01*
X2630053Y3058658D01*
X2638947Y3063792D01*
X2646208Y3071053D01*
X2651342Y3079947D01*
X2652696Y3085000D01*
D02*
G37*
G36*
X2605000D02*
X2577304D01*
X2578658Y3079947D01*
X2583792Y3071053D01*
X2591053Y3063792D01*
X2599947Y3058658D01*
X2605000Y3057304D01*
Y3085000D01*
D02*
G37*
G36*
X3144787Y3150000D02*
X3045000D01*
Y3050213D01*
X3060758Y3052709D01*
X3077225Y3058059D01*
X3092653Y3065920D01*
X3106660Y3076097D01*
X3118903Y3088340D01*
X3129080Y3102347D01*
X3136941Y3117775D01*
X3142291Y3134242D01*
X3144787Y3150000D01*
D02*
G37*
G36*
X3025000D02*
X2925213D01*
X2927709Y3134242D01*
X2933059Y3117775D01*
X2940920Y3102347D01*
X2951097Y3088340D01*
X2963340Y3076097D01*
X2977347Y3065920D01*
X2992775Y3058059D01*
X3009242Y3052709D01*
X3025000Y3050213D01*
Y3150000D01*
D02*
G37*
G36*
X259787D02*
X160000D01*
Y3050213D01*
X175758Y3052709D01*
X192225Y3058059D01*
X207653Y3065920D01*
X221660Y3076097D01*
X233903Y3088340D01*
X244080Y3102347D01*
X251941Y3117775D01*
X257291Y3134242D01*
X259787Y3150000D01*
D02*
G37*
G36*
X140000D02*
X40213D01*
X42709Y3134242D01*
X48059Y3117775D01*
X55920Y3102347D01*
X66097Y3088340D01*
X78340Y3076097D01*
X92347Y3065920D01*
X107775Y3058059D01*
X124242Y3052709D01*
X140000Y3050213D01*
Y3150000D01*
D02*
G37*
G36*
X819476Y3029000D02*
X810524D01*
X801876Y3026683D01*
X794124Y3022207D01*
X787793Y3015876D01*
X783317Y3008124D01*
X781000Y2999476D01*
Y2990524D01*
X783317Y2981876D01*
X787793Y2974124D01*
X794124Y2967793D01*
X801876Y2963317D01*
X810524Y2961000D01*
X819476D01*
X828124Y2963317D01*
X835876Y2967793D01*
X842207Y2974124D01*
X846683Y2981876D01*
X849000Y2990524D01*
Y2999476D01*
X846683Y3008124D01*
X842207Y3015876D01*
X835876Y3022207D01*
X828124Y3026683D01*
X819476Y3029000D01*
D02*
G37*
G36*
X2269476Y3004000D02*
X2260524D01*
X2251876Y3001683D01*
X2244124Y2997207D01*
X2237793Y2990876D01*
X2233317Y2983124D01*
X2231000Y2974476D01*
Y2965524D01*
X2233317Y2956876D01*
X2237793Y2949124D01*
X2244124Y2942793D01*
X2251876Y2938317D01*
X2260524Y2936000D01*
X2269476D01*
X2278124Y2938317D01*
X2285876Y2942793D01*
X2292207Y2949124D01*
X2296683Y2956876D01*
X2299000Y2965524D01*
Y2974476D01*
X2296683Y2983124D01*
X2292207Y2990876D01*
X2285876Y2997207D01*
X2278124Y3001683D01*
X2269476Y3004000D01*
D02*
G37*
G36*
X2169476D02*
X2160524D01*
X2151876Y3001683D01*
X2144124Y2997207D01*
X2137793Y2990876D01*
X2133317Y2983124D01*
X2131000Y2974476D01*
Y2965524D01*
X2133317Y2956876D01*
X2137793Y2949124D01*
X2144124Y2942793D01*
X2151876Y2938317D01*
X2160524Y2936000D01*
X2169476D01*
X2178124Y2938317D01*
X2185876Y2942793D01*
X2192207Y2949124D01*
X2196683Y2956876D01*
X2199000Y2965524D01*
Y2974476D01*
X2196683Y2983124D01*
X2192207Y2990876D01*
X2185876Y2997207D01*
X2178124Y3001683D01*
X2169476Y3004000D01*
D02*
G37*
G36*
X2069476D02*
X2060524D01*
X2051876Y3001683D01*
X2044123Y2997207D01*
X2037793Y2990876D01*
X2033317Y2983124D01*
X2031000Y2974476D01*
Y2965524D01*
X2033317Y2956876D01*
X2037793Y2949124D01*
X2044123Y2942793D01*
X2051876Y2938317D01*
X2060524Y2936000D01*
X2069476D01*
X2078124Y2938317D01*
X2085876Y2942793D01*
X2092207Y2949124D01*
X2096683Y2956876D01*
X2099000Y2965524D01*
Y2974476D01*
X2096683Y2983124D01*
X2092207Y2990876D01*
X2085876Y2997207D01*
X2078124Y3001683D01*
X2069476Y3004000D01*
D02*
G37*
G36*
X1969476D02*
X1960524D01*
X1951877Y3001683D01*
X1944123Y2997207D01*
X1937793Y2990876D01*
X1933317Y2983124D01*
X1931000Y2974476D01*
Y2965524D01*
X1933317Y2956876D01*
X1937793Y2949124D01*
X1944123Y2942793D01*
X1951877Y2938317D01*
X1960524Y2936000D01*
X1969476D01*
X1978123Y2938317D01*
X1985877Y2942793D01*
X1992207Y2949124D01*
X1996683Y2956876D01*
X1999000Y2965524D01*
Y2974476D01*
X1996683Y2983124D01*
X1992207Y2990876D01*
X1985877Y2997207D01*
X1978123Y3001683D01*
X1969476Y3004000D01*
D02*
G37*
G36*
X819476Y2929000D02*
X810524D01*
X801876Y2926683D01*
X794124Y2922207D01*
X787793Y2915876D01*
X783317Y2908124D01*
X781000Y2899476D01*
Y2890524D01*
X783317Y2881876D01*
X787793Y2874124D01*
X794124Y2867793D01*
X801876Y2863317D01*
X810524Y2861000D01*
X819476D01*
X828124Y2863317D01*
X835876Y2867793D01*
X842207Y2874124D01*
X846683Y2881876D01*
X849000Y2890524D01*
Y2899476D01*
X846683Y2908124D01*
X842207Y2915876D01*
X835876Y2922207D01*
X828124Y2926683D01*
X819476Y2929000D01*
D02*
G37*
G36*
Y2829000D02*
X810524D01*
X801876Y2826683D01*
X794124Y2822207D01*
X787793Y2815876D01*
X783317Y2808124D01*
X781000Y2799476D01*
Y2790524D01*
X783317Y2781876D01*
X787793Y2774124D01*
X794124Y2767793D01*
X801876Y2763317D01*
X810524Y2761000D01*
X819476D01*
X828124Y2763317D01*
X835876Y2767793D01*
X842207Y2774124D01*
X846683Y2781876D01*
X849000Y2790524D01*
Y2799476D01*
X846683Y2808124D01*
X842207Y2815876D01*
X835876Y2822207D01*
X828124Y2826683D01*
X819476Y2829000D01*
D02*
G37*
G36*
X2519476Y3129000D02*
X2510524D01*
X2501876Y3126683D01*
X2494124Y3122207D01*
X2487793Y3115876D01*
X2483317Y3108124D01*
X2481000Y3099476D01*
Y3090524D01*
X2483317Y3081876D01*
X2487793Y3074124D01*
X2494124Y3067793D01*
X2501876Y3063317D01*
X2504804Y3062533D01*
Y3004223D01*
X2251283Y2750702D01*
X2236148D01*
X2234235Y2755321D01*
X2422210Y2943296D01*
X2424420Y2946604D01*
X2425196Y2950506D01*
Y3062533D01*
X2428124Y3063317D01*
X2435876Y3067793D01*
X2442207Y3074124D01*
X2446683Y3081876D01*
X2449000Y3090524D01*
Y3099476D01*
X2446683Y3108124D01*
X2442207Y3115876D01*
X2435876Y3122207D01*
X2428124Y3126683D01*
X2419476Y3129000D01*
X2410524D01*
X2401876Y3126683D01*
X2394124Y3122207D01*
X2387793Y3115876D01*
X2383317Y3108124D01*
X2381000Y3099476D01*
Y3090524D01*
X2383317Y3081876D01*
X2387793Y3074124D01*
X2394124Y3067793D01*
X2401876Y3063317D01*
X2404804Y3062533D01*
Y2954729D01*
X2395799Y2945724D01*
X2392207Y2949124D01*
X2396683Y2956876D01*
X2399000Y2965524D01*
Y2974476D01*
X2396683Y2983124D01*
X2392207Y2990876D01*
X2385876Y2997207D01*
X2378124Y3001683D01*
X2369476Y3004000D01*
X2360524D01*
X2351876Y3001683D01*
X2344124Y2997207D01*
X2337793Y2990876D01*
X2333317Y2983124D01*
X2331000Y2974476D01*
Y2965524D01*
X2333317Y2956876D01*
X2337793Y2949124D01*
X2344124Y2942793D01*
X2351876Y2938317D01*
X2360524Y2936000D01*
X2369476D01*
X2378124Y2938317D01*
X2385876Y2942793D01*
X2389276Y2939201D01*
X2215777Y2765702D01*
X1799139D01*
X1795237Y2764926D01*
X1791929Y2762716D01*
X1546922Y2517709D01*
X1546785Y2517575D01*
X1546098Y2517320D01*
X1540668Y2517415D01*
X1535877Y2522207D01*
X1528123Y2526683D01*
X1519476Y2529000D01*
X1510524D01*
X1501877Y2526683D01*
X1494123Y2522207D01*
X1487793Y2515876D01*
X1483317Y2508124D01*
X1481000Y2499476D01*
Y2490524D01*
X1483317Y2481876D01*
X1487793Y2474124D01*
X1494123Y2467793D01*
X1501877Y2463317D01*
X1510524Y2461000D01*
X1519476D01*
X1528123Y2463317D01*
X1535877Y2467793D01*
X1538804Y2470721D01*
X1543804Y2468650D01*
Y2338223D01*
X1472790Y2267210D01*
X1470580Y2263902D01*
X1469804Y2260000D01*
Y2234553D01*
X1465164Y2229913D01*
X1462500Y2223481D01*
Y2223410D01*
X1457500Y2221338D01*
X1435392Y2243447D01*
Y2467513D01*
X1435877Y2467793D01*
X1442207Y2474124D01*
X1446683Y2481876D01*
X1449000Y2490524D01*
Y2499476D01*
X1446683Y2508124D01*
X1442207Y2515876D01*
X1435877Y2522207D01*
X1428123Y2526683D01*
X1419476Y2529000D01*
X1410524D01*
X1401877Y2526683D01*
X1394123Y2522207D01*
X1387793Y2515876D01*
X1383317Y2508124D01*
X1381000Y2499476D01*
Y2490524D01*
X1383317Y2481876D01*
X1387793Y2474124D01*
X1394123Y2467793D01*
X1394608Y2467513D01*
Y2235000D01*
X1396160Y2227196D01*
X1400581Y2220581D01*
X1524608Y2096553D01*
Y2025937D01*
X1395038Y1924710D01*
X1394913Y1924836D01*
X1388481Y1927500D01*
X1381519D01*
X1375087Y1924836D01*
X1370164Y1919913D01*
X1367500Y1913481D01*
Y1906519D01*
X1370164Y1900087D01*
X1375087Y1895164D01*
X1381519Y1892500D01*
X1388481D01*
X1394913Y1895164D01*
X1397004Y1897255D01*
X1682996D01*
X1686279Y1893972D01*
X1690053Y1892409D01*
X1691404Y1886688D01*
X1550988Y1746272D01*
X1548225Y1742138D01*
X1547255Y1737260D01*
Y1431636D01*
X1542255Y1429565D01*
X1537745Y1434075D01*
X1535000Y1435212D01*
Y1415000D01*
X1525000D01*
Y1405000D01*
X1504788D01*
X1505722Y1402745D01*
X1503902Y1397745D01*
X1457004D01*
X1454913Y1399836D01*
X1448481Y1402500D01*
X1441519D01*
X1435087Y1399836D01*
X1430164Y1394913D01*
X1427500Y1388481D01*
Y1381519D01*
X1430164Y1375087D01*
X1435087Y1370164D01*
X1441519Y1367500D01*
X1448481D01*
X1454913Y1370164D01*
X1457004Y1372255D01*
X1692996D01*
X1695087Y1370164D01*
X1701519Y1367500D01*
X1708481D01*
X1714913Y1370164D01*
X1719836Y1375087D01*
X1722500Y1381519D01*
Y1388481D01*
X1719836Y1394913D01*
X1714913Y1399836D01*
X1708481Y1402500D01*
X1701519D01*
X1695087Y1399836D01*
X1692996Y1397745D01*
X1572745D01*
Y1416223D01*
X1575000Y1417729D01*
Y1440000D01*
Y1462271D01*
X1572745Y1463777D01*
Y1731981D01*
X1759012Y1918248D01*
X1761775Y1922383D01*
X1762745Y1927260D01*
Y2294749D01*
X1761775Y2299626D01*
X1759012Y2303761D01*
X1727745Y2335028D01*
Y2463216D01*
X1728123Y2463317D01*
X1735877Y2467793D01*
X1742207Y2474124D01*
X1746683Y2481876D01*
X1749000Y2490524D01*
Y2499476D01*
X1746683Y2508124D01*
X1742207Y2515876D01*
X1735877Y2522207D01*
X1728123Y2526683D01*
X1719476Y2529000D01*
X1710524D01*
X1701877Y2526683D01*
X1694123Y2522207D01*
X1687793Y2515876D01*
X1683317Y2508124D01*
X1681000Y2499476D01*
Y2490524D01*
X1683317Y2481876D01*
X1687793Y2474124D01*
X1694123Y2467793D01*
X1701877Y2463317D01*
X1702255Y2463216D01*
Y2329749D01*
X1703225Y2324871D01*
X1705988Y2320737D01*
X1737255Y2289470D01*
Y2268658D01*
X1732255Y2267142D01*
X1732210Y2267210D01*
X1667500Y2331919D01*
Y2338481D01*
X1664836Y2344913D01*
X1659913Y2349836D01*
X1653481Y2352500D01*
X1646519D01*
X1640087Y2349836D01*
X1635196Y2344945D01*
X1635010Y2344946D01*
X1630196Y2345984D01*
Y2400447D01*
X1634836Y2405087D01*
X1637500Y2411519D01*
Y2418481D01*
X1634836Y2424913D01*
X1629913Y2429836D01*
X1623481Y2432500D01*
X1616519D01*
X1610087Y2429836D01*
X1605164Y2424913D01*
X1602500Y2418481D01*
Y2411519D01*
X1605164Y2405087D01*
X1609804Y2400447D01*
Y2333180D01*
X1610580Y2329278D01*
X1612790Y2325971D01*
X1684804Y2253957D01*
Y2199553D01*
X1680164Y2194913D01*
X1677500Y2188481D01*
Y2181519D01*
X1680164Y2175087D01*
X1685087Y2170164D01*
X1691519Y2167500D01*
X1698481D01*
X1704913Y2170164D01*
X1709836Y2175087D01*
X1712500Y2181519D01*
Y2188481D01*
X1709836Y2194913D01*
X1705196Y2199553D01*
Y2209016D01*
X1710010Y2210054D01*
X1710196Y2210055D01*
X1715087Y2205164D01*
X1721519Y2202500D01*
X1728481D01*
X1732255Y2204063D01*
X1737255Y2200974D01*
Y1932539D01*
X1718312Y1913596D01*
X1712591Y1914947D01*
X1711028Y1918721D01*
X1706105Y1923643D01*
X1699673Y1926308D01*
X1692917D01*
X1565392Y2025937D01*
Y2104999D01*
X1565392Y2105000D01*
X1563840Y2112804D01*
X1559419Y2119419D01*
X1481338Y2197500D01*
X1483409Y2202500D01*
X1483481D01*
X1489913Y2205164D01*
X1494836Y2210087D01*
X1497500Y2216519D01*
Y2223481D01*
X1494836Y2229913D01*
X1490196Y2234553D01*
Y2255777D01*
X1497500Y2263081D01*
X1502500Y2261010D01*
Y2256519D01*
X1505164Y2250087D01*
X1510087Y2245164D01*
X1516519Y2242500D01*
X1523481D01*
X1529913Y2245164D01*
X1534836Y2250087D01*
X1537500Y2256519D01*
Y2263081D01*
X1576210Y2301790D01*
X1578420Y2305098D01*
X1579196Y2309000D01*
Y2479014D01*
X1584196Y2480354D01*
X1587793Y2474124D01*
X1594123Y2467793D01*
X1601877Y2463317D01*
X1610524Y2461000D01*
X1619476D01*
X1628123Y2463317D01*
X1635877Y2467793D01*
X1642207Y2474124D01*
X1646683Y2481876D01*
X1649000Y2490524D01*
Y2499476D01*
X1646683Y2508124D01*
X1642207Y2515876D01*
X1635877Y2522207D01*
X1628123Y2526683D01*
X1619476Y2529000D01*
X1615336D01*
X1613265Y2534000D01*
X1809575Y2730310D01*
X2255506D01*
X2259408Y2731086D01*
X2262716Y2733296D01*
X2522210Y2992790D01*
X2524420Y2996098D01*
X2525196Y3000000D01*
Y3062533D01*
X2528124Y3063317D01*
X2535876Y3067793D01*
X2542207Y3074124D01*
X2546683Y3081876D01*
X2549000Y3090524D01*
Y3099476D01*
X2546683Y3108124D01*
X2542207Y3115876D01*
X2535876Y3122207D01*
X2528124Y3126683D01*
X2519476Y3129000D01*
D02*
G37*
G36*
X1649376Y2697000D02*
X1640624D01*
X1636741Y2695392D01*
X1515000D01*
X1507196Y2693840D01*
X1500581Y2689419D01*
X1411420Y2600259D01*
X1407538Y2598651D01*
X1401349Y2592462D01*
X1398000Y2584376D01*
Y2575624D01*
X1401349Y2567538D01*
X1407538Y2561349D01*
X1415624Y2558000D01*
X1424376D01*
X1432462Y2561349D01*
X1438651Y2567538D01*
X1440259Y2571421D01*
X1523447Y2654608D01*
X1636741D01*
X1640624Y2653000D01*
X1649376D01*
X1657462Y2656349D01*
X1663651Y2662538D01*
X1667000Y2670624D01*
Y2679376D01*
X1663651Y2687462D01*
X1657462Y2693651D01*
X1649376Y2697000D01*
D02*
G37*
G36*
X3095000Y2641320D02*
Y2610000D01*
X3126320D01*
X3124604Y2616404D01*
X3119008Y2626096D01*
X3111096Y2634008D01*
X3101404Y2639604D01*
X3095000Y2641320D01*
D02*
G37*
G36*
X3075000D02*
X3068596Y2639604D01*
X3058904Y2634008D01*
X3050992Y2626096D01*
X3045396Y2616404D01*
X3043680Y2610000D01*
X3075000D01*
Y2641320D01*
D02*
G37*
G36*
X110000D02*
Y2610000D01*
X141320D01*
X139604Y2616404D01*
X134008Y2626096D01*
X126096Y2634008D01*
X116404Y2639604D01*
X110000Y2641320D01*
D02*
G37*
G36*
X90000D02*
X83596Y2639604D01*
X73904Y2634008D01*
X65992Y2626096D01*
X60396Y2616404D01*
X58680Y2610000D01*
X90000D01*
Y2641320D01*
D02*
G37*
G36*
X1269376Y2602000D02*
X1260624D01*
X1256741Y2600392D01*
X1200001D01*
X1200000Y2600392D01*
X1192196Y2598840D01*
X1185581Y2594419D01*
X1185581Y2594419D01*
X1120017Y2528855D01*
X1119476Y2529000D01*
X1110524D01*
X1101877Y2526683D01*
X1094123Y2522207D01*
X1087793Y2515876D01*
X1083317Y2508124D01*
X1081000Y2499476D01*
Y2490524D01*
X1083317Y2481876D01*
X1087793Y2474124D01*
X1094123Y2467793D01*
X1101877Y2463317D01*
X1110524Y2461000D01*
X1119476D01*
X1128123Y2463317D01*
X1135877Y2467793D01*
X1142207Y2474124D01*
X1146683Y2481876D01*
X1149000Y2490524D01*
Y2499476D01*
X1148855Y2500017D01*
X1208447Y2559608D01*
X1256741D01*
X1260624Y2558000D01*
X1269376D01*
X1277462Y2561349D01*
X1283651Y2567538D01*
X1287000Y2575624D01*
Y2584376D01*
X1283651Y2592462D01*
X1277462Y2598651D01*
X1269376Y2602000D01*
D02*
G37*
G36*
X719476Y3129000D02*
X710524D01*
X701876Y3126683D01*
X694124Y3122207D01*
X687793Y3115876D01*
X683317Y3108124D01*
X681000Y3099476D01*
Y3090524D01*
X683317Y3081876D01*
X687793Y3074124D01*
X694124Y3067793D01*
X701876Y3063317D01*
X702255Y3063216D01*
Y2736310D01*
X703225Y2731433D01*
X705988Y2727298D01*
X801936Y2631350D01*
X800390Y2625825D01*
X794124Y2622207D01*
X787793Y2615876D01*
X783317Y2608124D01*
X781000Y2599476D01*
Y2595405D01*
X776000Y2593334D01*
X627745Y2741589D01*
Y3063216D01*
X628124Y3063317D01*
X635876Y3067793D01*
X642207Y3074124D01*
X646683Y3081876D01*
X649000Y3090524D01*
Y3099476D01*
X646683Y3108124D01*
X642207Y3115876D01*
X635876Y3122207D01*
X628124Y3126683D01*
X619476Y3129000D01*
X610524D01*
X601876Y3126683D01*
X594124Y3122207D01*
X587793Y3115876D01*
X583317Y3108124D01*
X581000Y3099476D01*
Y3090524D01*
X583317Y3081876D01*
X587793Y3074124D01*
X594124Y3067793D01*
X601876Y3063317D01*
X602255Y3063216D01*
Y2736310D01*
X603225Y2731433D01*
X605988Y2727298D01*
X788798Y2544488D01*
X792933Y2541725D01*
X797810Y2540755D01*
X809911D01*
X816666Y2534000D01*
X814595Y2529000D01*
X810524D01*
X801876Y2526683D01*
X794124Y2522207D01*
X787793Y2515876D01*
X784175Y2509610D01*
X778650Y2508064D01*
X527745Y2758969D01*
Y3063216D01*
X528124Y3063317D01*
X535876Y3067793D01*
X542207Y3074124D01*
X546683Y3081876D01*
X549000Y3090524D01*
Y3099476D01*
X546683Y3108124D01*
X542207Y3115876D01*
X535876Y3122207D01*
X528124Y3126683D01*
X519476Y3129000D01*
X510524D01*
X501877Y3126683D01*
X494123Y3122207D01*
X487793Y3115876D01*
X483317Y3108124D01*
X481000Y3099476D01*
Y3090524D01*
X483317Y3081876D01*
X487793Y3074124D01*
X494123Y3067793D01*
X501877Y3063317D01*
X502255Y3063216D01*
Y2753690D01*
X503225Y2748812D01*
X505988Y2744678D01*
X716666Y2534000D01*
X714595Y2529000D01*
X710524D01*
X701876Y2526683D01*
X694124Y2522207D01*
X687793Y2515876D01*
X683317Y2508124D01*
X681000Y2499476D01*
Y2490524D01*
X683317Y2481876D01*
X684832Y2479252D01*
X629815Y2424235D01*
X625196Y2426148D01*
Y2462533D01*
X628124Y2463317D01*
X635876Y2467793D01*
X642207Y2474124D01*
X646683Y2481876D01*
X649000Y2490524D01*
Y2499476D01*
X646683Y2508124D01*
X642207Y2515876D01*
X635876Y2522207D01*
X628124Y2526683D01*
X619476Y2529000D01*
X610524D01*
X601876Y2526683D01*
X594124Y2522207D01*
X587793Y2515876D01*
X583317Y2508124D01*
X581000Y2499476D01*
Y2490524D01*
X583317Y2481876D01*
X587793Y2474124D01*
X594124Y2467793D01*
X601876Y2463317D01*
X604804Y2462533D01*
Y2420436D01*
X529815Y2345448D01*
X525196Y2347361D01*
Y2462533D01*
X528124Y2463317D01*
X535876Y2467793D01*
X542207Y2474124D01*
X546683Y2481876D01*
X549000Y2490524D01*
Y2499476D01*
X546683Y2508124D01*
X542207Y2515876D01*
X535876Y2522207D01*
X528124Y2526683D01*
X519476Y2529000D01*
X510524D01*
X501877Y2526683D01*
X494123Y2522207D01*
X487793Y2515876D01*
X483317Y2508124D01*
X481000Y2499476D01*
Y2490524D01*
X483317Y2481876D01*
X487793Y2474124D01*
X494123Y2467793D01*
X501877Y2463317D01*
X504804Y2462533D01*
Y2344223D01*
X429815Y2269235D01*
X425196Y2271148D01*
Y2462533D01*
X428123Y2463317D01*
X435877Y2467793D01*
X442207Y2474124D01*
X446683Y2481876D01*
X449000Y2490524D01*
Y2499476D01*
X446683Y2508124D01*
X442207Y2515876D01*
X435877Y2522207D01*
X428123Y2526683D01*
X419476Y2529000D01*
X410524D01*
X401877Y2526683D01*
X394123Y2522207D01*
X387793Y2515876D01*
X383317Y2508124D01*
X381000Y2499476D01*
Y2490524D01*
X383317Y2481876D01*
X387793Y2474124D01*
X394123Y2467793D01*
X401877Y2463317D01*
X404804Y2462533D01*
Y2265436D01*
X353263Y2213895D01*
X351053Y2210587D01*
X350276Y2206686D01*
Y335823D01*
X345657Y333909D01*
X325196Y354370D01*
Y2462533D01*
X328123Y2463317D01*
X335877Y2467793D01*
X342207Y2474124D01*
X346683Y2481876D01*
X349000Y2490524D01*
Y2499476D01*
X346683Y2508124D01*
X342207Y2515876D01*
X335877Y2522207D01*
X328123Y2526683D01*
X319476Y2529000D01*
X310524D01*
X301877Y2526683D01*
X294123Y2522207D01*
X287793Y2515876D01*
X283317Y2508124D01*
X281000Y2499476D01*
Y2490524D01*
X283317Y2481876D01*
X287793Y2474124D01*
X294123Y2467793D01*
X301877Y2463317D01*
X304804Y2462533D01*
Y350147D01*
X305580Y346245D01*
X307790Y342938D01*
X509192Y141536D01*
X506603Y137054D01*
X504937Y137500D01*
X495063D01*
X485526Y134944D01*
X476974Y130007D01*
X469993Y123025D01*
X465056Y114475D01*
X462500Y104937D01*
Y95063D01*
X465056Y85525D01*
X469993Y76975D01*
X476974Y69993D01*
X485526Y65056D01*
X495063Y62500D01*
X504937D01*
X514475Y65056D01*
X523025Y69993D01*
X530008Y76975D01*
X534944Y85525D01*
X537500Y95063D01*
Y104937D01*
X534944Y114475D01*
X530008Y123025D01*
X525729Y127304D01*
X527800Y132304D01*
X765667D01*
X767581Y127685D01*
X765992Y126096D01*
X760396Y116404D01*
X758680Y110000D01*
X841320D01*
X839604Y116404D01*
X834008Y126096D01*
X832419Y127685D01*
X834333Y132304D01*
X1065667D01*
X1067581Y127685D01*
X1065992Y126096D01*
X1060396Y116404D01*
X1058680Y110000D01*
X1143041D01*
X1144809Y112304D01*
X1459320D01*
X1463222Y113080D01*
X1466529Y115290D01*
X1479710Y128471D01*
X1481920Y131778D01*
X1482696Y135680D01*
Y193441D01*
X1481920Y197343D01*
X1481210Y198405D01*
X1482500Y201519D01*
Y208481D01*
X1480997Y212108D01*
X1484173Y217108D01*
X1924086D01*
X1924797Y216633D01*
X1932601Y215081D01*
X1932601Y215081D01*
X2459130D01*
X2466933Y216633D01*
X2473549Y221053D01*
X2504550Y252054D01*
X2510454Y250472D01*
X2519546D01*
X2528327Y252826D01*
X2536200Y257371D01*
X2542629Y263800D01*
X2543096Y264608D01*
X2574951D01*
X2575000Y264588D01*
X2660000D01*
X2664588Y261076D01*
Y220000D01*
X2666173Y216173D01*
X2670000Y214588D01*
X2750000D01*
X2753827Y216173D01*
X2755412Y220000D01*
Y1065000D01*
X2753827Y1068827D01*
X2750000Y1070412D01*
X2670000D01*
X2666173Y1068827D01*
X2664588Y1065000D01*
Y983924D01*
X2660000Y980412D01*
X2575000D01*
X2571173Y978827D01*
X2569588Y975000D01*
Y945392D01*
X2543096D01*
X2542629Y946200D01*
X2536200Y952629D01*
X2528327Y957174D01*
X2519546Y959528D01*
X2510454D01*
X2501673Y957174D01*
X2493800Y952629D01*
X2490864Y949693D01*
X2485864Y951764D01*
Y1090473D01*
X2549528D01*
Y1159527D01*
X2485864D01*
Y1582026D01*
X2549552Y1645714D01*
X2550454Y1645473D01*
X2559546D01*
X2568327Y1647825D01*
X2576200Y1652371D01*
X2582629Y1658800D01*
X2587175Y1666673D01*
X2589528Y1675454D01*
Y1684546D01*
X2587175Y1693327D01*
X2582629Y1701200D01*
X2576200Y1707629D01*
X2568327Y1712175D01*
X2559546Y1714527D01*
X2550454D01*
X2541673Y1712175D01*
X2533800Y1707629D01*
X2527371Y1701200D01*
X2522825Y1693327D01*
X2520472Y1684546D01*
Y1675454D01*
X2520714Y1674553D01*
X2451053Y1604892D01*
X2446633Y1598276D01*
X2445081Y1590472D01*
Y1150820D01*
X2440081Y1148749D01*
X2436200Y1152629D01*
X2435392Y1153096D01*
Y1651553D01*
X2549553Y1765714D01*
X2550454Y1765473D01*
X2559546D01*
X2568327Y1767825D01*
X2576200Y1772371D01*
X2582629Y1778800D01*
X2587175Y1786673D01*
X2589528Y1795454D01*
Y1804546D01*
X2587175Y1813327D01*
X2582629Y1821200D01*
X2576200Y1827629D01*
X2568327Y1832175D01*
X2559546Y1834527D01*
X2550454D01*
X2541673Y1832175D01*
X2533800Y1827629D01*
X2527371Y1821200D01*
X2522825Y1813327D01*
X2520472Y1804546D01*
Y1795454D01*
X2520714Y1794553D01*
X2400581Y1674419D01*
X2396160Y1667804D01*
X2394608Y1660000D01*
Y1153096D01*
X2393800Y1152629D01*
X2387371Y1146200D01*
X2382825Y1138327D01*
X2380472Y1129546D01*
Y1120454D01*
X2382825Y1111673D01*
X2387371Y1103800D01*
X2393800Y1097371D01*
X2394608Y1096904D01*
Y1025392D01*
X2063744D01*
X2055941Y1023840D01*
X2049325Y1019419D01*
X1975091Y945185D01*
X1968653D01*
X1895392Y1018447D01*
Y1090000D01*
X1893840Y1097804D01*
X1889419Y1104419D01*
X1882804Y1108840D01*
X1875000Y1110392D01*
X1867196Y1108840D01*
X1860581Y1104419D01*
X1856160Y1097804D01*
X1854608Y1090000D01*
Y1010000D01*
X1856160Y1002196D01*
X1860581Y995581D01*
X1944442Y911720D01*
X1946981Y907920D01*
X1953597Y903499D01*
X1961400Y901947D01*
X1974556D01*
X1976628Y896947D01*
X1963263Y883582D01*
X1961053Y880275D01*
X1960276Y876373D01*
Y869696D01*
X1953081Y862500D01*
X1946519D01*
X1940087Y859836D01*
X1935164Y854913D01*
X1932500Y848481D01*
Y841519D01*
X1935164Y835087D01*
X1936133Y834119D01*
X1934681Y829334D01*
X1932196Y828840D01*
X1925581Y824419D01*
X1878912Y777751D01*
X1804613D01*
X1796810Y776198D01*
X1790194Y771778D01*
X1772620Y754204D01*
X1768200Y747589D01*
X1766648Y739785D01*
Y735288D01*
X1762028Y733374D01*
X1712483Y782920D01*
X1714396Y787539D01*
X1714515D01*
X1722785Y790965D01*
X1729114Y797294D01*
X1729193Y797485D01*
X1734193D01*
X1734272Y797294D01*
X1740601Y790965D01*
X1743347Y789828D01*
Y800000D01*
X1700000D01*
Y843346D01*
X1689828D01*
X1690965Y840601D01*
X1697294Y834272D01*
X1697485Y834193D01*
Y829193D01*
X1697294Y829114D01*
X1690965Y822785D01*
X1687539Y814515D01*
Y814396D01*
X1682920Y812483D01*
X1617739Y877664D01*
X1612777Y880979D01*
X1606925Y882143D01*
X1603292D01*
X1602793Y882641D01*
X1598142Y884568D01*
X1596205Y886235D01*
X1595518Y890306D01*
X1597120Y894171D01*
Y901133D01*
X1594455Y907565D01*
X1589533Y912488D01*
X1586315Y913821D01*
X1585853Y914130D01*
X1585308Y914238D01*
X1583101Y915152D01*
X1580711D01*
X1580000Y915294D01*
X1579289Y915152D01*
X1576139D01*
X1569707Y912488D01*
X1564784Y907565D01*
X1563969Y905598D01*
X1388665Y730294D01*
X1059527D01*
Y749528D01*
X1055412D01*
Y978620D01*
X1057175Y981673D01*
X1059527Y990454D01*
Y999546D01*
X1057175Y1008327D01*
X1052629Y1016200D01*
X1046200Y1022629D01*
X1038327Y1027175D01*
X1029546Y1029527D01*
X1020454D01*
X1019553Y1029286D01*
X805392Y1243447D01*
Y1435000D01*
X803840Y1442803D01*
X799419Y1449419D01*
X579286Y1669553D01*
X579528Y1670454D01*
Y1679546D01*
X577174Y1688327D01*
X572629Y1696200D01*
X566200Y1702629D01*
X558327Y1707175D01*
X549546Y1709527D01*
X540454D01*
X531673Y1707175D01*
X523800Y1702629D01*
X517371Y1696200D01*
X512826Y1688327D01*
X510473Y1679546D01*
Y1670454D01*
X512826Y1661673D01*
X517371Y1653800D01*
X523800Y1647371D01*
X531673Y1642825D01*
X540454Y1640473D01*
X549546D01*
X550447Y1640714D01*
X764608Y1426553D01*
Y1235000D01*
X766160Y1227196D01*
X770581Y1220581D01*
X956634Y1034527D01*
X954563Y1029527D01*
X890472D01*
Y960472D01*
X959528D01*
Y1024563D01*
X964528Y1026634D01*
X990714Y1000447D01*
X990472Y999546D01*
Y990454D01*
X992826Y981673D01*
X994588Y978620D01*
Y749528D01*
X990472D01*
Y685437D01*
X985472Y683366D01*
X959286Y709553D01*
X959528Y710454D01*
Y719546D01*
X957174Y728327D01*
X952629Y736200D01*
X946200Y742629D01*
X938327Y747174D01*
X929546Y749528D01*
X920454D01*
X911673Y747174D01*
X903800Y742629D01*
X897371Y736200D01*
X892826Y728327D01*
X890472Y719546D01*
Y710454D01*
X892826Y701673D01*
X897371Y693800D01*
X903800Y687371D01*
X911673Y682826D01*
X920454Y680472D01*
X929546D01*
X930447Y680714D01*
X1388081Y223081D01*
X1394696Y218660D01*
X1402500Y217108D01*
X1445827D01*
X1449003Y212108D01*
X1447500Y208481D01*
Y201519D01*
X1450164Y195087D01*
X1455087Y190164D01*
X1461519Y187500D01*
X1462304D01*
Y163977D01*
X1457304Y160916D01*
X1453481Y162500D01*
X1446519D01*
X1442764Y160945D01*
X1439984Y164878D01*
X1439864Y165155D01*
X1442500Y171519D01*
Y178481D01*
X1439836Y184913D01*
X1434913Y189836D01*
X1428481Y192500D01*
X1421519D01*
X1415087Y189836D01*
X1410164Y184913D01*
X1409246Y182696D01*
X1278977D01*
X1275916Y187696D01*
X1277500Y191519D01*
Y198481D01*
X1274836Y204913D01*
X1269913Y209836D01*
X1263481Y212500D01*
X1256519D01*
X1250087Y209836D01*
X1245447Y205196D01*
X538010D01*
X503021Y240185D01*
X504935Y244804D01*
X1215447D01*
X1220087Y240164D01*
X1226519Y237500D01*
X1233481D01*
X1239913Y240164D01*
X1244836Y245087D01*
X1247500Y251519D01*
Y258481D01*
X1244836Y264913D01*
X1239913Y269836D01*
X1233481Y272500D01*
X1226519D01*
X1220087Y269836D01*
X1215447Y265196D01*
X499223D01*
X415668Y348751D01*
Y1640473D01*
X479527D01*
Y1709527D01*
X415668D01*
Y1760473D01*
X479527D01*
Y1829527D01*
X415668D01*
Y1880473D01*
X479527D01*
Y1949527D01*
X415668D01*
Y2181249D01*
X699252Y2464832D01*
X701876Y2463317D01*
X710524Y2461000D01*
X719476D01*
X728124Y2463317D01*
X735876Y2467793D01*
X742207Y2474124D01*
X746683Y2481876D01*
X749000Y2490524D01*
Y2494595D01*
X754000Y2496666D01*
X760755Y2489911D01*
Y2186145D01*
X761725Y2181267D01*
X764488Y2177133D01*
X1128605Y1813016D01*
X1132740Y1810253D01*
X1137617Y1809283D01*
X1150473D01*
Y1745473D01*
X1219527D01*
Y1797648D01*
X1224147Y1799562D01*
X1257721Y1765988D01*
X1261855Y1763225D01*
X1266733Y1762255D01*
X1322294D01*
X1327171Y1763225D01*
X1331306Y1765988D01*
X1332818Y1767500D01*
X1338481D01*
X1344913Y1770164D01*
X1349836Y1775087D01*
X1352500Y1781519D01*
Y1788481D01*
X1349836Y1794913D01*
X1344913Y1799836D01*
X1338481Y1802500D01*
X1331519D01*
X1325087Y1799836D01*
X1320164Y1794913D01*
X1317500Y1788481D01*
Y1788230D01*
X1317015Y1787745D01*
X1309026D01*
X1305937Y1792745D01*
X1307500Y1796519D01*
Y1803481D01*
X1304836Y1809913D01*
X1299913Y1814836D01*
X1293481Y1817500D01*
X1290524D01*
X1234012Y1874012D01*
X1229877Y1876775D01*
X1225000Y1877745D01*
X1164026D01*
X1160937Y1882745D01*
X1162500Y1886519D01*
Y1893481D01*
X1159836Y1899913D01*
X1154913Y1904836D01*
X1148481Y1907500D01*
X1145524D01*
X986245Y2066779D01*
Y2468601D01*
X991245Y2470672D01*
X994124Y2467793D01*
X1001876Y2463317D01*
X1010524Y2461000D01*
X1019476D01*
X1028123Y2463317D01*
X1035877Y2467793D01*
X1042207Y2474124D01*
X1046683Y2481876D01*
X1049000Y2490524D01*
Y2499476D01*
X1046683Y2508124D01*
X1042207Y2515876D01*
X1035877Y2522207D01*
X1028123Y2526683D01*
X1019476Y2529000D01*
X1010524D01*
X1001876Y2526683D01*
X994124Y2522207D01*
X987793Y2515876D01*
X984175Y2509610D01*
X978650Y2508064D01*
X841202Y2645512D01*
X837067Y2648275D01*
X832190Y2649245D01*
X820089D01*
X813334Y2656000D01*
X815405Y2661000D01*
X819476D01*
X828124Y2663317D01*
X835876Y2667793D01*
X842207Y2674124D01*
X846683Y2681876D01*
X849000Y2690524D01*
Y2699476D01*
X846683Y2708124D01*
X842207Y2715876D01*
X835876Y2722207D01*
X828124Y2726683D01*
X819476Y2729000D01*
X810524D01*
X801876Y2726683D01*
X794124Y2722207D01*
X787793Y2715876D01*
X783317Y2708124D01*
X781000Y2699476D01*
Y2695405D01*
X776000Y2693334D01*
X727745Y2741589D01*
Y3063216D01*
X728124Y3063317D01*
X735876Y3067793D01*
X742207Y3074124D01*
X746683Y3081876D01*
X749000Y3090524D01*
Y3099476D01*
X746683Y3108124D01*
X742207Y3115876D01*
X735876Y3122207D01*
X728124Y3126683D01*
X719476Y3129000D01*
D02*
G37*
G36*
X2519476Y2629000D02*
X2510524D01*
X2501876Y2626683D01*
X2494124Y2622207D01*
X2487793Y2615876D01*
X2483317Y2608124D01*
X2481000Y2599476D01*
Y2590524D01*
X2483317Y2581876D01*
X2487793Y2574124D01*
X2494124Y2567793D01*
X2501876Y2563317D01*
X2510524Y2561000D01*
X2519476D01*
X2528124Y2563317D01*
X2535876Y2567793D01*
X2542207Y2574124D01*
X2546683Y2581876D01*
X2549000Y2590524D01*
Y2599476D01*
X2546683Y2608124D01*
X2542207Y2615876D01*
X2535876Y2622207D01*
X2528124Y2626683D01*
X2519476Y2629000D01*
D02*
G37*
G36*
X2319476D02*
X2310524D01*
X2301876Y2626683D01*
X2294124Y2622207D01*
X2287793Y2615876D01*
X2283317Y2608124D01*
X2281000Y2599476D01*
Y2590524D01*
X2283317Y2581876D01*
X2287793Y2574124D01*
X2294124Y2567793D01*
X2301876Y2563317D01*
X2310524Y2561000D01*
X2319476D01*
X2328124Y2563317D01*
X2335876Y2567793D01*
X2342207Y2574124D01*
X2346683Y2581876D01*
X2349000Y2590524D01*
Y2599476D01*
X2346683Y2608124D01*
X2342207Y2615876D01*
X2335876Y2622207D01*
X2328124Y2626683D01*
X2319476Y2629000D01*
D02*
G37*
G36*
X2219476D02*
X2210524D01*
X2201876Y2626683D01*
X2194124Y2622207D01*
X2187793Y2615876D01*
X2183317Y2608124D01*
X2181000Y2599476D01*
Y2590524D01*
X2183317Y2581876D01*
X2187793Y2574124D01*
X2194124Y2567793D01*
X2201876Y2563317D01*
X2210524Y2561000D01*
X2219476D01*
X2228124Y2563317D01*
X2235876Y2567793D01*
X2242207Y2574124D01*
X2246683Y2581876D01*
X2249000Y2590524D01*
Y2599476D01*
X2246683Y2608124D01*
X2242207Y2615876D01*
X2235876Y2622207D01*
X2228124Y2626683D01*
X2219476Y2629000D01*
D02*
G37*
G36*
X2119476D02*
X2110524D01*
X2101876Y2626683D01*
X2094124Y2622207D01*
X2087793Y2615876D01*
X2083317Y2608124D01*
X2081000Y2599476D01*
Y2590524D01*
X2083317Y2581876D01*
X2087793Y2574124D01*
X2094124Y2567793D01*
X2101876Y2563317D01*
X2110524Y2561000D01*
X2119476D01*
X2128124Y2563317D01*
X2135876Y2567793D01*
X2142207Y2574124D01*
X2146683Y2581876D01*
X2149000Y2590524D01*
Y2599476D01*
X2146683Y2608124D01*
X2142207Y2615876D01*
X2135876Y2622207D01*
X2128124Y2626683D01*
X2119476Y2629000D01*
D02*
G37*
G36*
X3126320Y2590000D02*
X3095000D01*
Y2558680D01*
X3101404Y2560396D01*
X3111096Y2565992D01*
X3119008Y2573904D01*
X3124604Y2583596D01*
X3126320Y2590000D01*
D02*
G37*
G36*
X3075000D02*
X3043680D01*
X3045396Y2583596D01*
X3050992Y2573904D01*
X3058904Y2565992D01*
X3068596Y2560396D01*
X3075000Y2558680D01*
Y2590000D01*
D02*
G37*
G36*
X141320D02*
X110000D01*
Y2558680D01*
X116404Y2560396D01*
X126096Y2565992D01*
X134008Y2573904D01*
X139604Y2583596D01*
X141320Y2590000D01*
D02*
G37*
G36*
X90000D02*
X58680D01*
X60396Y2583596D01*
X65992Y2573904D01*
X73904Y2565992D01*
X83596Y2560396D01*
X90000Y2558680D01*
Y2590000D01*
D02*
G37*
G36*
X819476Y3129000D02*
X810524D01*
X801876Y3126683D01*
X794124Y3122207D01*
X787793Y3115876D01*
X783317Y3108124D01*
X781000Y3099476D01*
Y3090524D01*
X783317Y3081876D01*
X787793Y3074124D01*
X794124Y3067793D01*
X801876Y3063317D01*
X810524Y3061000D01*
X819476D01*
X828124Y3063317D01*
X830748Y3064832D01*
X1343804Y2551777D01*
Y2521350D01*
X1338804Y2519279D01*
X1335877Y2522207D01*
X1328123Y2526683D01*
X1319476Y2529000D01*
X1310524D01*
X1301877Y2526683D01*
X1294123Y2522207D01*
X1287793Y2515876D01*
X1283317Y2508124D01*
X1281000Y2499476D01*
Y2490524D01*
X1283317Y2481876D01*
X1287793Y2474124D01*
X1294123Y2467793D01*
X1301877Y2463317D01*
X1310524Y2461000D01*
X1319476D01*
X1328123Y2463317D01*
X1335877Y2467793D01*
X1338804Y2470721D01*
X1343804Y2468650D01*
Y2226000D01*
X1344580Y2222098D01*
X1346790Y2218790D01*
X1422500Y2143081D01*
Y2136519D01*
X1425164Y2130087D01*
X1430087Y2125164D01*
X1436519Y2122500D01*
X1443481D01*
X1449913Y2125164D01*
X1454836Y2130087D01*
X1457500Y2136519D01*
Y2143481D01*
X1454836Y2149913D01*
X1449913Y2154836D01*
X1443481Y2157500D01*
X1436919D01*
X1364196Y2230223D01*
Y2556000D01*
X1363420Y2559902D01*
X1361210Y2563210D01*
X845168Y3079252D01*
X846683Y3081876D01*
X849000Y3090524D01*
Y3099476D01*
X846683Y3108124D01*
X842207Y3115876D01*
X835876Y3122207D01*
X828124Y3126683D01*
X819476Y3129000D01*
D02*
G37*
G36*
X2525000Y2532696D02*
Y2505000D01*
X2552696D01*
X2551342Y2510053D01*
X2546208Y2518947D01*
X2538947Y2526208D01*
X2530053Y2531342D01*
X2525000Y2532696D01*
D02*
G37*
G36*
X1225000D02*
Y2505000D01*
X1252696D01*
X1251342Y2510053D01*
X1246208Y2518947D01*
X1238947Y2526208D01*
X1230053Y2531342D01*
X1225000Y2532696D01*
D02*
G37*
G36*
X2505000D02*
X2499947Y2531342D01*
X2491053Y2526208D01*
X2483792Y2518947D01*
X2478658Y2510053D01*
X2477304Y2505000D01*
X2505000D01*
Y2532696D01*
D02*
G37*
G36*
X1205000D02*
X1199947Y2531342D01*
X1191053Y2526208D01*
X1183792Y2518947D01*
X1178658Y2510053D01*
X1177304Y2505000D01*
X1205000D01*
Y2532696D01*
D02*
G37*
G36*
X2619476Y2529000D02*
X2610524D01*
X2601876Y2526683D01*
X2594124Y2522207D01*
X2587793Y2515876D01*
X2583317Y2508124D01*
X2581000Y2499476D01*
Y2490524D01*
X2583317Y2481876D01*
X2587793Y2474124D01*
X2594124Y2467793D01*
X2601876Y2463317D01*
X2610524Y2461000D01*
X2619476D01*
X2628124Y2463317D01*
X2635876Y2467793D01*
X2642207Y2474124D01*
X2646683Y2481876D01*
X2649000Y2490524D01*
Y2499476D01*
X2646683Y2508124D01*
X2642207Y2515876D01*
X2635876Y2522207D01*
X2628124Y2526683D01*
X2619476Y2529000D01*
D02*
G37*
G36*
X2419476D02*
X2410524D01*
X2401876Y2526683D01*
X2394124Y2522207D01*
X2387793Y2515876D01*
X2383317Y2508124D01*
X2381000Y2499476D01*
Y2490524D01*
X2383317Y2481876D01*
X2387793Y2474124D01*
X2394124Y2467793D01*
X2401876Y2463317D01*
X2410524Y2461000D01*
X2419476D01*
X2428124Y2463317D01*
X2435876Y2467793D01*
X2442207Y2474124D01*
X2446683Y2481876D01*
X2449000Y2490524D01*
Y2499476D01*
X2446683Y2508124D01*
X2442207Y2515876D01*
X2435876Y2522207D01*
X2428124Y2526683D01*
X2419476Y2529000D01*
D02*
G37*
G36*
X2319476D02*
X2310524D01*
X2301876Y2526683D01*
X2294124Y2522207D01*
X2287793Y2515876D01*
X2283317Y2508124D01*
X2281000Y2499476D01*
Y2490524D01*
X2283317Y2481876D01*
X2287793Y2474124D01*
X2294124Y2467793D01*
X2301876Y2463317D01*
X2310524Y2461000D01*
X2319476D01*
X2328124Y2463317D01*
X2335876Y2467793D01*
X2342207Y2474124D01*
X2346683Y2481876D01*
X2349000Y2490524D01*
Y2499476D01*
X2346683Y2508124D01*
X2342207Y2515876D01*
X2335876Y2522207D01*
X2328124Y2526683D01*
X2319476Y2529000D01*
D02*
G37*
G36*
X2219476D02*
X2210524D01*
X2201876Y2526683D01*
X2194124Y2522207D01*
X2187793Y2515876D01*
X2183317Y2508124D01*
X2181000Y2499476D01*
Y2490524D01*
X2183317Y2481876D01*
X2187793Y2474124D01*
X2194124Y2467793D01*
X2201876Y2463317D01*
X2210524Y2461000D01*
X2219476D01*
X2228124Y2463317D01*
X2235876Y2467793D01*
X2242207Y2474124D01*
X2246683Y2481876D01*
X2249000Y2490524D01*
Y2499476D01*
X2246683Y2508124D01*
X2242207Y2515876D01*
X2235876Y2522207D01*
X2228124Y2526683D01*
X2219476Y2529000D01*
D02*
G37*
G36*
X2119476D02*
X2110524D01*
X2101876Y2526683D01*
X2094124Y2522207D01*
X2087793Y2515876D01*
X2083317Y2508124D01*
X2081000Y2499476D01*
Y2490524D01*
X2083317Y2481876D01*
X2087793Y2474124D01*
X2094124Y2467793D01*
X2101876Y2463317D01*
X2110524Y2461000D01*
X2119476D01*
X2128124Y2463317D01*
X2135876Y2467793D01*
X2142207Y2474124D01*
X2146683Y2481876D01*
X2149000Y2490524D01*
Y2499476D01*
X2146683Y2508124D01*
X2142207Y2515876D01*
X2135876Y2522207D01*
X2128124Y2526683D01*
X2119476Y2529000D01*
D02*
G37*
G36*
X2019476D02*
X2010524D01*
X2001877Y2526683D01*
X1994123Y2522207D01*
X1987793Y2515876D01*
X1983317Y2508124D01*
X1981000Y2499476D01*
Y2490524D01*
X1983317Y2481876D01*
X1987793Y2474124D01*
X1994123Y2467793D01*
X2001877Y2463317D01*
X2010524Y2461000D01*
X2019476D01*
X2028123Y2463317D01*
X2035877Y2467793D01*
X2042207Y2474124D01*
X2046683Y2481876D01*
X2049000Y2490524D01*
Y2499476D01*
X2046683Y2508124D01*
X2042207Y2515876D01*
X2035877Y2522207D01*
X2028123Y2526683D01*
X2019476Y2529000D01*
D02*
G37*
G36*
X1729376Y2622000D02*
X1720624D01*
X1712538Y2618651D01*
X1706349Y2612462D01*
X1703000Y2604376D01*
Y2595624D01*
X1706349Y2587538D01*
X1712538Y2581349D01*
X1718268Y2578976D01*
X1754855Y2542389D01*
X1761470Y2537969D01*
X1769274Y2536416D01*
X1812341D01*
X1814198Y2534000D01*
X1811776Y2529000D01*
X1810524D01*
X1801877Y2526683D01*
X1794123Y2522207D01*
X1787793Y2515876D01*
X1783317Y2508124D01*
X1781000Y2499476D01*
Y2490524D01*
X1783317Y2481876D01*
X1787793Y2474124D01*
X1794123Y2467793D01*
X1801877Y2463317D01*
X1810524Y2461000D01*
X1819476D01*
X1828123Y2463317D01*
X1835877Y2467793D01*
X1840608Y2472525D01*
X1845608Y2470454D01*
Y2354000D01*
X1847160Y2346196D01*
X1851581Y2339581D01*
X2279741Y1911420D01*
X2281349Y1907538D01*
X2287538Y1901349D01*
X2295624Y1898000D01*
X2304376D01*
X2312462Y1901349D01*
X2318651Y1907538D01*
X2322000Y1915624D01*
Y1924376D01*
X2318651Y1932462D01*
X2312462Y1938651D01*
X2308579Y1940259D01*
X1886392Y2362447D01*
Y2468454D01*
X1891392Y2470525D01*
X1894123Y2467793D01*
X1901877Y2463317D01*
X1910524Y2461000D01*
X1919476D01*
X1928123Y2463317D01*
X1935877Y2467793D01*
X1942207Y2474124D01*
X1946683Y2481876D01*
X1949000Y2490524D01*
Y2499476D01*
X1946683Y2508124D01*
X1942207Y2515876D01*
X1935877Y2522207D01*
X1928123Y2526683D01*
X1919476Y2529000D01*
X1910524D01*
X1901877Y2526683D01*
X1894123Y2522207D01*
X1890448Y2518532D01*
X1885023Y2520177D01*
X1884840Y2521100D01*
X1880419Y2527716D01*
X1836907Y2571227D01*
X1830292Y2575648D01*
X1822488Y2577200D01*
X1777721D01*
X1744494Y2610427D01*
X1743651Y2612462D01*
X1737462Y2618651D01*
X1729376Y2622000D01*
D02*
G37*
G36*
X2552696Y2485000D02*
X2525000D01*
Y2457304D01*
X2530053Y2458658D01*
X2538947Y2463792D01*
X2546208Y2471053D01*
X2551342Y2479947D01*
X2552696Y2485000D01*
D02*
G37*
G36*
X1252696D02*
X1225000D01*
Y2457304D01*
X1230053Y2458658D01*
X1238947Y2463792D01*
X1246208Y2471053D01*
X1251342Y2479947D01*
X1252696Y2485000D01*
D02*
G37*
G36*
X2505000D02*
X2477304D01*
X2478658Y2479947D01*
X2483792Y2471053D01*
X2491053Y2463792D01*
X2499947Y2458658D01*
X2505000Y2457304D01*
Y2485000D01*
D02*
G37*
G36*
X1205000D02*
X1177304D01*
X1178658Y2479947D01*
X1183792Y2471053D01*
X1191053Y2463792D01*
X1199947Y2458658D01*
X1205000Y2457304D01*
Y2485000D01*
D02*
G37*
G36*
X3095000Y2341320D02*
Y2310000D01*
X3126320D01*
X3124604Y2316404D01*
X3119008Y2326096D01*
X3111096Y2334008D01*
X3101404Y2339604D01*
X3095000Y2341320D01*
D02*
G37*
G36*
X3075000D02*
X3068596Y2339604D01*
X3058904Y2334008D01*
X3050992Y2326096D01*
X3045396Y2316404D01*
X3043680Y2310000D01*
X3075000D01*
Y2341320D01*
D02*
G37*
G36*
X104937Y2337500D02*
X95063D01*
X85525Y2334944D01*
X76975Y2330008D01*
X69993Y2323026D01*
X65056Y2314474D01*
X62500Y2304937D01*
Y2295063D01*
X65056Y2285526D01*
X69993Y2276974D01*
X76975Y2269992D01*
X85525Y2265056D01*
X95063Y2262500D01*
X104937D01*
X114475Y2265056D01*
X123025Y2269992D01*
X130007Y2276974D01*
X134944Y2285526D01*
X137500Y2295063D01*
Y2304937D01*
X134944Y2314474D01*
X130007Y2323026D01*
X123025Y2330008D01*
X114475Y2334944D01*
X104937Y2337500D01*
D02*
G37*
G36*
X3126320Y2290000D02*
X3095000D01*
Y2258680D01*
X3101404Y2260396D01*
X3111096Y2265992D01*
X3119008Y2273904D01*
X3124604Y2283596D01*
X3126320Y2290000D01*
D02*
G37*
G36*
X3075000D02*
X3043680D01*
X3045396Y2283596D01*
X3050992Y2273904D01*
X3058904Y2265992D01*
X3068596Y2260396D01*
X3075000Y2258680D01*
Y2290000D01*
D02*
G37*
G36*
X1480000Y2105212D02*
Y2095000D01*
X1490212D01*
X1489075Y2097745D01*
X1482745Y2104075D01*
X1480000Y2105212D01*
D02*
G37*
G36*
X1460000D02*
X1457255Y2104075D01*
X1450925Y2097745D01*
X1449788Y2095000D01*
X1460000D01*
Y2105212D01*
D02*
G37*
G36*
X1490212Y2075000D02*
X1480000D01*
Y2064788D01*
X1482745Y2065925D01*
X1489075Y2072255D01*
X1490212Y2075000D01*
D02*
G37*
G36*
X1460000D02*
X1449788D01*
X1450925Y2072255D01*
X1457255Y2065925D01*
X1460000Y2064788D01*
Y2075000D01*
D02*
G37*
G36*
X3095000Y2041320D02*
Y2010000D01*
X3126320D01*
X3124604Y2016404D01*
X3119008Y2026096D01*
X3111096Y2034008D01*
X3101404Y2039604D01*
X3095000Y2041320D01*
D02*
G37*
G36*
X3075000D02*
X3068596Y2039604D01*
X3058904Y2034008D01*
X3050992Y2026096D01*
X3045396Y2016404D01*
X3043680Y2010000D01*
X3075000D01*
Y2041320D01*
D02*
G37*
G36*
X104937Y2037500D02*
X95063D01*
X85525Y2034944D01*
X76975Y2030007D01*
X69993Y2023025D01*
X65056Y2014475D01*
X62500Y2004937D01*
Y1995063D01*
X65056Y1985525D01*
X69993Y1976975D01*
X76975Y1969993D01*
X85525Y1965056D01*
X95063Y1962500D01*
X104937D01*
X114475Y1965056D01*
X123025Y1969993D01*
X130007Y1976975D01*
X134944Y1985525D01*
X137500Y1995063D01*
Y2004937D01*
X134944Y2014475D01*
X130007Y2023025D01*
X123025Y2030007D01*
X114475Y2034944D01*
X104937Y2037500D01*
D02*
G37*
G36*
X3126320Y1990000D02*
X3095000D01*
Y1958680D01*
X3101404Y1960396D01*
X3111096Y1965992D01*
X3119008Y1973904D01*
X3124604Y1983596D01*
X3126320Y1990000D01*
D02*
G37*
G36*
X3075000D02*
X3043680D01*
X3045396Y1983596D01*
X3050992Y1973904D01*
X3058904Y1965992D01*
X3068596Y1960396D01*
X3075000Y1958680D01*
Y1990000D01*
D02*
G37*
G36*
X1265000Y1930212D02*
Y1920000D01*
X1275212D01*
X1274075Y1922745D01*
X1267745Y1929075D01*
X1265000Y1930212D01*
D02*
G37*
G36*
X1245000D02*
X1242255Y1929075D01*
X1235925Y1922745D01*
X1234788Y1920000D01*
X1245000D01*
Y1930212D01*
D02*
G37*
G36*
X1275212Y1900000D02*
X1265000D01*
Y1889788D01*
X1267745Y1890925D01*
X1274075Y1897255D01*
X1275212Y1900000D01*
D02*
G37*
G36*
X1245000D02*
X1234788D01*
X1235925Y1897255D01*
X1242255Y1890925D01*
X1245000Y1889788D01*
Y1900000D01*
D02*
G37*
G36*
X2689528Y1954527D02*
X2620472D01*
Y1885473D01*
X2689528D01*
Y1954527D01*
D02*
G37*
G36*
X2559546D02*
X2550454D01*
X2541673Y1952175D01*
X2533800Y1947629D01*
X2527371Y1941200D01*
X2522825Y1933327D01*
X2520472Y1924546D01*
Y1915454D01*
X2522825Y1906673D01*
X2527371Y1898800D01*
X2533800Y1892371D01*
X2541673Y1887825D01*
X2550454Y1885473D01*
X2559546D01*
X2568327Y1887825D01*
X2576200Y1892371D01*
X2582629Y1898800D01*
X2587175Y1906673D01*
X2589528Y1915454D01*
Y1924546D01*
X2587175Y1933327D01*
X2582629Y1941200D01*
X2576200Y1947629D01*
X2568327Y1952175D01*
X2559546Y1954527D01*
D02*
G37*
G36*
X2689528Y1834527D02*
X2620472D01*
Y1765473D01*
X2689528D01*
Y1834527D01*
D02*
G37*
G36*
X1894527Y1814527D02*
X1825473D01*
Y1745473D01*
X1894527D01*
Y1814527D01*
D02*
G37*
G36*
X3095000Y1741320D02*
Y1710000D01*
X3126320D01*
X3124604Y1716404D01*
X3119008Y1726096D01*
X3111096Y1734008D01*
X3101404Y1739604D01*
X3095000Y1741320D01*
D02*
G37*
G36*
X3075000D02*
X3068596Y1739604D01*
X3058904Y1734008D01*
X3050992Y1726096D01*
X3045396Y1716404D01*
X3043680Y1710000D01*
X3075000D01*
Y1741320D01*
D02*
G37*
G36*
X104937Y1737500D02*
X95063D01*
X85525Y1734944D01*
X76975Y1730007D01*
X69993Y1723025D01*
X65056Y1714475D01*
X62500Y1704937D01*
Y1695063D01*
X65056Y1685525D01*
X69993Y1676975D01*
X76975Y1669993D01*
X85525Y1665056D01*
X95063Y1662500D01*
X104937D01*
X114475Y1665056D01*
X123025Y1669993D01*
X130007Y1676975D01*
X134944Y1685525D01*
X137500Y1695063D01*
Y1704937D01*
X134944Y1714475D01*
X130007Y1723025D01*
X123025Y1730007D01*
X114475Y1734944D01*
X104937Y1737500D01*
D02*
G37*
G36*
X3126320Y1690000D02*
X3095000D01*
Y1658680D01*
X3101404Y1660396D01*
X3111096Y1665992D01*
X3119008Y1673904D01*
X3124604Y1683596D01*
X3126320Y1690000D01*
D02*
G37*
G36*
X3075000D02*
X3043680D01*
X3045396Y1683596D01*
X3050992Y1673904D01*
X3058904Y1665992D01*
X3068596Y1660396D01*
X3075000Y1658680D01*
Y1690000D01*
D02*
G37*
G36*
X2689528Y1714527D02*
X2620472D01*
Y1645473D01*
X2689528D01*
Y1714527D01*
D02*
G37*
G36*
X1864546D02*
X1855454D01*
X1846673Y1712175D01*
X1838800Y1707629D01*
X1832371Y1701200D01*
X1827825Y1693327D01*
X1825473Y1684546D01*
Y1675454D01*
X1827825Y1666673D01*
X1832371Y1658800D01*
X1838800Y1652371D01*
X1846673Y1647825D01*
X1855454Y1645473D01*
X1864546D01*
X1873327Y1647825D01*
X1881200Y1652371D01*
X1887629Y1658800D01*
X1892175Y1666673D01*
X1894527Y1675454D01*
Y1684546D01*
X1892175Y1693327D01*
X1887629Y1701200D01*
X1881200Y1707629D01*
X1873327Y1712175D01*
X1864546Y1714527D01*
D02*
G37*
G36*
X1189546D02*
X1180454D01*
X1171673Y1712175D01*
X1163800Y1707629D01*
X1157371Y1701200D01*
X1152825Y1693327D01*
X1150473Y1684546D01*
Y1675454D01*
X1152825Y1666673D01*
X1157371Y1658800D01*
X1163800Y1652371D01*
X1171673Y1647825D01*
X1180454Y1645473D01*
X1189546D01*
X1198327Y1647825D01*
X1206200Y1652371D01*
X1212629Y1658800D01*
X1217175Y1666673D01*
X1219527Y1675454D01*
Y1684546D01*
X1217175Y1693327D01*
X1212629Y1701200D01*
X1206200Y1707629D01*
X1198327Y1712175D01*
X1189546Y1714527D01*
D02*
G37*
G36*
X1864546Y1594527D02*
X1855454D01*
X1846673Y1592175D01*
X1838800Y1587629D01*
X1832371Y1581200D01*
X1827825Y1573327D01*
X1827669Y1572745D01*
X1652004D01*
X1649913Y1574836D01*
X1643481Y1577500D01*
X1636519D01*
X1630087Y1574836D01*
X1625164Y1569913D01*
X1622500Y1563481D01*
Y1556519D01*
X1625164Y1550087D01*
X1630087Y1545164D01*
X1636519Y1542500D01*
X1643481D01*
X1649913Y1545164D01*
X1652004Y1547255D01*
X1827669D01*
X1827825Y1546673D01*
X1832371Y1538800D01*
X1838800Y1532371D01*
X1846673Y1527825D01*
X1855454Y1525473D01*
X1864546D01*
X1873327Y1527825D01*
X1881200Y1532371D01*
X1887629Y1538800D01*
X1892175Y1546673D01*
X1894527Y1555454D01*
Y1564546D01*
X1892175Y1573327D01*
X1887629Y1581200D01*
X1881200Y1587629D01*
X1873327Y1592175D01*
X1864546Y1594527D01*
D02*
G37*
G36*
X929546Y1639527D02*
X920454D01*
X911673Y1637175D01*
X903800Y1632629D01*
X897371Y1626200D01*
X892826Y1618327D01*
X890472Y1609546D01*
Y1600454D01*
X892826Y1591673D01*
X897371Y1583800D01*
X903800Y1577371D01*
X911673Y1572825D01*
X920454Y1570473D01*
X929546D01*
X938327Y1572825D01*
X946200Y1577371D01*
X952629Y1583800D01*
X957174Y1591673D01*
X959528Y1600454D01*
Y1609546D01*
X957174Y1618327D01*
X952629Y1626200D01*
X946200Y1632629D01*
X938327Y1637175D01*
X929546Y1639527D01*
D02*
G37*
G36*
X549546Y1949527D02*
X540454D01*
X531673Y1947175D01*
X523800Y1942629D01*
X517371Y1936200D01*
X512826Y1928327D01*
X510473Y1919546D01*
Y1910454D01*
X512826Y1901673D01*
X517371Y1893800D01*
X523800Y1887371D01*
X531673Y1882825D01*
X540454Y1880473D01*
X549546D01*
X558327Y1882825D01*
X561135Y1884446D01*
X829926Y1615655D01*
Y1531026D01*
X825307Y1529112D01*
X575554Y1778866D01*
X577174Y1781673D01*
X579528Y1790454D01*
Y1799546D01*
X577174Y1808327D01*
X572629Y1816200D01*
X566200Y1822629D01*
X558327Y1827175D01*
X549546Y1829527D01*
X540454D01*
X531673Y1827175D01*
X523800Y1822629D01*
X517371Y1816200D01*
X512826Y1808327D01*
X510473Y1799546D01*
Y1790454D01*
X512826Y1781673D01*
X517371Y1773800D01*
X523800Y1767371D01*
X531673Y1762825D01*
X540454Y1760473D01*
X549546D01*
X558327Y1762825D01*
X561135Y1764446D01*
X814926Y1510655D01*
Y1279523D01*
X815702Y1275621D01*
X817913Y1272313D01*
X1317435Y772790D01*
X1320743Y770580D01*
X1324645Y769804D01*
X1385447D01*
X1390087Y765164D01*
X1396519Y762500D01*
X1403481D01*
X1409913Y765164D01*
X1414836Y770087D01*
X1417500Y776519D01*
Y783481D01*
X1414836Y789913D01*
X1409913Y794836D01*
X1403481Y797500D01*
X1396519D01*
X1390087Y794836D01*
X1385447Y790196D01*
X1330793D01*
X1329037Y792500D01*
X1331513Y797500D01*
X1333481D01*
X1339913Y800164D01*
X1344836Y805087D01*
X1347500Y811519D01*
Y818081D01*
X1510783Y981364D01*
X1514097Y980079D01*
X1515473Y978982D01*
Y970454D01*
X1517825Y961673D01*
X1522371Y953800D01*
X1528800Y947371D01*
X1536673Y942826D01*
X1545454Y940472D01*
X1554546D01*
X1563327Y942826D01*
X1571200Y947371D01*
X1577629Y953800D01*
X1582175Y961673D01*
X1584527Y970454D01*
Y979546D01*
X1582175Y988327D01*
X1577629Y996200D01*
X1574497Y999332D01*
X1576569Y1004332D01*
X1680428D01*
X1684330Y1005108D01*
X1687638Y1007318D01*
X1730124Y1049804D01*
X1745447D01*
X1750087Y1045164D01*
X1756519Y1042500D01*
X1763481D01*
X1769913Y1045164D01*
X1774836Y1050087D01*
X1777500Y1056519D01*
Y1063481D01*
X1774836Y1069913D01*
X1769913Y1074836D01*
X1763481Y1077500D01*
X1756519D01*
X1750087Y1074836D01*
X1745447Y1070196D01*
X1735521D01*
X1733435Y1075196D01*
X1737175Y1081673D01*
X1739527Y1090454D01*
Y1099546D01*
X1737175Y1108327D01*
X1732629Y1116200D01*
X1726200Y1122629D01*
X1718327Y1127175D01*
X1709546Y1129527D01*
X1700454D01*
X1691673Y1127175D01*
X1683800Y1122629D01*
X1677371Y1116200D01*
X1672825Y1108327D01*
X1670473Y1099546D01*
Y1090454D01*
X1672825Y1081673D01*
X1677371Y1073800D01*
X1683800Y1067371D01*
X1691673Y1062825D01*
X1700454Y1060473D01*
X1704883D01*
X1706954Y1055473D01*
X1676205Y1024724D01*
X1529528D01*
X1525626Y1023947D01*
X1522318Y1021737D01*
X1333081Y832500D01*
X1326919D01*
X1153731Y1005689D01*
X1153827Y1006173D01*
X1311327Y1163673D01*
X1311327Y1163673D01*
X1400853Y1253199D01*
X1406014Y1255337D01*
X1410937Y1260260D01*
X1413601Y1266692D01*
Y1273654D01*
X1410937Y1280086D01*
X1406014Y1285009D01*
X1399582Y1287673D01*
X1392620D01*
X1387162Y1285412D01*
X1147242D01*
X1103827Y1328827D01*
X1100000Y1330412D01*
X1100000Y1330412D01*
X948417Y1330412D01*
X946200Y1332629D01*
X938327Y1337175D01*
X929546Y1339527D01*
X920454D01*
X911673Y1337175D01*
X903800Y1332629D01*
X897371Y1326200D01*
X892826Y1318327D01*
X890472Y1309546D01*
Y1300454D01*
X892826Y1291673D01*
X897371Y1283800D01*
X903800Y1277371D01*
X911673Y1272825D01*
X920454Y1270473D01*
X929546D01*
X938327Y1272825D01*
X946200Y1277371D01*
X948417Y1279588D01*
X1097758D01*
X1124588Y1252758D01*
Y1022222D01*
X1119969Y1020308D01*
X850318Y1289959D01*
Y1619878D01*
X849542Y1623780D01*
X847332Y1627088D01*
X575554Y1898866D01*
X577174Y1901673D01*
X579528Y1910454D01*
Y1919546D01*
X577174Y1928327D01*
X572629Y1936200D01*
X566200Y1942629D01*
X558327Y1947175D01*
X549546Y1949527D01*
D02*
G37*
G36*
X2689528Y1594527D02*
X2620472D01*
Y1525473D01*
X2689528D01*
Y1594527D01*
D02*
G37*
G36*
X2559546D02*
X2550454D01*
X2541673Y1592175D01*
X2533800Y1587629D01*
X2527371Y1581200D01*
X2522825Y1573327D01*
X2520472Y1564546D01*
Y1555454D01*
X2522825Y1546673D01*
X2527371Y1538800D01*
X2533800Y1532371D01*
X2541673Y1527825D01*
X2550454Y1525473D01*
X2559546D01*
X2568327Y1527825D01*
X2576200Y1532371D01*
X2582629Y1538800D01*
X2587175Y1546673D01*
X2589528Y1555454D01*
Y1564546D01*
X2587175Y1573327D01*
X2582629Y1581200D01*
X2576200Y1587629D01*
X2568327Y1592175D01*
X2559546Y1594527D01*
D02*
G37*
G36*
X1234546D02*
X1225454D01*
X1216673Y1592175D01*
X1208800Y1587629D01*
X1202371Y1581200D01*
X1197825Y1573327D01*
X1195473Y1564546D01*
Y1555454D01*
X1197825Y1546673D01*
X1202371Y1538800D01*
X1208800Y1532371D01*
X1216673Y1527825D01*
X1225454Y1525473D01*
X1234546D01*
X1243327Y1527825D01*
X1251200Y1532371D01*
X1257629Y1538800D01*
X1262175Y1546673D01*
X1264527Y1555454D01*
Y1564546D01*
X1262175Y1573327D01*
X1257629Y1581200D01*
X1251200Y1587629D01*
X1243327Y1592175D01*
X1234546Y1594527D01*
D02*
G37*
G36*
X1894527Y1494527D02*
X1825473D01*
Y1457745D01*
X1652004D01*
X1649913Y1459836D01*
X1643481Y1462500D01*
X1636519D01*
X1630087Y1459836D01*
X1625164Y1454913D01*
X1622500Y1448481D01*
Y1441519D01*
X1625164Y1435087D01*
X1630087Y1430164D01*
X1636519Y1427500D01*
X1643481D01*
X1649913Y1430164D01*
X1652004Y1432255D01*
X1825473D01*
Y1425473D01*
X1894527D01*
Y1494527D01*
D02*
G37*
G36*
X1595000Y1460212D02*
Y1450000D01*
X1605212D01*
X1604075Y1452745D01*
X1597745Y1459075D01*
X1595000Y1460212D01*
D02*
G37*
G36*
X1515000Y1435212D02*
X1512255Y1434075D01*
X1505925Y1427745D01*
X1504788Y1425000D01*
X1515000D01*
Y1435212D01*
D02*
G37*
G36*
X1296169Y1432583D02*
Y1422372D01*
X1306381D01*
X1305244Y1425117D01*
X1298914Y1431446D01*
X1296169Y1432583D01*
D02*
G37*
G36*
X1264527Y1494527D02*
X1195473D01*
Y1425473D01*
X1261830D01*
X1264132Y1422372D01*
X1276169D01*
Y1432583D01*
X1273424Y1431446D01*
X1269527Y1427550D01*
X1264527Y1429621D01*
Y1494527D01*
D02*
G37*
G36*
X1605212Y1430000D02*
X1595000D01*
Y1419788D01*
X1597745Y1420925D01*
X1604075Y1427255D01*
X1605212Y1430000D01*
D02*
G37*
G36*
X3095000Y1441320D02*
Y1410000D01*
X3126320D01*
X3124604Y1416404D01*
X3119008Y1426096D01*
X3111096Y1434008D01*
X3101404Y1439604D01*
X3095000Y1441320D01*
D02*
G37*
G36*
X3075000D02*
X3068596Y1439604D01*
X3058904Y1434008D01*
X3050992Y1426096D01*
X3045396Y1416404D01*
X3043680Y1410000D01*
X3075000D01*
Y1441320D01*
D02*
G37*
G36*
X2689528Y1474527D02*
X2620472D01*
Y1405473D01*
X2689528D01*
Y1474527D01*
D02*
G37*
G36*
X2559546D02*
X2550454D01*
X2541673Y1472175D01*
X2533800Y1467629D01*
X2527371Y1461200D01*
X2522825Y1453327D01*
X2520472Y1444546D01*
Y1435454D01*
X2522825Y1426673D01*
X2527371Y1418800D01*
X2533800Y1412371D01*
X2541673Y1407825D01*
X2550454Y1405473D01*
X2559546D01*
X2568327Y1407825D01*
X2576200Y1412371D01*
X2582629Y1418800D01*
X2587175Y1426673D01*
X2589528Y1435454D01*
Y1444546D01*
X2587175Y1453327D01*
X2582629Y1461200D01*
X2576200Y1467629D01*
X2568327Y1472175D01*
X2559546Y1474527D01*
D02*
G37*
G36*
X1306381Y1402372D02*
X1296169D01*
Y1392160D01*
X1298914Y1393297D01*
X1305244Y1399627D01*
X1306381Y1402372D01*
D02*
G37*
G36*
X1276169D02*
X1265957D01*
X1267095Y1399627D01*
X1273424Y1393297D01*
X1276169Y1392160D01*
Y1402372D01*
D02*
G37*
G36*
X654546Y1439527D02*
X645454D01*
X636673Y1437175D01*
X628800Y1432629D01*
X622371Y1426200D01*
X617826Y1418327D01*
X615472Y1409546D01*
Y1400454D01*
X617826Y1391673D01*
X622371Y1383800D01*
X628800Y1377371D01*
X636673Y1372825D01*
X645454Y1370473D01*
X654546D01*
X663327Y1372825D01*
X671200Y1377371D01*
X677629Y1383800D01*
X682174Y1391673D01*
X684528Y1400454D01*
Y1409546D01*
X682174Y1418327D01*
X677629Y1426200D01*
X671200Y1432629D01*
X663327Y1437175D01*
X654546Y1439527D01*
D02*
G37*
G36*
X584528D02*
X515472D01*
Y1370473D01*
X584528D01*
Y1439527D01*
D02*
G37*
G36*
X104937Y1437500D02*
X95063D01*
X85525Y1434944D01*
X76975Y1430007D01*
X69993Y1423025D01*
X65056Y1414475D01*
X62500Y1404937D01*
Y1395063D01*
X65056Y1385525D01*
X69993Y1376975D01*
X76975Y1369993D01*
X85525Y1365056D01*
X95063Y1362500D01*
X104937D01*
X114475Y1365056D01*
X123025Y1369993D01*
X130007Y1376975D01*
X134944Y1385525D01*
X137500Y1395063D01*
Y1404937D01*
X134944Y1414475D01*
X130007Y1423025D01*
X123025Y1430007D01*
X114475Y1434944D01*
X104937Y1437500D01*
D02*
G37*
G36*
X2225000Y1400470D02*
Y1360000D01*
X2265470D01*
X2262840Y1369816D01*
X2256081Y1381523D01*
X2246523Y1391081D01*
X2234816Y1397840D01*
X2225000Y1400470D01*
D02*
G37*
G36*
X2205000D02*
X2195184Y1397840D01*
X2183477Y1391081D01*
X2173919Y1381523D01*
X2167160Y1369816D01*
X2164530Y1360000D01*
X2205000D01*
Y1400470D01*
D02*
G37*
G36*
X2025000D02*
Y1360000D01*
X2065470D01*
X2062840Y1369816D01*
X2056081Y1381523D01*
X2046523Y1391081D01*
X2034816Y1397840D01*
X2025000Y1400470D01*
D02*
G37*
G36*
X2005000D02*
X1995184Y1397840D01*
X1983477Y1391081D01*
X1973919Y1381523D01*
X1967160Y1369816D01*
X1964530Y1360000D01*
X2005000D01*
Y1400470D01*
D02*
G37*
G36*
X3126320Y1390000D02*
X3095000D01*
Y1358680D01*
X3101404Y1360396D01*
X3111096Y1365992D01*
X3119008Y1373904D01*
X3124604Y1383596D01*
X3126320Y1390000D01*
D02*
G37*
G36*
X3075000D02*
X3043680D01*
X3045396Y1383596D01*
X3050992Y1373904D01*
X3058904Y1365992D01*
X3068596Y1360396D01*
X3075000Y1358680D01*
Y1390000D01*
D02*
G37*
G36*
X2265470Y1340000D02*
X2225000D01*
Y1299530D01*
X2234816Y1302160D01*
X2246523Y1308919D01*
X2256081Y1318477D01*
X2262840Y1330184D01*
X2265470Y1340000D01*
D02*
G37*
G36*
X2205000D02*
X2164530D01*
X2167160Y1330184D01*
X2173919Y1318477D01*
X2183477Y1308919D01*
X2195184Y1302160D01*
X2205000Y1299530D01*
Y1340000D01*
D02*
G37*
G36*
X2065470D02*
X2025000D01*
Y1299530D01*
X2034816Y1302160D01*
X2046523Y1308919D01*
X2056081Y1318477D01*
X2062840Y1330184D01*
X2065470Y1340000D01*
D02*
G37*
G36*
X2005000D02*
X1964530D01*
X1967160Y1330184D01*
X1973919Y1318477D01*
X1983477Y1308919D01*
X1995184Y1302160D01*
X2005000Y1299530D01*
Y1340000D01*
D02*
G37*
G36*
X2689528Y1354527D02*
X2620472D01*
Y1285473D01*
X2689528D01*
Y1354527D01*
D02*
G37*
G36*
X2559546D02*
X2550454D01*
X2541673Y1352175D01*
X2533800Y1347629D01*
X2527371Y1341200D01*
X2522825Y1333327D01*
X2520472Y1324546D01*
Y1315454D01*
X2522825Y1306673D01*
X2527371Y1298800D01*
X2533800Y1292371D01*
X2541673Y1287825D01*
X2550454Y1285473D01*
X2559546D01*
X2568327Y1287825D01*
X2576200Y1292371D01*
X2582629Y1298800D01*
X2587175Y1306673D01*
X2589528Y1315454D01*
Y1324546D01*
X2587175Y1333327D01*
X2582629Y1341200D01*
X2576200Y1347629D01*
X2568327Y1352175D01*
X2559546Y1354527D01*
D02*
G37*
G36*
X2120841Y1294370D02*
X2109159D01*
X2097874Y1291346D01*
X2087756Y1285505D01*
X2079495Y1277244D01*
X2073654Y1267126D01*
X2070630Y1255841D01*
Y1244159D01*
X2073654Y1232874D01*
X2079495Y1222756D01*
X2087756Y1214495D01*
X2097874Y1208654D01*
X2109159Y1205630D01*
X2120841D01*
X2132126Y1208654D01*
X2142244Y1214495D01*
X2150505Y1222756D01*
X2156346Y1232874D01*
X2159370Y1244159D01*
Y1255841D01*
X2156346Y1267126D01*
X2150505Y1277244D01*
X2142244Y1285505D01*
X2132126Y1291346D01*
X2120841Y1294370D01*
D02*
G37*
G36*
X2225000Y1200470D02*
Y1160000D01*
X2265470D01*
X2262840Y1169816D01*
X2256081Y1181523D01*
X2246523Y1191081D01*
X2234816Y1197840D01*
X2225000Y1200470D01*
D02*
G37*
G36*
X2205000D02*
X2195184Y1197840D01*
X2183477Y1191081D01*
X2173919Y1181523D01*
X2167160Y1169816D01*
X2164530Y1160000D01*
X2205000D01*
Y1200470D01*
D02*
G37*
G36*
X2025000D02*
Y1160000D01*
X2065470D01*
X2062840Y1169816D01*
X2056081Y1181523D01*
X2046523Y1191081D01*
X2034816Y1197840D01*
X2025000Y1200470D01*
D02*
G37*
G36*
X2005000D02*
X1995184Y1197840D01*
X1983477Y1191081D01*
X1973919Y1181523D01*
X1967160Y1169816D01*
X1964530Y1160000D01*
X2005000D01*
Y1200470D01*
D02*
G37*
G36*
X1563481Y1317500D02*
X1556519D01*
X1550087Y1314836D01*
X1545164Y1309913D01*
X1542500Y1303481D01*
Y1296519D01*
X1545164Y1290087D01*
X1550087Y1285164D01*
X1552674Y1284093D01*
Y1281230D01*
X1553450Y1277328D01*
X1555660Y1274020D01*
X1691890Y1137790D01*
X1695198Y1135580D01*
X1699100Y1134804D01*
X1730447D01*
X1735087Y1130164D01*
X1741519Y1127500D01*
X1748481D01*
X1754913Y1130164D01*
X1759836Y1135087D01*
X1762500Y1141519D01*
Y1148481D01*
X1759836Y1154913D01*
X1754913Y1159836D01*
X1748481Y1162500D01*
X1741519D01*
X1735087Y1159836D01*
X1730447Y1155196D01*
X1708344D01*
X1708159Y1155473D01*
X1708775Y1157695D01*
X1710636Y1160765D01*
X1718327Y1162825D01*
X1726200Y1167371D01*
X1732629Y1173800D01*
X1737175Y1181673D01*
X1739527Y1190454D01*
Y1199546D01*
X1737175Y1208327D01*
X1732629Y1216200D01*
X1726200Y1222629D01*
X1718327Y1227175D01*
X1709546Y1229527D01*
X1700454D01*
X1691673Y1227175D01*
X1683800Y1222629D01*
X1677371Y1216200D01*
X1672825Y1208327D01*
X1670473Y1199546D01*
Y1195117D01*
X1665473Y1193046D01*
X1573066Y1285453D01*
Y1288317D01*
X1574836Y1290087D01*
X1577500Y1296519D01*
Y1303481D01*
X1574836Y1309913D01*
X1569913Y1314836D01*
X1563481Y1317500D01*
D02*
G37*
G36*
X2265470Y1140000D02*
X2225000D01*
Y1099530D01*
X2234816Y1102160D01*
X2246523Y1108919D01*
X2256081Y1118477D01*
X2262840Y1130184D01*
X2265470Y1140000D01*
D02*
G37*
G36*
X2205000D02*
X2164530D01*
X2167160Y1130184D01*
X2173919Y1118477D01*
X2183477Y1108919D01*
X2195184Y1102160D01*
X2205000Y1099530D01*
Y1140000D01*
D02*
G37*
G36*
X2065470D02*
X2025000D01*
Y1099530D01*
X2034816Y1102160D01*
X2046523Y1108919D01*
X2056081Y1118477D01*
X2062840Y1130184D01*
X2065470Y1140000D01*
D02*
G37*
G36*
X2005000D02*
X1964530D01*
X1967160Y1130184D01*
X1973919Y1118477D01*
X1983477Y1108919D01*
X1995184Y1102160D01*
X2005000Y1099530D01*
Y1140000D01*
D02*
G37*
G36*
X2142388Y1082712D02*
Y1072500D01*
X2152600D01*
X2151463Y1075245D01*
X2145133Y1081575D01*
X2142388Y1082712D01*
D02*
G37*
G36*
X2122388D02*
X2119643Y1081575D01*
X2113314Y1075245D01*
X2112177Y1072500D01*
X2122388D01*
Y1082712D01*
D02*
G37*
G36*
X654546Y1139527D02*
X645454D01*
X636673Y1137175D01*
X628800Y1132629D01*
X622371Y1126200D01*
X617826Y1118327D01*
X615472Y1109546D01*
Y1100454D01*
X617826Y1091673D01*
X622371Y1083800D01*
X628800Y1077371D01*
X636673Y1072825D01*
X645454Y1070473D01*
X654546D01*
X663327Y1072825D01*
X671200Y1077371D01*
X677629Y1083800D01*
X682174Y1091673D01*
X684528Y1100454D01*
Y1109546D01*
X682174Y1118327D01*
X677629Y1126200D01*
X671200Y1132629D01*
X663327Y1137175D01*
X654546Y1139527D01*
D02*
G37*
G36*
X584528D02*
X515472D01*
Y1070473D01*
X584528D01*
Y1139527D01*
D02*
G37*
G36*
X104937Y1137500D02*
X95063D01*
X85525Y1134944D01*
X76975Y1130007D01*
X69993Y1123025D01*
X65056Y1114475D01*
X62500Y1104937D01*
Y1095063D01*
X65056Y1085525D01*
X69993Y1076975D01*
X76975Y1069993D01*
X85525Y1065056D01*
X95063Y1062500D01*
X104937D01*
X114475Y1065056D01*
X123025Y1069993D01*
X130007Y1076975D01*
X134944Y1085525D01*
X137500Y1095063D01*
Y1104937D01*
X134944Y1114475D01*
X130007Y1123025D01*
X123025Y1130007D01*
X114475Y1134944D01*
X104937Y1137500D01*
D02*
G37*
G36*
X2152600Y1052500D02*
X2142388D01*
Y1042288D01*
X2145133Y1043425D01*
X2151463Y1049755D01*
X2152600Y1052500D01*
D02*
G37*
G36*
X2122388D02*
X2112177D01*
X2113314Y1049755D01*
X2119643Y1043425D01*
X2122388Y1042288D01*
Y1052500D01*
D02*
G37*
G36*
X1584527Y1109527D02*
X1515473D01*
Y1040473D01*
X1584527D01*
Y1109527D01*
D02*
G37*
G36*
X1823481Y1322500D02*
X1816519D01*
X1810087Y1319836D01*
X1805164Y1314913D01*
X1802500Y1308481D01*
Y1301519D01*
X1805164Y1295087D01*
X1810087Y1290164D01*
X1814804Y1288210D01*
Y1064553D01*
X1810164Y1059913D01*
X1807500Y1053481D01*
Y1046519D01*
X1810164Y1040087D01*
X1815087Y1035164D01*
X1821519Y1032500D01*
X1828481D01*
X1834913Y1035164D01*
X1839836Y1040087D01*
X1842500Y1046519D01*
Y1053481D01*
X1839836Y1059913D01*
X1835196Y1064553D01*
Y1295941D01*
X1835194Y1295952D01*
X1837500Y1301519D01*
Y1308481D01*
X1834836Y1314913D01*
X1829913Y1319836D01*
X1823481Y1322500D01*
D02*
G37*
G36*
X1829961Y960172D02*
X1827215Y959035D01*
X1820886Y952706D01*
X1820807Y952515D01*
X1815807D01*
X1815728Y952706D01*
X1809399Y959035D01*
X1806654Y960172D01*
Y950000D01*
X1829961D01*
Y960172D01*
D02*
G37*
G36*
X1786654D02*
X1783908Y959035D01*
X1777579Y952706D01*
X1777500Y952515D01*
X1772500D01*
X1772421Y952706D01*
X1766092Y959035D01*
X1763347Y960172D01*
Y950000D01*
X1786654D01*
Y960172D01*
D02*
G37*
G36*
X1743347D02*
X1740601Y959035D01*
X1734272Y952706D01*
X1734193Y952515D01*
X1729193D01*
X1729114Y952706D01*
X1722785Y959035D01*
X1720039Y960172D01*
Y950000D01*
X1743347D01*
Y960172D01*
D02*
G37*
G36*
X1849961D02*
Y950000D01*
X1850000D01*
Y949961D01*
X1860172D01*
X1859035Y952706D01*
X1852706Y959035D01*
X1849961Y960172D01*
D02*
G37*
G36*
X1700039D02*
X1697294Y959035D01*
X1690965Y952706D01*
X1689828Y949961D01*
X1700000D01*
Y950000D01*
X1700039D01*
Y960172D01*
D02*
G37*
G36*
X1860172Y929961D02*
X1850000D01*
Y906654D01*
X1860172D01*
X1859035Y909399D01*
X1852706Y915728D01*
X1852515Y915807D01*
Y920807D01*
X1852706Y920886D01*
X1859035Y927215D01*
X1860172Y929961D01*
D02*
G37*
G36*
X1700000D02*
X1689828D01*
X1690965Y927215D01*
X1697294Y920886D01*
X1697485Y920807D01*
Y915807D01*
X1697294Y915728D01*
X1690965Y909399D01*
X1689828Y906654D01*
X1700000D01*
Y929961D01*
D02*
G37*
G36*
X1860172Y886654D02*
X1850000D01*
Y863346D01*
X1860172D01*
X1859035Y866092D01*
X1852706Y872421D01*
X1852515Y872500D01*
Y877500D01*
X1852706Y877579D01*
X1859035Y883908D01*
X1860172Y886654D01*
D02*
G37*
G36*
X1700000D02*
X1689828D01*
X1690965Y883908D01*
X1697294Y877579D01*
X1697485Y877500D01*
Y872500D01*
X1697294Y872421D01*
X1690965Y866092D01*
X1689828Y863346D01*
X1700000D01*
Y886654D01*
D02*
G37*
G36*
X1860172Y843346D02*
X1850000D01*
Y820039D01*
X1860172D01*
X1859035Y822785D01*
X1852706Y829114D01*
X1852515Y829193D01*
Y834193D01*
X1852706Y834272D01*
X1859035Y840601D01*
X1860172Y843346D01*
D02*
G37*
G36*
Y800039D02*
X1850000D01*
Y800000D01*
X1849961D01*
Y789828D01*
X1852706Y790965D01*
X1859035Y797294D01*
X1860172Y800039D01*
D02*
G37*
G36*
X1829961Y800000D02*
X1806654D01*
Y789828D01*
X1809399Y790965D01*
X1815728Y797294D01*
X1815807Y797485D01*
X1820807D01*
X1820886Y797294D01*
X1827215Y790965D01*
X1829961Y789828D01*
Y800000D01*
D02*
G37*
G36*
X1786654D02*
X1763347D01*
Y789828D01*
X1766092Y790965D01*
X1772421Y797294D01*
X1772500Y797485D01*
X1777500D01*
X1777579Y797294D01*
X1783908Y790965D01*
X1786654Y789828D01*
Y800000D01*
D02*
G37*
G36*
X104937Y837500D02*
X95063D01*
X85525Y834944D01*
X76975Y830008D01*
X69993Y823025D01*
X65056Y814475D01*
X62500Y804937D01*
Y795063D01*
X65056Y785525D01*
X69993Y776975D01*
X76975Y769992D01*
X85525Y765056D01*
X95063Y762500D01*
X104937D01*
X114475Y765056D01*
X123025Y769992D01*
X130007Y776975D01*
X134944Y785525D01*
X137500Y795063D01*
Y804937D01*
X134944Y814475D01*
X130007Y823025D01*
X123025Y830008D01*
X114475Y834944D01*
X104937Y837500D01*
D02*
G37*
G36*
X929546Y629528D02*
X920454D01*
X911673Y627174D01*
X903800Y622629D01*
X897371Y616200D01*
X892826Y608327D01*
X890472Y599546D01*
Y590454D01*
X892826Y581673D01*
X897371Y573800D01*
X903800Y567371D01*
X911673Y562826D01*
X920454Y560472D01*
X929546D01*
X938327Y562826D01*
X946200Y567371D01*
X952629Y573800D01*
X957174Y581673D01*
X959528Y590454D01*
Y599546D01*
X957174Y608327D01*
X952629Y616200D01*
X946200Y622629D01*
X938327Y627174D01*
X929546Y629528D01*
D02*
G37*
G36*
X110000Y541320D02*
Y510000D01*
X141320D01*
X139604Y516404D01*
X134008Y526096D01*
X126096Y534008D01*
X116404Y539604D01*
X110000Y541320D01*
D02*
G37*
G36*
X90000D02*
X83596Y539604D01*
X73904Y534008D01*
X65992Y526096D01*
X60396Y516404D01*
X58680Y510000D01*
X90000D01*
Y541320D01*
D02*
G37*
G36*
X141320Y490000D02*
X110000D01*
Y458680D01*
X116404Y460396D01*
X126096Y465992D01*
X134008Y473904D01*
X139604Y483596D01*
X141320Y490000D01*
D02*
G37*
G36*
X90000D02*
X58680D01*
X60396Y483596D01*
X65992Y473904D01*
X73904Y465992D01*
X83596Y460396D01*
X90000Y458680D01*
Y490000D01*
D02*
G37*
G36*
X654546Y429527D02*
X645454D01*
X636673Y427175D01*
X628800Y422629D01*
X622371Y416200D01*
X617826Y408327D01*
X615472Y399546D01*
Y390454D01*
X617826Y381673D01*
X622371Y373800D01*
X628800Y367371D01*
X636673Y362825D01*
X645454Y360473D01*
X654546D01*
X663327Y362825D01*
X671200Y367371D01*
X677629Y373800D01*
X682174Y381673D01*
X684528Y390454D01*
Y399546D01*
X682174Y408327D01*
X677629Y416200D01*
X671200Y422629D01*
X663327Y427175D01*
X654546Y429527D01*
D02*
G37*
G36*
X584528D02*
X515472D01*
Y360473D01*
X584528D01*
Y429527D01*
D02*
G37*
G36*
X3045000Y259787D02*
Y160000D01*
X3144787D01*
X3142291Y175758D01*
X3136941Y192225D01*
X3129080Y207653D01*
X3118903Y221660D01*
X3106660Y233903D01*
X3092653Y244080D01*
X3077225Y251941D01*
X3060758Y257291D01*
X3045000Y259787D01*
D02*
G37*
G36*
X3025000D02*
X3009242Y257291D01*
X2992775Y251941D01*
X2977347Y244080D01*
X2963340Y233903D01*
X2951097Y221660D01*
X2940920Y207653D01*
X2933059Y192225D01*
X2927709Y175758D01*
X2925213Y160000D01*
X3025000D01*
Y259787D01*
D02*
G37*
G36*
X160000D02*
Y160000D01*
X259787D01*
X257291Y175758D01*
X251941Y192225D01*
X244080Y207653D01*
X233903Y221660D01*
X221660Y233903D01*
X207653Y244080D01*
X192225Y251941D01*
X175758Y257291D01*
X160000Y259787D01*
D02*
G37*
G36*
X140000D02*
X124242Y257291D01*
X107775Y251941D01*
X92347Y244080D01*
X78340Y233903D01*
X66097Y221660D01*
X55920Y207653D01*
X48059Y192225D01*
X42709Y175758D01*
X40213Y160000D01*
X140000D01*
Y259787D01*
D02*
G37*
G36*
X1949937Y137500D02*
X1940063D01*
X1930525Y134944D01*
X1921975Y130007D01*
X1914993Y123025D01*
X1910056Y114475D01*
X1907500Y104937D01*
Y95063D01*
X1910056Y85525D01*
X1914993Y76975D01*
X1921975Y69993D01*
X1930525Y65056D01*
X1940063Y62500D01*
X1949937D01*
X1959475Y65056D01*
X1968025Y69993D01*
X1975007Y76975D01*
X1979944Y85525D01*
X1982500Y95063D01*
Y104937D01*
X1979944Y114475D01*
X1975007Y123025D01*
X1968025Y130007D01*
X1959475Y134944D01*
X1949937Y137500D01*
D02*
G37*
G36*
X1141320Y90000D02*
X1110000D01*
Y58680D01*
X1116404Y60396D01*
X1126096Y65992D01*
X1134008Y73904D01*
X1139604Y83596D01*
X1141320Y90000D01*
D02*
G37*
G36*
X1090000D02*
X1058680D01*
X1060396Y83596D01*
X1065992Y73904D01*
X1073904Y65992D01*
X1083596Y60396D01*
X1090000Y58680D01*
Y90000D01*
D02*
G37*
G36*
X841320D02*
X810000D01*
Y58680D01*
X816404Y60396D01*
X826096Y65992D01*
X834008Y73904D01*
X839604Y83596D01*
X841320Y90000D01*
D02*
G37*
G36*
X790000D02*
X758680D01*
X760396Y83596D01*
X765992Y73904D01*
X773904Y65992D01*
X783596Y60396D01*
X790000Y58680D01*
Y90000D01*
D02*
G37*
G36*
X3144787Y140000D02*
X3045000D01*
Y40213D01*
X3060758Y42709D01*
X3077225Y48059D01*
X3092653Y55920D01*
X3106660Y66097D01*
X3118903Y78340D01*
X3129080Y92347D01*
X3136941Y107775D01*
X3142291Y124242D01*
X3144787Y140000D01*
D02*
G37*
G36*
X3025000D02*
X2925213D01*
X2927709Y124242D01*
X2933059Y107775D01*
X2940920Y92347D01*
X2951097Y78340D01*
X2963340Y66097D01*
X2977347Y55920D01*
X2992775Y48059D01*
X3009242Y42709D01*
X3025000Y40213D01*
Y140000D01*
D02*
G37*
G36*
X259787D02*
X160000D01*
Y40213D01*
X175758Y42709D01*
X192225Y48059D01*
X207653Y55920D01*
X221660Y66097D01*
X233903Y78340D01*
X244080Y92347D01*
X251941Y107775D01*
X257291Y124242D01*
X259787Y140000D01*
D02*
G37*
G36*
X140000D02*
X40213D01*
X42709Y124242D01*
X48059Y107775D01*
X55920Y92347D01*
X66097Y78340D01*
X78340Y66097D01*
X92347Y55920D01*
X107775Y48059D01*
X124242Y42709D01*
X140000Y40213D01*
Y140000D01*
D02*
G37*
%LPD*%
G36*
X1705000Y1910000D02*
X1385000D01*
X1545000Y2035000D01*
X1705000Y1910000D01*
D02*
G37*
G36*
X1050000Y715000D02*
X1000000D01*
Y1010000D01*
X1050000D01*
Y715000D01*
D02*
G37*
G36*
X2660000Y270000D02*
X2575000D01*
Y975000D01*
X2660000D01*
Y270000D01*
D02*
G37*
G36*
X2750000Y220000D02*
X2670000D01*
Y1065000D01*
X2750000D01*
Y220000D01*
D02*
G37*
G36*
X1100000Y1325000D02*
X1145000Y1280000D01*
X1400000D01*
Y1260000D01*
X1307500Y1167500D01*
X1150000Y1010000D01*
X1130000D01*
Y1255000D01*
X1100000Y1285000D01*
X905000D01*
Y1325000D01*
X1100000Y1325000D01*
D02*
G37*
D22*
X1993627Y899528D02*
X2194528D01*
X2260000Y965000D01*
X1569000Y2309000D02*
Y2504154D01*
X1805352Y2740506D02*
X2255506D01*
X1554000Y2334000D02*
Y2510367D01*
X1799139Y2755506D02*
X2220000D01*
X1554000Y2510367D02*
X1799139Y2755506D01*
X1569000Y2504154D02*
X1805352Y2740506D01*
X1650000Y2335000D02*
X1725000Y2260000D01*
Y2225000D02*
Y2260000D01*
X1620000Y2333180D02*
Y2415000D01*
Y2333180D02*
X1695000Y2258180D01*
Y2185000D02*
Y2258180D01*
X1310000Y575000D02*
X1441099Y706098D01*
X1465000Y200941D02*
Y205000D01*
X1970472Y876373D02*
X1993627Y899528D01*
X1970472Y865472D02*
Y876373D01*
X1470032Y706098D02*
X1599408Y835475D01*
X1441099Y706098D02*
X1470032D01*
X1950000Y845000D02*
X1970472Y865472D01*
X825122Y1279523D02*
Y1514878D01*
X840122Y1285736D02*
X1125858Y1000000D01*
X560000Y1900000D02*
X840122Y1619878D01*
X825122Y1279523D02*
X1324645Y780000D01*
X840122Y1285736D02*
Y1619878D01*
X545000Y1795000D02*
X825122Y1514878D01*
X1324645Y780000D02*
X1400000D01*
X1125858Y1000000D02*
X1145000D01*
X1330000Y815000D01*
X1529528Y1014528D01*
X560000Y1900000D02*
Y1915000D01*
X1825000Y1050000D02*
Y1295941D01*
X1820000Y1300941D02*
X1825000Y1295941D01*
X1820000Y1300941D02*
Y1305000D01*
X2554100Y1320000D02*
X2555000D01*
X1354000Y2226000D02*
X1440000Y2140000D01*
X1354000Y2226000D02*
Y2556000D01*
X815000Y3095000D02*
X1354000Y2556000D01*
X405472Y2185472D02*
X715000Y2495000D01*
X405472Y344528D02*
Y2185472D01*
X1480000Y2220000D02*
Y2260000D01*
X1554000Y2334000D01*
X1520000Y2260000D02*
X1569000Y2309000D01*
X2415000Y2950506D02*
Y3095000D01*
X2220000Y2755506D02*
X2415000Y2950506D01*
X2255506Y2740506D02*
X2515000Y3000000D01*
Y3095000D01*
X1465000Y200941D02*
X1472500Y193441D01*
Y135680D02*
Y193441D01*
X1459320Y122500D02*
X1472500Y135680D01*
X522647Y142500D02*
X1117604D01*
X1137604Y122500D01*
X528860Y157500D02*
X1123817D01*
X1137604Y122500D02*
X1459320D01*
X360472Y325888D02*
X528860Y157500D01*
X1136317Y145000D02*
X1450000D01*
X315000Y350147D02*
Y2495000D01*
X1123817Y157500D02*
X1136317Y145000D01*
X315000Y350147D02*
X522647Y142500D01*
X360472Y325888D02*
Y2206686D01*
X415000Y2261213D01*
Y2495000D01*
X390472Y338314D02*
X533787Y195000D01*
X390472Y338314D02*
Y2191686D01*
X405472Y344528D02*
X495000Y255000D01*
X375472Y332101D02*
Y2200472D01*
X495000Y255000D02*
X1230000D01*
X375472Y2200472D02*
X515000Y2340000D01*
X375472Y332101D02*
X535074Y172500D01*
X390472Y2191686D02*
X615000Y2416213D01*
X515000Y2340000D02*
Y2495000D01*
X1422500Y172500D02*
X1425000Y175000D01*
X535074Y172500D02*
X1422500D01*
X533787Y195000D02*
X1260000D01*
X615000Y2416213D02*
Y2495000D01*
X1529528Y1014528D02*
X1680428D01*
X1725900Y1060000D01*
X1760000D01*
X1562870Y1281230D02*
Y1297130D01*
X1699100Y1145000D02*
X1745000D01*
X1562870Y1281230D02*
X1699100Y1145000D01*
X1560000Y1300000D02*
X1562870Y1297130D01*
D23*
X1800000Y670000D02*
X1835000Y705000D01*
X1761348Y670000D02*
X1800000D01*
X1726630Y704717D02*
X1761348Y670000D01*
X1782891D02*
X1942418Y510472D01*
X1585283Y704717D02*
X1726630D01*
X1787040Y712040D02*
Y739785D01*
X1780000Y705000D02*
X1787040Y712040D01*
Y739785D02*
X1804613Y757359D01*
X2410000Y1125000D02*
X2415000Y1130000D01*
Y925000D02*
Y1005000D01*
X2063744D02*
X2415000D01*
X1981083Y922339D02*
X2063744Y1005000D01*
X1515000Y2675000D02*
X1645000D01*
X1866000Y2354000D02*
Y2513296D01*
Y2354000D02*
X2300000Y1920000D01*
X1822488Y2556808D02*
X1866000Y2513296D01*
X1725000Y2600000D02*
X1726082D01*
X1769274Y2556808D01*
X1822488D01*
X1420000Y2580000D02*
X1515000Y2675000D01*
X1115000Y2495000D02*
X1200000Y2580000D01*
X1265000D01*
X1080000Y640000D02*
X1380000Y340000D01*
X1900000D01*
X925000Y715000D02*
X1402500Y237500D01*
X1930573D01*
X1145000Y635000D02*
X1345000Y435000D01*
X1705000D01*
X2000000Y340000D02*
Y460000D01*
X1930573Y237500D02*
X1932601Y235472D01*
X2459130D02*
X2508657Y285000D01*
X2515000D01*
X1932601Y235472D02*
X2459130D01*
X2415000Y1005000D02*
Y1125000D01*
X1961400Y922339D02*
X1981083D01*
X1942418Y510472D02*
X2036867D01*
X1887359Y672641D02*
Y757359D01*
Y672641D02*
X2000000Y560000D01*
X2415000Y489453D02*
X2465472Y539925D01*
X2415000Y285000D02*
Y485000D01*
Y489453D01*
X2062339Y485000D02*
X2415000D01*
X2036867Y510472D02*
X2062339Y485000D01*
X2465472Y539925D02*
Y1590472D01*
X2555000Y1680000D01*
X2415000Y1130000D02*
Y1660000D01*
X2555000Y1800000D01*
X1950141Y727977D02*
X2412023D01*
X2415000Y725000D01*
X2515000Y925000D02*
X2605000D01*
Y605000D02*
X2610000Y610000D01*
X2515000Y605000D02*
X2605000D01*
X2515000Y285000D02*
X2605000D01*
X2610000Y290000D01*
X1565000Y725000D02*
X1585283Y704717D01*
X2415000Y725000D02*
Y805000D01*
Y605000D02*
Y725000D01*
X545000Y1675000D02*
X785000Y1435000D01*
Y1235000D02*
Y1435000D01*
Y1235000D02*
X1025000Y995000D01*
X1804613Y757359D02*
X1887359D01*
X1940000Y810000D01*
X1875000Y1010000D02*
Y1090000D01*
Y1010000D02*
X1960000Y925000D01*
X1545000Y2020000D02*
Y2105000D01*
X1415000Y2235000D02*
Y2495000D01*
Y2235000D02*
X1545000Y2105000D01*
D24*
X1750000Y1927260D02*
Y2294749D01*
X1560000Y1737260D02*
X1750000Y1927260D01*
X1385000Y1910000D02*
X1695000D01*
X1560000Y1385000D02*
Y1737260D01*
X1695000Y1910000D02*
X1696192Y1908808D01*
X1715000Y2329749D02*
Y2495000D01*
Y2329749D02*
X1750000Y2294749D01*
X1560000Y1385000D02*
X1705000D01*
X1445000D02*
X1560000D01*
X873500Y2126145D02*
Y2495190D01*
X797810Y2553500D02*
X815190D01*
X973500Y2061500D02*
Y2495190D01*
X832190Y2636500D02*
X973500Y2495190D01*
X715000Y2736310D02*
X814810Y2636500D01*
X715000Y2736310D02*
Y3095000D01*
X814810Y2636500D02*
X832190D01*
X973500Y2061500D02*
X1145000Y1890000D01*
X815190Y2553500D02*
X873500Y2495190D01*
X615000Y2736310D02*
X797810Y2553500D01*
X873500Y2126145D02*
X1134645Y1865000D01*
X1225000D02*
X1290000Y1800000D01*
X1134645Y1865000D02*
X1225000D01*
X615000Y2736310D02*
Y3095000D01*
X1266733Y1775000D02*
X1322294D01*
X1332294Y1785000D01*
X1335000D01*
X1219705Y1822028D02*
X1266733Y1775000D01*
X1137617Y1822028D02*
X1219705D01*
X515000Y2753690D02*
X773500Y2495190D01*
Y2186145D02*
Y2495190D01*
Y2186145D02*
X1137617Y1822028D01*
X515000Y2753690D02*
Y3095000D01*
X1640000Y1445000D02*
X1845000D01*
X1860000Y1460000D01*
X1640000Y1560000D02*
X1860000D01*
D25*
X1779043Y705957D02*
X1780000Y705000D01*
X1767817Y705957D02*
X1779043D01*
X1606925Y866849D02*
X1767817Y705957D01*
X1592880Y867806D02*
X1593837Y866849D01*
X1606925D01*
X1395000Y715000D02*
X1580000Y900000D01*
X1025000Y715000D02*
X1395000D01*
D26*
X2415000Y3095000D02*
D03*
X2315000D02*
D03*
X2215000D02*
D03*
X2115000D02*
D03*
X2015000D02*
D03*
X1915000D02*
D03*
X1815000D02*
D03*
X1715000D02*
D03*
X1615000D02*
D03*
X1515000D02*
D03*
X1415000D02*
D03*
X1315000D02*
D03*
Y2495000D02*
D03*
X1415000D02*
D03*
X1515000D02*
D03*
X1615000D02*
D03*
X1715000D02*
D03*
X1815000D02*
D03*
X1915000D02*
D03*
X2015000D02*
D03*
X2115000D02*
D03*
X2215000D02*
D03*
X2315000D02*
D03*
X2515000Y3095000D02*
D03*
X2415000Y2495000D02*
D03*
X2515000D02*
D03*
X2615000Y3095000D02*
D03*
Y2495000D02*
D03*
X1215000Y3095000D02*
D03*
Y2495000D02*
D03*
X1115000Y3095000D02*
D03*
X1015000D02*
D03*
X915000D02*
D03*
X815000D02*
D03*
X715000D02*
D03*
X615000D02*
D03*
X515000D02*
D03*
X415000D02*
D03*
X315000D02*
D03*
Y2495000D02*
D03*
X415000D02*
D03*
X515000D02*
D03*
X615000D02*
D03*
X715000D02*
D03*
X815000D02*
D03*
X915000D02*
D03*
X1015000D02*
D03*
X1115000D02*
D03*
X815000Y2995000D02*
D03*
Y2795000D02*
D03*
Y2695000D02*
D03*
Y2895000D02*
D03*
Y2595000D02*
D03*
X2515000D02*
D03*
X2315000D02*
D03*
X2215000D02*
D03*
X2115000D02*
D03*
X2365000Y2970000D02*
D03*
X2265000D02*
D03*
X2165000D02*
D03*
X2065000D02*
D03*
X1965000D02*
D03*
D27*
X2555000Y1320000D02*
D03*
X1185000Y1680000D02*
D03*
X1860000D02*
D03*
X1230000Y1560000D02*
D03*
X1860000D02*
D03*
X545000Y1795000D02*
D03*
Y1915000D02*
D03*
Y1675000D02*
D03*
X2555000Y1680000D02*
D03*
Y1800000D02*
D03*
Y1440000D02*
D03*
X2415000Y805000D02*
D03*
X925000Y715000D02*
D03*
X1025000Y995000D02*
D03*
X2515000Y285000D02*
D03*
X2415000Y485000D02*
D03*
X2000000Y560000D02*
D03*
X2515000Y925000D02*
D03*
X2415000Y1125000D02*
D03*
X650000Y1105000D02*
D03*
X1550000Y975000D02*
D03*
X2555000Y1920000D02*
D03*
Y1560000D02*
D03*
X650000Y395000D02*
D03*
Y1405000D02*
D03*
X1900000Y340000D02*
D03*
X2515000Y605000D02*
D03*
D28*
X2655000Y1320000D02*
D03*
X445000Y1795000D02*
D03*
Y1915000D02*
D03*
Y1675000D02*
D03*
X2655000Y1680000D02*
D03*
Y1800000D02*
D03*
Y1440000D02*
D03*
X2515000Y805000D02*
D03*
X1025000Y715000D02*
D03*
X925000Y995000D02*
D03*
X2415000Y285000D02*
D03*
X2515000Y485000D02*
D03*
X2415000Y925000D02*
D03*
X2515000Y1125000D02*
D03*
X550000Y1105000D02*
D03*
X2655000Y1920000D02*
D03*
Y1560000D02*
D03*
X550000Y395000D02*
D03*
Y1405000D02*
D03*
X2000000Y340000D02*
D03*
X2415000Y605000D02*
D03*
D29*
X1185000Y1780000D02*
D03*
X1860000D02*
D03*
X1230000Y1460000D02*
D03*
X1860000D02*
D03*
X2000000Y460000D02*
D03*
X1550000Y1075000D02*
D03*
D30*
X3035000Y150000D02*
D03*
Y3160000D02*
D03*
X150000D02*
D03*
Y150000D02*
D03*
D31*
X925000Y1605000D02*
D03*
Y1305000D02*
D03*
Y595000D02*
D03*
X2010000Y855000D02*
D03*
X1705000Y1195000D02*
D03*
Y1095000D02*
D03*
D32*
X2015000Y1150000D02*
D03*
X2215000D02*
D03*
Y1350000D02*
D03*
X2015000D02*
D03*
D33*
X2115000Y1250000D02*
D03*
D34*
X3085000Y1400000D02*
D03*
Y1700000D02*
D03*
Y2000000D02*
D03*
Y2300000D02*
D03*
Y2600000D02*
D03*
X100000D02*
D03*
X800000Y100000D02*
D03*
X100000Y2300000D02*
D03*
Y2000000D02*
D03*
Y1700000D02*
D03*
Y1400000D02*
D03*
Y1100000D02*
D03*
Y800000D02*
D03*
Y500000D02*
D03*
X1100000Y100000D02*
D03*
X1945000D02*
D03*
X500000D02*
D03*
D35*
X2132388Y1062500D02*
D03*
X1780000Y705000D02*
D03*
X1696192Y1908808D02*
D03*
X2260000Y965000D02*
D03*
X1470000Y2085000D02*
D03*
X1255000Y1910000D02*
D03*
X1620000Y2415000D02*
D03*
X1650000Y2335000D02*
D03*
X1695000Y2185000D02*
D03*
X1725000Y2220000D02*
D03*
X1465000Y205000D02*
D03*
X1599408Y835475D02*
D03*
X1592880Y867806D02*
D03*
X1715998Y704717D02*
D03*
X1145000Y1890000D02*
D03*
X1290000Y1800000D02*
D03*
X1335000Y1785000D02*
D03*
X1950141Y727977D02*
D03*
X1567230Y722036D02*
D03*
X1400000Y780000D02*
D03*
X1142500Y1205000D02*
D03*
Y1022500D02*
D03*
X1579620Y897652D02*
D03*
X1525000Y1415000D02*
D03*
X1585000Y1440000D02*
D03*
X1640000Y1445000D02*
D03*
X1705000Y1385000D02*
D03*
X1445000D02*
D03*
X1286169Y1412372D02*
D03*
X1396101Y1270173D02*
D03*
X1950000Y845000D02*
D03*
X1961400Y922339D02*
D03*
X1875000Y1090000D02*
D03*
X1825000Y1050000D02*
D03*
X1945141Y812977D02*
D03*
X1640000Y1560000D02*
D03*
X1440000Y2140000D02*
D03*
X1480000Y2220000D02*
D03*
X1520000Y2260000D02*
D03*
X1385000Y1910000D02*
D03*
X1450000Y145000D02*
D03*
X1425000Y175000D02*
D03*
X1260000Y195000D02*
D03*
X1230000Y255000D02*
D03*
X1835000Y705000D02*
D03*
X1820000Y1305000D02*
D03*
X1760000Y1060000D02*
D03*
X1330000Y815000D02*
D03*
X1560000Y1300000D02*
D03*
X1745000Y1145000D02*
D03*
X1839961Y939961D02*
D03*
Y896654D02*
D03*
Y853346D02*
D03*
Y810039D02*
D03*
X1796654Y939961D02*
D03*
Y896654D02*
D03*
Y853346D02*
D03*
Y810039D02*
D03*
X1753347Y939961D02*
D03*
Y896654D02*
D03*
Y853346D02*
D03*
Y810039D02*
D03*
X1710039Y939961D02*
D03*
Y896654D02*
D03*
Y853346D02*
D03*
Y810039D02*
D03*
D36*
X1645000Y2675000D02*
D03*
X2300000Y1920000D02*
D03*
X1725000Y2600000D02*
D03*
X1420000Y2580000D02*
D03*
X1265000D02*
D03*
X1080000Y640000D02*
D03*
X1310000Y575000D02*
D03*
X1360000D02*
D03*
X1550000Y495000D02*
D03*
X2715000Y245000D02*
D03*
X2711706Y565998D02*
D03*
X2710407Y887284D02*
D03*
X1145000Y635000D02*
D03*
X1705000Y435000D02*
D03*
X1545000Y575000D02*
D03*
X1460000D02*
D03*
%TF.MD5,7ed77a3fcaf26bfee9ec62088848ea32*%
M02*
