%TF.GenerationSoftware,Altium Limited,Altium Designer,21.6.4 (81)*%
G04 Layer_Color=65535*
%FSLAX26Y26*%
%MOIN*%
%TF.SameCoordinates,879DA611-49A8-4675-8A71-469A8E5B397B*%
%TF.FilePolarity,Positive*%
%TF.FileFunction,Legend,Top*%
%TF.Part,Single*%
G01*
G75*
%TA.AperFunction,NonConductor*%
%ADD49C,0.009842*%
%ADD50C,0.007874*%
%ADD51C,0.006000*%
%ADD52C,0.010000*%
D49*
X2332126Y395709D02*
G03*
X2332126Y395709I-4921J0D01*
G01*
X2219291Y1259331D02*
G03*
X2219291Y1259331I-4921J0D01*
G01*
X2090551Y1200669D02*
G03*
X2090551Y1200669I-4921J0D01*
G01*
X2219291Y964331D02*
G03*
X2219291Y964331I-4921J0D01*
G01*
X2090551Y905669D02*
G03*
X2090551Y905669I-4921J0D01*
G01*
X1919291Y964331D02*
G03*
X1919291Y964331I-4921J0D01*
G01*
X1790551Y905669D02*
G03*
X1790551Y905669I-4921J0D01*
G01*
X2365787Y2304134D02*
G03*
X2365787Y2304134I-4921J0D01*
G01*
X1470787Y230866D02*
G03*
X1470787Y230866I-4921J0D01*
G01*
X2663307Y832913D02*
G03*
X2663307Y832913I-4921J0D01*
G01*
X1505787Y1330866D02*
G03*
X1505787Y1330866I-4921J0D01*
G01*
X2869291Y1094331D02*
G03*
X2869291Y1094331I-4921J0D01*
G01*
X2740551Y1350669D02*
G03*
X2740551Y1350669I-4921J0D01*
G01*
D50*
X2321299Y421299D02*
X2356732D01*
X2321299D02*
Y446890D01*
Y683110D02*
Y708701D01*
X2356732D01*
X2573268D02*
X2608701D01*
Y683110D02*
Y708701D01*
X2573268Y421299D02*
X2608701D01*
Y446890D01*
X2285000Y75000D02*
Y275000D01*
X2185000D02*
X2285000D01*
X2185000Y75000D02*
Y275000D01*
Y75000D02*
X2285000D01*
X2785000Y140000D02*
X2985000D01*
X2785000Y40000D02*
Y140000D01*
Y40000D02*
X2985000D01*
Y140000D01*
X1822441Y2148110D02*
Y2161890D01*
X1843110Y2095157D02*
X1877559D01*
Y2185512D02*
Y2214843D01*
Y2095157D02*
Y2124488D01*
X1843110Y2214843D02*
X1877559D01*
X3097441Y2148110D02*
Y2161890D01*
X3118110Y2095157D02*
X3152559D01*
Y2185512D02*
Y2214843D01*
Y2095157D02*
Y2124488D01*
X3118110Y2214843D02*
X3152559D01*
X2438504Y1605158D02*
Y1624842D01*
X2501496D01*
Y1605158D02*
Y1624842D01*
X2438504Y1605158D02*
X2501496D01*
X2434567Y1573071D02*
Y1591378D01*
X2573504Y1605158D02*
Y1624842D01*
X2636496D01*
Y1605158D02*
Y1624842D01*
X2573504Y1605158D02*
X2636496D01*
X2569567Y1573071D02*
Y1591378D01*
X2119291Y1273504D02*
Y1336496D01*
X2180709D01*
X2119291Y1273504D02*
X2180709D01*
Y1336496D01*
Y1123504D02*
Y1186496D01*
X2119291Y1123504D02*
X2180709D01*
X2119291Y1186496D02*
X2180709D01*
X2119291Y1123504D02*
Y1186496D01*
Y978504D02*
Y1041496D01*
X2180709D01*
X2119291Y978504D02*
X2180709D01*
Y1041496D01*
Y828504D02*
Y891496D01*
X2119291Y828504D02*
X2180709D01*
X2119291Y891496D02*
X2180709D01*
X2119291Y828504D02*
Y891496D01*
X1819291Y978504D02*
Y1041496D01*
X1880709D01*
X1819291Y978504D02*
X1880709D01*
Y1041496D01*
Y828504D02*
Y891496D01*
X1819291Y828504D02*
X1880709D01*
X1819291Y891496D02*
X1880709D01*
X1819291Y828504D02*
Y891496D01*
X2774173Y1632913D02*
X2795827D01*
X2774173D02*
Y1747087D01*
X2795827D01*
Y1632913D02*
Y1747087D01*
X2809606Y1630945D02*
X2858819D01*
X2279173Y1747087D02*
X2300827D01*
Y1632913D02*
Y1747087D01*
X2279173Y1632913D02*
X2300827D01*
X2279173D02*
Y1747087D01*
X2216181Y1749055D02*
X2265394D01*
X1395000Y1170000D02*
Y1270000D01*
X1195000Y1170000D02*
X1395000D01*
X1195000D02*
Y1270000D01*
X1395000D01*
X2195000Y2360000D02*
X2295000D01*
X2195000D02*
Y2560000D01*
X2295000D01*
Y2360000D02*
Y2560000D01*
X2228976Y2230315D02*
X2351024D01*
X2228976Y2269685D02*
X2351024D01*
X2228976Y2230315D02*
Y2269685D01*
X2351024Y2230315D02*
Y2269685D01*
X1539685Y98976D02*
Y221024D01*
X1500315Y98976D02*
Y221024D01*
Y98976D02*
X1539685D01*
X1500315Y221024D02*
X1539685D01*
X2593425Y915591D02*
Y933307D01*
X2628858D01*
X2593425Y846693D02*
Y864409D01*
Y846693D02*
X2628858D01*
X1574685Y1198976D02*
Y1321024D01*
X1535315Y1198976D02*
Y1321024D01*
Y1198976D02*
X1574685D01*
X1535315Y1321024D02*
X1574685D01*
X1432165Y331575D02*
X1577835D01*
X1432165D02*
Y528425D01*
X1577835D01*
Y331575D02*
Y528425D01*
X1591614Y317795D02*
X1649685D01*
X2420787Y1361260D02*
Y1394724D01*
X2430630Y1408504D02*
X2509370D01*
Y1471496D01*
X2430630D02*
X2509370D01*
X2430630Y1408504D02*
Y1471496D01*
X2555787Y1361260D02*
Y1394724D01*
X2565630Y1408504D02*
X2644370D01*
Y1471496D01*
X2565630D02*
X2644370D01*
X2565630Y1408504D02*
Y1471496D01*
X3261378Y1465748D02*
X3308622D01*
X3261378Y1434252D02*
X3326929D01*
X1766378D02*
X1813622D01*
X1748071Y1465748D02*
X1813622D01*
X2769291Y1108504D02*
Y1171496D01*
X2830709D01*
X2769291Y1108504D02*
X2830709D01*
Y1171496D01*
Y1273504D02*
Y1336496D01*
X2769291Y1273504D02*
X2830709D01*
X2769291Y1336496D02*
X2830709D01*
X2769291Y1273504D02*
Y1336496D01*
X3282047Y1632520D02*
X3287953D01*
X3282047D02*
Y1747480D01*
X3287953D01*
Y1632520D02*
Y1747480D01*
X3301732Y1630945D02*
X3350945D01*
X3024173Y1632913D02*
X3045827D01*
X3024173D02*
Y1747087D01*
X3045827D01*
Y1632913D02*
Y1747087D01*
X3059606Y1630945D02*
X3108819D01*
X1787047Y1747480D02*
X1792953D01*
Y1632520D02*
Y1747480D01*
X1787047Y1632520D02*
X1792953D01*
X1787047D02*
Y1747480D01*
X1724055Y1749055D02*
X1773268D01*
X2029173Y1747087D02*
X2050827D01*
Y1632913D02*
Y1747087D01*
X2029173Y1632913D02*
X2050827D01*
X2029173D02*
Y1747087D01*
X1966181Y1749055D02*
X2015394D01*
X3240000Y210000D02*
X3340000D01*
X3240000D02*
Y410000D01*
X3340000D01*
Y210000D02*
Y410000D01*
X3240000Y790000D02*
X3340000D01*
Y590000D02*
Y790000D01*
X3240000Y590000D02*
X3340000D01*
X3240000D02*
Y790000D01*
X2435000Y1860000D02*
Y1960000D01*
X2635000D01*
Y1860000D02*
Y1960000D01*
X2435000Y1860000D02*
X2635000D01*
X1600000Y790000D02*
X1700000D01*
Y590000D02*
Y790000D01*
X1600000Y590000D02*
X1700000D01*
X1600000D02*
Y790000D01*
X3120000Y820000D02*
Y920000D01*
X2920000Y820000D02*
X3120000D01*
X2920000D02*
Y920000D01*
X3120000D01*
X1945000Y635000D02*
Y735000D01*
X2145000D01*
Y635000D02*
Y735000D01*
X1945000Y635000D02*
X2145000D01*
X2435000Y1710000D02*
Y1810000D01*
X2635000D01*
Y1710000D02*
Y1810000D01*
X2435000Y1710000D02*
X2635000D01*
X3009951Y1423425D02*
X3060049D01*
X3009951Y1476575D02*
X3060049D01*
X2014951D02*
X2065049D01*
X2014951Y1423425D02*
X2065049D01*
X1758504Y1925433D02*
X1821496D01*
X1758504Y1854567D02*
X1821496D01*
X3253504D02*
X3316496D01*
X3253504Y1925433D02*
X3316496D01*
D51*
X2569065Y140990D02*
Y120997D01*
X2579061Y111000D01*
X2589058Y120997D01*
Y140990D01*
X2599055D02*
Y111000D01*
X2614050D01*
X2619048Y115998D01*
Y135992D01*
X2614050Y140990D01*
X2599055D01*
X2629045D02*
Y111000D01*
X2644041D01*
X2649039Y115998D01*
Y135992D01*
X2644041Y140990D01*
X2629045D01*
X2659036D02*
X2679029D01*
X2669032D01*
Y111000D01*
X2709019Y140990D02*
X2689026D01*
Y111000D01*
X2709019D01*
X2689026Y125995D02*
X2699023D01*
X2739010Y135992D02*
X2734011Y140990D01*
X2724015D01*
X2719016Y135992D01*
Y130994D01*
X2724015Y125995D01*
X2734011D01*
X2739010Y120997D01*
Y115998D01*
X2734011Y111000D01*
X2724015D01*
X2719016Y115998D01*
X2749006Y140990D02*
X2769000D01*
X2759003D01*
Y111000D01*
X1289094Y650989D02*
Y630995D01*
X1299091Y620998D01*
X1309087Y630995D01*
Y650989D01*
X1319084D02*
Y620998D01*
X1334079D01*
X1339078Y625997D01*
Y645990D01*
X1334079Y650989D01*
X1319084D01*
X1349074Y620998D02*
Y640992D01*
X1359071Y650989D01*
X1369068Y640992D01*
Y620998D01*
Y635994D01*
X1349074D01*
X1399058Y645990D02*
X1394060Y650989D01*
X1384063D01*
X1379065Y645990D01*
Y625997D01*
X1384063Y620998D01*
X1394060D01*
X1399058Y625997D01*
X1409055Y616000D02*
X1429049D01*
X1459039Y645990D02*
X1454041Y650989D01*
X1444044D01*
X1439045Y645990D01*
Y640992D01*
X1444044Y635994D01*
X1454041D01*
X1459039Y630995D01*
Y625997D01*
X1454041Y620998D01*
X1444044D01*
X1439045Y625997D01*
X1469036Y620998D02*
Y650989D01*
X1479032Y640992D01*
X1489029Y650989D01*
Y620998D01*
X1499026D02*
Y640992D01*
X1509023Y650989D01*
X1519019Y640992D01*
Y620998D01*
Y635994D01*
X1499026D01*
X1529016Y650989D02*
Y620998D01*
X1549010D01*
X1559006Y650989D02*
Y620998D01*
X1579000D01*
X3234994Y2769008D02*
X3239992Y2764010D01*
X3249989D01*
X3254987Y2769008D01*
Y2789002D01*
X3249989Y2794000D01*
X3239992D01*
X3234994Y2789002D01*
Y2779005D01*
X3244990D01*
X3224997Y2794000D02*
Y2764010D01*
X3205003Y2794000D01*
Y2764010D01*
X3195006D02*
Y2794000D01*
X3180011D01*
X3175013Y2789002D01*
Y2769008D01*
X3180011Y2764010D01*
X3195006D01*
X2234994Y2769008D02*
X2239992Y2764010D01*
X2249989D01*
X2254987Y2769008D01*
Y2789002D01*
X2249989Y2794000D01*
X2239992D01*
X2234994Y2789002D01*
Y2779005D01*
X2244990D01*
X2224997Y2794000D02*
Y2764010D01*
X2205003Y2794000D01*
Y2764010D01*
X2195006D02*
Y2794000D01*
X2180011D01*
X2175013Y2789002D01*
Y2769008D01*
X2180011Y2764010D01*
X2195006D01*
X1734994Y2774008D02*
X1739992Y2769010D01*
X1749989D01*
X1754987Y2774008D01*
Y2794002D01*
X1749989Y2799000D01*
X1739992D01*
X1734994Y2794002D01*
Y2784005D01*
X1744990D01*
X1724997Y2799000D02*
Y2769010D01*
X1705003Y2799000D01*
Y2769010D01*
X1695006D02*
Y2799000D01*
X1680011D01*
X1675013Y2794002D01*
Y2774008D01*
X1680011Y2769010D01*
X1695006D01*
X1234994Y2769008D02*
X1239992Y2764010D01*
X1249989D01*
X1254987Y2769008D01*
Y2789002D01*
X1249989Y2794000D01*
X1239992D01*
X1234994Y2789002D01*
Y2779005D01*
X1244990D01*
X1224997Y2794000D02*
Y2764010D01*
X1205003Y2794000D01*
Y2764010D01*
X1195006D02*
Y2794000D01*
X1180011D01*
X1175013Y2789002D01*
Y2769008D01*
X1180011Y2764010D01*
X1195006D01*
X3604008Y2009019D02*
X3599010Y2004021D01*
Y1994024D01*
X3604008Y1989026D01*
X3624002D01*
X3629000Y1994024D01*
Y2004021D01*
X3624002Y2009019D01*
X3614005D01*
Y1999023D01*
X3629000Y2019016D02*
X3599010D01*
X3629000Y2039010D01*
X3599010D01*
Y2049006D02*
X3629000D01*
Y2064002D01*
X3624002Y2069000D01*
X3604008D01*
X3599010Y2064002D01*
Y2049006D01*
X2734994Y2769008D02*
X2739992Y2764010D01*
X2749989D01*
X2754987Y2769008D01*
Y2789002D01*
X2749989Y2794000D01*
X2739992D01*
X2734994Y2789002D01*
Y2779005D01*
X2744990D01*
X2724997Y2794000D02*
Y2764010D01*
X2705003Y2794000D01*
Y2764010D01*
X2695006D02*
Y2794000D01*
X2680011D01*
X2675013Y2789002D01*
Y2769008D01*
X2680011Y2764010D01*
X2695006D01*
X2244071Y1075994D02*
X2270729D01*
X2257400Y1089323D02*
Y1062665D01*
X2284058Y1056000D02*
X2297387D01*
X2290723D01*
Y1095987D01*
X2284058Y1089323D01*
X2317381D02*
X2324045Y1095987D01*
X2337374D01*
X2344039Y1089323D01*
Y1062665D01*
X2337374Y1056000D01*
X2324045D01*
X2317381Y1062665D01*
Y1089323D01*
X2357368Y1095987D02*
Y1069329D01*
X2370697Y1056000D01*
X2384026Y1069329D01*
Y1095987D01*
X2397355Y1056000D02*
Y1095987D01*
X2417348D01*
X2424013Y1089323D01*
Y1075994D01*
X2417348Y1069329D01*
X2397355D01*
X2410684D02*
X2424013Y1056000D01*
X2464000Y1095987D02*
X2437342D01*
Y1075994D01*
X2450671D01*
X2437342D01*
Y1056000D01*
X3614005Y1534052D02*
Y1554045D01*
X3604008Y1544049D02*
X3624002D01*
X3629000Y1564042D02*
Y1574039D01*
Y1569041D01*
X3599010D01*
X3604008Y1564042D01*
X3629000Y1589034D02*
X3624002D01*
Y1594032D01*
X3629000D01*
Y1589034D01*
X3604008Y1614026D02*
X3599010Y1619024D01*
Y1629021D01*
X3604008Y1634019D01*
X3609006D01*
X3614005Y1629021D01*
X3619003Y1634019D01*
X3624002D01*
X3629000Y1629021D01*
Y1619024D01*
X3624002Y1614026D01*
X3619003D01*
X3614005Y1619024D01*
X3609006Y1614026D01*
X3604008D01*
X3614005Y1619024D02*
Y1629021D01*
X3599010Y1644016D02*
X3619003D01*
X3629000Y1654013D01*
X3619003Y1664010D01*
X3599010D01*
Y1674006D02*
X3629000D01*
Y1689002D01*
X3624002Y1694000D01*
X3604008D01*
X3599010Y1689002D01*
Y1674006D01*
X3614005Y1744036D02*
Y1764029D01*
X3604008Y1754032D02*
X3624002D01*
X3599010Y1794019D02*
Y1774026D01*
X3614005D01*
X3609006Y1784023D01*
Y1789021D01*
X3614005Y1794019D01*
X3624002D01*
X3629000Y1789021D01*
Y1779024D01*
X3624002Y1774026D01*
X3599010Y1804016D02*
X3619003D01*
X3629000Y1814013D01*
X3619003Y1824010D01*
X3599010D01*
Y1834006D02*
X3629000D01*
Y1849002D01*
X3624002Y1854000D01*
X3604008D01*
X3599010Y1849002D01*
Y1834006D01*
X3614005Y1114052D02*
Y1134045D01*
X3604008Y1124049D02*
X3624002D01*
X3629000Y1144042D02*
Y1154039D01*
Y1149041D01*
X3599010D01*
X3604008Y1144042D01*
X3629000Y1169034D02*
X3624002D01*
Y1174032D01*
X3629000D01*
Y1169034D01*
X3604008Y1194026D02*
X3599010Y1199024D01*
Y1209021D01*
X3604008Y1214019D01*
X3609006D01*
X3614005Y1209021D01*
X3619003Y1214019D01*
X3624002D01*
X3629000Y1209021D01*
Y1199024D01*
X3624002Y1194026D01*
X3619003D01*
X3614005Y1199024D01*
X3609006Y1194026D01*
X3604008D01*
X3614005Y1199024D02*
Y1209021D01*
X3599010Y1224016D02*
X3619003D01*
X3629000Y1234013D01*
X3619003Y1244010D01*
X3599010D01*
X3629000Y1254006D02*
X3609006D01*
X3599010Y1264003D01*
X3609006Y1274000D01*
X3629000D01*
X3614005D01*
Y1254006D01*
X1807554Y40994D02*
X1827548D01*
X1817551Y50990D02*
Y30997D01*
X1837544Y25998D02*
X1847541D01*
X1842543D01*
Y55989D01*
X1837544Y50990D01*
X1862536Y25998D02*
Y30997D01*
X1867535D01*
Y25998D01*
X1862536D01*
X1887528Y50990D02*
X1892527Y55989D01*
X1902524D01*
X1907522Y50990D01*
Y45992D01*
X1902524Y40994D01*
X1907522Y35995D01*
Y30997D01*
X1902524Y25998D01*
X1892527D01*
X1887528Y30997D01*
Y35995D01*
X1892527Y40994D01*
X1887528Y45992D01*
Y50990D01*
X1892527Y40994D02*
X1902524D01*
X1917519Y55989D02*
Y35995D01*
X1927515Y25998D01*
X1937512Y35995D01*
Y55989D01*
X1947509D02*
Y25998D01*
X1962504D01*
X1967502Y30997D01*
Y50990D01*
X1962504Y55989D01*
X1947509D01*
X1977499Y21000D02*
X1997493D01*
X2027483Y50990D02*
X2022485Y55989D01*
X2012488D01*
X2007489Y50990D01*
Y45992D01*
X2012488Y40994D01*
X2022485D01*
X2027483Y35995D01*
Y30997D01*
X2022485Y25998D01*
X2012488D01*
X2007489Y30997D01*
X2037480Y55989D02*
Y25998D01*
Y40994D01*
X2057473D01*
Y55989D01*
Y25998D01*
X2067470Y55989D02*
X2077467D01*
X2072468D01*
Y25998D01*
X2067470D01*
X2077467D01*
X2112456Y55989D02*
X2092462D01*
Y40994D01*
X2102459D01*
X2092462D01*
Y25998D01*
X2122452Y55989D02*
X2142446D01*
X2132449D01*
Y25998D01*
X2590912Y1104397D02*
X2576774Y1118534D01*
X2580308Y1136206D02*
X2559102D01*
X2559102Y1115000D01*
X1265055Y70994D02*
X1285049D01*
X1275052Y80990D02*
Y60997D01*
X1295045Y80990D02*
X1300044Y85989D01*
X1310041D01*
X1315039Y80990D01*
Y75992D01*
X1310041Y70994D01*
X1305042D01*
X1310041D01*
X1315039Y65995D01*
Y60997D01*
X1310041Y55998D01*
X1300044D01*
X1295045Y60997D01*
X1325036Y55998D02*
Y60997D01*
X1330034D01*
Y55998D01*
X1325036D01*
X1350027Y80990D02*
X1355026Y85989D01*
X1365023D01*
X1370021Y80990D01*
Y75992D01*
X1365023Y70994D01*
X1360024D01*
X1365023D01*
X1370021Y65995D01*
Y60997D01*
X1365023Y55998D01*
X1355026D01*
X1350027Y60997D01*
X1380018Y85989D02*
Y65995D01*
X1390015Y55998D01*
X1400011Y65995D01*
Y85989D01*
X1410008D02*
Y55998D01*
X1425003D01*
X1430002Y60997D01*
Y80990D01*
X1425003Y85989D01*
X1410008D01*
X1439998Y51000D02*
X1459992D01*
X1489982Y80990D02*
X1484984Y85989D01*
X1474987D01*
X1469989Y80990D01*
Y75992D01*
X1474987Y70994D01*
X1484984D01*
X1489982Y65995D01*
Y60997D01*
X1484984Y55998D01*
X1474987D01*
X1469989Y60997D01*
X1499979Y85989D02*
Y55998D01*
Y70994D01*
X1519973D01*
Y85989D01*
Y55998D01*
X1529969Y85989D02*
X1539966D01*
X1534968D01*
Y55998D01*
X1529969D01*
X1539966D01*
X1574955Y85989D02*
X1554961D01*
Y70994D01*
X1564958D01*
X1554961D01*
Y55998D01*
X1584951Y85989D02*
X1604945D01*
X1594948D01*
Y55998D01*
X1179019Y75992D02*
X1174021Y80990D01*
X1164024D01*
X1159026Y75992D01*
Y55998D01*
X1164024Y51000D01*
X1174021D01*
X1179019Y55998D01*
Y65995D01*
X1169023D01*
X1189016Y51000D02*
Y80990D01*
X1209010Y51000D01*
Y80990D01*
X1219006D02*
Y51000D01*
X1234002D01*
X1239000Y55998D01*
Y75992D01*
X1234002Y80990D01*
X1219006D01*
X2683345Y789072D02*
Y769078D01*
X2693342Y759082D01*
X2703339Y769078D01*
Y789072D01*
X2713336D02*
X2723332D01*
X2718334D01*
Y759082D01*
X2713336D01*
X2723332D01*
X2738327D02*
Y789072D01*
X2758321Y759082D01*
Y789072D01*
X2229011Y509045D02*
Y529039D01*
X2234010D01*
X2254003Y509045D01*
X2259002D01*
Y529039D01*
X2234010Y559029D02*
X2229011Y554031D01*
Y544034D01*
X2234010Y539036D01*
X2254003D01*
X2259002Y544034D01*
Y554031D01*
X2254003Y559029D01*
X2229011Y569026D02*
X2259002D01*
Y584021D01*
X2254003Y589019D01*
X2234010D01*
X2229011Y584021D01*
Y569026D01*
X2264000Y599016D02*
Y619010D01*
X2259002Y629006D02*
X2229011D01*
Y644002D01*
X2234010Y649000D01*
X2244006D01*
X2249005Y644002D01*
Y629006D01*
X2726000Y520989D02*
Y500995D01*
X2735997Y490998D01*
X2745994Y500995D01*
Y520989D01*
X2755990D02*
X2765987D01*
X2760989D01*
Y490998D01*
X2755990D01*
X2765987D01*
X2780982D02*
Y520989D01*
X2800976Y490998D01*
Y520989D01*
X2810972Y486000D02*
X2830966D01*
X2840963Y520989D02*
X2860956D01*
X2850960D01*
Y490998D01*
X2890947Y520989D02*
X2870953D01*
Y490998D01*
X2890947D01*
X2870953Y505994D02*
X2880950D01*
X2920937Y515990D02*
X2915939Y520989D01*
X2905942D01*
X2900943Y515990D01*
Y510992D01*
X2905942Y505994D01*
X2915939D01*
X2920937Y500995D01*
Y495997D01*
X2915939Y490998D01*
X2905942D01*
X2900943Y495997D01*
X2930934Y520989D02*
X2950927D01*
X2940930D01*
Y490998D01*
X2726000Y665989D02*
Y645995D01*
X2735997Y635998D01*
X2745994Y645995D01*
Y665989D01*
X2770985D02*
X2760989D01*
X2755990Y660990D01*
Y640997D01*
X2760989Y635998D01*
X2770985D01*
X2775984Y640997D01*
Y660990D01*
X2770985Y665989D01*
X2785981D02*
Y640997D01*
X2790979Y635998D01*
X2800976D01*
X2805974Y640997D01*
Y665989D01*
X2815971D02*
X2835964D01*
X2825968D01*
Y635998D01*
X2845961Y631000D02*
X2865955D01*
X2875952Y665989D02*
X2895945D01*
X2885948D01*
Y635998D01*
X2925935Y665989D02*
X2905942D01*
Y635998D01*
X2925935D01*
X2905942Y650994D02*
X2915939D01*
X2955926Y660990D02*
X2950927Y665989D01*
X2940930D01*
X2935932Y660990D01*
Y655992D01*
X2940930Y650994D01*
X2950927D01*
X2955926Y645995D01*
Y640997D01*
X2950927Y635998D01*
X2940930D01*
X2935932Y640997D01*
X2965922Y665989D02*
X2985916D01*
X2975919D01*
Y635998D01*
X2011000Y780990D02*
Y760997D01*
X2020997Y751000D01*
X2030994Y760997D01*
Y780990D01*
X2040990D02*
Y751000D01*
X2055985D01*
X2060984Y755998D01*
Y775992D01*
X2055985Y780990D01*
X2040990D01*
X2070981D02*
Y751000D01*
X2085976D01*
X2090974Y755998D01*
Y775992D01*
X2085976Y780990D01*
X2070981D01*
X2120964Y775992D02*
X2115966Y780990D01*
X2105969D01*
X2100971Y775992D01*
Y770994D01*
X2105969Y765995D01*
X2115966D01*
X2120964Y760997D01*
Y755998D01*
X2115966Y751000D01*
X2105969D01*
X2100971Y755998D01*
X2130961Y751000D02*
Y780990D01*
X2140958Y770994D01*
X2150955Y780990D01*
Y751000D01*
X2160952D02*
Y770994D01*
X2170948Y780990D01*
X2180945Y770994D01*
Y751000D01*
Y765995D01*
X2160952D01*
X2190942Y780990D02*
Y751000D01*
X2210935D01*
X2220932Y780990D02*
Y751000D01*
X2240926D01*
X2946000Y965990D02*
Y945997D01*
X2955997Y936000D01*
X2965994Y945997D01*
Y965990D01*
X2975990D02*
Y936000D01*
X2990985D01*
X2995984Y940998D01*
Y960992D01*
X2990985Y965990D01*
X2975990D01*
X3005981D02*
Y936000D01*
X3020976D01*
X3025974Y940998D01*
Y960992D01*
X3020976Y965990D01*
X3005981D01*
X3035971Y936000D02*
Y965990D01*
X3045968Y955994D01*
X3055964Y965990D01*
Y936000D01*
X3065961D02*
Y955994D01*
X3075958Y965990D01*
X3085955Y955994D01*
Y936000D01*
Y950995D01*
X3065961D01*
X3095952Y965990D02*
X3105948D01*
X3100950D01*
Y936000D01*
X3095952D01*
X3105948D01*
X3120943D02*
Y965990D01*
X3140937Y936000D01*
Y965990D01*
X2354000Y1221000D02*
X2324010D01*
Y1235995D01*
X2329008Y1240994D01*
X2339005D01*
X2344003Y1235995D01*
Y1221000D01*
X2354000Y1250990D02*
X2324010D01*
Y1265986D01*
X2329008Y1270984D01*
X2339005D01*
X2344003Y1265986D01*
Y1250990D01*
Y1260987D02*
X2354000Y1270984D01*
X2324010Y1300974D02*
Y1280981D01*
X2354000D01*
Y1300974D01*
X2339005Y1280981D02*
Y1290977D01*
X2354000Y1310971D02*
X2334006D01*
X2324010Y1320968D01*
X2334006Y1330965D01*
X2354000D01*
X2339005D01*
Y1310971D01*
X2354000Y1340961D02*
X2324010D01*
X2334006Y1350958D01*
X2324010Y1360955D01*
X2354000D01*
Y1370952D02*
X2324010D01*
Y1385947D01*
X2329008Y1390945D01*
X2339005D01*
X2344003Y1385947D01*
Y1370952D01*
X2639000Y1001000D02*
X2619006D01*
X2609010Y1010997D01*
X2619006Y1020994D01*
X2639000D01*
X2624005D01*
Y1001000D01*
X2609010Y1030990D02*
Y1050984D01*
Y1040987D01*
X2639000D01*
X2609010Y1060981D02*
Y1080974D01*
Y1070977D01*
X2639000D01*
X2609010Y1110964D02*
Y1090971D01*
X2639000D01*
Y1110964D01*
X2624005Y1090971D02*
Y1100968D01*
X2639000Y1120961D02*
X2609010D01*
X2639000Y1140955D01*
X2609010D01*
X2000981Y360990D02*
Y340997D01*
X2010977Y331000D01*
X2020974Y340997D01*
Y360990D01*
X2030971D02*
Y331000D01*
X2045966D01*
X2050964Y335998D01*
Y355992D01*
X2045966Y360990D01*
X2030971D01*
X2060961D02*
Y331000D01*
X2075956D01*
X2080955Y335998D01*
Y355992D01*
X2075956Y360990D01*
X2060961D01*
X2090952Y331000D02*
Y350993D01*
X2100948Y360990D01*
X2110945Y350993D01*
Y331000D01*
Y345995D01*
X2090952D01*
X2135937Y360990D02*
X2125940D01*
X2120942Y355992D01*
Y335998D01*
X2125940Y331000D01*
X2135937D01*
X2140935Y335998D01*
Y355992D01*
X2135937Y360990D01*
X2150932Y331000D02*
Y360990D01*
X2170926Y331000D01*
Y360990D01*
X2469010Y1981000D02*
Y2000994D01*
Y1990997D01*
X2499000D01*
X2474008Y2030984D02*
X2469010Y2025986D01*
Y2015989D01*
X2474008Y2010990D01*
X2479006D01*
X2484005Y2015989D01*
Y2025986D01*
X2489003Y2030984D01*
X2494001D01*
X2499000Y2025986D01*
Y2015989D01*
X2494001Y2010990D01*
X2499000Y2040981D02*
X2469010D01*
X2479006Y2050977D01*
X2469010Y2060974D01*
X2499000D01*
Y2070971D02*
X2479006D01*
X2469010Y2080968D01*
X2479006Y2090965D01*
X2499000D01*
X2484005D01*
Y2070971D01*
X2469010Y2100961D02*
X2499000D01*
Y2120955D01*
X2469010Y2130952D02*
X2499000D01*
Y2150945D01*
X2569010Y1981000D02*
Y2000994D01*
Y1990997D01*
X2599000D01*
Y2010990D02*
X2569010D01*
X2579006Y2020987D01*
X2569010Y2030984D01*
X2599000D01*
Y2040981D02*
X2579006D01*
X2569010Y2050977D01*
X2579006Y2060974D01*
X2599000D01*
X2584005D01*
Y2040981D01*
X2569010Y2070971D02*
Y2080968D01*
Y2075969D01*
X2599000D01*
Y2070971D01*
Y2080968D01*
Y2095963D02*
X2569010D01*
X2599000Y2115956D01*
X2569010D01*
X3059082Y570989D02*
Y550995D01*
X3069079Y540998D01*
X3079076Y550995D01*
Y570989D01*
X3089073D02*
Y540998D01*
X3104068D01*
X3109066Y545997D01*
Y565990D01*
X3104068Y570989D01*
X3089073D01*
X3119063Y540998D02*
Y560992D01*
X3129060Y570989D01*
X3139057Y560992D01*
Y540998D01*
Y555994D01*
X3119063D01*
X3169047Y565990D02*
X3164049Y570989D01*
X3154052D01*
X3149053Y565990D01*
Y545997D01*
X3154052Y540998D01*
X3164049D01*
X3169047Y545997D01*
X3179044Y536000D02*
X3199037D01*
X3209034Y540998D02*
Y570989D01*
X3219031Y560992D01*
X3229028Y570989D01*
Y540998D01*
X3239024D02*
Y560992D01*
X3249021Y570989D01*
X3259018Y560992D01*
Y540998D01*
Y555994D01*
X3239024D01*
X3269015Y570989D02*
X3279011D01*
X3274013D01*
Y540998D01*
X3269015D01*
X3279011D01*
X3294006D02*
Y570989D01*
X3314000Y540998D01*
Y570989D01*
X3089074Y485989D02*
Y465995D01*
X3099071Y455998D01*
X3109068Y465995D01*
Y485989D01*
X3119065D02*
Y455998D01*
X3134060D01*
X3139058Y460997D01*
Y465995D01*
X3134060Y470994D01*
X3119065D01*
X3134060D01*
X3139058Y475992D01*
Y480990D01*
X3134060Y485989D01*
X3119065D01*
X3169048Y480990D02*
X3164050Y485989D01*
X3154053D01*
X3149055Y480990D01*
Y460997D01*
X3154053Y455998D01*
X3164050D01*
X3169048Y460997D01*
Y470994D01*
X3159052D01*
X3179045Y451000D02*
X3199039D01*
X3209036Y485989D02*
X3229029D01*
X3219032D01*
Y455998D01*
X3259019Y485989D02*
X3239026D01*
Y455998D01*
X3259019D01*
X3239026Y470994D02*
X3249023D01*
X3289010Y480990D02*
X3284011Y485989D01*
X3274015D01*
X3269016Y480990D01*
Y475992D01*
X3274015Y470994D01*
X3284011D01*
X3289010Y465995D01*
Y460997D01*
X3284011Y455998D01*
X3274015D01*
X3269016Y460997D01*
X3299006Y485989D02*
X3319000D01*
X3309003D01*
Y455998D01*
X2279011Y836000D02*
Y855994D01*
X2284010D01*
X2304003Y836000D01*
X2309002D01*
Y855994D01*
X2284010Y885984D02*
X2279011Y880986D01*
Y870989D01*
X2284010Y865990D01*
X2304003D01*
X2309002Y870989D01*
Y880986D01*
X2304003Y885984D01*
X2279011Y895981D02*
X2309002D01*
Y910976D01*
X2304003Y915974D01*
X2284010D01*
X2279011Y910976D01*
Y895981D01*
X2314000Y925971D02*
Y945964D01*
X2309002Y955961D02*
X2279011D01*
X2309002Y975955D01*
X2279011D01*
X2379011Y836000D02*
X2409002D01*
Y855994D01*
X2379011Y885984D02*
Y865990D01*
X2409002D01*
Y885984D01*
X2394006Y865990D02*
Y875987D01*
X2379011Y895981D02*
X2409002D01*
Y910976D01*
X2404003Y915974D01*
X2384010D01*
X2379011Y910976D01*
Y895981D01*
X2414000Y925971D02*
Y945964D01*
X2409002Y955961D02*
X2379011D01*
Y970956D01*
X2384010Y975955D01*
X2394006D01*
X2399005Y970956D01*
Y955961D01*
X2374045Y80990D02*
Y60997D01*
X2384042Y51000D01*
X2394039Y60997D01*
Y80990D01*
X2404036D02*
Y51000D01*
X2419031D01*
X2424029Y55998D01*
Y75992D01*
X2419031Y80990D01*
X2404036D01*
X2434026D02*
Y51000D01*
X2449021D01*
X2454019Y55998D01*
Y75992D01*
X2449021Y80990D01*
X2434026D01*
X2464016D02*
Y51000D01*
Y65995D01*
X2484010D01*
Y80990D01*
Y51000D01*
X2494006Y80990D02*
Y60997D01*
X2504003Y51000D01*
X2514000Y60997D01*
Y80990D01*
X2035006Y130992D02*
X2030008Y135990D01*
X2020011D01*
X2015013Y130992D01*
Y110998D01*
X2020011Y106000D01*
X2030008D01*
X2035006Y110998D01*
Y120995D01*
X2025010D01*
X2045003Y106000D02*
Y135990D01*
X2064997Y106000D01*
Y135990D01*
X2074994D02*
Y106000D01*
X2089989D01*
X2094987Y110998D01*
Y130992D01*
X2089989Y135990D01*
X2074994D01*
X3199019Y75992D02*
X3194021Y80990D01*
X3184024D01*
X3179026Y75992D01*
Y55998D01*
X3184024Y51000D01*
X3194021D01*
X3199019Y55998D01*
Y65995D01*
X3189023D01*
X3209016Y51000D02*
Y80990D01*
X3229010Y51000D01*
Y80990D01*
X3239006D02*
Y51000D01*
X3254002D01*
X3259000Y55998D01*
Y75992D01*
X3254002Y80990D01*
X3239006D01*
X3604008Y719019D02*
X3599010Y714021D01*
Y704024D01*
X3604008Y699026D01*
X3624002D01*
X3629000Y704024D01*
Y714021D01*
X3624002Y719019D01*
X3614005D01*
Y709023D01*
X3629000Y729016D02*
X3599010D01*
X3629000Y749010D01*
X3599010D01*
Y759006D02*
X3629000D01*
Y774002D01*
X3624002Y779000D01*
X3604008D01*
X3599010Y774002D01*
Y759006D01*
X1442000Y296990D02*
Y271998D01*
X1446998Y267000D01*
X1456995D01*
X1461994Y271998D01*
Y296990D01*
X1471990Y291992D02*
X1476989Y296990D01*
X1486986D01*
X1491984Y291992D01*
Y286993D01*
X1486986Y281995D01*
X1481987D01*
X1486986D01*
X1491984Y276997D01*
Y271998D01*
X1486986Y267000D01*
X1476989D01*
X1471990Y271998D01*
X1785006Y99997D02*
X1780008Y104995D01*
X1770011D01*
X1765013Y99997D01*
Y80003D01*
X1770011Y75005D01*
X1780008D01*
X1785006Y80003D01*
X1795003Y99997D02*
X1800002Y104995D01*
X1809998D01*
X1814997Y99997D01*
Y94998D01*
X1809998Y90000D01*
X1805000D01*
X1809998D01*
X1814997Y85002D01*
Y80003D01*
X1809998Y75005D01*
X1800002D01*
X1795003Y80003D01*
X1824994Y104995D02*
X1844987D01*
Y99997D01*
X1824994Y80003D01*
Y75005D01*
X1750994Y209992D02*
X1745995Y214990D01*
X1735998D01*
X1731000Y209992D01*
Y189998D01*
X1735998Y185000D01*
X1745995D01*
X1750994Y189998D01*
X1760990Y209992D02*
X1765989Y214990D01*
X1775986D01*
X1780984Y209992D01*
Y204994D01*
X1775986Y199995D01*
X1770987D01*
X1775986D01*
X1780984Y194997D01*
Y189998D01*
X1775986Y185000D01*
X1765989D01*
X1760990Y189998D01*
X1810974Y214990D02*
X1800977Y209992D01*
X1790981Y199995D01*
Y189998D01*
X1795979Y185000D01*
X1805976D01*
X1810974Y189998D01*
Y194997D01*
X1805976Y199995D01*
X1790981D01*
X1195994Y244992D02*
X1190995Y249990D01*
X1180998D01*
X1176000Y244992D01*
Y224998D01*
X1180998Y220000D01*
X1190995D01*
X1195994Y224998D01*
X1205990Y244992D02*
X1210989Y249990D01*
X1220986D01*
X1225984Y244992D01*
Y239994D01*
X1220986Y234995D01*
X1215987D01*
X1220986D01*
X1225984Y229997D01*
Y224998D01*
X1220986Y220000D01*
X1210989D01*
X1205990Y224998D01*
X1255974Y249990D02*
X1235981D01*
Y234995D01*
X1245977Y239994D01*
X1250976D01*
X1255974Y234995D01*
Y224998D01*
X1250976Y220000D01*
X1240979D01*
X1235981Y224998D01*
X2142000Y2264990D02*
Y2239998D01*
X2146998Y2235000D01*
X2156995D01*
X2161994Y2239998D01*
Y2264990D01*
X2191984Y2235000D02*
X2171990D01*
X2191984Y2254994D01*
Y2259992D01*
X2186985Y2264990D01*
X2176989D01*
X2171990Y2259992D01*
X1477000Y1396990D02*
Y1371998D01*
X1481998Y1367000D01*
X1491995D01*
X1496994Y1371998D01*
Y1396990D01*
X1506990Y1367000D02*
X1516987D01*
X1511989D01*
Y1396990D01*
X1506990Y1391992D01*
X2083994Y2089992D02*
X2078995Y2094990D01*
X2068998D01*
X2064000Y2089992D01*
Y2069998D01*
X2068998Y2065000D01*
X2078995D01*
X2083994Y2069998D01*
X2093990Y2089992D02*
X2098989Y2094990D01*
X2108985D01*
X2113984Y2089992D01*
Y2084994D01*
X2108985Y2079995D01*
X2103987D01*
X2108985D01*
X2113984Y2074997D01*
Y2069998D01*
X2108985Y2065000D01*
X2098989D01*
X2093990Y2069998D01*
X2138976Y2065000D02*
Y2094990D01*
X2123981Y2079995D01*
X2143974D01*
X2309994Y2043992D02*
X2304995Y2048990D01*
X2294998D01*
X2290000Y2043992D01*
Y2023998D01*
X2294998Y2019000D01*
X2304995D01*
X2309994Y2023998D01*
X2319990Y2043992D02*
X2324989Y2048990D01*
X2334985D01*
X2339984Y2043992D01*
Y2038994D01*
X2334985Y2033995D01*
X2329987D01*
X2334985D01*
X2339984Y2028997D01*
Y2023998D01*
X2334985Y2019000D01*
X2324989D01*
X2319990Y2023998D01*
X2349981Y2043992D02*
X2354979Y2048990D01*
X2364976D01*
X2369974Y2043992D01*
Y2038994D01*
X2364976Y2033995D01*
X2359977D01*
X2364976D01*
X2369974Y2028997D01*
Y2023998D01*
X2364976Y2019000D01*
X2354979D01*
X2349981Y2023998D01*
X2344994Y2538992D02*
X2339995Y2543990D01*
X2329998D01*
X2325000Y2538992D01*
Y2518998D01*
X2329998Y2514000D01*
X2339995D01*
X2344994Y2518998D01*
X2354990Y2538992D02*
X2359989Y2543990D01*
X2369985D01*
X2374984Y2538992D01*
Y2533994D01*
X2369985Y2528995D01*
X2364987D01*
X2369985D01*
X2374984Y2523997D01*
Y2518998D01*
X2369985Y2514000D01*
X2359989D01*
X2354990Y2518998D01*
X2404974Y2514000D02*
X2384981D01*
X2404974Y2533994D01*
Y2538992D01*
X2399976Y2543990D01*
X2389979D01*
X2384981Y2538992D01*
X1838994Y1189992D02*
X1833995Y1194990D01*
X1823998D01*
X1819000Y1189992D01*
Y1169998D01*
X1823998Y1165000D01*
X1833995D01*
X1838994Y1169998D01*
X1848990Y1189992D02*
X1853989Y1194990D01*
X1863986D01*
X1868984Y1189992D01*
Y1184994D01*
X1863986Y1179995D01*
X1858987D01*
X1863986D01*
X1868984Y1174997D01*
Y1169998D01*
X1863986Y1165000D01*
X1853989D01*
X1848990Y1169998D01*
X1878981Y1165000D02*
X1888977D01*
X1883979D01*
Y1194990D01*
X1878981Y1189992D01*
X1775994Y1309992D02*
X1770995Y1314990D01*
X1760998D01*
X1756000Y1309992D01*
Y1289998D01*
X1760998Y1285000D01*
X1770995D01*
X1775994Y1289998D01*
X1785990Y1309992D02*
X1790989Y1314990D01*
X1800986D01*
X1805984Y1309992D01*
Y1304994D01*
X1800986Y1299995D01*
X1795987D01*
X1800986D01*
X1805984Y1294997D01*
Y1289998D01*
X1800986Y1285000D01*
X1790989D01*
X1785990Y1289998D01*
X1815981Y1309992D02*
X1820979Y1314990D01*
X1830976D01*
X1835974Y1309992D01*
Y1289998D01*
X1830976Y1285000D01*
X1820979D01*
X1815981Y1289998D01*
Y1309992D01*
X1230994Y1344992D02*
X1225995Y1349990D01*
X1215998D01*
X1211000Y1344992D01*
Y1324998D01*
X1215998Y1320000D01*
X1225995D01*
X1230994Y1324998D01*
X1260984Y1320000D02*
X1240990D01*
X1260984Y1339994D01*
Y1344992D01*
X1255986Y1349990D01*
X1245989D01*
X1240990Y1344992D01*
X1270981Y1324998D02*
X1275979Y1320000D01*
X1285976D01*
X1290974Y1324998D01*
Y1344992D01*
X1285976Y1349990D01*
X1275979D01*
X1270981Y1344992D01*
Y1339994D01*
X1275979Y1334995D01*
X1290974D01*
X2770008Y905005D02*
Y934995D01*
X2785003D01*
X2790002Y929997D01*
Y920000D01*
X2785003Y915002D01*
X2770008D01*
X2780005D02*
X2790002Y905005D01*
X2819992Y934995D02*
X2799998D01*
Y920000D01*
X2809995Y924998D01*
X2814994D01*
X2819992Y920000D01*
Y910003D01*
X2814994Y905005D01*
X2804997D01*
X2799998Y910003D01*
X2770008Y850005D02*
Y879995D01*
X2785003D01*
X2790002Y874997D01*
Y865000D01*
X2785003Y860002D01*
X2770008D01*
X2780005D02*
X2790002Y850005D01*
X2814994D02*
Y879995D01*
X2799998Y865000D01*
X2819992D01*
X2435008Y995005D02*
Y1024995D01*
X2450003D01*
X2455002Y1019997D01*
Y1010000D01*
X2450003Y1005002D01*
X2435008D01*
X2445005D02*
X2455002Y995005D01*
X2464998Y1019997D02*
X2469997Y1024995D01*
X2479994D01*
X2484992Y1019997D01*
Y1014998D01*
X2479994Y1010000D01*
X2474995D01*
X2479994D01*
X2484992Y1005002D01*
Y1000003D01*
X2479994Y995005D01*
X2469997D01*
X2464998Y1000003D01*
X2600002Y955003D02*
Y974997D01*
X2595003Y979995D01*
X2585006D01*
X2580008Y974997D01*
Y955003D01*
X2585006Y950005D01*
X2595003D01*
X2590005Y960002D02*
X2600002Y950005D01*
X2595003D02*
X2600002Y955003D01*
X2609998Y974997D02*
X2614997Y979995D01*
X2624994D01*
X2629992Y974997D01*
Y969998D01*
X2624994Y965000D01*
X2619995D01*
X2624994D01*
X2629992Y960002D01*
Y955003D01*
X2624994Y950005D01*
X2614997D01*
X2609998Y955003D01*
X1355000Y596990D02*
X1364997D01*
X1359998D01*
Y567000D01*
X1355000D01*
X1364997D01*
X1399985Y591992D02*
X1394987Y596990D01*
X1384990D01*
X1379992Y591992D01*
Y571998D01*
X1384990Y567000D01*
X1394987D01*
X1399985Y571998D01*
X1409982Y567000D02*
X1419979D01*
X1414981D01*
Y596990D01*
X1409982Y591992D01*
X1434974Y567000D02*
X1444971D01*
X1439973D01*
Y596990D01*
X1434974Y591992D01*
X1245994Y553992D02*
X1240995Y558990D01*
X1230998D01*
X1226000Y553992D01*
Y533998D01*
X1230998Y529000D01*
X1240995D01*
X1245994Y533998D01*
X1275984Y529000D02*
X1255990D01*
X1275984Y548994D01*
Y553992D01*
X1270986Y558990D01*
X1260989D01*
X1255990Y553992D01*
X1285981D02*
X1290979Y558990D01*
X1300976D01*
X1305974Y553992D01*
Y548994D01*
X1300976Y543995D01*
X1305974Y538997D01*
Y533998D01*
X1300976Y529000D01*
X1290979D01*
X1285981Y533998D01*
Y538997D01*
X1290979Y543995D01*
X1285981Y548994D01*
Y553992D01*
X1290979Y543995D02*
X1300976D01*
X1692994Y520992D02*
X1687995Y525990D01*
X1677998D01*
X1673000Y520992D01*
Y500998D01*
X1677998Y496000D01*
X1687995D01*
X1692994Y500998D01*
X1722984Y496000D02*
X1702990D01*
X1722984Y515994D01*
Y520992D01*
X1717986Y525990D01*
X1707989D01*
X1702990Y520992D01*
X1732981Y525990D02*
X1752974D01*
Y520992D01*
X1732981Y500998D01*
Y496000D01*
X1150994Y553992D02*
X1145995Y558990D01*
X1135998D01*
X1131000Y553992D01*
Y533998D01*
X1135998Y529000D01*
X1145995D01*
X1150994Y533998D01*
X1180984Y529000D02*
X1160990D01*
X1180984Y548994D01*
Y553992D01*
X1175986Y558990D01*
X1165989D01*
X1160990Y553992D01*
X1210974Y558990D02*
X1200977Y553992D01*
X1190981Y543995D01*
Y533998D01*
X1195979Y529000D01*
X1205976D01*
X1210974Y533998D01*
Y538997D01*
X1205976Y543995D01*
X1190981D01*
X2863994Y994992D02*
X2858995Y999990D01*
X2848998D01*
X2844000Y994992D01*
Y974998D01*
X2848998Y970000D01*
X2858995D01*
X2863994Y974998D01*
X2893984Y970000D02*
X2873990D01*
X2893984Y989994D01*
Y994992D01*
X2888985Y999990D01*
X2878989D01*
X2873990Y994992D01*
X2923974Y999990D02*
X2903981D01*
Y984995D01*
X2913977Y989994D01*
X2918976D01*
X2923974Y984995D01*
Y974998D01*
X2918976Y970000D01*
X2908979D01*
X2903981Y974998D01*
X2155994Y1459992D02*
X2150995Y1464990D01*
X2140998D01*
X2136000Y1459992D01*
Y1439998D01*
X2140998Y1435000D01*
X2150995D01*
X2155994Y1439998D01*
X2185984Y1435000D02*
X2165990D01*
X2185984Y1454994D01*
Y1459992D01*
X2180985Y1464990D01*
X2170989D01*
X2165990Y1459992D01*
X1925994Y594992D02*
X1920995Y599990D01*
X1910998D01*
X1906000Y594992D01*
Y574998D01*
X1910998Y570000D01*
X1920995D01*
X1925994Y574998D01*
X1935990D02*
X1940989Y570000D01*
X1950986D01*
X1955984Y574998D01*
Y594992D01*
X1950986Y599990D01*
X1940989D01*
X1935990Y594992D01*
Y589994D01*
X1940989Y584995D01*
X1955984D01*
X2993994Y274992D02*
X2988995Y279990D01*
X2978998D01*
X2974000Y274992D01*
Y254998D01*
X2978998Y250000D01*
X2988995D01*
X2993994Y254998D01*
X3003990Y250000D02*
X3013987D01*
X3008989D01*
Y279990D01*
X3003990Y274992D01*
X3028982D02*
X3033981Y279990D01*
X3043977D01*
X3048976Y274992D01*
Y254998D01*
X3043977Y250000D01*
X3033981D01*
X3028982Y254998D01*
Y274992D01*
X2993994Y594992D02*
X2988995Y599990D01*
X2978998D01*
X2974000Y594992D01*
Y574998D01*
X2978998Y570000D01*
X2988995D01*
X2993994Y574998D01*
X3003990Y570000D02*
X3013987D01*
X3008989D01*
Y599990D01*
X3003990Y594992D01*
X3028982Y570000D02*
X3038979D01*
X3033981D01*
Y599990D01*
X3028982Y594992D01*
X2993994Y754992D02*
X2988995Y759990D01*
X2978998D01*
X2974000Y754992D01*
Y734998D01*
X2978998Y730000D01*
X2988995D01*
X2993994Y734998D01*
X3003990Y730000D02*
X3013987D01*
X3008989D01*
Y759990D01*
X3003990Y754992D01*
X3048976Y730000D02*
X3028982D01*
X3048976Y749994D01*
Y754992D01*
X3043977Y759990D01*
X3033981D01*
X3028982Y754992D01*
X2993994Y434992D02*
X2988995Y439990D01*
X2978998D01*
X2974000Y434992D01*
Y414998D01*
X2978998Y410000D01*
X2988995D01*
X2993994Y414998D01*
X3003990Y410000D02*
X3013987D01*
X3008989D01*
Y439990D01*
X3003990Y434992D01*
X3028982D02*
X3033981Y439990D01*
X3043977D01*
X3048976Y434992D01*
Y429993D01*
X3043977Y424995D01*
X3038979D01*
X3043977D01*
X3048976Y419997D01*
Y414998D01*
X3043977Y410000D01*
X3033981D01*
X3028982Y414998D01*
X2440994Y210992D02*
X2435995Y215990D01*
X2425998D01*
X2421000Y210992D01*
Y190998D01*
X2425998Y186000D01*
X2435995D01*
X2440994Y190998D01*
X2450990Y186000D02*
X2460987D01*
X2455989D01*
Y215990D01*
X2450990Y210992D01*
X2490977Y186000D02*
Y215990D01*
X2475982Y200995D01*
X2495976D01*
X1900994Y434992D02*
X1895995Y439990D01*
X1885998D01*
X1881000Y434992D01*
Y414998D01*
X1885998Y410000D01*
X1895995D01*
X1900994Y414998D01*
X1910990Y410000D02*
X1920987D01*
X1915989D01*
Y439990D01*
X1910990Y434992D01*
X1955976Y439990D02*
X1935982D01*
Y424995D01*
X1945979Y429993D01*
X1950977D01*
X1955976Y424995D01*
Y414998D01*
X1950977Y410000D01*
X1940981D01*
X1935982Y414998D01*
X2908994Y1459992D02*
X2903995Y1464990D01*
X2893998D01*
X2889000Y1459992D01*
Y1439998D01*
X2893998Y1435000D01*
X2903995D01*
X2908994Y1439998D01*
X2918990Y1435000D02*
X2928987D01*
X2923989D01*
Y1464990D01*
X2918990Y1459992D01*
X2963976Y1464990D02*
X2953979Y1459992D01*
X2943982Y1449995D01*
Y1439998D01*
X2948981Y1435000D01*
X2958977D01*
X2963976Y1439998D01*
Y1444997D01*
X2958977Y1449995D01*
X2943982D01*
X1900994Y274992D02*
X1895995Y279990D01*
X1885998D01*
X1881000Y274992D01*
Y254998D01*
X1885998Y250000D01*
X1895995D01*
X1900994Y254998D01*
X1910990Y250000D02*
X1920987D01*
X1915989D01*
Y279990D01*
X1910990Y274992D01*
X1935982Y279990D02*
X1955976D01*
Y274992D01*
X1935982Y254998D01*
Y250000D01*
X2320994Y210992D02*
X2315995Y215990D01*
X2305998D01*
X2301000Y210992D01*
Y190998D01*
X2305998Y186000D01*
X2315995D01*
X2320994Y190998D01*
X2330990Y186000D02*
X2340987D01*
X2335989D01*
Y215990D01*
X2330990Y210992D01*
X2355982D02*
X2360981Y215990D01*
X2370977D01*
X2375976Y210992D01*
Y205994D01*
X2370977Y200995D01*
X2375976Y195997D01*
Y190998D01*
X2370977Y186000D01*
X2360981D01*
X2355982Y190998D01*
Y195997D01*
X2360981Y200995D01*
X2355982Y205994D01*
Y210992D01*
X2360981Y200995D02*
X2370977D01*
X2560994Y210992D02*
X2555995Y215990D01*
X2545998D01*
X2541000Y210992D01*
Y190998D01*
X2545998Y186000D01*
X2555995D01*
X2560994Y190998D01*
X2590984Y186000D02*
X2570990D01*
X2590984Y205994D01*
Y210992D01*
X2585985Y215990D01*
X2575989D01*
X2570990Y210992D01*
X2615976Y186000D02*
Y215990D01*
X2600981Y200995D01*
X2620974D01*
X2361010Y1459000D02*
Y1468997D01*
Y1463998D01*
X2391000D01*
Y1459000D01*
Y1468997D01*
X2366008Y1503985D02*
X2361010Y1498987D01*
Y1488990D01*
X2366008Y1483992D01*
X2386002D01*
X2391000Y1488990D01*
Y1498987D01*
X2386002Y1503985D01*
X2391000Y1513982D02*
Y1523979D01*
Y1518981D01*
X2361010D01*
X2366008Y1513982D01*
X2380005Y1577512D02*
Y1587509D01*
Y1582511D01*
X2409995D01*
Y1577512D01*
Y1587509D01*
X2385003Y1622498D02*
X2380005Y1617499D01*
Y1607503D01*
X2385003Y1602504D01*
X2404997D01*
X2409995Y1607503D01*
Y1617499D01*
X2404997Y1622498D01*
X2409995Y1652488D02*
Y1632494D01*
X2390002Y1652488D01*
X2385003D01*
X2380005Y1647490D01*
Y1637493D01*
X2385003Y1632494D01*
X2683010Y1449000D02*
Y1458997D01*
Y1453998D01*
X2713000D01*
Y1449000D01*
Y1458997D01*
X2688008Y1493985D02*
X2683010Y1488987D01*
Y1478990D01*
X2688008Y1473992D01*
X2708002D01*
X2713000Y1478990D01*
Y1488987D01*
X2708002Y1493985D01*
X2688008Y1503982D02*
X2683010Y1508981D01*
Y1518977D01*
X2688008Y1523976D01*
X2693006D01*
X2698005Y1518977D01*
Y1513979D01*
Y1518977D01*
X2703003Y1523976D01*
X2708002D01*
X2713000Y1518977D01*
Y1508981D01*
X2708002Y1503982D01*
X2660005Y1577512D02*
Y1587509D01*
Y1582511D01*
X2689995D01*
Y1577512D01*
Y1587509D01*
X2665003Y1622498D02*
X2660005Y1617499D01*
Y1607503D01*
X2665003Y1602504D01*
X2684997D01*
X2689995Y1607503D01*
Y1617499D01*
X2684997Y1622498D01*
X2689995Y1647490D02*
X2660005D01*
X2675000Y1632494D01*
Y1652488D01*
X2460000Y974997D02*
X2455002Y979995D01*
X2445005D01*
X2440006Y974997D01*
Y955003D01*
X2445005Y950005D01*
X2455002D01*
X2460000Y955003D01*
X2469997Y950005D02*
X2479994D01*
X2474995D01*
Y979995D01*
X2469997Y974997D01*
X3148994Y1559992D02*
X3143995Y1564990D01*
X3133998D01*
X3129000Y1559992D01*
Y1539998D01*
X3133998Y1535000D01*
X3143995D01*
X3148994Y1539998D01*
X3158990Y1559992D02*
X3163989Y1564990D01*
X3173985D01*
X3178984Y1559992D01*
Y1554994D01*
X3173985Y1549995D01*
X3168987D01*
X3173985D01*
X3178984Y1544997D01*
Y1539998D01*
X3173985Y1535000D01*
X3163989D01*
X3158990Y1539998D01*
X3398994Y1559992D02*
X3393995Y1564990D01*
X3383998D01*
X3379000Y1559992D01*
Y1539998D01*
X3383998Y1535000D01*
X3393995D01*
X3398994Y1539998D01*
X3423985Y1535000D02*
Y1564990D01*
X3408990Y1549995D01*
X3428984D01*
X2908994Y1559992D02*
X2903995Y1564990D01*
X2893998D01*
X2889000Y1559992D01*
Y1539998D01*
X2893998Y1535000D01*
X2903995D01*
X2908994Y1539998D01*
X2938984Y1564990D02*
X2918990D01*
Y1549995D01*
X2928987Y1554994D01*
X2933985D01*
X2938984Y1549995D01*
Y1539998D01*
X2933985Y1535000D01*
X2923989D01*
X2918990Y1539998D01*
X1915994Y1559992D02*
X1910995Y1564990D01*
X1900998D01*
X1896000Y1559992D01*
Y1539998D01*
X1900998Y1535000D01*
X1910995D01*
X1915994Y1539998D01*
X1945984Y1564990D02*
X1935987Y1559992D01*
X1925990Y1549995D01*
Y1539998D01*
X1930989Y1535000D01*
X1940986D01*
X1945984Y1539998D01*
Y1544997D01*
X1940986Y1549995D01*
X1925990D01*
X1665994Y1559992D02*
X1660995Y1564990D01*
X1650998D01*
X1646000Y1559992D01*
Y1539998D01*
X1650998Y1535000D01*
X1660995D01*
X1665994Y1539998D01*
X1675990Y1564990D02*
X1695984D01*
Y1559992D01*
X1675990Y1539998D01*
Y1535000D01*
X2155994Y1559992D02*
X2150995Y1564990D01*
X2140998D01*
X2136000Y1559992D01*
Y1539998D01*
X2140998Y1535000D01*
X2150995D01*
X2155994Y1539998D01*
X2165990Y1559992D02*
X2170989Y1564990D01*
X2180985D01*
X2185984Y1559992D01*
Y1554994D01*
X2180985Y1549995D01*
X2185984Y1544997D01*
Y1539998D01*
X2180985Y1535000D01*
X2170989D01*
X2165990Y1539998D01*
Y1544997D01*
X2170989Y1549995D01*
X2165990Y1554994D01*
Y1559992D01*
X2170989Y1549995D02*
X2180985D01*
X3098994Y428992D02*
X3093995Y433990D01*
X3083998D01*
X3079000Y428992D01*
Y408998D01*
X3083998Y404000D01*
X3093995D01*
X3098994Y408998D01*
X3108990Y404000D02*
X3118987D01*
X3113989D01*
Y433990D01*
X3108990Y428992D01*
X3133982Y408998D02*
X3138981Y404000D01*
X3148977D01*
X3153976Y408998D01*
Y428992D01*
X3148977Y433990D01*
X3138981D01*
X3133982Y428992D01*
Y423993D01*
X3138981Y418995D01*
X3153976D01*
X2620994Y1343992D02*
X2615995Y1348990D01*
X2605998D01*
X2601000Y1343992D01*
Y1323998D01*
X2605998Y1319000D01*
X2615995D01*
X2620994Y1323998D01*
X2650984Y1319000D02*
X2630990D01*
X2650984Y1338994D01*
Y1343992D01*
X2645985Y1348990D01*
X2635989D01*
X2630990Y1343992D01*
X2660981D02*
X2665979Y1348990D01*
X2675976D01*
X2680974Y1343992D01*
Y1323998D01*
X2675976Y1319000D01*
X2665979D01*
X2660981Y1323998D01*
Y1343992D01*
X3105005Y789997D02*
X3100006Y794995D01*
X3090010D01*
X3085011Y789997D01*
Y770003D01*
X3090010Y765005D01*
X3100006D01*
X3105005Y770003D01*
X3134995Y765005D02*
X3115002D01*
X3134995Y784998D01*
Y789997D01*
X3129997Y794995D01*
X3120000D01*
X3115002Y789997D01*
X3144992Y765005D02*
X3154989D01*
X3149990D01*
Y794995D01*
X3144992Y789997D01*
X2420994Y1343992D02*
X2415995Y1348990D01*
X2405998D01*
X2401000Y1343992D01*
Y1323998D01*
X2405998Y1319000D01*
X2415995D01*
X2420994Y1323998D01*
X2450984Y1319000D02*
X2430990D01*
X2450984Y1338994D01*
Y1343992D01*
X2445985Y1348990D01*
X2435989D01*
X2430990Y1343992D01*
X2480974Y1319000D02*
X2460981D01*
X2480974Y1338994D01*
Y1343992D01*
X2475976Y1348990D01*
X2465979D01*
X2460981Y1343992D01*
X1805994Y585992D02*
X1800995Y590990D01*
X1790998D01*
X1786000Y585992D01*
Y565998D01*
X1790998Y561000D01*
X1800995D01*
X1805994Y565998D01*
X1835984Y561000D02*
X1815990D01*
X1835984Y580994D01*
Y585992D01*
X1830986Y590990D01*
X1820989D01*
X1815990Y585992D01*
X1845981D02*
X1850979Y590990D01*
X1860976D01*
X1865974Y585992D01*
Y580994D01*
X1860976Y575995D01*
X1855977D01*
X1860976D01*
X1865974Y570997D01*
Y565998D01*
X1860976Y561000D01*
X1850979D01*
X1845981Y565998D01*
X1985994Y1368992D02*
X1980995Y1373990D01*
X1970998D01*
X1966000Y1368992D01*
Y1348998D01*
X1970998Y1344000D01*
X1980995D01*
X1985994Y1348998D01*
X2010986Y1344000D02*
Y1373990D01*
X1995990Y1358995D01*
X2015984D01*
X2045974Y1373990D02*
X2035977Y1368992D01*
X2025981Y1358995D01*
Y1348998D01*
X2030979Y1344000D01*
X2040976D01*
X2045974Y1348998D01*
Y1353997D01*
X2040976Y1358995D01*
X2025981D01*
X1685994Y1073992D02*
X1680995Y1078990D01*
X1670998D01*
X1666000Y1073992D01*
Y1053998D01*
X1670998Y1049000D01*
X1680995D01*
X1685994Y1053998D01*
X1710986Y1049000D02*
Y1078990D01*
X1695990Y1063995D01*
X1715984D01*
X1725981Y1073992D02*
X1730979Y1078990D01*
X1740976D01*
X1745974Y1073992D01*
Y1068994D01*
X1740976Y1063995D01*
X1745974Y1058997D01*
Y1053998D01*
X1740976Y1049000D01*
X1730979D01*
X1725981Y1053998D01*
Y1058997D01*
X1730979Y1063995D01*
X1725981Y1068994D01*
Y1073992D01*
X1730979Y1063995D02*
X1740976D01*
X1985994Y1073992D02*
X1980995Y1078990D01*
X1970998D01*
X1966000Y1073992D01*
Y1053998D01*
X1970998Y1049000D01*
X1980995D01*
X1985994Y1053998D01*
X2010986Y1049000D02*
Y1078990D01*
X1995990Y1063995D01*
X2015984D01*
X2025981Y1053998D02*
X2030979Y1049000D01*
X2040976D01*
X2045974Y1053998D01*
Y1073992D01*
X2040976Y1078990D01*
X2030979D01*
X2025981Y1073992D01*
Y1068994D01*
X2030979Y1063995D01*
X2045974D01*
X2935994Y1368992D02*
X2930995Y1373990D01*
X2920998D01*
X2916000Y1368992D01*
Y1348998D01*
X2920998Y1344000D01*
X2930995D01*
X2935994Y1348998D01*
X2965984Y1373990D02*
X2945990D01*
Y1358995D01*
X2955987Y1363994D01*
X2960985D01*
X2965984Y1358995D01*
Y1348998D01*
X2960985Y1344000D01*
X2950989D01*
X2945990Y1348998D01*
X2975981Y1368992D02*
X2980979Y1373990D01*
X2990976D01*
X2995974Y1368992D01*
Y1348998D01*
X2990976Y1344000D01*
X2980979D01*
X2975981Y1348998D01*
Y1368992D01*
X1997994Y1980992D02*
X1992995Y1985990D01*
X1982998D01*
X1978000Y1980992D01*
Y1960998D01*
X1982998Y1956000D01*
X1992995D01*
X1997994Y1960998D01*
X2007990Y1956000D02*
Y1985990D01*
X2022986D01*
X2027984Y1980992D01*
Y1970995D01*
X2022986Y1965997D01*
X2007990D01*
X2017987D02*
X2027984Y1956000D01*
X2037981D02*
Y1975994D01*
X2047977Y1985990D01*
X2057974Y1975994D01*
Y1956000D01*
Y1970995D01*
X2037981D01*
X2067971Y1956000D02*
Y1985990D01*
X2077968Y1975994D01*
X2087964Y1985990D01*
Y1956000D01*
X2097961D02*
Y1985990D01*
X2112956D01*
X2117955Y1980992D01*
Y1970995D01*
X2112956Y1965997D01*
X2097961D01*
X2127952Y1956000D02*
X2137948D01*
X2132950D01*
Y1985990D01*
X2127952Y1980992D01*
X2992994D02*
X2987995Y1985990D01*
X2977998D01*
X2973000Y1980992D01*
Y1960998D01*
X2977998Y1956000D01*
X2987995D01*
X2992994Y1960998D01*
X3002990Y1956000D02*
Y1985990D01*
X3017985D01*
X3022984Y1980992D01*
Y1970995D01*
X3017985Y1965997D01*
X3002990D01*
X3012987D02*
X3022984Y1956000D01*
X3032981D02*
Y1975994D01*
X3042977Y1985990D01*
X3052974Y1975994D01*
Y1956000D01*
Y1970995D01*
X3032981D01*
X3062971Y1956000D02*
Y1985990D01*
X3072968Y1975994D01*
X3082964Y1985990D01*
Y1956000D01*
X3092961D02*
Y1985990D01*
X3107956D01*
X3112955Y1980992D01*
Y1970995D01*
X3107956Y1965997D01*
X3092961D01*
X3360000Y1464990D02*
Y1435000D01*
X3374995D01*
X3379994Y1439998D01*
Y1459992D01*
X3374995Y1464990D01*
X3360000D01*
X3389990Y1435000D02*
X3399987D01*
X3394989D01*
Y1464990D01*
X3389990Y1459992D01*
X1665000Y1464990D02*
Y1435000D01*
X1679995D01*
X1684994Y1439998D01*
Y1459992D01*
X1679995Y1464990D01*
X1665000D01*
X1714984Y1435000D02*
X1694990D01*
X1714984Y1454994D01*
Y1459992D01*
X1709986Y1464990D01*
X1699989D01*
X1694990Y1459992D01*
X2125008Y1379995D02*
Y1350005D01*
X2140003D01*
X2145002Y1355003D01*
Y1374997D01*
X2140003Y1379995D01*
X2125008D01*
X2174992D02*
X2154998D01*
Y1365000D01*
X2164995Y1369998D01*
X2169994D01*
X2174992Y1365000D01*
Y1355003D01*
X2169994Y1350005D01*
X2159997D01*
X2154998Y1355003D01*
X2125008Y1234995D02*
Y1205005D01*
X2140003D01*
X2145002Y1210003D01*
Y1229997D01*
X2140003Y1234995D01*
X2125008D01*
X2154998Y1210003D02*
X2159997Y1205005D01*
X2169994D01*
X2174992Y1210003D01*
Y1229997D01*
X2169994Y1234995D01*
X2159997D01*
X2154998Y1229997D01*
Y1224998D01*
X2159997Y1220000D01*
X2174992D01*
X1812512Y939995D02*
Y910005D01*
X1827507D01*
X1832506Y915003D01*
Y934997D01*
X1827507Y939995D01*
X1812512D01*
X1842503Y910005D02*
X1852499D01*
X1847501D01*
Y939995D01*
X1842503Y934997D01*
X1867494D02*
X1872493Y939995D01*
X1882490D01*
X1887488Y934997D01*
Y929998D01*
X1882490Y925000D01*
X1877491D01*
X1882490D01*
X1887488Y920002D01*
Y915003D01*
X1882490Y910005D01*
X1872493D01*
X1867494Y915003D01*
X2117512Y1089995D02*
Y1060005D01*
X2132507D01*
X2137506Y1065003D01*
Y1084997D01*
X2132507Y1089995D01*
X2117512D01*
X2147503Y1060005D02*
X2157499D01*
X2152501D01*
Y1089995D01*
X2147503Y1084997D01*
X2192488Y1089995D02*
X2172494D01*
Y1075000D01*
X2182491Y1079998D01*
X2187490D01*
X2192488Y1075000D01*
Y1065003D01*
X2187490Y1060005D01*
X2177493D01*
X2172494Y1065003D01*
X2117512Y939995D02*
Y910005D01*
X2132507D01*
X2137506Y915003D01*
Y934997D01*
X2132507Y939995D01*
X2117512D01*
X2147503Y910005D02*
X2157499D01*
X2152501D01*
Y939995D01*
X2147503Y934997D01*
X2172494Y939995D02*
X2192488D01*
Y934997D01*
X2172494Y915003D01*
Y910005D01*
X2719000Y1231990D02*
Y1202000D01*
X2733995D01*
X2738994Y1206998D01*
Y1226992D01*
X2733995Y1231990D01*
X2719000D01*
X2748990Y1202000D02*
X2758987D01*
X2753989D01*
Y1231990D01*
X2748990Y1226992D01*
X2773982Y1206998D02*
X2778981Y1202000D01*
X2788977D01*
X2793976Y1206998D01*
Y1226992D01*
X2788977Y1231990D01*
X2778981D01*
X2773982Y1226992D01*
Y1221994D01*
X2778981Y1216995D01*
X2793976D01*
X2811000Y1242990D02*
Y1213000D01*
X2825995D01*
X2830994Y1217998D01*
Y1237992D01*
X2825995Y1242990D01*
X2811000D01*
X2860984Y1213000D02*
X2840990D01*
X2860984Y1232994D01*
Y1237992D01*
X2855985Y1242990D01*
X2845989D01*
X2840990Y1237992D01*
X2870981Y1213000D02*
X2880977D01*
X2875979D01*
Y1242990D01*
X2870981Y1237992D01*
X3214000Y1816990D02*
X3223997D01*
X3218998D01*
Y1787000D01*
X3214000D01*
X3223997D01*
X3258985Y1811992D02*
X3253987Y1816990D01*
X3243990D01*
X3238992Y1811992D01*
Y1791998D01*
X3243990Y1787000D01*
X3253987D01*
X3258985Y1791998D01*
X3288976Y1816990D02*
X3268982D01*
Y1801995D01*
X3278979Y1806994D01*
X3283977D01*
X3288976Y1801995D01*
Y1791998D01*
X3283977Y1787000D01*
X3273981D01*
X3268982Y1791998D01*
X2956000Y1815990D02*
X2965997D01*
X2960998D01*
Y1786000D01*
X2956000D01*
X2965997D01*
X3000985Y1810992D02*
X2995987Y1815990D01*
X2985990D01*
X2980992Y1810992D01*
Y1790998D01*
X2985990Y1786000D01*
X2995987D01*
X3000985Y1790998D01*
X3030976Y1815990D02*
X3020979Y1810992D01*
X3010982Y1800995D01*
Y1790998D01*
X3015981Y1786000D01*
X3025977D01*
X3030976Y1790998D01*
Y1795997D01*
X3025977Y1800995D01*
X3010982D01*
X2812512Y1809995D02*
X2822509D01*
X2817511D01*
Y1780005D01*
X2812512D01*
X2822509D01*
X2857498Y1804997D02*
X2852499Y1809995D01*
X2842503D01*
X2837504Y1804997D01*
Y1785003D01*
X2842503Y1780005D01*
X2852499D01*
X2857498Y1785003D01*
X2867494Y1809995D02*
X2887488D01*
Y1804997D01*
X2867494Y1785003D01*
Y1780005D01*
X1719000Y1816990D02*
X1728997D01*
X1723998D01*
Y1787000D01*
X1719000D01*
X1728997D01*
X1763985Y1811992D02*
X1758987Y1816990D01*
X1748990D01*
X1743992Y1811992D01*
Y1791998D01*
X1748990Y1787000D01*
X1758987D01*
X1763985Y1791998D01*
X1773982Y1811992D02*
X1778981Y1816990D01*
X1788977D01*
X1793976Y1811992D01*
Y1806994D01*
X1788977Y1801995D01*
X1793976Y1796997D01*
Y1791998D01*
X1788977Y1787000D01*
X1778981D01*
X1773982Y1791998D01*
Y1796997D01*
X1778981Y1801995D01*
X1773982Y1806994D01*
Y1811992D01*
X1778981Y1801995D02*
X1788977D01*
X1961000Y1815990D02*
X1970997D01*
X1965998D01*
Y1786000D01*
X1961000D01*
X1970997D01*
X2005985Y1810992D02*
X2000987Y1815990D01*
X1990990D01*
X1985992Y1810992D01*
Y1790998D01*
X1990990Y1786000D01*
X2000987D01*
X2005985Y1790998D01*
X2015982D02*
X2020981Y1786000D01*
X2030977D01*
X2035976Y1790998D01*
Y1810992D01*
X2030977Y1815990D01*
X2020981D01*
X2015982Y1810992D01*
Y1805994D01*
X2020981Y1800995D01*
X2035976D01*
X2155016Y1799995D02*
X2165013D01*
X2160015D01*
Y1770005D01*
X2155016D01*
X2165013D01*
X2200002Y1794997D02*
X2195003Y1799995D01*
X2185006D01*
X2180008Y1794997D01*
Y1775003D01*
X2185006Y1770005D01*
X2195003D01*
X2200002Y1775003D01*
X2209998Y1770005D02*
X2219995D01*
X2214997D01*
Y1799995D01*
X2209998Y1794997D01*
X2234990D02*
X2239989Y1799995D01*
X2249985D01*
X2254984Y1794997D01*
Y1775003D01*
X2249985Y1770005D01*
X2239989D01*
X2234990Y1775003D01*
Y1794997D01*
X3181006Y2024002D02*
Y2004008D01*
X3186005Y1999010D01*
X3196002D01*
X3201000Y2004008D01*
Y2024002D01*
X3196002Y2029000D01*
X3186005D01*
X3191003Y2019003D02*
X3181006Y2029000D01*
X3186005D02*
X3181006Y2024002D01*
X3171010Y2029000D02*
X3161013D01*
X3166011D01*
Y1999010D01*
X3171010Y2004008D01*
X1906006Y2024002D02*
Y2004008D01*
X1911005Y1999010D01*
X1921002D01*
X1926000Y2004008D01*
Y2024002D01*
X1921002Y2029000D01*
X1911005D01*
X1916003Y2019003D02*
X1906006Y2029000D01*
X1911005D02*
X1906006Y2024002D01*
X1876016Y2029000D02*
X1896010D01*
X1876016Y2009006D01*
Y2004008D01*
X1881014Y1999010D01*
X1891011D01*
X1896010Y2004008D01*
X3094000Y1435000D02*
Y1464990D01*
X3108995D01*
X3113994Y1459992D01*
Y1449995D01*
X3108995Y1444997D01*
X3094000D01*
X3103997D02*
X3113994Y1435000D01*
X3123990D02*
X3133987D01*
X3128989D01*
Y1464990D01*
X3123990Y1459992D01*
X1931000Y1435000D02*
Y1464990D01*
X1945995D01*
X1950994Y1459992D01*
Y1449995D01*
X1945995Y1444997D01*
X1931000D01*
X1940997D02*
X1950994Y1435000D01*
X1980984D02*
X1960990D01*
X1980984Y1454994D01*
Y1459992D01*
X1975986Y1464990D01*
X1965989D01*
X1960990Y1459992D01*
X1744000Y1955000D02*
Y1984990D01*
X1758995D01*
X1763994Y1979992D01*
Y1969995D01*
X1758995Y1964997D01*
X1744000D01*
X1753997D02*
X1763994Y1955000D01*
X1773990D02*
Y1984990D01*
X1788986D01*
X1793984Y1979992D01*
Y1969995D01*
X1788986Y1964997D01*
X1773990D01*
X1783987D02*
X1793984Y1955000D01*
X1803981D02*
Y1974994D01*
X1813977Y1984990D01*
X1823974Y1974994D01*
Y1955000D01*
Y1969995D01*
X1803981D01*
X1833971Y1955000D02*
Y1984990D01*
X1843968Y1974994D01*
X1853964Y1984990D01*
Y1955000D01*
X1863961D02*
Y1984990D01*
X1878956D01*
X1883955Y1979992D01*
Y1969995D01*
X1878956Y1964997D01*
X1863961D01*
X1893951Y1955000D02*
X1903948D01*
X1898950D01*
Y1984990D01*
X1893951Y1979992D01*
X3239000Y1955000D02*
Y1984990D01*
X3253995D01*
X3258994Y1979992D01*
Y1969995D01*
X3253995Y1964997D01*
X3239000D01*
X3248997D02*
X3258994Y1955000D01*
X3268990D02*
Y1984990D01*
X3283985D01*
X3288984Y1979992D01*
Y1969995D01*
X3283985Y1964997D01*
X3268990D01*
X3278987D02*
X3288984Y1955000D01*
X3298981D02*
Y1974994D01*
X3308977Y1984990D01*
X3318974Y1974994D01*
Y1955000D01*
Y1969995D01*
X3298981D01*
X3328971Y1955000D02*
Y1984990D01*
X3338968Y1974994D01*
X3348964Y1984990D01*
Y1955000D01*
X3358961D02*
Y1984990D01*
X3373956D01*
X3378955Y1979992D01*
Y1969995D01*
X3373956Y1964997D01*
X3358961D01*
X1817511Y1089995D02*
Y1060005D01*
X1832506D01*
X1837504Y1065003D01*
Y1084997D01*
X1832506Y1089995D01*
X1817511D01*
X1847501Y1060005D02*
X1857498D01*
X1852499D01*
Y1089995D01*
X1847501Y1084997D01*
X1872493Y1060005D02*
X1882489D01*
X1877491D01*
Y1089995D01*
X1872493Y1084997D01*
D52*
X1845107Y2419990D02*
X1885094D01*
X1865100Y2439984D02*
Y2399997D01*
X1905087Y2439984D02*
X1915084Y2449981D01*
X1935078D01*
X1945074Y2439984D01*
Y2429987D01*
X1935078Y2419990D01*
X1925081D01*
X1935078D01*
X1945074Y2409994D01*
Y2399997D01*
X1935078Y2390000D01*
X1915084D01*
X1905087Y2399997D01*
X1965068Y2390000D02*
Y2399997D01*
X1975065D01*
Y2390000D01*
X1965068D01*
X2015052Y2439984D02*
X2025049Y2449981D01*
X2045042D01*
X2055039Y2439984D01*
Y2429987D01*
X2045042Y2419990D01*
X2035045D01*
X2045042D01*
X2055039Y2409994D01*
Y2399997D01*
X2045042Y2390000D01*
X2025049D01*
X2015052Y2399997D01*
X2075032Y2449981D02*
Y2409994D01*
X2095026Y2390000D01*
X2115019Y2409994D01*
Y2449981D01*
X2135013D02*
Y2390000D01*
X2165003D01*
X2175000Y2399997D01*
Y2439984D01*
X2165003Y2449981D01*
X2135013D01*
X2055039Y2534984D02*
X2045042Y2544981D01*
X2025049D01*
X2015052Y2534984D01*
Y2494997D01*
X2025049Y2485000D01*
X2045042D01*
X2055039Y2494997D01*
Y2514990D01*
X2035045D01*
X2075032Y2485000D02*
Y2544981D01*
X2115019Y2485000D01*
Y2544981D01*
X2135013D02*
Y2485000D01*
X2165003D01*
X2175000Y2494997D01*
Y2534984D01*
X2165003Y2544981D01*
X2135013D01*
X1225016Y1025039D02*
X1215019Y1015042D01*
Y995048D01*
X1225016Y985052D01*
X1265003D01*
X1275000Y995048D01*
Y1015042D01*
X1265003Y1025039D01*
X1245010D01*
Y1005045D01*
X1275000Y1045032D02*
X1215019D01*
X1275000Y1085019D01*
X1215019D01*
Y1105013D02*
X1275000D01*
Y1135003D01*
X1265003Y1145000D01*
X1225016D01*
X1215019Y1135003D01*
Y1105013D01*
X1350010Y815107D02*
Y855094D01*
X1330016Y835100D02*
X1370003D01*
X1330016Y875087D02*
X1320019Y885084D01*
Y905077D01*
X1330016Y915074D01*
X1340013D01*
X1350010Y905077D01*
Y895081D01*
Y905077D01*
X1360006Y915074D01*
X1370003D01*
X1380000Y905077D01*
Y885084D01*
X1370003Y875087D01*
X1380000Y935068D02*
X1370003D01*
Y945065D01*
X1380000D01*
Y935068D01*
X1330016Y985052D02*
X1320019Y995048D01*
Y1015042D01*
X1330016Y1025039D01*
X1340013D01*
X1350010Y1015042D01*
Y1005045D01*
Y1015042D01*
X1360006Y1025039D01*
X1370003D01*
X1380000Y1015042D01*
Y995048D01*
X1370003Y985052D01*
X1320019Y1045032D02*
X1360006D01*
X1380000Y1065026D01*
X1360006Y1085019D01*
X1320019D01*
X1380000Y1105013D02*
X1340013D01*
X1320019Y1125006D01*
X1340013Y1145000D01*
X1380000D01*
X1350010D01*
Y1105013D01*
X299000Y2476000D02*
X318993D01*
X308997D01*
Y2535981D01*
X299000Y2525984D01*
%TF.MD5,265f7586cd5d48eccd2960796bb6fbd6*%
M02*
