%TF.GenerationSoftware,Altium Limited,Altium Designer,22.3.1 (43)*%
G04 Layer_Color=65535*
%FSLAX26Y26*%
%MOIN*%
%TF.SameCoordinates,25215B7F-5601-44EC-B639-707B6E2D0B24*%
%TF.FilePolarity,Positive*%
%TF.FileFunction,Legend,Top*%
%TF.Part,Single*%
G01*
G75*
%TA.AperFunction,NonConductor*%
%ADD68C,0.009842*%
%ADD69C,0.007874*%
%ADD70C,0.010000*%
%ADD71C,0.006000*%
%ADD72C,0.005000*%
D68*
X2780787Y1660866D02*
G03*
X2780787Y1660866I-4921J0D01*
G01*
Y1340866D02*
G03*
X2780787Y1340866I-4921J0D01*
G01*
Y700866D02*
G03*
X2780787Y700866I-4921J0D01*
G01*
Y1020866D02*
G03*
X2780787Y1020866I-4921J0D01*
G01*
Y380866D02*
G03*
X2780787Y380866I-4921J0D01*
G01*
X2199291Y884331D02*
G03*
X2199291Y884331I-4921J0D01*
G01*
X2070551Y1050669D02*
G03*
X2070551Y1050669I-4921J0D01*
G01*
X615787Y1005866D02*
G03*
X615787Y1005866I-4921J0D01*
G01*
Y605866D02*
G03*
X615787Y605866I-4921J0D01*
G01*
X1517126Y860709D02*
G03*
X1517126Y860709I-4921J0D01*
G01*
D69*
X2089016Y2405827D02*
Y2504173D01*
X2165827Y2329016D02*
X2264173D01*
X2340984Y2405827D02*
Y2504173D01*
X2165827Y2580984D02*
X2264173D01*
X759016Y2405827D02*
Y2504173D01*
X835827Y2329016D02*
X934173D01*
X1010984Y2405827D02*
Y2504173D01*
X835827Y2580984D02*
X934173D01*
X1825000Y595000D02*
X1925000D01*
Y395000D02*
Y595000D01*
X1825000Y395000D02*
X1925000D01*
X1825000D02*
Y595000D01*
X1925787Y900787D02*
Y999213D01*
X2024213Y900787D02*
Y999213D01*
X1925787D02*
X2024213D01*
X1925787Y900787D02*
X2024213D01*
X2640787Y1030787D02*
Y1129213D01*
X2739213Y1030787D02*
Y1129213D01*
X2640787D02*
X2739213D01*
X2640787Y1030787D02*
X2739213D01*
X750787Y615787D02*
Y714213D01*
X849213Y615787D02*
Y714213D01*
X750787D02*
X849213D01*
X750787Y615787D02*
X849213D01*
X2640787Y1670787D02*
Y1769213D01*
X2739213Y1670787D02*
Y1769213D01*
X2640787D02*
X2739213D01*
X2640787Y1670787D02*
X2739213D01*
X1085827Y1580984D02*
X1184173D01*
X1260984Y1405827D02*
Y1504173D01*
X1085827Y1329016D02*
X1184173D01*
X1009016Y1405827D02*
Y1504173D01*
Y1905827D02*
Y2004173D01*
X1085827Y1829016D02*
X1184173D01*
X1260984Y1905827D02*
Y2004173D01*
X1085827Y2080984D02*
X1184173D01*
X1930000Y2045000D02*
Y2145000D01*
X1730000Y2045000D02*
X1930000D01*
X1730000D02*
Y2145000D01*
X1930000D01*
X1620000Y2045000D02*
Y2145000D01*
X1420000Y2045000D02*
X1620000D01*
X1420000D02*
Y2145000D01*
X1620000D01*
X2089016Y1905827D02*
Y2004173D01*
X2165827Y1829016D02*
X2264173D01*
X2340984Y1905827D02*
Y2004173D01*
X2165827Y2080984D02*
X2264173D01*
X1562795Y1725315D02*
Y1783386D01*
X1576575Y1797165D02*
X1773425D01*
Y1942835D01*
X1576575D02*
X1773425D01*
X1576575Y1797165D02*
Y1942835D01*
X2540000Y290000D02*
X2740000D01*
X2540000Y190000D02*
Y290000D01*
Y190000D02*
X2740000D01*
Y290000D01*
X2540000Y390000D02*
X2740000D01*
Y490000D01*
X2540000D02*
X2740000D01*
X2540000Y390000D02*
Y490000D01*
Y610000D02*
X2740000D01*
X2540000Y510000D02*
Y610000D01*
Y510000D02*
X2740000D01*
Y610000D01*
X2540000Y1350000D02*
X2740000D01*
Y1450000D01*
X2540000D02*
X2740000D01*
X2540000Y1350000D02*
Y1450000D01*
Y1570000D02*
X2740000D01*
X2540000Y1470000D02*
Y1570000D01*
Y1470000D02*
X2740000D01*
Y1570000D01*
X2540000Y1250000D02*
X2740000D01*
X2540000Y1150000D02*
Y1250000D01*
Y1150000D02*
X2740000D01*
Y1250000D01*
X2540000Y930000D02*
X2740000D01*
X2540000Y830000D02*
Y930000D01*
Y830000D02*
X2740000D01*
Y930000D01*
X2540000Y710000D02*
X2740000D01*
Y810000D01*
X2540000D02*
X2740000D01*
X2540000Y710000D02*
Y810000D01*
X2810315Y1651024D02*
X2849685D01*
X2810315Y1528976D02*
X2849685D01*
X2810315D02*
Y1651024D01*
X2849685Y1528976D02*
Y1651024D01*
X2810315Y1331024D02*
X2849685D01*
X2810315Y1208976D02*
X2849685D01*
X2810315D02*
Y1331024D01*
X2849685Y1208976D02*
Y1331024D01*
X2810315Y691024D02*
X2849685D01*
X2810315Y568976D02*
X2849685D01*
X2810315D02*
Y691024D01*
X2849685Y568976D02*
Y691024D01*
X2810315Y1011024D02*
X2849685D01*
X2810315Y888976D02*
X2849685D01*
X2810315D02*
Y1011024D01*
X2849685Y888976D02*
Y1011024D01*
X2810315Y371024D02*
X2849685D01*
X2810315Y248976D02*
X2849685D01*
X2810315D02*
Y371024D01*
X2849685Y248976D02*
Y371024D01*
X405000Y2590000D02*
X605000D01*
X405000Y2490000D02*
Y2590000D01*
Y2490000D02*
X605000D01*
Y2590000D01*
X405000Y2470000D02*
X605000D01*
X405000Y2370000D02*
Y2470000D01*
Y2370000D02*
X605000D01*
Y2470000D01*
X405000Y2350000D02*
X605000D01*
X405000Y2250000D02*
Y2350000D01*
Y2250000D02*
X605000D01*
Y2350000D01*
X1680000Y1700000D02*
X1780000D01*
Y1500000D02*
Y1700000D01*
X1680000Y1500000D02*
X1780000D01*
X1680000D02*
Y1700000D01*
X1805630Y1568504D02*
Y1631496D01*
X1884370D01*
Y1568504D02*
Y1631496D01*
X1805630Y1568504D02*
X1884370D01*
X1795787Y1521260D02*
Y1554724D01*
X1555000Y1700000D02*
X1655000D01*
Y1500000D02*
Y1700000D01*
X1555000Y1500000D02*
X1655000D01*
X1555000D02*
Y1700000D01*
X1450630Y1568504D02*
Y1631496D01*
X1529370D01*
Y1568504D02*
Y1631496D01*
X1450630Y1568504D02*
X1529370D01*
X1440787Y1521260D02*
Y1554724D01*
X585827Y1580984D02*
X684173D01*
X760984Y1405827D02*
Y1504173D01*
X585827Y1329016D02*
X684173D01*
X509016Y1405827D02*
Y1504173D01*
X585827Y2080984D02*
X684173D01*
X760984Y1905827D02*
Y2004173D01*
X585827Y1829016D02*
X684173D01*
X509016Y1905827D02*
Y2004173D01*
X2165827Y1580984D02*
X2264173D01*
X2340984Y1405827D02*
Y1504173D01*
X2165827Y1329016D02*
X2264173D01*
X2089016Y1405827D02*
Y1504173D01*
X2725000Y2205000D02*
X2925000D01*
Y2305000D01*
X2725000D02*
X2925000D01*
X2725000Y2205000D02*
Y2305000D01*
Y2565000D02*
X2925000D01*
Y2665000D01*
X2725000D02*
X2925000D01*
X2725000Y2565000D02*
Y2665000D01*
Y2445000D02*
X2925000D01*
Y2545000D01*
X2725000D02*
X2925000D01*
X2725000Y2445000D02*
Y2545000D01*
Y2325000D02*
X2925000D01*
Y2425000D01*
X2725000D02*
X2925000D01*
X2725000Y2325000D02*
Y2425000D01*
Y1965000D02*
X2925000D01*
Y2065000D01*
X2725000D02*
X2925000D01*
X2725000Y1965000D02*
Y2065000D01*
Y2085000D02*
X2925000D01*
Y2185000D01*
X2725000D02*
X2925000D01*
X2725000Y2085000D02*
Y2185000D01*
X1386575Y2262165D02*
Y2407835D01*
X1583425D01*
Y2262165D02*
Y2407835D01*
X1386575Y2262165D02*
X1583425D01*
X1385591Y2190315D02*
Y2248386D01*
X1696575Y2262165D02*
Y2407835D01*
X1893425D01*
Y2262165D02*
Y2407835D01*
X1696575Y2262165D02*
X1893425D01*
X1695591Y2190315D02*
Y2248386D01*
X1333425Y307165D02*
Y452835D01*
X1136575Y307165D02*
X1333425D01*
X1136575D02*
Y452835D01*
X1333425D01*
X1347205Y466614D02*
Y524685D01*
X2099291Y898504D02*
Y961496D01*
X2160709D01*
X2099291Y898504D02*
X2160709D01*
Y961496D01*
Y973504D02*
Y1036496D01*
X2099291Y973504D02*
X2160709D01*
X2099291Y1036496D02*
X2160709D01*
X2099291Y973504D02*
Y1036496D01*
X684685Y873976D02*
Y996024D01*
X645315Y873976D02*
Y996024D01*
Y873976D02*
X684685D01*
X645315Y996024D02*
X684685D01*
Y473976D02*
Y596024D01*
X645315Y473976D02*
Y596024D01*
Y473976D02*
X684685D01*
X645315Y596024D02*
X684685D01*
X1506299Y886299D02*
X1531890D01*
X1506299D02*
Y911890D01*
Y1148110D02*
Y1173701D01*
X1531890D01*
X1768110D02*
X1793701D01*
Y1148110D02*
Y1173701D01*
X1768110Y886299D02*
X1793701D01*
Y911890D01*
X340000Y3845000D02*
X2665000D01*
X2740000D01*
Y3945000D01*
X340000D02*
X2740000D01*
X340000Y3845000D02*
Y3945000D01*
Y2845000D02*
X2665000D01*
X2740000D01*
Y2945000D01*
X340000D02*
X2740000D01*
X340000Y2845000D02*
Y2945000D01*
X575000Y415000D02*
Y515000D01*
X375000Y415000D02*
X575000D01*
X375000D02*
Y515000D01*
X575000D01*
X950000Y1015000D02*
Y1115000D01*
X750000Y1015000D02*
X950000D01*
X750000D02*
Y1115000D01*
X950000D01*
X1725000Y275000D02*
Y375000D01*
X1925000D01*
Y275000D02*
Y375000D01*
X1725000Y275000D02*
X1925000D01*
X750000Y735000D02*
Y835000D01*
X950000D01*
Y735000D02*
Y835000D01*
X750000Y735000D02*
X950000D01*
D70*
X307998Y2739896D02*
X367979D01*
X347985Y2719903D01*
X367979Y2699909D01*
X307998D01*
X367979Y2639929D02*
Y2679916D01*
X307998D01*
Y2639929D01*
X337988Y2679916D02*
Y2659922D01*
X307998Y2619935D02*
X347985D01*
X367979Y2599942D01*
X347985Y2579948D01*
X307998D01*
X337988D01*
Y2619935D01*
X357982Y2519968D02*
X367979Y2529964D01*
Y2549958D01*
X357982Y2559955D01*
X347985D01*
X337988Y2549958D01*
Y2529964D01*
X327992Y2519968D01*
X317995D01*
X307998Y2529964D01*
Y2549958D01*
X317995Y2559955D01*
X367979Y2499974D02*
X317995D01*
X307998Y2489977D01*
Y2469984D01*
X317995Y2459987D01*
X367979D01*
X307998Y2439994D02*
X367979D01*
Y2410003D01*
X357982Y2400006D01*
X337988D01*
X327992Y2410003D01*
Y2439994D01*
Y2420000D02*
X307998Y2400006D01*
X367979Y2340026D02*
Y2380013D01*
X307998D01*
Y2340026D01*
X337988Y2380013D02*
Y2360019D01*
X307998Y2320032D02*
X367979D01*
X347985Y2300039D01*
X367979Y2280045D01*
X307998D01*
X367979Y2220065D02*
Y2260052D01*
X307998D01*
Y2220065D01*
X337988Y2260052D02*
Y2240058D01*
X307998Y2200071D02*
X367979D01*
X307998Y2160084D01*
X367979D01*
Y2140090D02*
Y2100103D01*
Y2120097D01*
X307998D01*
X272002Y2579948D02*
Y2599942D01*
Y2589945D01*
X222018D01*
X212021Y2599942D01*
Y2609939D01*
X222018Y2619935D01*
X272002Y2559955D02*
X222018D01*
X212021Y2549958D01*
Y2529964D01*
X222018Y2519968D01*
X272002D01*
X212021Y2499974D02*
X272002D01*
X252008Y2479981D01*
X272002Y2459987D01*
X212021D01*
Y2439994D02*
X272002D01*
Y2410003D01*
X262005Y2400006D01*
X242012D01*
X232015Y2410003D01*
Y2439994D01*
X272002Y2340026D02*
Y2380013D01*
X212021D01*
Y2340026D01*
X242012Y2380013D02*
Y2360019D01*
X212021Y2320032D02*
X272002D01*
Y2290042D01*
X262005Y2280045D01*
X242012D01*
X232015Y2290042D01*
Y2320032D01*
Y2300039D02*
X212021Y2280045D01*
X262005Y2220065D02*
X272002Y2230061D01*
Y2250055D01*
X262005Y2260052D01*
X252008D01*
X242012Y2250055D01*
Y2230061D01*
X232015Y2220065D01*
X222018D01*
X212021Y2230061D01*
Y2250055D01*
X222018Y2260052D01*
X3007001Y1995104D02*
X2947021D01*
X2967014Y2015098D01*
X2947021Y2035091D01*
X3007001D01*
X2947021Y2095072D02*
Y2055085D01*
X3007001D01*
Y2095072D01*
X2977011Y2055085D02*
Y2075078D01*
X3007001Y2115065D02*
X2967014D01*
X2947021Y2135059D01*
X2967014Y2155052D01*
X3007001D01*
X2977011D01*
Y2115065D01*
X2957018Y2215033D02*
X2947021Y2205036D01*
Y2185043D01*
X2957018Y2175046D01*
X2967014D01*
X2977011Y2185043D01*
Y2205036D01*
X2987008Y2215033D01*
X2997005D01*
X3007001Y2205036D01*
Y2185043D01*
X2997005Y2175046D01*
X2947021Y2235026D02*
X2997005D01*
X3007001Y2245023D01*
Y2265017D01*
X2997005Y2275014D01*
X2947021D01*
X3007001Y2295007D02*
X2947021D01*
Y2324997D01*
X2957018Y2334994D01*
X2977011D01*
X2987008Y2324997D01*
Y2295007D01*
Y2315001D02*
X3007001Y2334994D01*
X2947021Y2394975D02*
Y2354988D01*
X3007001D01*
Y2394975D01*
X2977011Y2354988D02*
Y2374981D01*
X3007001Y2414968D02*
X2947021D01*
X2967014Y2434962D01*
X2947021Y2454955D01*
X3007001D01*
X2947021Y2514936D02*
Y2474949D01*
X3007001D01*
Y2514936D01*
X2977011Y2474949D02*
Y2494942D01*
X3007001Y2534930D02*
X2947021D01*
X3007001Y2574917D01*
X2947021D01*
Y2594910D02*
Y2634897D01*
Y2614904D01*
X3007001D01*
X3042998Y2155052D02*
Y2135059D01*
Y2145056D01*
X3092981D01*
X3102978Y2135059D01*
Y2125062D01*
X3092981Y2115065D01*
X3042998Y2175046D02*
X3092981D01*
X3102978Y2185043D01*
Y2205036D01*
X3092981Y2215033D01*
X3042998D01*
X3102978Y2235026D02*
X3042998D01*
X3062991Y2255020D01*
X3042998Y2275014D01*
X3102978D01*
Y2295007D02*
X3042998D01*
Y2324997D01*
X3052994Y2334994D01*
X3072988D01*
X3082985Y2324997D01*
Y2295007D01*
X3042998Y2394975D02*
Y2354988D01*
X3102978D01*
Y2394975D01*
X3072988Y2354988D02*
Y2374981D01*
X3102978Y2414968D02*
X3042998D01*
Y2444959D01*
X3052994Y2454955D01*
X3072988D01*
X3082985Y2444959D01*
Y2414968D01*
Y2434962D02*
X3102978Y2454955D01*
X3052994Y2514936D02*
X3042998Y2504939D01*
Y2484946D01*
X3052994Y2474949D01*
X3062991D01*
X3072988Y2484946D01*
Y2504939D01*
X3082985Y2514936D01*
X3092981D01*
X3102978Y2504939D01*
Y2484946D01*
X3092981Y2474949D01*
X3160010Y1555016D02*
X3199997D01*
X3219990Y1575010D01*
X3199997Y1595003D01*
X3160010D01*
Y1614997D02*
X3219990D01*
Y1644987D01*
X3209994Y1654984D01*
X3170006D01*
X3160010Y1644987D01*
Y1614997D01*
X3160010Y535035D02*
Y575023D01*
Y555029D01*
X3219990D01*
X3160010Y635003D02*
Y595016D01*
X3219990D01*
Y635003D01*
X3190000Y595016D02*
Y615010D01*
X3170006Y694984D02*
X3160010Y684987D01*
Y664994D01*
X3170006Y654997D01*
X3180003D01*
X3190000Y664994D01*
Y684987D01*
X3199997Y694984D01*
X3209993D01*
X3219990Y684987D01*
Y664994D01*
X3209993Y654997D01*
X3160010Y714977D02*
Y754964D01*
Y734971D01*
X3219990D01*
Y1180034D02*
X3160010D01*
X3180003Y1200027D01*
X3160010Y1220021D01*
X3219990D01*
Y1240014D02*
X3180003D01*
X3160010Y1260008D01*
X3180003Y1280002D01*
X3219990D01*
X3190000D01*
Y1240014D01*
X3160010Y1299995D02*
Y1319989D01*
Y1309992D01*
X3219990D01*
Y1299995D01*
Y1319989D01*
Y1349979D02*
X3160010D01*
X3219990Y1389966D01*
X3160010D01*
X3219990Y255026D02*
X3180003D01*
X3160010Y275019D01*
X3180003Y295013D01*
X3219990D01*
X3190000D01*
Y255026D01*
X3160010Y344997D02*
Y325003D01*
X3170006Y315006D01*
X3209993D01*
X3219990Y325003D01*
Y344997D01*
X3209993Y354993D01*
X3170006D01*
X3160010Y344997D01*
X3219990Y374987D02*
X3160010D01*
X3219990Y414974D01*
X3160010D01*
X3160010Y915016D02*
X3199997D01*
X3219990Y935010D01*
X3199997Y955003D01*
X3160010D01*
X3219990Y974997D02*
X3180003D01*
X3160010Y994990D01*
X3180003Y1014984D01*
X3219990D01*
X3190000D01*
Y974997D01*
X339990Y629974D02*
X280010D01*
Y589987D01*
X339990Y569993D02*
X300003D01*
X280010Y550000D01*
X300003Y530006D01*
X339990D01*
Y510013D02*
X280010D01*
Y470026D01*
X329994Y1039967D02*
X339990Y1049964D01*
Y1069958D01*
X329994Y1079955D01*
X319997D01*
X310000Y1069958D01*
Y1049964D01*
X300003Y1039967D01*
X290007D01*
X280010Y1049964D01*
Y1069958D01*
X290007Y1079955D01*
X280010Y1019974D02*
X339990D01*
X319997Y999981D01*
X339990Y979987D01*
X280010D01*
Y959993D02*
X319997D01*
X339990Y940000D01*
X319997Y920006D01*
X280010D01*
X310000D01*
Y959993D01*
X339990Y900013D02*
X280010D01*
Y860026D01*
X339990Y840032D02*
X280010D01*
Y800045D01*
X1925073Y3419990D02*
Y3370006D01*
X1935070Y3360010D01*
X1955063D01*
X1965060Y3370006D01*
Y3419990D01*
X2025041Y3409994D02*
X2015044Y3419990D01*
X1995050D01*
X1985053Y3409994D01*
Y3399997D01*
X1995050Y3390000D01*
X2015044D01*
X2025041Y3380003D01*
Y3370006D01*
X2015044Y3360010D01*
X1995050D01*
X1985053Y3370006D01*
X2045034Y3419990D02*
Y3360010D01*
X2075024D01*
X2085021Y3370006D01*
Y3380003D01*
X2075024Y3390000D01*
X2045034D01*
X2075024D01*
X2085021Y3399997D01*
Y3409994D01*
X2075024Y3419990D01*
X2045034D01*
X2164995Y3390000D02*
X2204982D01*
X2224976D02*
X2264963D01*
X2284956Y3360010D02*
X2314947Y3390000D01*
X2284956Y3419990D01*
D71*
X1072512Y2235005D02*
Y2264995D01*
X1087507D01*
X1092506Y2259997D01*
Y2250000D01*
X1087507Y2245002D01*
X1072512D01*
X1082509D02*
X1092506Y2235005D01*
X1102503D02*
X1112499D01*
X1107501D01*
Y2264995D01*
X1102503Y2259997D01*
X1127494D02*
X1132493Y2264995D01*
X1142490D01*
X1147488Y2259997D01*
Y2240003D01*
X1142490Y2235005D01*
X1132493D01*
X1127494Y2240003D01*
Y2259997D01*
X1939000Y2213000D02*
Y2242990D01*
X1953995D01*
X1958994Y2237992D01*
Y2227995D01*
X1953995Y2222997D01*
X1939000D01*
X1948997D02*
X1958994Y2213000D01*
X1968990Y2217998D02*
X1973989Y2213000D01*
X1983986D01*
X1988984Y2217998D01*
Y2237992D01*
X1983986Y2242990D01*
X1973989D01*
X1968990Y2237992D01*
Y2232994D01*
X1973989Y2227995D01*
X1988984D01*
X3325003Y825006D02*
X3320005Y820008D01*
Y810011D01*
X3325003Y805013D01*
X3344997D01*
X3349995Y810011D01*
Y820008D01*
X3344997Y825006D01*
X3335000D01*
Y815010D01*
X3349995Y835003D02*
X3320005D01*
X3349995Y854997D01*
X3320005D01*
Y864994D02*
X3349995D01*
Y879989D01*
X3344997Y884987D01*
X3325003D01*
X3320005Y879989D01*
Y864994D01*
X3325003Y1125006D02*
X3320005Y1120008D01*
Y1110011D01*
X3325003Y1105013D01*
X3344997D01*
X3349995Y1110011D01*
Y1120008D01*
X3344997Y1125006D01*
X3335000D01*
Y1115010D01*
X3349995Y1135003D02*
X3320005D01*
X3349995Y1154997D01*
X3320005D01*
Y1164994D02*
X3349995D01*
Y1179989D01*
X3344997Y1184987D01*
X3325003D01*
X3320005Y1179989D01*
Y1164994D01*
X3325003Y1425006D02*
X3320005Y1420008D01*
Y1410011D01*
X3325003Y1405013D01*
X3344997D01*
X3349995Y1410011D01*
Y1420008D01*
X3344997Y1425006D01*
X3335000D01*
Y1415010D01*
X3349995Y1435003D02*
X3320005D01*
X3349995Y1454997D01*
X3320005D01*
Y1464994D02*
X3349995D01*
Y1479989D01*
X3344997Y1484987D01*
X3325003D01*
X3320005Y1479989D01*
Y1464994D01*
X3325003Y1725006D02*
X3320005Y1720008D01*
Y1710011D01*
X3325003Y1705013D01*
X3344997D01*
X3349995Y1710011D01*
Y1720008D01*
X3344997Y1725006D01*
X3335000D01*
Y1715010D01*
X3349995Y1735003D02*
X3320005D01*
X3349995Y1754997D01*
X3320005D01*
Y1764994D02*
X3349995D01*
Y1779989D01*
X3344997Y1784987D01*
X3325003D01*
X3320005Y1779989D01*
Y1764994D01*
X3325003Y2025006D02*
X3320005Y2020008D01*
Y2010011D01*
X3325003Y2005013D01*
X3344997D01*
X3349995Y2010011D01*
Y2020008D01*
X3344997Y2025006D01*
X3335000D01*
Y2015010D01*
X3349995Y2035003D02*
X3320005D01*
X3349995Y2054997D01*
X3320005D01*
Y2064994D02*
X3349995D01*
Y2079989D01*
X3344997Y2084987D01*
X3325003D01*
X3320005Y2079989D01*
Y2064994D01*
X3325003Y2325006D02*
X3320005Y2320008D01*
Y2310011D01*
X3325003Y2305013D01*
X3344997D01*
X3349995Y2310011D01*
Y2320008D01*
X3344997Y2325006D01*
X3335000D01*
Y2315010D01*
X3349995Y2335003D02*
X3320005D01*
X3349995Y2354997D01*
X3320005D01*
Y2364994D02*
X3349995D01*
Y2379989D01*
X3344997Y2384987D01*
X3325003D01*
X3320005Y2379989D01*
Y2364994D01*
X3325003Y2624994D02*
X3320005Y2619995D01*
Y2609998D01*
X3325003Y2605000D01*
X3344997D01*
X3349995Y2609998D01*
Y2619995D01*
X3344997Y2624994D01*
X3335000D01*
Y2614997D01*
X3349995Y2634990D02*
X3320005D01*
X3349995Y2654984D01*
X3320005D01*
Y2664981D02*
X3349995D01*
Y2679976D01*
X3344997Y2684974D01*
X3325003D01*
X3320005Y2679976D01*
Y2664981D01*
X3325003Y2925006D02*
X3320005Y2920008D01*
Y2910011D01*
X3325003Y2905013D01*
X3344997D01*
X3349995Y2910011D01*
Y2920008D01*
X3344997Y2925006D01*
X3335000D01*
Y2915010D01*
X3349995Y2935003D02*
X3320005D01*
X3349995Y2954997D01*
X3320005D01*
Y2964994D02*
X3349995D01*
Y2979989D01*
X3344997Y2984987D01*
X3325003D01*
X3320005Y2979989D01*
Y2964994D01*
X3325003Y3225006D02*
X3320005Y3220008D01*
Y3210011D01*
X3325003Y3205013D01*
X3344997D01*
X3349995Y3210011D01*
Y3220008D01*
X3344997Y3225006D01*
X3335000D01*
Y3215010D01*
X3349995Y3235003D02*
X3320005D01*
X3349995Y3254997D01*
X3320005D01*
Y3264994D02*
X3349995D01*
Y3279989D01*
X3344997Y3284987D01*
X3325003D01*
X3320005Y3279989D01*
Y3264994D01*
X3325003Y3525006D02*
X3320005Y3520008D01*
Y3510011D01*
X3325003Y3505013D01*
X3344997D01*
X3349995Y3510011D01*
Y3520008D01*
X3344997Y3525006D01*
X3335000D01*
Y3515010D01*
X3349995Y3535003D02*
X3320005D01*
X3349995Y3554997D01*
X3320005D01*
Y3564994D02*
X3349995D01*
Y3579989D01*
X3344997Y3584987D01*
X3325003D01*
X3320005Y3579989D01*
Y3564994D01*
X2750006Y84997D02*
X2745008Y89995D01*
X2735011D01*
X2730013Y84997D01*
Y65003D01*
X2735011Y60005D01*
X2745008D01*
X2750006Y65003D01*
Y75000D01*
X2740010D01*
X2760003Y60005D02*
Y89995D01*
X2779997Y60005D01*
Y89995D01*
X2789994D02*
Y60005D01*
X2804989D01*
X2809987Y65003D01*
Y84997D01*
X2804989Y89995D01*
X2789994D01*
X3050006Y84997D02*
X3045008Y89995D01*
X3035011D01*
X3030013Y84997D01*
Y65003D01*
X3035011Y60005D01*
X3045008D01*
X3050006Y65003D01*
Y75000D01*
X3040010D01*
X3060003Y60005D02*
Y89995D01*
X3079997Y60005D01*
Y89995D01*
X3089994D02*
Y60005D01*
X3104989D01*
X3109987Y65003D01*
Y84997D01*
X3104989Y89995D01*
X3089994D01*
X84997Y3384994D02*
X89995Y3389992D01*
Y3399989D01*
X84997Y3404987D01*
X65003D01*
X60005Y3399989D01*
Y3389992D01*
X65003Y3384994D01*
X75000D01*
Y3394990D01*
X60005Y3374997D02*
X89995D01*
X60005Y3355003D01*
X89995D01*
Y3345006D02*
X60005D01*
Y3330011D01*
X65003Y3325013D01*
X84997D01*
X89995Y3330011D01*
Y3345006D01*
X1762536Y75000D02*
X1782530D01*
X1772533Y84997D02*
Y65003D01*
X1792527Y84997D02*
X1797525Y89995D01*
X1807522D01*
X1812520Y84997D01*
Y79998D01*
X1807522Y75000D01*
X1802524D01*
X1807522D01*
X1812520Y70002D01*
Y65003D01*
X1807522Y60005D01*
X1797525D01*
X1792527Y65003D01*
X1822517Y60005D02*
Y65003D01*
X1827515D01*
Y60005D01*
X1822517D01*
X1847509Y84997D02*
X1852507Y89995D01*
X1862504D01*
X1867502Y84997D01*
Y79998D01*
X1862504Y75000D01*
X1857506D01*
X1862504D01*
X1867502Y70002D01*
Y65003D01*
X1862504Y60005D01*
X1852507D01*
X1847509Y65003D01*
X1877499Y89995D02*
Y70002D01*
X1887496Y60005D01*
X1897493Y70002D01*
Y89995D01*
X1907489Y60005D02*
Y89995D01*
X1922485D01*
X1927483Y84997D01*
Y75000D01*
X1922485Y70002D01*
X1907489D01*
X1957473Y84997D02*
X1952475Y89995D01*
X1942478D01*
X1937480Y84997D01*
Y79998D01*
X1942478Y75000D01*
X1952475D01*
X1957473Y70002D01*
Y65003D01*
X1952475Y60005D01*
X1942478D01*
X1937480Y65003D01*
X1967470Y89995D02*
Y65003D01*
X1972468Y60005D01*
X1982465D01*
X1987464Y65003D01*
Y89995D01*
X84997Y3084994D02*
X89995Y3089992D01*
Y3099989D01*
X84997Y3104987D01*
X65003D01*
X60005Y3099989D01*
Y3089992D01*
X65003Y3084994D01*
X75000D01*
Y3094990D01*
X60005Y3074997D02*
X89995D01*
X60005Y3055003D01*
X89995D01*
Y3045006D02*
X60005D01*
Y3030011D01*
X65003Y3025013D01*
X84997D01*
X89995Y3030011D01*
Y3045006D01*
X84997Y2184994D02*
X89995Y2189992D01*
Y2199989D01*
X84997Y2204987D01*
X65003D01*
X60005Y2199989D01*
Y2189992D01*
X65003Y2184994D01*
X75000D01*
Y2194990D01*
X60005Y2174997D02*
X89995D01*
X60005Y2155003D01*
X89995D01*
Y2145006D02*
X60005D01*
Y2130011D01*
X65003Y2125013D01*
X84997D01*
X89995Y2130011D01*
Y2145006D01*
X84997Y1884994D02*
X89995Y1889992D01*
Y1899989D01*
X84997Y1904987D01*
X65003D01*
X60005Y1899989D01*
Y1889992D01*
X65003Y1884994D01*
X75000D01*
Y1894990D01*
X60005Y1874997D02*
X89995D01*
X60005Y1855003D01*
X89995D01*
Y1845006D02*
X60005D01*
Y1830011D01*
X65003Y1825013D01*
X84997D01*
X89995Y1830011D01*
Y1845006D01*
X84997Y1584994D02*
X89995Y1589992D01*
Y1599989D01*
X84997Y1604987D01*
X65003D01*
X60005Y1599989D01*
Y1589992D01*
X65003Y1584994D01*
X75000D01*
Y1594990D01*
X60005Y1574997D02*
X89995D01*
X60005Y1555003D01*
X89995D01*
Y1545006D02*
X60005D01*
Y1530011D01*
X65003Y1525013D01*
X84997D01*
X89995Y1530011D01*
Y1545006D01*
X84997Y684994D02*
X89995Y689992D01*
Y699989D01*
X84997Y704987D01*
X65003D01*
X60005Y699989D01*
Y689992D01*
X65003Y684994D01*
X75000D01*
Y694990D01*
X60005Y674997D02*
X89995D01*
X60005Y655003D01*
X89995D01*
Y645006D02*
X60005D01*
Y630011D01*
X65003Y625013D01*
X84997D01*
X89995Y630011D01*
Y645006D01*
X84997Y1284994D02*
X89995Y1289992D01*
Y1299989D01*
X84997Y1304987D01*
X65003D01*
X60005Y1299989D01*
Y1289992D01*
X65003Y1284994D01*
X75000D01*
Y1294990D01*
X60005Y1274997D02*
X89995D01*
X60005Y1255003D01*
X89995D01*
Y1245006D02*
X60005D01*
Y1230011D01*
X65003Y1225013D01*
X84997D01*
X89995Y1230011D01*
Y1245006D01*
X84997Y984994D02*
X89995Y989992D01*
Y999989D01*
X84997Y1004987D01*
X65003D01*
X60005Y999989D01*
Y989992D01*
X65003Y984994D01*
X75000D01*
Y994990D01*
X60005Y974997D02*
X89995D01*
X60005Y955003D01*
X89995D01*
Y945006D02*
X60005D01*
Y930011D01*
X65003Y925013D01*
X84997D01*
X89995Y930011D01*
Y945006D01*
X84997Y2784994D02*
X89995Y2789992D01*
Y2799989D01*
X84997Y2804987D01*
X65003D01*
X60005Y2799989D01*
Y2789992D01*
X65003Y2784994D01*
X75000D01*
Y2794990D01*
X60005Y2774997D02*
X89995D01*
X60005Y2755003D01*
X89995D01*
Y2745006D02*
X60005D01*
Y2730011D01*
X65003Y2725013D01*
X84997D01*
X89995Y2730011D01*
Y2745006D01*
X84997Y2484994D02*
X89995Y2489992D01*
Y2499989D01*
X84997Y2504987D01*
X65003D01*
X60005Y2499989D01*
Y2489992D01*
X65003Y2484994D01*
X75000D01*
Y2494990D01*
X60005Y2474997D02*
X89995D01*
X60005Y2455003D01*
X89995D01*
Y2445006D02*
X60005D01*
Y2430011D01*
X65003Y2425013D01*
X84997D01*
X89995Y2430011D01*
Y2445006D01*
X1350008Y1110005D02*
Y1139995D01*
X1365003D01*
X1370002Y1134997D01*
Y1125000D01*
X1365003Y1120002D01*
X1350008D01*
X1360005D02*
X1370002Y1110005D01*
X1379998Y1134997D02*
X1384997Y1139995D01*
X1394994D01*
X1399992Y1134997D01*
Y1129998D01*
X1394994Y1125000D01*
X1399992Y1120002D01*
Y1115003D01*
X1394994Y1110005D01*
X1384997D01*
X1379998Y1115003D01*
Y1120002D01*
X1384997Y1125000D01*
X1379998Y1129998D01*
Y1134997D01*
X1384997Y1125000D02*
X1394994D01*
X1405008Y1320005D02*
Y1349995D01*
X1420003D01*
X1425002Y1344997D01*
Y1335000D01*
X1420003Y1330002D01*
X1405008D01*
X1415005D02*
X1425002Y1320005D01*
X1434998Y1349995D02*
X1454992D01*
Y1344997D01*
X1434998Y1325003D01*
Y1320005D01*
X1520008D02*
Y1349995D01*
X1535003D01*
X1540002Y1344997D01*
Y1335000D01*
X1535003Y1330002D01*
X1520008D01*
X1530005D02*
X1540002Y1320005D01*
X1569992Y1349995D02*
X1559995Y1344997D01*
X1549998Y1335000D01*
Y1325003D01*
X1554997Y1320005D01*
X1564994D01*
X1569992Y1325003D01*
Y1330002D01*
X1564994Y1335000D01*
X1549998D01*
X1725000Y1363000D02*
X1695010D01*
Y1377995D01*
X1700008Y1382994D01*
X1710005D01*
X1715003Y1377995D01*
Y1363000D01*
Y1372997D02*
X1725000Y1382994D01*
X1695010Y1412984D02*
Y1392990D01*
X1710005D01*
X1705006Y1402987D01*
Y1407986D01*
X1710005Y1412984D01*
X1720002D01*
X1725000Y1407986D01*
Y1397989D01*
X1720002Y1392990D01*
X1885008Y1415005D02*
Y1444995D01*
X1900003D01*
X1905002Y1439997D01*
Y1430000D01*
X1900003Y1425002D01*
X1885008D01*
X1895005D02*
X1905002Y1415005D01*
X1929994D02*
Y1444995D01*
X1914998Y1430000D01*
X1934992D01*
X1665000Y1363000D02*
X1635010D01*
Y1377995D01*
X1640008Y1382994D01*
X1650005D01*
X1655003Y1377995D01*
Y1363000D01*
Y1372997D02*
X1665000Y1382994D01*
X1640008Y1392990D02*
X1635010Y1397989D01*
Y1407986D01*
X1640008Y1412984D01*
X1645006D01*
X1650005Y1407986D01*
Y1402987D01*
Y1407986D01*
X1655003Y1412984D01*
X1660002D01*
X1665000Y1407986D01*
Y1397989D01*
X1660002Y1392990D01*
X1954000Y1992000D02*
Y2021990D01*
X1968995D01*
X1973994Y2016992D01*
Y2006995D01*
X1968995Y2001997D01*
X1954000D01*
X1963997D02*
X1973994Y1992000D01*
X2003984D02*
X1983990D01*
X2003984Y2011994D01*
Y2016992D01*
X1998986Y2021990D01*
X1988989D01*
X1983990Y2016992D01*
X1304000Y1992000D02*
Y2021990D01*
X1318995D01*
X1323994Y2016992D01*
Y2006995D01*
X1318995Y2001997D01*
X1304000D01*
X1313997D02*
X1323994Y1992000D01*
X1333990D02*
X1343987D01*
X1338989D01*
Y2021990D01*
X1333990Y2016992D01*
X1448000Y2526990D02*
X1457997D01*
X1452998D01*
Y2497000D01*
X1448000D01*
X1457997D01*
X1492985Y2521992D02*
X1487987Y2526990D01*
X1477990D01*
X1472992Y2521992D01*
Y2501998D01*
X1477990Y2497000D01*
X1487987D01*
X1492985Y2501998D01*
X1522976Y2526990D02*
X1512979Y2521992D01*
X1502982Y2511995D01*
Y2501998D01*
X1507981Y2497000D01*
X1517977D01*
X1522976Y2501998D01*
Y2506997D01*
X1517977Y2511995D01*
X1502982D01*
X2858000Y426990D02*
Y401998D01*
X2862998Y397000D01*
X2872995D01*
X2877994Y401998D01*
Y426990D01*
X2887990D02*
X2907984D01*
Y421992D01*
X2887990Y401998D01*
Y397000D01*
X2858000Y746990D02*
Y721998D01*
X2862998Y717000D01*
X2872995D01*
X2877994Y721998D01*
Y746990D01*
X2907984D02*
X2897987Y741992D01*
X2887990Y731995D01*
Y721998D01*
X2892989Y717000D01*
X2902985D01*
X2907984Y721998D01*
Y726997D01*
X2902985Y731995D01*
X2887990D01*
X640000Y851990D02*
Y826998D01*
X644998Y822000D01*
X654995D01*
X659994Y826998D01*
Y851990D01*
X689984D02*
X669990D01*
Y836995D01*
X679987Y841994D01*
X684986D01*
X689984Y836995D01*
Y826998D01*
X684986Y822000D01*
X674989D01*
X669990Y826998D01*
X2858000Y1386990D02*
Y1361998D01*
X2862998Y1357000D01*
X2872995D01*
X2877994Y1361998D01*
Y1386990D01*
X2902985Y1357000D02*
Y1386990D01*
X2887990Y1371995D01*
X2907984D01*
X640000Y451990D02*
Y426998D01*
X644998Y422000D01*
X654995D01*
X659994Y426998D01*
Y451990D01*
X669990Y446992D02*
X674989Y451990D01*
X684986D01*
X689984Y446992D01*
Y441993D01*
X684986Y436995D01*
X679987D01*
X684986D01*
X689984Y431997D01*
Y426998D01*
X684986Y422000D01*
X674989D01*
X669990Y426998D01*
X2805000Y1506990D02*
Y1481998D01*
X2809998Y1477000D01*
X2819995D01*
X2824994Y1481998D01*
Y1506990D01*
X2854984Y1477000D02*
X2834990D01*
X2854984Y1496994D01*
Y1501992D01*
X2849985Y1506990D01*
X2839989D01*
X2834990Y1501992D01*
X2870006Y1069995D02*
Y1045003D01*
X2875005Y1040005D01*
X2885002D01*
X2890000Y1045003D01*
Y1069995D01*
X2899997Y1040005D02*
X2909994D01*
X2904995D01*
Y1069995D01*
X2899997Y1064997D01*
X1758000Y2526990D02*
X1767997D01*
X1762998D01*
Y2497000D01*
X1758000D01*
X1767997D01*
X1802985Y2521992D02*
X1797987Y2526990D01*
X1787990D01*
X1782992Y2521992D01*
Y2501998D01*
X1787990Y2497000D01*
X1797987D01*
X1802985Y2501998D01*
X1832976Y2526990D02*
X1812982D01*
Y2511995D01*
X1822979Y2516994D01*
X1827977D01*
X1832976Y2511995D01*
Y2501998D01*
X1827977Y2497000D01*
X1817981D01*
X1812982Y2501998D01*
X1807000Y1503990D02*
X1816997D01*
X1811998D01*
Y1474000D01*
X1807000D01*
X1816997D01*
X1851985Y1498992D02*
X1846987Y1503990D01*
X1836990D01*
X1831992Y1498992D01*
Y1478998D01*
X1836990Y1474000D01*
X1846987D01*
X1851985Y1478998D01*
X1876977Y1474000D02*
Y1503990D01*
X1861982Y1488995D01*
X1881976D01*
X1637512Y2059995D02*
X1647509D01*
X1642511D01*
Y2030005D01*
X1637512D01*
X1647509D01*
X1682498Y2054997D02*
X1677499Y2059995D01*
X1667503D01*
X1662504Y2054997D01*
Y2035003D01*
X1667503Y2030005D01*
X1677499D01*
X1682498Y2035003D01*
X1692494Y2054997D02*
X1697493Y2059995D01*
X1707490D01*
X1712488Y2054997D01*
Y2049998D01*
X1707490Y2045000D01*
X1702491D01*
X1707490D01*
X1712488Y2040002D01*
Y2035003D01*
X1707490Y2030005D01*
X1697493D01*
X1692494Y2035003D01*
X1452000Y1503990D02*
X1461997D01*
X1456998D01*
Y1474000D01*
X1452000D01*
X1461997D01*
X1496985Y1498992D02*
X1491987Y1503990D01*
X1481990D01*
X1476992Y1498992D01*
Y1478998D01*
X1481990Y1474000D01*
X1491987D01*
X1496985Y1478998D01*
X1526976Y1474000D02*
X1506982D01*
X1526976Y1493994D01*
Y1498992D01*
X1521977Y1503990D01*
X1511981D01*
X1506982Y1498992D01*
X1077511Y574995D02*
X1087507D01*
X1082509D01*
Y545005D01*
X1077511D01*
X1087507D01*
X1122496Y569997D02*
X1117498Y574995D01*
X1107501D01*
X1102502Y569997D01*
Y550003D01*
X1107501Y545005D01*
X1117498D01*
X1122496Y550003D01*
X1132493Y545005D02*
X1142489D01*
X1137491D01*
Y574995D01*
X1132493Y569997D01*
X2160008Y1079995D02*
Y1050005D01*
X2175003D01*
X2180002Y1055003D01*
Y1074997D01*
X2175003Y1079995D01*
X2160008D01*
X2209992Y1050005D02*
X2189998D01*
X2209992Y1069998D01*
Y1074997D01*
X2204994Y1079995D01*
X2194997D01*
X2189998Y1074997D01*
X2170006Y864995D02*
Y835005D01*
X2185002D01*
X2190000Y840003D01*
Y859997D01*
X2185002Y864995D01*
X2170006D01*
X2199997Y835005D02*
X2209994D01*
X2204995D01*
Y864995D01*
X2199997Y859997D01*
X3078994Y289992D02*
X3073995Y294990D01*
X3063998D01*
X3059000Y289992D01*
Y269998D01*
X3063998Y265000D01*
X3073995D01*
X3078994Y269998D01*
X3108984Y294990D02*
X3088990D01*
Y279995D01*
X3098987Y284993D01*
X3103985D01*
X3108984Y279995D01*
Y269998D01*
X3103985Y265000D01*
X3093989D01*
X3088990Y269998D01*
X3138974Y265000D02*
X3118981D01*
X3138974Y284993D01*
Y289992D01*
X3133976Y294990D01*
X3123979D01*
X3118981Y289992D01*
X3078994Y609992D02*
X3073995Y614990D01*
X3063998D01*
X3059000Y609992D01*
Y589998D01*
X3063998Y585000D01*
X3073995D01*
X3078994Y589998D01*
X3108984Y614990D02*
X3088990D01*
Y599995D01*
X3098987Y604994D01*
X3103985D01*
X3108984Y599995D01*
Y589998D01*
X3103985Y585000D01*
X3093989D01*
X3088990Y589998D01*
X3118981Y585000D02*
X3128977D01*
X3123979D01*
Y614990D01*
X3118981Y609992D01*
X3078994Y369992D02*
X3073995Y374990D01*
X3063998D01*
X3059000Y369992D01*
Y349998D01*
X3063998Y345000D01*
X3073995D01*
X3078994Y349998D01*
X3108984Y374990D02*
X3088990D01*
Y359995D01*
X3098987Y364993D01*
X3103985D01*
X3108984Y359995D01*
Y349998D01*
X3103985Y345000D01*
X3093989D01*
X3088990Y349998D01*
X3118981Y369992D02*
X3123979Y374990D01*
X3133976D01*
X3138974Y369992D01*
Y349998D01*
X3133976Y345000D01*
X3123979D01*
X3118981Y349998D01*
Y369992D01*
X2540994Y349992D02*
X2535995Y354990D01*
X2525998D01*
X2521000Y349992D01*
Y329998D01*
X2525998Y325000D01*
X2535995D01*
X2540994Y329998D01*
X2565985Y325000D02*
Y354990D01*
X2550990Y339995D01*
X2570984D01*
X2580981Y329998D02*
X2585979Y325000D01*
X2595976D01*
X2600974Y329998D01*
Y349992D01*
X2595976Y354990D01*
X2585979D01*
X2580981Y349992D01*
Y344993D01*
X2585979Y339995D01*
X2600974D01*
X3078994Y689992D02*
X3073995Y694990D01*
X3063998D01*
X3059000Y689992D01*
Y669998D01*
X3063998Y665000D01*
X3073995D01*
X3078994Y669998D01*
X3103985Y665000D02*
Y694990D01*
X3088990Y679995D01*
X3108984D01*
X3118981Y689992D02*
X3123979Y694990D01*
X3133976D01*
X3138974Y689992D01*
Y684994D01*
X3133976Y679995D01*
X3138974Y674997D01*
Y669998D01*
X3133976Y665000D01*
X3123979D01*
X3118981Y669998D01*
Y674997D01*
X3123979Y679995D01*
X3118981Y684994D01*
Y689992D01*
X3123979Y679995D02*
X3133976D01*
X2540994Y669992D02*
X2535995Y674990D01*
X2525998D01*
X2521000Y669992D01*
Y649998D01*
X2525998Y645000D01*
X2535995D01*
X2540994Y649998D01*
X2565985Y645000D02*
Y674990D01*
X2550990Y659995D01*
X2570984D01*
X2580981Y674990D02*
X2600974D01*
Y669992D01*
X2580981Y649998D01*
Y645000D01*
X913994Y914992D02*
X908995Y919990D01*
X898998D01*
X894000Y914992D01*
Y894998D01*
X898998Y890000D01*
X908995D01*
X913994Y894998D01*
X938986Y890000D02*
Y919990D01*
X923990Y904995D01*
X943984D01*
X973974Y919990D02*
X963977Y914992D01*
X953981Y904995D01*
Y894998D01*
X958979Y890000D01*
X968976D01*
X973974Y894998D01*
Y899997D01*
X968976Y904995D01*
X953981D01*
X3078994Y1249992D02*
X3073995Y1254990D01*
X3063998D01*
X3059000Y1249992D01*
Y1229998D01*
X3063998Y1225000D01*
X3073995D01*
X3078994Y1229998D01*
X3103985Y1225000D02*
Y1254990D01*
X3088990Y1239995D01*
X3108984D01*
X3138974Y1254990D02*
X3118981D01*
Y1239995D01*
X3128977Y1244994D01*
X3133976D01*
X3138974Y1239995D01*
Y1229998D01*
X3133976Y1225000D01*
X3123979D01*
X3118981Y1229998D01*
X913994Y994992D02*
X908995Y999990D01*
X898998D01*
X894000Y994992D01*
Y974998D01*
X898998Y970000D01*
X908995D01*
X913994Y974998D01*
X938986Y970000D02*
Y999990D01*
X923990Y984995D01*
X943984D01*
X968976Y970000D02*
Y999990D01*
X953981Y984995D01*
X973974D01*
X380993Y994992D02*
X375995Y999990D01*
X365998D01*
X361000Y994992D01*
Y974998D01*
X365998Y970000D01*
X375995D01*
X380993Y974998D01*
X405986Y970000D02*
Y999990D01*
X390990Y984995D01*
X410984D01*
X420981Y994992D02*
X425979Y999990D01*
X435976D01*
X440974Y994992D01*
Y989994D01*
X435976Y984995D01*
X430977D01*
X435976D01*
X440974Y979997D01*
Y974998D01*
X435976Y970000D01*
X425979D01*
X420981Y974998D01*
X3078994Y1329992D02*
X3073995Y1334990D01*
X3063998D01*
X3059000Y1329992D01*
Y1309998D01*
X3063998Y1305000D01*
X3073995D01*
X3078994Y1309998D01*
X3103985Y1305000D02*
Y1334990D01*
X3088990Y1319995D01*
X3108984D01*
X3138974Y1305000D02*
X3118981D01*
X3138974Y1324994D01*
Y1329992D01*
X3133976Y1334990D01*
X3123979D01*
X3118981Y1329992D01*
X2555005Y1309997D02*
X2550006Y1314995D01*
X2540010D01*
X2535011Y1309997D01*
Y1290003D01*
X2540010Y1285005D01*
X2550006D01*
X2555005Y1290003D01*
X2579997Y1285005D02*
Y1314995D01*
X2565002Y1300000D01*
X2584995D01*
X2594992Y1285005D02*
X2604989D01*
X2599990D01*
Y1314995D01*
X2594992Y1309997D01*
X913994Y514992D02*
X908995Y519990D01*
X898998D01*
X894000Y514992D01*
Y494998D01*
X898998Y490000D01*
X908995D01*
X913994Y494998D01*
X938986Y490000D02*
Y519990D01*
X923990Y504995D01*
X943984D01*
X953981Y514992D02*
X958979Y519990D01*
X968976D01*
X973974Y514992D01*
Y494998D01*
X968976Y490000D01*
X958979D01*
X953981Y494998D01*
Y514992D01*
X3078994Y1569992D02*
X3073995Y1574990D01*
X3063998D01*
X3059000Y1569992D01*
Y1549998D01*
X3063998Y1545000D01*
X3073995D01*
X3078994Y1549998D01*
X3088990Y1569992D02*
X3093989Y1574990D01*
X3103985D01*
X3108984Y1569992D01*
Y1564994D01*
X3103985Y1559995D01*
X3098987D01*
X3103985D01*
X3108984Y1554997D01*
Y1549998D01*
X3103985Y1545000D01*
X3093989D01*
X3088990Y1549998D01*
X3118981D02*
X3123979Y1545000D01*
X3133976D01*
X3138974Y1549998D01*
Y1569992D01*
X3133976Y1574990D01*
X3123979D01*
X3118981Y1569992D01*
Y1564994D01*
X3123979Y1559995D01*
X3138974D01*
X3078994Y929992D02*
X3073995Y934990D01*
X3063998D01*
X3059000Y929992D01*
Y909998D01*
X3063998Y905000D01*
X3073995D01*
X3078994Y909998D01*
X3088990Y929992D02*
X3093989Y934990D01*
X3103985D01*
X3108984Y929992D01*
Y924994D01*
X3103985Y919995D01*
X3098987D01*
X3103985D01*
X3108984Y914997D01*
Y909998D01*
X3103985Y905000D01*
X3093989D01*
X3088990Y909998D01*
X3118981Y929992D02*
X3123979Y934990D01*
X3133976D01*
X3138974Y929992D01*
Y924994D01*
X3133976Y919995D01*
X3138974Y914997D01*
Y909998D01*
X3133976Y905000D01*
X3123979D01*
X3118981Y909998D01*
Y914997D01*
X3123979Y919995D01*
X3118981Y924994D01*
Y929992D01*
X3123979Y919995D02*
X3133976D01*
X913994Y594992D02*
X908995Y599990D01*
X898998D01*
X894000Y594992D01*
Y574998D01*
X898998Y570000D01*
X908995D01*
X913994Y574998D01*
X923990Y594992D02*
X928989Y599990D01*
X938986D01*
X943984Y594992D01*
Y589994D01*
X938986Y584995D01*
X933987D01*
X938986D01*
X943984Y579997D01*
Y574998D01*
X938986Y570000D01*
X928989D01*
X923990Y574998D01*
X953981Y599990D02*
X973974D01*
Y594992D01*
X953981Y574998D01*
Y570000D01*
X375993Y594992D02*
X370995Y599990D01*
X360998D01*
X356000Y594992D01*
Y574998D01*
X360998Y570000D01*
X370995D01*
X375993Y574998D01*
X385990Y594992D02*
X390989Y599990D01*
X400986D01*
X405984Y594992D01*
Y589994D01*
X400986Y584995D01*
X395987D01*
X400986D01*
X405984Y579997D01*
Y574998D01*
X400986Y570000D01*
X390989D01*
X385990Y574998D01*
X435974Y599990D02*
X425977Y594992D01*
X415981Y584995D01*
Y574998D01*
X420979Y570000D01*
X430976D01*
X435974Y574998D01*
Y579997D01*
X430976Y584995D01*
X415981D01*
X3078994Y1649992D02*
X3073995Y1654990D01*
X3063998D01*
X3059000Y1649992D01*
Y1629998D01*
X3063998Y1625000D01*
X3073995D01*
X3078994Y1629998D01*
X3088990Y1649992D02*
X3093989Y1654990D01*
X3103985D01*
X3108984Y1649992D01*
Y1644994D01*
X3103985Y1639995D01*
X3098987D01*
X3103985D01*
X3108984Y1634997D01*
Y1629998D01*
X3103985Y1625000D01*
X3093989D01*
X3088990Y1629998D01*
X3138974Y1654990D02*
X3118981D01*
Y1639995D01*
X3128977Y1644994D01*
X3133976D01*
X3138974Y1639995D01*
Y1629998D01*
X3133976Y1625000D01*
X3123979D01*
X3118981Y1629998D01*
X2545994Y1649992D02*
X2540995Y1654990D01*
X2530998D01*
X2526000Y1649992D01*
Y1629998D01*
X2530998Y1625000D01*
X2540995D01*
X2545994Y1629998D01*
X2555990Y1649992D02*
X2560989Y1654990D01*
X2570985D01*
X2575984Y1649992D01*
Y1644994D01*
X2570985Y1639995D01*
X2565987D01*
X2570985D01*
X2575984Y1634997D01*
Y1629998D01*
X2570985Y1625000D01*
X2560989D01*
X2555990Y1629998D01*
X2600976Y1625000D02*
Y1654990D01*
X2585981Y1639995D01*
X2605974D01*
X3078994Y1009992D02*
X3073995Y1014990D01*
X3063998D01*
X3059000Y1009992D01*
Y989998D01*
X3063998Y985000D01*
X3073995D01*
X3078994Y989998D01*
X3088990Y1009992D02*
X3093989Y1014990D01*
X3103985D01*
X3108984Y1009992D01*
Y1004994D01*
X3103985Y999995D01*
X3098987D01*
X3103985D01*
X3108984Y994997D01*
Y989998D01*
X3103985Y985000D01*
X3093989D01*
X3088990Y989998D01*
X3118981Y1009992D02*
X3123979Y1014990D01*
X3133976D01*
X3138974Y1009992D01*
Y1004994D01*
X3133976Y999995D01*
X3128977D01*
X3133976D01*
X3138974Y994997D01*
Y989998D01*
X3133976Y985000D01*
X3123979D01*
X3118981Y989998D01*
X2540994Y1009992D02*
X2535995Y1014990D01*
X2525998D01*
X2521000Y1009992D01*
Y989998D01*
X2525998Y985000D01*
X2535995D01*
X2540994Y989998D01*
X2550990Y1009992D02*
X2555989Y1014990D01*
X2565985D01*
X2570984Y1009992D01*
Y1004994D01*
X2565985Y999995D01*
X2560987D01*
X2565985D01*
X2570984Y994997D01*
Y989998D01*
X2565985Y985000D01*
X2555989D01*
X2550990Y989998D01*
X2600974Y985000D02*
X2580981D01*
X2600974Y1004994D01*
Y1009992D01*
X2595976Y1014990D01*
X2585979D01*
X2580981Y1009992D01*
X1770005Y1404997D02*
X1765006Y1409995D01*
X1755010D01*
X1750011Y1404997D01*
Y1385003D01*
X1755010Y1380005D01*
X1765006D01*
X1770005Y1385003D01*
X1780002Y1404997D02*
X1785000Y1409995D01*
X1794997D01*
X1799995Y1404997D01*
Y1399998D01*
X1794997Y1395000D01*
X1789998D01*
X1794997D01*
X1799995Y1390002D01*
Y1385003D01*
X1794997Y1380005D01*
X1785000D01*
X1780002Y1385003D01*
X1809992Y1380005D02*
X1819989D01*
X1814990D01*
Y1409995D01*
X1809992Y1404997D01*
X2250003Y1065006D02*
X2245005Y1060008D01*
Y1050011D01*
X2250003Y1045013D01*
X2269997D01*
X2274995Y1050011D01*
Y1060008D01*
X2269997Y1065006D01*
X2250003Y1075003D02*
X2245005Y1080002D01*
Y1089998D01*
X2250003Y1094997D01*
X2255002D01*
X2260000Y1089998D01*
Y1085000D01*
Y1089998D01*
X2264998Y1094997D01*
X2269997D01*
X2274995Y1089998D01*
Y1080002D01*
X2269997Y1075003D01*
X2250003Y1104994D02*
X2245005Y1109992D01*
Y1119989D01*
X2250003Y1124987D01*
X2269997D01*
X2274995Y1119989D01*
Y1109992D01*
X2269997Y1104994D01*
X2250003D01*
X1975006Y1244997D02*
X1970008Y1249995D01*
X1960011D01*
X1955013Y1244997D01*
Y1225003D01*
X1960011Y1220005D01*
X1970008D01*
X1975006Y1225003D01*
X2004997Y1220005D02*
X1985003D01*
X2004997Y1239998D01*
Y1244997D01*
X1999998Y1249995D01*
X1990002D01*
X1985003Y1244997D01*
X2014994Y1225003D02*
X2019992Y1220005D01*
X2029989D01*
X2034987Y1225003D01*
Y1244997D01*
X2029989Y1249995D01*
X2019992D01*
X2014994Y1244997D01*
Y1239998D01*
X2019992Y1235000D01*
X2034987D01*
X1030994Y914992D02*
X1025995Y919990D01*
X1015998D01*
X1011000Y914992D01*
Y894998D01*
X1015998Y890000D01*
X1025995D01*
X1030994Y894998D01*
X1060984Y890000D02*
X1040990D01*
X1060984Y909994D01*
Y914992D01*
X1055986Y919990D01*
X1045989D01*
X1040990Y914992D01*
X1070981D02*
X1075979Y919990D01*
X1085976D01*
X1090974Y914992D01*
Y909994D01*
X1085976Y904995D01*
X1090974Y899997D01*
Y894998D01*
X1085976Y890000D01*
X1075979D01*
X1070981Y894998D01*
Y899997D01*
X1075979Y904995D01*
X1070981Y909994D01*
Y914992D01*
X1075979Y904995D02*
X1085976D01*
X1030994Y829992D02*
X1025995Y834990D01*
X1015998D01*
X1011000Y829992D01*
Y809998D01*
X1015998Y805000D01*
X1025995D01*
X1030994Y809998D01*
X1060984Y805000D02*
X1040990D01*
X1060984Y824994D01*
Y829992D01*
X1055986Y834990D01*
X1045989D01*
X1040990Y829992D01*
X1070981Y834990D02*
X1090974D01*
Y829992D01*
X1070981Y809998D01*
Y805000D01*
X2515994Y2264992D02*
X2510995Y2269990D01*
X2500998D01*
X2496000Y2264992D01*
Y2244998D01*
X2500998Y2240000D01*
X2510995D01*
X2515994Y2244998D01*
X2545984Y2240000D02*
X2525990D01*
X2545984Y2259994D01*
Y2264992D01*
X2540985Y2269990D01*
X2530989D01*
X2525990Y2264992D01*
X2575974Y2269990D02*
X2565977Y2264992D01*
X2555981Y2254995D01*
Y2244998D01*
X2560979Y2240000D01*
X2570976D01*
X2575974Y2244998D01*
Y2249997D01*
X2570976Y2254995D01*
X2555981D01*
X2515994Y2024992D02*
X2510995Y2029990D01*
X2500998D01*
X2496000Y2024992D01*
Y2004998D01*
X2500998Y2000000D01*
X2510995D01*
X2515994Y2004998D01*
X2545984Y2000000D02*
X2525990D01*
X2545984Y2019994D01*
Y2024992D01*
X2540985Y2029990D01*
X2530989D01*
X2525990Y2024992D01*
X2575974Y2029990D02*
X2555981D01*
Y2014995D01*
X2565977Y2019994D01*
X2570976D01*
X2575974Y2014995D01*
Y2004998D01*
X2570976Y2000000D01*
X2560979D01*
X2555981Y2004998D01*
X1308994Y2613992D02*
X1303995Y2618990D01*
X1293998D01*
X1289000Y2613992D01*
Y2593998D01*
X1293998Y2589000D01*
X1303995D01*
X1308994Y2593998D01*
X1338984Y2589000D02*
X1318990D01*
X1338984Y2608994D01*
Y2613992D01*
X1333986Y2618990D01*
X1323989D01*
X1318990Y2613992D01*
X1363976Y2589000D02*
Y2618990D01*
X1348981Y2603995D01*
X1368974D01*
X1223994Y2348992D02*
X1218995Y2353990D01*
X1208998D01*
X1204000Y2348992D01*
Y2328998D01*
X1208998Y2324000D01*
X1218995D01*
X1223994Y2328998D01*
X1253984Y2324000D02*
X1233990D01*
X1253984Y2343994D01*
Y2348992D01*
X1248986Y2353990D01*
X1238989D01*
X1233990Y2348992D01*
X1263981D02*
X1268979Y2353990D01*
X1278976D01*
X1283974Y2348992D01*
Y2343994D01*
X1278976Y2338995D01*
X1273977D01*
X1278976D01*
X1283974Y2333997D01*
Y2328998D01*
X1278976Y2324000D01*
X1268979D01*
X1263981Y2328998D01*
X1235994Y829992D02*
X1230995Y834990D01*
X1220998D01*
X1216000Y829992D01*
Y809998D01*
X1220998Y805000D01*
X1230995D01*
X1235994Y809998D01*
X1265984Y805000D02*
X1245990D01*
X1265984Y824994D01*
Y829992D01*
X1260986Y834990D01*
X1250989D01*
X1245990Y829992D01*
X1295974Y805000D02*
X1275981D01*
X1295974Y824994D01*
Y829992D01*
X1290976Y834990D01*
X1280979D01*
X1275981Y829992D01*
X1580008Y610994D02*
X1575010Y605995D01*
Y595998D01*
X1580008Y591000D01*
X1600002D01*
X1605000Y595998D01*
Y605995D01*
X1600002Y610994D01*
X1605000Y640984D02*
Y620990D01*
X1585006Y640984D01*
X1580008D01*
X1575010Y635986D01*
Y625989D01*
X1580008Y620990D01*
X1605000Y650981D02*
Y660977D01*
Y655979D01*
X1575010D01*
X1580008Y650981D01*
X1750008Y600994D02*
X1745010Y595995D01*
Y585998D01*
X1750008Y581000D01*
X1770002D01*
X1775000Y585998D01*
Y595995D01*
X1770002Y600994D01*
X1775000Y630984D02*
Y610990D01*
X1755006Y630984D01*
X1750008D01*
X1745010Y625986D01*
Y615989D01*
X1750008Y610990D01*
Y640981D02*
X1745010Y645979D01*
Y655976D01*
X1750008Y660974D01*
X1770002D01*
X1775000Y655976D01*
Y645979D01*
X1770002Y640981D01*
X1750008D01*
X1223994Y2483992D02*
X1218995Y2488990D01*
X1208998D01*
X1204000Y2483992D01*
Y2463998D01*
X1208998Y2459000D01*
X1218995D01*
X1223994Y2463998D01*
X1233990Y2459000D02*
X1243987D01*
X1238989D01*
Y2488990D01*
X1233990Y2483992D01*
X1258982Y2463998D02*
X1263981Y2459000D01*
X1273977D01*
X1278976Y2463998D01*
Y2483992D01*
X1273977Y2488990D01*
X1263981D01*
X1258982Y2483992D01*
Y2478994D01*
X1263981Y2473995D01*
X1278976D01*
X2066994Y816992D02*
X2061995Y821990D01*
X2051998D01*
X2047000Y816992D01*
Y796998D01*
X2051998Y792000D01*
X2061995D01*
X2066994Y796998D01*
X2076990Y792000D02*
X2086987D01*
X2081989D01*
Y821990D01*
X2076990Y816992D01*
X2101982D02*
X2106981Y821990D01*
X2116977D01*
X2121976Y816992D01*
Y811994D01*
X2116977Y806995D01*
X2121976Y801997D01*
Y796998D01*
X2116977Y792000D01*
X2106981D01*
X2101982Y796998D01*
Y801997D01*
X2106981Y806995D01*
X2101982Y811994D01*
Y816992D01*
X2106981Y806995D02*
X2116977D01*
X1665008Y605994D02*
X1660010Y600995D01*
Y590998D01*
X1665008Y586000D01*
X1685002D01*
X1690000Y590998D01*
Y600995D01*
X1685002Y605994D01*
X1690000Y615990D02*
Y625987D01*
Y620989D01*
X1660010D01*
X1665008Y615990D01*
X1660010Y640982D02*
Y660976D01*
X1665008D01*
X1685002Y640982D01*
X1690000D01*
X1240994Y909992D02*
X1235995Y914990D01*
X1225998D01*
X1221000Y909992D01*
Y889998D01*
X1225998Y885000D01*
X1235995D01*
X1240994Y889998D01*
X1250990Y885000D02*
X1260987D01*
X1255989D01*
Y914990D01*
X1250990Y909992D01*
X1295976Y914990D02*
X1285979Y909992D01*
X1275982Y899995D01*
Y889998D01*
X1280981Y885000D01*
X1290977D01*
X1295976Y889998D01*
Y894997D01*
X1290977Y899995D01*
X1275982D01*
X1618994Y2613992D02*
X1613995Y2618990D01*
X1603998D01*
X1599000Y2613992D01*
Y2593998D01*
X1603998Y2589000D01*
X1613995D01*
X1618994Y2593998D01*
X1628990Y2589000D02*
X1638987D01*
X1633989D01*
Y2618990D01*
X1628990Y2613992D01*
X1673976Y2618990D02*
X1653982D01*
Y2603995D01*
X1663979Y2608994D01*
X1668977D01*
X1673976Y2603995D01*
Y2593998D01*
X1668977Y2589000D01*
X1658981D01*
X1653982Y2593998D01*
X1622506Y2219997D02*
X1617507Y2224995D01*
X1607511D01*
X1602512Y2219997D01*
Y2200003D01*
X1607511Y2195005D01*
X1617507D01*
X1622506Y2200003D01*
X1632503Y2195005D02*
X1642499D01*
X1637501D01*
Y2224995D01*
X1632503Y2219997D01*
X1672490Y2195005D02*
Y2224995D01*
X1657494Y2210000D01*
X1677488D01*
X1622506Y2509997D02*
X1617507Y2514995D01*
X1607511D01*
X1602512Y2509997D01*
Y2490003D01*
X1607511Y2485005D01*
X1617507D01*
X1622506Y2490003D01*
X1632503Y2485005D02*
X1642499D01*
X1637501D01*
Y2514995D01*
X1632503Y2509997D01*
X1657494D02*
X1662493Y2514995D01*
X1672490D01*
X1677488Y2509997D01*
Y2504998D01*
X1672490Y2500000D01*
X1667491D01*
X1672490D01*
X1677488Y2495002D01*
Y2490003D01*
X1672490Y2485005D01*
X1662493D01*
X1657494Y2490003D01*
X2147506Y1174997D02*
X2142507Y1179995D01*
X2132511D01*
X2127512Y1174997D01*
Y1155003D01*
X2132511Y1150005D01*
X2142507D01*
X2147506Y1155003D01*
X2157503Y1150005D02*
X2167499D01*
X2162501D01*
Y1179995D01*
X2157503Y1174997D01*
X2202488Y1150005D02*
X2182494D01*
X2202488Y1169998D01*
Y1174997D01*
X2197490Y1179995D01*
X2187493D01*
X2182494Y1174997D01*
X1982504Y1044997D02*
X1977506Y1049995D01*
X1967509D01*
X1962511Y1044997D01*
Y1025003D01*
X1967509Y1020005D01*
X1977506D01*
X1982504Y1025003D01*
X1992501Y1020005D02*
X2002498D01*
X1997499D01*
Y1049995D01*
X1992501Y1044997D01*
X2017493Y1020005D02*
X2027489D01*
X2022491D01*
Y1049995D01*
X2017493Y1044997D01*
X1922994Y1535992D02*
X1917995Y1540990D01*
X1907998D01*
X1903000Y1535992D01*
Y1515998D01*
X1907998Y1511000D01*
X1917995D01*
X1922994Y1515998D01*
X1932990Y1511000D02*
X1942987D01*
X1937989D01*
Y1540990D01*
X1932990Y1535992D01*
X1957982D02*
X1962981Y1540990D01*
X1972977D01*
X1977976Y1535992D01*
Y1515998D01*
X1972977Y1511000D01*
X1962981D01*
X1957982Y1515998D01*
Y1535992D01*
X1450002Y2009997D02*
X1445003Y2014995D01*
X1435006D01*
X1430008Y2009997D01*
Y1990003D01*
X1435006Y1985005D01*
X1445003D01*
X1450002Y1990003D01*
X1459998D02*
X1464997Y1985005D01*
X1474994D01*
X1479992Y1990003D01*
Y2009997D01*
X1474994Y2014995D01*
X1464997D01*
X1459998Y2009997D01*
Y2004998D01*
X1464997Y2000000D01*
X1479992D01*
X1812994Y1877992D02*
X1807995Y1882990D01*
X1797998D01*
X1793000Y1877992D01*
Y1857998D01*
X1797998Y1853000D01*
X1807995D01*
X1812994Y1857998D01*
X1822990Y1877992D02*
X1827989Y1882990D01*
X1837986D01*
X1842984Y1877992D01*
Y1872994D01*
X1837986Y1867995D01*
X1842984Y1862997D01*
Y1857998D01*
X1837986Y1853000D01*
X1827989D01*
X1822990Y1857998D01*
Y1862997D01*
X1827989Y1867995D01*
X1822990Y1872994D01*
Y1877992D01*
X1827989Y1867995D02*
X1837986D01*
X1890002Y2009997D02*
X1885003Y2014995D01*
X1875006D01*
X1870008Y2009997D01*
Y1990003D01*
X1875006Y1985005D01*
X1885003D01*
X1890002Y1990003D01*
X1899998Y2014995D02*
X1919992D01*
Y2009997D01*
X1899998Y1990003D01*
Y1985005D01*
X2065002Y749997D02*
X2060003Y754995D01*
X2050006D01*
X2045008Y749997D01*
Y730003D01*
X2050006Y725005D01*
X2060003D01*
X2065002Y730003D01*
X2094992Y754995D02*
X2084995Y749997D01*
X2074998Y740000D01*
Y730003D01*
X2079997Y725005D01*
X2089994D01*
X2094992Y730003D01*
Y735002D01*
X2089994Y740000D01*
X2074998D01*
X1265994Y994992D02*
X1260995Y999990D01*
X1250998D01*
X1246000Y994992D01*
Y974998D01*
X1250998Y970000D01*
X1260995D01*
X1265994Y974998D01*
X1295984Y999990D02*
X1275990D01*
Y984995D01*
X1285987Y989994D01*
X1290986D01*
X1295984Y984995D01*
Y974998D01*
X1290986Y970000D01*
X1280989D01*
X1275990Y974998D01*
X1389994Y1535992D02*
X1384995Y1540990D01*
X1374998D01*
X1370000Y1535992D01*
Y1515998D01*
X1374998Y1511000D01*
X1384995D01*
X1389994Y1515998D01*
X1414986Y1511000D02*
Y1540990D01*
X1399990Y1525995D01*
X1419984D01*
X1075002Y489997D02*
X1070003Y494995D01*
X1060006D01*
X1055008Y489997D01*
Y470003D01*
X1060006Y465005D01*
X1070003D01*
X1075002Y470003D01*
X1084998Y489997D02*
X1089997Y494995D01*
X1099994D01*
X1104992Y489997D01*
Y484998D01*
X1099994Y480000D01*
X1094995D01*
X1099994D01*
X1104992Y475002D01*
Y470003D01*
X1099994Y465005D01*
X1089997D01*
X1084998Y470003D01*
X1385002Y294997D02*
X1380003Y299995D01*
X1370006D01*
X1365008Y294997D01*
Y275003D01*
X1370006Y270005D01*
X1380003D01*
X1385002Y275003D01*
X1414992Y270005D02*
X1394998D01*
X1414992Y289998D01*
Y294997D01*
X1409994Y299995D01*
X1399997D01*
X1394998Y294997D01*
X960994Y289992D02*
X955995Y294990D01*
X945998D01*
X941000Y289992D01*
Y269998D01*
X945998Y265000D01*
X955995D01*
X960994Y269998D01*
X970990Y265000D02*
X980987D01*
X975989D01*
Y294990D01*
X970990Y289992D01*
D72*
X2755000Y1414994D02*
Y1395000D01*
X2768329D01*
X2774994Y1414994D02*
Y1395000D01*
X2784990D01*
X2788323Y1398332D01*
Y1411661D01*
X2784990Y1414994D01*
X2774994D01*
X2804984D02*
X2798319D01*
X2794987Y1411661D01*
Y1398332D01*
X2798319Y1395000D01*
X2804984D01*
X2808316Y1398332D01*
Y1411661D01*
X2804984Y1414994D01*
X2755000Y520000D02*
Y539994D01*
X2764997D01*
X2768329Y536661D01*
Y529997D01*
X2764997Y526664D01*
X2755000D01*
X2788323Y536661D02*
X2784990Y539994D01*
X2778326D01*
X2774994Y536661D01*
Y533329D01*
X2778326Y529997D01*
X2784990D01*
X2788323Y526664D01*
Y523332D01*
X2784990Y520000D01*
X2778326D01*
X2774994Y523332D01*
X2794987Y539994D02*
Y523332D01*
X2798319Y520000D01*
X2804984D01*
X2808316Y523332D01*
Y539994D01*
X2755000Y774994D02*
Y755000D01*
X2768329D01*
X2774994Y774994D02*
Y755000D01*
X2784990D01*
X2788323Y758332D01*
Y771661D01*
X2784990Y774994D01*
X2774994D01*
X2804984D02*
X2798319D01*
X2794987Y771661D01*
Y758332D01*
X2798319Y755000D01*
X2804984D01*
X2808316Y758332D01*
Y771661D01*
X2804984Y774994D01*
X2755000Y200000D02*
Y219994D01*
X2764997D01*
X2768329Y216661D01*
Y209997D01*
X2764997Y206665D01*
X2755000D01*
X2788323Y216661D02*
X2784990Y219994D01*
X2778326D01*
X2774994Y216661D01*
Y213329D01*
X2778326Y209997D01*
X2784990D01*
X2788323Y206665D01*
Y203332D01*
X2784990Y200000D01*
X2778326D01*
X2774994Y203332D01*
X2794987Y219994D02*
Y203332D01*
X2798319Y200000D01*
X2804984D01*
X2808316Y203332D01*
Y219994D01*
X2755000Y1160000D02*
Y1179994D01*
X2764997D01*
X2768329Y1176661D01*
Y1169997D01*
X2764997Y1166665D01*
X2755000D01*
X2788323Y1176661D02*
X2784990Y1179994D01*
X2778326D01*
X2774994Y1176661D01*
Y1173329D01*
X2778326Y1169997D01*
X2784990D01*
X2788323Y1166665D01*
Y1163332D01*
X2784990Y1160000D01*
X2778326D01*
X2774994Y1163332D01*
X2794987Y1179994D02*
Y1163332D01*
X2798319Y1160000D01*
X2804984D01*
X2808316Y1163332D01*
Y1179994D01*
X2755000Y454993D02*
Y435000D01*
X2768329D01*
X2774994Y454993D02*
Y435000D01*
X2784990D01*
X2788323Y438332D01*
Y451661D01*
X2784990Y454993D01*
X2774994D01*
X2804984D02*
X2798319D01*
X2794987Y451661D01*
Y438332D01*
X2798319Y435000D01*
X2804984D01*
X2808316Y438332D01*
Y451661D01*
X2804984Y454993D01*
X676684Y775003D02*
Y794997D01*
X686681D01*
X690013Y791665D01*
Y785000D01*
X686681Y781668D01*
X676684D01*
X710006Y791665D02*
X706674Y794997D01*
X700010D01*
X696678Y791665D01*
Y788332D01*
X700010Y785000D01*
X706674D01*
X710006Y781668D01*
Y778336D01*
X706674Y775003D01*
X700010D01*
X696678Y778336D01*
X716671Y794997D02*
Y778336D01*
X720003Y775003D01*
X726668D01*
X730000Y778336D01*
Y794997D01*
X676684Y1074997D02*
Y1055003D01*
X690013D01*
X696678Y1074997D02*
Y1055003D01*
X706674D01*
X710006Y1058336D01*
Y1071665D01*
X706674Y1074997D01*
X696678D01*
X726668D02*
X720003D01*
X716671Y1071665D01*
Y1058336D01*
X720003Y1055003D01*
X726668D01*
X730000Y1058336D01*
Y1071665D01*
X726668Y1074997D01*
X1945000Y436669D02*
Y456663D01*
X1954997D01*
X1958329Y453331D01*
Y446666D01*
X1954997Y443334D01*
X1945000D01*
X1978322Y453331D02*
X1974990Y456663D01*
X1968326D01*
X1964994Y453331D01*
Y449998D01*
X1968326Y446666D01*
X1974990D01*
X1978322Y443334D01*
Y440002D01*
X1974990Y436669D01*
X1968326D01*
X1964994Y440002D01*
X1984987Y456663D02*
Y440002D01*
X1988319Y436669D01*
X1994984D01*
X1998316Y440002D01*
Y456663D01*
X2004980Y433337D02*
X2018310D01*
X2024974Y453331D02*
X2028306Y456663D01*
X2034971D01*
X2038303Y453331D01*
Y449998D01*
X2034971Y446666D01*
X2031639D01*
X2034971D01*
X2038303Y443334D01*
Y440002D01*
X2034971Y436669D01*
X2028306D01*
X2024974Y440002D01*
X2044967Y453331D02*
X2048300Y456663D01*
X2054964D01*
X2058296Y453331D01*
Y449998D01*
X2054964Y446666D01*
X2051632D01*
X2054964D01*
X2058296Y443334D01*
Y440002D01*
X2054964Y436669D01*
X2048300D01*
X2044967Y440002D01*
X1555000Y336663D02*
Y316669D01*
X1564997D01*
X1568329Y320002D01*
Y323334D01*
X1564997Y326666D01*
X1555000D01*
X1564997D01*
X1568329Y329998D01*
Y333331D01*
X1564997Y336663D01*
X1555000D01*
X1584990D02*
X1578326D01*
X1574994Y333331D01*
Y320002D01*
X1578326Y316669D01*
X1584990D01*
X1588322Y320002D01*
Y333331D01*
X1584990Y336663D01*
X1594987Y316669D02*
Y329998D01*
X1601651Y336663D01*
X1608316Y329998D01*
Y316669D01*
Y326666D01*
X1594987D01*
X1614980Y316669D02*
Y336663D01*
X1624977D01*
X1628310Y333331D01*
Y326666D01*
X1624977Y323334D01*
X1614980D01*
X1621645D02*
X1628310Y316669D01*
X1634974Y336663D02*
Y316669D01*
X1644971D01*
X1648303Y320002D01*
Y333331D01*
X1644971Y336663D01*
X1634974D01*
X1654967Y313337D02*
X1668296D01*
X1674961Y333331D02*
X1678293Y336663D01*
X1684958D01*
X1688290Y333331D01*
Y329998D01*
X1684958Y326666D01*
X1681626D01*
X1684958D01*
X1688290Y323334D01*
Y320002D01*
X1684958Y316669D01*
X1678293D01*
X1674961Y320002D01*
X1694955Y333331D02*
X1698287Y336663D01*
X1704951D01*
X1708284Y333331D01*
Y329998D01*
X1704951Y326666D01*
X1701619D01*
X1704951D01*
X1708284Y323334D01*
Y320002D01*
X1704951Y316669D01*
X1698287D01*
X1694955Y320002D01*
X1945000Y316669D02*
Y336663D01*
X1954997D01*
X1958329Y333331D01*
Y326666D01*
X1954997Y323334D01*
X1945000D01*
X1978322Y333331D02*
X1974990Y336663D01*
X1968326D01*
X1964994Y333331D01*
Y329998D01*
X1968326Y326666D01*
X1974990D01*
X1978322Y323334D01*
Y320002D01*
X1974990Y316669D01*
X1968326D01*
X1964994Y320002D01*
X1984987Y336663D02*
Y320002D01*
X1988319Y316669D01*
X1994984D01*
X1998316Y320002D01*
Y336663D01*
X2004980Y313337D02*
X2018310D01*
X2024974Y333331D02*
X2028306Y336663D01*
X2034971D01*
X2038303Y333331D01*
Y329998D01*
X2034971Y326666D01*
X2031639D01*
X2034971D01*
X2038303Y323334D01*
Y320002D01*
X2034971Y316669D01*
X2028306D01*
X2024974Y320002D01*
X2044967Y333331D02*
X2048300Y336663D01*
X2054964D01*
X2058296Y333331D01*
Y329998D01*
X2054964Y326666D01*
X2051632D01*
X2054964D01*
X2058296Y323334D01*
Y320002D01*
X2054964Y316669D01*
X2048300D01*
X2044967Y320002D01*
X1958329Y553331D02*
X1954997Y556663D01*
X1948332D01*
X1945000Y553331D01*
Y540002D01*
X1948332Y536669D01*
X1954997D01*
X1958329Y540002D01*
X1964994Y556663D02*
Y536669D01*
Y546666D01*
X1978322D01*
Y556663D01*
Y536669D01*
X1984987Y556663D02*
X1991651D01*
X1988319D01*
Y536669D01*
X1984987D01*
X1991651D01*
X2001648D02*
Y556663D01*
X2011645D01*
X2014977Y553331D01*
Y546666D01*
X2011645Y543334D01*
X2001648D01*
X2021642Y533337D02*
X2034971D01*
X2041635Y553331D02*
X2044968Y556663D01*
X2051632D01*
X2054964Y553331D01*
Y549998D01*
X2051632Y546666D01*
X2048300D01*
X2051632D01*
X2054964Y543334D01*
Y540002D01*
X2051632Y536669D01*
X2044968D01*
X2041635Y540002D01*
X2061629Y553331D02*
X2064961Y556663D01*
X2071626D01*
X2074958Y553331D01*
Y549998D01*
X2071626Y546666D01*
X2068293D01*
X2071626D01*
X2074958Y543334D01*
Y540002D01*
X2071626Y536669D01*
X2064961D01*
X2061629Y540002D01*
%TF.MD5,63fdace64e1373daa4e124ed8f33ef7f*%
M02*
