%TF.GenerationSoftware,Altium Limited,Altium Designer,22.3.1 (43)*%
G04 Layer_Physical_Order=4*
G04 Layer_Color=16711680*
%FSLAX26Y26*%
%MOIN*%
%TF.SameCoordinates,25215B7F-5601-44EC-B639-707B6E2D0B24*%
%TF.FilePolarity,Positive*%
%TF.FileFunction,Copper,L4,Bot,Signal*%
%TF.Part,Single*%
G01*
G75*
%TA.AperFunction,Conductor*%
%ADD21C,0.030000*%
%ADD22C,0.015000*%
%ADD23C,0.010000*%
%ADD24C,0.020000*%
%ADD25R,0.050000X0.200000*%
%TA.AperFunction,ComponentPad*%
%ADD32C,0.058000*%
%ADD33C,0.082677*%
%ADD34C,0.078740*%
%TA.AperFunction,ViaPad*%
%ADD35C,0.059055*%
%TA.AperFunction,ComponentPad*%
%ADD36R,0.059055X0.059055*%
%ADD37C,0.059055*%
%ADD38C,0.200000*%
%ADD39R,0.059055X0.059055*%
%TA.AperFunction,ViaPad*%
%ADD40C,0.034000*%
%ADD41C,0.065000*%
%ADD42C,0.025000*%
%TA.AperFunction,Conductor*%
%ADD56R,0.170000X0.170000*%
G36*
X3394707Y15293D02*
X15293D01*
Y4049707D01*
X3394707D01*
Y15293D01*
D02*
G37*
%LPC*%
G36*
X3270000Y4024787D02*
Y3925000D01*
X3369787D01*
X3367291Y3940758D01*
X3361941Y3957225D01*
X3354080Y3972653D01*
X3343903Y3986660D01*
X3331660Y3998903D01*
X3317653Y4009080D01*
X3302225Y4016941D01*
X3285758Y4022291D01*
X3270000Y4024787D01*
D02*
G37*
G36*
X160000D02*
Y3925000D01*
X259787D01*
X257291Y3940758D01*
X251941Y3957225D01*
X244080Y3972653D01*
X233903Y3986660D01*
X221660Y3998903D01*
X207653Y4009080D01*
X192225Y4016941D01*
X175758Y4022291D01*
X160000Y4024787D01*
D02*
G37*
G36*
X3250000D02*
X3234242Y4022291D01*
X3217775Y4016941D01*
X3202347Y4009080D01*
X3188340Y3998903D01*
X3176097Y3986660D01*
X3165920Y3972653D01*
X3158059Y3957225D01*
X3152709Y3940758D01*
X3150213Y3925000D01*
X3250000D01*
Y4024787D01*
D02*
G37*
G36*
X140000D02*
X124242Y4022291D01*
X107775Y4016941D01*
X92347Y4009080D01*
X78340Y3998903D01*
X66097Y3986660D01*
X55920Y3972653D01*
X48059Y3957225D01*
X42709Y3940758D01*
X40213Y3925000D01*
X140000D01*
Y4024787D01*
D02*
G37*
G36*
X2729528Y3934528D02*
X2700000D01*
Y3905000D01*
X2729528D01*
Y3934528D01*
D02*
G37*
G36*
X2680000D02*
X2650472D01*
Y3905000D01*
X2680000D01*
Y3934528D01*
D02*
G37*
G36*
X2729528Y3885000D02*
X2700000D01*
Y3855472D01*
X2729528D01*
Y3885000D01*
D02*
G37*
G36*
X2680000D02*
X2650472D01*
Y3855472D01*
X2680000D01*
Y3885000D01*
D02*
G37*
G36*
X3369787Y3905000D02*
X3270000D01*
Y3805213D01*
X3285758Y3807709D01*
X3302225Y3813059D01*
X3317653Y3820920D01*
X3331660Y3831097D01*
X3343903Y3843340D01*
X3354080Y3857347D01*
X3361941Y3872775D01*
X3367291Y3889242D01*
X3369787Y3905000D01*
D02*
G37*
G36*
X259787D02*
X160000D01*
Y3805213D01*
X175758Y3807709D01*
X192225Y3813059D01*
X207653Y3820920D01*
X221660Y3831097D01*
X233903Y3843340D01*
X244080Y3857347D01*
X251941Y3872775D01*
X257291Y3889242D01*
X259787Y3905000D01*
D02*
G37*
G36*
X3250000D02*
X3150213D01*
X3152709Y3889242D01*
X3158059Y3872775D01*
X3165920Y3857347D01*
X3176097Y3843340D01*
X3188340Y3831097D01*
X3202347Y3820920D01*
X3217775Y3813059D01*
X3234242Y3807709D01*
X3250000Y3805213D01*
Y3905000D01*
D02*
G37*
G36*
X140000D02*
X40213D01*
X42709Y3889242D01*
X48059Y3872775D01*
X55920Y3857347D01*
X66097Y3843340D01*
X78340Y3831097D01*
X92347Y3820920D01*
X107775Y3813059D01*
X124242Y3807709D01*
X140000Y3805213D01*
Y3905000D01*
D02*
G37*
G36*
X2700000Y3732696D02*
Y3705000D01*
X2727696D01*
X2726342Y3710053D01*
X2721208Y3718947D01*
X2713947Y3726208D01*
X2705053Y3731342D01*
X2700000Y3732696D01*
D02*
G37*
G36*
X2680000D02*
X2674947Y3731342D01*
X2666053Y3726208D01*
X2658792Y3718947D01*
X2653658Y3710053D01*
X2652304Y3705000D01*
X2680000D01*
Y3732696D01*
D02*
G37*
G36*
X2594546Y3929528D02*
X2585454D01*
X2576673Y3927175D01*
X2568800Y3922629D01*
X2562371Y3916200D01*
X2557825Y3908327D01*
X2555472Y3899546D01*
Y3890454D01*
X2557825Y3881673D01*
X2559588Y3878620D01*
Y3710325D01*
X2558317Y3708124D01*
X2556000Y3699476D01*
Y3690524D01*
X2558317Y3681876D01*
X2562793Y3674124D01*
X2569124Y3667793D01*
X2576876Y3663317D01*
X2579804Y3662533D01*
Y3654223D01*
X2415777Y3490196D01*
X2274589D01*
X2273651Y3492462D01*
X2271090Y3495023D01*
X2273161Y3500023D01*
X2335373D01*
X2339275Y3500799D01*
X2342583Y3503009D01*
X2397210Y3557636D01*
X2399420Y3560944D01*
X2400196Y3564846D01*
Y3590777D01*
X2474252Y3664832D01*
X2476876Y3663317D01*
X2485524Y3661000D01*
X2494476D01*
X2503124Y3663317D01*
X2510876Y3667793D01*
X2517207Y3674124D01*
X2521683Y3681876D01*
X2524000Y3690524D01*
Y3699476D01*
X2521683Y3708124D01*
X2520412Y3710325D01*
Y3878620D01*
X2522175Y3881673D01*
X2524528Y3890454D01*
Y3899546D01*
X2522175Y3908327D01*
X2517629Y3916200D01*
X2511200Y3922629D01*
X2503327Y3927175D01*
X2494546Y3929528D01*
X2485454D01*
X2476673Y3927175D01*
X2468800Y3922629D01*
X2462371Y3916200D01*
X2457825Y3908327D01*
X2455472Y3899546D01*
Y3890454D01*
X2457825Y3881673D01*
X2459588Y3878620D01*
Y3710325D01*
X2458317Y3708124D01*
X2456000Y3699476D01*
Y3690524D01*
X2458317Y3681876D01*
X2459832Y3679252D01*
X2382790Y3602210D01*
X2380580Y3598902D01*
X2379804Y3595000D01*
Y3573344D01*
X2379000Y3572807D01*
X2376342Y3573694D01*
X2373772Y3575327D01*
X2371683Y3583124D01*
X2367207Y3590876D01*
X2360876Y3597207D01*
X2353124Y3601683D01*
X2344476Y3604000D01*
X2335524D01*
X2326876Y3601683D01*
X2319124Y3597207D01*
X2312793Y3590876D01*
X2308317Y3583124D01*
X2306000Y3574476D01*
Y3565524D01*
X2308317Y3556876D01*
X2312793Y3549124D01*
X2319124Y3542793D01*
X2326876Y3538317D01*
X2335524Y3536000D01*
X2339664D01*
X2341735Y3531000D01*
X2331150Y3520415D01*
X2190219D01*
X2186317Y3519639D01*
X2183009Y3517428D01*
X2126642Y3461061D01*
X2124376Y3462000D01*
X2115624D01*
X2107538Y3458651D01*
X2101349Y3452462D01*
X2098000Y3444376D01*
Y3435624D01*
X2101349Y3427538D01*
X2107538Y3421349D01*
X2115624Y3418000D01*
X2124376D01*
X2132462Y3421349D01*
X2138651Y3427538D01*
X2142000Y3435624D01*
Y3444376D01*
X2141061Y3446642D01*
X2194442Y3500023D01*
X2236839D01*
X2238910Y3495023D01*
X2236349Y3492462D01*
X2233000Y3484376D01*
Y3475624D01*
X2236349Y3467538D01*
X2242538Y3461349D01*
X2250624Y3458000D01*
X2259376D01*
X2267462Y3461349D01*
X2273651Y3467538D01*
X2274589Y3469804D01*
X2420000D01*
X2423902Y3470580D01*
X2427210Y3472790D01*
X2597210Y3642790D01*
X2599420Y3646098D01*
X2600196Y3650000D01*
Y3662533D01*
X2603124Y3663317D01*
X2610876Y3667793D01*
X2617207Y3674124D01*
X2621683Y3681876D01*
X2624000Y3690524D01*
Y3699476D01*
X2621683Y3708124D01*
X2620412Y3710325D01*
Y3878620D01*
X2622175Y3881673D01*
X2624528Y3890454D01*
Y3899546D01*
X2622175Y3908327D01*
X2617629Y3916200D01*
X2611200Y3922629D01*
X2603327Y3927175D01*
X2594546Y3929528D01*
D02*
G37*
G36*
X2394546D02*
X2385454D01*
X2376673Y3927175D01*
X2368800Y3922629D01*
X2362371Y3916200D01*
X2357825Y3908327D01*
X2355472Y3899546D01*
Y3890454D01*
X2357825Y3881673D01*
X2359588Y3878620D01*
Y3710325D01*
X2358317Y3708124D01*
X2356000Y3699476D01*
Y3690524D01*
X2358317Y3681876D01*
X2360064Y3678850D01*
X2361173Y3676173D01*
X2361747Y3675935D01*
X2362793Y3674124D01*
X2369124Y3667793D01*
X2376876Y3663317D01*
X2385524Y3661000D01*
X2394476D01*
X2403124Y3663317D01*
X2410876Y3667793D01*
X2417207Y3674124D01*
X2418253Y3675935D01*
X2418827Y3676173D01*
X2419936Y3678850D01*
X2421683Y3681876D01*
X2424000Y3690524D01*
Y3699476D01*
X2421683Y3708124D01*
X2420412Y3710325D01*
Y3878620D01*
X2422175Y3881673D01*
X2424528Y3890454D01*
Y3899546D01*
X2422175Y3908327D01*
X2417629Y3916200D01*
X2411200Y3922629D01*
X2403327Y3927175D01*
X2394546Y3929528D01*
D02*
G37*
G36*
X2294546D02*
X2285454D01*
X2276673Y3927175D01*
X2268800Y3922629D01*
X2262371Y3916200D01*
X2257825Y3908327D01*
X2255472Y3899546D01*
Y3890454D01*
X2257825Y3881673D01*
X2259588Y3878620D01*
Y3710325D01*
X2258317Y3708124D01*
X2256000Y3699476D01*
Y3690524D01*
X2258317Y3681876D01*
X2262793Y3674124D01*
X2269124Y3667793D01*
X2276876Y3663317D01*
X2285524Y3661000D01*
X2294476D01*
X2303124Y3663317D01*
X2310876Y3667793D01*
X2317207Y3674124D01*
X2321683Y3681876D01*
X2324000Y3690524D01*
Y3699476D01*
X2321683Y3708124D01*
X2320412Y3710325D01*
Y3878620D01*
X2322175Y3881673D01*
X2324528Y3890454D01*
Y3899546D01*
X2322175Y3908327D01*
X2317629Y3916200D01*
X2311200Y3922629D01*
X2303327Y3927175D01*
X2294546Y3929528D01*
D02*
G37*
G36*
X2194546D02*
X2185454D01*
X2176673Y3927175D01*
X2168800Y3922629D01*
X2162371Y3916200D01*
X2157825Y3908327D01*
X2155472Y3899546D01*
Y3890454D01*
X2157825Y3881673D01*
X2159588Y3878620D01*
Y3710325D01*
X2158317Y3708124D01*
X2156000Y3699476D01*
Y3690524D01*
X2158317Y3681876D01*
X2162793Y3674124D01*
X2169124Y3667793D01*
X2176876Y3663317D01*
X2185524Y3661000D01*
X2194476D01*
X2203124Y3663317D01*
X2210876Y3667793D01*
X2217207Y3674124D01*
X2221683Y3681876D01*
X2224000Y3690524D01*
Y3699476D01*
X2221683Y3708124D01*
X2220412Y3710325D01*
Y3878620D01*
X2222175Y3881673D01*
X2224528Y3890454D01*
Y3899546D01*
X2222175Y3908327D01*
X2217629Y3916200D01*
X2211200Y3922629D01*
X2203327Y3927175D01*
X2194546Y3929528D01*
D02*
G37*
G36*
X2094546D02*
X2085454D01*
X2076673Y3927175D01*
X2068800Y3922629D01*
X2062371Y3916200D01*
X2057825Y3908327D01*
X2055472Y3899546D01*
Y3890454D01*
X2057825Y3881673D01*
X2059588Y3878620D01*
Y3710325D01*
X2058317Y3708124D01*
X2056000Y3699476D01*
Y3690524D01*
X2058317Y3681876D01*
X2062793Y3674124D01*
X2069124Y3667793D01*
X2076876Y3663317D01*
X2085524Y3661000D01*
X2094476D01*
X2103124Y3663317D01*
X2110876Y3667793D01*
X2117207Y3674124D01*
X2121683Y3681876D01*
X2124000Y3690524D01*
Y3699476D01*
X2121683Y3708124D01*
X2120412Y3710325D01*
Y3878620D01*
X2122175Y3881673D01*
X2124528Y3890454D01*
Y3899546D01*
X2122175Y3908327D01*
X2117629Y3916200D01*
X2111200Y3922629D01*
X2103327Y3927175D01*
X2094546Y3929528D01*
D02*
G37*
G36*
X1994546D02*
X1985454D01*
X1976673Y3927175D01*
X1968800Y3922629D01*
X1962371Y3916200D01*
X1957825Y3908327D01*
X1955473Y3899546D01*
Y3890454D01*
X1957825Y3881673D01*
X1959588Y3878620D01*
Y3710325D01*
X1958317Y3708124D01*
X1956000Y3699476D01*
Y3690524D01*
X1958317Y3681876D01*
X1962793Y3674124D01*
X1969123Y3667793D01*
X1976877Y3663317D01*
X1985524Y3661000D01*
X1994476D01*
X2003123Y3663317D01*
X2010877Y3667793D01*
X2017207Y3674124D01*
X2021683Y3681876D01*
X2024000Y3690524D01*
Y3699476D01*
X2021683Y3708124D01*
X2020412Y3710325D01*
Y3878620D01*
X2022175Y3881673D01*
X2024527Y3890454D01*
Y3899546D01*
X2022175Y3908327D01*
X2017629Y3916200D01*
X2011200Y3922629D01*
X2003327Y3927175D01*
X1994546Y3929528D01*
D02*
G37*
G36*
X1294546D02*
X1285454D01*
X1276673Y3927175D01*
X1268800Y3922629D01*
X1262371Y3916200D01*
X1257825Y3908327D01*
X1255473Y3899546D01*
Y3890454D01*
X1257825Y3881673D01*
X1259588Y3878620D01*
Y3710325D01*
X1258317Y3708124D01*
X1256000Y3699476D01*
Y3690524D01*
X1258317Y3681876D01*
X1262793Y3674124D01*
X1269123Y3667793D01*
X1276877Y3663317D01*
X1285524Y3661000D01*
X1294476D01*
X1303123Y3663317D01*
X1310877Y3667793D01*
X1317207Y3674124D01*
X1321683Y3681876D01*
X1324000Y3690524D01*
Y3699476D01*
X1321683Y3708124D01*
X1320412Y3710325D01*
Y3878620D01*
X1322175Y3881673D01*
X1324527Y3890454D01*
Y3899546D01*
X1322175Y3908327D01*
X1317629Y3916200D01*
X1311200Y3922629D01*
X1303327Y3927175D01*
X1294546Y3929528D01*
D02*
G37*
G36*
X1194546D02*
X1185454D01*
X1176673Y3927175D01*
X1168800Y3922629D01*
X1162371Y3916200D01*
X1157825Y3908327D01*
X1155473Y3899546D01*
Y3890454D01*
X1157825Y3881673D01*
X1159588Y3878620D01*
Y3710325D01*
X1158317Y3708124D01*
X1156000Y3699476D01*
Y3690524D01*
X1158317Y3681876D01*
X1162793Y3674124D01*
X1169123Y3667793D01*
X1176877Y3663317D01*
X1185524Y3661000D01*
X1194476D01*
X1203123Y3663317D01*
X1210877Y3667793D01*
X1217207Y3674124D01*
X1221683Y3681876D01*
X1224000Y3690524D01*
Y3699476D01*
X1221683Y3708124D01*
X1220412Y3710325D01*
Y3878620D01*
X1222175Y3881673D01*
X1224527Y3890454D01*
Y3899546D01*
X1222175Y3908327D01*
X1217629Y3916200D01*
X1211200Y3922629D01*
X1203327Y3927175D01*
X1194546Y3929528D01*
D02*
G37*
G36*
X1094546D02*
X1085454D01*
X1076673Y3927175D01*
X1068800Y3922629D01*
X1062371Y3916200D01*
X1057825Y3908327D01*
X1055473Y3899546D01*
Y3890454D01*
X1057825Y3881673D01*
X1059588Y3878620D01*
Y3710325D01*
X1058317Y3708124D01*
X1056000Y3699476D01*
Y3690524D01*
X1058317Y3681876D01*
X1062793Y3674124D01*
X1069123Y3667793D01*
X1076877Y3663317D01*
X1085524Y3661000D01*
X1094476D01*
X1103123Y3663317D01*
X1110877Y3667793D01*
X1117207Y3674124D01*
X1121683Y3681876D01*
X1124000Y3690524D01*
Y3699476D01*
X1121683Y3708124D01*
X1120412Y3710325D01*
Y3878620D01*
X1122175Y3881673D01*
X1124527Y3890454D01*
Y3899546D01*
X1122175Y3908327D01*
X1117629Y3916200D01*
X1111200Y3922629D01*
X1103327Y3927175D01*
X1094546Y3929528D01*
D02*
G37*
G36*
X994546D02*
X985454D01*
X976673Y3927175D01*
X968800Y3922629D01*
X962371Y3916200D01*
X957826Y3908327D01*
X955472Y3899546D01*
Y3890454D01*
X957826Y3881673D01*
X959588Y3878620D01*
Y3710325D01*
X958317Y3708124D01*
X956000Y3699476D01*
Y3690524D01*
X958317Y3681876D01*
X962793Y3674124D01*
X969124Y3667793D01*
X976876Y3663317D01*
X985524Y3661000D01*
X994476D01*
X1003124Y3663317D01*
X1010876Y3667793D01*
X1017207Y3674124D01*
X1021683Y3681876D01*
X1024000Y3690524D01*
Y3699476D01*
X1021683Y3708124D01*
X1020412Y3710325D01*
Y3878620D01*
X1022174Y3881673D01*
X1024527Y3890454D01*
Y3899546D01*
X1022174Y3908327D01*
X1017629Y3916200D01*
X1011200Y3922629D01*
X1003327Y3927175D01*
X994546Y3929528D01*
D02*
G37*
G36*
X594546D02*
X585454D01*
X576673Y3927175D01*
X568800Y3922629D01*
X562371Y3916200D01*
X557826Y3908327D01*
X555472Y3899546D01*
Y3890454D01*
X557826Y3881673D01*
X559588Y3878620D01*
Y3710325D01*
X558317Y3708124D01*
X556000Y3699476D01*
Y3690524D01*
X558317Y3681876D01*
X562793Y3674124D01*
X569124Y3667793D01*
X576876Y3663317D01*
X585524Y3661000D01*
X594476D01*
X603124Y3663317D01*
X610876Y3667793D01*
X617207Y3674124D01*
X621683Y3681876D01*
X624000Y3690524D01*
Y3699476D01*
X621683Y3708124D01*
X620412Y3710325D01*
Y3878620D01*
X622174Y3881673D01*
X624528Y3890454D01*
Y3899546D01*
X622174Y3908327D01*
X617629Y3916200D01*
X611200Y3922629D01*
X603327Y3927175D01*
X594546Y3929528D01*
D02*
G37*
G36*
X494546D02*
X485454D01*
X476673Y3927175D01*
X468800Y3922629D01*
X462371Y3916200D01*
X457825Y3908327D01*
X455473Y3899546D01*
Y3890454D01*
X457825Y3881673D01*
X459588Y3878620D01*
Y3710325D01*
X458317Y3708124D01*
X456000Y3699476D01*
Y3690524D01*
X458317Y3681876D01*
X462793Y3674124D01*
X469123Y3667793D01*
X476877Y3663317D01*
X485524Y3661000D01*
X494476D01*
X503123Y3663317D01*
X510877Y3667793D01*
X517207Y3674124D01*
X521683Y3681876D01*
X524000Y3690524D01*
Y3699476D01*
X521683Y3708124D01*
X520412Y3710325D01*
Y3878620D01*
X522174Y3881673D01*
X524528Y3890454D01*
Y3899546D01*
X522174Y3908327D01*
X517629Y3916200D01*
X511200Y3922629D01*
X503327Y3927175D01*
X494546Y3929528D01*
D02*
G37*
G36*
X394546D02*
X385454D01*
X376673Y3927175D01*
X368800Y3922629D01*
X362371Y3916200D01*
X357825Y3908327D01*
X355473Y3899546D01*
Y3890454D01*
X357825Y3881673D01*
X359588Y3878620D01*
Y3710325D01*
X358317Y3708124D01*
X356000Y3699476D01*
Y3690524D01*
X358317Y3681876D01*
X362793Y3674124D01*
X369123Y3667793D01*
X376877Y3663317D01*
X385524Y3661000D01*
X394476D01*
X403123Y3663317D01*
X410877Y3667793D01*
X417207Y3674124D01*
X421683Y3681876D01*
X424000Y3690524D01*
Y3699476D01*
X421683Y3708124D01*
X420412Y3710325D01*
Y3878620D01*
X422175Y3881673D01*
X424527Y3890454D01*
Y3899546D01*
X422175Y3908327D01*
X417629Y3916200D01*
X411200Y3922629D01*
X403327Y3927175D01*
X394546Y3929528D01*
D02*
G37*
G36*
X2727696Y3685000D02*
X2700000D01*
Y3657304D01*
X2705053Y3658658D01*
X2713947Y3663792D01*
X2721208Y3671053D01*
X2726342Y3679947D01*
X2727696Y3685000D01*
D02*
G37*
G36*
X2680000D02*
X2652304D01*
X2653658Y3679947D01*
X2658792Y3671053D01*
X2666053Y3663792D01*
X2674947Y3658658D01*
X2680000Y3657304D01*
Y3685000D01*
D02*
G37*
G36*
X1894546Y3929528D02*
X1885454D01*
X1876673Y3927175D01*
X1868800Y3922629D01*
X1862371Y3916200D01*
X1857825Y3908327D01*
X1855473Y3899546D01*
Y3890454D01*
X1857825Y3881673D01*
X1859588Y3878620D01*
Y3710325D01*
X1858317Y3708124D01*
X1856000Y3699476D01*
Y3690524D01*
X1858317Y3681876D01*
X1862793Y3674124D01*
X1869123Y3667793D01*
X1876877Y3663317D01*
X1879804Y3662533D01*
Y3626148D01*
X1875185Y3624235D01*
X1820168Y3679252D01*
X1821683Y3681876D01*
X1824000Y3690524D01*
Y3699476D01*
X1821683Y3708124D01*
X1820412Y3710325D01*
Y3878620D01*
X1822175Y3881673D01*
X1824527Y3890454D01*
Y3899546D01*
X1822175Y3908327D01*
X1817629Y3916200D01*
X1811200Y3922629D01*
X1803327Y3927175D01*
X1794546Y3929528D01*
X1785454D01*
X1776673Y3927175D01*
X1768800Y3922629D01*
X1762371Y3916200D01*
X1757825Y3908327D01*
X1755473Y3899546D01*
Y3890454D01*
X1757825Y3881673D01*
X1759588Y3878620D01*
Y3710325D01*
X1758317Y3708124D01*
X1756000Y3699476D01*
Y3690524D01*
X1758317Y3681876D01*
X1762793Y3674124D01*
X1769123Y3667793D01*
X1776877Y3663317D01*
X1785524Y3661000D01*
X1794476D01*
X1803123Y3663317D01*
X1805748Y3664832D01*
X1925276Y3545304D01*
Y3111899D01*
X1920276Y3110560D01*
X1917207Y3115876D01*
X1910877Y3122207D01*
X1903123Y3126683D01*
X1894476Y3129000D01*
X1885524D01*
X1876877Y3126683D01*
X1869123Y3122207D01*
X1862793Y3115876D01*
X1858317Y3108124D01*
X1857303Y3104341D01*
X1851727Y3102847D01*
X1700196Y3254378D01*
Y3662533D01*
X1703123Y3663317D01*
X1710877Y3667793D01*
X1717207Y3674124D01*
X1721683Y3681876D01*
X1724000Y3690524D01*
Y3699476D01*
X1721683Y3708124D01*
X1720412Y3710325D01*
Y3878620D01*
X1722175Y3881673D01*
X1724527Y3890454D01*
Y3899546D01*
X1722175Y3908327D01*
X1717629Y3916200D01*
X1711200Y3922629D01*
X1703327Y3927175D01*
X1694546Y3929528D01*
X1685454D01*
X1676673Y3927175D01*
X1668800Y3922629D01*
X1662371Y3916200D01*
X1657825Y3908327D01*
X1655473Y3899546D01*
Y3890454D01*
X1657825Y3881673D01*
X1659588Y3878620D01*
Y3710325D01*
X1658317Y3708124D01*
X1656000Y3699476D01*
Y3690524D01*
X1658317Y3681876D01*
X1662793Y3674124D01*
X1669123Y3667793D01*
X1676877Y3663317D01*
X1679804Y3662533D01*
Y3250154D01*
X1680580Y3246253D01*
X1682790Y3242945D01*
X1791735Y3134000D01*
X1789664Y3129000D01*
X1785524D01*
X1776877Y3126683D01*
X1769123Y3122207D01*
X1762793Y3115876D01*
X1758317Y3108124D01*
X1756000Y3099476D01*
Y3090524D01*
X1758317Y3081876D01*
X1759588Y3079675D01*
Y2911380D01*
X1757825Y2908327D01*
X1755473Y2899546D01*
Y2890454D01*
X1757825Y2881673D01*
X1762371Y2873800D01*
X1768800Y2867371D01*
X1776673Y2862825D01*
X1785454Y2860472D01*
X1794546D01*
X1803327Y2862825D01*
X1811200Y2867371D01*
X1817629Y2873800D01*
X1822175Y2881673D01*
X1824527Y2890454D01*
Y2899546D01*
X1822175Y2908327D01*
X1820412Y2911380D01*
Y3079675D01*
X1821683Y3081876D01*
X1824000Y3090524D01*
Y3094664D01*
X1829000Y3096735D01*
X1840276Y3085459D01*
Y2878627D01*
X1841053Y2874725D01*
X1843263Y2871418D01*
X1894804Y2819876D01*
Y2634589D01*
X1892538Y2633651D01*
X1886349Y2627462D01*
X1883000Y2619376D01*
Y2610624D01*
X1886349Y2602538D01*
X1892538Y2596349D01*
X1900624Y2593000D01*
X1909376D01*
X1917462Y2596349D01*
X1923651Y2602538D01*
X1927000Y2610624D01*
Y2619376D01*
X1923651Y2627462D01*
X1917462Y2633651D01*
X1915196Y2634589D01*
Y2824100D01*
X1914420Y2828001D01*
X1912210Y2831309D01*
X1888046Y2855472D01*
X1890117Y2860472D01*
X1894546D01*
X1903327Y2862825D01*
X1911200Y2867371D01*
X1917629Y2873800D01*
X1920276Y2878385D01*
X1925276Y2877046D01*
Y2872414D01*
X1926053Y2868512D01*
X1928263Y2865204D01*
X1959804Y2833663D01*
Y2454589D01*
X1957538Y2453651D01*
X1951349Y2447462D01*
X1948000Y2439376D01*
Y2430624D01*
X1951349Y2422538D01*
X1957538Y2416349D01*
X1965624Y2413000D01*
X1974376D01*
X1982462Y2416349D01*
X1988651Y2422538D01*
X1992000Y2430624D01*
Y2439376D01*
X1988651Y2447462D01*
X1982462Y2453651D01*
X1980196Y2454589D01*
Y2827952D01*
X1984815Y2829865D01*
X2004804Y2809876D01*
Y2399589D01*
X2002538Y2398651D01*
X1996349Y2392462D01*
X1993000Y2384376D01*
Y2375624D01*
X1996349Y2367538D01*
X2002538Y2361349D01*
X2010624Y2358000D01*
X2019376D01*
X2027462Y2361349D01*
X2033651Y2367538D01*
X2037000Y2375624D01*
Y2384376D01*
X2033651Y2392462D01*
X2027462Y2398651D01*
X2025196Y2399589D01*
Y2706620D01*
X2030196Y2708691D01*
X2032538Y2706349D01*
X2040624Y2703000D01*
X2049376D01*
X2057462Y2706349D01*
X2063651Y2712538D01*
X2064589Y2714804D01*
X2310777D01*
X2459804Y2565777D01*
Y2359223D01*
X2314876Y2214296D01*
X2045000D01*
X2041098Y2213519D01*
X2037790Y2211309D01*
X1919527Y2093046D01*
X1914527Y2095117D01*
Y2099546D01*
X1912175Y2108327D01*
X1907629Y2116200D01*
X1901200Y2122629D01*
X1893327Y2127175D01*
X1884546Y2129528D01*
X1875454D01*
X1866673Y2127175D01*
X1858800Y2122629D01*
X1852371Y2116200D01*
X1847825Y2108327D01*
X1845473Y2099546D01*
Y2090454D01*
X1847825Y2081673D01*
X1852371Y2073800D01*
X1858800Y2067371D01*
X1866673Y2062825D01*
X1875454Y2060472D01*
X1879883D01*
X1881954Y2055472D01*
X1802790Y1976309D01*
X1800580Y1973001D01*
X1799804Y1969100D01*
Y1800196D01*
X1535348D01*
X1531446Y1799420D01*
X1528139Y1797210D01*
X1501816Y1770887D01*
X1499550Y1771826D01*
X1490798D01*
X1482712Y1768477D01*
X1476523Y1762288D01*
X1473174Y1754202D01*
Y1745450D01*
X1475237Y1740468D01*
X1472435Y1735419D01*
X1469507Y1734830D01*
X1464651Y1738074D01*
X1456848Y1739627D01*
X1405106D01*
X1399376Y1742000D01*
X1390624D01*
X1382538Y1738651D01*
X1376349Y1732462D01*
X1373000Y1724376D01*
Y1715624D01*
X1376349Y1707538D01*
X1382538Y1701349D01*
X1390624Y1698000D01*
X1399376D01*
X1401411Y1698843D01*
X1448401D01*
X1448837Y1698407D01*
X1455453Y1693986D01*
X1463256Y1692434D01*
X1510500D01*
X1518304Y1693986D01*
X1523000Y1697124D01*
X1525446Y1696390D01*
X1528004Y1695166D01*
X1528333Y1694821D01*
X1531349Y1687538D01*
X1537538Y1681349D01*
X1545624Y1678000D01*
X1554376D01*
X1555861Y1678615D01*
X1572471Y1662005D01*
X1570473Y1654546D01*
Y1645454D01*
X1572825Y1636673D01*
X1577371Y1628800D01*
X1583800Y1622371D01*
X1591673Y1617825D01*
X1600454Y1615473D01*
X1609546D01*
X1618327Y1617825D01*
X1626200Y1622371D01*
X1632629Y1628800D01*
X1637175Y1636673D01*
X1639527Y1645454D01*
Y1654546D01*
X1637175Y1663327D01*
X1632629Y1671200D01*
X1626200Y1677629D01*
X1618327Y1682175D01*
X1609546Y1684527D01*
X1600454D01*
X1591673Y1682175D01*
X1589566Y1680958D01*
X1572000Y1698524D01*
Y1704376D01*
X1569004Y1711608D01*
X1571037Y1716608D01*
X1649608D01*
Y1533447D01*
X1644147Y1527985D01*
X1639527Y1529899D01*
Y1584527D01*
X1570473D01*
Y1515473D01*
X1625101D01*
X1627015Y1510853D01*
X1596420Y1480259D01*
X1592538Y1478651D01*
X1586349Y1472462D01*
X1583000Y1464376D01*
Y1455624D01*
X1586349Y1447538D01*
X1592538Y1441349D01*
X1600624Y1438000D01*
X1609376D01*
X1617462Y1441349D01*
X1623651Y1447538D01*
X1625259Y1451420D01*
X1684419Y1510581D01*
X1688840Y1517196D01*
X1690392Y1525000D01*
Y1716608D01*
X1774553D01*
X1790765Y1700397D01*
X1793016Y1694963D01*
X1799204Y1688774D01*
X1807290Y1685425D01*
X1816043D01*
X1819925Y1687033D01*
X1926343D01*
X1934146Y1688585D01*
X1940762Y1693006D01*
X1946732Y1698976D01*
X1952462Y1701349D01*
X1958651Y1707538D01*
X1962000Y1715624D01*
Y1724376D01*
X1958651Y1732462D01*
X1952462Y1738651D01*
X1944376Y1742000D01*
X1935624D01*
X1927538Y1738651D01*
X1921349Y1732462D01*
X1920506Y1730427D01*
X1917896Y1727817D01*
X1875462D01*
X1873549Y1732436D01*
X1873651Y1732538D01*
X1877000Y1740624D01*
Y1749376D01*
X1873651Y1757462D01*
X1867462Y1763651D01*
X1859376Y1767000D01*
X1850624D01*
X1848358Y1766061D01*
X1820196Y1794223D01*
Y1964876D01*
X2049223Y2193904D01*
X2319100D01*
X2323001Y2194680D01*
X2326309Y2196890D01*
X2477210Y2347790D01*
X2479420Y2351098D01*
X2480196Y2355000D01*
Y2570000D01*
X2479420Y2573902D01*
X2477210Y2577210D01*
X2322210Y2732210D01*
X2318902Y2734420D01*
X2315000Y2735196D01*
X2064589D01*
X2063651Y2737462D01*
X2057462Y2743651D01*
X2049376Y2747000D01*
X2040624D01*
X2032538Y2743651D01*
X2030196Y2741309D01*
X2025196Y2743380D01*
Y2814100D01*
X2024420Y2818001D01*
X2022210Y2821309D01*
X1988046Y2855472D01*
X1990117Y2860472D01*
X1994546D01*
X2003327Y2862825D01*
X2011200Y2867371D01*
X2017629Y2873800D01*
X2022175Y2881673D01*
X2024527Y2890454D01*
Y2899546D01*
X2022175Y2908327D01*
X2020412Y2911380D01*
Y3079675D01*
X2021683Y3081876D01*
X2024000Y3090524D01*
Y3099476D01*
X2021683Y3108124D01*
X2017207Y3115876D01*
X2010877Y3122207D01*
X2003123Y3126683D01*
X1994476Y3129000D01*
X1985524D01*
X1976877Y3126683D01*
X1969123Y3122207D01*
X1965668Y3118752D01*
X1960668Y3120823D01*
Y3555741D01*
X1959892Y3559643D01*
X1957682Y3562950D01*
X1900196Y3620436D01*
Y3662533D01*
X1903123Y3663317D01*
X1910877Y3667793D01*
X1917207Y3674124D01*
X1921683Y3681876D01*
X1924000Y3690524D01*
Y3699476D01*
X1921683Y3708124D01*
X1920412Y3710325D01*
Y3878620D01*
X1922175Y3881673D01*
X1924527Y3890454D01*
Y3899546D01*
X1922175Y3908327D01*
X1917629Y3916200D01*
X1911200Y3922629D01*
X1903327Y3927175D01*
X1894546Y3929528D01*
D02*
G37*
G36*
X894476Y3629000D02*
X885524D01*
X876876Y3626683D01*
X869124Y3622207D01*
X862793Y3615876D01*
X858317Y3608124D01*
X856000Y3599476D01*
Y3590524D01*
X858317Y3581876D01*
X862793Y3574124D01*
X869124Y3567793D01*
X876876Y3563317D01*
X885524Y3561000D01*
X894476D01*
X903124Y3563317D01*
X910876Y3567793D01*
X917207Y3574124D01*
X921683Y3581876D01*
X924000Y3590524D01*
Y3599476D01*
X921683Y3608124D01*
X917207Y3615876D01*
X910876Y3622207D01*
X903124Y3626683D01*
X894476Y3629000D01*
D02*
G37*
G36*
X2444476Y3604000D02*
X2435524D01*
X2426876Y3601683D01*
X2419124Y3597207D01*
X2412793Y3590876D01*
X2408317Y3583124D01*
X2406000Y3574476D01*
Y3565524D01*
X2408317Y3556876D01*
X2412793Y3549124D01*
X2419124Y3542793D01*
X2426876Y3538317D01*
X2435524Y3536000D01*
X2444476D01*
X2453124Y3538317D01*
X2460876Y3542793D01*
X2467207Y3549124D01*
X2471683Y3556876D01*
X2474000Y3565524D01*
Y3574476D01*
X2471683Y3583124D01*
X2467207Y3590876D01*
X2460876Y3597207D01*
X2453124Y3601683D01*
X2444476Y3604000D01*
D02*
G37*
G36*
X2244476D02*
X2235524D01*
X2226876Y3601683D01*
X2219124Y3597207D01*
X2212793Y3590876D01*
X2208317Y3583124D01*
X2206000Y3574476D01*
Y3565524D01*
X2208317Y3556876D01*
X2212793Y3549124D01*
X2219124Y3542793D01*
X2226876Y3538317D01*
X2235524Y3536000D01*
X2244476D01*
X2253124Y3538317D01*
X2260876Y3542793D01*
X2267207Y3549124D01*
X2271683Y3556876D01*
X2274000Y3565524D01*
Y3574476D01*
X2271683Y3583124D01*
X2267207Y3590876D01*
X2260876Y3597207D01*
X2253124Y3601683D01*
X2244476Y3604000D01*
D02*
G37*
G36*
X2144476D02*
X2135524D01*
X2126876Y3601683D01*
X2119124Y3597207D01*
X2112793Y3590876D01*
X2108317Y3583124D01*
X2106000Y3574476D01*
Y3565524D01*
X2108317Y3556876D01*
X2112793Y3549124D01*
X2119124Y3542793D01*
X2126876Y3538317D01*
X2135524Y3536000D01*
X2144476D01*
X2153124Y3538317D01*
X2160876Y3542793D01*
X2167207Y3549124D01*
X2171683Y3556876D01*
X2174000Y3565524D01*
Y3574476D01*
X2171683Y3583124D01*
X2167207Y3590876D01*
X2160876Y3597207D01*
X2153124Y3601683D01*
X2144476Y3604000D01*
D02*
G37*
G36*
X2044476D02*
X2035524D01*
X2026877Y3601683D01*
X2019123Y3597207D01*
X2012793Y3590876D01*
X2008317Y3583124D01*
X2006000Y3574476D01*
Y3565524D01*
X2008317Y3556876D01*
X2012793Y3549124D01*
X2019123Y3542793D01*
X2026877Y3538317D01*
X2035524Y3536000D01*
X2044476D01*
X2053124Y3538317D01*
X2060876Y3542793D01*
X2067207Y3549124D01*
X2071683Y3556876D01*
X2074000Y3565524D01*
Y3574476D01*
X2071683Y3583124D01*
X2067207Y3590876D01*
X2060876Y3597207D01*
X2053124Y3601683D01*
X2044476Y3604000D01*
D02*
G37*
G36*
X85000Y3506320D02*
Y3475000D01*
X116320D01*
X114604Y3481404D01*
X109008Y3491096D01*
X101096Y3499008D01*
X91404Y3504604D01*
X85000Y3506320D01*
D02*
G37*
G36*
X65000D02*
X58596Y3504604D01*
X48904Y3499008D01*
X40992Y3491096D01*
X35396Y3481404D01*
X33680Y3475000D01*
X65000D01*
Y3506320D01*
D02*
G37*
G36*
X794546Y3929528D02*
X785454D01*
X776673Y3927175D01*
X768800Y3922629D01*
X762371Y3916200D01*
X757826Y3908327D01*
X755472Y3899546D01*
Y3890454D01*
X757826Y3881673D01*
X759588Y3878620D01*
Y3710325D01*
X758317Y3708124D01*
X756000Y3699476D01*
Y3690524D01*
X758317Y3681876D01*
X762793Y3674124D01*
X769124Y3667793D01*
X776876Y3663317D01*
X779804Y3662533D01*
Y3466686D01*
X774804Y3464615D01*
X700196Y3539223D01*
Y3662533D01*
X703124Y3663317D01*
X710876Y3667793D01*
X717207Y3674124D01*
X721683Y3681876D01*
X724000Y3690524D01*
Y3699476D01*
X721683Y3708124D01*
X720412Y3710325D01*
Y3878620D01*
X722174Y3881673D01*
X724528Y3890454D01*
Y3899546D01*
X722174Y3908327D01*
X717629Y3916200D01*
X711200Y3922629D01*
X703327Y3927175D01*
X694546Y3929528D01*
X685454D01*
X676673Y3927175D01*
X668800Y3922629D01*
X662371Y3916200D01*
X657826Y3908327D01*
X655472Y3899546D01*
Y3890454D01*
X657826Y3881673D01*
X659588Y3878620D01*
Y3710325D01*
X658317Y3708124D01*
X656000Y3699476D01*
Y3690524D01*
X658317Y3681876D01*
X662793Y3674124D01*
X669124Y3667793D01*
X676876Y3663317D01*
X679804Y3662533D01*
Y3535000D01*
X680580Y3531098D01*
X682790Y3527790D01*
X759804Y3450777D01*
Y3170154D01*
X760580Y3166253D01*
X762790Y3162945D01*
X791735Y3134000D01*
X789664Y3129000D01*
X785524D01*
X776876Y3126683D01*
X769124Y3122207D01*
X762793Y3115876D01*
X758317Y3108124D01*
X756000Y3099476D01*
Y3090524D01*
X758317Y3081876D01*
X759588Y3079675D01*
Y2911380D01*
X757826Y2908327D01*
X755472Y2899546D01*
Y2890454D01*
X757826Y2881673D01*
X762371Y2873800D01*
X768800Y2867371D01*
X776673Y2862825D01*
X785454Y2860472D01*
X794546D01*
X803327Y2862825D01*
X811200Y2867371D01*
X814332Y2870503D01*
X819332Y2868431D01*
Y2840472D01*
X820108Y2836571D01*
X822318Y2833263D01*
X1164804Y2490777D01*
Y2299589D01*
X1162538Y2298651D01*
X1156349Y2292462D01*
X1153000Y2284376D01*
Y2275624D01*
X1156349Y2267538D01*
X1162538Y2261349D01*
X1170624Y2258000D01*
X1179376D01*
X1187462Y2261349D01*
X1193651Y2267538D01*
X1197000Y2275624D01*
Y2284376D01*
X1193651Y2292462D01*
X1187462Y2298651D01*
X1185196Y2299589D01*
Y2485065D01*
X1189815Y2486979D01*
X1229804Y2446990D01*
Y2299589D01*
X1227538Y2298651D01*
X1221349Y2292462D01*
X1218000Y2284376D01*
Y2275624D01*
X1221349Y2267538D01*
X1227538Y2261349D01*
X1235624Y2258000D01*
X1244376D01*
X1252462Y2261349D01*
X1258651Y2267538D01*
X1262000Y2275624D01*
Y2284376D01*
X1258651Y2292462D01*
X1252462Y2298651D01*
X1250196Y2299589D01*
Y2451213D01*
X1249420Y2455115D01*
X1247210Y2458423D01*
X860668Y2844964D01*
Y2868431D01*
X865668Y2870503D01*
X868800Y2867371D01*
X876673Y2862825D01*
X885454Y2860472D01*
X894546D01*
X903327Y2862825D01*
X911200Y2867371D01*
X917629Y2873800D01*
X922174Y2881673D01*
X924528Y2890454D01*
Y2899546D01*
X922174Y2908327D01*
X920412Y2911380D01*
Y3079675D01*
X921683Y3081876D01*
X924000Y3090524D01*
Y3099476D01*
X921683Y3108124D01*
X917207Y3115876D01*
X910876Y3122207D01*
X903124Y3126683D01*
X894476Y3129000D01*
X885524D01*
X876876Y3126683D01*
X869124Y3122207D01*
X864123Y3117206D01*
X859248Y3117158D01*
X858017Y3117604D01*
X857682Y3118105D01*
X800196Y3175591D01*
Y3662533D01*
X803124Y3663317D01*
X810876Y3667793D01*
X817207Y3674124D01*
X821683Y3681876D01*
X824000Y3690524D01*
Y3699476D01*
X821683Y3708124D01*
X820412Y3710325D01*
Y3878620D01*
X822174Y3881673D01*
X824528Y3890454D01*
Y3899546D01*
X822174Y3908327D01*
X817629Y3916200D01*
X811200Y3922629D01*
X803327Y3927175D01*
X794546Y3929528D01*
D02*
G37*
G36*
X894476Y3529000D02*
X885524D01*
X876876Y3526683D01*
X869124Y3522207D01*
X862793Y3515876D01*
X858317Y3508124D01*
X856000Y3499476D01*
Y3490524D01*
X858317Y3481876D01*
X862793Y3474124D01*
X869124Y3467793D01*
X876876Y3463317D01*
X885524Y3461000D01*
X894476D01*
X903124Y3463317D01*
X910876Y3467793D01*
X917207Y3474124D01*
X921683Y3481876D01*
X924000Y3490524D01*
Y3499476D01*
X921683Y3508124D01*
X917207Y3515876D01*
X910876Y3522207D01*
X903124Y3526683D01*
X894476Y3529000D01*
D02*
G37*
G36*
X3345000Y3486320D02*
Y3455000D01*
X3376320D01*
X3374604Y3461404D01*
X3369008Y3471096D01*
X3361096Y3479008D01*
X3351404Y3484604D01*
X3345000Y3486320D01*
D02*
G37*
G36*
X3325000D02*
X3318596Y3484604D01*
X3308904Y3479008D01*
X3300992Y3471096D01*
X3295396Y3461404D01*
X3293680Y3455000D01*
X3325000D01*
Y3486320D01*
D02*
G37*
G36*
X116320Y3455000D02*
X85000D01*
Y3423680D01*
X91404Y3425396D01*
X101096Y3430992D01*
X109008Y3438904D01*
X114604Y3448596D01*
X116320Y3455000D01*
D02*
G37*
G36*
X65000D02*
X33680D01*
X35396Y3448596D01*
X40992Y3438904D01*
X48904Y3430992D01*
X58596Y3425396D01*
X65000Y3423680D01*
Y3455000D01*
D02*
G37*
G36*
X3376320Y3435000D02*
X3345000D01*
Y3403680D01*
X3351404Y3405396D01*
X3361096Y3410992D01*
X3369008Y3418904D01*
X3374604Y3428596D01*
X3376320Y3435000D01*
D02*
G37*
G36*
X3325000D02*
X3293680D01*
X3295396Y3428596D01*
X3300992Y3418904D01*
X3308904Y3410992D01*
X3318596Y3405396D01*
X3325000Y3403680D01*
Y3435000D01*
D02*
G37*
G36*
X894476Y3429000D02*
X885524D01*
X876876Y3426683D01*
X869124Y3422207D01*
X862793Y3415876D01*
X858317Y3408124D01*
X856000Y3399476D01*
Y3390524D01*
X858317Y3381876D01*
X862793Y3374124D01*
X869124Y3367793D01*
X876876Y3363317D01*
X885524Y3361000D01*
X894476D01*
X903124Y3363317D01*
X910876Y3367793D01*
X917207Y3374124D01*
X921683Y3381876D01*
X924000Y3390524D01*
Y3399476D01*
X921683Y3408124D01*
X917207Y3415876D01*
X910876Y3422207D01*
X903124Y3426683D01*
X894476Y3429000D01*
D02*
G37*
G36*
Y3329000D02*
X885524D01*
X876876Y3326683D01*
X869124Y3322207D01*
X862793Y3315876D01*
X858317Y3308124D01*
X856000Y3299476D01*
Y3290524D01*
X858317Y3281876D01*
X862793Y3274124D01*
X869124Y3267793D01*
X876876Y3263317D01*
X885524Y3261000D01*
X894476D01*
X903124Y3263317D01*
X910876Y3267793D01*
X917207Y3274124D01*
X921683Y3281876D01*
X924000Y3290524D01*
Y3299476D01*
X921683Y3308124D01*
X917207Y3315876D01*
X910876Y3322207D01*
X903124Y3326683D01*
X894476Y3329000D01*
D02*
G37*
G36*
X85000Y3206320D02*
Y3175000D01*
X116320D01*
X114604Y3181404D01*
X109008Y3191096D01*
X101096Y3199008D01*
X91404Y3204604D01*
X85000Y3206320D01*
D02*
G37*
G36*
X65000D02*
X58596Y3204604D01*
X48904Y3199008D01*
X40992Y3191096D01*
X35396Y3181404D01*
X33680Y3175000D01*
X65000D01*
Y3206320D01*
D02*
G37*
G36*
X2594476Y3229000D02*
X2585524D01*
X2576876Y3226683D01*
X2569124Y3222207D01*
X2562793Y3215876D01*
X2558317Y3208124D01*
X2556000Y3199476D01*
Y3190524D01*
X2558317Y3181876D01*
X2562793Y3174124D01*
X2569124Y3167793D01*
X2576876Y3163317D01*
X2585524Y3161000D01*
X2594476D01*
X2603124Y3163317D01*
X2610876Y3167793D01*
X2617207Y3174124D01*
X2621683Y3181876D01*
X2624000Y3190524D01*
Y3199476D01*
X2621683Y3208124D01*
X2617207Y3215876D01*
X2610876Y3222207D01*
X2603124Y3226683D01*
X2594476Y3229000D01*
D02*
G37*
G36*
X2394476D02*
X2385524D01*
X2376876Y3226683D01*
X2369124Y3222207D01*
X2362793Y3215876D01*
X2358317Y3208124D01*
X2356000Y3199476D01*
Y3190524D01*
X2358317Y3181876D01*
X2362793Y3174124D01*
X2369124Y3167793D01*
X2376876Y3163317D01*
X2385524Y3161000D01*
X2394476D01*
X2403124Y3163317D01*
X2410876Y3167793D01*
X2417207Y3174124D01*
X2421683Y3181876D01*
X2424000Y3190524D01*
Y3199476D01*
X2421683Y3208124D01*
X2417207Y3215876D01*
X2410876Y3222207D01*
X2403124Y3226683D01*
X2394476Y3229000D01*
D02*
G37*
G36*
X2294476D02*
X2285524D01*
X2276876Y3226683D01*
X2269124Y3222207D01*
X2262793Y3215876D01*
X2258317Y3208124D01*
X2256000Y3199476D01*
Y3190524D01*
X2258317Y3181876D01*
X2262793Y3174124D01*
X2269124Y3167793D01*
X2276876Y3163317D01*
X2285524Y3161000D01*
X2294476D01*
X2303124Y3163317D01*
X2310876Y3167793D01*
X2317207Y3174124D01*
X2321683Y3181876D01*
X2324000Y3190524D01*
Y3199476D01*
X2321683Y3208124D01*
X2317207Y3215876D01*
X2310876Y3222207D01*
X2303124Y3226683D01*
X2294476Y3229000D01*
D02*
G37*
G36*
X2194476D02*
X2185524D01*
X2176876Y3226683D01*
X2169124Y3222207D01*
X2162793Y3215876D01*
X2158317Y3208124D01*
X2156000Y3199476D01*
Y3190524D01*
X2158317Y3181876D01*
X2162793Y3174124D01*
X2169124Y3167793D01*
X2176876Y3163317D01*
X2185524Y3161000D01*
X2194476D01*
X2203124Y3163317D01*
X2210876Y3167793D01*
X2217207Y3174124D01*
X2221683Y3181876D01*
X2224000Y3190524D01*
Y3199476D01*
X2221683Y3208124D01*
X2217207Y3215876D01*
X2210876Y3222207D01*
X2203124Y3226683D01*
X2194476Y3229000D01*
D02*
G37*
G36*
X894476D02*
X885524D01*
X876876Y3226683D01*
X869124Y3222207D01*
X862793Y3215876D01*
X858317Y3208124D01*
X856000Y3199476D01*
Y3190524D01*
X858317Y3181876D01*
X862793Y3174124D01*
X869124Y3167793D01*
X876876Y3163317D01*
X885524Y3161000D01*
X894476D01*
X903124Y3163317D01*
X910876Y3167793D01*
X917207Y3174124D01*
X921683Y3181876D01*
X924000Y3190524D01*
Y3199476D01*
X921683Y3208124D01*
X917207Y3215876D01*
X910876Y3222207D01*
X903124Y3226683D01*
X894476Y3229000D01*
D02*
G37*
G36*
X3345000Y3186320D02*
Y3155000D01*
X3376320D01*
X3374604Y3161404D01*
X3369008Y3171096D01*
X3361096Y3179008D01*
X3351404Y3184604D01*
X3345000Y3186320D01*
D02*
G37*
G36*
X3325000D02*
X3318596Y3184604D01*
X3308904Y3179008D01*
X3300992Y3171096D01*
X3295396Y3161404D01*
X3293680Y3155000D01*
X3325000D01*
Y3186320D01*
D02*
G37*
G36*
X116320Y3155000D02*
X85000D01*
Y3123680D01*
X91404Y3125396D01*
X101096Y3130992D01*
X109008Y3138904D01*
X114604Y3148596D01*
X116320Y3155000D01*
D02*
G37*
G36*
X65000D02*
X33680D01*
X35396Y3148596D01*
X40992Y3138904D01*
X48904Y3130992D01*
X58596Y3125396D01*
X65000Y3123680D01*
Y3155000D01*
D02*
G37*
G36*
X1594546Y3929528D02*
X1585454D01*
X1576673Y3927175D01*
X1568800Y3922629D01*
X1562371Y3916200D01*
X1557825Y3908327D01*
X1555473Y3899546D01*
Y3890454D01*
X1557825Y3881673D01*
X1559588Y3878620D01*
Y3710325D01*
X1558317Y3708124D01*
X1556000Y3699476D01*
Y3690524D01*
X1558317Y3681876D01*
X1562793Y3674124D01*
X1569123Y3667793D01*
X1576877Y3663317D01*
X1579804Y3662533D01*
Y3250154D01*
X1580580Y3246253D01*
X1582790Y3242945D01*
X1691735Y3134000D01*
X1689664Y3129000D01*
X1685524D01*
X1676877Y3126683D01*
X1669123Y3122207D01*
X1662793Y3115876D01*
X1660196Y3111378D01*
X1655196Y3112718D01*
Y3145000D01*
X1654420Y3148902D01*
X1652210Y3152210D01*
X1500196Y3304223D01*
Y3662533D01*
X1503123Y3663317D01*
X1510877Y3667793D01*
X1517207Y3674124D01*
X1521683Y3681876D01*
X1524000Y3690524D01*
Y3699476D01*
X1521683Y3708124D01*
X1520412Y3710325D01*
Y3878620D01*
X1522175Y3881673D01*
X1524527Y3890454D01*
Y3899546D01*
X1522175Y3908327D01*
X1517629Y3916200D01*
X1511200Y3922629D01*
X1503327Y3927175D01*
X1494546Y3929528D01*
X1485454D01*
X1476673Y3927175D01*
X1468800Y3922629D01*
X1462371Y3916200D01*
X1457825Y3908327D01*
X1455473Y3899546D01*
Y3890454D01*
X1457825Y3881673D01*
X1459588Y3878620D01*
Y3710325D01*
X1458317Y3708124D01*
X1456000Y3699476D01*
Y3690524D01*
X1458317Y3681876D01*
X1462793Y3674124D01*
X1469123Y3667793D01*
X1476877Y3663317D01*
X1479804Y3662533D01*
Y3300000D01*
X1480580Y3296098D01*
X1482790Y3292791D01*
X1634804Y3140777D01*
Y3126302D01*
X1630185Y3124389D01*
X1613364Y3141210D01*
X1612899Y3141520D01*
X1400196Y3354223D01*
Y3662533D01*
X1403123Y3663317D01*
X1410877Y3667793D01*
X1417207Y3674124D01*
X1421683Y3681876D01*
X1424000Y3690524D01*
Y3699476D01*
X1421683Y3708124D01*
X1420412Y3710325D01*
Y3878620D01*
X1422175Y3881673D01*
X1424527Y3890454D01*
Y3899546D01*
X1422175Y3908327D01*
X1417629Y3916200D01*
X1411200Y3922629D01*
X1403327Y3927175D01*
X1394546Y3929528D01*
X1385454D01*
X1376673Y3927175D01*
X1368800Y3922629D01*
X1362371Y3916200D01*
X1357825Y3908327D01*
X1355473Y3899546D01*
Y3890454D01*
X1357825Y3881673D01*
X1359588Y3878620D01*
Y3710325D01*
X1358317Y3708124D01*
X1356000Y3699476D01*
Y3690524D01*
X1358317Y3681876D01*
X1362793Y3674124D01*
X1369123Y3667793D01*
X1376877Y3663317D01*
X1379804Y3662533D01*
Y3350000D01*
X1380580Y3346098D01*
X1382790Y3342791D01*
X1591581Y3134000D01*
X1589510Y3129000D01*
X1585524D01*
X1576877Y3126683D01*
X1569123Y3122207D01*
X1562793Y3115876D01*
X1558317Y3108124D01*
X1556000Y3099476D01*
Y3090524D01*
X1558317Y3081876D01*
X1559588Y3079675D01*
Y2911380D01*
X1557825Y2908327D01*
X1555473Y2899546D01*
Y2890454D01*
X1557825Y2881673D01*
X1562371Y2873800D01*
X1568800Y2867371D01*
X1576673Y2862825D01*
X1585454Y2860472D01*
X1594546D01*
X1603327Y2862825D01*
X1611200Y2867371D01*
X1614804Y2870975D01*
X1619804Y2868904D01*
Y2835603D01*
X1620580Y2831701D01*
X1622790Y2828394D01*
X1750393Y2700790D01*
X1753701Y2698580D01*
X1757603Y2697804D01*
X1812777D01*
X1828939Y2681642D01*
X1828000Y2679376D01*
Y2670624D01*
X1831349Y2662538D01*
X1837538Y2656349D01*
X1845624Y2653000D01*
X1854376D01*
X1862462Y2656349D01*
X1868651Y2662538D01*
X1872000Y2670624D01*
Y2679376D01*
X1868651Y2687462D01*
X1862462Y2693651D01*
X1854376Y2697000D01*
X1845624D01*
X1843358Y2696061D01*
X1824210Y2715210D01*
X1820902Y2717420D01*
X1817000Y2718196D01*
X1810841D01*
X1808923Y2723196D01*
X1812000Y2730624D01*
Y2739376D01*
X1808651Y2747462D01*
X1802462Y2753651D01*
X1794376Y2757000D01*
X1785624D01*
X1777538Y2753651D01*
X1771349Y2747462D01*
X1770411Y2745196D01*
X1756040D01*
X1742855Y2758381D01*
X1745034Y2763273D01*
X1752462Y2766349D01*
X1758651Y2772538D01*
X1762000Y2780624D01*
Y2789376D01*
X1758651Y2797462D01*
X1752462Y2803651D01*
X1750196Y2804589D01*
Y3100154D01*
X1749420Y3104056D01*
X1747210Y3107364D01*
X1600196Y3254378D01*
Y3662533D01*
X1603123Y3663317D01*
X1610877Y3667793D01*
X1617207Y3674124D01*
X1621683Y3681876D01*
X1624000Y3690524D01*
Y3699476D01*
X1621683Y3708124D01*
X1620412Y3710325D01*
Y3878620D01*
X1622175Y3881673D01*
X1624527Y3890454D01*
Y3899546D01*
X1622175Y3908327D01*
X1617629Y3916200D01*
X1611200Y3922629D01*
X1603327Y3927175D01*
X1594546Y3929528D01*
D02*
G37*
G36*
X1300000Y3132696D02*
Y3105000D01*
X1327696D01*
X1326342Y3110053D01*
X1321208Y3118947D01*
X1313947Y3126208D01*
X1305053Y3131342D01*
X1300000Y3132696D01*
D02*
G37*
G36*
X2600000D02*
Y3105000D01*
X2627696D01*
X2626342Y3110053D01*
X2621208Y3118947D01*
X2613947Y3126208D01*
X2605053Y3131342D01*
X2600000Y3132696D01*
D02*
G37*
G36*
X2580000D02*
X2574947Y3131342D01*
X2566053Y3126208D01*
X2558792Y3118947D01*
X2553658Y3110053D01*
X2552304Y3105000D01*
X2580000D01*
Y3132696D01*
D02*
G37*
G36*
X3376320Y3135000D02*
X3345000D01*
Y3103680D01*
X3351404Y3105396D01*
X3361096Y3110992D01*
X3369008Y3118904D01*
X3374604Y3128596D01*
X3376320Y3135000D01*
D02*
G37*
G36*
X3325000D02*
X3293680D01*
X3295396Y3128596D01*
X3300992Y3118904D01*
X3308904Y3110992D01*
X3318596Y3105396D01*
X3325000Y3103680D01*
Y3135000D01*
D02*
G37*
G36*
X2627696Y3085000D02*
X2600000D01*
Y3057304D01*
X2605053Y3058658D01*
X2613947Y3063792D01*
X2621208Y3071053D01*
X2626342Y3079947D01*
X2627696Y3085000D01*
D02*
G37*
G36*
X1327696D02*
X1300000D01*
Y3057304D01*
X1305053Y3058658D01*
X1313947Y3063792D01*
X1321208Y3071053D01*
X1326342Y3079947D01*
X1327696Y3085000D01*
D02*
G37*
G36*
X2580000D02*
X2552304D01*
X2553658Y3079947D01*
X2558792Y3071053D01*
X2566053Y3063792D01*
X2574947Y3058658D01*
X2580000Y3057304D01*
Y3085000D01*
D02*
G37*
G36*
X894546Y3929528D02*
X885454D01*
X876673Y3927175D01*
X868800Y3922629D01*
X862371Y3916200D01*
X857826Y3908327D01*
X855472Y3899546D01*
Y3890454D01*
X857826Y3881673D01*
X859588Y3878620D01*
Y3710325D01*
X858317Y3708124D01*
X856000Y3699476D01*
Y3690524D01*
X858317Y3681876D01*
X862793Y3674124D01*
X869124Y3667793D01*
X876876Y3663317D01*
X885524Y3661000D01*
X894476D01*
X903124Y3663317D01*
X905748Y3664832D01*
X1240804Y3329777D01*
Y2989900D01*
X1241580Y2985999D01*
X1243790Y2982691D01*
X1287334Y2939147D01*
X1285421Y2934528D01*
X1284796D01*
X1274743Y2931834D01*
X1265729Y2926630D01*
X1258370Y2919271D01*
X1253166Y2910257D01*
X1251758Y2905000D01*
X1290000D01*
Y2895000D01*
X1300000D01*
Y2856758D01*
X1305257Y2858166D01*
X1314271Y2863370D01*
X1321630Y2870729D01*
X1324804Y2876227D01*
X1329804Y2874888D01*
Y2860000D01*
X1330580Y2856098D01*
X1332790Y2852790D01*
X1543939Y2641642D01*
X1543000Y2639376D01*
Y2630624D01*
X1546349Y2622538D01*
X1552538Y2616349D01*
X1560624Y2613000D01*
X1569376D01*
X1577462Y2616349D01*
X1583651Y2622538D01*
X1587000Y2630624D01*
Y2639376D01*
X1583651Y2647462D01*
X1577462Y2653651D01*
X1569376Y2657000D01*
X1560624D01*
X1558358Y2656061D01*
X1350196Y2864223D01*
Y2900900D01*
X1349420Y2904802D01*
X1347210Y2908110D01*
X1261196Y2994124D01*
Y3062117D01*
X1265815Y3064030D01*
X1266053Y3063792D01*
X1274947Y3058658D01*
X1280000Y3057304D01*
Y3095000D01*
Y3132696D01*
X1274947Y3131342D01*
X1266053Y3126208D01*
X1265815Y3125970D01*
X1261196Y3127883D01*
Y3334000D01*
X1260420Y3337902D01*
X1258210Y3341210D01*
X920168Y3679252D01*
X921683Y3681876D01*
X924000Y3690524D01*
Y3699476D01*
X921683Y3708124D01*
X920412Y3710325D01*
Y3878620D01*
X922174Y3881673D01*
X924528Y3890454D01*
Y3899546D01*
X922174Y3908327D01*
X917629Y3916200D01*
X911200Y3922629D01*
X903327Y3927175D01*
X894546Y3929528D01*
D02*
G37*
G36*
X2600000Y2933242D02*
Y2905000D01*
X2628242D01*
X2626834Y2910257D01*
X2621630Y2919271D01*
X2614271Y2926630D01*
X2605257Y2931834D01*
X2600000Y2933242D01*
D02*
G37*
G36*
X2580000D02*
X2574743Y2931834D01*
X2565729Y2926630D01*
X2558370Y2919271D01*
X2553166Y2910257D01*
X2551758Y2905000D01*
X2580000D01*
Y2933242D01*
D02*
G37*
G36*
X85000Y2906320D02*
Y2875000D01*
X116320D01*
X114604Y2881404D01*
X109008Y2891096D01*
X101096Y2899008D01*
X91404Y2904604D01*
X85000Y2906320D01*
D02*
G37*
G36*
X65000D02*
X58596Y2904604D01*
X48904Y2899008D01*
X40992Y2891096D01*
X35396Y2881404D01*
X33680Y2875000D01*
X65000D01*
Y2906320D01*
D02*
G37*
G36*
X2694476Y3129000D02*
X2685524D01*
X2676876Y3126683D01*
X2669124Y3122207D01*
X2662793Y3115876D01*
X2661747Y3114065D01*
X2661173Y3113827D01*
X2660064Y3111150D01*
X2658317Y3108124D01*
X2656000Y3099476D01*
Y3090524D01*
X2658317Y3081876D01*
X2659588Y3079675D01*
Y2929528D01*
X2655472D01*
Y2860472D01*
X2724528D01*
Y2929528D01*
X2720412D01*
Y3079675D01*
X2721683Y3081876D01*
X2724000Y3090524D01*
Y3099476D01*
X2721683Y3108124D01*
X2719936Y3111150D01*
X2718827Y3113827D01*
X2718253Y3114065D01*
X2717207Y3115876D01*
X2710876Y3122207D01*
X2703124Y3126683D01*
X2694476Y3129000D01*
D02*
G37*
G36*
X2494476D02*
X2485524D01*
X2476876Y3126683D01*
X2469124Y3122207D01*
X2462793Y3115876D01*
X2458317Y3108124D01*
X2456000Y3099476D01*
Y3090524D01*
X2458317Y3081876D01*
X2459588Y3079675D01*
Y2911380D01*
X2457825Y2908327D01*
X2455472Y2899546D01*
Y2890454D01*
X2457825Y2881673D01*
X2462371Y2873800D01*
X2468800Y2867371D01*
X2476673Y2862825D01*
X2485454Y2860472D01*
X2494546D01*
X2503327Y2862825D01*
X2511200Y2867371D01*
X2517629Y2873800D01*
X2522175Y2881673D01*
X2524528Y2890454D01*
Y2899546D01*
X2522175Y2908327D01*
X2520412Y2911380D01*
Y3079675D01*
X2521683Y3081876D01*
X2524000Y3090524D01*
Y3099476D01*
X2521683Y3108124D01*
X2517207Y3115876D01*
X2510876Y3122207D01*
X2503124Y3126683D01*
X2494476Y3129000D01*
D02*
G37*
G36*
X2394476D02*
X2385524D01*
X2376876Y3126683D01*
X2369124Y3122207D01*
X2362793Y3115876D01*
X2358317Y3108124D01*
X2356000Y3099476D01*
Y3090524D01*
X2358317Y3081876D01*
X2359588Y3079675D01*
Y2911380D01*
X2357825Y2908327D01*
X2355472Y2899546D01*
Y2890454D01*
X2357825Y2881673D01*
X2362371Y2873800D01*
X2368800Y2867371D01*
X2376673Y2862825D01*
X2385454Y2860472D01*
X2394546D01*
X2403327Y2862825D01*
X2411200Y2867371D01*
X2417629Y2873800D01*
X2422175Y2881673D01*
X2424528Y2890454D01*
Y2899546D01*
X2422175Y2908327D01*
X2420412Y2911380D01*
Y3079675D01*
X2421683Y3081876D01*
X2424000Y3090524D01*
Y3099476D01*
X2421683Y3108124D01*
X2417207Y3115876D01*
X2410876Y3122207D01*
X2403124Y3126683D01*
X2394476Y3129000D01*
D02*
G37*
G36*
X2294476D02*
X2285524D01*
X2276876Y3126683D01*
X2269124Y3122207D01*
X2262793Y3115876D01*
X2258317Y3108124D01*
X2256000Y3099476D01*
Y3090524D01*
X2258317Y3081876D01*
X2259588Y3079675D01*
Y2911380D01*
X2257825Y2908327D01*
X2255472Y2899546D01*
Y2890454D01*
X2257825Y2881673D01*
X2262371Y2873800D01*
X2268800Y2867371D01*
X2276673Y2862825D01*
X2285454Y2860472D01*
X2294546D01*
X2303327Y2862825D01*
X2311200Y2867371D01*
X2317629Y2873800D01*
X2322175Y2881673D01*
X2324528Y2890454D01*
Y2899546D01*
X2322175Y2908327D01*
X2320412Y2911380D01*
Y3079675D01*
X2321683Y3081876D01*
X2324000Y3090524D01*
Y3099476D01*
X2321683Y3108124D01*
X2317207Y3115876D01*
X2310876Y3122207D01*
X2303124Y3126683D01*
X2294476Y3129000D01*
D02*
G37*
G36*
X2194476D02*
X2185524D01*
X2176876Y3126683D01*
X2169124Y3122207D01*
X2162793Y3115876D01*
X2158317Y3108124D01*
X2156000Y3099476D01*
Y3090524D01*
X2158317Y3081876D01*
X2159588Y3079675D01*
Y2911380D01*
X2157825Y2908327D01*
X2155472Y2899546D01*
Y2890454D01*
X2157825Y2881673D01*
X2162371Y2873800D01*
X2168800Y2867371D01*
X2176673Y2862825D01*
X2185454Y2860472D01*
X2194546D01*
X2203327Y2862825D01*
X2211200Y2867371D01*
X2217629Y2873800D01*
X2222175Y2881673D01*
X2224528Y2890454D01*
Y2899546D01*
X2222175Y2908327D01*
X2220412Y2911380D01*
Y3079675D01*
X2221683Y3081876D01*
X2224000Y3090524D01*
Y3099476D01*
X2221683Y3108124D01*
X2217207Y3115876D01*
X2210876Y3122207D01*
X2203124Y3126683D01*
X2194476Y3129000D01*
D02*
G37*
G36*
X2094476D02*
X2085524D01*
X2076876Y3126683D01*
X2069124Y3122207D01*
X2062793Y3115876D01*
X2058317Y3108124D01*
X2056000Y3099476D01*
Y3090524D01*
X2058317Y3081876D01*
X2059588Y3079675D01*
Y2911380D01*
X2057825Y2908327D01*
X2055472Y2899546D01*
Y2890454D01*
X2057825Y2881673D01*
X2062371Y2873800D01*
X2068800Y2867371D01*
X2076673Y2862825D01*
X2085454Y2860472D01*
X2094546D01*
X2103327Y2862825D01*
X2111200Y2867371D01*
X2117629Y2873800D01*
X2122175Y2881673D01*
X2124528Y2890454D01*
Y2899546D01*
X2122175Y2908327D01*
X2120412Y2911380D01*
Y3079675D01*
X2121683Y3081876D01*
X2124000Y3090524D01*
Y3099476D01*
X2121683Y3108124D01*
X2117207Y3115876D01*
X2110876Y3122207D01*
X2103124Y3126683D01*
X2094476Y3129000D01*
D02*
G37*
G36*
X1094476D02*
X1085524D01*
X1076877Y3126683D01*
X1069123Y3122207D01*
X1062793Y3115876D01*
X1058317Y3108124D01*
X1056000Y3099476D01*
Y3090524D01*
X1058317Y3081876D01*
X1059588Y3079675D01*
Y2911380D01*
X1057825Y2908327D01*
X1055473Y2899546D01*
Y2890454D01*
X1057825Y2881673D01*
X1062371Y2873800D01*
X1068800Y2867371D01*
X1076673Y2862825D01*
X1085454Y2860472D01*
X1094546D01*
X1103327Y2862825D01*
X1111200Y2867371D01*
X1117629Y2873800D01*
X1122175Y2881673D01*
X1124527Y2890454D01*
Y2899546D01*
X1122175Y2908327D01*
X1120412Y2911380D01*
Y3079675D01*
X1121683Y3081876D01*
X1124000Y3090524D01*
Y3099476D01*
X1121683Y3108124D01*
X1117207Y3115876D01*
X1110877Y3122207D01*
X1103123Y3126683D01*
X1094476Y3129000D01*
D02*
G37*
G36*
X994476D02*
X985524D01*
X976876Y3126683D01*
X969124Y3122207D01*
X962793Y3115876D01*
X958317Y3108124D01*
X956000Y3099476D01*
Y3090524D01*
X958317Y3081876D01*
X959588Y3079675D01*
Y2911380D01*
X957826Y2908327D01*
X955472Y2899546D01*
Y2890454D01*
X957826Y2881673D01*
X962371Y2873800D01*
X968800Y2867371D01*
X976673Y2862825D01*
X985454Y2860472D01*
X994546D01*
X1003327Y2862825D01*
X1011200Y2867371D01*
X1017629Y2873800D01*
X1022174Y2881673D01*
X1024527Y2890454D01*
Y2899546D01*
X1022174Y2908327D01*
X1020412Y2911380D01*
Y3079675D01*
X1021683Y3081876D01*
X1024000Y3090524D01*
Y3099476D01*
X1021683Y3108124D01*
X1017207Y3115876D01*
X1010876Y3122207D01*
X1003124Y3126683D01*
X994476Y3129000D01*
D02*
G37*
G36*
X694476D02*
X685524D01*
X676876Y3126683D01*
X669124Y3122207D01*
X662793Y3115876D01*
X658317Y3108124D01*
X656000Y3099476D01*
Y3090524D01*
X658317Y3081876D01*
X659588Y3079675D01*
Y2911380D01*
X657826Y2908327D01*
X655472Y2899546D01*
Y2890454D01*
X657826Y2881673D01*
X662371Y2873800D01*
X668800Y2867371D01*
X676673Y2862825D01*
X685454Y2860472D01*
X694546D01*
X703327Y2862825D01*
X711200Y2867371D01*
X717629Y2873800D01*
X722174Y2881673D01*
X724528Y2890454D01*
Y2899546D01*
X722174Y2908327D01*
X720412Y2911380D01*
Y3079675D01*
X721683Y3081876D01*
X724000Y3090524D01*
Y3099476D01*
X721683Y3108124D01*
X717207Y3115876D01*
X710876Y3122207D01*
X703124Y3126683D01*
X694476Y3129000D01*
D02*
G37*
G36*
X594476D02*
X585524D01*
X576876Y3126683D01*
X569124Y3122207D01*
X562793Y3115876D01*
X558317Y3108124D01*
X556000Y3099476D01*
Y3090524D01*
X558317Y3081876D01*
X559588Y3079675D01*
Y2911380D01*
X557826Y2908327D01*
X555472Y2899546D01*
Y2890454D01*
X557826Y2881673D01*
X562371Y2873800D01*
X568800Y2867371D01*
X576673Y2862825D01*
X585454Y2860472D01*
X594546D01*
X603327Y2862825D01*
X611200Y2867371D01*
X617629Y2873800D01*
X622174Y2881673D01*
X624528Y2890454D01*
Y2899546D01*
X622174Y2908327D01*
X620412Y2911380D01*
Y3079675D01*
X621683Y3081876D01*
X624000Y3090524D01*
Y3099476D01*
X621683Y3108124D01*
X617207Y3115876D01*
X610876Y3122207D01*
X603124Y3126683D01*
X594476Y3129000D01*
D02*
G37*
G36*
X494476D02*
X485524D01*
X476877Y3126683D01*
X469123Y3122207D01*
X462793Y3115876D01*
X458317Y3108124D01*
X456000Y3099476D01*
Y3090524D01*
X458317Y3081876D01*
X459588Y3079675D01*
Y2911380D01*
X457825Y2908327D01*
X455473Y2899546D01*
Y2890454D01*
X457825Y2881673D01*
X462371Y2873800D01*
X468800Y2867371D01*
X476673Y2862825D01*
X485454Y2860472D01*
X494546D01*
X503327Y2862825D01*
X511200Y2867371D01*
X517629Y2873800D01*
X522174Y2881673D01*
X524528Y2890454D01*
Y2899546D01*
X522174Y2908327D01*
X520412Y2911380D01*
Y3079675D01*
X521683Y3081876D01*
X524000Y3090524D01*
Y3099476D01*
X521683Y3108124D01*
X517207Y3115876D01*
X510877Y3122207D01*
X503123Y3126683D01*
X494476Y3129000D01*
D02*
G37*
G36*
X394476D02*
X385524D01*
X376877Y3126683D01*
X369123Y3122207D01*
X362793Y3115876D01*
X358317Y3108124D01*
X356000Y3099476D01*
Y3090524D01*
X358317Y3081876D01*
X359588Y3079675D01*
Y2911380D01*
X357825Y2908327D01*
X355473Y2899546D01*
Y2890454D01*
X357825Y2881673D01*
X362371Y2873800D01*
X368800Y2867371D01*
X376673Y2862825D01*
X385454Y2860472D01*
X394546D01*
X403327Y2862825D01*
X411200Y2867371D01*
X417629Y2873800D01*
X422175Y2881673D01*
X424527Y2890454D01*
Y2899546D01*
X422175Y2908327D01*
X420412Y2911380D01*
Y3079675D01*
X421683Y3081876D01*
X424000Y3090524D01*
Y3099476D01*
X421683Y3108124D01*
X417207Y3115876D01*
X410877Y3122207D01*
X403123Y3126683D01*
X394476Y3129000D01*
D02*
G37*
G36*
X2628242Y2885000D02*
X2600000D01*
Y2856758D01*
X2605257Y2858166D01*
X2614271Y2863370D01*
X2621630Y2870729D01*
X2626834Y2879743D01*
X2628242Y2885000D01*
D02*
G37*
G36*
X2580000D02*
X2551758D01*
X2553166Y2879743D01*
X2558370Y2870729D01*
X2565729Y2863370D01*
X2574743Y2858166D01*
X2580000Y2856758D01*
Y2885000D01*
D02*
G37*
G36*
X1280000D02*
X1251758D01*
X1253166Y2879743D01*
X1258370Y2870729D01*
X1265729Y2863370D01*
X1274743Y2858166D01*
X1280000Y2856758D01*
Y2885000D01*
D02*
G37*
G36*
X3345000Y2886320D02*
Y2855000D01*
X3376320D01*
X3374604Y2861404D01*
X3369008Y2871096D01*
X3361096Y2879008D01*
X3351404Y2884604D01*
X3345000Y2886320D01*
D02*
G37*
G36*
X3325000D02*
X3318596Y2884604D01*
X3308904Y2879008D01*
X3300992Y2871096D01*
X3295396Y2861404D01*
X3293680Y2855000D01*
X3325000D01*
Y2886320D01*
D02*
G37*
G36*
X116320Y2855000D02*
X85000D01*
Y2823680D01*
X91404Y2825396D01*
X101096Y2830992D01*
X109008Y2838904D01*
X114604Y2848596D01*
X116320Y2855000D01*
D02*
G37*
G36*
X65000D02*
X33680D01*
X35396Y2848596D01*
X40992Y2838904D01*
X48904Y2830992D01*
X58596Y2825396D01*
X65000Y2823680D01*
Y2855000D01*
D02*
G37*
G36*
X3376320Y2835000D02*
X3345000D01*
Y2803680D01*
X3351404Y2805396D01*
X3361096Y2810992D01*
X3369008Y2818904D01*
X3374604Y2828596D01*
X3376320Y2835000D01*
D02*
G37*
G36*
X3325000D02*
X3293680D01*
X3295396Y2828596D01*
X3300992Y2818904D01*
X3308904Y2810992D01*
X3318596Y2805396D01*
X3325000Y2803680D01*
Y2835000D01*
D02*
G37*
G36*
X1394476Y3129000D02*
X1385524D01*
X1376877Y3126683D01*
X1369123Y3122207D01*
X1362793Y3115876D01*
X1358317Y3108124D01*
X1356000Y3099476D01*
Y3090524D01*
X1358317Y3081876D01*
X1359588Y3079675D01*
Y2911380D01*
X1357825Y2908327D01*
X1355473Y2899546D01*
Y2890454D01*
X1357825Y2881673D01*
X1362371Y2873800D01*
X1368800Y2867371D01*
X1376673Y2862825D01*
X1385454Y2860472D01*
X1394546D01*
X1395492Y2860726D01*
X1396776Y2858805D01*
X1553000Y2702581D01*
Y2700624D01*
X1556349Y2692538D01*
X1562538Y2686349D01*
X1570624Y2683000D01*
X1579376D01*
X1587462Y2686349D01*
X1593651Y2692538D01*
X1597000Y2700624D01*
Y2709376D01*
X1593651Y2717462D01*
X1587462Y2723651D01*
X1579376Y2727000D01*
X1570624D01*
X1562538Y2723651D01*
X1561653Y2722766D01*
X1414124Y2870295D01*
X1417629Y2873800D01*
X1422175Y2881673D01*
X1424527Y2890454D01*
Y2899546D01*
X1422175Y2908327D01*
X1420412Y2911380D01*
Y3079675D01*
X1421683Y3081876D01*
X1424000Y3090524D01*
Y3099476D01*
X1421683Y3108124D01*
X1417207Y3115876D01*
X1410877Y3122207D01*
X1403123Y3126683D01*
X1394476Y3129000D01*
D02*
G37*
G36*
X1494476D02*
X1485524D01*
X1476877Y3126683D01*
X1469123Y3122207D01*
X1462793Y3115876D01*
X1458317Y3108124D01*
X1456000Y3099476D01*
Y3090524D01*
X1458317Y3081876D01*
X1459588Y3079675D01*
Y2911380D01*
X1457825Y2908327D01*
X1455473Y2899546D01*
Y2890454D01*
X1457825Y2881673D01*
X1462371Y2873800D01*
X1468800Y2867371D01*
X1476673Y2862825D01*
X1485454Y2860472D01*
X1494546D01*
X1501133Y2862238D01*
X1609706Y2753665D01*
Y2583864D01*
X1604706Y2581793D01*
X1602848Y2583651D01*
X1594762Y2587000D01*
X1586010D01*
X1577924Y2583651D01*
X1572018Y2577745D01*
X1525279D01*
X1221873Y2881151D01*
X1222175Y2881673D01*
X1224527Y2890454D01*
Y2899546D01*
X1222175Y2908327D01*
X1220412Y2911380D01*
Y3079675D01*
X1221683Y3081876D01*
X1224000Y3090524D01*
Y3099476D01*
X1221683Y3108124D01*
X1217207Y3115876D01*
X1210877Y3122207D01*
X1203123Y3126683D01*
X1194476Y3129000D01*
X1185524D01*
X1176877Y3126683D01*
X1169123Y3122207D01*
X1162793Y3115876D01*
X1158317Y3108124D01*
X1156000Y3099476D01*
Y3090524D01*
X1158317Y3081876D01*
X1159588Y3079675D01*
Y2911380D01*
X1157825Y2908327D01*
X1155473Y2899546D01*
Y2890454D01*
X1157825Y2881673D01*
X1162371Y2873800D01*
X1168800Y2867371D01*
X1176673Y2862825D01*
X1185454Y2860472D01*
X1194546D01*
X1203327Y2862825D01*
X1203849Y2863127D01*
X1510988Y2555988D01*
X1515123Y2553225D01*
X1520000Y2552255D01*
X1572018D01*
X1577924Y2546349D01*
X1586010Y2543000D01*
X1594762D01*
X1602848Y2546349D01*
X1604706Y2548207D01*
X1609706Y2546136D01*
Y2369860D01*
X1562591Y2322745D01*
X1525141D01*
X1520264Y2321775D01*
X1518219Y2320408D01*
X1514376Y2322000D01*
X1505624D01*
X1497538Y2318651D01*
X1491349Y2312462D01*
X1488000Y2304376D01*
Y2295624D01*
X1491349Y2287538D01*
X1497538Y2281349D01*
X1505624Y2278000D01*
X1514376D01*
X1522462Y2281349D01*
X1528651Y2287538D01*
X1532000Y2295624D01*
Y2297255D01*
X1542000D01*
X1544071Y2292255D01*
X1543395Y2291578D01*
X1539840Y2285422D01*
X1539727Y2285000D01*
X1590273D01*
X1590160Y2285422D01*
X1586605Y2291578D01*
X1585929Y2292255D01*
X1588000Y2297255D01*
X1796434D01*
X1798000Y2295689D01*
Y2290624D01*
X1801349Y2282538D01*
X1807538Y2276349D01*
X1815624Y2273000D01*
X1824376D01*
X1832462Y2276349D01*
X1838651Y2282538D01*
X1842000Y2290624D01*
Y2299376D01*
X1838651Y2307462D01*
X1832462Y2313651D01*
X1824376Y2317000D01*
X1815624D01*
X1813583Y2316155D01*
X1810725Y2319012D01*
X1806591Y2321775D01*
X1801713Y2322745D01*
X1689909D01*
X1640294Y2372360D01*
Y2554091D01*
X1645294Y2555086D01*
X1646349Y2552538D01*
X1652538Y2546349D01*
X1660624Y2543000D01*
X1669376D01*
X1677462Y2546349D01*
X1683368Y2552255D01*
X1869721D01*
X1888000Y2533976D01*
Y2525624D01*
X1891349Y2517538D01*
X1897538Y2511349D01*
X1905624Y2508000D01*
X1914376D01*
X1922462Y2511349D01*
X1928651Y2517538D01*
X1932000Y2525624D01*
Y2534376D01*
X1928651Y2542462D01*
X1922462Y2548651D01*
X1914376Y2552000D01*
X1906024D01*
X1884012Y2574012D01*
X1879877Y2576775D01*
X1875000Y2577745D01*
X1683368D01*
X1677462Y2583651D01*
X1669376Y2587000D01*
X1660624D01*
X1652538Y2583651D01*
X1646349Y2577462D01*
X1645294Y2574914D01*
X1640294Y2575909D01*
Y2760000D01*
X1639130Y2765853D01*
X1635814Y2770814D01*
X1522762Y2883867D01*
X1524527Y2890454D01*
Y2899546D01*
X1522175Y2908327D01*
X1520412Y2911380D01*
Y3079675D01*
X1521683Y3081876D01*
X1524000Y3090524D01*
Y3099476D01*
X1521683Y3108124D01*
X1517207Y3115876D01*
X1510877Y3122207D01*
X1503123Y3126683D01*
X1494476Y3129000D01*
D02*
G37*
G36*
X2909528Y2649528D02*
X2840472D01*
Y2580472D01*
X2909528D01*
Y2649528D01*
D02*
G37*
G36*
X2779546D02*
X2770454D01*
X2761673Y2647175D01*
X2753800Y2642629D01*
X2747371Y2636200D01*
X2742825Y2628327D01*
X2740472Y2619546D01*
Y2610454D01*
X2742825Y2601673D01*
X2743127Y2601151D01*
X2450988Y2309012D01*
X2448225Y2304877D01*
X2447255Y2300000D01*
Y1335279D01*
X2334721Y1222745D01*
X2093368D01*
X2087462Y1228651D01*
X2085151Y1229608D01*
X2086145Y1234608D01*
X2256741D01*
X2260624Y1233000D01*
X2269376D01*
X2277462Y1236349D01*
X2283651Y1242538D01*
X2287000Y1250624D01*
Y1259376D01*
X2283651Y1267462D01*
X2277462Y1273651D01*
X2269376Y1277000D01*
X2260624D01*
X2256741Y1275392D01*
X1793259D01*
X1789376Y1277000D01*
X1780624D01*
X1772538Y1273651D01*
X1766349Y1267462D01*
X1763000Y1259376D01*
Y1250624D01*
X1766349Y1242538D01*
X1772538Y1236349D01*
X1780624Y1233000D01*
X1789376D01*
X1793259Y1234608D01*
X2063855D01*
X2064849Y1229608D01*
X2062538Y1228651D01*
X2056349Y1222462D01*
X2053000Y1214376D01*
Y1205624D01*
X2056349Y1197538D01*
X2062538Y1191349D01*
X2070624Y1188000D01*
X2079376D01*
X2087462Y1191349D01*
X2093368Y1197255D01*
X2330982D01*
X2332896Y1192636D01*
X2288005Y1147745D01*
X1888368D01*
X1882462Y1153651D01*
X1874376Y1157000D01*
X1865624D01*
X1857538Y1153651D01*
X1851349Y1147462D01*
X1848000Y1139376D01*
Y1130624D01*
X1851349Y1122538D01*
X1857538Y1116349D01*
X1865624Y1113000D01*
X1874376D01*
X1882462Y1116349D01*
X1888368Y1122255D01*
X2284267D01*
X2286180Y1117636D01*
X2251289Y1082745D01*
X1888368D01*
X1882462Y1088651D01*
X1874376Y1092000D01*
X1865624D01*
X1857538Y1088651D01*
X1851349Y1082462D01*
X1848000Y1074376D01*
Y1065624D01*
X1851349Y1057538D01*
X1857538Y1051349D01*
X1865624Y1048000D01*
X1874376D01*
X1882462Y1051349D01*
X1888368Y1057255D01*
X1998262D01*
X2000176Y1052636D01*
X1945285Y997745D01*
X1893368D01*
X1887462Y1003651D01*
X1879376Y1007000D01*
X1870624D01*
X1862538Y1003651D01*
X1856349Y997462D01*
X1853000Y989376D01*
Y980624D01*
X1856349Y972538D01*
X1862538Y966349D01*
X1870624Y963000D01*
X1879376D01*
X1887462Y966349D01*
X1893368Y972255D01*
X1942207D01*
X1945093Y967255D01*
X1942825Y963327D01*
X1940473Y954546D01*
Y945454D01*
X1942825Y936673D01*
X1947371Y928800D01*
X1953800Y922371D01*
X1961673Y917826D01*
X1970454Y915472D01*
X1979546D01*
X1988327Y917826D01*
X1996200Y922371D01*
X2002629Y928800D01*
X2007175Y936673D01*
X2009527Y945454D01*
Y954546D01*
X2007175Y963327D01*
X2002629Y971200D01*
X1996200Y977629D01*
X1988327Y982174D01*
X1979546Y984528D01*
X1975187D01*
X1973116Y989528D01*
X2020843Y1037255D01*
X2264853D01*
X2269730Y1038225D01*
X2273865Y1040988D01*
X2529012Y1296135D01*
X2531775Y1300270D01*
X2532745Y1305147D01*
Y1754721D01*
X2761151Y1983127D01*
X2761673Y1982825D01*
X2770454Y1980473D01*
X2779546D01*
X2788327Y1982825D01*
X2796200Y1987371D01*
X2799136Y1990307D01*
X2804136Y1988236D01*
Y1912285D01*
X2799136Y1911291D01*
X2798651Y1912462D01*
X2792462Y1918651D01*
X2784376Y1922000D01*
X2775624D01*
X2767538Y1918651D01*
X2761349Y1912462D01*
X2758000Y1904376D01*
Y1895624D01*
X2759608Y1891741D01*
Y1548404D01*
X2729528Y1518323D01*
X2724528Y1520394D01*
Y1524546D01*
X2722175Y1533327D01*
X2717629Y1541200D01*
X2711200Y1547629D01*
X2705294Y1551039D01*
Y1570543D01*
X2704130Y1576396D01*
X2700814Y1581358D01*
X2602000Y1680172D01*
Y1684919D01*
X2598651Y1693005D01*
X2592462Y1699194D01*
X2584376Y1702543D01*
X2575624D01*
X2567538Y1699194D01*
X2561349Y1693005D01*
X2558000Y1684919D01*
Y1676167D01*
X2561349Y1668081D01*
X2567538Y1661893D01*
X2575624Y1658543D01*
X2580371D01*
X2674706Y1564208D01*
Y1551039D01*
X2668800Y1547629D01*
X2662371Y1541200D01*
X2657825Y1533327D01*
X2655472Y1524546D01*
Y1515454D01*
X2657825Y1506673D01*
X2662371Y1498800D01*
X2668800Y1492371D01*
X2676673Y1487825D01*
X2685454Y1485473D01*
X2689606D01*
X2691677Y1480473D01*
X2684118Y1472914D01*
X2642876D01*
X2635072Y1471362D01*
X2628456Y1466941D01*
X2628456Y1466941D01*
X2595726Y1434211D01*
X2594546Y1434527D01*
X2585454D01*
X2576673Y1432175D01*
X2568800Y1427629D01*
X2562371Y1421200D01*
X2557825Y1413327D01*
X2555472Y1404546D01*
Y1395454D01*
X2557825Y1386673D01*
X2562371Y1378800D01*
X2568800Y1372371D01*
X2576673Y1367825D01*
X2585454Y1365473D01*
X2594546D01*
X2603327Y1367825D01*
X2611200Y1372371D01*
X2617629Y1378800D01*
X2622175Y1386673D01*
X2624528Y1395454D01*
Y1404546D01*
X2624360Y1405169D01*
X2650472Y1431281D01*
X2655472Y1430080D01*
Y1365473D01*
X2724528D01*
Y1434527D01*
X2710423D01*
X2708409Y1439527D01*
X2794419Y1525538D01*
X2798840Y1532154D01*
X2799136Y1533643D01*
X2804136Y1533150D01*
Y1239111D01*
X2800000Y1235412D01*
X2690000Y1235412D01*
X2687865Y1234527D01*
X2685454D01*
X2676673Y1232175D01*
X2668800Y1227629D01*
X2662371Y1221200D01*
X2657825Y1213327D01*
X2655472Y1204546D01*
Y1195454D01*
X2657825Y1186673D01*
X2662371Y1178800D01*
X2668800Y1172371D01*
X2676673Y1167825D01*
X2685454Y1165473D01*
X2687865D01*
X2690000Y1164588D01*
X2754588D01*
Y595412D01*
X2690000D01*
X2687865Y594528D01*
X2685454D01*
X2676673Y592174D01*
X2668800Y587629D01*
X2662371Y581200D01*
X2657825Y573327D01*
X2655472Y564546D01*
Y555454D01*
X2655714Y554553D01*
X2629528Y528366D01*
X2624528Y530437D01*
Y594528D01*
X2555472D01*
Y525472D01*
X2619563D01*
X2621634Y520472D01*
X2611553Y510392D01*
X2248259D01*
X2244376Y512000D01*
X2235624D01*
X2227538Y508651D01*
X2221349Y502462D01*
X2218000Y494376D01*
Y485624D01*
X2221349Y477538D01*
X2227538Y471349D01*
X2235624Y468000D01*
X2244376D01*
X2248259Y469608D01*
X2563708D01*
X2565779Y464608D01*
X2562371Y461200D01*
X2561904Y460392D01*
X2193447D01*
X1804419Y849419D01*
X1797804Y853840D01*
X1790000Y855392D01*
X1713259D01*
X1709376Y857000D01*
X1700624D01*
X1692538Y853651D01*
X1686349Y847462D01*
X1686288Y847314D01*
X1679569D01*
X1674692Y846344D01*
X1670557Y843581D01*
X1656619Y829643D01*
X1656417Y829686D01*
X1652000Y832095D01*
Y839376D01*
X1648651Y847462D01*
X1642462Y853651D01*
X1634376Y857000D01*
X1626024D01*
X1482338Y1000686D01*
X1480870Y1001667D01*
X1478341Y1007772D01*
X1472152Y1013960D01*
X1464066Y1017310D01*
X1455314D01*
X1447228Y1013960D01*
X1441040Y1007772D01*
X1437690Y999686D01*
Y990933D01*
X1441040Y982848D01*
X1447228Y976659D01*
X1455314Y973310D01*
X1464066D01*
X1470855Y976121D01*
X1588232Y858744D01*
X1585400Y854505D01*
X1579376Y857000D01*
X1570624D01*
X1562538Y853651D01*
X1556632Y847745D01*
X1490279D01*
X1464620Y873404D01*
Y881756D01*
X1461270Y889842D01*
X1455082Y896031D01*
X1446996Y899380D01*
X1438244D01*
X1430158Y896031D01*
X1423969Y889842D01*
X1420620Y881756D01*
Y873004D01*
X1423969Y864918D01*
X1430158Y858730D01*
X1438244Y855380D01*
X1446596D01*
X1475988Y825988D01*
X1480123Y823225D01*
X1485000Y822255D01*
X1556632D01*
X1562538Y816349D01*
X1570624Y813000D01*
X1578976D01*
X1595488Y796488D01*
X1599623Y793725D01*
X1604500Y792755D01*
X1650500D01*
X1655377Y793725D01*
X1659512Y796488D01*
X1684848Y821824D01*
X1687063D01*
X1692538Y816349D01*
X1700624Y813000D01*
X1709376D01*
X1713259Y814608D01*
X1781553D01*
X2170581Y425581D01*
X2170581Y425581D01*
X2177196Y421160D01*
X2185000Y419608D01*
X2185001Y419608D01*
X2561904D01*
X2562371Y418800D01*
X2568800Y412371D01*
X2576673Y407825D01*
X2585454Y405473D01*
X2594546D01*
X2603327Y407825D01*
X2611200Y412371D01*
X2617629Y418800D01*
X2622175Y426673D01*
X2624528Y435454D01*
Y444546D01*
X2622175Y453327D01*
X2617629Y461200D01*
X2614221Y464608D01*
X2616292Y469608D01*
X2620000D01*
X2627804Y471160D01*
X2634419Y475581D01*
X2684552Y525714D01*
X2685454Y525472D01*
X2687865D01*
X2690000Y524588D01*
X2754588D01*
Y275412D01*
X2690000D01*
X2687865Y274527D01*
X2685454D01*
X2676673Y272175D01*
X2668800Y267629D01*
X2662371Y261200D01*
X2657825Y253327D01*
X2655472Y244546D01*
Y235454D01*
X2657825Y226673D01*
X2662371Y218800D01*
X2665779Y215392D01*
X2663708Y210392D01*
X2648447D01*
X2624528Y234311D01*
Y274527D01*
X2555472D01*
Y205472D01*
X2595689D01*
X2625581Y175581D01*
X2632196Y171160D01*
X2640000Y169608D01*
X2808284D01*
X2816088Y171160D01*
X2822703Y175581D01*
X2838947Y191824D01*
X2843367Y198440D01*
X2844919Y206243D01*
Y1980473D01*
X2909528D01*
Y2049528D01*
X2844919D01*
Y2100472D01*
X2909528D01*
Y2169528D01*
X2844919D01*
Y2220472D01*
X2909528D01*
Y2289528D01*
X2844919D01*
Y2319130D01*
X2843367Y2326933D01*
X2838947Y2333549D01*
X2807945Y2364550D01*
X2809528Y2370454D01*
Y2379546D01*
X2807175Y2388327D01*
X2802629Y2396200D01*
X2796200Y2402629D01*
X2788327Y2407175D01*
X2779546Y2409528D01*
X2770454D01*
X2761673Y2407175D01*
X2753800Y2402629D01*
X2747371Y2396200D01*
X2742825Y2388327D01*
X2740472Y2379546D01*
Y2370454D01*
X2742825Y2361673D01*
X2747371Y2353800D01*
X2753800Y2347371D01*
X2761673Y2342825D01*
X2770454Y2340472D01*
X2774347D01*
X2804136Y2310683D01*
Y2281765D01*
X2799136Y2279693D01*
X2796200Y2282629D01*
X2788327Y2287175D01*
X2779546Y2289528D01*
X2770454D01*
X2761673Y2287175D01*
X2753800Y2282629D01*
X2747371Y2276200D01*
X2742825Y2268327D01*
X2740472Y2259546D01*
Y2250454D01*
X2742825Y2241673D01*
X2743127Y2241151D01*
X2477364Y1975388D01*
X2472745Y1977302D01*
Y2294721D01*
X2761151Y2583127D01*
X2761673Y2582825D01*
X2770454Y2580472D01*
X2779546D01*
X2788327Y2582825D01*
X2796200Y2587371D01*
X2802629Y2593800D01*
X2807175Y2601673D01*
X2809528Y2610454D01*
Y2619546D01*
X2807175Y2628327D01*
X2802629Y2636200D01*
X2796200Y2642629D01*
X2788327Y2647175D01*
X2779546Y2649528D01*
D02*
G37*
G36*
X85000Y2606320D02*
Y2575000D01*
X116320D01*
X114604Y2581404D01*
X109008Y2591096D01*
X101096Y2599008D01*
X91404Y2604604D01*
X85000Y2606320D01*
D02*
G37*
G36*
X65000D02*
X58596Y2604604D01*
X48904Y2599008D01*
X40992Y2591096D01*
X35396Y2581404D01*
X33680Y2575000D01*
X65000D01*
Y2606320D01*
D02*
G37*
G36*
X2325000Y2605470D02*
Y2565000D01*
X2365470D01*
X2362840Y2574816D01*
X2356081Y2586523D01*
X2346523Y2596081D01*
X2334816Y2602840D01*
X2325000Y2605470D01*
D02*
G37*
G36*
X2305000D02*
X2295184Y2602840D01*
X2283477Y2596081D01*
X2273919Y2586523D01*
X2267160Y2574816D01*
X2264530Y2565000D01*
X2305000D01*
Y2605470D01*
D02*
G37*
G36*
X2125000D02*
Y2565000D01*
X2165470D01*
X2162840Y2574816D01*
X2156081Y2586523D01*
X2146523Y2596081D01*
X2134816Y2602840D01*
X2125000Y2605470D01*
D02*
G37*
G36*
X2105000D02*
X2095184Y2602840D01*
X2083477Y2596081D01*
X2073919Y2586523D01*
X2067160Y2574816D01*
X2064530Y2565000D01*
X2105000D01*
Y2605470D01*
D02*
G37*
G36*
X995000D02*
Y2565000D01*
X1035470D01*
X1032840Y2574816D01*
X1026081Y2586523D01*
X1016523Y2596081D01*
X1004816Y2602840D01*
X995000Y2605470D01*
D02*
G37*
G36*
X975000D02*
X965184Y2602840D01*
X953477Y2596081D01*
X943919Y2586523D01*
X937160Y2574816D01*
X934530Y2565000D01*
X975000D01*
Y2605470D01*
D02*
G37*
G36*
X795000D02*
Y2565000D01*
X835470D01*
X832840Y2574816D01*
X826081Y2586523D01*
X816523Y2596081D01*
X804816Y2602840D01*
X795000Y2605470D01*
D02*
G37*
G36*
X775000D02*
X765184Y2602840D01*
X753477Y2596081D01*
X743919Y2586523D01*
X737160Y2574816D01*
X734530Y2565000D01*
X775000D01*
Y2605470D01*
D02*
G37*
G36*
X3345000Y2586320D02*
Y2555000D01*
X3376320D01*
X3374604Y2561404D01*
X3369008Y2571096D01*
X3361096Y2579008D01*
X3351404Y2584604D01*
X3345000Y2586320D01*
D02*
G37*
G36*
X3325000D02*
X3318596Y2584604D01*
X3308904Y2579008D01*
X3300992Y2571096D01*
X3295396Y2561404D01*
X3293680Y2555000D01*
X3325000D01*
Y2586320D01*
D02*
G37*
G36*
X116320Y2555000D02*
X85000D01*
Y2523680D01*
X91404Y2525396D01*
X101096Y2530992D01*
X109008Y2538904D01*
X114604Y2548596D01*
X116320Y2555000D01*
D02*
G37*
G36*
X65000D02*
X33680D01*
X35396Y2548596D01*
X40992Y2538904D01*
X48904Y2530992D01*
X58596Y2525396D01*
X65000Y2523680D01*
Y2555000D01*
D02*
G37*
G36*
X489527Y2574528D02*
X420473D01*
Y2505472D01*
X489527D01*
Y2574528D01*
D02*
G37*
G36*
X2365470Y2545000D02*
X2325000D01*
Y2504530D01*
X2334816Y2507160D01*
X2346523Y2513919D01*
X2356081Y2523477D01*
X2362840Y2535184D01*
X2365470Y2545000D01*
D02*
G37*
G36*
X2305000D02*
X2264530D01*
X2267160Y2535184D01*
X2273919Y2523477D01*
X2283477Y2513919D01*
X2295184Y2507160D01*
X2305000Y2504530D01*
Y2545000D01*
D02*
G37*
G36*
X2165470D02*
X2125000D01*
Y2504530D01*
X2134816Y2507160D01*
X2146523Y2513919D01*
X2156081Y2523477D01*
X2162840Y2535184D01*
X2165470Y2545000D01*
D02*
G37*
G36*
X2105000D02*
X2064530D01*
X2067160Y2535184D01*
X2073919Y2523477D01*
X2083477Y2513919D01*
X2095184Y2507160D01*
X2105000Y2504530D01*
Y2545000D01*
D02*
G37*
G36*
X1035470D02*
X995000D01*
Y2504530D01*
X1004816Y2507160D01*
X1016523Y2513919D01*
X1026081Y2523477D01*
X1032840Y2535184D01*
X1035470Y2545000D01*
D02*
G37*
G36*
X975000D02*
X934530D01*
X937160Y2535184D01*
X943919Y2523477D01*
X953477Y2513919D01*
X965184Y2507160D01*
X975000Y2504530D01*
Y2545000D01*
D02*
G37*
G36*
X835470D02*
X795000D01*
Y2504530D01*
X804816Y2507160D01*
X816523Y2513919D01*
X826081Y2523477D01*
X832840Y2535184D01*
X835470Y2545000D01*
D02*
G37*
G36*
X775000D02*
X734530D01*
X737160Y2535184D01*
X743919Y2523477D01*
X753477Y2513919D01*
X765184Y2507160D01*
X775000Y2504530D01*
Y2545000D01*
D02*
G37*
G36*
X3376320Y2535000D02*
X3345000D01*
Y2503680D01*
X3351404Y2505396D01*
X3361096Y2510992D01*
X3369008Y2518904D01*
X3374604Y2528596D01*
X3376320Y2535000D01*
D02*
G37*
G36*
X3325000D02*
X3293680D01*
X3295396Y2528596D01*
X3300992Y2518904D01*
X3308904Y2510992D01*
X3318596Y2505396D01*
X3325000Y2503680D01*
Y2535000D01*
D02*
G37*
G36*
X2909528Y2529528D02*
X2840472D01*
Y2460472D01*
X2909528D01*
Y2529528D01*
D02*
G37*
G36*
X2779546D02*
X2770454D01*
X2761673Y2527175D01*
X2753800Y2522629D01*
X2747371Y2516200D01*
X2742825Y2508327D01*
X2740472Y2499546D01*
Y2490454D01*
X2742825Y2481673D01*
X2747371Y2473800D01*
X2753800Y2467371D01*
X2761673Y2462825D01*
X2770454Y2460472D01*
X2779546D01*
X2788327Y2462825D01*
X2796200Y2467371D01*
X2802629Y2473800D01*
X2807175Y2481673D01*
X2809528Y2490454D01*
Y2499546D01*
X2807175Y2508327D01*
X2802629Y2516200D01*
X2796200Y2522629D01*
X2788327Y2527175D01*
X2779546Y2529528D01*
D02*
G37*
G36*
X2220841Y2499370D02*
X2209159D01*
X2197874Y2496346D01*
X2187756Y2490505D01*
X2179495Y2482244D01*
X2173654Y2472126D01*
X2170630Y2460841D01*
Y2449159D01*
X2173654Y2437874D01*
X2179495Y2427756D01*
X2187756Y2419495D01*
X2197874Y2413654D01*
X2209159Y2410630D01*
X2220841D01*
X2232126Y2413654D01*
X2242244Y2419495D01*
X2250505Y2427756D01*
X2256346Y2437874D01*
X2259370Y2449159D01*
Y2460841D01*
X2256346Y2472126D01*
X2250505Y2482244D01*
X2242244Y2490505D01*
X2232126Y2496346D01*
X2220841Y2499370D01*
D02*
G37*
G36*
X890841D02*
X879159D01*
X867874Y2496346D01*
X857756Y2490505D01*
X849495Y2482244D01*
X843654Y2472126D01*
X840630Y2460841D01*
Y2449159D01*
X843654Y2437874D01*
X849495Y2427756D01*
X857756Y2419495D01*
X867874Y2413654D01*
X879159Y2410630D01*
X890841D01*
X902126Y2413654D01*
X912244Y2419495D01*
X920505Y2427756D01*
X926346Y2437874D01*
X929370Y2449159D01*
Y2460841D01*
X926346Y2472126D01*
X920505Y2482244D01*
X912244Y2490505D01*
X902126Y2496346D01*
X890841Y2499370D01*
D02*
G37*
G36*
X559546Y2574528D02*
X550454D01*
X541673Y2572175D01*
X533800Y2567629D01*
X527371Y2561200D01*
X522826Y2553327D01*
X520472Y2544546D01*
Y2535454D01*
X522826Y2526673D01*
X527371Y2518800D01*
X533800Y2512371D01*
X541673Y2507825D01*
X550454Y2505472D01*
X559546D01*
X568327Y2507825D01*
X576200Y2512371D01*
X579705Y2515876D01*
X599332Y2496249D01*
Y2396620D01*
X594712Y2394707D01*
X585554Y2403865D01*
X587174Y2406673D01*
X589528Y2415454D01*
Y2424546D01*
X587174Y2433327D01*
X582629Y2441200D01*
X576200Y2447629D01*
X568327Y2452175D01*
X559546Y2454528D01*
X550454D01*
X541673Y2452175D01*
X533800Y2447629D01*
X527371Y2441200D01*
X522826Y2433327D01*
X520472Y2424546D01*
Y2415454D01*
X522826Y2406673D01*
X527371Y2398800D01*
X533800Y2392371D01*
X541673Y2387825D01*
X550454Y2385472D01*
X559546D01*
X568327Y2387825D01*
X571135Y2389446D01*
X584332Y2376249D01*
Y2326569D01*
X579332Y2324497D01*
X576200Y2327629D01*
X568327Y2332175D01*
X559546Y2334528D01*
X550454D01*
X541673Y2332175D01*
X533800Y2327629D01*
X527371Y2321200D01*
X522826Y2313327D01*
X520472Y2304546D01*
Y2295454D01*
X522826Y2286673D01*
X524446Y2283865D01*
X352790Y2112210D01*
X350580Y2108902D01*
X349804Y2105000D01*
Y1292574D01*
X350580Y1288672D01*
X352790Y1285364D01*
X505364Y1132790D01*
X508672Y1130580D01*
X512574Y1129804D01*
X820777D01*
X869446Y1081134D01*
X867826Y1078327D01*
X865472Y1069546D01*
Y1060454D01*
X867826Y1051673D01*
X872371Y1043800D01*
X878800Y1037371D01*
X886673Y1032825D01*
X895454Y1030473D01*
X904546D01*
X905447Y1030714D01*
X982581Y953581D01*
X989196Y949160D01*
X997000Y947608D01*
X1353000D01*
X1360804Y949160D01*
X1367419Y953581D01*
X1458580Y1044741D01*
X1462462Y1046349D01*
X1468651Y1052538D01*
X1472000Y1060624D01*
Y1069376D01*
X1468651Y1077462D01*
X1462462Y1083651D01*
X1454376Y1087000D01*
X1445624D01*
X1437538Y1083651D01*
X1431349Y1077462D01*
X1429741Y1073580D01*
X1344553Y988392D01*
X1036037D01*
X1034004Y993392D01*
X1037000Y1000624D01*
Y1009376D01*
X1033651Y1017462D01*
X1027462Y1023651D01*
X1019376Y1027000D01*
X1010624D01*
X1008995Y1026325D01*
X990135Y1045185D01*
X992048Y1049804D01*
X1055411D01*
X1056349Y1047538D01*
X1062538Y1041349D01*
X1070624Y1038000D01*
X1079376D01*
X1087462Y1041349D01*
X1093651Y1047538D01*
X1097000Y1055624D01*
Y1064376D01*
X1093651Y1072462D01*
X1087462Y1078651D01*
X1079376Y1082000D01*
X1070624D01*
X1062538Y1078651D01*
X1056349Y1072462D01*
X1055411Y1070196D01*
X986337D01*
X879323Y1177210D01*
X876015Y1179420D01*
X872114Y1180196D01*
X529223D01*
X402310Y1307110D01*
Y2055777D01*
X616737Y2270204D01*
X618947Y2273512D01*
X619723Y2277414D01*
Y2500472D01*
X618947Y2504374D01*
X616737Y2507682D01*
X591195Y2533224D01*
X589274Y2534508D01*
X589528Y2535454D01*
Y2544546D01*
X587174Y2553327D01*
X582629Y2561200D01*
X576200Y2567629D01*
X568327Y2572175D01*
X559546Y2574528D01*
D02*
G37*
G36*
X489527Y2454528D02*
X420473D01*
Y2385472D01*
X489527D01*
Y2454528D01*
D02*
G37*
G36*
X2325000Y2405470D02*
Y2365000D01*
X2365470D01*
X2362840Y2374816D01*
X2356081Y2386523D01*
X2346523Y2396081D01*
X2334816Y2402840D01*
X2325000Y2405470D01*
D02*
G37*
G36*
X2305000D02*
X2295184Y2402840D01*
X2283477Y2396081D01*
X2273919Y2386523D01*
X2267160Y2374816D01*
X2264530Y2365000D01*
X2305000D01*
Y2405470D01*
D02*
G37*
G36*
X2125000D02*
Y2365000D01*
X2165470D01*
X2162840Y2374816D01*
X2156081Y2386523D01*
X2146523Y2396081D01*
X2134816Y2402840D01*
X2125000Y2405470D01*
D02*
G37*
G36*
X2105000D02*
X2095184Y2402840D01*
X2083477Y2396081D01*
X2073919Y2386523D01*
X2067160Y2374816D01*
X2064530Y2365000D01*
X2105000D01*
Y2405470D01*
D02*
G37*
G36*
X995000D02*
Y2365000D01*
X1035470D01*
X1032840Y2374816D01*
X1026081Y2386523D01*
X1016523Y2396081D01*
X1004816Y2402840D01*
X995000Y2405470D01*
D02*
G37*
G36*
X975000D02*
X965184Y2402840D01*
X953477Y2396081D01*
X943919Y2386523D01*
X937160Y2374816D01*
X934530Y2365000D01*
X975000D01*
Y2405470D01*
D02*
G37*
G36*
X795000D02*
Y2365000D01*
X835470D01*
X832840Y2374816D01*
X826081Y2386523D01*
X816523Y2396081D01*
X804816Y2402840D01*
X795000Y2405470D01*
D02*
G37*
G36*
X775000D02*
X765184Y2402840D01*
X753477Y2396081D01*
X743919Y2386523D01*
X737160Y2374816D01*
X734530Y2365000D01*
X775000D01*
Y2405470D01*
D02*
G37*
G36*
X2909528Y2409528D02*
X2840472D01*
Y2340472D01*
X2909528D01*
Y2409528D01*
D02*
G37*
G36*
X2365470Y2345000D02*
X2325000D01*
Y2304530D01*
X2334816Y2307160D01*
X2346523Y2313919D01*
X2356081Y2323477D01*
X2362840Y2335184D01*
X2365470Y2345000D01*
D02*
G37*
G36*
X2305000D02*
X2264530D01*
X2267160Y2335184D01*
X2273919Y2323477D01*
X2283477Y2313919D01*
X2295184Y2307160D01*
X2305000Y2304530D01*
Y2345000D01*
D02*
G37*
G36*
X2165470D02*
X2125000D01*
Y2304530D01*
X2134816Y2307160D01*
X2146523Y2313919D01*
X2156081Y2323477D01*
X2162840Y2335184D01*
X2165470Y2345000D01*
D02*
G37*
G36*
X2105000D02*
X2064530D01*
X2067160Y2335184D01*
X2073919Y2323477D01*
X2083477Y2313919D01*
X2095184Y2307160D01*
X2105000Y2304530D01*
Y2345000D01*
D02*
G37*
G36*
X1035470D02*
X995000D01*
Y2304530D01*
X1004816Y2307160D01*
X1016523Y2313919D01*
X1026081Y2323477D01*
X1032840Y2335184D01*
X1035470Y2345000D01*
D02*
G37*
G36*
X975000D02*
X934530D01*
X937160Y2335184D01*
X943919Y2323477D01*
X953477Y2313919D01*
X965184Y2307160D01*
X975000Y2304530D01*
Y2345000D01*
D02*
G37*
G36*
X835470D02*
X795000D01*
Y2304530D01*
X804816Y2307160D01*
X816523Y2313919D01*
X826081Y2323477D01*
X832840Y2335184D01*
X835470Y2345000D01*
D02*
G37*
G36*
X775000D02*
X734530D01*
X737160Y2335184D01*
X743919Y2323477D01*
X753477Y2313919D01*
X765184Y2307160D01*
X775000Y2304530D01*
Y2345000D01*
D02*
G37*
G36*
X85000Y2306320D02*
Y2275000D01*
X116320D01*
X114604Y2281404D01*
X109008Y2291096D01*
X101096Y2299008D01*
X91404Y2304604D01*
X85000Y2306320D01*
D02*
G37*
G36*
X65000D02*
X58596Y2304604D01*
X48904Y2299008D01*
X40992Y2291096D01*
X35396Y2281404D01*
X33680Y2275000D01*
X65000D01*
Y2306320D01*
D02*
G37*
G36*
X489527Y2334528D02*
X420473D01*
Y2265472D01*
X489527D01*
Y2334528D01*
D02*
G37*
G36*
X3345000Y2286320D02*
Y2255000D01*
X3376320D01*
X3374604Y2261404D01*
X3369008Y2271096D01*
X3361096Y2279008D01*
X3351404Y2284604D01*
X3345000Y2286320D01*
D02*
G37*
G36*
X3325000D02*
X3318596Y2284604D01*
X3308904Y2279008D01*
X3300992Y2271096D01*
X3295396Y2261404D01*
X3293680Y2255000D01*
X3325000D01*
Y2286320D01*
D02*
G37*
G36*
X1590273Y2265000D02*
X1575000D01*
Y2249727D01*
X1575422Y2249840D01*
X1581578Y2253395D01*
X1586605Y2258422D01*
X1590160Y2264578D01*
X1590273Y2265000D01*
D02*
G37*
G36*
X1555000D02*
X1539727D01*
X1539840Y2264578D01*
X1543395Y2258422D01*
X1548422Y2253395D01*
X1554578Y2249840D01*
X1555000Y2249727D01*
Y2265000D01*
D02*
G37*
G36*
X116320Y2255000D02*
X85000D01*
Y2223680D01*
X91404Y2225396D01*
X101096Y2230992D01*
X109008Y2238904D01*
X114604Y2248596D01*
X116320Y2255000D01*
D02*
G37*
G36*
X65000D02*
X33680D01*
X35396Y2248596D01*
X40992Y2238904D01*
X48904Y2230992D01*
X58596Y2225396D01*
X65000Y2223680D01*
Y2255000D01*
D02*
G37*
G36*
X3376320Y2235000D02*
X3345000D01*
Y2203680D01*
X3351404Y2205396D01*
X3361096Y2210992D01*
X3369008Y2218904D01*
X3374604Y2228596D01*
X3376320Y2235000D01*
D02*
G37*
G36*
X3325000D02*
X3293680D01*
X3295396Y2228596D01*
X3300992Y2218904D01*
X3308904Y2210992D01*
X3318596Y2205396D01*
X3325000Y2203680D01*
Y2235000D01*
D02*
G37*
G36*
X1711038Y2174225D02*
Y2158952D01*
X1726311D01*
X1726198Y2159373D01*
X1722644Y2165530D01*
X1717617Y2170557D01*
X1711460Y2174112D01*
X1711038Y2174225D01*
D02*
G37*
G36*
X1691038D02*
X1690617Y2174112D01*
X1684460Y2170557D01*
X1679433Y2165530D01*
X1675878Y2159373D01*
X1675765Y2158952D01*
X1691038D01*
Y2174225D01*
D02*
G37*
G36*
X1726311Y2138952D02*
X1711038D01*
Y2123679D01*
X1711460Y2123792D01*
X1717617Y2127346D01*
X1722644Y2132373D01*
X1726198Y2138530D01*
X1726311Y2138952D01*
D02*
G37*
G36*
X1691038D02*
X1675765D01*
X1675878Y2138530D01*
X1679433Y2132373D01*
X1684460Y2127346D01*
X1690617Y2123792D01*
X1691038Y2123679D01*
Y2138952D01*
D02*
G37*
G36*
X2325000Y2105470D02*
Y2065000D01*
X2365470D01*
X2362840Y2074816D01*
X2356081Y2086523D01*
X2346523Y2096081D01*
X2334816Y2102840D01*
X2325000Y2105470D01*
D02*
G37*
G36*
X2305000D02*
X2295184Y2102840D01*
X2283477Y2096081D01*
X2273919Y2086523D01*
X2267160Y2074816D01*
X2264530Y2065000D01*
X2305000D01*
Y2105470D01*
D02*
G37*
G36*
X2125000D02*
Y2065000D01*
X2165470D01*
X2162840Y2074816D01*
X2156081Y2086523D01*
X2146523Y2096081D01*
X2134816Y2102840D01*
X2125000Y2105470D01*
D02*
G37*
G36*
X2105000D02*
X2095184Y2102840D01*
X2083477Y2096081D01*
X2073919Y2086523D01*
X2067160Y2074816D01*
X2064530Y2065000D01*
X2105000D01*
Y2105470D01*
D02*
G37*
G36*
X1245000D02*
Y2065000D01*
X1285470D01*
X1282840Y2074816D01*
X1276081Y2086523D01*
X1266523Y2096081D01*
X1254816Y2102840D01*
X1245000Y2105470D01*
D02*
G37*
G36*
X1225000D02*
X1215184Y2102840D01*
X1203477Y2096081D01*
X1193919Y2086523D01*
X1187160Y2074816D01*
X1184530Y2065000D01*
X1225000D01*
Y2105470D01*
D02*
G37*
G36*
X1045000D02*
Y2065000D01*
X1085470D01*
X1082840Y2074816D01*
X1076081Y2086523D01*
X1066523Y2096081D01*
X1054816Y2102840D01*
X1045000Y2105470D01*
D02*
G37*
G36*
X1025000D02*
X1015184Y2102840D01*
X1003477Y2096081D01*
X993919Y2086523D01*
X987160Y2074816D01*
X984530Y2065000D01*
X1025000D01*
Y2105470D01*
D02*
G37*
G36*
X745000D02*
Y2065000D01*
X785470D01*
X782840Y2074816D01*
X776081Y2086523D01*
X766523Y2096081D01*
X754816Y2102840D01*
X745000Y2105470D01*
D02*
G37*
G36*
X725000D02*
X715184Y2102840D01*
X703477Y2096081D01*
X693919Y2086523D01*
X687160Y2074816D01*
X684530Y2065000D01*
X725000D01*
Y2105470D01*
D02*
G37*
G36*
X545000D02*
Y2065000D01*
X585470D01*
X582840Y2074816D01*
X576081Y2086523D01*
X566523Y2096081D01*
X554816Y2102840D01*
X545000Y2105470D01*
D02*
G37*
G36*
X525000D02*
X515184Y2102840D01*
X503477Y2096081D01*
X493919Y2086523D01*
X487160Y2074816D01*
X484530Y2065000D01*
X525000D01*
Y2105470D01*
D02*
G37*
G36*
X1814527Y2129528D02*
X1745473D01*
Y2060472D01*
X1814527D01*
Y2129528D01*
D02*
G37*
G36*
X1574546D02*
X1565454D01*
X1556673Y2127175D01*
X1548800Y2122629D01*
X1542371Y2116200D01*
X1537825Y2108327D01*
X1535473Y2099546D01*
Y2090454D01*
X1537825Y2081673D01*
X1542371Y2073800D01*
X1548800Y2067371D01*
X1556673Y2062825D01*
X1565454Y2060472D01*
X1574546D01*
X1583327Y2062825D01*
X1591200Y2067371D01*
X1597629Y2073800D01*
X1602175Y2081673D01*
X1604527Y2090454D01*
Y2099546D01*
X1602175Y2108327D01*
X1597629Y2116200D01*
X1591200Y2122629D01*
X1583327Y2127175D01*
X1574546Y2129528D01*
D02*
G37*
G36*
X1504527D02*
X1435473D01*
Y2060472D01*
X1504527D01*
Y2129528D01*
D02*
G37*
G36*
X2365470Y2045000D02*
X2325000D01*
Y2004530D01*
X2334816Y2007160D01*
X2346523Y2013919D01*
X2356081Y2023477D01*
X2362840Y2035184D01*
X2365470Y2045000D01*
D02*
G37*
G36*
X2305000D02*
X2264530D01*
X2267160Y2035184D01*
X2273919Y2023477D01*
X2283477Y2013919D01*
X2295184Y2007160D01*
X2305000Y2004530D01*
Y2045000D01*
D02*
G37*
G36*
X2165470D02*
X2125000D01*
Y2004530D01*
X2134816Y2007160D01*
X2146523Y2013919D01*
X2156081Y2023477D01*
X2162840Y2035184D01*
X2165470Y2045000D01*
D02*
G37*
G36*
X2105000D02*
X2064530D01*
X2067160Y2035184D01*
X2073919Y2023477D01*
X2083477Y2013919D01*
X2095184Y2007160D01*
X2105000Y2004530D01*
Y2045000D01*
D02*
G37*
G36*
X1285470D02*
X1245000D01*
Y2004530D01*
X1254816Y2007160D01*
X1266523Y2013919D01*
X1276081Y2023477D01*
X1282840Y2035184D01*
X1285470Y2045000D01*
D02*
G37*
G36*
X1225000D02*
X1184530D01*
X1187160Y2035184D01*
X1193919Y2023477D01*
X1203477Y2013919D01*
X1215184Y2007160D01*
X1225000Y2004530D01*
Y2045000D01*
D02*
G37*
G36*
X1085470D02*
X1045000D01*
Y2004530D01*
X1054816Y2007160D01*
X1066523Y2013919D01*
X1076081Y2023477D01*
X1082840Y2035184D01*
X1085470Y2045000D01*
D02*
G37*
G36*
X1025000D02*
X984530D01*
X987160Y2035184D01*
X993919Y2023477D01*
X1003477Y2013919D01*
X1015184Y2007160D01*
X1025000Y2004530D01*
Y2045000D01*
D02*
G37*
G36*
X785470D02*
X745000D01*
Y2004530D01*
X754816Y2007160D01*
X766523Y2013919D01*
X776081Y2023477D01*
X782840Y2035184D01*
X785470Y2045000D01*
D02*
G37*
G36*
X725000D02*
X684530D01*
X687160Y2035184D01*
X693919Y2023477D01*
X703477Y2013919D01*
X715184Y2007160D01*
X725000Y2004530D01*
Y2045000D01*
D02*
G37*
G36*
X585470D02*
X545000D01*
Y2004530D01*
X554816Y2007160D01*
X566523Y2013919D01*
X576081Y2023477D01*
X582840Y2035184D01*
X585470Y2045000D01*
D02*
G37*
G36*
X525000D02*
X484530D01*
X487160Y2035184D01*
X493919Y2023477D01*
X503477Y2013919D01*
X515184Y2007160D01*
X525000Y2004530D01*
Y2045000D01*
D02*
G37*
G36*
X85000Y2006320D02*
Y1975000D01*
X116320D01*
X114604Y1981404D01*
X109008Y1991096D01*
X101096Y1999008D01*
X91404Y2004604D01*
X85000Y2006320D01*
D02*
G37*
G36*
X65000D02*
X58596Y2004604D01*
X48904Y1999008D01*
X40992Y1991096D01*
X35396Y1981404D01*
X33680Y1975000D01*
X65000D01*
Y2006320D01*
D02*
G37*
G36*
X3345000Y1986320D02*
Y1955000D01*
X3376320D01*
X3374604Y1961404D01*
X3369008Y1971096D01*
X3361096Y1979008D01*
X3351404Y1984604D01*
X3345000Y1986320D01*
D02*
G37*
G36*
X3325000D02*
X3318596Y1984604D01*
X3308904Y1979008D01*
X3300992Y1971096D01*
X3295396Y1961404D01*
X3293680Y1955000D01*
X3325000D01*
Y1986320D01*
D02*
G37*
G36*
X116320Y1955000D02*
X85000D01*
Y1923680D01*
X91404Y1925396D01*
X101096Y1930992D01*
X109008Y1938904D01*
X114604Y1948596D01*
X116320Y1955000D01*
D02*
G37*
G36*
X65000D02*
X33680D01*
X35396Y1948596D01*
X40992Y1938904D01*
X48904Y1930992D01*
X58596Y1925396D01*
X65000Y1923680D01*
Y1955000D01*
D02*
G37*
G36*
X2220841Y1999370D02*
X2209159D01*
X2197874Y1996346D01*
X2187756Y1990505D01*
X2179495Y1982244D01*
X2173654Y1972126D01*
X2170630Y1960841D01*
Y1949159D01*
X2173654Y1937874D01*
X2179495Y1927756D01*
X2187756Y1919495D01*
X2197874Y1913654D01*
X2209159Y1910630D01*
X2220841D01*
X2232126Y1913654D01*
X2242244Y1919495D01*
X2250505Y1927756D01*
X2256346Y1937874D01*
X2259370Y1949159D01*
Y1960841D01*
X2256346Y1972126D01*
X2250505Y1982244D01*
X2242244Y1990505D01*
X2232126Y1996346D01*
X2220841Y1999370D01*
D02*
G37*
G36*
X1140841D02*
X1129159D01*
X1117874Y1996346D01*
X1107756Y1990505D01*
X1099495Y1982244D01*
X1093654Y1972126D01*
X1090630Y1960841D01*
Y1949159D01*
X1093654Y1937874D01*
X1099495Y1927756D01*
X1107756Y1919495D01*
X1117874Y1913654D01*
X1129159Y1910630D01*
X1140841D01*
X1152126Y1913654D01*
X1162244Y1919495D01*
X1170505Y1927756D01*
X1176346Y1937874D01*
X1179370Y1949159D01*
Y1960841D01*
X1176346Y1972126D01*
X1170505Y1982244D01*
X1162244Y1990505D01*
X1152126Y1996346D01*
X1140841Y1999370D01*
D02*
G37*
G36*
X640841D02*
X629159D01*
X617874Y1996346D01*
X607756Y1990505D01*
X599495Y1982244D01*
X593654Y1972126D01*
X590630Y1960841D01*
Y1949159D01*
X593654Y1937874D01*
X599495Y1927756D01*
X607756Y1919495D01*
X617874Y1913654D01*
X629159Y1910630D01*
X640841D01*
X652126Y1913654D01*
X662244Y1919495D01*
X670505Y1927756D01*
X676346Y1937874D01*
X679370Y1949159D01*
Y1960841D01*
X676346Y1972126D01*
X670505Y1982244D01*
X662244Y1990505D01*
X652126Y1996346D01*
X640841Y1999370D01*
D02*
G37*
G36*
X3376320Y1935000D02*
X3345000D01*
Y1903680D01*
X3351404Y1905396D01*
X3361096Y1910992D01*
X3369008Y1918904D01*
X3374604Y1928596D01*
X3376320Y1935000D01*
D02*
G37*
G36*
X3325000D02*
X3293680D01*
X3295396Y1928596D01*
X3300992Y1918904D01*
X3308904Y1910992D01*
X3318596Y1905396D01*
X3325000Y1903680D01*
Y1935000D01*
D02*
G37*
G36*
X2325000Y1905470D02*
Y1865000D01*
X2365470D01*
X2362840Y1874816D01*
X2356081Y1886523D01*
X2346523Y1896081D01*
X2334816Y1902840D01*
X2325000Y1905470D01*
D02*
G37*
G36*
X2305000D02*
X2295184Y1902840D01*
X2283477Y1896081D01*
X2273919Y1886523D01*
X2267160Y1874816D01*
X2264530Y1865000D01*
X2305000D01*
Y1905470D01*
D02*
G37*
G36*
X2125000D02*
Y1865000D01*
X2165470D01*
X2162840Y1874816D01*
X2156081Y1886523D01*
X2146523Y1896081D01*
X2134816Y1902840D01*
X2125000Y1905470D01*
D02*
G37*
G36*
X2105000D02*
X2095184Y1902840D01*
X2083477Y1896081D01*
X2073919Y1886523D01*
X2067160Y1874816D01*
X2064530Y1865000D01*
X2105000D01*
Y1905470D01*
D02*
G37*
G36*
X1245000D02*
Y1865000D01*
X1285470D01*
X1282840Y1874816D01*
X1276081Y1886523D01*
X1266523Y1896081D01*
X1254816Y1902840D01*
X1245000Y1905470D01*
D02*
G37*
G36*
X1225000D02*
X1215184Y1902840D01*
X1203477Y1896081D01*
X1193919Y1886523D01*
X1187160Y1874816D01*
X1184530Y1865000D01*
X1225000D01*
Y1905470D01*
D02*
G37*
G36*
X1045000D02*
Y1865000D01*
X1085470D01*
X1082840Y1874816D01*
X1076081Y1886523D01*
X1066523Y1896081D01*
X1054816Y1902840D01*
X1045000Y1905470D01*
D02*
G37*
G36*
X1025000D02*
X1015184Y1902840D01*
X1003477Y1896081D01*
X993919Y1886523D01*
X987160Y1874816D01*
X984530Y1865000D01*
X1025000D01*
Y1905470D01*
D02*
G37*
G36*
X745000D02*
Y1865000D01*
X785470D01*
X782840Y1874816D01*
X776081Y1886523D01*
X766523Y1896081D01*
X754816Y1902840D01*
X745000Y1905470D01*
D02*
G37*
G36*
X725000D02*
X715184Y1902840D01*
X703477Y1896081D01*
X693919Y1886523D01*
X687160Y1874816D01*
X684530Y1865000D01*
X725000D01*
Y1905470D01*
D02*
G37*
G36*
X545000D02*
Y1865000D01*
X585470D01*
X582840Y1874816D01*
X576081Y1886523D01*
X566523Y1896081D01*
X554816Y1902840D01*
X545000Y1905470D01*
D02*
G37*
G36*
X525000D02*
X515184Y1902840D01*
X503477Y1896081D01*
X493919Y1886523D01*
X487160Y1874816D01*
X484530Y1865000D01*
X525000D01*
Y1905470D01*
D02*
G37*
G36*
X2365470Y1845000D02*
X2325000D01*
Y1804530D01*
X2334816Y1807160D01*
X2346523Y1813919D01*
X2356081Y1823477D01*
X2362840Y1835184D01*
X2365470Y1845000D01*
D02*
G37*
G36*
X2305000D02*
X2264530D01*
X2267160Y1835184D01*
X2273919Y1823477D01*
X2283477Y1813919D01*
X2295184Y1807160D01*
X2305000Y1804530D01*
Y1845000D01*
D02*
G37*
G36*
X2165470D02*
X2125000D01*
Y1804530D01*
X2134816Y1807160D01*
X2146523Y1813919D01*
X2156081Y1823477D01*
X2162840Y1835184D01*
X2165470Y1845000D01*
D02*
G37*
G36*
X2105000D02*
X2064530D01*
X2067160Y1835184D01*
X2073919Y1823477D01*
X2083477Y1813919D01*
X2095184Y1807160D01*
X2105000Y1804530D01*
Y1845000D01*
D02*
G37*
G36*
X1285470D02*
X1245000D01*
Y1804530D01*
X1254816Y1807160D01*
X1266523Y1813919D01*
X1276081Y1823477D01*
X1282840Y1835184D01*
X1285470Y1845000D01*
D02*
G37*
G36*
X1225000D02*
X1184530D01*
X1187160Y1835184D01*
X1193919Y1823477D01*
X1203477Y1813919D01*
X1215184Y1807160D01*
X1225000Y1804530D01*
Y1845000D01*
D02*
G37*
G36*
X1085470D02*
X1045000D01*
Y1804530D01*
X1054816Y1807160D01*
X1066523Y1813919D01*
X1076081Y1823477D01*
X1082840Y1835184D01*
X1085470Y1845000D01*
D02*
G37*
G36*
X1025000D02*
X984530D01*
X987160Y1835184D01*
X993919Y1823477D01*
X1003477Y1813919D01*
X1015184Y1807160D01*
X1025000Y1804530D01*
Y1845000D01*
D02*
G37*
G36*
X785470D02*
X745000D01*
Y1804530D01*
X754816Y1807160D01*
X766523Y1813919D01*
X776081Y1823477D01*
X782840Y1835184D01*
X785470Y1845000D01*
D02*
G37*
G36*
X725000D02*
X684530D01*
X687160Y1835184D01*
X693919Y1823477D01*
X703477Y1813919D01*
X715184Y1807160D01*
X725000Y1804530D01*
Y1845000D01*
D02*
G37*
G36*
X585470D02*
X545000D01*
Y1804530D01*
X554816Y1807160D01*
X566523Y1813919D01*
X576081Y1823477D01*
X582840Y1835184D01*
X585470Y1845000D01*
D02*
G37*
G36*
X525000D02*
X484530D01*
X487160Y1835184D01*
X493919Y1823477D01*
X503477Y1813919D01*
X515184Y1807160D01*
X525000Y1804530D01*
Y1845000D01*
D02*
G37*
G36*
X2694546Y1754527D02*
X2685454D01*
X2676673Y1752175D01*
X2668800Y1747629D01*
X2662371Y1741200D01*
X2657825Y1733327D01*
X2655472Y1724546D01*
Y1715454D01*
X2657825Y1706673D01*
X2662371Y1698800D01*
X2668800Y1692371D01*
X2676673Y1687825D01*
X2685454Y1685473D01*
X2694546D01*
X2703327Y1687825D01*
X2711200Y1692371D01*
X2717629Y1698800D01*
X2722175Y1706673D01*
X2724528Y1715454D01*
Y1724546D01*
X2722175Y1733327D01*
X2717629Y1741200D01*
X2711200Y1747629D01*
X2703327Y1752175D01*
X2694546Y1754527D01*
D02*
G37*
G36*
X85000Y1706320D02*
Y1675000D01*
X116320D01*
X114604Y1681404D01*
X109008Y1691096D01*
X101096Y1699008D01*
X91404Y1704604D01*
X85000Y1706320D01*
D02*
G37*
G36*
X65000D02*
X58596Y1704604D01*
X48904Y1699008D01*
X40992Y1691096D01*
X35396Y1681404D01*
X33680Y1675000D01*
X65000D01*
Y1706320D01*
D02*
G37*
G36*
X3345000Y1686320D02*
Y1655000D01*
X3376320D01*
X3374604Y1661404D01*
X3369008Y1671096D01*
X3361096Y1679008D01*
X3351404Y1684604D01*
X3345000Y1686320D01*
D02*
G37*
G36*
X3325000D02*
X3318596Y1684604D01*
X3308904Y1679008D01*
X3300992Y1671096D01*
X3295396Y1661404D01*
X3293680Y1655000D01*
X3325000D01*
Y1686320D01*
D02*
G37*
G36*
X116320Y1655000D02*
X85000D01*
Y1623680D01*
X91404Y1625396D01*
X101096Y1630992D01*
X109008Y1638904D01*
X114604Y1648596D01*
X116320Y1655000D01*
D02*
G37*
G36*
X65000D02*
X33680D01*
X35396Y1648596D01*
X40992Y1638904D01*
X48904Y1630992D01*
X58596Y1625396D01*
X65000Y1623680D01*
Y1655000D01*
D02*
G37*
G36*
X3376320Y1635000D02*
X3345000D01*
Y1603680D01*
X3351404Y1605396D01*
X3361096Y1610992D01*
X3369008Y1618904D01*
X3374604Y1628596D01*
X3376320Y1635000D01*
D02*
G37*
G36*
X3325000D02*
X3293680D01*
X3295396Y1628596D01*
X3300992Y1618904D01*
X3308904Y1610992D01*
X3318596Y1605396D01*
X3325000Y1603680D01*
Y1635000D01*
D02*
G37*
G36*
X1734546Y1684527D02*
X1725454D01*
X1716673Y1682175D01*
X1708800Y1677629D01*
X1702371Y1671200D01*
X1697825Y1663327D01*
X1695473Y1654546D01*
Y1645454D01*
X1697825Y1636673D01*
X1702371Y1628800D01*
X1708800Y1622371D01*
X1716673Y1617825D01*
X1725454Y1615473D01*
X1734546D01*
X1743327Y1617825D01*
X1751200Y1622371D01*
X1757629Y1628800D01*
X1762175Y1636673D01*
X1762331Y1637255D01*
X1839721D01*
X1853000Y1623976D01*
Y1615624D01*
X1856349Y1607538D01*
X1862538Y1601349D01*
X1870624Y1598000D01*
X1879376D01*
X1887462Y1601349D01*
X1893651Y1607538D01*
X1897000Y1615624D01*
Y1624376D01*
X1893651Y1632462D01*
X1887462Y1638651D01*
X1879376Y1642000D01*
X1871024D01*
X1854012Y1659012D01*
X1849877Y1661775D01*
X1845000Y1662745D01*
X1762331D01*
X1762175Y1663327D01*
X1757629Y1671200D01*
X1751200Y1677629D01*
X1743327Y1682175D01*
X1734546Y1684527D01*
D02*
G37*
G36*
X1545000Y1598709D02*
Y1583436D01*
X1560273D01*
X1560160Y1583857D01*
X1556605Y1590014D01*
X1551578Y1595041D01*
X1545422Y1598596D01*
X1545000Y1598709D01*
D02*
G37*
G36*
X1525000D02*
X1524578Y1598596D01*
X1518422Y1595041D01*
X1513395Y1590014D01*
X1509840Y1583857D01*
X1509727Y1583436D01*
X1525000D01*
Y1598709D01*
D02*
G37*
G36*
X2325000Y1605470D02*
Y1565000D01*
X2365470D01*
X2362840Y1574816D01*
X2356081Y1586523D01*
X2346523Y1596081D01*
X2334816Y1602840D01*
X2325000Y1605470D01*
D02*
G37*
G36*
X2305000D02*
X2295184Y1602840D01*
X2283477Y1596081D01*
X2273919Y1586523D01*
X2267160Y1574816D01*
X2264530Y1565000D01*
X2305000D01*
Y1605470D01*
D02*
G37*
G36*
X2125000D02*
Y1565000D01*
X2165470D01*
X2162840Y1574816D01*
X2156081Y1586523D01*
X2146523Y1596081D01*
X2134816Y1602840D01*
X2125000Y1605470D01*
D02*
G37*
G36*
X2105000D02*
X2095184Y1602840D01*
X2083477Y1596081D01*
X2073919Y1586523D01*
X2067160Y1574816D01*
X2064530Y1565000D01*
X2105000D01*
Y1605470D01*
D02*
G37*
G36*
X1245000D02*
Y1565000D01*
X1285470D01*
X1282840Y1574816D01*
X1276081Y1586523D01*
X1266523Y1596081D01*
X1254816Y1602840D01*
X1245000Y1605470D01*
D02*
G37*
G36*
X1225000D02*
X1215184Y1602840D01*
X1203477Y1596081D01*
X1193919Y1586523D01*
X1187160Y1574816D01*
X1184530Y1565000D01*
X1225000D01*
Y1605470D01*
D02*
G37*
G36*
X1045000D02*
Y1565000D01*
X1085470D01*
X1082840Y1574816D01*
X1076081Y1586523D01*
X1066523Y1596081D01*
X1054816Y1602840D01*
X1045000Y1605470D01*
D02*
G37*
G36*
X1025000D02*
X1015184Y1602840D01*
X1003477Y1596081D01*
X993919Y1586523D01*
X987160Y1574816D01*
X984530Y1565000D01*
X1025000D01*
Y1605470D01*
D02*
G37*
G36*
X745000D02*
Y1565000D01*
X785470D01*
X782840Y1574816D01*
X776081Y1586523D01*
X766523Y1596081D01*
X754816Y1602840D01*
X745000Y1605470D01*
D02*
G37*
G36*
X725000D02*
X715184Y1602840D01*
X703477Y1596081D01*
X693919Y1586523D01*
X687160Y1574816D01*
X684530Y1565000D01*
X725000D01*
Y1605470D01*
D02*
G37*
G36*
X545000D02*
Y1565000D01*
X585470D01*
X582840Y1574816D01*
X576081Y1586523D01*
X566523Y1596081D01*
X554816Y1602840D01*
X545000Y1605470D01*
D02*
G37*
G36*
X525000D02*
X515184Y1602840D01*
X503477Y1596081D01*
X493919Y1586523D01*
X487160Y1574816D01*
X484530Y1565000D01*
X525000D01*
Y1605470D01*
D02*
G37*
G36*
X1560273Y1563436D02*
X1545000D01*
Y1548163D01*
X1545422Y1548276D01*
X1551578Y1551830D01*
X1556605Y1556857D01*
X1560160Y1563014D01*
X1560273Y1563436D01*
D02*
G37*
G36*
X1525000D02*
X1509727D01*
X1509840Y1563014D01*
X1513395Y1556857D01*
X1518422Y1551830D01*
X1524578Y1548276D01*
X1525000Y1548163D01*
Y1563436D01*
D02*
G37*
G36*
X2365470Y1545000D02*
X2325000D01*
Y1504530D01*
X2334816Y1507160D01*
X2346523Y1513919D01*
X2356081Y1523477D01*
X2362840Y1535184D01*
X2365470Y1545000D01*
D02*
G37*
G36*
X2305000D02*
X2264530D01*
X2267160Y1535184D01*
X2273919Y1523477D01*
X2283477Y1513919D01*
X2295184Y1507160D01*
X2305000Y1504530D01*
Y1545000D01*
D02*
G37*
G36*
X2165470D02*
X2125000D01*
Y1504530D01*
X2134816Y1507160D01*
X2146523Y1513919D01*
X2156081Y1523477D01*
X2162840Y1535184D01*
X2165470Y1545000D01*
D02*
G37*
G36*
X2105000D02*
X2064530D01*
X2067160Y1535184D01*
X2073919Y1523477D01*
X2083477Y1513919D01*
X2095184Y1507160D01*
X2105000Y1504530D01*
Y1545000D01*
D02*
G37*
G36*
X1285470D02*
X1245000D01*
Y1504530D01*
X1254816Y1507160D01*
X1266523Y1513919D01*
X1276081Y1523477D01*
X1282840Y1535184D01*
X1285470Y1545000D01*
D02*
G37*
G36*
X1225000D02*
X1184530D01*
X1187160Y1535184D01*
X1193919Y1523477D01*
X1203477Y1513919D01*
X1215184Y1507160D01*
X1225000Y1504530D01*
Y1545000D01*
D02*
G37*
G36*
X1085470D02*
X1045000D01*
Y1504530D01*
X1054816Y1507160D01*
X1066523Y1513919D01*
X1076081Y1523477D01*
X1082840Y1535184D01*
X1085470Y1545000D01*
D02*
G37*
G36*
X1025000D02*
X984530D01*
X987160Y1535184D01*
X993919Y1523477D01*
X1003477Y1513919D01*
X1015184Y1507160D01*
X1025000Y1504530D01*
Y1545000D01*
D02*
G37*
G36*
X785470D02*
X745000D01*
Y1504530D01*
X754816Y1507160D01*
X766523Y1513919D01*
X776081Y1523477D01*
X782840Y1535184D01*
X785470Y1545000D01*
D02*
G37*
G36*
X725000D02*
X684530D01*
X687160Y1535184D01*
X693919Y1523477D01*
X703477Y1513919D01*
X715184Y1507160D01*
X725000Y1504530D01*
Y1545000D01*
D02*
G37*
G36*
X585470D02*
X545000D01*
Y1504530D01*
X554816Y1507160D01*
X566523Y1513919D01*
X576081Y1523477D01*
X582840Y1535184D01*
X585470Y1545000D01*
D02*
G37*
G36*
X525000D02*
X484530D01*
X487160Y1535184D01*
X493919Y1523477D01*
X503477Y1513919D01*
X515184Y1507160D01*
X525000Y1504530D01*
Y1545000D01*
D02*
G37*
G36*
X2624528Y1554527D02*
X2555472D01*
Y1485473D01*
X2624528D01*
Y1554527D01*
D02*
G37*
G36*
X1764527Y1584527D02*
X1695473D01*
Y1515473D01*
X1717255D01*
Y1505000D01*
X1718225Y1500123D01*
X1720988Y1495988D01*
X1735988Y1480988D01*
X1740123Y1478225D01*
X1745000Y1477255D01*
X1799721D01*
X1813232Y1463744D01*
X1810400Y1459505D01*
X1804376Y1462000D01*
X1795624D01*
X1787538Y1458651D01*
X1781349Y1452462D01*
X1778000Y1444376D01*
Y1435624D01*
X1781349Y1427538D01*
X1787538Y1421349D01*
X1795624Y1418000D01*
X1804376D01*
X1812462Y1421349D01*
X1818651Y1427538D01*
X1822000Y1435624D01*
Y1444376D01*
X1819505Y1450400D01*
X1823744Y1453232D01*
X1833000Y1443976D01*
Y1435624D01*
X1836349Y1427538D01*
X1842538Y1421349D01*
X1850624Y1418000D01*
X1859376D01*
X1867462Y1421349D01*
X1873651Y1427538D01*
X1877000Y1435624D01*
Y1444376D01*
X1873651Y1452462D01*
X1867462Y1458651D01*
X1859376Y1462000D01*
X1851024D01*
X1814012Y1499012D01*
X1809877Y1501775D01*
X1805000Y1502745D01*
X1750279D01*
X1742745Y1510279D01*
Y1515473D01*
X1764527D01*
Y1584527D01*
D02*
G37*
G36*
X1744376Y1462000D02*
X1735624D01*
X1727538Y1458651D01*
X1721349Y1452462D01*
X1718000Y1444376D01*
Y1441024D01*
X1680988Y1404012D01*
X1678225Y1399877D01*
X1677255Y1395000D01*
Y1243368D01*
X1671349Y1237462D01*
X1668000Y1229376D01*
Y1220624D01*
X1671349Y1212538D01*
X1677538Y1206349D01*
X1685624Y1203000D01*
X1694376D01*
X1702462Y1206349D01*
X1708651Y1212538D01*
X1712000Y1220624D01*
Y1229376D01*
X1708651Y1237462D01*
X1702745Y1243368D01*
Y1389721D01*
X1732371Y1419347D01*
X1735624Y1418000D01*
X1744376D01*
X1752462Y1421349D01*
X1758651Y1427538D01*
X1762000Y1435624D01*
Y1444376D01*
X1758651Y1452462D01*
X1752462Y1458651D01*
X1744376Y1462000D01*
D02*
G37*
G36*
X2220841Y1499370D02*
X2209159D01*
X2197874Y1496346D01*
X2187756Y1490505D01*
X2179495Y1482244D01*
X2173654Y1472126D01*
X2170630Y1460841D01*
Y1449159D01*
X2173654Y1437874D01*
X2179495Y1427756D01*
X2187756Y1419495D01*
X2197874Y1413654D01*
X2209159Y1410630D01*
X2220841D01*
X2232126Y1413654D01*
X2242244Y1419495D01*
X2250505Y1427756D01*
X2256346Y1437874D01*
X2259370Y1449159D01*
Y1460841D01*
X2256346Y1472126D01*
X2250505Y1482244D01*
X2242244Y1490505D01*
X2232126Y1496346D01*
X2220841Y1499370D01*
D02*
G37*
G36*
X1140841D02*
X1129159D01*
X1117874Y1496346D01*
X1107756Y1490505D01*
X1099495Y1482244D01*
X1093654Y1472126D01*
X1090630Y1460841D01*
Y1449159D01*
X1093654Y1437874D01*
X1099495Y1427756D01*
X1107756Y1419495D01*
X1117874Y1413654D01*
X1129159Y1410630D01*
X1140841D01*
X1152126Y1413654D01*
X1162244Y1419495D01*
X1170505Y1427756D01*
X1176346Y1437874D01*
X1179370Y1449159D01*
Y1460841D01*
X1176346Y1472126D01*
X1170505Y1482244D01*
X1162244Y1490505D01*
X1152126Y1496346D01*
X1140841Y1499370D01*
D02*
G37*
G36*
X640841D02*
X629159D01*
X617874Y1496346D01*
X607756Y1490505D01*
X599495Y1482244D01*
X593654Y1472126D01*
X590630Y1460841D01*
Y1449159D01*
X593654Y1437874D01*
X599495Y1427756D01*
X607756Y1419495D01*
X617874Y1413654D01*
X629159Y1410630D01*
X640841D01*
X652126Y1413654D01*
X662244Y1419495D01*
X670505Y1427756D01*
X676346Y1437874D01*
X679370Y1449159D01*
Y1460841D01*
X676346Y1472126D01*
X670505Y1482244D01*
X662244Y1490505D01*
X652126Y1496346D01*
X640841Y1499370D01*
D02*
G37*
G36*
X85000Y1406320D02*
Y1375000D01*
X116320D01*
X114604Y1381404D01*
X109008Y1391096D01*
X101096Y1399008D01*
X91404Y1404604D01*
X85000Y1406320D01*
D02*
G37*
G36*
X65000D02*
X58596Y1404604D01*
X48904Y1399008D01*
X40992Y1391096D01*
X35396Y1381404D01*
X33680Y1375000D01*
X65000D01*
Y1406320D01*
D02*
G37*
G36*
X2325000Y1405470D02*
Y1365000D01*
X2365470D01*
X2362840Y1374816D01*
X2356081Y1386523D01*
X2346523Y1396081D01*
X2334816Y1402840D01*
X2325000Y1405470D01*
D02*
G37*
G36*
X2305000D02*
X2295184Y1402840D01*
X2283477Y1396081D01*
X2273919Y1386523D01*
X2267160Y1374816D01*
X2264530Y1365000D01*
X2305000D01*
Y1405470D01*
D02*
G37*
G36*
X2125000D02*
Y1365000D01*
X2165470D01*
X2162840Y1374816D01*
X2156081Y1386523D01*
X2146523Y1396081D01*
X2134816Y1402840D01*
X2125000Y1405470D01*
D02*
G37*
G36*
X2105000D02*
X2095184Y1402840D01*
X2083477Y1396081D01*
X2073919Y1386523D01*
X2067160Y1374816D01*
X2064530Y1365000D01*
X2105000D01*
Y1405470D01*
D02*
G37*
G36*
X1245000D02*
Y1365000D01*
X1285470D01*
X1282840Y1374816D01*
X1276081Y1386523D01*
X1266523Y1396081D01*
X1254816Y1402840D01*
X1245000Y1405470D01*
D02*
G37*
G36*
X1225000D02*
X1215184Y1402840D01*
X1203477Y1396081D01*
X1193919Y1386523D01*
X1187160Y1374816D01*
X1184530Y1365000D01*
X1225000D01*
Y1405470D01*
D02*
G37*
G36*
X1045000D02*
Y1365000D01*
X1085470D01*
X1082840Y1374816D01*
X1076081Y1386523D01*
X1066523Y1396081D01*
X1054816Y1402840D01*
X1045000Y1405470D01*
D02*
G37*
G36*
X1025000D02*
X1015184Y1402840D01*
X1003477Y1396081D01*
X993919Y1386523D01*
X987160Y1374816D01*
X984530Y1365000D01*
X1025000D01*
Y1405470D01*
D02*
G37*
G36*
X745000D02*
Y1365000D01*
X785470D01*
X782840Y1374816D01*
X776081Y1386523D01*
X766523Y1396081D01*
X754816Y1402840D01*
X745000Y1405470D01*
D02*
G37*
G36*
X725000D02*
X715184Y1402840D01*
X703477Y1396081D01*
X693919Y1386523D01*
X687160Y1374816D01*
X684530Y1365000D01*
X725000D01*
Y1405470D01*
D02*
G37*
G36*
X545000D02*
Y1365000D01*
X585470D01*
X582840Y1374816D01*
X576081Y1386523D01*
X566523Y1396081D01*
X554816Y1402840D01*
X545000Y1405470D01*
D02*
G37*
G36*
X525000D02*
X515184Y1402840D01*
X503477Y1396081D01*
X493919Y1386523D01*
X487160Y1374816D01*
X484530Y1365000D01*
X525000D01*
Y1405470D01*
D02*
G37*
G36*
X3345000Y1386320D02*
Y1355000D01*
X3376320D01*
X3374604Y1361404D01*
X3369008Y1371096D01*
X3361096Y1379008D01*
X3351404Y1384604D01*
X3345000Y1386320D01*
D02*
G37*
G36*
X3325000D02*
X3318596Y1384604D01*
X3308904Y1379008D01*
X3300992Y1371096D01*
X3295396Y1361404D01*
X3293680Y1355000D01*
X3325000D01*
Y1386320D01*
D02*
G37*
G36*
X116320Y1355000D02*
X85000D01*
Y1323680D01*
X91404Y1325396D01*
X101096Y1330992D01*
X109008Y1338904D01*
X114604Y1348596D01*
X116320Y1355000D01*
D02*
G37*
G36*
X65000D02*
X33680D01*
X35396Y1348596D01*
X40992Y1338904D01*
X48904Y1330992D01*
X58596Y1325396D01*
X65000Y1323680D01*
Y1355000D01*
D02*
G37*
G36*
X2365470Y1345000D02*
X2325000D01*
Y1304530D01*
X2334816Y1307160D01*
X2346523Y1313919D01*
X2356081Y1323477D01*
X2362840Y1335184D01*
X2365470Y1345000D01*
D02*
G37*
G36*
X2305000D02*
X2264530D01*
X2267160Y1335184D01*
X2273919Y1323477D01*
X2283477Y1313919D01*
X2295184Y1307160D01*
X2305000Y1304530D01*
Y1345000D01*
D02*
G37*
G36*
X2165470D02*
X2125000D01*
Y1304530D01*
X2134816Y1307160D01*
X2146523Y1313919D01*
X2156081Y1323477D01*
X2162840Y1335184D01*
X2165470Y1345000D01*
D02*
G37*
G36*
X2105000D02*
X2064530D01*
X2067160Y1335184D01*
X2073919Y1323477D01*
X2083477Y1313919D01*
X2095184Y1307160D01*
X2105000Y1304530D01*
Y1345000D01*
D02*
G37*
G36*
X1285470D02*
X1245000D01*
Y1304530D01*
X1254816Y1307160D01*
X1266523Y1313919D01*
X1276081Y1323477D01*
X1282840Y1335184D01*
X1285470Y1345000D01*
D02*
G37*
G36*
X1225000D02*
X1184530D01*
X1187160Y1335184D01*
X1193919Y1323477D01*
X1203477Y1313919D01*
X1215184Y1307160D01*
X1225000Y1304530D01*
Y1345000D01*
D02*
G37*
G36*
X1085470D02*
X1045000D01*
Y1304530D01*
X1054816Y1307160D01*
X1066523Y1313919D01*
X1076081Y1323477D01*
X1082840Y1335184D01*
X1085470Y1345000D01*
D02*
G37*
G36*
X1025000D02*
X984530D01*
X987160Y1335184D01*
X993919Y1323477D01*
X1003477Y1313919D01*
X1015184Y1307160D01*
X1025000Y1304530D01*
Y1345000D01*
D02*
G37*
G36*
X785470D02*
X745000D01*
Y1304530D01*
X754816Y1307160D01*
X766523Y1313919D01*
X776081Y1323477D01*
X782840Y1335184D01*
X785470Y1345000D01*
D02*
G37*
G36*
X725000D02*
X684530D01*
X687160Y1335184D01*
X693919Y1323477D01*
X703477Y1313919D01*
X715184Y1307160D01*
X725000Y1304530D01*
Y1345000D01*
D02*
G37*
G36*
X585470D02*
X545000D01*
Y1304530D01*
X554816Y1307160D01*
X566523Y1313919D01*
X576081Y1323477D01*
X582840Y1335184D01*
X585470Y1345000D01*
D02*
G37*
G36*
X525000D02*
X484530D01*
X487160Y1335184D01*
X493919Y1323477D01*
X503477Y1313919D01*
X515184Y1307160D01*
X525000Y1304530D01*
Y1345000D01*
D02*
G37*
G36*
X3376320Y1335000D02*
X3345000D01*
Y1303680D01*
X3351404Y1305396D01*
X3361096Y1310992D01*
X3369008Y1318904D01*
X3374604Y1328596D01*
X3376320Y1335000D01*
D02*
G37*
G36*
X3325000D02*
X3293680D01*
X3295396Y1328596D01*
X3300992Y1318904D01*
X3308904Y1310992D01*
X3318596Y1305396D01*
X3325000Y1303680D01*
Y1335000D01*
D02*
G37*
G36*
X1539376Y1467000D02*
X1530624D01*
X1522538Y1463651D01*
X1516349Y1457462D01*
X1513000Y1449376D01*
Y1440624D01*
X1516349Y1432538D01*
X1522538Y1426349D01*
X1530624Y1423000D01*
X1538976D01*
X1597255Y1364721D01*
Y1243368D01*
X1591349Y1237462D01*
X1588000Y1229376D01*
Y1220624D01*
X1591349Y1212538D01*
X1597538Y1206349D01*
X1605624Y1203000D01*
X1614376D01*
X1622462Y1206349D01*
X1628651Y1212538D01*
X1632000Y1220624D01*
Y1229376D01*
X1628651Y1237462D01*
X1622745Y1243368D01*
Y1370000D01*
X1621775Y1374877D01*
X1619012Y1379012D01*
X1557000Y1441024D01*
Y1449376D01*
X1553651Y1457462D01*
X1547462Y1463651D01*
X1539376Y1467000D01*
D02*
G37*
G36*
X2624528Y1234527D02*
X2555472D01*
Y1212745D01*
X2490000D01*
X2485123Y1211775D01*
X2480988Y1209012D01*
X2453976Y1182000D01*
X2445624D01*
X2437538Y1178651D01*
X2431349Y1172462D01*
X2428000Y1164376D01*
Y1155624D01*
X2431349Y1147538D01*
X2437538Y1141349D01*
X2445624Y1138000D01*
X2454376D01*
X2462462Y1141349D01*
X2468651Y1147538D01*
X2472000Y1155624D01*
Y1163976D01*
X2495279Y1187255D01*
X2555472D01*
Y1165473D01*
X2624528D01*
Y1234527D01*
D02*
G37*
G36*
X1704961Y1115172D02*
X1702215Y1114035D01*
X1695886Y1107706D01*
X1695807Y1107515D01*
X1690807D01*
X1690728Y1107706D01*
X1684399Y1114035D01*
X1681654Y1115172D01*
Y1094961D01*
X1661654D01*
Y1115172D01*
X1658908Y1114035D01*
X1652579Y1107706D01*
X1652500Y1107515D01*
X1647500D01*
X1647421Y1107706D01*
X1641092Y1114035D01*
X1638347Y1115172D01*
Y1094961D01*
X1618347D01*
Y1115172D01*
X1615601Y1114035D01*
X1609272Y1107706D01*
X1609193Y1107515D01*
X1604193D01*
X1604114Y1107706D01*
X1597785Y1114035D01*
X1595039Y1115172D01*
Y1094961D01*
X1585039D01*
Y1084961D01*
X1564828D01*
X1565965Y1082215D01*
X1572294Y1075886D01*
X1572485Y1075807D01*
Y1070807D01*
X1572294Y1070728D01*
X1565965Y1064399D01*
X1564828Y1061654D01*
X1585039D01*
Y1041654D01*
X1564828D01*
X1565965Y1038908D01*
X1572294Y1032579D01*
X1572485Y1032500D01*
Y1027500D01*
X1572294Y1027421D01*
X1565965Y1021092D01*
X1564828Y1018346D01*
X1585039D01*
Y998346D01*
X1564828D01*
X1565965Y995601D01*
X1572294Y989272D01*
X1572485Y989193D01*
Y984193D01*
X1572294Y984114D01*
X1565965Y977785D01*
X1564828Y975039D01*
X1585039D01*
Y965039D01*
X1595039D01*
Y944828D01*
X1597785Y945965D01*
X1604114Y952294D01*
X1604193Y952485D01*
X1609193D01*
X1609272Y952294D01*
X1615601Y945965D01*
X1618347Y944828D01*
Y965039D01*
X1638347D01*
Y944828D01*
X1641092Y945965D01*
X1647421Y952294D01*
X1647500Y952485D01*
X1652500D01*
X1652579Y952294D01*
X1658908Y945965D01*
X1661654Y944828D01*
Y965039D01*
X1681654D01*
Y944828D01*
X1684399Y945965D01*
X1690728Y952294D01*
X1690807Y952485D01*
X1695807D01*
X1695886Y952294D01*
X1702215Y945965D01*
X1704961Y944828D01*
Y965039D01*
X1714961D01*
Y975039D01*
X1735172D01*
X1734035Y977785D01*
X1727706Y984114D01*
X1727515Y984193D01*
Y989193D01*
X1727706Y989272D01*
X1734035Y995601D01*
X1735172Y998346D01*
X1714961D01*
Y1018346D01*
X1735172D01*
X1734035Y1021092D01*
X1727706Y1027421D01*
X1727515Y1027500D01*
Y1032500D01*
X1727706Y1032579D01*
X1734035Y1038908D01*
X1735172Y1041654D01*
X1714961D01*
Y1061654D01*
X1735172D01*
X1734035Y1064399D01*
X1727706Y1070728D01*
X1727515Y1070807D01*
Y1075807D01*
X1727706Y1075886D01*
X1734035Y1082215D01*
X1735172Y1084961D01*
X1714961D01*
Y1094961D01*
X1704961D01*
Y1115172D01*
D02*
G37*
G36*
X1724961D02*
Y1104961D01*
X1735172D01*
X1734035Y1107706D01*
X1727706Y1114035D01*
X1724961Y1115172D01*
D02*
G37*
G36*
X1575039D02*
X1572294Y1114035D01*
X1565965Y1107706D01*
X1564828Y1104961D01*
X1575039D01*
Y1115172D01*
D02*
G37*
G36*
X2694546Y1114527D02*
X2685454D01*
X2676673Y1112175D01*
X2668800Y1107629D01*
X2662371Y1101200D01*
X2658961Y1095294D01*
X2498819D01*
X2495462Y1098651D01*
X2487376Y1102000D01*
X2478624D01*
X2470538Y1098651D01*
X2464349Y1092462D01*
X2461000Y1084376D01*
Y1075624D01*
X2464349Y1067538D01*
X2470538Y1061349D01*
X2478624Y1058000D01*
X2487376D01*
X2495462Y1061349D01*
X2498819Y1064706D01*
X2658961D01*
X2662371Y1058800D01*
X2668800Y1052371D01*
X2676673Y1047825D01*
X2685454Y1045473D01*
X2694546D01*
X2703327Y1047825D01*
X2711200Y1052371D01*
X2717629Y1058800D01*
X2722175Y1066673D01*
X2724528Y1075454D01*
Y1084546D01*
X2722175Y1093327D01*
X2717629Y1101200D01*
X2711200Y1107629D01*
X2703327Y1112175D01*
X2694546Y1114527D01*
D02*
G37*
G36*
X85000Y1106320D02*
Y1075000D01*
X116320D01*
X114604Y1081404D01*
X109008Y1091096D01*
X101096Y1099008D01*
X91404Y1104604D01*
X85000Y1106320D01*
D02*
G37*
G36*
X65000D02*
X58596Y1104604D01*
X48904Y1099008D01*
X40992Y1091096D01*
X35396Y1081404D01*
X33680Y1075000D01*
X65000D01*
Y1106320D01*
D02*
G37*
G36*
X3345000Y1086320D02*
Y1055000D01*
X3376320D01*
X3374604Y1061404D01*
X3369008Y1071096D01*
X3361096Y1079008D01*
X3351404Y1084604D01*
X3345000Y1086320D01*
D02*
G37*
G36*
X3325000D02*
X3318596Y1084604D01*
X3308904Y1079008D01*
X3300992Y1071096D01*
X3295396Y1061404D01*
X3293680Y1055000D01*
X3325000D01*
Y1086320D01*
D02*
G37*
G36*
X834528Y1099527D02*
X765472D01*
Y1030473D01*
X834528D01*
Y1099527D01*
D02*
G37*
G36*
X116320Y1055000D02*
X85000D01*
Y1023680D01*
X91404Y1025396D01*
X101096Y1030992D01*
X109008Y1038904D01*
X114604Y1048596D01*
X116320Y1055000D01*
D02*
G37*
G36*
X65000D02*
X33680D01*
X35396Y1048596D01*
X40992Y1038904D01*
X48904Y1030992D01*
X58596Y1025396D01*
X65000Y1023680D01*
Y1055000D01*
D02*
G37*
G36*
X3376320Y1035000D02*
X3345000D01*
Y1003680D01*
X3351404Y1005396D01*
X3361096Y1010992D01*
X3369008Y1018904D01*
X3374604Y1028596D01*
X3376320Y1035000D01*
D02*
G37*
G36*
X3325000D02*
X3293680D01*
X3295396Y1028596D01*
X3300992Y1018904D01*
X3308904Y1010992D01*
X3318596Y1005396D01*
X3325000Y1003680D01*
Y1035000D01*
D02*
G37*
G36*
X1735172Y955039D02*
X1724961D01*
Y944828D01*
X1727706Y945965D01*
X1734035Y952294D01*
X1735172Y955039D01*
D02*
G37*
G36*
X1575039D02*
X1564828D01*
X1565965Y952294D01*
X1572294Y945965D01*
X1575039Y944828D01*
Y955039D01*
D02*
G37*
G36*
X2694546Y914528D02*
X2685454D01*
X2676673Y912174D01*
X2668800Y907629D01*
X2662371Y901200D01*
X2657825Y893327D01*
X2655472Y884546D01*
Y875454D01*
X2657825Y866673D01*
X2662371Y858800D01*
X2668800Y852371D01*
X2676673Y847826D01*
X2685454Y845472D01*
X2694546D01*
X2703327Y847826D01*
X2711200Y852371D01*
X2717629Y858800D01*
X2722175Y866673D01*
X2724528Y875454D01*
Y884546D01*
X2722175Y893327D01*
X2717629Y901200D01*
X2711200Y907629D01*
X2703327Y912174D01*
X2694546Y914528D01*
D02*
G37*
G36*
X2624528D02*
X2555472D01*
Y845472D01*
X2624528D01*
Y914528D01*
D02*
G37*
G36*
X1889376Y937000D02*
X1880624D01*
X1872538Y933651D01*
X1866349Y927462D01*
X1863976Y921732D01*
X1835581Y893337D01*
X1831160Y886721D01*
X1829608Y878918D01*
Y853259D01*
X1828000Y849376D01*
Y840624D01*
X1831349Y832538D01*
X1837538Y826349D01*
X1845624Y823000D01*
X1854376D01*
X1862462Y826349D01*
X1868651Y832538D01*
X1872000Y840624D01*
Y849376D01*
X1870392Y853259D01*
Y870471D01*
X1895427Y895506D01*
X1897462Y896349D01*
X1903651Y902538D01*
X1907000Y910624D01*
Y919376D01*
X1903651Y927462D01*
X1897462Y933651D01*
X1889376Y937000D01*
D02*
G37*
G36*
X85000Y806320D02*
Y775000D01*
X116320D01*
X114604Y781404D01*
X109008Y791096D01*
X101096Y799008D01*
X91404Y804604D01*
X85000Y806320D01*
D02*
G37*
G36*
X65000D02*
X58596Y804604D01*
X48904Y799008D01*
X40992Y791096D01*
X35396Y781404D01*
X33680Y775000D01*
X65000D01*
Y806320D01*
D02*
G37*
G36*
X1275000Y773709D02*
Y758436D01*
X1290273D01*
X1290160Y758857D01*
X1286605Y765014D01*
X1281578Y770041D01*
X1275422Y773596D01*
X1275000Y773709D01*
D02*
G37*
G36*
X1255000D02*
X1254578Y773596D01*
X1248422Y770041D01*
X1243395Y765014D01*
X1239840Y758857D01*
X1239727Y758436D01*
X1255000D01*
Y773709D01*
D02*
G37*
G36*
X3345000Y786320D02*
Y755000D01*
X3376320D01*
X3374604Y761404D01*
X3369008Y771096D01*
X3361096Y779008D01*
X3351404Y784604D01*
X3345000Y786320D01*
D02*
G37*
G36*
X3325000D02*
X3318596Y784604D01*
X3308904Y779008D01*
X3300992Y771096D01*
X3295396Y761404D01*
X3293680Y755000D01*
X3325000D01*
Y786320D01*
D02*
G37*
G36*
X934528Y819528D02*
X865472D01*
Y755437D01*
X860472Y753366D01*
X834286Y779553D01*
X834528Y780454D01*
Y789546D01*
X832174Y798327D01*
X827629Y806200D01*
X821200Y812629D01*
X813327Y817174D01*
X804546Y819528D01*
X795454D01*
X786673Y817174D01*
X778800Y812629D01*
X772371Y806200D01*
X767826Y798327D01*
X765472Y789546D01*
Y780454D01*
X767826Y771673D01*
X772371Y763800D01*
X778800Y757371D01*
X786673Y752826D01*
X795454Y750472D01*
X804546D01*
X805447Y750714D01*
X1075108Y481053D01*
X1081724Y476633D01*
X1089528Y475080D01*
X1089528Y475081D01*
X1840473D01*
Y410473D01*
X1854608D01*
Y359527D01*
X1840473D01*
Y319311D01*
X1817026Y295864D01*
X1801764D01*
X1799693Y300864D01*
X1802629Y303800D01*
X1807175Y311673D01*
X1809527Y320454D01*
Y329546D01*
X1807175Y338327D01*
X1802629Y346200D01*
X1796200Y352629D01*
X1788327Y357175D01*
X1779546Y359527D01*
X1770454D01*
X1761673Y357175D01*
X1753800Y352629D01*
X1747371Y346200D01*
X1746904Y345392D01*
X1073447D01*
X792842Y625996D01*
X795431Y630479D01*
X795454Y630472D01*
X804546D01*
X813327Y632826D01*
X821200Y637371D01*
X827629Y643800D01*
X832174Y651673D01*
X834528Y660454D01*
Y669546D01*
X832174Y678327D01*
X827629Y686200D01*
X821200Y692629D01*
X813327Y697174D01*
X804546Y699528D01*
X795454D01*
X786673Y697174D01*
X778800Y692629D01*
X772371Y686200D01*
X767826Y678327D01*
X765472Y669546D01*
Y660454D01*
X765479Y660431D01*
X760996Y657842D01*
X625259Y793580D01*
X623651Y797462D01*
X617462Y803651D01*
X609376Y807000D01*
X600624D01*
X592538Y803651D01*
X586349Y797462D01*
X583000Y789376D01*
Y780624D01*
X586349Y772538D01*
X592538Y766349D01*
X596420Y764741D01*
X1050581Y310581D01*
X1057196Y306160D01*
X1065000Y304608D01*
X1746904D01*
X1747371Y303800D01*
X1750307Y300864D01*
X1748236Y295864D01*
X622974D01*
X459527Y459311D01*
Y499527D01*
X390473D01*
Y430473D01*
X430689D01*
X600108Y261053D01*
X606724Y256633D01*
X614528Y255081D01*
X1825472D01*
X1833276Y256633D01*
X1839892Y261053D01*
X1869311Y290473D01*
X1909527D01*
Y359527D01*
X1895392D01*
Y410473D01*
X1909527D01*
Y475081D01*
X2031081D01*
X2089741Y416421D01*
X2091349Y412538D01*
X2097538Y406349D01*
X2105624Y403000D01*
X2114376D01*
X2122462Y406349D01*
X2128651Y412538D01*
X2132000Y420624D01*
Y429376D01*
X2128651Y437462D01*
X2122462Y443651D01*
X2118579Y445259D01*
X2053947Y509892D01*
X2047331Y514312D01*
X2039528Y515864D01*
X1901764D01*
X1899693Y520864D01*
X1902629Y523800D01*
X1907175Y531673D01*
X1909527Y540454D01*
Y549546D01*
X1907175Y558327D01*
X1902629Y566200D01*
X1896200Y572629D01*
X1888327Y577174D01*
X1879546Y579528D01*
X1870454D01*
X1861673Y577174D01*
X1853800Y572629D01*
X1847371Y566200D01*
X1846904Y565392D01*
X1813447D01*
X1730259Y648580D01*
X1728651Y652462D01*
X1722462Y658651D01*
X1714376Y662000D01*
X1705624D01*
X1697538Y658651D01*
X1691349Y652462D01*
X1688000Y644376D01*
Y635624D01*
X1691349Y627538D01*
X1697538Y621349D01*
X1701420Y619741D01*
X1790581Y530581D01*
X1797196Y526160D01*
X1805000Y524608D01*
X1846904D01*
X1847371Y523800D01*
X1850307Y520864D01*
X1848236Y515864D01*
X1097974D01*
X868366Y745472D01*
X870437Y750472D01*
X934528D01*
Y819528D01*
D02*
G37*
G36*
X2314546Y809528D02*
X2305454D01*
X2296673Y807174D01*
X2288800Y802629D01*
X2282371Y796200D01*
X2277825Y788327D01*
X2275472Y779546D01*
Y770454D01*
X2275714Y769553D01*
X2160581Y654419D01*
X2156160Y647804D01*
X2154608Y640000D01*
Y596908D01*
X2153537Y596289D01*
X2147109Y589861D01*
X2142563Y581988D01*
X2140210Y573206D01*
Y564115D01*
X2142563Y555333D01*
X2147109Y547460D01*
X2153537Y541032D01*
X2161410Y536486D01*
X2170192Y534133D01*
X2179283D01*
X2188064Y536486D01*
X2195938Y541032D01*
X2202366Y547460D01*
X2206912Y555333D01*
X2209265Y564115D01*
Y573206D01*
X2206912Y581988D01*
X2202366Y589861D01*
X2195938Y596289D01*
X2195392Y596605D01*
Y631553D01*
X2304553Y740714D01*
X2305454Y740472D01*
X2314546D01*
X2323327Y742826D01*
X2331200Y747371D01*
X2337629Y753800D01*
X2342175Y761673D01*
X2344528Y770454D01*
Y779546D01*
X2342175Y788327D01*
X2337629Y796200D01*
X2331200Y802629D01*
X2323327Y807174D01*
X2314546Y809528D01*
D02*
G37*
G36*
X2724528Y794528D02*
X2655472D01*
Y725472D01*
X2724528D01*
Y794528D01*
D02*
G37*
G36*
X2594546D02*
X2585454D01*
X2576673Y792174D01*
X2568800Y787629D01*
X2562371Y781200D01*
X2557825Y773327D01*
X2555472Y764546D01*
Y755454D01*
X2557825Y746673D01*
X2562371Y738800D01*
X2568800Y732371D01*
X2576673Y727826D01*
X2585454Y725472D01*
X2594546D01*
X2603327Y727826D01*
X2611200Y732371D01*
X2617629Y738800D01*
X2622175Y746673D01*
X2624528Y755454D01*
Y764546D01*
X2622175Y773327D01*
X2617629Y781200D01*
X2611200Y787629D01*
X2603327Y792174D01*
X2594546Y794528D01*
D02*
G37*
G36*
X116320Y755000D02*
X85000D01*
Y723680D01*
X91404Y725396D01*
X101096Y730992D01*
X109008Y738904D01*
X114604Y748596D01*
X116320Y755000D01*
D02*
G37*
G36*
X65000D02*
X33680D01*
X35396Y748596D01*
X40992Y738904D01*
X48904Y730992D01*
X58596Y725396D01*
X65000Y723680D01*
Y755000D01*
D02*
G37*
G36*
X1290273Y738436D02*
X1275000D01*
Y723163D01*
X1275422Y723276D01*
X1281578Y726830D01*
X1286605Y731857D01*
X1290160Y738014D01*
X1290273Y738436D01*
D02*
G37*
G36*
X1255000D02*
X1239727D01*
X1239840Y738014D01*
X1243395Y731857D01*
X1248422Y726830D01*
X1254578Y723276D01*
X1255000Y723163D01*
Y738436D01*
D02*
G37*
G36*
X3376320Y735000D02*
X3345000D01*
Y703680D01*
X3351404Y705396D01*
X3361096Y710992D01*
X3369008Y718904D01*
X3374604Y728596D01*
X3376320Y735000D01*
D02*
G37*
G36*
X3325000D02*
X3293680D01*
X3295396Y728596D01*
X3300992Y718904D01*
X3308904Y710992D01*
X3318596Y705396D01*
X3325000Y703680D01*
Y735000D01*
D02*
G37*
G36*
X1149376Y682000D02*
X1140624D01*
X1132538Y678651D01*
X1126349Y672462D01*
X1123000Y664376D01*
Y655624D01*
X1126349Y647538D01*
X1132538Y641349D01*
X1140624Y638000D01*
X1149376D01*
X1157462Y641349D01*
X1163651Y647538D01*
X1167000Y655624D01*
Y664376D01*
X1163651Y672462D01*
X1157462Y678651D01*
X1149376Y682000D01*
D02*
G37*
G36*
X1274376Y662000D02*
X1265624D01*
X1257538Y658651D01*
X1251349Y652462D01*
X1248000Y644376D01*
Y635624D01*
X1251349Y627538D01*
X1257538Y621349D01*
X1265624Y618000D01*
X1274376D01*
X1282462Y621349D01*
X1288651Y627538D01*
X1292000Y635624D01*
Y644376D01*
X1288651Y652462D01*
X1282462Y658651D01*
X1274376Y662000D01*
D02*
G37*
G36*
X1344376Y637000D02*
X1335624D01*
X1327538Y633651D01*
X1321349Y627462D01*
X1318000Y619376D01*
Y610624D01*
X1321349Y602538D01*
X1327538Y596349D01*
X1335624Y593000D01*
X1344376D01*
X1352462Y596349D01*
X1358651Y602538D01*
X1362000Y610624D01*
Y619376D01*
X1358651Y627462D01*
X1352462Y633651D01*
X1344376Y637000D01*
D02*
G37*
G36*
X1179376Y622000D02*
X1170624D01*
X1162538Y618651D01*
X1156349Y612462D01*
X1153000Y604376D01*
Y595624D01*
X1156349Y587538D01*
X1162538Y581349D01*
X1170624Y578000D01*
X1179376D01*
X1187462Y581349D01*
X1193651Y587538D01*
X1197000Y595624D01*
Y604376D01*
X1193651Y612462D01*
X1187462Y618651D01*
X1179376Y622000D01*
D02*
G37*
G36*
X1409376Y617000D02*
X1400624D01*
X1392538Y613651D01*
X1386349Y607462D01*
X1383000Y599376D01*
Y590624D01*
X1386349Y582538D01*
X1392538Y576349D01*
X1400624Y573000D01*
X1409376D01*
X1417462Y576349D01*
X1423651Y582538D01*
X1427000Y590624D01*
Y599376D01*
X1423651Y607462D01*
X1417462Y613651D01*
X1409376Y617000D01*
D02*
G37*
G36*
X2579376Y1052000D02*
X2570624D01*
X2562538Y1048651D01*
X2556349Y1042462D01*
X2554741Y1038580D01*
X2395581Y879419D01*
X2391160Y872804D01*
X2389608Y865000D01*
Y565259D01*
X2388000Y561376D01*
Y552624D01*
X2391349Y544538D01*
X2397538Y538349D01*
X2405624Y535000D01*
X2414376D01*
X2422462Y538349D01*
X2428651Y544538D01*
X2432000Y552624D01*
Y561376D01*
X2430392Y565259D01*
Y856553D01*
X2583579Y1009741D01*
X2587462Y1011349D01*
X2593651Y1017538D01*
X2597000Y1025624D01*
Y1034376D01*
X2593651Y1042462D01*
X2587462Y1048651D01*
X2579376Y1052000D01*
D02*
G37*
G36*
X529546Y499527D02*
X520454D01*
X511673Y497175D01*
X503800Y492629D01*
X497371Y486200D01*
X492825Y478327D01*
X490473Y469546D01*
Y460454D01*
X492825Y451673D01*
X497371Y443800D01*
X503800Y437371D01*
X511673Y432825D01*
X520454Y430473D01*
X529546D01*
X538327Y432825D01*
X546200Y437371D01*
X552629Y443800D01*
X557174Y451673D01*
X559528Y460454D01*
Y469546D01*
X557174Y478327D01*
X552629Y486200D01*
X546200Y492629D01*
X538327Y497175D01*
X529546Y499527D01*
D02*
G37*
G36*
X2724528Y474527D02*
X2655472D01*
Y405473D01*
X2724528D01*
Y474527D01*
D02*
G37*
G36*
X3270000Y259787D02*
Y160000D01*
X3369787D01*
X3367291Y175758D01*
X3361941Y192225D01*
X3354080Y207653D01*
X3343903Y221660D01*
X3331660Y233903D01*
X3317653Y244080D01*
X3302225Y251941D01*
X3285758Y257291D01*
X3270000Y259787D01*
D02*
G37*
G36*
X160000D02*
Y160000D01*
X259787D01*
X257291Y175758D01*
X251941Y192225D01*
X244080Y207653D01*
X233903Y221660D01*
X221660Y233903D01*
X207653Y244080D01*
X192225Y251941D01*
X175758Y257291D01*
X160000Y259787D01*
D02*
G37*
G36*
X3250000D02*
X3234242Y257291D01*
X3217775Y251941D01*
X3202347Y244080D01*
X3188340Y233903D01*
X3176097Y221660D01*
X3165920Y207653D01*
X3158059Y192225D01*
X3152709Y175758D01*
X3150213Y160000D01*
X3250000D01*
Y259787D01*
D02*
G37*
G36*
X140000D02*
X124242Y257291D01*
X107775Y251941D01*
X92347Y244080D01*
X78340Y233903D01*
X66097Y221660D01*
X55920Y207653D01*
X48059Y192225D01*
X42709Y175758D01*
X40213Y160000D01*
X140000D01*
Y259787D01*
D02*
G37*
G36*
X259787Y140000D02*
X160000D01*
Y40213D01*
X175758Y42709D01*
X192225Y48059D01*
X207653Y55920D01*
X221660Y66097D01*
X233903Y78340D01*
X244080Y92347D01*
X251941Y107775D01*
X257291Y124242D01*
X259787Y140000D01*
D02*
G37*
G36*
X3369787D02*
X3270000D01*
Y40213D01*
X3285758Y42709D01*
X3302225Y48059D01*
X3317653Y55920D01*
X3331660Y66097D01*
X3343903Y78340D01*
X3354080Y92347D01*
X3361941Y107775D01*
X3367291Y124242D01*
X3369787Y140000D01*
D02*
G37*
G36*
X3250000D02*
X3150213D01*
X3152709Y124242D01*
X3158059Y107775D01*
X3165920Y92347D01*
X3176097Y78340D01*
X3188340Y66097D01*
X3202347Y55920D01*
X3217775Y48059D01*
X3234242Y42709D01*
X3250000Y40213D01*
Y140000D01*
D02*
G37*
G36*
X140000D02*
X40213D01*
X42709Y124242D01*
X48059Y107775D01*
X55920Y92347D01*
X66097Y78340D01*
X78340Y66097D01*
X92347Y55920D01*
X107775Y48059D01*
X124242Y42709D01*
X140000Y40213D01*
Y140000D01*
D02*
G37*
%LPD*%
G36*
X1700000Y2305000D02*
X1552500D01*
X1626250Y2378750D01*
X1700000Y2305000D01*
D02*
G37*
G36*
X2800000Y210000D02*
X2690000D01*
Y270000D01*
X2760000D01*
Y530000D01*
X2690000D01*
Y590000D01*
X2760000D01*
Y1170000D01*
X2690000D01*
Y1230000D01*
X2800000Y1230000D01*
Y210000D01*
D02*
G37*
D21*
X1783000Y1737000D02*
X1812575Y1707425D01*
X1785000Y1255000D02*
X2265000D01*
X1534674Y1737000D02*
X1783000D01*
X1605000Y1460000D02*
X1670000Y1525000D01*
Y1735000D01*
X1850000Y878918D02*
X1885000Y913918D01*
X1850000Y850000D02*
Y878918D01*
X1885000Y913918D02*
Y915000D01*
X2240000Y490000D02*
X2620000D01*
X2690000Y560000D01*
X2410000Y557000D02*
Y865000D01*
X2575000Y1030000D01*
X2185000Y440000D02*
X2590000D01*
X1790000Y835000D02*
X2185000Y440000D01*
X2039528Y495472D02*
X2110000Y425000D01*
X800000Y785000D02*
X1089528Y495472D01*
X2039528D01*
X2170000Y570000D02*
X2175000Y575000D01*
Y640000D01*
X1872523Y442523D02*
Y445059D01*
X1875000Y325000D02*
Y445000D01*
X1825472Y275472D02*
X1875000Y325000D01*
X614528Y275472D02*
X1825472D01*
X425000Y465000D02*
X614528Y275472D01*
X1065000Y325000D02*
X1775000D01*
X605000Y785000D02*
X1065000Y325000D01*
X2175000Y640000D02*
X2310000Y775000D01*
X2780000Y1539957D02*
Y1900000D01*
X2692565Y1452522D02*
X2780000Y1539957D01*
X2642876Y1452522D02*
X2692565D01*
X2590353Y1400000D02*
X2642876Y1452522D01*
X2590000Y1400000D02*
X2590353D01*
X2775000Y2368657D02*
Y2375000D01*
Y2368657D02*
X2824528Y2319130D01*
Y206243D02*
Y2319130D01*
X2808284Y190000D02*
X2824528Y206243D01*
X2640000Y190000D02*
X2808284D01*
X2590000Y240000D02*
X2640000Y190000D01*
X1812575Y1707425D02*
X1926343D01*
X1811666D02*
X1812575D01*
X1926343D02*
X1938918Y1720000D01*
X1940000D01*
X1463256Y1712826D02*
X1510500D01*
X1395000Y1720000D02*
X1395765Y1719235D01*
X1510500Y1712826D02*
X1534674Y1737000D01*
X1395765Y1719235D02*
X1456848D01*
X1463256Y1712826D01*
X1705000Y835000D02*
X1790000D01*
X1353000Y968000D02*
X1450000Y1065000D01*
X997000Y968000D02*
X1353000D01*
X900000Y1065000D02*
X997000Y968000D01*
X1805000Y545000D02*
X1870000D01*
X1710000Y640000D02*
X1805000Y545000D01*
D22*
X1801713Y2310000D02*
X1816713Y2295000D01*
X1820000D01*
X1525141Y2310000D02*
X1801713D01*
X1550000Y1700000D02*
X1552500D01*
X1602500Y1650000D01*
X1515141Y2300000D02*
X1525141Y2310000D01*
X1510000Y2300000D02*
X1515141D01*
X2490000Y1200000D02*
X2590000D01*
X2450000Y1160000D02*
X2490000Y1200000D01*
X1870000Y1070000D02*
X2256568D01*
X1875000Y2565000D02*
X1910000Y2530000D01*
X1665000Y2565000D02*
X1875000D01*
X1190000Y2895000D02*
X1520000Y2565000D01*
X1590386D01*
X2256568Y1070000D02*
X2500000Y1313432D01*
X2520000Y1760000D02*
X2775000Y2015000D01*
X2500000Y1860000D02*
X2770000Y2130000D01*
X2340000Y1210000D02*
X2460000Y1330000D01*
X2264853Y1050000D02*
X2520000Y1305147D01*
X2480000Y1960000D02*
X2775000Y2255000D01*
X2460000Y2300000D02*
X2775000Y2615000D01*
X2480000Y1321716D02*
Y1960000D01*
X2500000Y1313432D02*
Y1860000D01*
X2293284Y1135000D02*
X2480000Y1321716D01*
X2520000Y1305147D02*
Y1760000D01*
X2460000Y1330000D02*
Y2300000D01*
X1602500Y1650000D02*
X1605000D01*
X1690000Y1395000D02*
X1735000Y1440000D01*
X1740000D01*
X1745000Y1490000D02*
X1805000D01*
X1730000Y1505000D02*
X1745000Y1490000D01*
X1805000D02*
X1855000Y1440000D01*
X1730000Y1505000D02*
Y1550000D01*
X1610000Y1225000D02*
Y1370000D01*
X1535000Y1445000D02*
X1610000Y1370000D01*
X1679569Y834569D02*
X1704569D01*
X1604500Y805500D02*
X1650500D01*
X1679569Y834569D01*
X1704569D02*
X1705000Y835000D01*
X2075000Y1210000D02*
X2340000D01*
X1870000Y1135000D02*
X2293284D01*
X2015564Y1050000D02*
X2264853D01*
X1442620Y877380D02*
X1485000Y835000D01*
X1575000D01*
X1473326Y991674D02*
X1630000Y835000D01*
X1459690Y995310D02*
X1463326Y991674D01*
X1473326D01*
X1950564Y985000D02*
X2015564Y1050000D01*
X2770000Y2130000D02*
Y2135000D01*
X1875000Y985000D02*
X1950564D01*
X1575000Y835000D02*
X1604500Y805500D01*
X1845000Y1650000D02*
X1875000Y1620000D01*
X1730000Y1650000D02*
X1845000D01*
X1690000Y1225000D02*
Y1395000D01*
D23*
X2015000Y2380000D02*
Y2814100D01*
X1950472Y2878627D02*
X2015000Y2814100D01*
X1970000Y2435000D02*
Y2837886D01*
X2045000Y2725000D02*
X2315000D01*
X1935472Y2872414D02*
X1970000Y2837886D01*
X2315000Y2725000D02*
X2470000Y2570000D01*
X1950472Y2878627D02*
Y3555741D01*
X829528Y2840472D02*
X1175000Y2495000D01*
X829528Y2840472D02*
Y3110627D01*
X1175000Y2280000D02*
Y2495000D01*
X850472Y2840741D02*
Y3110895D01*
Y2840741D02*
X1240000Y2451213D01*
Y2280000D02*
Y2451213D01*
X770000Y3170154D02*
X829528Y3110627D01*
X790000Y3171367D02*
X850472Y3110895D01*
X2470000Y2355000D02*
Y2570000D01*
X2045000Y2204100D02*
X2319100D01*
X2470000Y2355000D01*
X1810000Y1969100D02*
X2045000Y2204100D01*
X1810000Y1790000D02*
Y1969100D01*
Y1790000D02*
X1855000Y1745000D01*
X1340000Y2860000D02*
X1565000Y2635000D01*
X1340000Y2860000D02*
Y2900900D01*
X1560408Y2709592D02*
X1570408D01*
X1403986Y2866014D02*
X1560408Y2709592D01*
X1570408D02*
X1575000Y2705000D01*
X1390000Y2881726D02*
X1403986Y2867740D01*
Y2866014D02*
Y2867740D01*
X1390000Y2881726D02*
Y2895000D01*
X1630000Y2835603D02*
Y3110000D01*
X1757603Y2708000D02*
X1817000D01*
X1590000Y3250154D02*
X1740000Y3100154D01*
Y2785000D02*
Y3100154D01*
X1751816Y2735000D02*
X1790000D01*
X1645000Y2841816D02*
X1751816Y2735000D01*
X1905000Y2615000D02*
Y2824100D01*
X1850472Y2878627D02*
X1905000Y2824100D01*
X1630000Y2835603D02*
X1757603Y2708000D01*
X1645000Y2841816D02*
Y3145000D01*
X1817000Y2708000D02*
X1850000Y2675000D01*
X1850472Y2878627D02*
Y3089682D01*
X1690000Y3250154D02*
X1850472Y3089682D01*
X1690000Y3250154D02*
Y3695000D01*
X1490000Y3300000D02*
X1645000Y3145000D01*
X1490000Y3300000D02*
Y3695000D01*
X1629000Y3111000D02*
X1630000Y3110000D01*
X1606154Y3134000D02*
X1629000Y3111154D01*
Y3111000D02*
Y3111154D01*
X1606000Y3134000D02*
X1606154D01*
X1390000Y3350000D02*
X1606000Y3134000D01*
X1390000Y3350000D02*
Y3695000D01*
X1590000Y3250154D02*
Y3695000D01*
X1251000Y2989900D02*
X1340000Y2900900D01*
X890000Y3695000D02*
X1251000Y3334000D01*
Y2989900D02*
Y3334000D01*
X2335373Y3510219D02*
X2390000Y3564846D01*
Y3595000D02*
X2490000Y3695000D01*
X2390000Y3564846D02*
Y3595000D01*
X2120000Y3440000D02*
X2190219Y3510219D01*
X2335373D01*
X2590000Y3650000D02*
Y3695000D01*
X2420000Y3480000D02*
X2590000Y3650000D01*
X2255000Y3480000D02*
X2420000D01*
X1935472Y2872414D02*
Y3549528D01*
X1890000Y3616213D02*
X1950472Y3555741D01*
X1790000Y3695000D02*
X1935472Y3549528D01*
X1535348Y1790000D02*
X1810000D01*
X1495174Y1749826D02*
X1535348Y1790000D01*
X982114Y1060000D02*
X1075000D01*
X872114Y1170000D02*
X982114Y1060000D01*
X360000Y1292574D02*
Y2105000D01*
X375000Y1298787D02*
Y2066213D01*
X518787Y1155000D02*
X865900D01*
X512574Y1140000D02*
X825000D01*
X525000Y1170000D02*
X872114D01*
X392114Y1302887D02*
Y2060000D01*
X360000Y1292574D02*
X512574Y1140000D01*
X375000Y1298787D02*
X518787Y1155000D01*
X392114Y1302887D02*
X525000Y1170000D01*
X865900Y1155000D02*
X1015000Y1005900D01*
X825000Y1140000D02*
X900000Y1065000D01*
X360000Y2105000D02*
X555000Y2300000D01*
X594528Y2283627D02*
Y2380472D01*
X555000Y2420000D02*
X594528Y2380472D01*
X568274Y2540000D02*
X582260Y2526014D01*
X583986D02*
X609528Y2500472D01*
X555000Y2540000D02*
X568274D01*
X609528Y2277414D02*
Y2500472D01*
X582260Y2526014D02*
X583986D01*
X392114Y2060000D02*
X609528Y2277414D01*
X485820Y2174920D02*
X594528Y2283627D01*
X483707Y2174920D02*
X485820D01*
X375000Y2066213D02*
X483707Y2174920D01*
X1015000Y1005000D02*
Y1005900D01*
X770000Y3170154D02*
Y3455000D01*
X790000Y3171367D02*
Y3695000D01*
X690000Y3535000D02*
X770000Y3455000D01*
X690000Y3535000D02*
Y3695000D01*
X1890000Y3616213D02*
Y3695000D01*
D24*
X1870000Y545000D02*
X1875000Y540000D01*
X1490000Y2895000D02*
X1625000Y2760000D01*
Y2315000D02*
Y2760000D01*
X2483000Y1080000D02*
X2690000D01*
Y1520000D02*
Y1570543D01*
X2580000Y1680543D02*
X2690000Y1570543D01*
D25*
X590000Y3795000D02*
D03*
X1990000Y3790000D02*
D03*
X2690000Y3010000D02*
D03*
X2590000Y2990000D02*
D03*
X2490000Y3005000D02*
D03*
X2390000Y2995000D02*
D03*
X2290000D02*
D03*
X2190000Y2990000D02*
D03*
X2090000D02*
D03*
X1990000Y2995000D02*
D03*
X1890000D02*
D03*
X1790000D02*
D03*
X1690000Y3005000D02*
D03*
X1590000Y2985000D02*
D03*
X1490000Y3000000D02*
D03*
X1390000Y2990000D02*
D03*
X1190000Y2995000D02*
D03*
X1090000D02*
D03*
X990000D02*
D03*
X890000D02*
D03*
X790000D02*
D03*
X690000D02*
D03*
X590000D02*
D03*
X490000D02*
D03*
X390000Y2985000D02*
D03*
Y3795000D02*
D03*
X490000D02*
D03*
X690000D02*
D03*
X990000D02*
D03*
X890000D02*
D03*
X790000D02*
D03*
X1190000D02*
D03*
X1290000Y3800000D02*
D03*
X1390000Y3795000D02*
D03*
X1090000D02*
D03*
X1490000Y3790000D02*
D03*
X1590000Y3800000D02*
D03*
X1690000Y3795000D02*
D03*
X1790000D02*
D03*
X1890000Y3790000D02*
D03*
X2090000D02*
D03*
X2190000D02*
D03*
X2290000Y3805000D02*
D03*
X2390000Y3780000D02*
D03*
X2590000Y3795000D02*
D03*
X2490000D02*
D03*
X2690000D02*
D03*
D32*
X2040000Y3570000D02*
D03*
X2140000D02*
D03*
X2240000D02*
D03*
X2340000D02*
D03*
X2440000D02*
D03*
X2190000Y3195000D02*
D03*
X2290000D02*
D03*
X2390000D02*
D03*
X2590000D02*
D03*
X890000D02*
D03*
Y3495000D02*
D03*
Y3295000D02*
D03*
Y3395000D02*
D03*
Y3595000D02*
D03*
X1190000Y3095000D02*
D03*
X1090000D02*
D03*
X990000D02*
D03*
X890000D02*
D03*
X790000D02*
D03*
X690000D02*
D03*
X590000D02*
D03*
X490000D02*
D03*
X390000D02*
D03*
Y3695000D02*
D03*
X490000D02*
D03*
X590000D02*
D03*
X690000D02*
D03*
X790000D02*
D03*
X890000D02*
D03*
X990000D02*
D03*
X1090000D02*
D03*
X1190000D02*
D03*
X1290000Y3095000D02*
D03*
Y3695000D02*
D03*
X2690000Y3095000D02*
D03*
Y3695000D02*
D03*
X2590000Y3095000D02*
D03*
X2490000D02*
D03*
X2590000Y3695000D02*
D03*
X2390000Y3095000D02*
D03*
X2290000D02*
D03*
X2190000D02*
D03*
X2090000D02*
D03*
X1990000D02*
D03*
X1890000D02*
D03*
X1790000D02*
D03*
X1690000D02*
D03*
X1590000D02*
D03*
X1490000D02*
D03*
X1390000D02*
D03*
Y3695000D02*
D03*
X1490000D02*
D03*
X1590000D02*
D03*
X1690000D02*
D03*
X1790000D02*
D03*
X1890000D02*
D03*
X1990000D02*
D03*
X2090000D02*
D03*
X2190000D02*
D03*
X2290000D02*
D03*
X2390000D02*
D03*
X2490000D02*
D03*
D33*
X2115000Y2355000D02*
D03*
X2315000D02*
D03*
Y2555000D02*
D03*
X2115000D02*
D03*
X785000Y2355000D02*
D03*
X985000D02*
D03*
Y2555000D02*
D03*
X785000D02*
D03*
X1035000Y1555000D02*
D03*
X1235000D02*
D03*
Y1355000D02*
D03*
X1035000D02*
D03*
Y1855000D02*
D03*
X1235000D02*
D03*
Y2055000D02*
D03*
X1035000D02*
D03*
X2115000Y1855000D02*
D03*
X2315000D02*
D03*
Y2055000D02*
D03*
X2115000D02*
D03*
X535000Y1555000D02*
D03*
X735000D02*
D03*
Y1355000D02*
D03*
X535000D02*
D03*
Y2055000D02*
D03*
X735000D02*
D03*
Y1855000D02*
D03*
X535000D02*
D03*
X2115000Y1555000D02*
D03*
X2315000D02*
D03*
Y1355000D02*
D03*
X2115000D02*
D03*
D34*
X2215000Y2455000D02*
D03*
X885000D02*
D03*
X1135000Y1455000D02*
D03*
Y1955000D02*
D03*
X2215000D02*
D03*
X635000Y1455000D02*
D03*
Y1955000D02*
D03*
X2215000Y1455000D02*
D03*
D35*
X2174737Y568660D02*
D03*
X2310000Y775000D02*
D03*
D36*
X1875000Y445000D02*
D03*
X1730000Y1550000D02*
D03*
X1605000D02*
D03*
D37*
X1875000Y545000D02*
D03*
X1975000Y950000D02*
D03*
X2690000Y1080000D02*
D03*
X800000Y665000D02*
D03*
X2690000Y1720000D02*
D03*
X1880000Y2095000D02*
D03*
X1570000D02*
D03*
X2690000Y240000D02*
D03*
X2590000Y440000D02*
D03*
X2690000Y560000D02*
D03*
X2590000Y1400000D02*
D03*
X2690000Y1520000D02*
D03*
Y1200000D02*
D03*
Y880000D02*
D03*
X2590000Y760000D02*
D03*
X555000Y2540000D02*
D03*
Y2420000D02*
D03*
Y2300000D02*
D03*
X1730000Y1650000D02*
D03*
X1605000D02*
D03*
X2775000Y2255000D02*
D03*
Y2615000D02*
D03*
Y2495000D02*
D03*
Y2375000D02*
D03*
Y2015000D02*
D03*
Y2135000D02*
D03*
X390000Y3895000D02*
D03*
X490000D02*
D03*
X590000D02*
D03*
X690000D02*
D03*
X790000D02*
D03*
X890000D02*
D03*
X990000D02*
D03*
X1090000D02*
D03*
X1190000D02*
D03*
X1290000D02*
D03*
X1390000D02*
D03*
X1490000D02*
D03*
X1590000D02*
D03*
X1690000D02*
D03*
X1790000D02*
D03*
X1890000D02*
D03*
X1990000D02*
D03*
X2090000D02*
D03*
X2190000D02*
D03*
X2290000D02*
D03*
X2390000D02*
D03*
X2490000D02*
D03*
X2590000D02*
D03*
X390000Y2895000D02*
D03*
X490000D02*
D03*
X590000D02*
D03*
X690000D02*
D03*
X790000D02*
D03*
X890000D02*
D03*
X990000D02*
D03*
X1090000D02*
D03*
X1190000D02*
D03*
X1290000D02*
D03*
X1390000D02*
D03*
X1490000D02*
D03*
X1590000D02*
D03*
X1690000D02*
D03*
X1790000D02*
D03*
X1890000D02*
D03*
X1990000D02*
D03*
X2090000D02*
D03*
X2190000D02*
D03*
X2290000D02*
D03*
X2390000D02*
D03*
X2490000D02*
D03*
X2590000D02*
D03*
X525000Y465000D02*
D03*
X900000Y1065000D02*
D03*
X1775000Y325000D02*
D03*
X800000Y785000D02*
D03*
D38*
X3260000Y3915000D02*
D03*
X150000D02*
D03*
X3260000Y150000D02*
D03*
X150000D02*
D03*
D39*
X1780000Y2095000D02*
D03*
X1470000D02*
D03*
X2590000Y240000D02*
D03*
X2690000Y440000D02*
D03*
X2590000Y560000D02*
D03*
X2690000Y1400000D02*
D03*
X2590000Y1520000D02*
D03*
Y1200000D02*
D03*
Y880000D02*
D03*
X2690000Y760000D02*
D03*
X455000Y2540000D02*
D03*
Y2420000D02*
D03*
Y2300000D02*
D03*
X2875000Y2255000D02*
D03*
Y2615000D02*
D03*
Y2495000D02*
D03*
Y2375000D02*
D03*
Y2015000D02*
D03*
Y2135000D02*
D03*
X2690000Y3895000D02*
D03*
Y2895000D02*
D03*
X425000Y465000D02*
D03*
X800000Y1065000D02*
D03*
X1875000Y325000D02*
D03*
X900000Y785000D02*
D03*
D40*
X2015000Y2380000D02*
D03*
X2045000Y2725000D02*
D03*
X1970000Y2435000D02*
D03*
X1820000Y2295000D02*
D03*
X1535000Y1573436D02*
D03*
X1550000Y1700000D02*
D03*
X1265000Y748436D02*
D03*
X1565000Y2275000D02*
D03*
X1701038Y2148952D02*
D03*
X2265000Y1255000D02*
D03*
X1885000Y915000D02*
D03*
X1850000Y845000D02*
D03*
X2410000Y557000D02*
D03*
X2240000Y490000D02*
D03*
X2110000Y425000D02*
D03*
X605000Y785000D02*
D03*
X2575000Y1030000D02*
D03*
X2450000Y1160000D02*
D03*
X1870000Y1070000D02*
D03*
X1910000Y2530000D02*
D03*
X1665000Y2565000D02*
D03*
X1590386D02*
D03*
X1575000Y2705000D02*
D03*
X1790000Y2735000D02*
D03*
X1905000Y2615000D02*
D03*
X1850000Y2675000D02*
D03*
X1740000Y2785000D02*
D03*
X2780000Y1900000D02*
D03*
X2483000Y1080000D02*
D03*
X2580000Y1680543D02*
D03*
X1565000Y2635000D02*
D03*
X2255000Y3480000D02*
D03*
X2120000Y3440000D02*
D03*
X1855000Y1745000D02*
D03*
X1495174Y1749826D02*
D03*
X1940000Y1720000D02*
D03*
X1740000Y1440000D02*
D03*
X1800000D02*
D03*
X1855000D02*
D03*
X1811666Y1707425D02*
D03*
X1395000Y1720000D02*
D03*
X1605000Y1460000D02*
D03*
X1535000Y1445000D02*
D03*
X2075000Y1210000D02*
D03*
X1442620Y877380D02*
D03*
X1459690Y995310D02*
D03*
X1450000Y1065000D02*
D03*
X1075000Y1060000D02*
D03*
X1015000Y1005000D02*
D03*
X1710000Y640000D02*
D03*
X1575000Y835000D02*
D03*
X1705000D02*
D03*
X1630000D02*
D03*
X1875000Y985000D02*
D03*
X1870000Y1135000D02*
D03*
X1785000Y1255000D02*
D03*
X1145000Y660000D02*
D03*
X1175000Y600000D02*
D03*
X1340000Y615000D02*
D03*
X1405000Y595000D02*
D03*
X1270000Y640000D02*
D03*
X1175000Y2280000D02*
D03*
X1240000D02*
D03*
X1510000Y2300000D02*
D03*
X1875000Y1620000D02*
D03*
X1610000Y1225000D02*
D03*
X1690000D02*
D03*
D41*
X3335000Y2845000D02*
D03*
Y1645000D02*
D03*
Y1345000D02*
D03*
Y1045000D02*
D03*
Y3145000D02*
D03*
Y2545000D02*
D03*
Y2245000D02*
D03*
Y1945000D02*
D03*
Y745000D02*
D03*
Y3445000D02*
D03*
X75000Y765000D02*
D03*
Y1065000D02*
D03*
Y1365000D02*
D03*
Y1665000D02*
D03*
Y1965000D02*
D03*
Y2265000D02*
D03*
Y2565000D02*
D03*
Y2865000D02*
D03*
Y3165000D02*
D03*
Y3465000D02*
D03*
D42*
X1585039Y965039D02*
D03*
Y1008346D02*
D03*
Y1051654D02*
D03*
Y1094961D02*
D03*
X1628347Y965039D02*
D03*
Y1008346D02*
D03*
Y1051654D02*
D03*
Y1094961D02*
D03*
X1671654Y965039D02*
D03*
Y1008346D02*
D03*
Y1051654D02*
D03*
Y1094961D02*
D03*
X1714961Y965039D02*
D03*
Y1008346D02*
D03*
Y1051654D02*
D03*
Y1094961D02*
D03*
D56*
X1650000Y1030000D02*
D03*
%TF.MD5,aaf9d28ab2df7557f17d52a87b16dce2*%
M02*
