G04*
G04 #@! TF.GenerationSoftware,Altium Limited,Altium Designer,22.3.1 (43)*
G04*
G04 Layer_Physical_Order=4*
G04 Layer_Color=16711680*
%FSLAX25Y25*%
%MOIN*%
G70*
G04*
G04 #@! TF.SameCoordinates,E19C0AB1-6057-4413-9D38-1CFD4383DBF5*
G04*
G04*
G04 #@! TF.FilePolarity,Positive*
G04*
G01*
G75*
%ADD12C,0.01000*%
%ADD47C,0.03000*%
%ADD48C,0.01500*%
%ADD49C,0.02000*%
%ADD50R,0.05000X0.20000*%
%ADD57C,0.05800*%
%ADD58C,0.08268*%
%ADD59C,0.07874*%
%ADD60C,0.05906*%
%ADD61R,0.05906X0.05906*%
%ADD62C,0.20000*%
%ADD63R,0.05906X0.05906*%
%ADD64C,0.03400*%
%ADD65C,0.06500*%
%ADD66C,0.02500*%
%ADD67R,0.17000X0.17000*%
G36*
X339471Y1529D02*
X1529D01*
Y404971D01*
X339471D01*
Y1529D01*
D02*
G37*
%LPC*%
G36*
X327000Y402479D02*
Y392500D01*
X336979D01*
X336729Y394076D01*
X336194Y395723D01*
X335408Y397265D01*
X334390Y398666D01*
X333166Y399890D01*
X331765Y400908D01*
X330223Y401694D01*
X328576Y402229D01*
X327000Y402479D01*
D02*
G37*
G36*
X16000D02*
Y392500D01*
X25979D01*
X25729Y394076D01*
X25194Y395723D01*
X24408Y397265D01*
X23390Y398666D01*
X22166Y399890D01*
X20765Y400908D01*
X19222Y401694D01*
X17576Y402229D01*
X16000Y402479D01*
D02*
G37*
G36*
X325000D02*
X323424Y402229D01*
X321778Y401694D01*
X320235Y400908D01*
X318834Y399890D01*
X317610Y398666D01*
X316592Y397265D01*
X315806Y395723D01*
X315271Y394076D01*
X315021Y392500D01*
X325000D01*
Y402479D01*
D02*
G37*
G36*
X14000D02*
X12424Y402229D01*
X10778Y401694D01*
X9235Y400908D01*
X7834Y399890D01*
X6610Y398666D01*
X5592Y397265D01*
X4806Y395723D01*
X4271Y394076D01*
X4021Y392500D01*
X14000D01*
Y402479D01*
D02*
G37*
G36*
X272953Y393453D02*
X270000D01*
Y390500D01*
X272953D01*
Y393453D01*
D02*
G37*
G36*
X268000D02*
X265047D01*
Y390500D01*
X268000D01*
Y393453D01*
D02*
G37*
G36*
X272953Y388500D02*
X270000D01*
Y385547D01*
X272953D01*
Y388500D01*
D02*
G37*
G36*
X268000D02*
X265047D01*
Y385547D01*
X268000D01*
Y388500D01*
D02*
G37*
G36*
X336979Y390500D02*
X327000D01*
Y380521D01*
X328576Y380771D01*
X330223Y381306D01*
X331765Y382092D01*
X333166Y383110D01*
X334390Y384334D01*
X335408Y385735D01*
X336194Y387278D01*
X336729Y388924D01*
X336979Y390500D01*
D02*
G37*
G36*
X25979D02*
X16000D01*
Y380521D01*
X17576Y380771D01*
X19222Y381306D01*
X20765Y382092D01*
X22166Y383110D01*
X23390Y384334D01*
X24408Y385735D01*
X25194Y387278D01*
X25729Y388924D01*
X25979Y390500D01*
D02*
G37*
G36*
X325000D02*
X315021D01*
X315271Y388924D01*
X315806Y387278D01*
X316592Y385735D01*
X317610Y384334D01*
X318834Y383110D01*
X320235Y382092D01*
X321778Y381306D01*
X323424Y380771D01*
X325000Y380521D01*
Y390500D01*
D02*
G37*
G36*
X14000D02*
X4021D01*
X4271Y388924D01*
X4806Y387278D01*
X5592Y385735D01*
X6610Y384334D01*
X7834Y383110D01*
X9235Y382092D01*
X10778Y381306D01*
X12424Y380771D01*
X14000Y380521D01*
Y390500D01*
D02*
G37*
G36*
X270000Y373270D02*
Y370500D01*
X272770D01*
X272634Y371005D01*
X272121Y371895D01*
X271395Y372621D01*
X270505Y373134D01*
X270000Y373270D01*
D02*
G37*
G36*
X268000D02*
X267495Y373134D01*
X266605Y372621D01*
X265879Y371895D01*
X265366Y371005D01*
X265230Y370500D01*
X268000D01*
Y373270D01*
D02*
G37*
G36*
X259455Y392953D02*
X258545D01*
X257667Y392718D01*
X256880Y392263D01*
X256237Y391620D01*
X255783Y390833D01*
X255547Y389955D01*
Y389045D01*
X255783Y388167D01*
X255959Y387862D01*
Y371033D01*
X255832Y370812D01*
X255600Y369948D01*
Y369052D01*
X255832Y368188D01*
X256279Y367412D01*
X256912Y366779D01*
X257688Y366332D01*
X257980Y366253D01*
Y365422D01*
X241578Y349020D01*
X227459D01*
X227365Y349246D01*
X227109Y349502D01*
X227316Y350002D01*
X233537D01*
X233927Y350080D01*
X234258Y350301D01*
X239721Y355764D01*
X239942Y356094D01*
X240020Y356485D01*
Y359078D01*
X247425Y366483D01*
X247688Y366332D01*
X248552Y366100D01*
X249448D01*
X250312Y366332D01*
X251088Y366779D01*
X251721Y367412D01*
X252168Y368188D01*
X252400Y369052D01*
Y369948D01*
X252168Y370812D01*
X252041Y371033D01*
Y387862D01*
X252218Y388167D01*
X252453Y389045D01*
Y389955D01*
X252218Y390833D01*
X251763Y391620D01*
X251120Y392263D01*
X250333Y392718D01*
X249455Y392953D01*
X248545D01*
X247667Y392718D01*
X246880Y392263D01*
X246237Y391620D01*
X245782Y390833D01*
X245547Y389955D01*
Y389045D01*
X245782Y388167D01*
X245959Y387862D01*
Y371033D01*
X245832Y370812D01*
X245600Y369948D01*
Y369052D01*
X245832Y368188D01*
X245983Y367925D01*
X238279Y360221D01*
X238058Y359890D01*
X237980Y359500D01*
Y357334D01*
X237900Y357281D01*
X237634Y357369D01*
X237377Y357533D01*
X237168Y358312D01*
X236721Y359088D01*
X236088Y359721D01*
X235312Y360168D01*
X234448Y360400D01*
X233552D01*
X232688Y360168D01*
X231912Y359721D01*
X231279Y359088D01*
X230832Y358312D01*
X230600Y357448D01*
Y356552D01*
X230832Y355688D01*
X231279Y354912D01*
X231912Y354279D01*
X232688Y353832D01*
X233552Y353600D01*
X233966D01*
X234173Y353100D01*
X233115Y352042D01*
X219022D01*
X218632Y351964D01*
X218301Y351743D01*
X212664Y346106D01*
X212438Y346200D01*
X211562D01*
X210754Y345865D01*
X210135Y345246D01*
X209800Y344438D01*
Y343562D01*
X210135Y342754D01*
X210754Y342135D01*
X211562Y341800D01*
X212438D01*
X213246Y342135D01*
X213865Y342754D01*
X214200Y343562D01*
Y344438D01*
X214106Y344664D01*
X219444Y350002D01*
X223684D01*
X223891Y349502D01*
X223635Y349246D01*
X223300Y348438D01*
Y347562D01*
X223635Y346754D01*
X224254Y346135D01*
X225062Y345800D01*
X225938D01*
X226746Y346135D01*
X227365Y346754D01*
X227459Y346980D01*
X242000D01*
X242390Y347058D01*
X242721Y347279D01*
X259721Y364279D01*
X259942Y364610D01*
X260020Y365000D01*
Y366253D01*
X260312Y366332D01*
X261088Y366779D01*
X261721Y367412D01*
X262168Y368188D01*
X262400Y369052D01*
Y369948D01*
X262168Y370812D01*
X262041Y371033D01*
Y387862D01*
X262217Y388167D01*
X262453Y389045D01*
Y389955D01*
X262217Y390833D01*
X261763Y391620D01*
X261120Y392263D01*
X260333Y392718D01*
X259455Y392953D01*
D02*
G37*
G36*
X239455D02*
X238545D01*
X237667Y392718D01*
X236880Y392263D01*
X236237Y391620D01*
X235783Y390833D01*
X235547Y389955D01*
Y389045D01*
X235783Y388167D01*
X235959Y387862D01*
Y371033D01*
X235832Y370812D01*
X235600Y369948D01*
Y369052D01*
X235832Y368188D01*
X236006Y367885D01*
X236117Y367617D01*
X236175Y367594D01*
X236279Y367412D01*
X236912Y366779D01*
X237688Y366332D01*
X238552Y366100D01*
X239448D01*
X240312Y366332D01*
X241088Y366779D01*
X241721Y367412D01*
X241825Y367594D01*
X241883Y367617D01*
X241994Y367885D01*
X242168Y368188D01*
X242400Y369052D01*
Y369948D01*
X242168Y370812D01*
X242041Y371033D01*
Y387862D01*
X242217Y388167D01*
X242453Y389045D01*
Y389955D01*
X242217Y390833D01*
X241763Y391620D01*
X241120Y392263D01*
X240333Y392718D01*
X239455Y392953D01*
D02*
G37*
G36*
X229455D02*
X228545D01*
X227667Y392718D01*
X226880Y392263D01*
X226237Y391620D01*
X225782Y390833D01*
X225547Y389955D01*
Y389045D01*
X225782Y388167D01*
X225959Y387862D01*
Y371033D01*
X225832Y370812D01*
X225600Y369948D01*
Y369052D01*
X225832Y368188D01*
X226279Y367412D01*
X226912Y366779D01*
X227688Y366332D01*
X228552Y366100D01*
X229448D01*
X230312Y366332D01*
X231088Y366779D01*
X231721Y367412D01*
X232168Y368188D01*
X232400Y369052D01*
Y369948D01*
X232168Y370812D01*
X232041Y371033D01*
Y387862D01*
X232218Y388167D01*
X232453Y389045D01*
Y389955D01*
X232218Y390833D01*
X231763Y391620D01*
X231120Y392263D01*
X230333Y392718D01*
X229455Y392953D01*
D02*
G37*
G36*
X219455D02*
X218545D01*
X217667Y392718D01*
X216880Y392263D01*
X216237Y391620D01*
X215782Y390833D01*
X215547Y389955D01*
Y389045D01*
X215782Y388167D01*
X215959Y387862D01*
Y371033D01*
X215832Y370812D01*
X215600Y369948D01*
Y369052D01*
X215832Y368188D01*
X216279Y367412D01*
X216912Y366779D01*
X217688Y366332D01*
X218552Y366100D01*
X219448D01*
X220312Y366332D01*
X221088Y366779D01*
X221721Y367412D01*
X222168Y368188D01*
X222400Y369052D01*
Y369948D01*
X222168Y370812D01*
X222041Y371033D01*
Y387862D01*
X222217Y388167D01*
X222453Y389045D01*
Y389955D01*
X222217Y390833D01*
X221763Y391620D01*
X221120Y392263D01*
X220333Y392718D01*
X219455Y392953D01*
D02*
G37*
G36*
X209455D02*
X208545D01*
X207667Y392718D01*
X206880Y392263D01*
X206237Y391620D01*
X205783Y390833D01*
X205547Y389955D01*
Y389045D01*
X205783Y388167D01*
X205959Y387862D01*
Y371033D01*
X205832Y370812D01*
X205600Y369948D01*
Y369052D01*
X205832Y368188D01*
X206279Y367412D01*
X206912Y366779D01*
X207688Y366332D01*
X208552Y366100D01*
X209448D01*
X210312Y366332D01*
X211088Y366779D01*
X211721Y367412D01*
X212168Y368188D01*
X212400Y369052D01*
Y369948D01*
X212168Y370812D01*
X212041Y371033D01*
Y387862D01*
X212217Y388167D01*
X212453Y389045D01*
Y389955D01*
X212217Y390833D01*
X211763Y391620D01*
X211120Y392263D01*
X210333Y392718D01*
X209455Y392953D01*
D02*
G37*
G36*
X199455D02*
X198545D01*
X197667Y392718D01*
X196880Y392263D01*
X196237Y391620D01*
X195782Y390833D01*
X195547Y389955D01*
Y389045D01*
X195782Y388167D01*
X195959Y387862D01*
Y371033D01*
X195832Y370812D01*
X195600Y369948D01*
Y369052D01*
X195832Y368188D01*
X196279Y367412D01*
X196912Y366779D01*
X197688Y366332D01*
X198552Y366100D01*
X199448D01*
X200312Y366332D01*
X201088Y366779D01*
X201721Y367412D01*
X202168Y368188D01*
X202400Y369052D01*
Y369948D01*
X202168Y370812D01*
X202041Y371033D01*
Y387862D01*
X202218Y388167D01*
X202453Y389045D01*
Y389955D01*
X202218Y390833D01*
X201763Y391620D01*
X201120Y392263D01*
X200333Y392718D01*
X199455Y392953D01*
D02*
G37*
G36*
X129455D02*
X128545D01*
X127667Y392718D01*
X126880Y392263D01*
X126237Y391620D01*
X125783Y390833D01*
X125547Y389955D01*
Y389045D01*
X125783Y388167D01*
X125959Y387862D01*
Y371033D01*
X125832Y370812D01*
X125600Y369948D01*
Y369052D01*
X125832Y368188D01*
X126279Y367412D01*
X126912Y366779D01*
X127688Y366332D01*
X128552Y366100D01*
X129448D01*
X130312Y366332D01*
X131088Y366779D01*
X131721Y367412D01*
X132168Y368188D01*
X132400Y369052D01*
Y369948D01*
X132168Y370812D01*
X132041Y371033D01*
Y387862D01*
X132218Y388167D01*
X132453Y389045D01*
Y389955D01*
X132218Y390833D01*
X131763Y391620D01*
X131120Y392263D01*
X130333Y392718D01*
X129455Y392953D01*
D02*
G37*
G36*
X119455D02*
X118545D01*
X117667Y392718D01*
X116880Y392263D01*
X116237Y391620D01*
X115782Y390833D01*
X115547Y389955D01*
Y389045D01*
X115782Y388167D01*
X115959Y387862D01*
Y371033D01*
X115832Y370812D01*
X115600Y369948D01*
Y369052D01*
X115832Y368188D01*
X116279Y367412D01*
X116912Y366779D01*
X117688Y366332D01*
X118552Y366100D01*
X119448D01*
X120312Y366332D01*
X121088Y366779D01*
X121721Y367412D01*
X122168Y368188D01*
X122400Y369052D01*
Y369948D01*
X122168Y370812D01*
X122041Y371033D01*
Y387862D01*
X122218Y388167D01*
X122453Y389045D01*
Y389955D01*
X122218Y390833D01*
X121763Y391620D01*
X121120Y392263D01*
X120333Y392718D01*
X119455Y392953D01*
D02*
G37*
G36*
X109455D02*
X108545D01*
X107667Y392718D01*
X106880Y392263D01*
X106237Y391620D01*
X105782Y390833D01*
X105547Y389955D01*
Y389045D01*
X105782Y388167D01*
X105959Y387862D01*
Y371033D01*
X105832Y370812D01*
X105600Y369948D01*
Y369052D01*
X105832Y368188D01*
X106279Y367412D01*
X106912Y366779D01*
X107688Y366332D01*
X108552Y366100D01*
X109448D01*
X110312Y366332D01*
X111088Y366779D01*
X111721Y367412D01*
X112168Y368188D01*
X112400Y369052D01*
Y369948D01*
X112168Y370812D01*
X112041Y371033D01*
Y387862D01*
X112217Y388167D01*
X112453Y389045D01*
Y389955D01*
X112217Y390833D01*
X111763Y391620D01*
X111120Y392263D01*
X110333Y392718D01*
X109455Y392953D01*
D02*
G37*
G36*
X99455D02*
X98545D01*
X97667Y392718D01*
X96880Y392263D01*
X96237Y391620D01*
X95783Y390833D01*
X95547Y389955D01*
Y389045D01*
X95783Y388167D01*
X95959Y387862D01*
Y371033D01*
X95832Y370812D01*
X95600Y369948D01*
Y369052D01*
X95832Y368188D01*
X96279Y367412D01*
X96912Y366779D01*
X97688Y366332D01*
X98552Y366100D01*
X99448D01*
X100312Y366332D01*
X101088Y366779D01*
X101721Y367412D01*
X102168Y368188D01*
X102400Y369052D01*
Y369948D01*
X102168Y370812D01*
X102041Y371033D01*
Y387862D01*
X102217Y388167D01*
X102453Y389045D01*
Y389955D01*
X102217Y390833D01*
X101763Y391620D01*
X101120Y392263D01*
X100333Y392718D01*
X99455Y392953D01*
D02*
G37*
G36*
X59455D02*
X58545D01*
X57667Y392718D01*
X56880Y392263D01*
X56237Y391620D01*
X55783Y390833D01*
X55547Y389955D01*
Y389045D01*
X55783Y388167D01*
X55959Y387862D01*
Y371033D01*
X55832Y370812D01*
X55600Y369948D01*
Y369052D01*
X55832Y368188D01*
X56279Y367412D01*
X56912Y366779D01*
X57688Y366332D01*
X58552Y366100D01*
X59448D01*
X60312Y366332D01*
X61088Y366779D01*
X61721Y367412D01*
X62168Y368188D01*
X62400Y369052D01*
Y369948D01*
X62168Y370812D01*
X62041Y371033D01*
Y387862D01*
X62217Y388167D01*
X62453Y389045D01*
Y389955D01*
X62217Y390833D01*
X61763Y391620D01*
X61120Y392263D01*
X60333Y392718D01*
X59455Y392953D01*
D02*
G37*
G36*
X49455D02*
X48545D01*
X47667Y392718D01*
X46880Y392263D01*
X46237Y391620D01*
X45783Y390833D01*
X45547Y389955D01*
Y389045D01*
X45783Y388167D01*
X45959Y387862D01*
Y371033D01*
X45832Y370812D01*
X45600Y369948D01*
Y369052D01*
X45832Y368188D01*
X46279Y367412D01*
X46912Y366779D01*
X47688Y366332D01*
X48552Y366100D01*
X49448D01*
X50312Y366332D01*
X51088Y366779D01*
X51721Y367412D01*
X52168Y368188D01*
X52400Y369052D01*
Y369948D01*
X52168Y370812D01*
X52041Y371033D01*
Y387862D01*
X52217Y388167D01*
X52453Y389045D01*
Y389955D01*
X52217Y390833D01*
X51763Y391620D01*
X51120Y392263D01*
X50333Y392718D01*
X49455Y392953D01*
D02*
G37*
G36*
X39455D02*
X38545D01*
X37667Y392718D01*
X36880Y392263D01*
X36237Y391620D01*
X35783Y390833D01*
X35547Y389955D01*
Y389045D01*
X35783Y388167D01*
X35959Y387862D01*
Y371033D01*
X35832Y370812D01*
X35600Y369948D01*
Y369052D01*
X35832Y368188D01*
X36279Y367412D01*
X36912Y366779D01*
X37688Y366332D01*
X38552Y366100D01*
X39448D01*
X40312Y366332D01*
X41088Y366779D01*
X41721Y367412D01*
X42168Y368188D01*
X42400Y369052D01*
Y369948D01*
X42168Y370812D01*
X42041Y371033D01*
Y387862D01*
X42217Y388167D01*
X42453Y389045D01*
Y389955D01*
X42217Y390833D01*
X41763Y391620D01*
X41120Y392263D01*
X40333Y392718D01*
X39455Y392953D01*
D02*
G37*
G36*
X272770Y368500D02*
X270000D01*
Y365730D01*
X270505Y365866D01*
X271395Y366379D01*
X272121Y367105D01*
X272634Y367995D01*
X272770Y368500D01*
D02*
G37*
G36*
X268000D02*
X265230D01*
X265366Y367995D01*
X265879Y367105D01*
X266605Y366379D01*
X267495Y365866D01*
X268000Y365730D01*
Y368500D01*
D02*
G37*
G36*
X189455Y392953D02*
X188545D01*
X187667Y392718D01*
X186880Y392263D01*
X186237Y391620D01*
X185783Y390833D01*
X185547Y389955D01*
Y389045D01*
X185783Y388167D01*
X185959Y387862D01*
Y371033D01*
X185832Y370812D01*
X185600Y369948D01*
Y369052D01*
X185832Y368188D01*
X186279Y367412D01*
X186912Y366779D01*
X187688Y366332D01*
X187980Y366253D01*
Y362615D01*
X187519Y362423D01*
X182017Y367925D01*
X182168Y368188D01*
X182400Y369052D01*
Y369948D01*
X182168Y370812D01*
X182041Y371033D01*
Y387862D01*
X182218Y388167D01*
X182453Y389045D01*
Y389955D01*
X182218Y390833D01*
X181763Y391620D01*
X181120Y392263D01*
X180333Y392718D01*
X179455Y392953D01*
X178545D01*
X177667Y392718D01*
X176880Y392263D01*
X176237Y391620D01*
X175783Y390833D01*
X175547Y389955D01*
Y389045D01*
X175783Y388167D01*
X175959Y387862D01*
Y371033D01*
X175832Y370812D01*
X175600Y369948D01*
Y369052D01*
X175832Y368188D01*
X176279Y367412D01*
X176912Y366779D01*
X177688Y366332D01*
X178552Y366100D01*
X179448D01*
X180312Y366332D01*
X180575Y366483D01*
X192528Y354530D01*
Y311190D01*
X192028Y311056D01*
X191721Y311588D01*
X191088Y312221D01*
X190312Y312668D01*
X189448Y312900D01*
X188552D01*
X187688Y312668D01*
X186912Y312221D01*
X186279Y311588D01*
X185832Y310812D01*
X185730Y310434D01*
X185173Y310285D01*
X170020Y325438D01*
Y366253D01*
X170312Y366332D01*
X171088Y366779D01*
X171721Y367412D01*
X172168Y368188D01*
X172400Y369052D01*
Y369948D01*
X172168Y370812D01*
X172041Y371033D01*
Y387862D01*
X172218Y388167D01*
X172453Y389045D01*
Y389955D01*
X172218Y390833D01*
X171763Y391620D01*
X171120Y392263D01*
X170333Y392718D01*
X169455Y392953D01*
X168545D01*
X167667Y392718D01*
X166880Y392263D01*
X166237Y391620D01*
X165782Y390833D01*
X165547Y389955D01*
Y389045D01*
X165782Y388167D01*
X165959Y387862D01*
Y371033D01*
X165832Y370812D01*
X165600Y369948D01*
Y369052D01*
X165832Y368188D01*
X166279Y367412D01*
X166912Y366779D01*
X167688Y366332D01*
X167980Y366253D01*
Y325015D01*
X168058Y324625D01*
X168279Y324294D01*
X179174Y313400D01*
X178966Y312900D01*
X178552D01*
X177688Y312668D01*
X176912Y312221D01*
X176279Y311588D01*
X175832Y310812D01*
X175600Y309948D01*
Y309052D01*
X175832Y308188D01*
X175959Y307967D01*
Y291138D01*
X175783Y290833D01*
X175547Y289955D01*
Y289045D01*
X175783Y288167D01*
X176237Y287380D01*
X176880Y286737D01*
X177667Y286282D01*
X178545Y286047D01*
X179455D01*
X180333Y286282D01*
X181120Y286737D01*
X181763Y287380D01*
X182218Y288167D01*
X182453Y289045D01*
Y289955D01*
X182218Y290833D01*
X182041Y291138D01*
Y307967D01*
X182168Y308188D01*
X182400Y309052D01*
Y309466D01*
X182900Y309674D01*
X184028Y308546D01*
Y287863D01*
X184105Y287473D01*
X184326Y287142D01*
X189480Y281988D01*
Y263459D01*
X189254Y263365D01*
X188635Y262746D01*
X188300Y261938D01*
Y261062D01*
X188635Y260254D01*
X189254Y259635D01*
X190062Y259300D01*
X190938D01*
X191746Y259635D01*
X192365Y260254D01*
X192700Y261062D01*
Y261938D01*
X192365Y262746D01*
X191746Y263365D01*
X191520Y263459D01*
Y282410D01*
X191442Y282800D01*
X191221Y283131D01*
X188805Y285547D01*
X189012Y286047D01*
X189455D01*
X190333Y286282D01*
X191120Y286737D01*
X191763Y287380D01*
X192028Y287839D01*
X192528Y287705D01*
Y287241D01*
X192605Y286851D01*
X192826Y286520D01*
X195980Y283366D01*
Y245459D01*
X195754Y245365D01*
X195135Y244746D01*
X194800Y243938D01*
Y243062D01*
X195135Y242254D01*
X195754Y241635D01*
X196562Y241300D01*
X197438D01*
X198246Y241635D01*
X198865Y242254D01*
X199200Y243062D01*
Y243938D01*
X198865Y244746D01*
X198246Y245365D01*
X198020Y245459D01*
Y282795D01*
X198482Y282986D01*
X200480Y280988D01*
Y239959D01*
X200254Y239865D01*
X199635Y239246D01*
X199300Y238438D01*
Y237562D01*
X199635Y236754D01*
X200254Y236135D01*
X201062Y235800D01*
X201938D01*
X202746Y236135D01*
X203365Y236754D01*
X203700Y237562D01*
Y238438D01*
X203365Y239246D01*
X202746Y239865D01*
X202520Y239959D01*
Y270662D01*
X203020Y270869D01*
X203254Y270635D01*
X204062Y270300D01*
X204938D01*
X205746Y270635D01*
X206365Y271254D01*
X206459Y271480D01*
X231078D01*
X245980Y256578D01*
Y235922D01*
X231488Y221430D01*
X204500D01*
X204110Y221352D01*
X203779Y221131D01*
X191953Y209305D01*
X191453Y209512D01*
Y209955D01*
X191218Y210833D01*
X190763Y211620D01*
X190120Y212263D01*
X189333Y212718D01*
X188455Y212953D01*
X187545D01*
X186667Y212718D01*
X185880Y212263D01*
X185237Y211620D01*
X184783Y210833D01*
X184547Y209955D01*
Y209045D01*
X184783Y208167D01*
X185237Y207380D01*
X185880Y206737D01*
X186667Y206282D01*
X187545Y206047D01*
X187988D01*
X188195Y205547D01*
X180279Y197631D01*
X180058Y197300D01*
X179980Y196910D01*
Y180020D01*
X153535D01*
X153145Y179942D01*
X152814Y179721D01*
X150182Y177089D01*
X149955Y177183D01*
X149080D01*
X148271Y176848D01*
X147652Y176229D01*
X147317Y175420D01*
Y174545D01*
X147524Y174047D01*
X147243Y173542D01*
X146951Y173483D01*
X146465Y173807D01*
X145685Y173963D01*
X140511D01*
X139938Y174200D01*
X139062D01*
X138254Y173865D01*
X137635Y173246D01*
X137300Y172438D01*
Y171562D01*
X137635Y170754D01*
X138254Y170135D01*
X139062Y169800D01*
X139938D01*
X140141Y169884D01*
X144840D01*
X144884Y169841D01*
X145545Y169399D01*
X146326Y169243D01*
X151050D01*
X151830Y169399D01*
X152300Y169712D01*
X152545Y169639D01*
X152800Y169517D01*
X152833Y169482D01*
X153135Y168754D01*
X153754Y168135D01*
X154562Y167800D01*
X155438D01*
X155586Y167861D01*
X157247Y166200D01*
X157047Y165455D01*
Y164545D01*
X157282Y163667D01*
X157737Y162880D01*
X158380Y162237D01*
X159167Y161783D01*
X160045Y161547D01*
X160955D01*
X161833Y161783D01*
X162620Y162237D01*
X163263Y162880D01*
X163717Y163667D01*
X163953Y164545D01*
Y165455D01*
X163717Y166333D01*
X163263Y167120D01*
X162620Y167763D01*
X161833Y168218D01*
X160955Y168453D01*
X160045D01*
X159167Y168218D01*
X158957Y168096D01*
X157200Y169852D01*
Y170438D01*
X156900Y171161D01*
X157104Y171661D01*
X164961D01*
Y153345D01*
X164415Y152798D01*
X163953Y152990D01*
Y158453D01*
X157047D01*
Y151547D01*
X162510D01*
X162701Y151085D01*
X159642Y148026D01*
X159254Y147865D01*
X158635Y147246D01*
X158300Y146438D01*
Y145562D01*
X158635Y144754D01*
X159254Y144135D01*
X160062Y143800D01*
X160938D01*
X161746Y144135D01*
X162365Y144754D01*
X162526Y145142D01*
X168442Y151058D01*
X168884Y151720D01*
X169039Y152500D01*
Y171661D01*
X177455D01*
X179077Y170040D01*
X179302Y169496D01*
X179920Y168877D01*
X180729Y168543D01*
X181604D01*
X181992Y168703D01*
X192634D01*
X193415Y168859D01*
X194076Y169301D01*
X194673Y169898D01*
X195246Y170135D01*
X195865Y170754D01*
X196200Y171562D01*
Y172438D01*
X195865Y173246D01*
X195246Y173865D01*
X194438Y174200D01*
X193562D01*
X192754Y173865D01*
X192135Y173246D01*
X192051Y173043D01*
X191790Y172782D01*
X187546D01*
X187355Y173244D01*
X187365Y173254D01*
X187700Y174062D01*
Y174938D01*
X187365Y175746D01*
X186746Y176365D01*
X185938Y176700D01*
X185062D01*
X184836Y176606D01*
X182020Y179422D01*
Y196488D01*
X204922Y219390D01*
X231910D01*
X232300Y219468D01*
X232631Y219689D01*
X247721Y234779D01*
X247942Y235110D01*
X248020Y235500D01*
Y257000D01*
X247942Y257390D01*
X247721Y257721D01*
X232221Y273221D01*
X231890Y273442D01*
X231500Y273520D01*
X206459D01*
X206365Y273746D01*
X205746Y274365D01*
X204938Y274700D01*
X204062D01*
X203254Y274365D01*
X203020Y274131D01*
X202520Y274338D01*
Y281410D01*
X202442Y281800D01*
X202221Y282131D01*
X198805Y285547D01*
X199012Y286047D01*
X199455D01*
X200333Y286282D01*
X201120Y286737D01*
X201763Y287380D01*
X202218Y288167D01*
X202453Y289045D01*
Y289955D01*
X202218Y290833D01*
X202041Y291138D01*
Y307967D01*
X202168Y308188D01*
X202400Y309052D01*
Y309948D01*
X202168Y310812D01*
X201721Y311588D01*
X201088Y312221D01*
X200312Y312668D01*
X199448Y312900D01*
X198552D01*
X197688Y312668D01*
X196912Y312221D01*
X196567Y311875D01*
X196067Y312082D01*
Y355574D01*
X195989Y355964D01*
X195768Y356295D01*
X190020Y362044D01*
Y366253D01*
X190312Y366332D01*
X191088Y366779D01*
X191721Y367412D01*
X192168Y368188D01*
X192400Y369052D01*
Y369948D01*
X192168Y370812D01*
X192041Y371033D01*
Y387862D01*
X192218Y388167D01*
X192453Y389045D01*
Y389955D01*
X192218Y390833D01*
X191763Y391620D01*
X191120Y392263D01*
X190333Y392718D01*
X189455Y392953D01*
D02*
G37*
G36*
X89448Y362900D02*
X88552D01*
X87688Y362668D01*
X86912Y362221D01*
X86279Y361588D01*
X85832Y360812D01*
X85600Y359948D01*
Y359052D01*
X85832Y358188D01*
X86279Y357412D01*
X86912Y356779D01*
X87688Y356332D01*
X88552Y356100D01*
X89448D01*
X90312Y356332D01*
X91088Y356779D01*
X91721Y357412D01*
X92168Y358188D01*
X92400Y359052D01*
Y359948D01*
X92168Y360812D01*
X91721Y361588D01*
X91088Y362221D01*
X90312Y362668D01*
X89448Y362900D01*
D02*
G37*
G36*
X244448Y360400D02*
X243552D01*
X242688Y360168D01*
X241912Y359721D01*
X241279Y359088D01*
X240832Y358312D01*
X240600Y357448D01*
Y356552D01*
X240832Y355688D01*
X241279Y354912D01*
X241912Y354279D01*
X242688Y353832D01*
X243552Y353600D01*
X244448D01*
X245312Y353832D01*
X246088Y354279D01*
X246721Y354912D01*
X247168Y355688D01*
X247400Y356552D01*
Y357448D01*
X247168Y358312D01*
X246721Y359088D01*
X246088Y359721D01*
X245312Y360168D01*
X244448Y360400D01*
D02*
G37*
G36*
X224448D02*
X223552D01*
X222688Y360168D01*
X221912Y359721D01*
X221279Y359088D01*
X220832Y358312D01*
X220600Y357448D01*
Y356552D01*
X220832Y355688D01*
X221279Y354912D01*
X221912Y354279D01*
X222688Y353832D01*
X223552Y353600D01*
X224448D01*
X225312Y353832D01*
X226088Y354279D01*
X226721Y354912D01*
X227168Y355688D01*
X227400Y356552D01*
Y357448D01*
X227168Y358312D01*
X226721Y359088D01*
X226088Y359721D01*
X225312Y360168D01*
X224448Y360400D01*
D02*
G37*
G36*
X214448D02*
X213552D01*
X212688Y360168D01*
X211912Y359721D01*
X211279Y359088D01*
X210832Y358312D01*
X210600Y357448D01*
Y356552D01*
X210832Y355688D01*
X211279Y354912D01*
X211912Y354279D01*
X212688Y353832D01*
X213552Y353600D01*
X214448D01*
X215312Y353832D01*
X216088Y354279D01*
X216721Y354912D01*
X217168Y355688D01*
X217400Y356552D01*
Y357448D01*
X217168Y358312D01*
X216721Y359088D01*
X216088Y359721D01*
X215312Y360168D01*
X214448Y360400D01*
D02*
G37*
G36*
X204448D02*
X203552D01*
X202688Y360168D01*
X201912Y359721D01*
X201279Y359088D01*
X200832Y358312D01*
X200600Y357448D01*
Y356552D01*
X200832Y355688D01*
X201279Y354912D01*
X201912Y354279D01*
X202688Y353832D01*
X203552Y353600D01*
X204448D01*
X205312Y353832D01*
X206088Y354279D01*
X206721Y354912D01*
X207168Y355688D01*
X207400Y356552D01*
Y357448D01*
X207168Y358312D01*
X206721Y359088D01*
X206088Y359721D01*
X205312Y360168D01*
X204448Y360400D01*
D02*
G37*
G36*
X8500Y350632D02*
Y347500D01*
X11632D01*
X11460Y348140D01*
X10901Y349110D01*
X10110Y349901D01*
X9140Y350460D01*
X8500Y350632D01*
D02*
G37*
G36*
X6500D02*
X5860Y350460D01*
X4890Y349901D01*
X4099Y349110D01*
X3540Y348140D01*
X3368Y347500D01*
X6500D01*
Y350632D01*
D02*
G37*
G36*
X79455Y392953D02*
X78545D01*
X77667Y392718D01*
X76880Y392263D01*
X76237Y391620D01*
X75783Y390833D01*
X75547Y389955D01*
Y389045D01*
X75783Y388167D01*
X75959Y387862D01*
Y371033D01*
X75832Y370812D01*
X75600Y369948D01*
Y369052D01*
X75832Y368188D01*
X76279Y367412D01*
X76912Y366779D01*
X77688Y366332D01*
X77980Y366253D01*
Y346669D01*
X77480Y346462D01*
X70020Y353922D01*
Y366253D01*
X70312Y366332D01*
X71088Y366779D01*
X71721Y367412D01*
X72168Y368188D01*
X72400Y369052D01*
Y369948D01*
X72168Y370812D01*
X72041Y371033D01*
Y387862D01*
X72217Y388167D01*
X72453Y389045D01*
Y389955D01*
X72217Y390833D01*
X71763Y391620D01*
X71120Y392263D01*
X70333Y392718D01*
X69455Y392953D01*
X68545D01*
X67667Y392718D01*
X66880Y392263D01*
X66237Y391620D01*
X65783Y390833D01*
X65547Y389955D01*
Y389045D01*
X65783Y388167D01*
X65959Y387862D01*
Y371033D01*
X65832Y370812D01*
X65600Y369948D01*
Y369052D01*
X65832Y368188D01*
X66279Y367412D01*
X66912Y366779D01*
X67688Y366332D01*
X67980Y366253D01*
Y353500D01*
X68058Y353110D01*
X68279Y352779D01*
X75980Y345078D01*
Y317015D01*
X76058Y316625D01*
X76279Y316295D01*
X79173Y313400D01*
X78966Y312900D01*
X78552D01*
X77688Y312668D01*
X76912Y312221D01*
X76279Y311588D01*
X75832Y310812D01*
X75600Y309948D01*
Y309052D01*
X75832Y308188D01*
X75959Y307967D01*
Y291138D01*
X75783Y290833D01*
X75547Y289955D01*
Y289045D01*
X75783Y288167D01*
X76237Y287380D01*
X76880Y286737D01*
X77667Y286282D01*
X78545Y286047D01*
X79455D01*
X80333Y286282D01*
X81120Y286737D01*
X81433Y287050D01*
X81933Y286843D01*
Y284047D01*
X82011Y283657D01*
X82232Y283326D01*
X116480Y249078D01*
Y229959D01*
X116254Y229865D01*
X115635Y229246D01*
X115300Y228438D01*
Y227562D01*
X115635Y226754D01*
X116254Y226135D01*
X117062Y225800D01*
X117938D01*
X118746Y226135D01*
X119365Y226754D01*
X119700Y227562D01*
Y228438D01*
X119365Y229246D01*
X118746Y229865D01*
X118520Y229959D01*
Y248506D01*
X118982Y248698D01*
X122980Y244699D01*
Y229959D01*
X122754Y229865D01*
X122135Y229246D01*
X121800Y228438D01*
Y227562D01*
X122135Y226754D01*
X122754Y226135D01*
X123562Y225800D01*
X124438D01*
X125246Y226135D01*
X125865Y226754D01*
X126200Y227562D01*
Y228438D01*
X125865Y229246D01*
X125246Y229865D01*
X125020Y229959D01*
Y245121D01*
X124942Y245512D01*
X124721Y245842D01*
X86067Y284496D01*
Y286843D01*
X86567Y287050D01*
X86880Y286737D01*
X87667Y286282D01*
X88545Y286047D01*
X89455D01*
X90333Y286282D01*
X91120Y286737D01*
X91763Y287380D01*
X92217Y288167D01*
X92453Y289045D01*
Y289955D01*
X92217Y290833D01*
X92041Y291138D01*
Y307967D01*
X92168Y308188D01*
X92400Y309052D01*
Y309948D01*
X92168Y310812D01*
X91721Y311588D01*
X91088Y312221D01*
X90312Y312668D01*
X89448Y312900D01*
X88552D01*
X87688Y312668D01*
X86912Y312221D01*
X86412Y311721D01*
X85925Y311716D01*
X85802Y311760D01*
X85768Y311810D01*
X80020Y317559D01*
Y366253D01*
X80312Y366332D01*
X81088Y366779D01*
X81721Y367412D01*
X82168Y368188D01*
X82400Y369052D01*
Y369948D01*
X82168Y370812D01*
X82041Y371033D01*
Y387862D01*
X82217Y388167D01*
X82453Y389045D01*
Y389955D01*
X82217Y390833D01*
X81763Y391620D01*
X81120Y392263D01*
X80333Y392718D01*
X79455Y392953D01*
D02*
G37*
G36*
X89448Y352900D02*
X88552D01*
X87688Y352668D01*
X86912Y352221D01*
X86279Y351588D01*
X85832Y350812D01*
X85600Y349948D01*
Y349052D01*
X85832Y348188D01*
X86279Y347412D01*
X86912Y346779D01*
X87688Y346332D01*
X88552Y346100D01*
X89448D01*
X90312Y346332D01*
X91088Y346779D01*
X91721Y347412D01*
X92168Y348188D01*
X92400Y349052D01*
Y349948D01*
X92168Y350812D01*
X91721Y351588D01*
X91088Y352221D01*
X90312Y352668D01*
X89448Y352900D01*
D02*
G37*
G36*
X334500Y348632D02*
Y345500D01*
X337632D01*
X337460Y346140D01*
X336901Y347110D01*
X336110Y347901D01*
X335140Y348460D01*
X334500Y348632D01*
D02*
G37*
G36*
X332500D02*
X331860Y348460D01*
X330890Y347901D01*
X330099Y347110D01*
X329540Y346140D01*
X329368Y345500D01*
X332500D01*
Y348632D01*
D02*
G37*
G36*
X11632Y345500D02*
X8500D01*
Y342368D01*
X9140Y342540D01*
X10110Y343099D01*
X10901Y343890D01*
X11460Y344860D01*
X11632Y345500D01*
D02*
G37*
G36*
X6500D02*
X3368D01*
X3540Y344860D01*
X4099Y343890D01*
X4890Y343099D01*
X5860Y342540D01*
X6500Y342368D01*
Y345500D01*
D02*
G37*
G36*
X337632Y343500D02*
X334500D01*
Y340368D01*
X335140Y340540D01*
X336110Y341099D01*
X336901Y341890D01*
X337460Y342860D01*
X337632Y343500D01*
D02*
G37*
G36*
X332500D02*
X329368D01*
X329540Y342860D01*
X330099Y341890D01*
X330890Y341099D01*
X331860Y340540D01*
X332500Y340368D01*
Y343500D01*
D02*
G37*
G36*
X89448Y342900D02*
X88552D01*
X87688Y342668D01*
X86912Y342221D01*
X86279Y341588D01*
X85832Y340812D01*
X85600Y339948D01*
Y339052D01*
X85832Y338188D01*
X86279Y337412D01*
X86912Y336779D01*
X87688Y336332D01*
X88552Y336100D01*
X89448D01*
X90312Y336332D01*
X91088Y336779D01*
X91721Y337412D01*
X92168Y338188D01*
X92400Y339052D01*
Y339948D01*
X92168Y340812D01*
X91721Y341588D01*
X91088Y342221D01*
X90312Y342668D01*
X89448Y342900D01*
D02*
G37*
G36*
Y332900D02*
X88552D01*
X87688Y332668D01*
X86912Y332221D01*
X86279Y331588D01*
X85832Y330812D01*
X85600Y329948D01*
Y329052D01*
X85832Y328188D01*
X86279Y327412D01*
X86912Y326779D01*
X87688Y326332D01*
X88552Y326100D01*
X89448D01*
X90312Y326332D01*
X91088Y326779D01*
X91721Y327412D01*
X92168Y328188D01*
X92400Y329052D01*
Y329948D01*
X92168Y330812D01*
X91721Y331588D01*
X91088Y332221D01*
X90312Y332668D01*
X89448Y332900D01*
D02*
G37*
G36*
X8500Y320632D02*
Y317500D01*
X11632D01*
X11460Y318140D01*
X10901Y319110D01*
X10110Y319901D01*
X9140Y320460D01*
X8500Y320632D01*
D02*
G37*
G36*
X6500D02*
X5860Y320460D01*
X4890Y319901D01*
X4099Y319110D01*
X3540Y318140D01*
X3368Y317500D01*
X6500D01*
Y320632D01*
D02*
G37*
G36*
X259448Y322900D02*
X258552D01*
X257688Y322668D01*
X256912Y322221D01*
X256279Y321588D01*
X255832Y320812D01*
X255600Y319948D01*
Y319052D01*
X255832Y318188D01*
X256279Y317412D01*
X256912Y316779D01*
X257688Y316332D01*
X258552Y316100D01*
X259448D01*
X260312Y316332D01*
X261088Y316779D01*
X261721Y317412D01*
X262168Y318188D01*
X262400Y319052D01*
Y319948D01*
X262168Y320812D01*
X261721Y321588D01*
X261088Y322221D01*
X260312Y322668D01*
X259448Y322900D01*
D02*
G37*
G36*
X239448D02*
X238552D01*
X237688Y322668D01*
X236912Y322221D01*
X236279Y321588D01*
X235832Y320812D01*
X235600Y319948D01*
Y319052D01*
X235832Y318188D01*
X236279Y317412D01*
X236912Y316779D01*
X237688Y316332D01*
X238552Y316100D01*
X239448D01*
X240312Y316332D01*
X241088Y316779D01*
X241721Y317412D01*
X242168Y318188D01*
X242400Y319052D01*
Y319948D01*
X242168Y320812D01*
X241721Y321588D01*
X241088Y322221D01*
X240312Y322668D01*
X239448Y322900D01*
D02*
G37*
G36*
X229448D02*
X228552D01*
X227688Y322668D01*
X226912Y322221D01*
X226279Y321588D01*
X225832Y320812D01*
X225600Y319948D01*
Y319052D01*
X225832Y318188D01*
X226279Y317412D01*
X226912Y316779D01*
X227688Y316332D01*
X228552Y316100D01*
X229448D01*
X230312Y316332D01*
X231088Y316779D01*
X231721Y317412D01*
X232168Y318188D01*
X232400Y319052D01*
Y319948D01*
X232168Y320812D01*
X231721Y321588D01*
X231088Y322221D01*
X230312Y322668D01*
X229448Y322900D01*
D02*
G37*
G36*
X219448D02*
X218552D01*
X217688Y322668D01*
X216912Y322221D01*
X216279Y321588D01*
X215832Y320812D01*
X215600Y319948D01*
Y319052D01*
X215832Y318188D01*
X216279Y317412D01*
X216912Y316779D01*
X217688Y316332D01*
X218552Y316100D01*
X219448D01*
X220312Y316332D01*
X221088Y316779D01*
X221721Y317412D01*
X222168Y318188D01*
X222400Y319052D01*
Y319948D01*
X222168Y320812D01*
X221721Y321588D01*
X221088Y322221D01*
X220312Y322668D01*
X219448Y322900D01*
D02*
G37*
G36*
X89448D02*
X88552D01*
X87688Y322668D01*
X86912Y322221D01*
X86279Y321588D01*
X85832Y320812D01*
X85600Y319948D01*
Y319052D01*
X85832Y318188D01*
X86279Y317412D01*
X86912Y316779D01*
X87688Y316332D01*
X88552Y316100D01*
X89448D01*
X90312Y316332D01*
X91088Y316779D01*
X91721Y317412D01*
X92168Y318188D01*
X92400Y319052D01*
Y319948D01*
X92168Y320812D01*
X91721Y321588D01*
X91088Y322221D01*
X90312Y322668D01*
X89448Y322900D01*
D02*
G37*
G36*
X334500Y318632D02*
Y315500D01*
X337632D01*
X337460Y316140D01*
X336901Y317110D01*
X336110Y317901D01*
X335140Y318460D01*
X334500Y318632D01*
D02*
G37*
G36*
X332500D02*
X331860Y318460D01*
X330890Y317901D01*
X330099Y317110D01*
X329540Y316140D01*
X329368Y315500D01*
X332500D01*
Y318632D01*
D02*
G37*
G36*
X11632Y315500D02*
X8500D01*
Y312368D01*
X9140Y312540D01*
X10110Y313099D01*
X10901Y313890D01*
X11460Y314860D01*
X11632Y315500D01*
D02*
G37*
G36*
X6500D02*
X3368D01*
X3540Y314860D01*
X4099Y313890D01*
X4890Y313099D01*
X5860Y312540D01*
X6500Y312368D01*
Y315500D01*
D02*
G37*
G36*
X159455Y392953D02*
X158545D01*
X157667Y392718D01*
X156880Y392263D01*
X156237Y391620D01*
X155782Y390833D01*
X155547Y389955D01*
Y389045D01*
X155782Y388167D01*
X155959Y387862D01*
Y371033D01*
X155832Y370812D01*
X155600Y369948D01*
Y369052D01*
X155832Y368188D01*
X156279Y367412D01*
X156912Y366779D01*
X157688Y366332D01*
X157980Y366253D01*
Y325015D01*
X158058Y324625D01*
X158279Y324294D01*
X169174Y313400D01*
X168966Y312900D01*
X168552D01*
X167688Y312668D01*
X166912Y312221D01*
X166279Y311588D01*
X166020Y311138D01*
X165520Y311272D01*
Y314500D01*
X165442Y314890D01*
X165221Y315221D01*
X150020Y330422D01*
Y366253D01*
X150312Y366332D01*
X151088Y366779D01*
X151721Y367412D01*
X152168Y368188D01*
X152400Y369052D01*
Y369948D01*
X152168Y370812D01*
X152041Y371033D01*
Y387862D01*
X152217Y388167D01*
X152453Y389045D01*
Y389955D01*
X152217Y390833D01*
X151763Y391620D01*
X151120Y392263D01*
X150333Y392718D01*
X149455Y392953D01*
X148545D01*
X147667Y392718D01*
X146880Y392263D01*
X146237Y391620D01*
X145782Y390833D01*
X145547Y389955D01*
Y389045D01*
X145782Y388167D01*
X145959Y387862D01*
Y371033D01*
X145832Y370812D01*
X145600Y369948D01*
Y369052D01*
X145832Y368188D01*
X146279Y367412D01*
X146912Y366779D01*
X147688Y366332D01*
X147980Y366253D01*
Y330000D01*
X148058Y329610D01*
X148279Y329279D01*
X163480Y314078D01*
Y312630D01*
X163019Y312439D01*
X161336Y314121D01*
X161290Y314152D01*
X140020Y335422D01*
Y366253D01*
X140312Y366332D01*
X141088Y366779D01*
X141721Y367412D01*
X142168Y368188D01*
X142400Y369052D01*
Y369948D01*
X142168Y370812D01*
X142041Y371033D01*
Y387862D01*
X142218Y388167D01*
X142453Y389045D01*
Y389955D01*
X142218Y390833D01*
X141763Y391620D01*
X141120Y392263D01*
X140333Y392718D01*
X139455Y392953D01*
X138545D01*
X137667Y392718D01*
X136880Y392263D01*
X136237Y391620D01*
X135783Y390833D01*
X135547Y389955D01*
Y389045D01*
X135783Y388167D01*
X135959Y387862D01*
Y371033D01*
X135832Y370812D01*
X135600Y369948D01*
Y369052D01*
X135832Y368188D01*
X136279Y367412D01*
X136912Y366779D01*
X137688Y366332D01*
X137980Y366253D01*
Y335000D01*
X138058Y334610D01*
X138279Y334279D01*
X159158Y313400D01*
X158951Y312900D01*
X158552D01*
X157688Y312668D01*
X156912Y312221D01*
X156279Y311588D01*
X155832Y310812D01*
X155600Y309948D01*
Y309052D01*
X155832Y308188D01*
X155959Y307967D01*
Y291138D01*
X155782Y290833D01*
X155547Y289955D01*
Y289045D01*
X155782Y288167D01*
X156237Y287380D01*
X156880Y286737D01*
X157667Y286282D01*
X158545Y286047D01*
X159455D01*
X160333Y286282D01*
X161120Y286737D01*
X161480Y287098D01*
X161980Y286890D01*
Y283560D01*
X162058Y283170D01*
X162279Y282839D01*
X175039Y270079D01*
X175370Y269858D01*
X175760Y269780D01*
X181278D01*
X182894Y268164D01*
X182800Y267938D01*
Y267062D01*
X183135Y266254D01*
X183754Y265635D01*
X184562Y265300D01*
X185438D01*
X186246Y265635D01*
X186865Y266254D01*
X187200Y267062D01*
Y267938D01*
X186865Y268746D01*
X186246Y269365D01*
X185438Y269700D01*
X184562D01*
X184336Y269606D01*
X182421Y271521D01*
X182090Y271742D01*
X181700Y271820D01*
X181084D01*
X180892Y272320D01*
X181200Y273062D01*
Y273938D01*
X180865Y274746D01*
X180246Y275365D01*
X179438Y275700D01*
X178562D01*
X177754Y275365D01*
X177135Y274746D01*
X177041Y274520D01*
X175604D01*
X174285Y275838D01*
X174503Y276327D01*
X175246Y276635D01*
X175865Y277254D01*
X176200Y278062D01*
Y278938D01*
X175865Y279746D01*
X175246Y280365D01*
X175020Y280459D01*
Y310015D01*
X174942Y310406D01*
X174721Y310736D01*
X160020Y325438D01*
Y366253D01*
X160312Y366332D01*
X161088Y366779D01*
X161721Y367412D01*
X162168Y368188D01*
X162400Y369052D01*
Y369948D01*
X162168Y370812D01*
X162041Y371033D01*
Y387862D01*
X162217Y388167D01*
X162453Y389045D01*
Y389955D01*
X162217Y390833D01*
X161763Y391620D01*
X161120Y392263D01*
X160333Y392718D01*
X159455Y392953D01*
D02*
G37*
G36*
X130000Y313270D02*
Y310500D01*
X132770D01*
X132634Y311005D01*
X132121Y311895D01*
X131395Y312621D01*
X130505Y313134D01*
X130000Y313270D01*
D02*
G37*
G36*
X260000D02*
Y310500D01*
X262770D01*
X262634Y311005D01*
X262121Y311895D01*
X261395Y312621D01*
X260505Y313134D01*
X260000Y313270D01*
D02*
G37*
G36*
X258000D02*
X257495Y313134D01*
X256605Y312621D01*
X255879Y311895D01*
X255366Y311005D01*
X255230Y310500D01*
X258000D01*
Y313270D01*
D02*
G37*
G36*
X337632Y313500D02*
X334500D01*
Y310368D01*
X335140Y310540D01*
X336110Y311099D01*
X336901Y311890D01*
X337460Y312860D01*
X337632Y313500D01*
D02*
G37*
G36*
X332500D02*
X329368D01*
X329540Y312860D01*
X330099Y311890D01*
X330890Y311099D01*
X331860Y310540D01*
X332500Y310368D01*
Y313500D01*
D02*
G37*
G36*
X262770Y308500D02*
X260000D01*
Y305730D01*
X260505Y305866D01*
X261395Y306379D01*
X262121Y307105D01*
X262634Y307995D01*
X262770Y308500D01*
D02*
G37*
G36*
X132770D02*
X130000D01*
Y305730D01*
X130505Y305866D01*
X131395Y306379D01*
X132121Y307105D01*
X132634Y307995D01*
X132770Y308500D01*
D02*
G37*
G36*
X258000D02*
X255230D01*
X255366Y307995D01*
X255879Y307105D01*
X256605Y306379D01*
X257495Y305866D01*
X258000Y305730D01*
Y308500D01*
D02*
G37*
G36*
X89455Y392953D02*
X88545D01*
X87667Y392718D01*
X86880Y392263D01*
X86237Y391620D01*
X85783Y390833D01*
X85547Y389955D01*
Y389045D01*
X85783Y388167D01*
X85959Y387862D01*
Y371033D01*
X85832Y370812D01*
X85600Y369948D01*
Y369052D01*
X85832Y368188D01*
X86279Y367412D01*
X86912Y366779D01*
X87688Y366332D01*
X88552Y366100D01*
X89448D01*
X90312Y366332D01*
X90575Y366483D01*
X124080Y332978D01*
Y298990D01*
X124158Y298600D01*
X124379Y298269D01*
X128733Y293915D01*
X128542Y293453D01*
X128480D01*
X127474Y293183D01*
X126573Y292663D01*
X125837Y291927D01*
X125317Y291026D01*
X125176Y290500D01*
X129000D01*
Y289500D01*
X130000D01*
Y285676D01*
X130526Y285817D01*
X131427Y286337D01*
X132163Y287073D01*
X132480Y287623D01*
X132980Y287489D01*
Y286000D01*
X133058Y285610D01*
X133279Y285279D01*
X154394Y264164D01*
X154300Y263938D01*
Y263062D01*
X154635Y262254D01*
X155254Y261635D01*
X156062Y261300D01*
X156938D01*
X157746Y261635D01*
X158365Y262254D01*
X158700Y263062D01*
Y263938D01*
X158365Y264746D01*
X157746Y265365D01*
X156938Y265700D01*
X156062D01*
X155836Y265606D01*
X135020Y286422D01*
Y290090D01*
X134942Y290480D01*
X134721Y290811D01*
X126120Y299412D01*
Y306212D01*
X126582Y306403D01*
X126605Y306379D01*
X127495Y305866D01*
X128000Y305730D01*
Y309500D01*
Y313270D01*
X127495Y313134D01*
X126605Y312621D01*
X126582Y312597D01*
X126120Y312788D01*
Y333400D01*
X126042Y333790D01*
X125821Y334121D01*
X92017Y367925D01*
X92168Y368188D01*
X92400Y369052D01*
Y369948D01*
X92168Y370812D01*
X92041Y371033D01*
Y387862D01*
X92217Y388167D01*
X92453Y389045D01*
Y389955D01*
X92217Y390833D01*
X91763Y391620D01*
X91120Y392263D01*
X90333Y392718D01*
X89455Y392953D01*
D02*
G37*
G36*
X260000Y293324D02*
Y290500D01*
X262824D01*
X262683Y291026D01*
X262163Y291927D01*
X261427Y292663D01*
X260526Y293183D01*
X260000Y293324D01*
D02*
G37*
G36*
X258000D02*
X257474Y293183D01*
X256573Y292663D01*
X255837Y291927D01*
X255317Y291026D01*
X255176Y290500D01*
X258000D01*
Y293324D01*
D02*
G37*
G36*
X8500Y290632D02*
Y287500D01*
X11632D01*
X11460Y288140D01*
X10901Y289110D01*
X10110Y289901D01*
X9140Y290460D01*
X8500Y290632D01*
D02*
G37*
G36*
X6500D02*
X5860Y290460D01*
X4890Y289901D01*
X4099Y289110D01*
X3540Y288140D01*
X3368Y287500D01*
X6500D01*
Y290632D01*
D02*
G37*
G36*
X269448Y312900D02*
X268552D01*
X267688Y312668D01*
X266912Y312221D01*
X266279Y311588D01*
X266175Y311406D01*
X266117Y311383D01*
X266006Y311115D01*
X265832Y310812D01*
X265600Y309948D01*
Y309052D01*
X265832Y308188D01*
X265959Y307967D01*
Y292953D01*
X265547D01*
Y286047D01*
X272453D01*
Y292953D01*
X272041D01*
Y307967D01*
X272168Y308188D01*
X272400Y309052D01*
Y309948D01*
X272168Y310812D01*
X271994Y311115D01*
X271883Y311383D01*
X271825Y311406D01*
X271721Y311588D01*
X271088Y312221D01*
X270312Y312668D01*
X269448Y312900D01*
D02*
G37*
G36*
X249448D02*
X248552D01*
X247688Y312668D01*
X246912Y312221D01*
X246279Y311588D01*
X245832Y310812D01*
X245600Y309948D01*
Y309052D01*
X245832Y308188D01*
X245959Y307967D01*
Y291138D01*
X245782Y290833D01*
X245547Y289955D01*
Y289045D01*
X245782Y288167D01*
X246237Y287380D01*
X246880Y286737D01*
X247667Y286282D01*
X248545Y286047D01*
X249455D01*
X250333Y286282D01*
X251120Y286737D01*
X251763Y287380D01*
X252218Y288167D01*
X252453Y289045D01*
Y289955D01*
X252218Y290833D01*
X252041Y291138D01*
Y307967D01*
X252168Y308188D01*
X252400Y309052D01*
Y309948D01*
X252168Y310812D01*
X251721Y311588D01*
X251088Y312221D01*
X250312Y312668D01*
X249448Y312900D01*
D02*
G37*
G36*
X239448D02*
X238552D01*
X237688Y312668D01*
X236912Y312221D01*
X236279Y311588D01*
X235832Y310812D01*
X235600Y309948D01*
Y309052D01*
X235832Y308188D01*
X235959Y307967D01*
Y291138D01*
X235783Y290833D01*
X235547Y289955D01*
Y289045D01*
X235783Y288167D01*
X236237Y287380D01*
X236880Y286737D01*
X237667Y286282D01*
X238545Y286047D01*
X239455D01*
X240333Y286282D01*
X241120Y286737D01*
X241763Y287380D01*
X242217Y288167D01*
X242453Y289045D01*
Y289955D01*
X242217Y290833D01*
X242041Y291138D01*
Y307967D01*
X242168Y308188D01*
X242400Y309052D01*
Y309948D01*
X242168Y310812D01*
X241721Y311588D01*
X241088Y312221D01*
X240312Y312668D01*
X239448Y312900D01*
D02*
G37*
G36*
X229448D02*
X228552D01*
X227688Y312668D01*
X226912Y312221D01*
X226279Y311588D01*
X225832Y310812D01*
X225600Y309948D01*
Y309052D01*
X225832Y308188D01*
X225959Y307967D01*
Y291138D01*
X225782Y290833D01*
X225547Y289955D01*
Y289045D01*
X225782Y288167D01*
X226237Y287380D01*
X226880Y286737D01*
X227667Y286282D01*
X228545Y286047D01*
X229455D01*
X230333Y286282D01*
X231120Y286737D01*
X231763Y287380D01*
X232218Y288167D01*
X232453Y289045D01*
Y289955D01*
X232218Y290833D01*
X232041Y291138D01*
Y307967D01*
X232168Y308188D01*
X232400Y309052D01*
Y309948D01*
X232168Y310812D01*
X231721Y311588D01*
X231088Y312221D01*
X230312Y312668D01*
X229448Y312900D01*
D02*
G37*
G36*
X219448D02*
X218552D01*
X217688Y312668D01*
X216912Y312221D01*
X216279Y311588D01*
X215832Y310812D01*
X215600Y309948D01*
Y309052D01*
X215832Y308188D01*
X215959Y307967D01*
Y291138D01*
X215782Y290833D01*
X215547Y289955D01*
Y289045D01*
X215782Y288167D01*
X216237Y287380D01*
X216880Y286737D01*
X217667Y286282D01*
X218545Y286047D01*
X219455D01*
X220333Y286282D01*
X221120Y286737D01*
X221763Y287380D01*
X222217Y288167D01*
X222453Y289045D01*
Y289955D01*
X222217Y290833D01*
X222041Y291138D01*
Y307967D01*
X222168Y308188D01*
X222400Y309052D01*
Y309948D01*
X222168Y310812D01*
X221721Y311588D01*
X221088Y312221D01*
X220312Y312668D01*
X219448Y312900D01*
D02*
G37*
G36*
X209448D02*
X208552D01*
X207688Y312668D01*
X206912Y312221D01*
X206279Y311588D01*
X205832Y310812D01*
X205600Y309948D01*
Y309052D01*
X205832Y308188D01*
X205959Y307967D01*
Y291138D01*
X205783Y290833D01*
X205547Y289955D01*
Y289045D01*
X205783Y288167D01*
X206237Y287380D01*
X206880Y286737D01*
X207667Y286282D01*
X208545Y286047D01*
X209455D01*
X210333Y286282D01*
X211120Y286737D01*
X211763Y287380D01*
X212217Y288167D01*
X212453Y289045D01*
Y289955D01*
X212217Y290833D01*
X212041Y291138D01*
Y307967D01*
X212168Y308188D01*
X212400Y309052D01*
Y309948D01*
X212168Y310812D01*
X211721Y311588D01*
X211088Y312221D01*
X210312Y312668D01*
X209448Y312900D01*
D02*
G37*
G36*
X109448D02*
X108552D01*
X107688Y312668D01*
X106912Y312221D01*
X106279Y311588D01*
X105832Y310812D01*
X105600Y309948D01*
Y309052D01*
X105832Y308188D01*
X105959Y307967D01*
Y291138D01*
X105782Y290833D01*
X105547Y289955D01*
Y289045D01*
X105782Y288167D01*
X106237Y287380D01*
X106880Y286737D01*
X107667Y286282D01*
X108545Y286047D01*
X109455D01*
X110333Y286282D01*
X111120Y286737D01*
X111763Y287380D01*
X112217Y288167D01*
X112453Y289045D01*
Y289955D01*
X112217Y290833D01*
X112041Y291138D01*
Y307967D01*
X112168Y308188D01*
X112400Y309052D01*
Y309948D01*
X112168Y310812D01*
X111721Y311588D01*
X111088Y312221D01*
X110312Y312668D01*
X109448Y312900D01*
D02*
G37*
G36*
X99448D02*
X98552D01*
X97688Y312668D01*
X96912Y312221D01*
X96279Y311588D01*
X95832Y310812D01*
X95600Y309948D01*
Y309052D01*
X95832Y308188D01*
X95959Y307967D01*
Y291138D01*
X95783Y290833D01*
X95547Y289955D01*
Y289045D01*
X95783Y288167D01*
X96237Y287380D01*
X96880Y286737D01*
X97667Y286282D01*
X98545Y286047D01*
X99455D01*
X100333Y286282D01*
X101120Y286737D01*
X101763Y287380D01*
X102217Y288167D01*
X102453Y289045D01*
Y289955D01*
X102217Y290833D01*
X102041Y291138D01*
Y307967D01*
X102168Y308188D01*
X102400Y309052D01*
Y309948D01*
X102168Y310812D01*
X101721Y311588D01*
X101088Y312221D01*
X100312Y312668D01*
X99448Y312900D01*
D02*
G37*
G36*
X69448D02*
X68552D01*
X67688Y312668D01*
X66912Y312221D01*
X66279Y311588D01*
X65832Y310812D01*
X65600Y309948D01*
Y309052D01*
X65832Y308188D01*
X65959Y307967D01*
Y291138D01*
X65783Y290833D01*
X65547Y289955D01*
Y289045D01*
X65783Y288167D01*
X66237Y287380D01*
X66880Y286737D01*
X67667Y286282D01*
X68545Y286047D01*
X69455D01*
X70333Y286282D01*
X71120Y286737D01*
X71763Y287380D01*
X72217Y288167D01*
X72453Y289045D01*
Y289955D01*
X72217Y290833D01*
X72041Y291138D01*
Y307967D01*
X72168Y308188D01*
X72400Y309052D01*
Y309948D01*
X72168Y310812D01*
X71721Y311588D01*
X71088Y312221D01*
X70312Y312668D01*
X69448Y312900D01*
D02*
G37*
G36*
X59448D02*
X58552D01*
X57688Y312668D01*
X56912Y312221D01*
X56279Y311588D01*
X55832Y310812D01*
X55600Y309948D01*
Y309052D01*
X55832Y308188D01*
X55959Y307967D01*
Y291138D01*
X55783Y290833D01*
X55547Y289955D01*
Y289045D01*
X55783Y288167D01*
X56237Y287380D01*
X56880Y286737D01*
X57667Y286282D01*
X58545Y286047D01*
X59455D01*
X60333Y286282D01*
X61120Y286737D01*
X61763Y287380D01*
X62217Y288167D01*
X62453Y289045D01*
Y289955D01*
X62217Y290833D01*
X62041Y291138D01*
Y307967D01*
X62168Y308188D01*
X62400Y309052D01*
Y309948D01*
X62168Y310812D01*
X61721Y311588D01*
X61088Y312221D01*
X60312Y312668D01*
X59448Y312900D01*
D02*
G37*
G36*
X49448D02*
X48552D01*
X47688Y312668D01*
X46912Y312221D01*
X46279Y311588D01*
X45832Y310812D01*
X45600Y309948D01*
Y309052D01*
X45832Y308188D01*
X45959Y307967D01*
Y291138D01*
X45783Y290833D01*
X45547Y289955D01*
Y289045D01*
X45783Y288167D01*
X46237Y287380D01*
X46880Y286737D01*
X47667Y286282D01*
X48545Y286047D01*
X49455D01*
X50333Y286282D01*
X51120Y286737D01*
X51763Y287380D01*
X52217Y288167D01*
X52453Y289045D01*
Y289955D01*
X52217Y290833D01*
X52041Y291138D01*
Y307967D01*
X52168Y308188D01*
X52400Y309052D01*
Y309948D01*
X52168Y310812D01*
X51721Y311588D01*
X51088Y312221D01*
X50312Y312668D01*
X49448Y312900D01*
D02*
G37*
G36*
X39448D02*
X38552D01*
X37688Y312668D01*
X36912Y312221D01*
X36279Y311588D01*
X35832Y310812D01*
X35600Y309948D01*
Y309052D01*
X35832Y308188D01*
X35959Y307967D01*
Y291138D01*
X35783Y290833D01*
X35547Y289955D01*
Y289045D01*
X35783Y288167D01*
X36237Y287380D01*
X36880Y286737D01*
X37667Y286282D01*
X38545Y286047D01*
X39455D01*
X40333Y286282D01*
X41120Y286737D01*
X41763Y287380D01*
X42217Y288167D01*
X42453Y289045D01*
Y289955D01*
X42217Y290833D01*
X42041Y291138D01*
Y307967D01*
X42168Y308188D01*
X42400Y309052D01*
Y309948D01*
X42168Y310812D01*
X41721Y311588D01*
X41088Y312221D01*
X40312Y312668D01*
X39448Y312900D01*
D02*
G37*
G36*
X262824Y288500D02*
X260000D01*
Y285676D01*
X260526Y285817D01*
X261427Y286337D01*
X262163Y287073D01*
X262683Y287974D01*
X262824Y288500D01*
D02*
G37*
G36*
X258000D02*
X255176D01*
X255317Y287974D01*
X255837Y287073D01*
X256573Y286337D01*
X257474Y285817D01*
X258000Y285676D01*
Y288500D01*
D02*
G37*
G36*
X128000D02*
X125176D01*
X125317Y287974D01*
X125837Y287073D01*
X126573Y286337D01*
X127474Y285817D01*
X128000Y285676D01*
Y288500D01*
D02*
G37*
G36*
X334500Y288632D02*
Y285500D01*
X337632D01*
X337460Y286140D01*
X336901Y287110D01*
X336110Y287901D01*
X335140Y288460D01*
X334500Y288632D01*
D02*
G37*
G36*
X332500D02*
X331860Y288460D01*
X330890Y287901D01*
X330099Y287110D01*
X329540Y286140D01*
X329368Y285500D01*
X332500D01*
Y288632D01*
D02*
G37*
G36*
X11632Y285500D02*
X8500D01*
Y282368D01*
X9140Y282540D01*
X10110Y283099D01*
X10901Y283890D01*
X11460Y284860D01*
X11632Y285500D01*
D02*
G37*
G36*
X6500D02*
X3368D01*
X3540Y284860D01*
X4099Y283890D01*
X4890Y283099D01*
X5860Y282540D01*
X6500Y282368D01*
Y285500D01*
D02*
G37*
G36*
X337632Y283500D02*
X334500D01*
Y280368D01*
X335140Y280540D01*
X336110Y281099D01*
X336901Y281890D01*
X337460Y282860D01*
X337632Y283500D01*
D02*
G37*
G36*
X332500D02*
X329368D01*
X329540Y282860D01*
X330099Y281890D01*
X330890Y281099D01*
X331860Y280540D01*
X332500Y280368D01*
Y283500D01*
D02*
G37*
G36*
X139448Y312900D02*
X138552D01*
X137688Y312668D01*
X136912Y312221D01*
X136279Y311588D01*
X135832Y310812D01*
X135600Y309948D01*
Y309052D01*
X135832Y308188D01*
X135959Y307967D01*
Y291138D01*
X135783Y290833D01*
X135547Y289955D01*
Y289045D01*
X135783Y288167D01*
X136237Y287380D01*
X136880Y286737D01*
X137667Y286282D01*
X138545Y286047D01*
X139455D01*
X139549Y286073D01*
X139678Y285880D01*
X155300Y270258D01*
Y270062D01*
X155635Y269254D01*
X156254Y268635D01*
X157062Y268300D01*
X157938D01*
X158746Y268635D01*
X159365Y269254D01*
X159700Y270062D01*
Y270938D01*
X159365Y271746D01*
X158746Y272365D01*
X157938Y272700D01*
X157062D01*
X156254Y272365D01*
X156165Y272277D01*
X141412Y287030D01*
X141763Y287380D01*
X142218Y288167D01*
X142453Y289045D01*
Y289955D01*
X142218Y290833D01*
X142041Y291138D01*
Y307967D01*
X142168Y308188D01*
X142400Y309052D01*
Y309948D01*
X142168Y310812D01*
X141721Y311588D01*
X141088Y312221D01*
X140312Y312668D01*
X139448Y312900D01*
D02*
G37*
G36*
X149448D02*
X148552D01*
X147688Y312668D01*
X146912Y312221D01*
X146279Y311588D01*
X145832Y310812D01*
X145600Y309948D01*
Y309052D01*
X145832Y308188D01*
X145959Y307967D01*
Y291138D01*
X145782Y290833D01*
X145547Y289955D01*
Y289045D01*
X145782Y288167D01*
X146237Y287380D01*
X146880Y286737D01*
X147667Y286282D01*
X148545Y286047D01*
X149455D01*
X150113Y286224D01*
X160971Y275366D01*
Y258386D01*
X160471Y258179D01*
X160285Y258365D01*
X159476Y258700D01*
X158601D01*
X157792Y258365D01*
X157202Y257774D01*
X152528D01*
X122187Y288115D01*
X122218Y288167D01*
X122453Y289045D01*
Y289955D01*
X122218Y290833D01*
X122041Y291138D01*
Y307967D01*
X122168Y308188D01*
X122400Y309052D01*
Y309948D01*
X122168Y310812D01*
X121721Y311588D01*
X121088Y312221D01*
X120312Y312668D01*
X119448Y312900D01*
X118552D01*
X117688Y312668D01*
X116912Y312221D01*
X116279Y311588D01*
X115832Y310812D01*
X115600Y309948D01*
Y309052D01*
X115832Y308188D01*
X115959Y307967D01*
Y291138D01*
X115782Y290833D01*
X115547Y289955D01*
Y289045D01*
X115782Y288167D01*
X116237Y287380D01*
X116880Y286737D01*
X117667Y286282D01*
X118545Y286047D01*
X119455D01*
X120333Y286282D01*
X120385Y286313D01*
X151099Y255599D01*
X151512Y255323D01*
X152000Y255225D01*
X157202D01*
X157792Y254635D01*
X158601Y254300D01*
X159476D01*
X160285Y254635D01*
X160471Y254821D01*
X160971Y254614D01*
Y236986D01*
X156259Y232275D01*
X152514D01*
X152026Y232177D01*
X151822Y232041D01*
X151438Y232200D01*
X150562D01*
X149754Y231865D01*
X149135Y231246D01*
X148800Y230438D01*
Y229562D01*
X149135Y228754D01*
X149754Y228135D01*
X150562Y227800D01*
X151438D01*
X152246Y228135D01*
X152865Y228754D01*
X153200Y229562D01*
Y229726D01*
X154200D01*
X154407Y229225D01*
X154340Y229158D01*
X153984Y228542D01*
X153973Y228500D01*
X159027D01*
X159016Y228542D01*
X158660Y229158D01*
X158593Y229225D01*
X158800Y229726D01*
X179643D01*
X179800Y229569D01*
Y229062D01*
X180135Y228254D01*
X180754Y227635D01*
X181562Y227300D01*
X182438D01*
X183246Y227635D01*
X183865Y228254D01*
X184200Y229062D01*
Y229938D01*
X183865Y230746D01*
X183246Y231365D01*
X182438Y231700D01*
X181562D01*
X181358Y231615D01*
X181072Y231901D01*
X180659Y232177D01*
X180171Y232275D01*
X168991D01*
X164029Y237236D01*
Y255409D01*
X164529Y255509D01*
X164635Y255254D01*
X165254Y254635D01*
X166062Y254300D01*
X166938D01*
X167746Y254635D01*
X168337Y255225D01*
X186972D01*
X188800Y253398D01*
Y252562D01*
X189135Y251754D01*
X189754Y251135D01*
X190562Y250800D01*
X191438D01*
X192246Y251135D01*
X192865Y251754D01*
X193200Y252562D01*
Y253438D01*
X192865Y254246D01*
X192246Y254865D01*
X191438Y255200D01*
X190602D01*
X188401Y257401D01*
X187988Y257678D01*
X187500Y257774D01*
X168337D01*
X167746Y258365D01*
X166938Y258700D01*
X166062D01*
X165254Y258365D01*
X164635Y257746D01*
X164529Y257491D01*
X164029Y257591D01*
Y276000D01*
X163913Y276585D01*
X163581Y277081D01*
X152276Y288387D01*
X152453Y289045D01*
Y289955D01*
X152217Y290833D01*
X152041Y291138D01*
Y307967D01*
X152168Y308188D01*
X152400Y309052D01*
Y309948D01*
X152168Y310812D01*
X151721Y311588D01*
X151088Y312221D01*
X150312Y312668D01*
X149448Y312900D01*
D02*
G37*
G36*
X290953Y264953D02*
X284047D01*
Y258047D01*
X290953D01*
Y264953D01*
D02*
G37*
G36*
X277955D02*
X277045D01*
X276167Y264718D01*
X275380Y264263D01*
X274737Y263620D01*
X274283Y262833D01*
X274047Y261955D01*
Y261045D01*
X274283Y260167D01*
X274313Y260115D01*
X245099Y230901D01*
X244823Y230488D01*
X244725Y230000D01*
Y133528D01*
X233472Y122274D01*
X209337D01*
X208746Y122865D01*
X208515Y122961D01*
X208614Y123461D01*
X225674D01*
X226062Y123300D01*
X226938D01*
X227746Y123635D01*
X228365Y124254D01*
X228700Y125062D01*
Y125938D01*
X228365Y126746D01*
X227746Y127365D01*
X226938Y127700D01*
X226062D01*
X225674Y127539D01*
X179326D01*
X178938Y127700D01*
X178062D01*
X177254Y127365D01*
X176635Y126746D01*
X176300Y125938D01*
Y125062D01*
X176635Y124254D01*
X177254Y123635D01*
X178062Y123300D01*
X178938D01*
X179326Y123461D01*
X206385D01*
X206485Y122961D01*
X206254Y122865D01*
X205635Y122246D01*
X205300Y121438D01*
Y120562D01*
X205635Y119754D01*
X206254Y119135D01*
X207062Y118800D01*
X207938D01*
X208746Y119135D01*
X209337Y119726D01*
X233098D01*
X233290Y119264D01*
X228801Y114775D01*
X188837D01*
X188246Y115365D01*
X187438Y115700D01*
X186562D01*
X185754Y115365D01*
X185135Y114746D01*
X184800Y113938D01*
Y113062D01*
X185135Y112254D01*
X185754Y111635D01*
X186562Y111300D01*
X187438D01*
X188246Y111635D01*
X188837Y112225D01*
X228427D01*
X228618Y111764D01*
X225129Y108274D01*
X188837D01*
X188246Y108865D01*
X187438Y109200D01*
X186562D01*
X185754Y108865D01*
X185135Y108246D01*
X184800Y107438D01*
Y106562D01*
X185135Y105754D01*
X185754Y105135D01*
X186562Y104800D01*
X187438D01*
X188246Y105135D01*
X188837Y105726D01*
X199826D01*
X200018Y105264D01*
X194528Y99774D01*
X189337D01*
X188746Y100365D01*
X187938Y100700D01*
X187062D01*
X186254Y100365D01*
X185635Y99746D01*
X185300Y98938D01*
Y98062D01*
X185635Y97254D01*
X186254Y96635D01*
X187062Y96300D01*
X187938D01*
X188746Y96635D01*
X189337Y97225D01*
X194221D01*
X194509Y96725D01*
X194282Y96333D01*
X194047Y95455D01*
Y94545D01*
X194282Y93667D01*
X194737Y92880D01*
X195380Y92237D01*
X196167Y91783D01*
X197045Y91547D01*
X197955D01*
X198833Y91783D01*
X199620Y92237D01*
X200263Y92880D01*
X200717Y93667D01*
X200953Y94545D01*
Y95455D01*
X200717Y96333D01*
X200263Y97120D01*
X199620Y97763D01*
X198833Y98217D01*
X197955Y98453D01*
X197519D01*
X197312Y98953D01*
X202084Y103726D01*
X226485D01*
X226973Y103823D01*
X227386Y104099D01*
X252901Y129613D01*
X253177Y130027D01*
X253274Y130515D01*
Y175472D01*
X276115Y198313D01*
X276167Y198283D01*
X277045Y198047D01*
X277955D01*
X278833Y198283D01*
X279620Y198737D01*
X279914Y199031D01*
X280414Y198824D01*
Y191228D01*
X279914Y191129D01*
X279865Y191246D01*
X279246Y191865D01*
X278438Y192200D01*
X277562D01*
X276754Y191865D01*
X276135Y191246D01*
X275800Y190438D01*
Y189562D01*
X275961Y189174D01*
Y154840D01*
X272953Y151832D01*
X272453Y152039D01*
Y152455D01*
X272217Y153333D01*
X271763Y154120D01*
X271120Y154763D01*
X270529Y155104D01*
Y157054D01*
X270413Y157640D01*
X270081Y158136D01*
X260200Y168017D01*
Y168492D01*
X259865Y169300D01*
X259246Y169919D01*
X258438Y170254D01*
X257562D01*
X256754Y169919D01*
X256135Y169300D01*
X255800Y168492D01*
Y167617D01*
X256135Y166808D01*
X256754Y166189D01*
X257562Y165854D01*
X258037D01*
X267471Y156421D01*
Y155104D01*
X266880Y154763D01*
X266237Y154120D01*
X265782Y153333D01*
X265547Y152455D01*
Y151545D01*
X265782Y150667D01*
X266237Y149880D01*
X266880Y149237D01*
X267667Y148783D01*
X268545Y148547D01*
X268961D01*
X269168Y148047D01*
X268412Y147291D01*
X264288D01*
X263507Y147136D01*
X262846Y146694D01*
X262846Y146694D01*
X259573Y143421D01*
X259455Y143453D01*
X258545D01*
X257667Y143218D01*
X256880Y142763D01*
X256237Y142120D01*
X255783Y141333D01*
X255547Y140455D01*
Y139545D01*
X255783Y138667D01*
X256237Y137880D01*
X256880Y137237D01*
X257667Y136783D01*
X258545Y136547D01*
X259455D01*
X260333Y136783D01*
X261120Y137237D01*
X261763Y137880D01*
X262217Y138667D01*
X262453Y139545D01*
Y140455D01*
X262436Y140517D01*
X265047Y143128D01*
X265547Y143008D01*
Y136547D01*
X272453D01*
Y143453D01*
X271042D01*
X270841Y143953D01*
X279442Y152554D01*
X279884Y153215D01*
X279914Y153364D01*
X280414Y153315D01*
Y123911D01*
X280000Y123541D01*
X269000Y123541D01*
X268787Y123453D01*
X268545D01*
X267667Y123217D01*
X266880Y122763D01*
X266237Y122120D01*
X265782Y121333D01*
X265547Y120455D01*
Y119545D01*
X265782Y118667D01*
X266237Y117880D01*
X266880Y117237D01*
X267667Y116782D01*
X268545Y116547D01*
X268787D01*
X269000Y116459D01*
X275459D01*
Y59541D01*
X269000D01*
X268787Y59453D01*
X268545D01*
X267667Y59217D01*
X266880Y58763D01*
X266237Y58120D01*
X265782Y57333D01*
X265547Y56455D01*
Y55545D01*
X265571Y55455D01*
X262953Y52837D01*
X262453Y53044D01*
Y59453D01*
X255547D01*
Y52547D01*
X261956D01*
X262163Y52047D01*
X261155Y51039D01*
X224826D01*
X224438Y51200D01*
X223562D01*
X222754Y50865D01*
X222135Y50246D01*
X221800Y49438D01*
Y48562D01*
X222135Y47754D01*
X222754Y47135D01*
X223562Y46800D01*
X224438D01*
X224826Y46961D01*
X256371D01*
X256578Y46461D01*
X256237Y46120D01*
X256190Y46039D01*
X219345D01*
X180442Y84942D01*
X179780Y85384D01*
X179000Y85539D01*
X171326D01*
X170938Y85700D01*
X170062D01*
X169254Y85365D01*
X168635Y84746D01*
X168629Y84731D01*
X167957D01*
X167469Y84634D01*
X167056Y84358D01*
X165662Y82964D01*
X165642Y82969D01*
X165200Y83210D01*
Y83938D01*
X164865Y84746D01*
X164246Y85365D01*
X163438Y85700D01*
X162602D01*
X148234Y100069D01*
X148087Y100167D01*
X147834Y100777D01*
X147215Y101396D01*
X146407Y101731D01*
X145531D01*
X144723Y101396D01*
X144104Y100777D01*
X143769Y99969D01*
Y99093D01*
X144104Y98285D01*
X144723Y97666D01*
X145531Y97331D01*
X146407D01*
X147085Y97612D01*
X158823Y85874D01*
X158540Y85451D01*
X157938Y85700D01*
X157062D01*
X156254Y85365D01*
X155663Y84775D01*
X149028D01*
X146462Y87340D01*
Y88176D01*
X146127Y88984D01*
X145508Y89603D01*
X144700Y89938D01*
X143824D01*
X143016Y89603D01*
X142397Y88984D01*
X142062Y88176D01*
Y87300D01*
X142397Y86492D01*
X143016Y85873D01*
X143824Y85538D01*
X144660D01*
X147599Y82599D01*
X148012Y82323D01*
X148500Y82226D01*
X155663D01*
X156254Y81635D01*
X157062Y81300D01*
X157898D01*
X159549Y79649D01*
X159962Y79373D01*
X160450Y79276D01*
X165050D01*
X165538Y79373D01*
X165951Y79649D01*
X168485Y82182D01*
X168706D01*
X169254Y81635D01*
X170062Y81300D01*
X170938D01*
X171326Y81461D01*
X178155D01*
X217058Y42558D01*
X217058Y42558D01*
X217720Y42116D01*
X218500Y41961D01*
X218500Y41961D01*
X256190D01*
X256237Y41880D01*
X256880Y41237D01*
X257667Y40782D01*
X258545Y40547D01*
X259455D01*
X260333Y40782D01*
X261120Y41237D01*
X261763Y41880D01*
X262217Y42667D01*
X262453Y43545D01*
Y44455D01*
X262217Y45333D01*
X261763Y46120D01*
X261422Y46461D01*
X261629Y46961D01*
X262000D01*
X262780Y47116D01*
X263442Y47558D01*
X268455Y52571D01*
X268545Y52547D01*
X268787D01*
X269000Y52459D01*
X275459D01*
Y27541D01*
X269000D01*
X268787Y27453D01*
X268545D01*
X267667Y27218D01*
X266880Y26763D01*
X266237Y26120D01*
X265782Y25333D01*
X265547Y24455D01*
Y23545D01*
X265782Y22667D01*
X266237Y21880D01*
X266578Y21539D01*
X266371Y21039D01*
X264845D01*
X262453Y23431D01*
Y27453D01*
X255547D01*
Y20547D01*
X259569D01*
X262558Y17558D01*
X263220Y17116D01*
X264000Y16961D01*
X280828D01*
X281609Y17116D01*
X282270Y17558D01*
X283895Y19182D01*
X284337Y19844D01*
X284492Y20624D01*
Y198047D01*
X290953D01*
Y204953D01*
X284492D01*
Y210047D01*
X290953D01*
Y216953D01*
X284492D01*
Y222047D01*
X290953D01*
Y228953D01*
X284492D01*
Y231913D01*
X284337Y232693D01*
X283895Y233355D01*
X280795Y236455D01*
X280953Y237045D01*
Y237955D01*
X280717Y238833D01*
X280263Y239620D01*
X279620Y240263D01*
X278833Y240718D01*
X277955Y240953D01*
X277045D01*
X276167Y240718D01*
X275380Y240263D01*
X274737Y239620D01*
X274283Y238833D01*
X274047Y237955D01*
Y237045D01*
X274283Y236167D01*
X274737Y235380D01*
X275380Y234737D01*
X276167Y234282D01*
X277045Y234047D01*
X277435D01*
X280414Y231068D01*
Y228176D01*
X279914Y227969D01*
X279620Y228263D01*
X278833Y228717D01*
X277955Y228953D01*
X277045D01*
X276167Y228717D01*
X275380Y228263D01*
X274737Y227620D01*
X274283Y226833D01*
X274047Y225955D01*
Y225045D01*
X274283Y224167D01*
X274313Y224115D01*
X247736Y197539D01*
X247274Y197730D01*
Y229472D01*
X276115Y258313D01*
X276167Y258282D01*
X277045Y258047D01*
X277955D01*
X278833Y258282D01*
X279620Y258737D01*
X280263Y259380D01*
X280717Y260167D01*
X280953Y261045D01*
Y261955D01*
X280717Y262833D01*
X280263Y263620D01*
X279620Y264263D01*
X278833Y264718D01*
X277955Y264953D01*
D02*
G37*
G36*
X8500Y260632D02*
Y257500D01*
X11632D01*
X11460Y258140D01*
X10901Y259110D01*
X10110Y259901D01*
X9140Y260460D01*
X8500Y260632D01*
D02*
G37*
G36*
X6500D02*
X5860Y260460D01*
X4890Y259901D01*
X4099Y259110D01*
X3540Y258140D01*
X3368Y257500D01*
X6500D01*
Y260632D01*
D02*
G37*
G36*
X232500Y260547D02*
Y256500D01*
X236547D01*
X236284Y257482D01*
X235608Y258652D01*
X234652Y259608D01*
X233482Y260284D01*
X232500Y260547D01*
D02*
G37*
G36*
X230500D02*
X229518Y260284D01*
X228348Y259608D01*
X227392Y258652D01*
X226716Y257482D01*
X226453Y256500D01*
X230500D01*
Y260547D01*
D02*
G37*
G36*
X212500D02*
Y256500D01*
X216547D01*
X216284Y257482D01*
X215608Y258652D01*
X214652Y259608D01*
X213482Y260284D01*
X212500Y260547D01*
D02*
G37*
G36*
X210500D02*
X209518Y260284D01*
X208348Y259608D01*
X207392Y258652D01*
X206716Y257482D01*
X206453Y256500D01*
X210500D01*
Y260547D01*
D02*
G37*
G36*
X99500D02*
Y256500D01*
X103547D01*
X103284Y257482D01*
X102608Y258652D01*
X101652Y259608D01*
X100482Y260284D01*
X99500Y260547D01*
D02*
G37*
G36*
X97500D02*
X96518Y260284D01*
X95348Y259608D01*
X94392Y258652D01*
X93716Y257482D01*
X93453Y256500D01*
X97500D01*
Y260547D01*
D02*
G37*
G36*
X79500D02*
Y256500D01*
X83547D01*
X83284Y257482D01*
X82608Y258652D01*
X81652Y259608D01*
X80482Y260284D01*
X79500Y260547D01*
D02*
G37*
G36*
X77500D02*
X76518Y260284D01*
X75348Y259608D01*
X74392Y258652D01*
X73716Y257482D01*
X73453Y256500D01*
X77500D01*
Y260547D01*
D02*
G37*
G36*
X334500Y258632D02*
Y255500D01*
X337632D01*
X337460Y256140D01*
X336901Y257110D01*
X336110Y257901D01*
X335140Y258460D01*
X334500Y258632D01*
D02*
G37*
G36*
X332500D02*
X331860Y258460D01*
X330890Y257901D01*
X330099Y257110D01*
X329540Y256140D01*
X329368Y255500D01*
X332500D01*
Y258632D01*
D02*
G37*
G36*
X11632Y255500D02*
X8500D01*
Y252368D01*
X9140Y252540D01*
X10110Y253099D01*
X10901Y253890D01*
X11460Y254860D01*
X11632Y255500D01*
D02*
G37*
G36*
X6500D02*
X3368D01*
X3540Y254860D01*
X4099Y253890D01*
X4890Y253099D01*
X5860Y252540D01*
X6500Y252368D01*
Y255500D01*
D02*
G37*
G36*
X48953Y257453D02*
X42047D01*
Y250547D01*
X48953D01*
Y257453D01*
D02*
G37*
G36*
X236547Y254500D02*
X232500D01*
Y250453D01*
X233482Y250716D01*
X234652Y251392D01*
X235608Y252348D01*
X236284Y253518D01*
X236547Y254500D01*
D02*
G37*
G36*
X230500D02*
X226453D01*
X226716Y253518D01*
X227392Y252348D01*
X228348Y251392D01*
X229518Y250716D01*
X230500Y250453D01*
Y254500D01*
D02*
G37*
G36*
X216547D02*
X212500D01*
Y250453D01*
X213482Y250716D01*
X214652Y251392D01*
X215608Y252348D01*
X216284Y253518D01*
X216547Y254500D01*
D02*
G37*
G36*
X210500D02*
X206453D01*
X206716Y253518D01*
X207392Y252348D01*
X208348Y251392D01*
X209518Y250716D01*
X210500Y250453D01*
Y254500D01*
D02*
G37*
G36*
X103547D02*
X99500D01*
Y250453D01*
X100482Y250716D01*
X101652Y251392D01*
X102608Y252348D01*
X103284Y253518D01*
X103547Y254500D01*
D02*
G37*
G36*
X97500D02*
X93453D01*
X93716Y253518D01*
X94392Y252348D01*
X95348Y251392D01*
X96518Y250716D01*
X97500Y250453D01*
Y254500D01*
D02*
G37*
G36*
X83547D02*
X79500D01*
Y250453D01*
X80482Y250716D01*
X81652Y251392D01*
X82608Y252348D01*
X83284Y253518D01*
X83547Y254500D01*
D02*
G37*
G36*
X77500D02*
X73453D01*
X73716Y253518D01*
X74392Y252348D01*
X75348Y251392D01*
X76518Y250716D01*
X77500Y250453D01*
Y254500D01*
D02*
G37*
G36*
X337632Y253500D02*
X334500D01*
Y250368D01*
X335140Y250540D01*
X336110Y251099D01*
X336901Y251890D01*
X337460Y252860D01*
X337632Y253500D01*
D02*
G37*
G36*
X332500D02*
X329368D01*
X329540Y252860D01*
X330099Y251890D01*
X330890Y251099D01*
X331860Y250540D01*
X332500Y250368D01*
Y253500D01*
D02*
G37*
G36*
X290953Y252953D02*
X284047D01*
Y246047D01*
X290953D01*
Y252953D01*
D02*
G37*
G36*
X277955D02*
X277045D01*
X276167Y252717D01*
X275380Y252263D01*
X274737Y251620D01*
X274283Y250833D01*
X274047Y249955D01*
Y249045D01*
X274283Y248167D01*
X274737Y247380D01*
X275380Y246737D01*
X276167Y246283D01*
X277045Y246047D01*
X277955D01*
X278833Y246283D01*
X279620Y246737D01*
X280263Y247380D01*
X280717Y248167D01*
X280953Y249045D01*
Y249955D01*
X280717Y250833D01*
X280263Y251620D01*
X279620Y252263D01*
X278833Y252717D01*
X277955Y252953D01*
D02*
G37*
G36*
X222084Y249937D02*
X220916D01*
X219787Y249635D01*
X218776Y249050D01*
X217950Y248224D01*
X217365Y247213D01*
X217063Y246084D01*
Y244916D01*
X217365Y243787D01*
X217950Y242776D01*
X218776Y241950D01*
X219787Y241365D01*
X220916Y241063D01*
X222084D01*
X223213Y241365D01*
X224224Y241950D01*
X225050Y242776D01*
X225635Y243787D01*
X225937Y244916D01*
Y246084D01*
X225635Y247213D01*
X225050Y248224D01*
X224224Y249050D01*
X223213Y249635D01*
X222084Y249937D01*
D02*
G37*
G36*
X89084D02*
X87916D01*
X86787Y249635D01*
X85776Y249050D01*
X84949Y248224D01*
X84365Y247213D01*
X84063Y246084D01*
Y244916D01*
X84365Y243787D01*
X84949Y242776D01*
X85776Y241950D01*
X86787Y241365D01*
X87916Y241063D01*
X89084D01*
X90213Y241365D01*
X91224Y241950D01*
X92050Y242776D01*
X92635Y243787D01*
X92937Y244916D01*
Y246084D01*
X92635Y247213D01*
X92050Y248224D01*
X91224Y249050D01*
X90213Y249635D01*
X89084Y249937D01*
D02*
G37*
G36*
X55955Y257453D02*
X55045D01*
X54167Y257218D01*
X53380Y256763D01*
X52737Y256120D01*
X52283Y255333D01*
X52047Y254455D01*
Y253545D01*
X52283Y252667D01*
X52737Y251880D01*
X53380Y251237D01*
X54167Y250782D01*
X55045Y250547D01*
X55955D01*
X56833Y250782D01*
X57620Y251237D01*
X57970Y251588D01*
X59933Y249625D01*
Y239662D01*
X59471Y239471D01*
X58555Y240387D01*
X58717Y240667D01*
X58953Y241545D01*
Y242455D01*
X58717Y243333D01*
X58263Y244120D01*
X57620Y244763D01*
X56833Y245217D01*
X55955Y245453D01*
X55045D01*
X54167Y245217D01*
X53380Y244763D01*
X52737Y244120D01*
X52283Y243333D01*
X52047Y242455D01*
Y241545D01*
X52283Y240667D01*
X52737Y239880D01*
X53380Y239237D01*
X54167Y238783D01*
X55045Y238547D01*
X55955D01*
X56833Y238783D01*
X57113Y238945D01*
X58433Y237625D01*
Y232657D01*
X57933Y232450D01*
X57620Y232763D01*
X56833Y233218D01*
X55955Y233453D01*
X55045D01*
X54167Y233218D01*
X53380Y232763D01*
X52737Y232120D01*
X52283Y231333D01*
X52047Y230455D01*
Y229545D01*
X52283Y228667D01*
X52445Y228386D01*
X35279Y211221D01*
X35058Y210890D01*
X34980Y210500D01*
Y129257D01*
X35058Y128867D01*
X35279Y128536D01*
X50536Y113279D01*
X50867Y113058D01*
X51257Y112980D01*
X82078D01*
X86945Y108113D01*
X86783Y107833D01*
X86547Y106955D01*
Y106045D01*
X86783Y105167D01*
X87237Y104380D01*
X87880Y103737D01*
X88667Y103282D01*
X89545Y103047D01*
X90455D01*
X90545Y103071D01*
X98258Y95358D01*
X98920Y94916D01*
X99700Y94761D01*
X135300D01*
X136080Y94916D01*
X136742Y95358D01*
X145858Y104474D01*
X146246Y104635D01*
X146865Y105254D01*
X147200Y106062D01*
Y106938D01*
X146865Y107746D01*
X146246Y108365D01*
X145438Y108700D01*
X144562D01*
X143754Y108365D01*
X143135Y107746D01*
X142974Y107358D01*
X134455Y98839D01*
X103604D01*
X103400Y99339D01*
X103700Y100062D01*
Y100938D01*
X103365Y101746D01*
X102746Y102365D01*
X101938Y102700D01*
X101062D01*
X100900Y102632D01*
X99014Y104518D01*
X99205Y104980D01*
X105541D01*
X105635Y104754D01*
X106254Y104135D01*
X107062Y103800D01*
X107938D01*
X108746Y104135D01*
X109365Y104754D01*
X109700Y105562D01*
Y106438D01*
X109365Y107246D01*
X108746Y107865D01*
X107938Y108200D01*
X107062D01*
X106254Y107865D01*
X105635Y107246D01*
X105541Y107020D01*
X98634D01*
X87932Y117721D01*
X87602Y117942D01*
X87211Y118020D01*
X52922D01*
X40231Y130711D01*
Y205578D01*
X61674Y227020D01*
X61895Y227351D01*
X61972Y227741D01*
Y250047D01*
X61895Y250437D01*
X61674Y250768D01*
X59119Y253322D01*
X58927Y253451D01*
X58953Y253545D01*
Y254455D01*
X58717Y255333D01*
X58263Y256120D01*
X57620Y256763D01*
X56833Y257218D01*
X55955Y257453D01*
D02*
G37*
G36*
X48953Y245453D02*
X42047D01*
Y238547D01*
X48953D01*
Y245453D01*
D02*
G37*
G36*
X232500Y240547D02*
Y236500D01*
X236547D01*
X236284Y237482D01*
X235608Y238652D01*
X234652Y239608D01*
X233482Y240284D01*
X232500Y240547D01*
D02*
G37*
G36*
X230500D02*
X229518Y240284D01*
X228348Y239608D01*
X227392Y238652D01*
X226716Y237482D01*
X226453Y236500D01*
X230500D01*
Y240547D01*
D02*
G37*
G36*
X212500D02*
Y236500D01*
X216547D01*
X216284Y237482D01*
X215608Y238652D01*
X214652Y239608D01*
X213482Y240284D01*
X212500Y240547D01*
D02*
G37*
G36*
X210500D02*
X209518Y240284D01*
X208348Y239608D01*
X207392Y238652D01*
X206716Y237482D01*
X206453Y236500D01*
X210500D01*
Y240547D01*
D02*
G37*
G36*
X99500D02*
Y236500D01*
X103547D01*
X103284Y237482D01*
X102608Y238652D01*
X101652Y239608D01*
X100482Y240284D01*
X99500Y240547D01*
D02*
G37*
G36*
X97500D02*
X96518Y240284D01*
X95348Y239608D01*
X94392Y238652D01*
X93716Y237482D01*
X93453Y236500D01*
X97500D01*
Y240547D01*
D02*
G37*
G36*
X79500D02*
Y236500D01*
X83547D01*
X83284Y237482D01*
X82608Y238652D01*
X81652Y239608D01*
X80482Y240284D01*
X79500Y240547D01*
D02*
G37*
G36*
X77500D02*
X76518Y240284D01*
X75348Y239608D01*
X74392Y238652D01*
X73716Y237482D01*
X73453Y236500D01*
X77500D01*
Y240547D01*
D02*
G37*
G36*
X290953Y240953D02*
X284047D01*
Y234047D01*
X290953D01*
Y240953D01*
D02*
G37*
G36*
X236547Y234500D02*
X232500D01*
Y230453D01*
X233482Y230716D01*
X234652Y231392D01*
X235608Y232348D01*
X236284Y233518D01*
X236547Y234500D01*
D02*
G37*
G36*
X230500D02*
X226453D01*
X226716Y233518D01*
X227392Y232348D01*
X228348Y231392D01*
X229518Y230716D01*
X230500Y230453D01*
Y234500D01*
D02*
G37*
G36*
X216547D02*
X212500D01*
Y230453D01*
X213482Y230716D01*
X214652Y231392D01*
X215608Y232348D01*
X216284Y233518D01*
X216547Y234500D01*
D02*
G37*
G36*
X210500D02*
X206453D01*
X206716Y233518D01*
X207392Y232348D01*
X208348Y231392D01*
X209518Y230716D01*
X210500Y230453D01*
Y234500D01*
D02*
G37*
G36*
X103547D02*
X99500D01*
Y230453D01*
X100482Y230716D01*
X101652Y231392D01*
X102608Y232348D01*
X103284Y233518D01*
X103547Y234500D01*
D02*
G37*
G36*
X97500D02*
X93453D01*
X93716Y233518D01*
X94392Y232348D01*
X95348Y231392D01*
X96518Y230716D01*
X97500Y230453D01*
Y234500D01*
D02*
G37*
G36*
X83547D02*
X79500D01*
Y230453D01*
X80482Y230716D01*
X81652Y231392D01*
X82608Y232348D01*
X83284Y233518D01*
X83547Y234500D01*
D02*
G37*
G36*
X77500D02*
X73453D01*
X73716Y233518D01*
X74392Y232348D01*
X75348Y231392D01*
X76518Y230716D01*
X77500Y230453D01*
Y234500D01*
D02*
G37*
G36*
X8500Y230632D02*
Y227500D01*
X11632D01*
X11460Y228140D01*
X10901Y229110D01*
X10110Y229901D01*
X9140Y230460D01*
X8500Y230632D01*
D02*
G37*
G36*
X6500D02*
X5860Y230460D01*
X4890Y229901D01*
X4099Y229110D01*
X3540Y228140D01*
X3368Y227500D01*
X6500D01*
Y230632D01*
D02*
G37*
G36*
X48953Y233453D02*
X42047D01*
Y226547D01*
X48953D01*
Y233453D01*
D02*
G37*
G36*
X334500Y228632D02*
Y225500D01*
X337632D01*
X337460Y226140D01*
X336901Y227110D01*
X336110Y227901D01*
X335140Y228460D01*
X334500Y228632D01*
D02*
G37*
G36*
X332500D02*
X331860Y228460D01*
X330890Y227901D01*
X330099Y227110D01*
X329540Y226140D01*
X329368Y225500D01*
X332500D01*
Y228632D01*
D02*
G37*
G36*
X159027Y226500D02*
X157500D01*
Y224973D01*
X157542Y224984D01*
X158158Y225340D01*
X158660Y225842D01*
X159016Y226458D01*
X159027Y226500D01*
D02*
G37*
G36*
X155500D02*
X153973D01*
X153984Y226458D01*
X154340Y225842D01*
X154842Y225340D01*
X155458Y224984D01*
X155500Y224973D01*
Y226500D01*
D02*
G37*
G36*
X11632Y225500D02*
X8500D01*
Y222368D01*
X9140Y222540D01*
X10110Y223099D01*
X10901Y223890D01*
X11460Y224860D01*
X11632Y225500D01*
D02*
G37*
G36*
X6500D02*
X3368D01*
X3540Y224860D01*
X4099Y223890D01*
X4890Y223099D01*
X5860Y222540D01*
X6500Y222368D01*
Y225500D01*
D02*
G37*
G36*
X337632Y223500D02*
X334500D01*
Y220368D01*
X335140Y220540D01*
X336110Y221099D01*
X336901Y221890D01*
X337460Y222860D01*
X337632Y223500D01*
D02*
G37*
G36*
X332500D02*
X329368D01*
X329540Y222860D01*
X330099Y221890D01*
X330890Y221099D01*
X331860Y220540D01*
X332500Y220368D01*
Y223500D01*
D02*
G37*
G36*
X171104Y217423D02*
Y215895D01*
X172631D01*
X172620Y215937D01*
X172264Y216553D01*
X171762Y217056D01*
X171146Y217411D01*
X171104Y217423D01*
D02*
G37*
G36*
X169104D02*
X169062Y217411D01*
X168446Y217056D01*
X167943Y216553D01*
X167588Y215937D01*
X167577Y215895D01*
X169104D01*
Y217423D01*
D02*
G37*
G36*
X172631Y213895D02*
X171104D01*
Y212368D01*
X171146Y212379D01*
X171762Y212735D01*
X172264Y213237D01*
X172620Y213853D01*
X172631Y213895D01*
D02*
G37*
G36*
X169104D02*
X167577D01*
X167588Y213853D01*
X167943Y213237D01*
X168446Y212735D01*
X169062Y212379D01*
X169104Y212368D01*
Y213895D01*
D02*
G37*
G36*
X232500Y210547D02*
Y206500D01*
X236547D01*
X236284Y207482D01*
X235608Y208652D01*
X234652Y209608D01*
X233482Y210284D01*
X232500Y210547D01*
D02*
G37*
G36*
X230500D02*
X229518Y210284D01*
X228348Y209608D01*
X227392Y208652D01*
X226716Y207482D01*
X226453Y206500D01*
X230500D01*
Y210547D01*
D02*
G37*
G36*
X212500D02*
Y206500D01*
X216547D01*
X216284Y207482D01*
X215608Y208652D01*
X214652Y209608D01*
X213482Y210284D01*
X212500Y210547D01*
D02*
G37*
G36*
X210500D02*
X209518Y210284D01*
X208348Y209608D01*
X207392Y208652D01*
X206716Y207482D01*
X206453Y206500D01*
X210500D01*
Y210547D01*
D02*
G37*
G36*
X124500D02*
Y206500D01*
X128547D01*
X128284Y207482D01*
X127608Y208652D01*
X126652Y209608D01*
X125482Y210284D01*
X124500Y210547D01*
D02*
G37*
G36*
X122500D02*
X121518Y210284D01*
X120348Y209608D01*
X119392Y208652D01*
X118716Y207482D01*
X118453Y206500D01*
X122500D01*
Y210547D01*
D02*
G37*
G36*
X104500D02*
Y206500D01*
X108547D01*
X108284Y207482D01*
X107608Y208652D01*
X106652Y209608D01*
X105482Y210284D01*
X104500Y210547D01*
D02*
G37*
G36*
X102500D02*
X101518Y210284D01*
X100348Y209608D01*
X99392Y208652D01*
X98716Y207482D01*
X98453Y206500D01*
X102500D01*
Y210547D01*
D02*
G37*
G36*
X74500D02*
Y206500D01*
X78547D01*
X78284Y207482D01*
X77608Y208652D01*
X76652Y209608D01*
X75482Y210284D01*
X74500Y210547D01*
D02*
G37*
G36*
X72500D02*
X71518Y210284D01*
X70348Y209608D01*
X69392Y208652D01*
X68716Y207482D01*
X68453Y206500D01*
X72500D01*
Y210547D01*
D02*
G37*
G36*
X54500D02*
Y206500D01*
X58547D01*
X58284Y207482D01*
X57608Y208652D01*
X56652Y209608D01*
X55482Y210284D01*
X54500Y210547D01*
D02*
G37*
G36*
X52500D02*
X51518Y210284D01*
X50348Y209608D01*
X49392Y208652D01*
X48716Y207482D01*
X48453Y206500D01*
X52500D01*
Y210547D01*
D02*
G37*
G36*
X181453Y212953D02*
X174547D01*
Y206047D01*
X181453D01*
Y212953D01*
D02*
G37*
G36*
X157455D02*
X156545D01*
X155667Y212718D01*
X154880Y212263D01*
X154237Y211620D01*
X153782Y210833D01*
X153547Y209955D01*
Y209045D01*
X153782Y208167D01*
X154237Y207380D01*
X154880Y206737D01*
X155667Y206282D01*
X156545Y206047D01*
X157455D01*
X158333Y206282D01*
X159120Y206737D01*
X159763Y207380D01*
X160217Y208167D01*
X160453Y209045D01*
Y209955D01*
X160217Y210833D01*
X159763Y211620D01*
X159120Y212263D01*
X158333Y212718D01*
X157455Y212953D01*
D02*
G37*
G36*
X150453D02*
X143547D01*
Y206047D01*
X150453D01*
Y212953D01*
D02*
G37*
G36*
X236547Y204500D02*
X232500D01*
Y200453D01*
X233482Y200716D01*
X234652Y201392D01*
X235608Y202348D01*
X236284Y203518D01*
X236547Y204500D01*
D02*
G37*
G36*
X230500D02*
X226453D01*
X226716Y203518D01*
X227392Y202348D01*
X228348Y201392D01*
X229518Y200716D01*
X230500Y200453D01*
Y204500D01*
D02*
G37*
G36*
X216547D02*
X212500D01*
Y200453D01*
X213482Y200716D01*
X214652Y201392D01*
X215608Y202348D01*
X216284Y203518D01*
X216547Y204500D01*
D02*
G37*
G36*
X210500D02*
X206453D01*
X206716Y203518D01*
X207392Y202348D01*
X208348Y201392D01*
X209518Y200716D01*
X210500Y200453D01*
Y204500D01*
D02*
G37*
G36*
X128547D02*
X124500D01*
Y200453D01*
X125482Y200716D01*
X126652Y201392D01*
X127608Y202348D01*
X128284Y203518D01*
X128547Y204500D01*
D02*
G37*
G36*
X122500D02*
X118453D01*
X118716Y203518D01*
X119392Y202348D01*
X120348Y201392D01*
X121518Y200716D01*
X122500Y200453D01*
Y204500D01*
D02*
G37*
G36*
X108547D02*
X104500D01*
Y200453D01*
X105482Y200716D01*
X106652Y201392D01*
X107608Y202348D01*
X108284Y203518D01*
X108547Y204500D01*
D02*
G37*
G36*
X102500D02*
X98453D01*
X98716Y203518D01*
X99392Y202348D01*
X100348Y201392D01*
X101518Y200716D01*
X102500Y200453D01*
Y204500D01*
D02*
G37*
G36*
X78547D02*
X74500D01*
Y200453D01*
X75482Y200716D01*
X76652Y201392D01*
X77608Y202348D01*
X78284Y203518D01*
X78547Y204500D01*
D02*
G37*
G36*
X72500D02*
X68453D01*
X68716Y203518D01*
X69392Y202348D01*
X70348Y201392D01*
X71518Y200716D01*
X72500Y200453D01*
Y204500D01*
D02*
G37*
G36*
X58547D02*
X54500D01*
Y200453D01*
X55482Y200716D01*
X56652Y201392D01*
X57608Y202348D01*
X58284Y203518D01*
X58547Y204500D01*
D02*
G37*
G36*
X52500D02*
X48453D01*
X48716Y203518D01*
X49392Y202348D01*
X50348Y201392D01*
X51518Y200716D01*
X52500Y200453D01*
Y204500D01*
D02*
G37*
G36*
X8500Y200632D02*
Y197500D01*
X11632D01*
X11460Y198140D01*
X10901Y199110D01*
X10110Y199901D01*
X9140Y200460D01*
X8500Y200632D01*
D02*
G37*
G36*
X6500D02*
X5860Y200460D01*
X4890Y199901D01*
X4099Y199110D01*
X3540Y198140D01*
X3368Y197500D01*
X6500D01*
Y200632D01*
D02*
G37*
G36*
X334500Y198632D02*
Y195500D01*
X337632D01*
X337460Y196140D01*
X336901Y197110D01*
X336110Y197901D01*
X335140Y198460D01*
X334500Y198632D01*
D02*
G37*
G36*
X332500D02*
X331860Y198460D01*
X330890Y197901D01*
X330099Y197110D01*
X329540Y196140D01*
X329368Y195500D01*
X332500D01*
Y198632D01*
D02*
G37*
G36*
X11632Y195500D02*
X8500D01*
Y192368D01*
X9140Y192540D01*
X10110Y193099D01*
X10901Y193890D01*
X11460Y194860D01*
X11632Y195500D01*
D02*
G37*
G36*
X6500D02*
X3368D01*
X3540Y194860D01*
X4099Y193890D01*
X4890Y193099D01*
X5860Y192540D01*
X6500Y192368D01*
Y195500D01*
D02*
G37*
G36*
X222084Y199937D02*
X220916D01*
X219787Y199635D01*
X218776Y199050D01*
X217950Y198224D01*
X217365Y197213D01*
X217063Y196084D01*
Y194916D01*
X217365Y193787D01*
X217950Y192776D01*
X218776Y191949D01*
X219787Y191365D01*
X220916Y191063D01*
X222084D01*
X223213Y191365D01*
X224224Y191949D01*
X225050Y192776D01*
X225635Y193787D01*
X225937Y194916D01*
Y196084D01*
X225635Y197213D01*
X225050Y198224D01*
X224224Y199050D01*
X223213Y199635D01*
X222084Y199937D01*
D02*
G37*
G36*
X114084D02*
X112916D01*
X111787Y199635D01*
X110776Y199050D01*
X109950Y198224D01*
X109365Y197213D01*
X109063Y196084D01*
Y194916D01*
X109365Y193787D01*
X109950Y192776D01*
X110776Y191949D01*
X111787Y191365D01*
X112916Y191063D01*
X114084D01*
X115213Y191365D01*
X116224Y191949D01*
X117051Y192776D01*
X117635Y193787D01*
X117937Y194916D01*
Y196084D01*
X117635Y197213D01*
X117051Y198224D01*
X116224Y199050D01*
X115213Y199635D01*
X114084Y199937D01*
D02*
G37*
G36*
X64084D02*
X62916D01*
X61787Y199635D01*
X60776Y199050D01*
X59949Y198224D01*
X59365Y197213D01*
X59063Y196084D01*
Y194916D01*
X59365Y193787D01*
X59949Y192776D01*
X60776Y191949D01*
X61787Y191365D01*
X62916Y191063D01*
X64084D01*
X65213Y191365D01*
X66224Y191949D01*
X67050Y192776D01*
X67635Y193787D01*
X67937Y194916D01*
Y196084D01*
X67635Y197213D01*
X67050Y198224D01*
X66224Y199050D01*
X65213Y199635D01*
X64084Y199937D01*
D02*
G37*
G36*
X337632Y193500D02*
X334500D01*
Y190368D01*
X335140Y190540D01*
X336110Y191099D01*
X336901Y191890D01*
X337460Y192860D01*
X337632Y193500D01*
D02*
G37*
G36*
X332500D02*
X329368D01*
X329540Y192860D01*
X330099Y191890D01*
X330890Y191099D01*
X331860Y190540D01*
X332500Y190368D01*
Y193500D01*
D02*
G37*
G36*
X232500Y190547D02*
Y186500D01*
X236547D01*
X236284Y187482D01*
X235608Y188652D01*
X234652Y189608D01*
X233482Y190284D01*
X232500Y190547D01*
D02*
G37*
G36*
X230500D02*
X229518Y190284D01*
X228348Y189608D01*
X227392Y188652D01*
X226716Y187482D01*
X226453Y186500D01*
X230500D01*
Y190547D01*
D02*
G37*
G36*
X212500D02*
Y186500D01*
X216547D01*
X216284Y187482D01*
X215608Y188652D01*
X214652Y189608D01*
X213482Y190284D01*
X212500Y190547D01*
D02*
G37*
G36*
X210500D02*
X209518Y190284D01*
X208348Y189608D01*
X207392Y188652D01*
X206716Y187482D01*
X206453Y186500D01*
X210500D01*
Y190547D01*
D02*
G37*
G36*
X124500D02*
Y186500D01*
X128547D01*
X128284Y187482D01*
X127608Y188652D01*
X126652Y189608D01*
X125482Y190284D01*
X124500Y190547D01*
D02*
G37*
G36*
X122500D02*
X121518Y190284D01*
X120348Y189608D01*
X119392Y188652D01*
X118716Y187482D01*
X118453Y186500D01*
X122500D01*
Y190547D01*
D02*
G37*
G36*
X104500D02*
Y186500D01*
X108547D01*
X108284Y187482D01*
X107608Y188652D01*
X106652Y189608D01*
X105482Y190284D01*
X104500Y190547D01*
D02*
G37*
G36*
X102500D02*
X101518Y190284D01*
X100348Y189608D01*
X99392Y188652D01*
X98716Y187482D01*
X98453Y186500D01*
X102500D01*
Y190547D01*
D02*
G37*
G36*
X74500D02*
Y186500D01*
X78547D01*
X78284Y187482D01*
X77608Y188652D01*
X76652Y189608D01*
X75482Y190284D01*
X74500Y190547D01*
D02*
G37*
G36*
X72500D02*
X71518Y190284D01*
X70348Y189608D01*
X69392Y188652D01*
X68716Y187482D01*
X68453Y186500D01*
X72500D01*
Y190547D01*
D02*
G37*
G36*
X54500D02*
Y186500D01*
X58547D01*
X58284Y187482D01*
X57608Y188652D01*
X56652Y189608D01*
X55482Y190284D01*
X54500Y190547D01*
D02*
G37*
G36*
X52500D02*
X51518Y190284D01*
X50348Y189608D01*
X49392Y188652D01*
X48716Y187482D01*
X48453Y186500D01*
X52500D01*
Y190547D01*
D02*
G37*
G36*
X236547Y184500D02*
X232500D01*
Y180453D01*
X233482Y180716D01*
X234652Y181392D01*
X235608Y182348D01*
X236284Y183518D01*
X236547Y184500D01*
D02*
G37*
G36*
X230500D02*
X226453D01*
X226716Y183518D01*
X227392Y182348D01*
X228348Y181392D01*
X229518Y180716D01*
X230500Y180453D01*
Y184500D01*
D02*
G37*
G36*
X216547D02*
X212500D01*
Y180453D01*
X213482Y180716D01*
X214652Y181392D01*
X215608Y182348D01*
X216284Y183518D01*
X216547Y184500D01*
D02*
G37*
G36*
X210500D02*
X206453D01*
X206716Y183518D01*
X207392Y182348D01*
X208348Y181392D01*
X209518Y180716D01*
X210500Y180453D01*
Y184500D01*
D02*
G37*
G36*
X128547D02*
X124500D01*
Y180453D01*
X125482Y180716D01*
X126652Y181392D01*
X127608Y182348D01*
X128284Y183518D01*
X128547Y184500D01*
D02*
G37*
G36*
X122500D02*
X118453D01*
X118716Y183518D01*
X119392Y182348D01*
X120348Y181392D01*
X121518Y180716D01*
X122500Y180453D01*
Y184500D01*
D02*
G37*
G36*
X108547D02*
X104500D01*
Y180453D01*
X105482Y180716D01*
X106652Y181392D01*
X107608Y182348D01*
X108284Y183518D01*
X108547Y184500D01*
D02*
G37*
G36*
X102500D02*
X98453D01*
X98716Y183518D01*
X99392Y182348D01*
X100348Y181392D01*
X101518Y180716D01*
X102500Y180453D01*
Y184500D01*
D02*
G37*
G36*
X78547D02*
X74500D01*
Y180453D01*
X75482Y180716D01*
X76652Y181392D01*
X77608Y182348D01*
X78284Y183518D01*
X78547Y184500D01*
D02*
G37*
G36*
X72500D02*
X68453D01*
X68716Y183518D01*
X69392Y182348D01*
X70348Y181392D01*
X71518Y180716D01*
X72500Y180453D01*
Y184500D01*
D02*
G37*
G36*
X58547D02*
X54500D01*
Y180453D01*
X55482Y180716D01*
X56652Y181392D01*
X57608Y182348D01*
X58284Y183518D01*
X58547Y184500D01*
D02*
G37*
G36*
X52500D02*
X48453D01*
X48716Y183518D01*
X49392Y182348D01*
X50348Y181392D01*
X51518Y180716D01*
X52500Y180453D01*
Y184500D01*
D02*
G37*
G36*
X269455Y175453D02*
X268545D01*
X267667Y175217D01*
X266880Y174763D01*
X266237Y174120D01*
X265782Y173333D01*
X265547Y172455D01*
Y171545D01*
X265782Y170667D01*
X266237Y169880D01*
X266880Y169237D01*
X267667Y168782D01*
X268545Y168547D01*
X269455D01*
X270333Y168782D01*
X271120Y169237D01*
X271763Y169880D01*
X272217Y170667D01*
X272453Y171545D01*
Y172455D01*
X272217Y173333D01*
X271763Y174120D01*
X271120Y174763D01*
X270333Y175217D01*
X269455Y175453D01*
D02*
G37*
G36*
X8500Y170632D02*
Y167500D01*
X11632D01*
X11460Y168140D01*
X10901Y169110D01*
X10110Y169901D01*
X9140Y170460D01*
X8500Y170632D01*
D02*
G37*
G36*
X6500D02*
X5860Y170460D01*
X4890Y169901D01*
X4099Y169110D01*
X3540Y168140D01*
X3368Y167500D01*
X6500D01*
Y170632D01*
D02*
G37*
G36*
X334500Y168632D02*
Y165500D01*
X337632D01*
X337460Y166140D01*
X336901Y167110D01*
X336110Y167901D01*
X335140Y168460D01*
X334500Y168632D01*
D02*
G37*
G36*
X332500D02*
X331860Y168460D01*
X330890Y167901D01*
X330099Y167110D01*
X329540Y166140D01*
X329368Y165500D01*
X332500D01*
Y168632D01*
D02*
G37*
G36*
X11632Y165500D02*
X8500D01*
Y162368D01*
X9140Y162540D01*
X10110Y163099D01*
X10901Y163890D01*
X11460Y164860D01*
X11632Y165500D01*
D02*
G37*
G36*
X6500D02*
X3368D01*
X3540Y164860D01*
X4099Y163890D01*
X4890Y163099D01*
X5860Y162540D01*
X6500Y162368D01*
Y165500D01*
D02*
G37*
G36*
X337632Y163500D02*
X334500D01*
Y160368D01*
X335140Y160540D01*
X336110Y161099D01*
X336901Y161890D01*
X337460Y162860D01*
X337632Y163500D01*
D02*
G37*
G36*
X332500D02*
X329368D01*
X329540Y162860D01*
X330099Y161890D01*
X330890Y161099D01*
X331860Y160540D01*
X332500Y160368D01*
Y163500D01*
D02*
G37*
G36*
X173455Y168453D02*
X172545D01*
X171667Y168218D01*
X170880Y167763D01*
X170237Y167120D01*
X169782Y166333D01*
X169547Y165455D01*
Y164545D01*
X169782Y163667D01*
X170237Y162880D01*
X170880Y162237D01*
X171667Y161783D01*
X172545Y161547D01*
X173455D01*
X174333Y161783D01*
X175120Y162237D01*
X175763Y162880D01*
X176217Y163667D01*
X176233Y163725D01*
X183972D01*
X185300Y162398D01*
Y161562D01*
X185635Y160754D01*
X186254Y160135D01*
X187062Y159800D01*
X187938D01*
X188746Y160135D01*
X189365Y160754D01*
X189700Y161562D01*
Y162438D01*
X189365Y163246D01*
X188746Y163865D01*
X187938Y164200D01*
X187102D01*
X185401Y165901D01*
X184988Y166177D01*
X184500Y166274D01*
X176233D01*
X176217Y166333D01*
X175763Y167120D01*
X175120Y167763D01*
X174333Y168218D01*
X173455Y168453D01*
D02*
G37*
G36*
X154500Y159871D02*
Y158344D01*
X156027D01*
X156016Y158386D01*
X155660Y159001D01*
X155158Y159504D01*
X154542Y159860D01*
X154500Y159871D01*
D02*
G37*
G36*
X152500D02*
X152458Y159860D01*
X151842Y159504D01*
X151339Y159001D01*
X150984Y158386D01*
X150973Y158344D01*
X152500D01*
Y159871D01*
D02*
G37*
G36*
X232500Y160547D02*
Y156500D01*
X236547D01*
X236284Y157482D01*
X235608Y158652D01*
X234652Y159608D01*
X233482Y160284D01*
X232500Y160547D01*
D02*
G37*
G36*
X230500D02*
X229518Y160284D01*
X228348Y159608D01*
X227392Y158652D01*
X226716Y157482D01*
X226453Y156500D01*
X230500D01*
Y160547D01*
D02*
G37*
G36*
X212500D02*
Y156500D01*
X216547D01*
X216284Y157482D01*
X215608Y158652D01*
X214652Y159608D01*
X213482Y160284D01*
X212500Y160547D01*
D02*
G37*
G36*
X210500D02*
X209518Y160284D01*
X208348Y159608D01*
X207392Y158652D01*
X206716Y157482D01*
X206453Y156500D01*
X210500D01*
Y160547D01*
D02*
G37*
G36*
X124500D02*
Y156500D01*
X128547D01*
X128284Y157482D01*
X127608Y158652D01*
X126652Y159608D01*
X125482Y160284D01*
X124500Y160547D01*
D02*
G37*
G36*
X122500D02*
X121518Y160284D01*
X120348Y159608D01*
X119392Y158652D01*
X118716Y157482D01*
X118453Y156500D01*
X122500D01*
Y160547D01*
D02*
G37*
G36*
X104500D02*
Y156500D01*
X108547D01*
X108284Y157482D01*
X107608Y158652D01*
X106652Y159608D01*
X105482Y160284D01*
X104500Y160547D01*
D02*
G37*
G36*
X102500D02*
X101518Y160284D01*
X100348Y159608D01*
X99392Y158652D01*
X98716Y157482D01*
X98453Y156500D01*
X102500D01*
Y160547D01*
D02*
G37*
G36*
X74500D02*
Y156500D01*
X78547D01*
X78284Y157482D01*
X77608Y158652D01*
X76652Y159608D01*
X75482Y160284D01*
X74500Y160547D01*
D02*
G37*
G36*
X72500D02*
X71518Y160284D01*
X70348Y159608D01*
X69392Y158652D01*
X68716Y157482D01*
X68453Y156500D01*
X72500D01*
Y160547D01*
D02*
G37*
G36*
X54500D02*
Y156500D01*
X58547D01*
X58284Y157482D01*
X57608Y158652D01*
X56652Y159608D01*
X55482Y160284D01*
X54500Y160547D01*
D02*
G37*
G36*
X52500D02*
X51518Y160284D01*
X50348Y159608D01*
X49392Y158652D01*
X48716Y157482D01*
X48453Y156500D01*
X52500D01*
Y160547D01*
D02*
G37*
G36*
X156027Y156344D02*
X154500D01*
Y154816D01*
X154542Y154828D01*
X155158Y155183D01*
X155660Y155686D01*
X156016Y156301D01*
X156027Y156344D01*
D02*
G37*
G36*
X152500D02*
X150973D01*
X150984Y156301D01*
X151339Y155686D01*
X151842Y155183D01*
X152458Y154828D01*
X152500Y154816D01*
Y156344D01*
D02*
G37*
G36*
X236547Y154500D02*
X232500D01*
Y150453D01*
X233482Y150716D01*
X234652Y151392D01*
X235608Y152348D01*
X236284Y153518D01*
X236547Y154500D01*
D02*
G37*
G36*
X230500D02*
X226453D01*
X226716Y153518D01*
X227392Y152348D01*
X228348Y151392D01*
X229518Y150716D01*
X230500Y150453D01*
Y154500D01*
D02*
G37*
G36*
X216547D02*
X212500D01*
Y150453D01*
X213482Y150716D01*
X214652Y151392D01*
X215608Y152348D01*
X216284Y153518D01*
X216547Y154500D01*
D02*
G37*
G36*
X210500D02*
X206453D01*
X206716Y153518D01*
X207392Y152348D01*
X208348Y151392D01*
X209518Y150716D01*
X210500Y150453D01*
Y154500D01*
D02*
G37*
G36*
X128547D02*
X124500D01*
Y150453D01*
X125482Y150716D01*
X126652Y151392D01*
X127608Y152348D01*
X128284Y153518D01*
X128547Y154500D01*
D02*
G37*
G36*
X122500D02*
X118453D01*
X118716Y153518D01*
X119392Y152348D01*
X120348Y151392D01*
X121518Y150716D01*
X122500Y150453D01*
Y154500D01*
D02*
G37*
G36*
X108547D02*
X104500D01*
Y150453D01*
X105482Y150716D01*
X106652Y151392D01*
X107608Y152348D01*
X108284Y153518D01*
X108547Y154500D01*
D02*
G37*
G36*
X102500D02*
X98453D01*
X98716Y153518D01*
X99392Y152348D01*
X100348Y151392D01*
X101518Y150716D01*
X102500Y150453D01*
Y154500D01*
D02*
G37*
G36*
X78547D02*
X74500D01*
Y150453D01*
X75482Y150716D01*
X76652Y151392D01*
X77608Y152348D01*
X78284Y153518D01*
X78547Y154500D01*
D02*
G37*
G36*
X72500D02*
X68453D01*
X68716Y153518D01*
X69392Y152348D01*
X70348Y151392D01*
X71518Y150716D01*
X72500Y150453D01*
Y154500D01*
D02*
G37*
G36*
X58547D02*
X54500D01*
Y150453D01*
X55482Y150716D01*
X56652Y151392D01*
X57608Y152348D01*
X58284Y153518D01*
X58547Y154500D01*
D02*
G37*
G36*
X52500D02*
X48453D01*
X48716Y153518D01*
X49392Y152348D01*
X50348Y151392D01*
X51518Y150716D01*
X52500Y150453D01*
Y154500D01*
D02*
G37*
G36*
X262453Y155453D02*
X255547D01*
Y148547D01*
X262453D01*
Y155453D01*
D02*
G37*
G36*
X176453Y158453D02*
X169547D01*
Y151547D01*
X171725D01*
Y150500D01*
X171823Y150012D01*
X172099Y149599D01*
X173599Y148099D01*
X174012Y147822D01*
X174500Y147725D01*
X179972D01*
X181323Y146374D01*
X181040Y145950D01*
X180438Y146200D01*
X179562D01*
X178754Y145865D01*
X178135Y145246D01*
X177800Y144438D01*
Y143562D01*
X178135Y142754D01*
X178754Y142135D01*
X179562Y141800D01*
X180438D01*
X181246Y142135D01*
X181865Y142754D01*
X182200Y143562D01*
Y144438D01*
X181950Y145040D01*
X182374Y145323D01*
X183300Y144398D01*
Y143562D01*
X183635Y142754D01*
X184254Y142135D01*
X185062Y141800D01*
X185938D01*
X186746Y142135D01*
X187365Y142754D01*
X187700Y143562D01*
Y144438D01*
X187365Y145246D01*
X186746Y145865D01*
X185938Y146200D01*
X185102D01*
X181401Y149901D01*
X180988Y150178D01*
X180500Y150275D01*
X175028D01*
X174275Y151028D01*
Y151547D01*
X176453D01*
Y158453D01*
D02*
G37*
G36*
X174438Y146200D02*
X173562D01*
X172754Y145865D01*
X172135Y145246D01*
X171800Y144438D01*
Y144102D01*
X168099Y140401D01*
X167823Y139988D01*
X167726Y139500D01*
Y124337D01*
X167135Y123746D01*
X166800Y122938D01*
Y122062D01*
X167135Y121254D01*
X167754Y120635D01*
X168562Y120300D01*
X169438D01*
X170246Y120635D01*
X170865Y121254D01*
X171200Y122062D01*
Y122938D01*
X170865Y123746D01*
X170274Y124337D01*
Y138972D01*
X173237Y141935D01*
X173562Y141800D01*
X174438D01*
X175246Y142135D01*
X175865Y142754D01*
X176200Y143562D01*
Y144438D01*
X175865Y145246D01*
X175246Y145865D01*
X174438Y146200D01*
D02*
G37*
G36*
X222084Y149937D02*
X220916D01*
X219787Y149635D01*
X218776Y149050D01*
X217950Y148224D01*
X217365Y147213D01*
X217063Y146084D01*
Y144916D01*
X217365Y143787D01*
X217950Y142776D01*
X218776Y141949D01*
X219787Y141365D01*
X220916Y141063D01*
X222084D01*
X223213Y141365D01*
X224224Y141949D01*
X225050Y142776D01*
X225635Y143787D01*
X225937Y144916D01*
Y146084D01*
X225635Y147213D01*
X225050Y148224D01*
X224224Y149050D01*
X223213Y149635D01*
X222084Y149937D01*
D02*
G37*
G36*
X114084D02*
X112916D01*
X111787Y149635D01*
X110776Y149050D01*
X109950Y148224D01*
X109365Y147213D01*
X109063Y146084D01*
Y144916D01*
X109365Y143787D01*
X109950Y142776D01*
X110776Y141949D01*
X111787Y141365D01*
X112916Y141063D01*
X114084D01*
X115213Y141365D01*
X116224Y141949D01*
X117051Y142776D01*
X117635Y143787D01*
X117937Y144916D01*
Y146084D01*
X117635Y147213D01*
X117051Y148224D01*
X116224Y149050D01*
X115213Y149635D01*
X114084Y149937D01*
D02*
G37*
G36*
X64084D02*
X62916D01*
X61787Y149635D01*
X60776Y149050D01*
X59949Y148224D01*
X59365Y147213D01*
X59063Y146084D01*
Y144916D01*
X59365Y143787D01*
X59949Y142776D01*
X60776Y141949D01*
X61787Y141365D01*
X62916Y141063D01*
X64084D01*
X65213Y141365D01*
X66224Y141949D01*
X67050Y142776D01*
X67635Y143787D01*
X67937Y144916D01*
Y146084D01*
X67635Y147213D01*
X67050Y148224D01*
X66224Y149050D01*
X65213Y149635D01*
X64084Y149937D01*
D02*
G37*
G36*
X8500Y140632D02*
Y137500D01*
X11632D01*
X11460Y138140D01*
X10901Y139110D01*
X10110Y139901D01*
X9140Y140460D01*
X8500Y140632D01*
D02*
G37*
G36*
X6500D02*
X5860Y140460D01*
X4890Y139901D01*
X4099Y139110D01*
X3540Y138140D01*
X3368Y137500D01*
X6500D01*
Y140632D01*
D02*
G37*
G36*
X232500Y140547D02*
Y136500D01*
X236547D01*
X236284Y137482D01*
X235608Y138652D01*
X234652Y139608D01*
X233482Y140284D01*
X232500Y140547D01*
D02*
G37*
G36*
X230500D02*
X229518Y140284D01*
X228348Y139608D01*
X227392Y138652D01*
X226716Y137482D01*
X226453Y136500D01*
X230500D01*
Y140547D01*
D02*
G37*
G36*
X212500D02*
Y136500D01*
X216547D01*
X216284Y137482D01*
X215608Y138652D01*
X214652Y139608D01*
X213482Y140284D01*
X212500Y140547D01*
D02*
G37*
G36*
X210500D02*
X209518Y140284D01*
X208348Y139608D01*
X207392Y138652D01*
X206716Y137482D01*
X206453Y136500D01*
X210500D01*
Y140547D01*
D02*
G37*
G36*
X124500D02*
Y136500D01*
X128547D01*
X128284Y137482D01*
X127608Y138652D01*
X126652Y139608D01*
X125482Y140284D01*
X124500Y140547D01*
D02*
G37*
G36*
X122500D02*
X121518Y140284D01*
X120348Y139608D01*
X119392Y138652D01*
X118716Y137482D01*
X118453Y136500D01*
X122500D01*
Y140547D01*
D02*
G37*
G36*
X104500D02*
Y136500D01*
X108547D01*
X108284Y137482D01*
X107608Y138652D01*
X106652Y139608D01*
X105482Y140284D01*
X104500Y140547D01*
D02*
G37*
G36*
X102500D02*
X101518Y140284D01*
X100348Y139608D01*
X99392Y138652D01*
X98716Y137482D01*
X98453Y136500D01*
X102500D01*
Y140547D01*
D02*
G37*
G36*
X74500D02*
Y136500D01*
X78547D01*
X78284Y137482D01*
X77608Y138652D01*
X76652Y139608D01*
X75482Y140284D01*
X74500Y140547D01*
D02*
G37*
G36*
X72500D02*
X71518Y140284D01*
X70348Y139608D01*
X69392Y138652D01*
X68716Y137482D01*
X68453Y136500D01*
X72500D01*
Y140547D01*
D02*
G37*
G36*
X54500D02*
Y136500D01*
X58547D01*
X58284Y137482D01*
X57608Y138652D01*
X56652Y139608D01*
X55482Y140284D01*
X54500Y140547D01*
D02*
G37*
G36*
X52500D02*
X51518Y140284D01*
X50348Y139608D01*
X49392Y138652D01*
X48716Y137482D01*
X48453Y136500D01*
X52500D01*
Y140547D01*
D02*
G37*
G36*
X334500Y138632D02*
Y135500D01*
X337632D01*
X337460Y136140D01*
X336901Y137110D01*
X336110Y137901D01*
X335140Y138460D01*
X334500Y138632D01*
D02*
G37*
G36*
X332500D02*
X331860Y138460D01*
X330890Y137901D01*
X330099Y137110D01*
X329540Y136140D01*
X329368Y135500D01*
X332500D01*
Y138632D01*
D02*
G37*
G36*
X11632Y135500D02*
X8500D01*
Y132368D01*
X9140Y132540D01*
X10110Y133099D01*
X10901Y133890D01*
X11460Y134860D01*
X11632Y135500D01*
D02*
G37*
G36*
X6500D02*
X3368D01*
X3540Y134860D01*
X4099Y133890D01*
X4890Y133099D01*
X5860Y132540D01*
X6500Y132368D01*
Y135500D01*
D02*
G37*
G36*
X236547Y134500D02*
X232500D01*
Y130453D01*
X233482Y130716D01*
X234652Y131392D01*
X235608Y132348D01*
X236284Y133518D01*
X236547Y134500D01*
D02*
G37*
G36*
X230500D02*
X226453D01*
X226716Y133518D01*
X227392Y132348D01*
X228348Y131392D01*
X229518Y130716D01*
X230500Y130453D01*
Y134500D01*
D02*
G37*
G36*
X216547D02*
X212500D01*
Y130453D01*
X213482Y130716D01*
X214652Y131392D01*
X215608Y132348D01*
X216284Y133518D01*
X216547Y134500D01*
D02*
G37*
G36*
X210500D02*
X206453D01*
X206716Y133518D01*
X207392Y132348D01*
X208348Y131392D01*
X209518Y130716D01*
X210500Y130453D01*
Y134500D01*
D02*
G37*
G36*
X128547D02*
X124500D01*
Y130453D01*
X125482Y130716D01*
X126652Y131392D01*
X127608Y132348D01*
X128284Y133518D01*
X128547Y134500D01*
D02*
G37*
G36*
X122500D02*
X118453D01*
X118716Y133518D01*
X119392Y132348D01*
X120348Y131392D01*
X121518Y130716D01*
X122500Y130453D01*
Y134500D01*
D02*
G37*
G36*
X108547D02*
X104500D01*
Y130453D01*
X105482Y130716D01*
X106652Y131392D01*
X107608Y132348D01*
X108284Y133518D01*
X108547Y134500D01*
D02*
G37*
G36*
X102500D02*
X98453D01*
X98716Y133518D01*
X99392Y132348D01*
X100348Y131392D01*
X101518Y130716D01*
X102500Y130453D01*
Y134500D01*
D02*
G37*
G36*
X78547D02*
X74500D01*
Y130453D01*
X75482Y130716D01*
X76652Y131392D01*
X77608Y132348D01*
X78284Y133518D01*
X78547Y134500D01*
D02*
G37*
G36*
X72500D02*
X68453D01*
X68716Y133518D01*
X69392Y132348D01*
X70348Y131392D01*
X71518Y130716D01*
X72500Y130453D01*
Y134500D01*
D02*
G37*
G36*
X58547D02*
X54500D01*
Y130453D01*
X55482Y130716D01*
X56652Y131392D01*
X57608Y132348D01*
X58284Y133518D01*
X58547Y134500D01*
D02*
G37*
G36*
X52500D02*
X48453D01*
X48716Y133518D01*
X49392Y132348D01*
X50348Y131392D01*
X51518Y130716D01*
X52500Y130453D01*
Y134500D01*
D02*
G37*
G36*
X337632Y133500D02*
X334500D01*
Y130368D01*
X335140Y130540D01*
X336110Y131099D01*
X336901Y131890D01*
X337460Y132860D01*
X337632Y133500D01*
D02*
G37*
G36*
X332500D02*
X329368D01*
X329540Y132860D01*
X330099Y131890D01*
X330890Y131099D01*
X331860Y130540D01*
X332500Y130368D01*
Y133500D01*
D02*
G37*
G36*
X153938Y146700D02*
X153062D01*
X152254Y146365D01*
X151635Y145746D01*
X151300Y144938D01*
Y144062D01*
X151635Y143254D01*
X152254Y142635D01*
X153062Y142300D01*
X153898D01*
X159725Y136472D01*
Y124337D01*
X159135Y123746D01*
X158800Y122938D01*
Y122062D01*
X159135Y121254D01*
X159754Y120635D01*
X160562Y120300D01*
X161438D01*
X162246Y120635D01*
X162865Y121254D01*
X163200Y122062D01*
Y122938D01*
X162865Y123746D01*
X162275Y124337D01*
Y137000D01*
X162178Y137488D01*
X161901Y137901D01*
X155700Y144102D01*
Y144938D01*
X155365Y145746D01*
X154746Y146365D01*
X153938Y146700D01*
D02*
G37*
G36*
X262453Y123453D02*
X255547D01*
Y121274D01*
X249000D01*
X248512Y121177D01*
X248099Y120901D01*
X245398Y118200D01*
X244562D01*
X243754Y117865D01*
X243135Y117246D01*
X242800Y116438D01*
Y115562D01*
X243135Y114754D01*
X243754Y114135D01*
X244562Y113800D01*
X245438D01*
X246246Y114135D01*
X246865Y114754D01*
X247200Y115562D01*
Y116398D01*
X249528Y118726D01*
X255547D01*
Y116547D01*
X262453D01*
Y123453D01*
D02*
G37*
G36*
X170496Y111517D02*
X170221Y111404D01*
X169589Y110771D01*
X169581Y110751D01*
X169081D01*
X169073Y110771D01*
X168440Y111404D01*
X168165Y111517D01*
Y109496D01*
X166165D01*
Y111517D01*
X165891Y111404D01*
X165258Y110771D01*
X165250Y110751D01*
X164750D01*
X164742Y110771D01*
X164109Y111404D01*
X163835Y111517D01*
Y109496D01*
X161835D01*
Y111517D01*
X161560Y111404D01*
X160927Y110771D01*
X160919Y110751D01*
X160419D01*
X160411Y110771D01*
X159778Y111404D01*
X159504Y111517D01*
Y109496D01*
X158504D01*
Y108496D01*
X156483D01*
X156597Y108221D01*
X157229Y107589D01*
X157248Y107581D01*
Y107081D01*
X157229Y107073D01*
X156597Y106440D01*
X156483Y106165D01*
X158504D01*
Y104165D01*
X156483D01*
X156597Y103891D01*
X157229Y103258D01*
X157248Y103250D01*
Y102750D01*
X157229Y102742D01*
X156597Y102109D01*
X156483Y101835D01*
X158504D01*
Y99835D01*
X156483D01*
X156597Y99560D01*
X157229Y98927D01*
X157248Y98919D01*
Y98419D01*
X157229Y98411D01*
X156597Y97778D01*
X156483Y97504D01*
X158504D01*
Y96504D01*
X159504D01*
Y94483D01*
X159778Y94596D01*
X160411Y95229D01*
X160419Y95249D01*
X160919D01*
X160927Y95229D01*
X161560Y94596D01*
X161835Y94483D01*
Y96504D01*
X163835D01*
Y94483D01*
X164109Y94596D01*
X164742Y95229D01*
X164750Y95249D01*
X165250D01*
X165258Y95229D01*
X165891Y94596D01*
X166165Y94483D01*
Y96504D01*
X168165D01*
Y94483D01*
X168440Y94596D01*
X169073Y95229D01*
X169081Y95249D01*
X169581D01*
X169589Y95229D01*
X170221Y94596D01*
X170496Y94483D01*
Y96504D01*
X171496D01*
Y97504D01*
X173517D01*
X173404Y97778D01*
X172771Y98411D01*
X172751Y98419D01*
Y98919D01*
X172771Y98927D01*
X173404Y99560D01*
X173517Y99835D01*
X171496D01*
Y101835D01*
X173517D01*
X173404Y102109D01*
X172771Y102742D01*
X172751Y102750D01*
Y103250D01*
X172771Y103258D01*
X173404Y103891D01*
X173517Y104165D01*
X171496D01*
Y106165D01*
X173517D01*
X173404Y106440D01*
X172771Y107073D01*
X172751Y107081D01*
Y107581D01*
X172771Y107589D01*
X173404Y108221D01*
X173517Y108496D01*
X171496D01*
Y109496D01*
X170496D01*
Y111517D01*
D02*
G37*
G36*
X172496D02*
Y110496D01*
X173517D01*
X173404Y110771D01*
X172771Y111404D01*
X172496Y111517D01*
D02*
G37*
G36*
X157504D02*
X157229Y111404D01*
X156597Y110771D01*
X156483Y110496D01*
X157504D01*
Y111517D01*
D02*
G37*
G36*
X269455Y111453D02*
X268545D01*
X267667Y111217D01*
X266880Y110763D01*
X266237Y110120D01*
X265896Y109529D01*
X249882D01*
X249546Y109865D01*
X248738Y110200D01*
X247862D01*
X247054Y109865D01*
X246435Y109246D01*
X246100Y108438D01*
Y107562D01*
X246435Y106754D01*
X247054Y106135D01*
X247862Y105800D01*
X248738D01*
X249546Y106135D01*
X249882Y106471D01*
X265896D01*
X266237Y105880D01*
X266880Y105237D01*
X267667Y104782D01*
X268545Y104547D01*
X269455D01*
X270333Y104782D01*
X271120Y105237D01*
X271763Y105880D01*
X272217Y106667D01*
X272453Y107545D01*
Y108455D01*
X272217Y109333D01*
X271763Y110120D01*
X271120Y110763D01*
X270333Y111217D01*
X269455Y111453D01*
D02*
G37*
G36*
X8500Y110632D02*
Y107500D01*
X11632D01*
X11460Y108140D01*
X10901Y109110D01*
X10110Y109901D01*
X9140Y110460D01*
X8500Y110632D01*
D02*
G37*
G36*
X6500D02*
X5860Y110460D01*
X4890Y109901D01*
X4099Y109110D01*
X3540Y108140D01*
X3368Y107500D01*
X6500D01*
Y110632D01*
D02*
G37*
G36*
X334500Y108632D02*
Y105500D01*
X337632D01*
X337460Y106140D01*
X336901Y107110D01*
X336110Y107901D01*
X335140Y108460D01*
X334500Y108632D01*
D02*
G37*
G36*
X332500D02*
X331860Y108460D01*
X330890Y107901D01*
X330099Y107110D01*
X329540Y106140D01*
X329368Y105500D01*
X332500D01*
Y108632D01*
D02*
G37*
G36*
X83453Y109953D02*
X76547D01*
Y103047D01*
X83453D01*
Y109953D01*
D02*
G37*
G36*
X11632Y105500D02*
X8500D01*
Y102368D01*
X9140Y102540D01*
X10110Y103099D01*
X10901Y103890D01*
X11460Y104860D01*
X11632Y105500D01*
D02*
G37*
G36*
X6500D02*
X3368D01*
X3540Y104860D01*
X4099Y103890D01*
X4890Y103099D01*
X5860Y102540D01*
X6500Y102368D01*
Y105500D01*
D02*
G37*
G36*
X337632Y103500D02*
X334500D01*
Y100368D01*
X335140Y100540D01*
X336110Y101099D01*
X336901Y101890D01*
X337460Y102860D01*
X337632Y103500D01*
D02*
G37*
G36*
X332500D02*
X329368D01*
X329540Y102860D01*
X330099Y101890D01*
X330890Y101099D01*
X331860Y100540D01*
X332500Y100368D01*
Y103500D01*
D02*
G37*
G36*
X173517Y95504D02*
X172496D01*
Y94483D01*
X172771Y94596D01*
X173404Y95229D01*
X173517Y95504D01*
D02*
G37*
G36*
X157504D02*
X156483D01*
X156597Y95229D01*
X157229Y94596D01*
X157504Y94483D01*
Y95504D01*
D02*
G37*
G36*
X269455Y91453D02*
X268545D01*
X267667Y91217D01*
X266880Y90763D01*
X266237Y90120D01*
X265782Y89333D01*
X265547Y88455D01*
Y87545D01*
X265782Y86667D01*
X266237Y85880D01*
X266880Y85237D01*
X267667Y84783D01*
X268545Y84547D01*
X269455D01*
X270333Y84783D01*
X271120Y85237D01*
X271763Y85880D01*
X272217Y86667D01*
X272453Y87545D01*
Y88455D01*
X272217Y89333D01*
X271763Y90120D01*
X271120Y90763D01*
X270333Y91217D01*
X269455Y91453D01*
D02*
G37*
G36*
X262453D02*
X255547D01*
Y84547D01*
X262453D01*
Y91453D01*
D02*
G37*
G36*
X188938Y93700D02*
X188062D01*
X187254Y93365D01*
X186635Y92746D01*
X186398Y92173D01*
X183558Y89334D01*
X183116Y88672D01*
X182961Y87892D01*
Y85326D01*
X182800Y84938D01*
Y84062D01*
X183135Y83254D01*
X183754Y82635D01*
X184562Y82300D01*
X185438D01*
X186246Y82635D01*
X186865Y83254D01*
X187200Y84062D01*
Y84938D01*
X187039Y85326D01*
Y87047D01*
X189543Y89551D01*
X189746Y89635D01*
X190365Y90254D01*
X190700Y91062D01*
Y91938D01*
X190365Y92746D01*
X189746Y93365D01*
X188938Y93700D01*
D02*
G37*
G36*
X8500Y80632D02*
Y77500D01*
X11632D01*
X11460Y78140D01*
X10901Y79110D01*
X10110Y79901D01*
X9140Y80460D01*
X8500Y80632D01*
D02*
G37*
G36*
X6500D02*
X5860Y80460D01*
X4890Y79901D01*
X4099Y79110D01*
X3540Y78140D01*
X3368Y77500D01*
X6500D01*
Y80632D01*
D02*
G37*
G36*
X127500Y77371D02*
Y75844D01*
X129027D01*
X129016Y75886D01*
X128661Y76501D01*
X128158Y77004D01*
X127542Y77360D01*
X127500Y77371D01*
D02*
G37*
G36*
X125500D02*
X125458Y77360D01*
X124842Y77004D01*
X124339Y76501D01*
X123984Y75886D01*
X123973Y75844D01*
X125500D01*
Y77371D01*
D02*
G37*
G36*
X334500Y78632D02*
Y75500D01*
X337632D01*
X337460Y76140D01*
X336901Y77110D01*
X336110Y77901D01*
X335140Y78460D01*
X334500Y78632D01*
D02*
G37*
G36*
X332500D02*
X331860Y78460D01*
X330890Y77901D01*
X330099Y77110D01*
X329540Y76140D01*
X329368Y75500D01*
X332500D01*
Y78632D01*
D02*
G37*
G36*
X93453Y81953D02*
X86547D01*
Y75544D01*
X86047Y75337D01*
X83429Y77955D01*
X83453Y78045D01*
Y78955D01*
X83217Y79833D01*
X82763Y80620D01*
X82120Y81263D01*
X81333Y81717D01*
X80455Y81953D01*
X79545D01*
X78667Y81717D01*
X77880Y81263D01*
X77237Y80620D01*
X76783Y79833D01*
X76547Y78955D01*
Y78045D01*
X76783Y77167D01*
X77237Y76380D01*
X77880Y75737D01*
X78667Y75283D01*
X79545Y75047D01*
X80455D01*
X80545Y75071D01*
X107511Y48105D01*
X108172Y47663D01*
X108953Y47508D01*
X108953Y47508D01*
X184047D01*
Y41047D01*
X185461D01*
Y35953D01*
X184047D01*
Y31931D01*
X181703Y29586D01*
X180176D01*
X179969Y30086D01*
X180263Y30380D01*
X180718Y31167D01*
X180953Y32045D01*
Y32955D01*
X180718Y33833D01*
X180263Y34620D01*
X179620Y35263D01*
X178833Y35717D01*
X177955Y35953D01*
X177045D01*
X176167Y35717D01*
X175380Y35263D01*
X174737Y34620D01*
X174690Y34539D01*
X107345D01*
X79284Y62600D01*
X79543Y63048D01*
X79545Y63047D01*
X80455D01*
X81333Y63283D01*
X82120Y63737D01*
X82763Y64380D01*
X83217Y65167D01*
X83453Y66045D01*
Y66955D01*
X83217Y67833D01*
X82763Y68620D01*
X82120Y69263D01*
X81333Y69717D01*
X80455Y69953D01*
X79545D01*
X78667Y69717D01*
X77880Y69263D01*
X77237Y68620D01*
X76783Y67833D01*
X76547Y66955D01*
Y66045D01*
X76548Y66043D01*
X76100Y65784D01*
X62526Y79358D01*
X62365Y79746D01*
X61746Y80365D01*
X60938Y80700D01*
X60062D01*
X59254Y80365D01*
X58635Y79746D01*
X58300Y78938D01*
Y78062D01*
X58635Y77254D01*
X59254Y76635D01*
X59642Y76474D01*
X105058Y31058D01*
X105720Y30616D01*
X106500Y30461D01*
X174690D01*
X174737Y30380D01*
X175031Y30086D01*
X174824Y29586D01*
X62297D01*
X45953Y45931D01*
Y49953D01*
X39047D01*
Y43047D01*
X43069D01*
X60011Y26105D01*
X60672Y25663D01*
X61453Y25508D01*
X182547D01*
X183328Y25663D01*
X183989Y26105D01*
X186931Y29047D01*
X190953D01*
Y35953D01*
X189539D01*
Y41047D01*
X190953D01*
Y47508D01*
X203108D01*
X208974Y41642D01*
X209135Y41254D01*
X209754Y40635D01*
X210562Y40300D01*
X211438D01*
X212246Y40635D01*
X212865Y41254D01*
X213200Y42062D01*
Y42938D01*
X212865Y43746D01*
X212246Y44365D01*
X211858Y44526D01*
X205395Y50989D01*
X204733Y51431D01*
X203953Y51586D01*
X190176D01*
X189969Y52086D01*
X190263Y52380D01*
X190717Y53167D01*
X190953Y54045D01*
Y54955D01*
X190717Y55833D01*
X190263Y56620D01*
X189620Y57263D01*
X188833Y57717D01*
X187955Y57953D01*
X187045D01*
X186167Y57717D01*
X185380Y57263D01*
X184737Y56620D01*
X184690Y56539D01*
X181345D01*
X173026Y64858D01*
X172865Y65246D01*
X172246Y65865D01*
X171438Y66200D01*
X170562D01*
X169754Y65865D01*
X169135Y65246D01*
X168800Y64438D01*
Y63562D01*
X169135Y62754D01*
X169754Y62135D01*
X170142Y61974D01*
X179058Y53058D01*
X179720Y52616D01*
X180500Y52461D01*
X184690D01*
X184737Y52380D01*
X185031Y52086D01*
X184824Y51586D01*
X109797D01*
X86837Y74547D01*
X87044Y75047D01*
X93453D01*
Y81953D01*
D02*
G37*
G36*
X231455Y80953D02*
X230545D01*
X229667Y80717D01*
X228880Y80263D01*
X228237Y79620D01*
X227783Y78833D01*
X227547Y77955D01*
Y77045D01*
X227571Y76955D01*
X216058Y65442D01*
X215616Y64780D01*
X215461Y64000D01*
Y59691D01*
X215354Y59629D01*
X214711Y58986D01*
X214256Y58199D01*
X214021Y57321D01*
Y56411D01*
X214256Y55533D01*
X214711Y54746D01*
X215354Y54103D01*
X216141Y53649D01*
X217019Y53413D01*
X217928D01*
X218806Y53649D01*
X219594Y54103D01*
X220237Y54746D01*
X220691Y55533D01*
X220926Y56411D01*
Y57321D01*
X220691Y58199D01*
X220237Y58986D01*
X219594Y59629D01*
X219539Y59661D01*
Y63155D01*
X230455Y74071D01*
X230545Y74047D01*
X231455D01*
X232333Y74283D01*
X233120Y74737D01*
X233763Y75380D01*
X234218Y76167D01*
X234453Y77045D01*
Y77955D01*
X234218Y78833D01*
X233763Y79620D01*
X233120Y80263D01*
X232333Y80717D01*
X231455Y80953D01*
D02*
G37*
G36*
X272453Y79453D02*
X265547D01*
Y72547D01*
X272453D01*
Y79453D01*
D02*
G37*
G36*
X259455D02*
X258545D01*
X257667Y79217D01*
X256880Y78763D01*
X256237Y78120D01*
X255783Y77333D01*
X255547Y76455D01*
Y75545D01*
X255783Y74667D01*
X256237Y73880D01*
X256880Y73237D01*
X257667Y72783D01*
X258545Y72547D01*
X259455D01*
X260333Y72783D01*
X261120Y73237D01*
X261763Y73880D01*
X262217Y74667D01*
X262453Y75545D01*
Y76455D01*
X262217Y77333D01*
X261763Y78120D01*
X261120Y78763D01*
X260333Y79217D01*
X259455Y79453D01*
D02*
G37*
G36*
X11632Y75500D02*
X8500D01*
Y72368D01*
X9140Y72540D01*
X10110Y73099D01*
X10901Y73890D01*
X11460Y74860D01*
X11632Y75500D01*
D02*
G37*
G36*
X6500D02*
X3368D01*
X3540Y74860D01*
X4099Y73890D01*
X4890Y73099D01*
X5860Y72540D01*
X6500Y72368D01*
Y75500D01*
D02*
G37*
G36*
X129027Y73844D02*
X127500D01*
Y72316D01*
X127542Y72328D01*
X128158Y72683D01*
X128661Y73186D01*
X129016Y73801D01*
X129027Y73844D01*
D02*
G37*
G36*
X125500D02*
X123973D01*
X123984Y73801D01*
X124339Y73186D01*
X124842Y72683D01*
X125458Y72328D01*
X125500Y72316D01*
Y73844D01*
D02*
G37*
G36*
X337632Y73500D02*
X334500D01*
Y70368D01*
X335140Y70540D01*
X336110Y71099D01*
X336901Y71890D01*
X337460Y72860D01*
X337632Y73500D01*
D02*
G37*
G36*
X332500D02*
X329368D01*
X329540Y72860D01*
X330099Y71890D01*
X330890Y71099D01*
X331860Y70540D01*
X332500Y70368D01*
Y73500D01*
D02*
G37*
G36*
X114938Y68200D02*
X114062D01*
X113254Y67865D01*
X112635Y67246D01*
X112300Y66438D01*
Y65562D01*
X112635Y64754D01*
X113254Y64135D01*
X114062Y63800D01*
X114938D01*
X115746Y64135D01*
X116365Y64754D01*
X116700Y65562D01*
Y66438D01*
X116365Y67246D01*
X115746Y67865D01*
X114938Y68200D01*
D02*
G37*
G36*
X127438Y66200D02*
X126562D01*
X125754Y65865D01*
X125135Y65246D01*
X124800Y64438D01*
Y63562D01*
X125135Y62754D01*
X125754Y62135D01*
X126562Y61800D01*
X127438D01*
X128246Y62135D01*
X128865Y62754D01*
X129200Y63562D01*
Y64438D01*
X128865Y65246D01*
X128246Y65865D01*
X127438Y66200D01*
D02*
G37*
G36*
X134438Y63700D02*
X133562D01*
X132754Y63365D01*
X132135Y62746D01*
X131800Y61938D01*
Y61062D01*
X132135Y60254D01*
X132754Y59635D01*
X133562Y59300D01*
X134438D01*
X135246Y59635D01*
X135865Y60254D01*
X136200Y61062D01*
Y61938D01*
X135865Y62746D01*
X135246Y63365D01*
X134438Y63700D01*
D02*
G37*
G36*
X117938Y62200D02*
X117062D01*
X116254Y61865D01*
X115635Y61246D01*
X115300Y60438D01*
Y59562D01*
X115635Y58754D01*
X116254Y58135D01*
X117062Y57800D01*
X117938D01*
X118746Y58135D01*
X119365Y58754D01*
X119700Y59562D01*
Y60438D01*
X119365Y61246D01*
X118746Y61865D01*
X117938Y62200D01*
D02*
G37*
G36*
X140938Y61700D02*
X140062D01*
X139254Y61365D01*
X138635Y60746D01*
X138300Y59938D01*
Y59062D01*
X138635Y58254D01*
X139254Y57635D01*
X140062Y57300D01*
X140938D01*
X141746Y57635D01*
X142365Y58254D01*
X142700Y59062D01*
Y59938D01*
X142365Y60746D01*
X141746Y61365D01*
X140938Y61700D01*
D02*
G37*
G36*
X257938Y105200D02*
X257062D01*
X256254Y104865D01*
X255635Y104246D01*
X255474Y103858D01*
X239558Y87942D01*
X239116Y87280D01*
X238961Y86500D01*
Y56526D01*
X238800Y56138D01*
Y55262D01*
X239135Y54454D01*
X239754Y53835D01*
X240562Y53500D01*
X241438D01*
X242246Y53835D01*
X242865Y54454D01*
X243200Y55262D01*
Y56138D01*
X243039Y56526D01*
Y85655D01*
X258358Y100974D01*
X258746Y101135D01*
X259365Y101754D01*
X259700Y102562D01*
Y103438D01*
X259365Y104246D01*
X258746Y104865D01*
X257938Y105200D01*
D02*
G37*
G36*
X52955Y49953D02*
X52045D01*
X51167Y49718D01*
X50380Y49263D01*
X49737Y48620D01*
X49283Y47833D01*
X49047Y46955D01*
Y46045D01*
X49283Y45167D01*
X49737Y44380D01*
X50380Y43737D01*
X51167Y43282D01*
X52045Y43047D01*
X52955D01*
X53833Y43282D01*
X54620Y43737D01*
X55263Y44380D01*
X55717Y45167D01*
X55953Y46045D01*
Y46955D01*
X55717Y47833D01*
X55263Y48620D01*
X54620Y49263D01*
X53833Y49718D01*
X52955Y49953D01*
D02*
G37*
G36*
X272453Y47453D02*
X265547D01*
Y40547D01*
X272453D01*
Y47453D01*
D02*
G37*
G36*
X327000Y25979D02*
Y16000D01*
X336979D01*
X336729Y17576D01*
X336194Y19222D01*
X335408Y20765D01*
X334390Y22166D01*
X333166Y23390D01*
X331765Y24408D01*
X330223Y25194D01*
X328576Y25729D01*
X327000Y25979D01*
D02*
G37*
G36*
X16000D02*
Y16000D01*
X25979D01*
X25729Y17576D01*
X25194Y19222D01*
X24408Y20765D01*
X23390Y22166D01*
X22166Y23390D01*
X20765Y24408D01*
X19222Y25194D01*
X17576Y25729D01*
X16000Y25979D01*
D02*
G37*
G36*
X325000D02*
X323424Y25729D01*
X321778Y25194D01*
X320235Y24408D01*
X318834Y23390D01*
X317610Y22166D01*
X316592Y20765D01*
X315806Y19222D01*
X315271Y17576D01*
X315021Y16000D01*
X325000D01*
Y25979D01*
D02*
G37*
G36*
X14000D02*
X12424Y25729D01*
X10778Y25194D01*
X9235Y24408D01*
X7834Y23390D01*
X6610Y22166D01*
X5592Y20765D01*
X4806Y19222D01*
X4271Y17576D01*
X4021Y16000D01*
X14000D01*
Y25979D01*
D02*
G37*
G36*
X25979Y14000D02*
X16000D01*
Y4021D01*
X17576Y4271D01*
X19222Y4806D01*
X20765Y5592D01*
X22166Y6610D01*
X23390Y7834D01*
X24408Y9235D01*
X25194Y10778D01*
X25729Y12424D01*
X25979Y14000D01*
D02*
G37*
G36*
X336979D02*
X327000D01*
Y4021D01*
X328576Y4271D01*
X330223Y4806D01*
X331765Y5592D01*
X333166Y6610D01*
X334390Y7834D01*
X335408Y9235D01*
X336194Y10778D01*
X336729Y12424D01*
X336979Y14000D01*
D02*
G37*
G36*
X325000D02*
X315021D01*
X315271Y12424D01*
X315806Y10778D01*
X316592Y9235D01*
X317610Y7834D01*
X318834Y6610D01*
X320235Y5592D01*
X321778Y4806D01*
X323424Y4271D01*
X325000Y4021D01*
Y14000D01*
D02*
G37*
G36*
X14000D02*
X4021D01*
X4271Y12424D01*
X4806Y10778D01*
X5592Y9235D01*
X6610Y7834D01*
X7834Y6610D01*
X9235Y5592D01*
X10778Y4806D01*
X12424Y4271D01*
X14000Y4021D01*
Y14000D01*
D02*
G37*
%LPD*%
G36*
X170000Y230500D02*
X155250D01*
X162625Y237875D01*
X170000Y230500D01*
D02*
G37*
G36*
X280000Y21000D02*
X269000D01*
Y27000D01*
X276000D01*
Y53000D01*
X269000D01*
Y59000D01*
X276000D01*
Y117000D01*
X269000D01*
Y123000D01*
X280000Y123000D01*
Y21000D01*
D02*
G37*
D12*
X201500Y238000D02*
Y281410D01*
X195047Y287863D02*
X201500Y281410D01*
X197000Y243500D02*
Y283789D01*
X204500Y272500D02*
X231500D01*
X193547Y287241D02*
X197000Y283789D01*
X231500Y272500D02*
X247000Y257000D01*
X195047Y287863D02*
Y355574D01*
X82953Y284047D02*
X117500Y249500D01*
X82953Y284047D02*
Y311063D01*
X117500Y228000D02*
Y249500D01*
X85047Y284074D02*
Y311089D01*
Y284074D02*
X124000Y245121D01*
Y228000D02*
Y245121D01*
X77000Y317015D02*
X82953Y311063D01*
X79000Y317137D02*
X85047Y311089D01*
X247000Y235500D02*
Y257000D01*
X204500Y220410D02*
X231910D01*
X247000Y235500D01*
X181000Y196910D02*
X204500Y220410D01*
X181000Y179000D02*
Y196910D01*
Y179000D02*
X185500Y174500D01*
X134000Y286000D02*
X156500Y263500D01*
X134000Y286000D02*
Y290090D01*
X156041Y270959D02*
X157041D01*
X140399Y286601D02*
X156041Y270959D01*
X157041D02*
X157500Y270500D01*
X139000Y288173D02*
X140399Y286774D01*
Y286601D02*
Y286774D01*
X139000Y288173D02*
Y289500D01*
X163000Y283560D02*
Y311000D01*
X175760Y270800D02*
X181700D01*
X159000Y325015D02*
X174000Y310015D01*
Y278500D02*
Y310015D01*
X175182Y273500D02*
X179000D01*
X164500Y284182D02*
X175182Y273500D01*
X190500Y261500D02*
Y282410D01*
X185047Y287863D02*
X190500Y282410D01*
X163000Y283560D02*
X175760Y270800D01*
X164500Y284182D02*
Y314500D01*
X181700Y270800D02*
X185000Y267500D01*
X185047Y287863D02*
Y308968D01*
X169000Y325015D02*
X185047Y308968D01*
X169000Y325015D02*
Y369500D01*
X149000Y330000D02*
X164500Y314500D01*
X149000Y330000D02*
Y369500D01*
X162900Y311100D02*
X163000Y311000D01*
X160615Y313400D02*
X162900Y311115D01*
Y311100D02*
Y311115D01*
X160600Y313400D02*
X160615D01*
X139000Y335000D02*
X160600Y313400D01*
X139000Y335000D02*
Y369500D01*
X159000Y325015D02*
Y369500D01*
X125100Y298990D02*
X134000Y290090D01*
X89000Y369500D02*
X125100Y333400D01*
Y298990D02*
Y333400D01*
X233537Y351022D02*
X239000Y356485D01*
Y359500D02*
X249000Y369500D01*
X239000Y356485D02*
Y359500D01*
X212000Y344000D02*
X219022Y351022D01*
X233537D01*
X259000Y365000D02*
Y369500D01*
X242000Y348000D02*
X259000Y365000D01*
X225500Y348000D02*
X242000D01*
X193547Y287241D02*
Y354953D01*
X189000Y361621D02*
X195047Y355574D01*
X179000Y369500D02*
X193547Y354953D01*
X153535Y179000D02*
X181000D01*
X149517Y174983D02*
X153535Y179000D01*
X98211Y106000D02*
X107500D01*
X87211Y117000D02*
X98211Y106000D01*
X36000Y129257D02*
Y210500D01*
X37500Y129879D02*
Y206621D01*
X51879Y115500D02*
X86590D01*
X51257Y114000D02*
X82500D01*
X52500Y117000D02*
X87211D01*
X39211Y130289D02*
Y206000D01*
X36000Y129257D02*
X51257Y114000D01*
X37500Y129879D02*
X51879Y115500D01*
X39211Y130289D02*
X52500Y117000D01*
X86590Y115500D02*
X101500Y100590D01*
X82500Y114000D02*
X90000Y106500D01*
X36000Y210500D02*
X55500Y230000D01*
X59453Y228363D02*
Y238047D01*
X55500Y242000D02*
X59453Y238047D01*
X56827Y254000D02*
X58226Y252601D01*
X58399D02*
X60953Y250047D01*
X55500Y254000D02*
X56827D01*
X60953Y227741D02*
Y250047D01*
X58226Y252601D02*
X58399D01*
X39211Y206000D02*
X60953Y227741D01*
X48582Y217492D02*
X59453Y228363D01*
X48371Y217492D02*
X48582D01*
X37500Y206621D02*
X48371Y217492D01*
X101500Y100500D02*
Y100590D01*
X77000Y317015D02*
Y345500D01*
X79000Y317137D02*
Y369500D01*
X69000Y353500D02*
X77000Y345500D01*
X69000Y353500D02*
Y369500D01*
X189000Y361621D02*
Y369500D01*
D47*
X178300Y173700D02*
X181257Y170742D01*
X178500Y125500D02*
X226500D01*
X153467Y173700D02*
X178300D01*
X160500Y146000D02*
X167000Y152500D01*
Y173500D01*
X185000Y87892D02*
X188500Y91392D01*
X185000Y85000D02*
Y87892D01*
X188500Y91392D02*
Y91500D01*
X224000Y49000D02*
X262000D01*
X269000Y56000D01*
X241000Y55700D02*
Y86500D01*
X257500Y103000D01*
X218500Y44000D02*
X259000D01*
X179000Y83500D02*
X218500Y44000D01*
X203953Y49547D02*
X211000Y42500D01*
X80000Y78500D02*
X108953Y49547D01*
X203953D01*
X217000Y57000D02*
X217500Y57500D01*
Y64000D01*
X187252Y44252D02*
Y44506D01*
X187500Y32500D02*
Y44500D01*
X182547Y27547D02*
X187500Y32500D01*
X61453Y27547D02*
X182547D01*
X42500Y46500D02*
X61453Y27547D01*
X106500Y32500D02*
X177500D01*
X60500Y78500D02*
X106500Y32500D01*
X217500Y64000D02*
X231000Y77500D01*
X278000Y153996D02*
Y190000D01*
X269256Y145252D02*
X278000Y153996D01*
X264288Y145252D02*
X269256D01*
X259035Y140000D02*
X264288Y145252D01*
X259000Y140000D02*
X259035D01*
X277500Y236866D02*
Y237500D01*
Y236866D02*
X282453Y231913D01*
Y20624D02*
Y231913D01*
X280828Y19000D02*
X282453Y20624D01*
X264000Y19000D02*
X280828D01*
X259000Y24000D02*
X264000Y19000D01*
X181257Y170742D02*
X192634D01*
X181167D02*
X181257D01*
X192634D02*
X193892Y172000D01*
X194000D01*
X146326Y171283D02*
X151050D01*
X139500Y172000D02*
X139576Y171923D01*
X151050Y171283D02*
X153467Y173700D01*
X139576Y171923D02*
X145685D01*
X146326Y171283D01*
X170500Y83500D02*
X179000D01*
X135300Y96800D02*
X145000Y106500D01*
X99700Y96800D02*
X135300D01*
X90000Y106500D02*
X99700Y96800D01*
X180500Y54500D02*
X187000D01*
X171000Y64000D02*
X180500Y54500D01*
D48*
X180171Y231000D02*
X181671Y229500D01*
X182000D01*
X152514Y231000D02*
X180171D01*
X155000Y170000D02*
X155250D01*
X160250Y165000D01*
X151514Y230000D02*
X152514Y231000D01*
X151000Y230000D02*
X151514D01*
X249000Y120000D02*
X259000D01*
X245000Y116000D02*
X249000Y120000D01*
X187000Y107000D02*
X225657D01*
X187500Y256500D02*
X191000Y253000D01*
X166500Y256500D02*
X187500D01*
X119000Y289500D02*
X152000Y256500D01*
X159039D01*
X225657Y107000D02*
X250000Y131343D01*
X252000Y176000D02*
X277500Y201500D01*
X250000Y186000D02*
X277000Y213000D01*
X234000Y121000D02*
X246000Y133000D01*
X226485Y105000D02*
X252000Y130515D01*
X248000Y196000D02*
X277500Y225500D01*
X246000Y230000D02*
X277500Y261500D01*
X248000Y132172D02*
Y196000D01*
X250000Y131343D02*
Y186000D01*
X229328Y113500D02*
X248000Y132172D01*
X252000Y130515D02*
Y176000D01*
X246000Y133000D02*
Y230000D01*
X160250Y165000D02*
X160500D01*
X169000Y139500D02*
X173500Y144000D01*
X174000D01*
X174500Y149000D02*
X180500D01*
X173000Y150500D02*
X174500Y149000D01*
X180500D02*
X185500Y144000D01*
X173000Y150500D02*
Y155000D01*
X161000Y122500D02*
Y137000D01*
X153500Y144500D02*
X161000Y137000D01*
X167957Y83457D02*
X170457D01*
X160450Y80550D02*
X165050D01*
X167957Y83457D01*
X170457D02*
X170500Y83500D01*
X207500Y121000D02*
X234000D01*
X187000Y113500D02*
X229328D01*
X201556Y105000D02*
X226485D01*
X144262Y87738D02*
X148500Y83500D01*
X157500D01*
X147333Y99167D02*
X163000Y83500D01*
X145969Y99531D02*
X146333Y99167D01*
X147333D01*
X195056Y98500D02*
X201556Y105000D01*
X277000Y213000D02*
Y213500D01*
X187500Y98500D02*
X195056D01*
X157500Y83500D02*
X160450Y80550D01*
X184500Y165000D02*
X187500Y162000D01*
X173000Y165000D02*
X184500D01*
X169000Y122500D02*
Y139500D01*
D49*
X187000Y54500D02*
X187500Y54000D01*
X149000Y289500D02*
X162500Y276000D01*
Y231500D02*
Y276000D01*
X248300Y108000D02*
X269000D01*
Y152000D02*
Y157054D01*
X258000Y168054D02*
X269000Y157054D01*
D50*
X59000Y379500D02*
D03*
X199000Y379000D02*
D03*
X269000Y301000D02*
D03*
X259000Y299000D02*
D03*
X249000Y300500D02*
D03*
X239000Y299500D02*
D03*
X229000D02*
D03*
X219000Y299000D02*
D03*
X209000D02*
D03*
X199000Y299500D02*
D03*
X189000D02*
D03*
X179000D02*
D03*
X169000Y300500D02*
D03*
X159000Y298500D02*
D03*
X149000Y300000D02*
D03*
X139000Y299000D02*
D03*
X119000Y299500D02*
D03*
X109000D02*
D03*
X99000D02*
D03*
X89000D02*
D03*
X79000D02*
D03*
X69000D02*
D03*
X59000D02*
D03*
X49000D02*
D03*
X39000Y298500D02*
D03*
Y379500D02*
D03*
X49000D02*
D03*
X69000D02*
D03*
X99000D02*
D03*
X89000D02*
D03*
X79000D02*
D03*
X119000D02*
D03*
X129000Y380000D02*
D03*
X139000Y379500D02*
D03*
X109000D02*
D03*
X149000Y379000D02*
D03*
X159000Y380000D02*
D03*
X169000Y379500D02*
D03*
X179000D02*
D03*
X189000Y379000D02*
D03*
X209000D02*
D03*
X219000D02*
D03*
X229000Y380500D02*
D03*
X239000Y378000D02*
D03*
X259000Y379500D02*
D03*
X249000D02*
D03*
X269000D02*
D03*
D57*
X204000Y357000D02*
D03*
X214000D02*
D03*
X224000D02*
D03*
X234000D02*
D03*
X244000D02*
D03*
X219000Y319500D02*
D03*
X229000D02*
D03*
X239000D02*
D03*
X259000D02*
D03*
X89000D02*
D03*
Y349500D02*
D03*
Y329500D02*
D03*
Y339500D02*
D03*
Y359500D02*
D03*
X119000Y309500D02*
D03*
X109000D02*
D03*
X99000D02*
D03*
X89000D02*
D03*
X79000D02*
D03*
X69000D02*
D03*
X59000D02*
D03*
X49000D02*
D03*
X39000D02*
D03*
Y369500D02*
D03*
X49000D02*
D03*
X59000D02*
D03*
X69000D02*
D03*
X79000D02*
D03*
X89000D02*
D03*
X99000D02*
D03*
X109000D02*
D03*
X119000D02*
D03*
X129000Y309500D02*
D03*
Y369500D02*
D03*
X269000Y309500D02*
D03*
Y369500D02*
D03*
X259000Y309500D02*
D03*
X249000D02*
D03*
X259000Y369500D02*
D03*
X239000Y309500D02*
D03*
X229000D02*
D03*
X219000D02*
D03*
X209000D02*
D03*
X199000D02*
D03*
X189000D02*
D03*
X179000D02*
D03*
X169000D02*
D03*
X159000D02*
D03*
X149000D02*
D03*
X139000D02*
D03*
Y369500D02*
D03*
X149000D02*
D03*
X159000D02*
D03*
X169000D02*
D03*
X179000D02*
D03*
X189000D02*
D03*
X199000D02*
D03*
X209000D02*
D03*
X219000D02*
D03*
X229000D02*
D03*
X239000D02*
D03*
X249000D02*
D03*
D58*
X211500Y235500D02*
D03*
X231500D02*
D03*
Y255500D02*
D03*
X211500D02*
D03*
X78500Y235500D02*
D03*
X98500D02*
D03*
Y255500D02*
D03*
X78500D02*
D03*
X103500Y155500D02*
D03*
X123500D02*
D03*
Y135500D02*
D03*
X103500D02*
D03*
Y185500D02*
D03*
X123500D02*
D03*
Y205500D02*
D03*
X103500D02*
D03*
X211500Y185500D02*
D03*
X231500D02*
D03*
Y205500D02*
D03*
X211500D02*
D03*
X53500Y155500D02*
D03*
X73500D02*
D03*
Y135500D02*
D03*
X53500D02*
D03*
Y205500D02*
D03*
X73500D02*
D03*
Y185500D02*
D03*
X53500D02*
D03*
X211500Y155500D02*
D03*
X231500D02*
D03*
Y135500D02*
D03*
X211500D02*
D03*
D59*
X221500Y245500D02*
D03*
X88500D02*
D03*
X113500Y145500D02*
D03*
Y195500D02*
D03*
X221500D02*
D03*
X63500Y145500D02*
D03*
Y195500D02*
D03*
X221500Y145500D02*
D03*
D60*
X217474Y56866D02*
D03*
X187500Y54500D02*
D03*
X231000Y77500D02*
D03*
X197500Y95000D02*
D03*
X269000Y108000D02*
D03*
X80000Y66500D02*
D03*
X269000Y172000D02*
D03*
X188000Y209500D02*
D03*
X157000D02*
D03*
X269000Y24000D02*
D03*
X259000Y44000D02*
D03*
X269000Y56000D02*
D03*
X259000Y140000D02*
D03*
X269000Y152000D02*
D03*
Y120000D02*
D03*
Y88000D02*
D03*
X259000Y76000D02*
D03*
X55500Y254000D02*
D03*
Y242000D02*
D03*
Y230000D02*
D03*
X173000Y165000D02*
D03*
X160500D02*
D03*
X277500Y225500D02*
D03*
Y261500D02*
D03*
Y249500D02*
D03*
Y237500D02*
D03*
Y201500D02*
D03*
Y213500D02*
D03*
X39000Y389500D02*
D03*
X49000D02*
D03*
X59000D02*
D03*
X69000D02*
D03*
X79000D02*
D03*
X89000D02*
D03*
X99000D02*
D03*
X109000D02*
D03*
X119000D02*
D03*
X129000D02*
D03*
X139000D02*
D03*
X149000D02*
D03*
X159000D02*
D03*
X169000D02*
D03*
X179000D02*
D03*
X189000D02*
D03*
X199000D02*
D03*
X209000D02*
D03*
X219000D02*
D03*
X229000D02*
D03*
X239000D02*
D03*
X249000D02*
D03*
X259000D02*
D03*
X39000Y289500D02*
D03*
X49000D02*
D03*
X59000D02*
D03*
X69000D02*
D03*
X79000D02*
D03*
X89000D02*
D03*
X99000D02*
D03*
X109000D02*
D03*
X119000D02*
D03*
X129000D02*
D03*
X139000D02*
D03*
X149000D02*
D03*
X159000D02*
D03*
X169000D02*
D03*
X179000D02*
D03*
X189000D02*
D03*
X199000D02*
D03*
X209000D02*
D03*
X219000D02*
D03*
X229000D02*
D03*
X239000D02*
D03*
X249000D02*
D03*
X259000D02*
D03*
X52500Y46500D02*
D03*
X90000Y106500D02*
D03*
X177500Y32500D02*
D03*
X80000Y78500D02*
D03*
D61*
X187500Y44500D02*
D03*
X173000Y155000D02*
D03*
X160500D02*
D03*
D62*
X326000Y391500D02*
D03*
X15000D02*
D03*
X326000Y15000D02*
D03*
X15000D02*
D03*
D63*
X178000Y209500D02*
D03*
X147000D02*
D03*
X259000Y24000D02*
D03*
X269000Y44000D02*
D03*
X259000Y56000D02*
D03*
X269000Y140000D02*
D03*
X259000Y152000D02*
D03*
Y120000D02*
D03*
Y88000D02*
D03*
X269000Y76000D02*
D03*
X45500Y254000D02*
D03*
Y242000D02*
D03*
Y230000D02*
D03*
X287500Y225500D02*
D03*
Y261500D02*
D03*
Y249500D02*
D03*
Y237500D02*
D03*
Y201500D02*
D03*
Y213500D02*
D03*
X269000Y389500D02*
D03*
Y289500D02*
D03*
X42500Y46500D02*
D03*
X80000Y106500D02*
D03*
X187500Y32500D02*
D03*
X90000Y78500D02*
D03*
D64*
X201500Y238000D02*
D03*
X204500Y272500D02*
D03*
X197000Y243500D02*
D03*
X182000Y229500D02*
D03*
X153500Y157344D02*
D03*
X155000Y170000D02*
D03*
X126500Y74844D02*
D03*
X156500Y227500D02*
D03*
X170104Y214895D02*
D03*
X226500Y125500D02*
D03*
X188500Y91500D02*
D03*
X185000Y84500D02*
D03*
X241000Y55700D02*
D03*
X224000Y49000D02*
D03*
X211000Y42500D02*
D03*
X60500Y78500D02*
D03*
X257500Y103000D02*
D03*
X245000Y116000D02*
D03*
X187000Y107000D02*
D03*
X191000Y253000D02*
D03*
X166500Y256500D02*
D03*
X159039D02*
D03*
X157500Y270500D02*
D03*
X179000Y273500D02*
D03*
X190500Y261500D02*
D03*
X185000Y267500D02*
D03*
X174000Y278500D02*
D03*
X278000Y190000D02*
D03*
X248300Y108000D02*
D03*
X258000Y168054D02*
D03*
X156500Y263500D02*
D03*
X225500Y348000D02*
D03*
X212000Y344000D02*
D03*
X185500Y174500D02*
D03*
X149517Y174983D02*
D03*
X194000Y172000D02*
D03*
X174000Y144000D02*
D03*
X180000D02*
D03*
X185500D02*
D03*
X181167Y170742D02*
D03*
X139500Y172000D02*
D03*
X160500Y146000D02*
D03*
X153500Y144500D02*
D03*
X207500Y121000D02*
D03*
X144262Y87738D02*
D03*
X145969Y99531D02*
D03*
X145000Y106500D02*
D03*
X107500Y106000D02*
D03*
X101500Y100500D02*
D03*
X171000Y64000D02*
D03*
X157500Y83500D02*
D03*
X170500D02*
D03*
X163000D02*
D03*
X187500Y98500D02*
D03*
X187000Y113500D02*
D03*
X178500Y125500D02*
D03*
X114500Y66000D02*
D03*
X117500Y60000D02*
D03*
X134000Y61500D02*
D03*
X140500Y59500D02*
D03*
X127000Y64000D02*
D03*
X117500Y228000D02*
D03*
X124000D02*
D03*
X151000Y230000D02*
D03*
X187500Y162000D02*
D03*
X161000Y122500D02*
D03*
X169000D02*
D03*
D65*
X333500Y284500D02*
D03*
Y164500D02*
D03*
Y134500D02*
D03*
Y104500D02*
D03*
Y314500D02*
D03*
Y254500D02*
D03*
Y224500D02*
D03*
Y194500D02*
D03*
Y74500D02*
D03*
Y344500D02*
D03*
X7500Y76500D02*
D03*
Y106500D02*
D03*
Y136500D02*
D03*
Y166500D02*
D03*
Y196500D02*
D03*
Y226500D02*
D03*
Y256500D02*
D03*
Y286500D02*
D03*
Y316500D02*
D03*
Y346500D02*
D03*
D66*
X158504Y96504D02*
D03*
Y100835D02*
D03*
Y105165D02*
D03*
Y109496D02*
D03*
X162835Y96504D02*
D03*
Y100835D02*
D03*
Y105165D02*
D03*
Y109496D02*
D03*
X167165Y96504D02*
D03*
Y100835D02*
D03*
Y105165D02*
D03*
Y109496D02*
D03*
X171496Y96504D02*
D03*
Y100835D02*
D03*
Y105165D02*
D03*
Y109496D02*
D03*
D67*
X165000Y103000D02*
D03*
M02*
