%TF.GenerationSoftware,Altium Limited,Altium Designer,22.3.1 (43)*%
G04 Layer_Color=128*
%FSLAX26Y26*%
%MOIN*%
%TF.SameCoordinates,25215B7F-5601-44EC-B639-707B6E2D0B24*%
%TF.FilePolarity,Positive*%
%TF.FileFunction,Drillmap*%
%TF.Part,Single*%
G01*
G75*
%TA.AperFunction,NonConductor*%
%ADD72C,0.005000*%
D72*
X2021000Y3570000D02*
X2059000D01*
X2040000Y3551000D02*
Y3589000D01*
X2121000Y3570000D02*
X2159000D01*
X2140000Y3551000D02*
Y3589000D01*
X2221000Y3570000D02*
X2259000D01*
X2240000Y3551000D02*
Y3589000D01*
X2321000Y3570000D02*
X2359000D01*
X2340000Y3551000D02*
Y3589000D01*
X2421000Y3570000D02*
X2459000D01*
X2440000Y3551000D02*
Y3589000D01*
X2171000Y3195000D02*
X2209000D01*
X2190000Y3176000D02*
Y3214000D01*
X2271000Y3195000D02*
X2309000D01*
X2290000Y3176000D02*
Y3214000D01*
X2371000Y3195000D02*
X2409000D01*
X2390000Y3176000D02*
Y3214000D01*
X2571000Y3195000D02*
X2609000D01*
X2590000Y3176000D02*
Y3214000D01*
X871000Y3195000D02*
X909000D01*
X890000Y3176000D02*
Y3214000D01*
X871000Y3495000D02*
X909000D01*
X890000Y3476000D02*
Y3514000D01*
X871000Y3295000D02*
X909000D01*
X890000Y3276000D02*
Y3314000D01*
X871000Y3395000D02*
X909000D01*
X890000Y3376000D02*
Y3414000D01*
X871000Y3595000D02*
X909000D01*
X890000Y3576000D02*
Y3614000D01*
X1171000Y3095000D02*
X1209000D01*
X1190000Y3076000D02*
Y3114000D01*
X1071000Y3095000D02*
X1109000D01*
X1090000Y3076000D02*
Y3114000D01*
X971000Y3095000D02*
X1009000D01*
X990000Y3076000D02*
Y3114000D01*
X871000Y3095000D02*
X909000D01*
X890000Y3076000D02*
Y3114000D01*
X771000Y3095000D02*
X809000D01*
X790000Y3076000D02*
Y3114000D01*
X671000Y3095000D02*
X709000D01*
X690000Y3076000D02*
Y3114000D01*
X571000Y3095000D02*
X609000D01*
X590000Y3076000D02*
Y3114000D01*
X471000Y3095000D02*
X509000D01*
X490000Y3076000D02*
Y3114000D01*
X371000Y3095000D02*
X409000D01*
X390000Y3076000D02*
Y3114000D01*
X371000Y3695000D02*
X409000D01*
X390000Y3676000D02*
Y3714000D01*
X471000Y3695000D02*
X509000D01*
X490000Y3676000D02*
Y3714000D01*
X571000Y3695000D02*
X609000D01*
X590000Y3676000D02*
Y3714000D01*
X671000Y3695000D02*
X709000D01*
X690000Y3676000D02*
Y3714000D01*
X771000Y3695000D02*
X809000D01*
X790000Y3676000D02*
Y3714000D01*
X871000Y3695000D02*
X909000D01*
X890000Y3676000D02*
Y3714000D01*
X971000Y3695000D02*
X1009000D01*
X990000Y3676000D02*
Y3714000D01*
X1071000Y3695000D02*
X1109000D01*
X1090000Y3676000D02*
Y3714000D01*
X1171000Y3695000D02*
X1209000D01*
X1190000Y3676000D02*
Y3714000D01*
X1271000Y3095000D02*
X1309000D01*
X1290000Y3076000D02*
Y3114000D01*
X1271000Y3695000D02*
X1309000D01*
X1290000Y3676000D02*
Y3714000D01*
X2671000Y3095000D02*
X2709000D01*
X2690000Y3076000D02*
Y3114000D01*
X2671000Y3695000D02*
X2709000D01*
X2690000Y3676000D02*
Y3714000D01*
X2571000Y3095000D02*
X2609000D01*
X2590000Y3076000D02*
Y3114000D01*
X2471000Y3095000D02*
X2509000D01*
X2490000Y3076000D02*
Y3114000D01*
X2571000Y3695000D02*
X2609000D01*
X2590000Y3676000D02*
Y3714000D01*
X2371000Y3095000D02*
X2409000D01*
X2390000Y3076000D02*
Y3114000D01*
X2271000Y3095000D02*
X2309000D01*
X2290000Y3076000D02*
Y3114000D01*
X2171000Y3095000D02*
X2209000D01*
X2190000Y3076000D02*
Y3114000D01*
X2071000Y3095000D02*
X2109000D01*
X2090000Y3076000D02*
Y3114000D01*
X1971000Y3095000D02*
X2009000D01*
X1990000Y3076000D02*
Y3114000D01*
X1871000Y3095000D02*
X1909000D01*
X1890000Y3076000D02*
Y3114000D01*
X1771000Y3095000D02*
X1809000D01*
X1790000Y3076000D02*
Y3114000D01*
X1671000Y3095000D02*
X1709000D01*
X1690000Y3076000D02*
Y3114000D01*
X1571000Y3095000D02*
X1609000D01*
X1590000Y3076000D02*
Y3114000D01*
X1471000Y3095000D02*
X1509000D01*
X1490000Y3076000D02*
Y3114000D01*
X1371000Y3095000D02*
X1409000D01*
X1390000Y3076000D02*
Y3114000D01*
X1371000Y3695000D02*
X1409000D01*
X1390000Y3676000D02*
Y3714000D01*
X1471000Y3695000D02*
X1509000D01*
X1490000Y3676000D02*
Y3714000D01*
X1571000Y3695000D02*
X1609000D01*
X1590000Y3676000D02*
Y3714000D01*
X1671000Y3695000D02*
X1709000D01*
X1690000Y3676000D02*
Y3714000D01*
X1771000Y3695000D02*
X1809000D01*
X1790000Y3676000D02*
Y3714000D01*
X1871000Y3695000D02*
X1909000D01*
X1890000Y3676000D02*
Y3714000D01*
X1971000Y3695000D02*
X2009000D01*
X1990000Y3676000D02*
Y3714000D01*
X2071000Y3695000D02*
X2109000D01*
X2090000Y3676000D02*
Y3714000D01*
X2171000Y3695000D02*
X2209000D01*
X2190000Y3676000D02*
Y3714000D01*
X2271000Y3695000D02*
X2309000D01*
X2290000Y3676000D02*
Y3714000D01*
X2371000Y3695000D02*
X2409000D01*
X2390000Y3676000D02*
Y3714000D01*
X2471000Y3695000D02*
X2509000D01*
X2490000Y3676000D02*
Y3714000D01*
X2083504Y2355000D02*
X2146496D01*
X2115000Y2323504D02*
Y2386496D01*
X2283504Y2355000D02*
X2346496D01*
X2315000Y2323504D02*
Y2386496D01*
X2283504Y2555000D02*
X2346496D01*
X2315000Y2523504D02*
Y2586496D01*
X2083504Y2555000D02*
X2146496D01*
X2115000Y2523504D02*
Y2586496D01*
X2185472Y2455000D02*
X2244528D01*
X2215000Y2425472D02*
Y2484528D01*
X753504Y2355000D02*
X816496D01*
X785000Y2323504D02*
Y2386496D01*
X953504Y2355000D02*
X1016496D01*
X985000Y2323504D02*
Y2386496D01*
X953504Y2555000D02*
X1016496D01*
X985000Y2523504D02*
Y2586496D01*
X753504Y2555000D02*
X816496D01*
X785000Y2523504D02*
Y2586496D01*
X855472Y2455000D02*
X914528D01*
X885000Y2425472D02*
Y2484528D01*
X2157021Y568660D02*
X2192454D01*
X2174737Y550944D02*
Y586377D01*
X1857284Y445000D02*
X1892716D01*
X1875000Y427284D02*
Y462716D01*
X1857284Y545000D02*
X1892716D01*
X1875000Y527284D02*
Y562716D01*
X2292284Y775000D02*
X2327716D01*
X2310000Y757284D02*
Y792716D01*
X1957284Y950000D02*
X1992716D01*
X1975000Y932284D02*
Y967716D01*
X3210000Y3915000D02*
X3310000D01*
X3260000Y3865000D02*
Y3965000D01*
X100000Y3915000D02*
X200000D01*
X150000Y3865000D02*
Y3965000D01*
X3210000Y150000D02*
X3310000D01*
X3260000Y100000D02*
Y200000D01*
X100000Y150000D02*
X200000D01*
X150000Y100000D02*
Y200000D01*
X2672284Y1080000D02*
X2707716D01*
X2690000Y1062284D02*
Y1097716D01*
X782284Y665000D02*
X817716D01*
X800000Y647284D02*
Y682716D01*
X2672284Y1720000D02*
X2707716D01*
X2690000Y1702284D02*
Y1737716D01*
X1105473Y1455000D02*
X1164527D01*
X1135000Y1425473D02*
Y1484527D01*
X1003504Y1555000D02*
X1066496D01*
X1035000Y1523504D02*
Y1586496D01*
X1203504Y1555000D02*
X1266496D01*
X1235000Y1523504D02*
Y1586496D01*
X1203504Y1355000D02*
X1266496D01*
X1235000Y1323504D02*
Y1386496D01*
X1003504Y1355000D02*
X1066496D01*
X1035000Y1323504D02*
Y1386496D01*
X1003504Y1855000D02*
X1066496D01*
X1035000Y1823504D02*
Y1886496D01*
X1203504Y1855000D02*
X1266496D01*
X1235000Y1823504D02*
Y1886496D01*
X1203504Y2055000D02*
X1266496D01*
X1235000Y2023504D02*
Y2086496D01*
X1003504Y2055000D02*
X1066496D01*
X1035000Y2023504D02*
Y2086496D01*
X1105473Y1955000D02*
X1164527D01*
X1135000Y1925473D02*
Y1984527D01*
X1762284Y2095000D02*
X1797716D01*
X1780000Y2077284D02*
Y2112716D01*
X1862284Y2095000D02*
X1897716D01*
X1880000Y2077284D02*
Y2112716D01*
X1452284Y2095000D02*
X1487716D01*
X1470000Y2077284D02*
Y2112716D01*
X1552284Y2095000D02*
X1587716D01*
X1570000Y2077284D02*
Y2112716D01*
X2083504Y1855000D02*
X2146496D01*
X2115000Y1823504D02*
Y1886496D01*
X2283504Y1855000D02*
X2346496D01*
X2315000Y1823504D02*
Y1886496D01*
X2283504Y2055000D02*
X2346496D01*
X2315000Y2023504D02*
Y2086496D01*
X2083504Y2055000D02*
X2146496D01*
X2115000Y2023504D02*
Y2086496D01*
X2185472Y1955000D02*
X2244528D01*
X2215000Y1925473D02*
Y1984527D01*
X2672284Y240000D02*
X2707716D01*
X2690000Y222284D02*
Y257716D01*
X2572284Y240000D02*
X2607716D01*
X2590000Y222284D02*
Y257716D01*
X2572284Y440000D02*
X2607716D01*
X2590000Y422284D02*
Y457716D01*
X2672284Y440000D02*
X2707716D01*
X2690000Y422284D02*
Y457716D01*
X2672284Y560000D02*
X2707716D01*
X2690000Y542284D02*
Y577716D01*
X2572284Y560000D02*
X2607716D01*
X2590000Y542284D02*
Y577716D01*
X2572284Y1400000D02*
X2607716D01*
X2590000Y1382284D02*
Y1417716D01*
X2672284Y1400000D02*
X2707716D01*
X2690000Y1382284D02*
Y1417716D01*
X2672284Y1520000D02*
X2707716D01*
X2690000Y1502284D02*
Y1537716D01*
X2572284Y1520000D02*
X2607716D01*
X2590000Y1502284D02*
Y1537716D01*
X2672284Y1200000D02*
X2707716D01*
X2690000Y1182284D02*
Y1217716D01*
X2572284Y1200000D02*
X2607716D01*
X2590000Y1182284D02*
Y1217716D01*
X2672284Y880000D02*
X2707716D01*
X2690000Y862284D02*
Y897716D01*
X2572284Y880000D02*
X2607716D01*
X2590000Y862284D02*
Y897716D01*
X2572284Y760000D02*
X2607716D01*
X2590000Y742284D02*
Y777716D01*
X2672284Y760000D02*
X2707716D01*
X2690000Y742284D02*
Y777716D01*
X537284Y2540000D02*
X572716D01*
X555000Y2522284D02*
Y2557716D01*
X437284Y2540000D02*
X472716D01*
X455000Y2522284D02*
Y2557716D01*
X537284Y2420000D02*
X572716D01*
X555000Y2402284D02*
Y2437716D01*
X437284Y2420000D02*
X472716D01*
X455000Y2402284D02*
Y2437716D01*
X537284Y2300000D02*
X572716D01*
X555000Y2282284D02*
Y2317716D01*
X437284Y2300000D02*
X472716D01*
X455000Y2282284D02*
Y2317716D01*
X1712284Y1550000D02*
X1747716D01*
X1730000Y1532284D02*
Y1567716D01*
X1712284Y1650000D02*
X1747716D01*
X1730000Y1632284D02*
Y1667716D01*
X1587284Y1550000D02*
X1622716D01*
X1605000Y1532284D02*
Y1567716D01*
X1587284Y1650000D02*
X1622716D01*
X1605000Y1632284D02*
Y1667716D01*
X605472Y1455000D02*
X664528D01*
X635000Y1425473D02*
Y1484527D01*
X503504Y1555000D02*
X566496D01*
X535000Y1523504D02*
Y1586496D01*
X703504Y1555000D02*
X766496D01*
X735000Y1523504D02*
Y1586496D01*
X703504Y1355000D02*
X766496D01*
X735000Y1323504D02*
Y1386496D01*
X503504Y1355000D02*
X566496D01*
X535000Y1323504D02*
Y1386496D01*
X605472Y1955000D02*
X664528D01*
X635000Y1925473D02*
Y1984527D01*
X503504Y2055000D02*
X566496D01*
X535000Y2023504D02*
Y2086496D01*
X703504Y2055000D02*
X766496D01*
X735000Y2023504D02*
Y2086496D01*
X703504Y1855000D02*
X766496D01*
X735000Y1823504D02*
Y1886496D01*
X503504Y1855000D02*
X566496D01*
X535000Y1823504D02*
Y1886496D01*
X2185472Y1455000D02*
X2244528D01*
X2215000Y1425473D02*
Y1484527D01*
X2083504Y1555000D02*
X2146496D01*
X2115000Y1523504D02*
Y1586496D01*
X2283504Y1555000D02*
X2346496D01*
X2315000Y1523504D02*
Y1586496D01*
X2283504Y1355000D02*
X2346496D01*
X2315000Y1323504D02*
Y1386496D01*
X2083504Y1355000D02*
X2146496D01*
X2115000Y1323504D02*
Y1386496D01*
X2757284Y2255000D02*
X2792716D01*
X2775000Y2237284D02*
Y2272716D01*
X2857284Y2255000D02*
X2892716D01*
X2875000Y2237284D02*
Y2272716D01*
X2757284Y2615000D02*
X2792716D01*
X2775000Y2597284D02*
Y2632716D01*
X2857284Y2615000D02*
X2892716D01*
X2875000Y2597284D02*
Y2632716D01*
X2757284Y2495000D02*
X2792716D01*
X2775000Y2477284D02*
Y2512716D01*
X2857284Y2495000D02*
X2892716D01*
X2875000Y2477284D02*
Y2512716D01*
X2757284Y2375000D02*
X2792716D01*
X2775000Y2357284D02*
Y2392716D01*
X2857284Y2375000D02*
X2892716D01*
X2875000Y2357284D02*
Y2392716D01*
X2757284Y2015000D02*
X2792716D01*
X2775000Y1997284D02*
Y2032716D01*
X2857284Y2015000D02*
X2892716D01*
X2875000Y1997284D02*
Y2032716D01*
X2757284Y2135000D02*
X2792716D01*
X2775000Y2117284D02*
Y2152716D01*
X2857284Y2135000D02*
X2892716D01*
X2875000Y2117284D02*
Y2152716D01*
X2672284Y3895000D02*
X2707716D01*
X2690000Y3877284D02*
Y3912716D01*
X372284Y3895000D02*
X407716D01*
X390000Y3877284D02*
Y3912716D01*
X472284Y3895000D02*
X507716D01*
X490000Y3877284D02*
Y3912716D01*
X572284Y3895000D02*
X607716D01*
X590000Y3877284D02*
Y3912716D01*
X672284Y3895000D02*
X707716D01*
X690000Y3877284D02*
Y3912716D01*
X772284Y3895000D02*
X807716D01*
X790000Y3877284D02*
Y3912716D01*
X872284Y3895000D02*
X907716D01*
X890000Y3877284D02*
Y3912716D01*
X972284Y3895000D02*
X1007716D01*
X990000Y3877284D02*
Y3912716D01*
X1072284Y3895000D02*
X1107716D01*
X1090000Y3877284D02*
Y3912716D01*
X1172284Y3895000D02*
X1207716D01*
X1190000Y3877284D02*
Y3912716D01*
X1272284Y3895000D02*
X1307716D01*
X1290000Y3877284D02*
Y3912716D01*
X1372284Y3895000D02*
X1407716D01*
X1390000Y3877284D02*
Y3912716D01*
X1472284Y3895000D02*
X1507716D01*
X1490000Y3877284D02*
Y3912716D01*
X1572284Y3895000D02*
X1607716D01*
X1590000Y3877284D02*
Y3912716D01*
X1672284Y3895000D02*
X1707716D01*
X1690000Y3877284D02*
Y3912716D01*
X1772284Y3895000D02*
X1807716D01*
X1790000Y3877284D02*
Y3912716D01*
X1872284Y3895000D02*
X1907716D01*
X1890000Y3877284D02*
Y3912716D01*
X1972284Y3895000D02*
X2007716D01*
X1990000Y3877284D02*
Y3912716D01*
X2072284Y3895000D02*
X2107716D01*
X2090000Y3877284D02*
Y3912716D01*
X2172284Y3895000D02*
X2207716D01*
X2190000Y3877284D02*
Y3912716D01*
X2272284Y3895000D02*
X2307716D01*
X2290000Y3877284D02*
Y3912716D01*
X2372284Y3895000D02*
X2407716D01*
X2390000Y3877284D02*
Y3912716D01*
X2472284Y3895000D02*
X2507716D01*
X2490000Y3877284D02*
Y3912716D01*
X2572284Y3895000D02*
X2607716D01*
X2590000Y3877284D02*
Y3912716D01*
X2672284Y2895000D02*
X2707716D01*
X2690000Y2877284D02*
Y2912716D01*
X372284Y2895000D02*
X407716D01*
X390000Y2877284D02*
Y2912716D01*
X472284Y2895000D02*
X507716D01*
X490000Y2877284D02*
Y2912716D01*
X572284Y2895000D02*
X607716D01*
X590000Y2877284D02*
Y2912716D01*
X672284Y2895000D02*
X707716D01*
X690000Y2877284D02*
Y2912716D01*
X772284Y2895000D02*
X807716D01*
X790000Y2877284D02*
Y2912716D01*
X872284Y2895000D02*
X907716D01*
X890000Y2877284D02*
Y2912716D01*
X972284Y2895000D02*
X1007716D01*
X990000Y2877284D02*
Y2912716D01*
X1072284Y2895000D02*
X1107716D01*
X1090000Y2877284D02*
Y2912716D01*
X1172284Y2895000D02*
X1207716D01*
X1190000Y2877284D02*
Y2912716D01*
X1272284Y2895000D02*
X1307716D01*
X1290000Y2877284D02*
Y2912716D01*
X1372284Y2895000D02*
X1407716D01*
X1390000Y2877284D02*
Y2912716D01*
X1472284Y2895000D02*
X1507716D01*
X1490000Y2877284D02*
Y2912716D01*
X1572284Y2895000D02*
X1607716D01*
X1590000Y2877284D02*
Y2912716D01*
X1672284Y2895000D02*
X1707716D01*
X1690000Y2877284D02*
Y2912716D01*
X1772284Y2895000D02*
X1807716D01*
X1790000Y2877284D02*
Y2912716D01*
X1872284Y2895000D02*
X1907716D01*
X1890000Y2877284D02*
Y2912716D01*
X1972284Y2895000D02*
X2007716D01*
X1990000Y2877284D02*
Y2912716D01*
X2072284Y2895000D02*
X2107716D01*
X2090000Y2877284D02*
Y2912716D01*
X2172284Y2895000D02*
X2207716D01*
X2190000Y2877284D02*
Y2912716D01*
X2272284Y2895000D02*
X2307716D01*
X2290000Y2877284D02*
Y2912716D01*
X2372284Y2895000D02*
X2407716D01*
X2390000Y2877284D02*
Y2912716D01*
X2472284Y2895000D02*
X2507716D01*
X2490000Y2877284D02*
Y2912716D01*
X2572284Y2895000D02*
X2607716D01*
X2590000Y2877284D02*
Y2912716D01*
X407284Y465000D02*
X442716D01*
X425000Y447284D02*
Y482716D01*
X507284Y465000D02*
X542716D01*
X525000Y447284D02*
Y482716D01*
X782284Y1065000D02*
X817716D01*
X800000Y1047284D02*
Y1082716D01*
X882284Y1065000D02*
X917716D01*
X900000Y1047284D02*
Y1082716D01*
X1857284Y325000D02*
X1892716D01*
X1875000Y307284D02*
Y342716D01*
X1757284Y325000D02*
X1792716D01*
X1775000Y307284D02*
Y342716D01*
X882284Y785000D02*
X917716D01*
X900000Y767284D02*
Y802716D01*
X782284Y785000D02*
X817716D01*
X800000Y767284D02*
Y802716D01*
X2005000Y2380000D02*
X2025000D01*
X2015000Y2370000D02*
Y2390000D01*
X2035000Y2725000D02*
X2055000D01*
X2045000Y2715000D02*
Y2735000D01*
X1960000Y2435000D02*
X1980000D01*
X1970000Y2425000D02*
Y2445000D01*
X1810000Y2295000D02*
X1830000D01*
X1820000Y2285000D02*
Y2305000D01*
X1525000Y1573436D02*
X1545000D01*
X1535000Y1563436D02*
Y1583436D01*
X1540000Y1700000D02*
X1560000D01*
X1550000Y1690000D02*
Y1710000D01*
X1255000Y748436D02*
X1275000D01*
X1265000Y738436D02*
Y758436D01*
X1555000Y2275000D02*
X1575000D01*
X1565000Y2265000D02*
Y2285000D01*
X1691038Y2148952D02*
X1711038D01*
X1701038Y2138952D02*
Y2158952D01*
X3312500Y2845000D02*
X3357500D01*
X3335000Y2822500D02*
Y2867500D01*
X3312500Y1645000D02*
X3357500D01*
X3335000Y1622500D02*
Y1667500D01*
X3312500Y1345000D02*
X3357500D01*
X3335000Y1322500D02*
Y1367500D01*
X3312500Y1045000D02*
X3357500D01*
X3335000Y1022500D02*
Y1067500D01*
X3312500Y3145000D02*
X3357500D01*
X3335000Y3122500D02*
Y3167500D01*
X3312500Y2545000D02*
X3357500D01*
X3335000Y2522500D02*
Y2567500D01*
X3312500Y2245000D02*
X3357500D01*
X3335000Y2222500D02*
Y2267500D01*
X3312500Y1945000D02*
X3357500D01*
X3335000Y1922500D02*
Y1967500D01*
X3312500Y745000D02*
X3357500D01*
X3335000Y722500D02*
Y767500D01*
X3312500Y3445000D02*
X3357500D01*
X3335000Y3422500D02*
Y3467500D01*
X52500Y765000D02*
X97500D01*
X75000Y742500D02*
Y787500D01*
X52500Y1065000D02*
X97500D01*
X75000Y1042500D02*
Y1087500D01*
X52500Y1365000D02*
X97500D01*
X75000Y1342500D02*
Y1387500D01*
X52500Y1665000D02*
X97500D01*
X75000Y1642500D02*
Y1687500D01*
X52500Y1965000D02*
X97500D01*
X75000Y1942500D02*
Y1987500D01*
X52500Y2265000D02*
X97500D01*
X75000Y2242500D02*
Y2287500D01*
X52500Y2565000D02*
X97500D01*
X75000Y2542500D02*
Y2587500D01*
X52500Y2865000D02*
X97500D01*
X75000Y2842500D02*
Y2887500D01*
X52500Y3165000D02*
X97500D01*
X75000Y3142500D02*
Y3187500D01*
X52500Y3465000D02*
X97500D01*
X75000Y3442500D02*
Y3487500D01*
X2255000Y1255000D02*
X2275000D01*
X2265000Y1245000D02*
Y1265000D01*
X1875000Y915000D02*
X1895000D01*
X1885000Y905000D02*
Y925000D01*
X1840000Y845000D02*
X1860000D01*
X1850000Y835000D02*
Y855000D01*
X2400000Y557000D02*
X2420000D01*
X2410000Y547000D02*
Y567000D01*
X2230000Y490000D02*
X2250000D01*
X2240000Y480000D02*
Y500000D01*
X2100000Y425000D02*
X2120000D01*
X2110000Y415000D02*
Y435000D01*
X595000Y785000D02*
X615000D01*
X605000Y775000D02*
Y795000D01*
X2565000Y1030000D02*
X2585000D01*
X2575000Y1020000D02*
Y1040000D01*
X2440000Y1160000D02*
X2460000D01*
X2450000Y1150000D02*
Y1170000D01*
X1860000Y1070000D02*
X1880000D01*
X1870000Y1060000D02*
Y1080000D01*
X1900000Y2530000D02*
X1920000D01*
X1910000Y2520000D02*
Y2540000D01*
X1655000Y2565000D02*
X1675000D01*
X1665000Y2555000D02*
Y2575000D01*
X1580386Y2565000D02*
X1600386D01*
X1590386Y2555000D02*
Y2575000D01*
X1565000Y2705000D02*
X1585000D01*
X1575000Y2695000D02*
Y2715000D01*
X1780000Y2735000D02*
X1800000D01*
X1790000Y2725000D02*
Y2745000D01*
X1895000Y2615000D02*
X1915000D01*
X1905000Y2605000D02*
Y2625000D01*
X1840000Y2675000D02*
X1860000D01*
X1850000Y2665000D02*
Y2685000D01*
X1730000Y2785000D02*
X1750000D01*
X1740000Y2775000D02*
Y2795000D01*
X2770000Y1900000D02*
X2790000D01*
X2780000Y1890000D02*
Y1910000D01*
X2473000Y1080000D02*
X2493000D01*
X2483000Y1070000D02*
Y1090000D01*
X2570000Y1680543D02*
X2590000D01*
X2580000Y1670543D02*
Y1690543D01*
X1555000Y2635000D02*
X1575000D01*
X1565000Y2625000D02*
Y2645000D01*
X2245000Y3480000D02*
X2265000D01*
X2255000Y3470000D02*
Y3490000D01*
X2110000Y3440000D02*
X2130000D01*
X2120000Y3430000D02*
Y3450000D01*
X1845000Y1745000D02*
X1865000D01*
X1855000Y1735000D02*
Y1755000D01*
X1485174Y1749826D02*
X1505174D01*
X1495174Y1739826D02*
Y1759826D01*
X1930000Y1720000D02*
X1950000D01*
X1940000Y1710000D02*
Y1730000D01*
X1730000Y1440000D02*
X1750000D01*
X1740000Y1430000D02*
Y1450000D01*
X1790000Y1440000D02*
X1810000D01*
X1800000Y1430000D02*
Y1450000D01*
X1845000Y1440000D02*
X1865000D01*
X1855000Y1430000D02*
Y1450000D01*
X1801666Y1707425D02*
X1821666D01*
X1811666Y1697425D02*
Y1717425D01*
X1385000Y1720000D02*
X1405000D01*
X1395000Y1710000D02*
Y1730000D01*
X1595000Y1460000D02*
X1615000D01*
X1605000Y1450000D02*
Y1470000D01*
X1525000Y1445000D02*
X1545000D01*
X1535000Y1435000D02*
Y1455000D01*
X2065000Y1210000D02*
X2085000D01*
X2075000Y1200000D02*
Y1220000D01*
X1432620Y877380D02*
X1452620D01*
X1442620Y867380D02*
Y887380D01*
X1449690Y995310D02*
X1469690D01*
X1459690Y985310D02*
Y1005310D01*
X1440000Y1065000D02*
X1460000D01*
X1450000Y1055000D02*
Y1075000D01*
X1065000Y1060000D02*
X1085000D01*
X1075000Y1050000D02*
Y1070000D01*
X1005000Y1005000D02*
X1025000D01*
X1015000Y995000D02*
Y1015000D01*
X1700000Y640000D02*
X1720000D01*
X1710000Y630000D02*
Y650000D01*
X1565000Y835000D02*
X1585000D01*
X1575000Y825000D02*
Y845000D01*
X1695000Y835000D02*
X1715000D01*
X1705000Y825000D02*
Y845000D01*
X1620000Y835000D02*
X1640000D01*
X1630000Y825000D02*
Y845000D01*
X1865000Y985000D02*
X1885000D01*
X1875000Y975000D02*
Y995000D01*
X1860000Y1135000D02*
X1880000D01*
X1870000Y1125000D02*
Y1145000D01*
X1775000Y1255000D02*
X1795000D01*
X1785000Y1245000D02*
Y1265000D01*
X1135000Y660000D02*
X1155000D01*
X1145000Y650000D02*
Y670000D01*
X1165000Y600000D02*
X1185000D01*
X1175000Y590000D02*
Y610000D01*
X1330000Y615000D02*
X1350000D01*
X1340000Y605000D02*
Y625000D01*
X1395000Y595000D02*
X1415000D01*
X1405000Y585000D02*
Y605000D01*
X1260000Y640000D02*
X1280000D01*
X1270000Y630000D02*
Y650000D01*
X1165000Y2280000D02*
X1185000D01*
X1175000Y2270000D02*
Y2290000D01*
X1230000Y2280000D02*
X1250000D01*
X1240000Y2270000D02*
Y2290000D01*
X1500000Y2300000D02*
X1520000D01*
X1510000Y2290000D02*
Y2310000D01*
X1865000Y1620000D02*
X1885000D01*
X1875000Y1610000D02*
Y1630000D01*
X1600000Y1225000D02*
X1620000D01*
X1610000Y1215000D02*
Y1235000D01*
X1680000Y1225000D02*
X1700000D01*
X1690000Y1215000D02*
Y1235000D01*
X1577539Y965039D02*
X1592539D01*
X1585039Y957539D02*
Y972539D01*
X1577539Y1008346D02*
X1592539D01*
X1585039Y1000846D02*
Y1015846D01*
X1577539Y1051654D02*
X1592539D01*
X1585039Y1044154D02*
Y1059154D01*
X1577539Y1094961D02*
X1592539D01*
X1585039Y1087461D02*
Y1102461D01*
X1620847Y965039D02*
X1635847D01*
X1628347Y957539D02*
Y972539D01*
X1620847Y1008346D02*
X1635847D01*
X1628347Y1000846D02*
Y1015846D01*
X1620847Y1051654D02*
X1635847D01*
X1628347Y1044154D02*
Y1059154D01*
X1620847Y1094961D02*
X1635847D01*
X1628347Y1087461D02*
Y1102461D01*
X1664154Y965039D02*
X1679154D01*
X1671654Y957539D02*
Y972539D01*
X1664154Y1008346D02*
X1679154D01*
X1671654Y1000846D02*
Y1015846D01*
X1664154Y1051654D02*
X1679154D01*
X1671654Y1044154D02*
Y1059154D01*
X1664154Y1094961D02*
X1679154D01*
X1671654Y1087461D02*
Y1102461D01*
X1707461Y965039D02*
X1722461D01*
X1714961Y957539D02*
Y972539D01*
X1707461Y1008346D02*
X1722461D01*
X1714961Y1000846D02*
Y1015846D01*
X1707461Y1051654D02*
X1722461D01*
X1714961Y1044154D02*
Y1059154D01*
X1707461Y1094961D02*
X1722461D01*
X1714961Y1087461D02*
Y1102461D01*
%TF.MD5,ff609454ef73d960e742111b24eee55a*%
M02*
