%TF.GenerationSoftware,Altium Limited,Altium Designer,22.3.1 (43)*%
G04 Layer_Color=8388736*
%FSLAX26Y26*%
%MOIN*%
%TF.SameCoordinates,25215B7F-5601-44EC-B639-707B6E2D0B24*%
%TF.FilePolarity,Negative*%
%TF.FileFunction,Soldermask,Top*%
%TF.Part,Single*%
G01*
G75*
%TA.AperFunction,ComponentPad*%
%ADD57C,0.062409*%
%ADD58C,0.087087*%
%ADD59C,0.083150*%
%TA.AperFunction,ViaPad*%
%ADD60C,0.063465*%
%TA.AperFunction,ComponentPad*%
%ADD61R,0.063465X0.063465*%
%ADD62C,0.063465*%
%ADD63C,0.204409*%
%ADD64R,0.063465X0.063465*%
%TA.AperFunction,ViaPad*%
%ADD65C,0.038409*%
%ADD66C,0.069409*%
%ADD67C,0.029409*%
%TA.AperFunction,SMDPad,CuDef*%
%ADD73R,0.035906X0.041811*%
%ADD74R,0.041811X0.035906*%
%ADD75R,0.041811X0.045748*%
%ADD76R,0.022126X0.062480*%
G04:AMPARAMS|DCode=77|XSize=28.031mil|YSize=43.779mil|CornerRadius=4.213mil|HoleSize=0mil|Usage=FLASHONLY|Rotation=90.000|XOffset=0mil|YOffset=0mil|HoleType=Round|Shape=RoundedRectangle|*
%AMROUNDEDRECTD77*
21,1,0.028031,0.035354,0,0,90.0*
21,1,0.019606,0.043779,0,0,90.0*
1,1,0.008425,0.017677,0.009803*
1,1,0.008425,0.017677,-0.009803*
1,1,0.008425,-0.017677,-0.009803*
1,1,0.008425,-0.017677,0.009803*
%
%ADD77ROUNDEDRECTD77*%
%ADD78R,0.045748X0.041811*%
%ADD79R,0.016220X0.037874*%
%ADD80R,0.040236X0.052441*%
%ADD81O,0.012283X0.039843*%
%ADD82O,0.039843X0.012283*%
%ADD83R,0.161890X0.161890*%
D57*
X2040000Y3570000D02*
D03*
X2140000D02*
D03*
X2240000D02*
D03*
X2340000D02*
D03*
X2440000D02*
D03*
X2190000Y3195000D02*
D03*
X2290000D02*
D03*
X2390000D02*
D03*
X2590000D02*
D03*
X890000D02*
D03*
Y3495000D02*
D03*
Y3295000D02*
D03*
Y3395000D02*
D03*
Y3595000D02*
D03*
X1190000Y3095000D02*
D03*
X1090000D02*
D03*
X990000D02*
D03*
X890000D02*
D03*
X790000D02*
D03*
X690000D02*
D03*
X590000D02*
D03*
X490000D02*
D03*
X390000D02*
D03*
Y3695000D02*
D03*
X490000D02*
D03*
X590000D02*
D03*
X690000D02*
D03*
X790000D02*
D03*
X890000D02*
D03*
X990000D02*
D03*
X1090000D02*
D03*
X1190000D02*
D03*
X1290000Y3095000D02*
D03*
Y3695000D02*
D03*
X2690000Y3095000D02*
D03*
Y3695000D02*
D03*
X2590000Y3095000D02*
D03*
X2490000D02*
D03*
X2590000Y3695000D02*
D03*
X2390000Y3095000D02*
D03*
X2290000D02*
D03*
X2190000D02*
D03*
X2090000D02*
D03*
X1990000D02*
D03*
X1890000D02*
D03*
X1790000D02*
D03*
X1690000D02*
D03*
X1590000D02*
D03*
X1490000D02*
D03*
X1390000D02*
D03*
Y3695000D02*
D03*
X1490000D02*
D03*
X1590000D02*
D03*
X1690000D02*
D03*
X1790000D02*
D03*
X1890000D02*
D03*
X1990000D02*
D03*
X2090000D02*
D03*
X2190000D02*
D03*
X2290000D02*
D03*
X2390000D02*
D03*
X2490000D02*
D03*
D58*
X2115000Y2355000D02*
D03*
X2315000D02*
D03*
Y2555000D02*
D03*
X2115000D02*
D03*
X785000Y2355000D02*
D03*
X985000D02*
D03*
Y2555000D02*
D03*
X785000D02*
D03*
X1035000Y1555000D02*
D03*
X1235000D02*
D03*
Y1355000D02*
D03*
X1035000D02*
D03*
Y1855000D02*
D03*
X1235000D02*
D03*
Y2055000D02*
D03*
X1035000D02*
D03*
X2115000Y1855000D02*
D03*
X2315000D02*
D03*
Y2055000D02*
D03*
X2115000D02*
D03*
X535000Y1555000D02*
D03*
X735000D02*
D03*
Y1355000D02*
D03*
X535000D02*
D03*
Y2055000D02*
D03*
X735000D02*
D03*
Y1855000D02*
D03*
X535000D02*
D03*
X2115000Y1555000D02*
D03*
X2315000D02*
D03*
Y1355000D02*
D03*
X2115000D02*
D03*
D59*
X2215000Y2455000D02*
D03*
X885000D02*
D03*
X1135000Y1455000D02*
D03*
Y1955000D02*
D03*
X2215000D02*
D03*
X635000Y1455000D02*
D03*
Y1955000D02*
D03*
X2215000Y1455000D02*
D03*
D60*
X2174737Y568660D02*
D03*
X2310000Y775000D02*
D03*
D61*
X1875000Y445000D02*
D03*
X1730000Y1550000D02*
D03*
X1605000D02*
D03*
D62*
X1875000Y545000D02*
D03*
X1975000Y950000D02*
D03*
X2690000Y1080000D02*
D03*
X800000Y665000D02*
D03*
X2690000Y1720000D02*
D03*
X1880000Y2095000D02*
D03*
X1570000D02*
D03*
X2690000Y240000D02*
D03*
X2590000Y440000D02*
D03*
X2690000Y560000D02*
D03*
X2590000Y1400000D02*
D03*
X2690000Y1520000D02*
D03*
Y1200000D02*
D03*
Y880000D02*
D03*
X2590000Y760000D02*
D03*
X555000Y2540000D02*
D03*
Y2420000D02*
D03*
Y2300000D02*
D03*
X1730000Y1650000D02*
D03*
X1605000D02*
D03*
X2775000Y2255000D02*
D03*
Y2615000D02*
D03*
Y2495000D02*
D03*
Y2375000D02*
D03*
Y2015000D02*
D03*
Y2135000D02*
D03*
X390000Y3895000D02*
D03*
X490000D02*
D03*
X590000D02*
D03*
X690000D02*
D03*
X790000D02*
D03*
X890000D02*
D03*
X990000D02*
D03*
X1090000D02*
D03*
X1190000D02*
D03*
X1290000D02*
D03*
X1390000D02*
D03*
X1490000D02*
D03*
X1590000D02*
D03*
X1690000D02*
D03*
X1790000D02*
D03*
X1890000D02*
D03*
X1990000D02*
D03*
X2090000D02*
D03*
X2190000D02*
D03*
X2290000D02*
D03*
X2390000D02*
D03*
X2490000D02*
D03*
X2590000D02*
D03*
X390000Y2895000D02*
D03*
X490000D02*
D03*
X590000D02*
D03*
X690000D02*
D03*
X790000D02*
D03*
X890000D02*
D03*
X990000D02*
D03*
X1090000D02*
D03*
X1190000D02*
D03*
X1290000D02*
D03*
X1390000D02*
D03*
X1490000D02*
D03*
X1590000D02*
D03*
X1690000D02*
D03*
X1790000D02*
D03*
X1890000D02*
D03*
X1990000D02*
D03*
X2090000D02*
D03*
X2190000D02*
D03*
X2290000D02*
D03*
X2390000D02*
D03*
X2490000D02*
D03*
X2590000D02*
D03*
X525000Y465000D02*
D03*
X900000Y1065000D02*
D03*
X1775000Y325000D02*
D03*
X800000Y785000D02*
D03*
D63*
X3260000Y3915000D02*
D03*
X150000D02*
D03*
X3260000Y150000D02*
D03*
X150000D02*
D03*
D64*
X1780000Y2095000D02*
D03*
X1470000D02*
D03*
X2590000Y240000D02*
D03*
X2690000Y440000D02*
D03*
X2590000Y560000D02*
D03*
X2690000Y1400000D02*
D03*
X2590000Y1520000D02*
D03*
Y1200000D02*
D03*
Y880000D02*
D03*
X2690000Y760000D02*
D03*
X455000Y2540000D02*
D03*
Y2420000D02*
D03*
Y2300000D02*
D03*
X2875000Y2255000D02*
D03*
Y2615000D02*
D03*
Y2495000D02*
D03*
Y2375000D02*
D03*
Y2015000D02*
D03*
Y2135000D02*
D03*
X2690000Y3895000D02*
D03*
Y2895000D02*
D03*
X425000Y465000D02*
D03*
X800000Y1065000D02*
D03*
X1875000Y325000D02*
D03*
X900000Y785000D02*
D03*
D65*
X2015000Y2380000D02*
D03*
X2045000Y2725000D02*
D03*
X1970000Y2435000D02*
D03*
X1820000Y2295000D02*
D03*
X1535000Y1573436D02*
D03*
X1550000Y1700000D02*
D03*
X1265000Y748436D02*
D03*
X1565000Y2275000D02*
D03*
X1701038Y2148952D02*
D03*
X2265000Y1255000D02*
D03*
X1885000Y915000D02*
D03*
X1850000Y845000D02*
D03*
X2410000Y557000D02*
D03*
X2240000Y490000D02*
D03*
X2110000Y425000D02*
D03*
X605000Y785000D02*
D03*
X2575000Y1030000D02*
D03*
X2450000Y1160000D02*
D03*
X1870000Y1070000D02*
D03*
X1910000Y2530000D02*
D03*
X1665000Y2565000D02*
D03*
X1590386D02*
D03*
X1575000Y2705000D02*
D03*
X1790000Y2735000D02*
D03*
X1905000Y2615000D02*
D03*
X1850000Y2675000D02*
D03*
X1740000Y2785000D02*
D03*
X2780000Y1900000D02*
D03*
X2483000Y1080000D02*
D03*
X2580000Y1680543D02*
D03*
X1565000Y2635000D02*
D03*
X2255000Y3480000D02*
D03*
X2120000Y3440000D02*
D03*
X1855000Y1745000D02*
D03*
X1495174Y1749826D02*
D03*
X1940000Y1720000D02*
D03*
X1740000Y1440000D02*
D03*
X1800000D02*
D03*
X1855000D02*
D03*
X1811666Y1707425D02*
D03*
X1395000Y1720000D02*
D03*
X1605000Y1460000D02*
D03*
X1535000Y1445000D02*
D03*
X2075000Y1210000D02*
D03*
X1442620Y877380D02*
D03*
X1459690Y995310D02*
D03*
X1450000Y1065000D02*
D03*
X1075000Y1060000D02*
D03*
X1015000Y1005000D02*
D03*
X1710000Y640000D02*
D03*
X1575000Y835000D02*
D03*
X1705000D02*
D03*
X1630000D02*
D03*
X1875000Y985000D02*
D03*
X1870000Y1135000D02*
D03*
X1785000Y1255000D02*
D03*
X1145000Y660000D02*
D03*
X1175000Y600000D02*
D03*
X1340000Y615000D02*
D03*
X1405000Y595000D02*
D03*
X1270000Y640000D02*
D03*
X1175000Y2280000D02*
D03*
X1240000D02*
D03*
X1510000Y2300000D02*
D03*
X1875000Y1620000D02*
D03*
X1610000Y1225000D02*
D03*
X1690000D02*
D03*
D66*
X3335000Y2845000D02*
D03*
Y1645000D02*
D03*
Y1345000D02*
D03*
Y1045000D02*
D03*
Y3145000D02*
D03*
Y2545000D02*
D03*
Y2245000D02*
D03*
Y1945000D02*
D03*
Y745000D02*
D03*
Y3445000D02*
D03*
X75000Y765000D02*
D03*
Y1065000D02*
D03*
Y1365000D02*
D03*
Y1665000D02*
D03*
Y1965000D02*
D03*
Y2265000D02*
D03*
Y2565000D02*
D03*
Y2865000D02*
D03*
Y3165000D02*
D03*
Y3465000D02*
D03*
D67*
X1585039Y965039D02*
D03*
Y1008346D02*
D03*
Y1051654D02*
D03*
Y1094961D02*
D03*
X1628347Y965039D02*
D03*
Y1008346D02*
D03*
Y1051654D02*
D03*
Y1094961D02*
D03*
X1671654Y965039D02*
D03*
Y1008346D02*
D03*
Y1051654D02*
D03*
Y1094961D02*
D03*
X1714961Y965039D02*
D03*
Y1008346D02*
D03*
Y1051654D02*
D03*
Y1094961D02*
D03*
D73*
X1145591Y2195000D02*
D03*
X1094409D02*
D03*
X1959409Y2300000D02*
D03*
X2010591D02*
D03*
X1539409Y1285000D02*
D03*
X1590591D02*
D03*
X2025591Y1955000D02*
D03*
X1974409D02*
D03*
X1324409D02*
D03*
X1375591D02*
D03*
X1429409Y1285000D02*
D03*
X1480591D02*
D03*
D74*
X1710000Y1330591D02*
D03*
Y1279409D02*
D03*
X1910000Y1329409D02*
D03*
Y1380591D02*
D03*
X1375000Y1174409D02*
D03*
Y1225591D02*
D03*
X1650000Y1279409D02*
D03*
Y1330591D02*
D03*
D75*
X1781457Y1330000D02*
D03*
X1838543D02*
D03*
X1826457Y1945000D02*
D03*
X1883543D02*
D03*
X1523543D02*
D03*
X1466457D02*
D03*
X3008543Y1220000D02*
D03*
X2951457D02*
D03*
X3008543Y1620000D02*
D03*
X2951457D02*
D03*
X3008543Y1540000D02*
D03*
X2951457D02*
D03*
X3008543Y1300000D02*
D03*
X2951457D02*
D03*
X2651457D02*
D03*
X2708543D02*
D03*
X2651457Y1620000D02*
D03*
X2708543D02*
D03*
X2651457Y340000D02*
D03*
X2708543D02*
D03*
X3008543Y660000D02*
D03*
X2951457D02*
D03*
X3008543Y580000D02*
D03*
X2951457D02*
D03*
X2651457Y980000D02*
D03*
X2708543D02*
D03*
X3008543Y900000D02*
D03*
X2951457D02*
D03*
X3008543Y980000D02*
D03*
X2951457D02*
D03*
X2651457Y660000D02*
D03*
X2708543D02*
D03*
X3008543Y260000D02*
D03*
X2951457D02*
D03*
X3008543Y340000D02*
D03*
X2951457D02*
D03*
X2678543Y2015000D02*
D03*
X2621457D02*
D03*
X2678543Y2255000D02*
D03*
X2621457D02*
D03*
X543543Y965000D02*
D03*
X486457D02*
D03*
X1998543Y1175000D02*
D03*
X1941457D02*
D03*
X1131457Y920000D02*
D03*
X1188543D02*
D03*
X1131457Y835000D02*
D03*
X1188543D02*
D03*
X1883543Y1815000D02*
D03*
X1826457D02*
D03*
X1941457Y760000D02*
D03*
X1998543D02*
D03*
Y845000D02*
D03*
X1941457D02*
D03*
X1336457Y840000D02*
D03*
X1393543D02*
D03*
X1336457Y920000D02*
D03*
X1393543D02*
D03*
X1336457Y1005000D02*
D03*
X1393543D02*
D03*
X1998543Y1090000D02*
D03*
X1941457D02*
D03*
X1026457Y280000D02*
D03*
X1083543D02*
D03*
X786457Y485000D02*
D03*
X843543D02*
D03*
X786457Y565000D02*
D03*
X843543D02*
D03*
X786457Y885000D02*
D03*
X843543D02*
D03*
X786457Y965000D02*
D03*
X843543D02*
D03*
X543543Y565000D02*
D03*
X486457D02*
D03*
D76*
X1585433Y1985669D02*
D03*
X1611024D02*
D03*
X1636614D02*
D03*
X1662205D02*
D03*
X1687795D02*
D03*
X1713386D02*
D03*
X1738976D02*
D03*
X1764567D02*
D03*
Y1754331D02*
D03*
X1738976D02*
D03*
X1713386D02*
D03*
X1687795D02*
D03*
X1662205D02*
D03*
X1636614D02*
D03*
X1611024D02*
D03*
X1585433D02*
D03*
X1408228Y2219331D02*
D03*
X1433819D02*
D03*
X1459409D02*
D03*
X1485000D02*
D03*
X1510591D02*
D03*
X1536181D02*
D03*
X1561772D02*
D03*
Y2450669D02*
D03*
X1536181D02*
D03*
X1510591D02*
D03*
X1485000D02*
D03*
X1459409D02*
D03*
X1433819D02*
D03*
X1408228D02*
D03*
X1718228Y2219331D02*
D03*
X1743819D02*
D03*
X1769409D02*
D03*
X1795000D02*
D03*
X1820591D02*
D03*
X1846181D02*
D03*
X1871772D02*
D03*
Y2450669D02*
D03*
X1846181D02*
D03*
X1820591D02*
D03*
X1795000D02*
D03*
X1769409D02*
D03*
X1743819D02*
D03*
X1718228D02*
D03*
X1324567Y495669D02*
D03*
X1298976D02*
D03*
X1273386D02*
D03*
X1247795D02*
D03*
X1222205D02*
D03*
X1196614D02*
D03*
X1171024D02*
D03*
X1145433D02*
D03*
Y264331D02*
D03*
X1171024D02*
D03*
X1196614D02*
D03*
X1222205D02*
D03*
X1247795D02*
D03*
X1273386D02*
D03*
X1298976D02*
D03*
X1324567D02*
D03*
D77*
X2775866Y1627402D02*
D03*
Y1590000D02*
D03*
Y1552599D02*
D03*
X2884134D02*
D03*
Y1627402D02*
D03*
X2775866Y1307402D02*
D03*
Y1270000D02*
D03*
Y1232599D02*
D03*
X2884134D02*
D03*
Y1307402D02*
D03*
X2775866Y667402D02*
D03*
Y630000D02*
D03*
Y592598D02*
D03*
X2884134D02*
D03*
Y667402D02*
D03*
X2775866Y987402D02*
D03*
Y950000D02*
D03*
Y912598D02*
D03*
X2884134D02*
D03*
Y987402D02*
D03*
X2775866Y347402D02*
D03*
Y310000D02*
D03*
Y272599D02*
D03*
X2884134D02*
D03*
Y347402D02*
D03*
X719134Y972402D02*
D03*
Y897598D02*
D03*
X610866D02*
D03*
Y935000D02*
D03*
Y972402D02*
D03*
X719134Y572402D02*
D03*
Y497599D02*
D03*
X610866D02*
D03*
Y535000D02*
D03*
Y572402D02*
D03*
D78*
X1940000Y1643543D02*
D03*
Y1586457D02*
D03*
X1395000Y1643543D02*
D03*
Y1586457D02*
D03*
X1725000Y2531457D02*
D03*
Y2588543D02*
D03*
X1415000Y2531457D02*
D03*
Y2588543D02*
D03*
X1590000Y706457D02*
D03*
Y763543D02*
D03*
X1675000Y706457D02*
D03*
Y763543D02*
D03*
X1760000Y706457D02*
D03*
Y763543D02*
D03*
X2080000Y1143543D02*
D03*
Y1086457D02*
D03*
X1330000Y2318543D02*
D03*
Y2261457D02*
D03*
Y2396457D02*
D03*
Y2453543D02*
D03*
X1640000Y2318543D02*
D03*
Y2261457D02*
D03*
Y2396457D02*
D03*
Y2453543D02*
D03*
X1390000Y403543D02*
D03*
Y346457D02*
D03*
X1080000Y413543D02*
D03*
Y356457D02*
D03*
X2260000Y1003543D02*
D03*
Y946457D02*
D03*
D79*
X1815472Y1537992D02*
D03*
X1835158D02*
D03*
X1854842D02*
D03*
X1874528D02*
D03*
Y1662008D02*
D03*
X1854842D02*
D03*
X1835158D02*
D03*
X1815472D02*
D03*
X1460472Y1537992D02*
D03*
X1480158D02*
D03*
X1499842D02*
D03*
X1519528D02*
D03*
Y1662008D02*
D03*
X1499842D02*
D03*
X1480158D02*
D03*
X1460472D02*
D03*
D80*
X2065630Y930000D02*
D03*
X2194370D02*
D03*
Y1005000D02*
D03*
X2065630D02*
D03*
D81*
X1551575Y897126D02*
D03*
X1571260D02*
D03*
X1590945D02*
D03*
X1610630D02*
D03*
X1630315D02*
D03*
X1650000D02*
D03*
X1669685D02*
D03*
X1689370D02*
D03*
X1709055D02*
D03*
X1728740D02*
D03*
X1748425D02*
D03*
Y1162874D02*
D03*
X1728740D02*
D03*
X1709055D02*
D03*
X1689370D02*
D03*
X1669685D02*
D03*
X1650000D02*
D03*
X1630315D02*
D03*
X1610630D02*
D03*
X1590945D02*
D03*
X1571260D02*
D03*
X1551575D02*
D03*
D82*
X1782874Y931575D02*
D03*
Y951260D02*
D03*
Y970945D02*
D03*
Y990630D02*
D03*
Y1010315D02*
D03*
Y1030000D02*
D03*
Y1049685D02*
D03*
Y1069370D02*
D03*
Y1089055D02*
D03*
Y1108740D02*
D03*
Y1128425D02*
D03*
X1517126D02*
D03*
Y1108740D02*
D03*
Y1089055D02*
D03*
Y1069370D02*
D03*
Y1049685D02*
D03*
Y1030000D02*
D03*
Y1010315D02*
D03*
Y990630D02*
D03*
Y970945D02*
D03*
Y951260D02*
D03*
Y931575D02*
D03*
D83*
X1650000Y1030000D02*
D03*
%TF.MD5,026b091aba0a63d83121af661eb39f66*%
M02*
