G04*
G04 #@! TF.GenerationSoftware,Altium Limited,Altium Designer,22.3.1 (43)*
G04*
G04 Layer_Color=255*
%FSLAX25Y25*%
%MOIN*%
G70*
G04*
G04 #@! TF.SameCoordinates,A476BA3E-0ACD-4873-8504-19A6DC85AD4C*
G04*
G04*
G04 #@! TF.FilePolarity,Positive*
G04*
G01*
G75*
%ADD57C,0.05906*%
%ADD58R,0.05906X0.05906*%
%ADD59C,0.20000*%
%ADD60C,0.07874*%
%ADD61C,0.08268*%
%ADD62R,0.05906X0.05906*%
%ADD63C,0.05800*%
D57*
X217474Y56866D02*
D03*
X187500Y54500D02*
D03*
X231000Y77500D02*
D03*
X197500Y95000D02*
D03*
X269000Y108000D02*
D03*
X80000Y66500D02*
D03*
X269000Y172000D02*
D03*
X188000Y209500D02*
D03*
X157000D02*
D03*
X269000Y24000D02*
D03*
X259000Y44000D02*
D03*
X269000Y56000D02*
D03*
X259000Y140000D02*
D03*
X269000Y152000D02*
D03*
Y120000D02*
D03*
Y88000D02*
D03*
X259000Y76000D02*
D03*
X55500Y254000D02*
D03*
Y242000D02*
D03*
Y230000D02*
D03*
X173000Y165000D02*
D03*
X160500D02*
D03*
X277500Y225500D02*
D03*
Y261500D02*
D03*
Y249500D02*
D03*
Y237500D02*
D03*
Y201500D02*
D03*
Y213500D02*
D03*
X39000Y389500D02*
D03*
X49000D02*
D03*
X59000D02*
D03*
X69000D02*
D03*
X79000D02*
D03*
X89000D02*
D03*
X99000D02*
D03*
X109000D02*
D03*
X119000D02*
D03*
X129000D02*
D03*
X139000D02*
D03*
X149000D02*
D03*
X159000D02*
D03*
X169000D02*
D03*
X179000D02*
D03*
X189000D02*
D03*
X199000D02*
D03*
X209000D02*
D03*
X219000D02*
D03*
X229000D02*
D03*
X239000D02*
D03*
X249000D02*
D03*
X259000D02*
D03*
X39000Y289500D02*
D03*
X49000D02*
D03*
X59000D02*
D03*
X69000D02*
D03*
X79000D02*
D03*
X89000D02*
D03*
X99000D02*
D03*
X109000D02*
D03*
X119000D02*
D03*
X129000D02*
D03*
X139000D02*
D03*
X149000D02*
D03*
X159000D02*
D03*
X169000D02*
D03*
X179000D02*
D03*
X189000D02*
D03*
X199000D02*
D03*
X209000D02*
D03*
X219000D02*
D03*
X229000D02*
D03*
X239000D02*
D03*
X249000D02*
D03*
X259000D02*
D03*
X52500Y46500D02*
D03*
X90000Y106500D02*
D03*
X177500Y32500D02*
D03*
X80000Y78500D02*
D03*
D58*
X187500Y44500D02*
D03*
X173000Y155000D02*
D03*
X160500D02*
D03*
D59*
X326000Y391500D02*
D03*
X15000D02*
D03*
X326000Y15000D02*
D03*
X15000D02*
D03*
D60*
X113500Y145500D02*
D03*
Y195500D02*
D03*
X221500D02*
D03*
X63500Y145500D02*
D03*
Y195500D02*
D03*
X221500Y145500D02*
D03*
D61*
X103500Y155500D02*
D03*
X123500D02*
D03*
Y135500D02*
D03*
X103500D02*
D03*
Y185500D02*
D03*
X123500D02*
D03*
Y205500D02*
D03*
X103500D02*
D03*
X211500Y185500D02*
D03*
X231500D02*
D03*
Y205500D02*
D03*
X211500D02*
D03*
X53500Y155500D02*
D03*
X73500D02*
D03*
Y135500D02*
D03*
X53500D02*
D03*
Y205500D02*
D03*
X73500D02*
D03*
Y185500D02*
D03*
X53500D02*
D03*
X211500Y155500D02*
D03*
X231500D02*
D03*
Y135500D02*
D03*
X211500D02*
D03*
D62*
X178000Y209500D02*
D03*
X147000D02*
D03*
X259000Y24000D02*
D03*
X269000Y44000D02*
D03*
X259000Y56000D02*
D03*
X269000Y140000D02*
D03*
X259000Y152000D02*
D03*
Y120000D02*
D03*
Y88000D02*
D03*
X269000Y76000D02*
D03*
X45500Y254000D02*
D03*
Y242000D02*
D03*
Y230000D02*
D03*
X287500Y225500D02*
D03*
Y261500D02*
D03*
Y249500D02*
D03*
Y237500D02*
D03*
Y201500D02*
D03*
Y213500D02*
D03*
X269000Y389500D02*
D03*
Y289500D02*
D03*
X42500Y46500D02*
D03*
X80000Y106500D02*
D03*
X187500Y32500D02*
D03*
X90000Y78500D02*
D03*
D63*
X204000Y357000D02*
D03*
X214000D02*
D03*
X224000D02*
D03*
X234000D02*
D03*
X244000D02*
D03*
X219000Y319500D02*
D03*
X229000D02*
D03*
X239000D02*
D03*
X259000D02*
D03*
X89000D02*
D03*
Y349500D02*
D03*
Y329500D02*
D03*
Y339500D02*
D03*
Y359500D02*
D03*
X119000Y309500D02*
D03*
X109000D02*
D03*
X99000D02*
D03*
X89000D02*
D03*
X79000D02*
D03*
X69000D02*
D03*
X59000D02*
D03*
X49000D02*
D03*
X39000D02*
D03*
Y369500D02*
D03*
X49000D02*
D03*
X59000D02*
D03*
X69000D02*
D03*
X79000D02*
D03*
X89000D02*
D03*
X99000D02*
D03*
X109000D02*
D03*
X119000D02*
D03*
X129000Y309500D02*
D03*
Y369500D02*
D03*
X269000Y309500D02*
D03*
Y369500D02*
D03*
X259000Y309500D02*
D03*
X249000D02*
D03*
X259000Y369500D02*
D03*
X239000Y309500D02*
D03*
X229000D02*
D03*
X219000D02*
D03*
X209000D02*
D03*
X199000D02*
D03*
X189000D02*
D03*
X179000D02*
D03*
X169000D02*
D03*
X159000D02*
D03*
X149000D02*
D03*
X139000D02*
D03*
Y369500D02*
D03*
X149000D02*
D03*
X159000D02*
D03*
X169000D02*
D03*
X179000D02*
D03*
X189000D02*
D03*
X199000D02*
D03*
X209000D02*
D03*
X219000D02*
D03*
X229000D02*
D03*
X239000D02*
D03*
X249000D02*
D03*
M02*
