%TF.GenerationSoftware,Altium Limited,Altium Designer,21.6.4 (81)*%
G04 Layer_Color=32768*
%FSLAX26Y26*%
%MOIN*%
%TF.SameCoordinates,879DA611-49A8-4675-8A71-469A8E5B397B*%
%TF.FilePolarity,Positive*%
%TF.FileFunction,Other,Mechanical_15*%
%TF.Part,Single*%
G01*
G75*
%TA.AperFunction,NonConductor*%
%ADD69C,0.003937*%
%ADD73C,0.001968*%
D69*
X1670315Y80000D02*
X1709685D01*
X1690000Y60315D02*
Y99685D01*
X2465000Y545315D02*
Y584685D01*
X2445315Y565000D02*
X2484685D01*
X2150000Y1285315D02*
Y1324685D01*
X2130315Y1305000D02*
X2169685D01*
X2150000Y1135315D02*
Y1174685D01*
X2130315Y1155000D02*
X2169685D01*
X2150000Y990315D02*
Y1029685D01*
X2130315Y1010000D02*
X2169685D01*
X2150000Y840315D02*
Y879685D01*
X2130315Y860000D02*
X2169685D01*
X1850000Y990315D02*
Y1029685D01*
X1830315Y1010000D02*
X1869685D01*
X1850000Y840315D02*
Y879685D01*
X1830315Y860000D02*
X1869685D01*
X3100315Y685000D02*
X3139685D01*
X3120000Y665315D02*
Y704685D01*
X2270315Y2250000D02*
X2309685D01*
X2290000Y2230315D02*
Y2269685D01*
X2190315Y2080000D02*
X2229685D01*
X2210000Y2060315D02*
Y2099685D01*
X2330000Y2095315D02*
Y2134685D01*
X2310315Y2115000D02*
X2349685D01*
X2345315Y2420000D02*
X2384685D01*
X2365000Y2400315D02*
Y2439685D01*
X1645315Y200000D02*
X1684685D01*
X1665000Y180315D02*
Y219685D01*
X1350000Y215315D02*
Y254685D01*
X1330315Y235000D02*
X1369685D01*
X1520000Y140315D02*
Y179685D01*
X1500315Y160000D02*
X1539685D01*
X2750000Y965315D02*
Y1004685D01*
X2730315Y985000D02*
X2769685D01*
X2709173Y865000D02*
X2730827D01*
X2720000Y854173D02*
Y875827D01*
X2709173Y920000D02*
X2730827D01*
X2720000Y909173D02*
Y930827D01*
X2490315Y870000D02*
X2529685D01*
X2510000Y850315D02*
Y889685D01*
X2620000Y870315D02*
Y909685D01*
X2600315Y890000D02*
X2639685D01*
X2510000Y979173D02*
Y1000827D01*
X2499173Y990000D02*
X2520827D01*
X1555000Y1240315D02*
Y1279685D01*
X1535315Y1260000D02*
X1574685D01*
X1670315Y1300000D02*
X1709685D01*
X1690000Y1280315D02*
Y1319685D01*
X1385000Y1315315D02*
Y1354685D01*
X1365315Y1335000D02*
X1404685D01*
X1725000Y1160315D02*
Y1199685D01*
X1705315Y1180000D02*
X1744685D01*
X1145315Y435000D02*
X1184685D01*
X1165000Y415315D02*
Y454685D01*
X1735000Y410315D02*
Y449685D01*
X1715315Y430000D02*
X1754685D01*
X1240315Y435000D02*
X1279685D01*
X1260000Y415315D02*
Y454685D01*
X2280000Y1430315D02*
Y1469685D01*
X2260315Y1450000D02*
X2299685D01*
X2050000Y565315D02*
Y604685D01*
X2030315Y585000D02*
X2069685D01*
X2880000Y245315D02*
Y284685D01*
X2860315Y265000D02*
X2899685D01*
X2880000Y565315D02*
Y604685D01*
X2860315Y585000D02*
X2899685D01*
X2880000Y725315D02*
Y764685D01*
X2860315Y745000D02*
X2899685D01*
X2880000Y405315D02*
Y444685D01*
X2860315Y425000D02*
X2899685D01*
X2435315Y310000D02*
X2474685D01*
X2455000Y290315D02*
Y329685D01*
X2050000Y405315D02*
Y444685D01*
X2030315Y425000D02*
X2069685D01*
X2795000Y1430315D02*
Y1469685D01*
X2775315Y1450000D02*
X2814685D01*
X2050000Y245315D02*
Y284685D01*
X2030315Y265000D02*
X2069685D01*
X2315315Y310000D02*
X2354685D01*
X2335000Y290315D02*
Y329685D01*
X2555315Y310000D02*
X2594685D01*
X2575000Y290315D02*
Y329685D01*
X3035000Y1530315D02*
Y1569685D01*
X3015315Y1550000D02*
X3054685D01*
X3285000Y1530315D02*
Y1569685D01*
X3265315Y1550000D02*
X3304685D01*
X2795000Y1530315D02*
Y1569685D01*
X2775315Y1550000D02*
X2814685D01*
X2040000Y1530315D02*
Y1569685D01*
X2020315Y1550000D02*
X2059685D01*
X1790000Y1530315D02*
Y1569685D01*
X1770315Y1550000D02*
X1809685D01*
X2280000Y1530315D02*
Y1569685D01*
X2260315Y1550000D02*
X2299685D01*
X3100315Y310000D02*
X3139685D01*
X3120000Y290315D02*
Y329685D01*
X2615315Y1225000D02*
X2654685D01*
X2635000Y1205315D02*
Y1244685D01*
X2415315Y1225000D02*
X2454685D01*
X2435000Y1205315D02*
Y1244685D01*
X1800315Y685000D02*
X1839685D01*
X1820000Y665315D02*
Y704685D01*
X1980315Y1250000D02*
X2019685D01*
X2000000Y1230315D02*
Y1269685D01*
X1680315Y955000D02*
X1719685D01*
X1700000Y935315D02*
Y974685D01*
X1980315Y955000D02*
X2019685D01*
X2000000Y935315D02*
Y974685D01*
X2930315Y1250000D02*
X2969685D01*
X2950000Y1230315D02*
Y1269685D01*
X2040000Y1870315D02*
Y1909685D01*
X2020315Y1890000D02*
X2059685D01*
X3035000Y1870315D02*
Y1909685D01*
X3015315Y1890000D02*
X3054685D01*
X2800000Y1120315D02*
Y1159685D01*
X2780315Y1140000D02*
X2819685D01*
X2800000Y1285315D02*
Y1324685D01*
X2780315Y1305000D02*
X2819685D01*
D73*
X1756929Y40630D02*
Y119370D01*
X1623071Y40630D02*
Y119370D01*
Y40630D02*
X1756929D01*
X1623071Y119370D02*
X1756929D01*
X2304567Y404567D02*
X2625433D01*
X2304567Y725433D02*
X2625433D01*
X2304567Y404567D02*
Y725433D01*
X2625433Y404567D02*
Y725433D01*
X2431614Y1567165D02*
Y1662835D01*
X2508386D01*
Y1567165D02*
Y1662835D01*
X2431614Y1567165D02*
X2508386D01*
X2566614D02*
Y1662835D01*
X2643386D01*
Y1567165D02*
Y1662835D01*
X2566614Y1567165D02*
X2643386D01*
X2063780Y1340433D02*
X2236220D01*
Y1269567D02*
Y1340433D01*
X2063780Y1269567D02*
Y1340433D01*
Y1269567D02*
X2236220D01*
X2063780Y1119567D02*
X2236220D01*
X2063780D02*
Y1190433D01*
X2236220Y1119567D02*
Y1190433D01*
X2063780D02*
X2236220D01*
X2063780Y1045433D02*
X2236220D01*
Y974567D02*
Y1045433D01*
X2063780Y974567D02*
Y1045433D01*
Y974567D02*
X2236220D01*
X2063780Y824567D02*
X2236220D01*
X2063780D02*
Y895433D01*
X2236220Y824567D02*
Y895433D01*
X2063780D02*
X2236220D01*
X1763780Y1045433D02*
X1936220D01*
Y974567D02*
Y1045433D01*
X1763780Y974567D02*
Y1045433D01*
Y974567D02*
X1936220D01*
X1763780Y824567D02*
X1936220D01*
X1763780D02*
Y895433D01*
X1936220Y824567D02*
Y895433D01*
X1763780D02*
X1936220D01*
X3080630Y618071D02*
Y751929D01*
X3159370Y618071D02*
Y751929D01*
X3080630Y618071D02*
X3159370D01*
X3080630Y751929D02*
X3159370D01*
X2701339Y1621102D02*
X2868661D01*
X2701339D02*
Y1758898D01*
X2868661D01*
Y1621102D02*
Y1758898D01*
X2206339D02*
X2373661D01*
Y1621102D02*
Y1758898D01*
X2206339Y1621102D02*
X2373661D01*
X2206339D02*
Y1758898D01*
X2219134Y2167323D02*
Y2332677D01*
X2360866Y2167323D02*
Y2332677D01*
X2219134Y2167323D02*
X2360866D01*
X2219134Y2332677D02*
X2360866D01*
X2249370Y2013071D02*
Y2146929D01*
X2170630Y2013071D02*
Y2146929D01*
X2249370D01*
X2170630Y2013071D02*
X2249370D01*
X2263071Y2075630D02*
X2396929D01*
X2263071Y2154370D02*
X2396929D01*
Y2075630D02*
Y2154370D01*
X2263071Y2075630D02*
Y2154370D01*
X2325630Y2353071D02*
Y2486929D01*
X2404370Y2353071D02*
Y2486929D01*
X2325630Y2353071D02*
X2404370D01*
X2325630Y2486929D02*
X2404370D01*
X1704370Y133071D02*
Y266929D01*
X1625630D02*
X1625630Y133071D01*
X1625630Y266929D02*
X1704370D01*
X1625630Y133071D02*
X1704370Y133071D01*
X1283071Y195630D02*
X1416929D01*
X1283071Y274370D02*
X1416929D01*
Y195630D02*
Y274370D01*
X1283071Y195630D02*
Y274370D01*
X1437323Y89134D02*
X1602677D01*
X1437323Y230866D02*
X1602677D01*
Y89134D02*
Y230866D01*
X1437323Y89134D02*
Y230866D01*
X2683071Y1024370D02*
X2816929D01*
X2683071Y945630D02*
X2816929D01*
X2683071D02*
Y1024370D01*
X2816929Y945630D02*
Y1024370D01*
X2755433Y847283D02*
Y882716D01*
X2684567Y847283D02*
Y882716D01*
Y847283D02*
X2755433D01*
X2684567Y882716D02*
X2755433D01*
Y902283D02*
Y937716D01*
X2684567Y902283D02*
Y937716D01*
Y902283D02*
X2755433D01*
X2684567Y937716D02*
X2755433D01*
X2470630Y803071D02*
Y936929D01*
X2549370Y803071D02*
Y936929D01*
X2470630Y803071D02*
X2549370D01*
X2470630Y936929D02*
X2549370D01*
X2564882Y937244D02*
X2675118D01*
X2564882Y842756D02*
X2675118D01*
X2564882D02*
Y937244D01*
X2675118Y842756D02*
Y937244D01*
X2492284Y1025433D02*
X2527717D01*
X2492284Y954567D02*
X2527717D01*
Y1025433D01*
X2492284Y954567D02*
Y1025433D01*
X1472323Y1189134D02*
X1637677D01*
X1472323Y1330866D02*
X1637677D01*
Y1189134D02*
Y1330866D01*
X1472323Y1189134D02*
Y1330866D01*
X1729370Y1233071D02*
Y1366929D01*
X1650630Y1233071D02*
Y1366929D01*
X1729370D01*
X1650630Y1233071D02*
X1729370D01*
X1318071Y1295630D02*
X1451929Y1295630D01*
X1318071Y1374370D02*
X1451929D01*
Y1295630D02*
Y1374370D01*
X1318071Y1295630D02*
X1318071Y1374370D01*
X1658071Y1219370D02*
X1791929D01*
X1658071Y1140630D02*
X1791929D01*
X1658071D02*
Y1219370D01*
X1791929Y1140630D02*
Y1219370D01*
X1350472Y319764D02*
X1659528D01*
X1350472D02*
Y540236D01*
X1659528D01*
Y319764D02*
Y540236D01*
X1125630Y368071D02*
Y501929D01*
X1204370Y368071D02*
Y501929D01*
X1125630Y368071D02*
X1204370D01*
X1125630Y501929D02*
X1204370D01*
X1668071Y390630D02*
X1801929D01*
X1668071Y469370D02*
X1801929D01*
Y390630D02*
Y469370D01*
X1668071Y390630D02*
Y469370D01*
X1220630Y368071D02*
Y501929D01*
X1299370Y368071D02*
Y501929D01*
X1220630Y368071D02*
X1299370D01*
X1220630Y501929D02*
X1299370D01*
X2213071Y1410630D02*
X2346929D01*
X2213071Y1489370D02*
X2346929D01*
Y1410630D02*
Y1489370D01*
X2213071Y1410630D02*
Y1489370D01*
X1983071Y545630D02*
X2116929D01*
X1983071Y624370D02*
X2116929D01*
Y545630D02*
Y624370D01*
X1983071Y545630D02*
Y624370D01*
X2813071Y304370D02*
X2946929D01*
X2813071Y225630D02*
X2946929D01*
X2813071D02*
Y304370D01*
X2946929Y225630D02*
Y304370D01*
X2813071Y624370D02*
X2946929D01*
X2813071Y545630D02*
X2946929D01*
X2813071D02*
Y624370D01*
X2946929Y545630D02*
Y624370D01*
X2813071Y784370D02*
X2946929D01*
X2813071Y705630D02*
X2946929D01*
X2813071D02*
Y784370D01*
X2946929Y705630D02*
Y784370D01*
X2813071Y464370D02*
X2946929D01*
X2813071Y385630D02*
X2946929D01*
X2813071D02*
Y464370D01*
X2946929Y385630D02*
Y464370D01*
X2494370Y243071D02*
Y376929D01*
X2415630Y243071D02*
Y376929D01*
X2494370D01*
X2415630Y243071D02*
X2494370D01*
X1983071Y385630D02*
X2116929D01*
X1983071Y464370D02*
X2116929D01*
Y385630D02*
Y464370D01*
X1983071Y385630D02*
Y464370D01*
X2728071Y1489370D02*
X2861929D01*
X2728071Y1410630D02*
X2861929D01*
X2728071D02*
Y1489370D01*
X2861929Y1410630D02*
Y1489370D01*
X1983071Y225630D02*
X2116929D01*
X1983071Y304370D02*
X2116929D01*
Y225630D02*
Y304370D01*
X1983071Y225630D02*
Y304370D01*
X2374370Y243071D02*
Y376929D01*
X2295630Y243071D02*
Y376929D01*
X2374370D01*
X2295630Y243071D02*
X2374370D01*
X2614370D02*
Y376929D01*
X2535630Y243071D02*
Y376929D01*
X2614370D01*
X2535630Y243071D02*
X2614370D01*
X2418819Y1351417D02*
X2521181D01*
Y1528583D01*
X2418819D02*
X2521181D01*
X2418819Y1351417D02*
Y1528583D01*
X2553819Y1351417D02*
X2656181D01*
Y1528583D01*
X2553819D02*
X2656181D01*
X2553819Y1351417D02*
Y1528583D01*
X2968071Y1510630D02*
X3101929D01*
X2968071Y1589370D02*
X3101929D01*
Y1510630D02*
Y1589370D01*
X2968071Y1510630D02*
Y1589370D01*
X3218071Y1510630D02*
X3351929D01*
X3218071Y1589370D02*
X3351929D01*
Y1510630D02*
Y1589370D01*
X3218071Y1510630D02*
Y1589370D01*
X2728071Y1510630D02*
X2861929D01*
X2728071Y1589370D02*
X2861929D01*
Y1510630D02*
Y1589370D01*
X2728071Y1510630D02*
Y1589370D01*
X1973071D02*
X2106929D01*
X1973071Y1510630D02*
X2106929D01*
X1973071D02*
Y1589370D01*
X2106929Y1510630D02*
Y1589370D01*
X1723071D02*
X1856929D01*
X1723071Y1510630D02*
X1856929D01*
X1723071D02*
Y1589370D01*
X1856929Y1510630D02*
Y1589370D01*
X2213071D02*
X2346929D01*
X2213071Y1510630D02*
X2346929D01*
X2213071D02*
Y1589370D01*
X2346929Y1510630D02*
Y1589370D01*
X3159370Y243071D02*
Y376929D01*
X3080630Y243071D02*
Y376929D01*
X3159370D01*
X3080630Y243071D02*
X3159370D01*
X2595630Y1158071D02*
Y1291929D01*
X2674370Y1158071D02*
Y1291929D01*
X2595630Y1158071D02*
X2674370D01*
X2595630Y1291929D02*
X2674370D01*
X2395630Y1158071D02*
Y1291929D01*
X2474370Y1158071D02*
Y1291929D01*
X2395630Y1158071D02*
X2474370D01*
X2395630Y1291929D02*
X2474370D01*
X1780630Y618071D02*
Y751929D01*
X1859370Y618071D02*
Y751929D01*
X1780630Y618071D02*
X1859370D01*
X1780630Y751929D02*
X1859370D01*
X1960630Y1183071D02*
Y1316929D01*
X2039370Y1183071D02*
Y1316929D01*
X1960630Y1183071D02*
X2039370D01*
X1960630Y1316929D02*
X2039370D01*
X1660630Y888071D02*
Y1021929D01*
X1739370Y888071D02*
Y1021929D01*
X1660630Y888071D02*
X1739370D01*
X1660630Y1021929D02*
X1739370D01*
X1960630Y888071D02*
Y1021929D01*
X2039370Y888071D02*
Y1021929D01*
X1960630Y888071D02*
X2039370D01*
X1960630Y1021929D02*
X2039370D01*
X2910630Y1183071D02*
Y1316929D01*
X2989370Y1183071D02*
Y1316929D01*
X2910630Y1183071D02*
X2989370D01*
X2910630Y1316929D02*
X2989370D01*
X1973071Y1929370D02*
X2106929D01*
X1973071Y1850630D02*
X2106929D01*
X1973071D02*
Y1929370D01*
X2106929Y1850630D02*
Y1929370D01*
X2968071Y1850630D02*
X3101929D01*
X2968071Y1929370D02*
X3101929D01*
Y1850630D02*
Y1929370D01*
X2968071Y1850630D02*
Y1929370D01*
X3332835Y1427362D02*
Y1472638D01*
X3237165D02*
X3332835D01*
X3237165Y1427362D02*
Y1472638D01*
Y1427362D02*
X3332835D01*
X1742165D02*
Y1472638D01*
Y1427362D02*
X1837835D01*
Y1472638D01*
X1742165D02*
X1837835D01*
X2713780Y1175433D02*
X2886220D01*
Y1104567D02*
Y1175433D01*
X2713780Y1104567D02*
Y1175433D01*
Y1104567D02*
X2886220D01*
X2713780Y1269567D02*
X2886220D01*
X2713780D02*
Y1340433D01*
X2886220Y1269567D02*
Y1340433D01*
X2713780D02*
X2886220D01*
X3209213Y1620315D02*
X3360787D01*
X3209213D02*
Y1759685D01*
X3360787D01*
Y1620315D02*
Y1759685D01*
X2951339Y1621102D02*
X3118661D01*
X2951339D02*
Y1758898D01*
X3118661D01*
Y1621102D02*
Y1758898D01*
X1714213Y1759685D02*
X1865787D01*
Y1620315D02*
Y1759685D01*
X1714213Y1620315D02*
X1865787D01*
X1714213D02*
Y1759685D01*
X1956339Y1758898D02*
X2123661D01*
Y1621102D02*
Y1758898D01*
X1956339Y1621102D02*
X2123661D01*
X1956339D02*
Y1758898D01*
%TF.MD5,6078e68cb44c117604671c5a26f79b91*%
M02*
