M48
;Layer_Color=9474304
;FILE_FORMAT=2:4
INCH,LZ
;TYPE=PLATED
T1F00S00C0.0150
T2F00S00C0.0200
T3F00S00C0.0354
T4F00S00C0.0380
T5F00S00C0.0450
T6F00S00C0.0591
T7F00S00C0.0630
T8F00S00C0.1000
%
T01
X0126Y00195
X0123Y00255
X01425Y00175
X0145Y00145
X01465Y00205
X015672Y00722
X015994Y008355
X015929Y008678
X015796Y008977
X0171Y008967
Y0094
X017533
Y008967
X017967
X0184
Y0094
X017967
Y008533
X0184
Y0081
X017967
X017533
Y008533
X0171
Y0081
X01716Y007047
X0178Y00705
X01835
X019501Y00728
X019451Y00813
X0195Y00845
X019614Y009223
X01875Y0109
X01825Y0105
X0176Y0106
X01745Y01145
X0182Y01305
X01705Y01385
X0164Y01445
X01585Y0144
X01525Y01415
X01445Y01385
X013961Y012702
X0156Y013
X0164Y0156
X016962Y019088
X01385Y0191
X014Y0078
X021324Y010625
X0226Y00965
X0133Y00815
X011425Y010225
Y01205
X012862Y014124
X0129Y018
X01335Y01785
X01255Y0191
X01145Y0189
X0147Y02085
X0144Y0214
X0148Y0222
X0152Y0226
X0165Y02335
X0162Y02415
X01725Y0222
X01695Y02185
T02
X01705Y00435
X02715Y00245
X027117Y00566
X027104Y008873
X023Y0192
X01545Y00575
X0155Y00495
X0146Y00575
X0136
X0131
X01145Y00635
X0108Y0064
X01265Y0258
X0142
X01645Y02675
X01725Y026
T03
X0055Y00395
X0065
X019Y0034
X02
Y0046
X02415Y00285
X02515
Y00485
X02415
Y00605
X02515
Y00805
X02415
Y00925
X02515
Y01125
X02415
X02555Y0132
X02655
Y0144
X02555
Y0156
X02655
Y0168
X02555
Y018
X02655
Y0192
X02555
X0186Y0178
Y0168
Y0156
Y0146
X01705Y01195
Y01095
X0155Y01075
Y00975
X0201Y00855
X02Y0056
X00925Y00595
Y00715
X01025
Y00995
X00925
Y01305
Y01605
X01185Y0168
Y0178
X0123Y0156
Y0146
X0065Y01405
X0055
X00545Y01675
X00445
Y01795
X00545
Y01915
X00445
X0055Y01105
X0065
T04
X00315Y02495
X00415
X00515
X00615
X00715
X00815
X00915
X01015
X01115
X01215
X01315
Y03095
X01215
X01115
X01015
X00915
X00815
X00715
X00615
X00515
X00415
X00315
X00815Y02995
Y02895
Y02795
Y02695
Y02595
X01415Y02495
X01515
X01615
X01715
X01815
X01915
X02015
X02115
X02215
X02315
X02415
X02515
X02615
X02515Y02595
X02315
X02215
X02115
X02165Y0297
X02265
X02365
X02415Y03095
X02315
X02215
X02115
X02015
X01915
X01815
X01715
X01615
X01515
X01415
X01965Y0297
X02065
X02515Y03095
X02615
T05
X005Y001
X008
X011
X01945
X03085Y014
Y017
Y02
X001
Y017
Y014
Y011
Y008
Y005
Y023
Y026
X03085
Y023
T06
X02115Y0125
T07
X02015Y0115
X02215
Y0135
X02015
T08
X0015Y0015
X03035
X0015Y0316
X03035
M30
