%TF.GenerationSoftware,Altium Limited,Altium Designer,21.6.4 (81)*%
G04 Layer_Color=32768*
%FSLAX26Y26*%
%MOIN*%
%TF.SameCoordinates,879DA611-49A8-4675-8A71-469A8E5B397B*%
%TF.FilePolarity,Positive*%
%TF.FileFunction,Other,Mechanical_7*%
%TF.Part,Single*%
G01*
G75*
%TA.AperFunction,NonConductor*%
%ADD71C,0.005000*%
%ADD72C,0.012000*%
D71*
X580000Y2371690D02*
G03*
X585570Y2361290I12501J4D01*
G01*
X824430D02*
G03*
X830000Y2371690I-6931J10404D01*
G01*
X930000Y190000D02*
G03*
X917500Y202500I-12500J0D01*
G01*
Y252500D02*
G03*
X905000Y240000I0J-12500D01*
G01*
X630000Y542500D02*
G03*
X620000Y552500I-10000J0D01*
G01*
Y490000D02*
G03*
X630000Y500000I0J10000D01*
G01*
X592500D02*
G03*
X602500Y490000I10000J0D01*
G01*
Y552500D02*
G03*
X592500Y542500I0J-10000D01*
G01*
X755000Y1855000D02*
G03*
X745000Y1865000I-10000J0D01*
G01*
Y1765000D02*
G03*
X755000Y1775000I0J10000D01*
G01*
X655000D02*
G03*
X665000Y1765000I10000J0D01*
G01*
Y1865000D02*
G03*
X655000Y1855000I0J-10000D01*
G01*
X490000Y1665000D02*
G03*
X480000Y1655000I0J-10000D01*
G01*
X605000D02*
G03*
X595000Y1665000I-10000J0D01*
G01*
Y1540000D02*
G03*
X605000Y1550000I0J10000D01*
G01*
X480000D02*
G03*
X490000Y1540000I10000J0D01*
G01*
X617500Y2440000D02*
G03*
X630000Y2452500I0J12500D01*
G01*
X580000D02*
G03*
X592500Y2440000I12500J0D01*
G01*
X780000Y2452500D02*
G03*
X792500Y2440000I12500J0D01*
G01*
X817500D02*
G03*
X830000Y2452500I0J12500D01*
G01*
X615000Y840000D02*
G03*
X605000Y830000I0J-10000D01*
G01*
X805000D02*
G03*
X795000Y840000I-10000J0D01*
G01*
Y690000D02*
G03*
X805000Y700000I0J10000D01*
G01*
X605000D02*
G03*
X615000Y690000I10000J0D01*
G01*
X505000Y125000D02*
G03*
X515000Y115000I10000J0D01*
G01*
X520000D02*
G03*
X530000Y125000I0J10000D01*
G01*
X555000D02*
G03*
X565000Y115000I10000J0D01*
G01*
X570000D02*
G03*
X580000Y125000I0J10000D01*
G01*
X605000D02*
G03*
X615000Y115000I10000J0D01*
G01*
X620000D02*
G03*
X630000Y125000I0J10000D01*
G01*
X655000D02*
G03*
X665000Y115000I10000J0D01*
G01*
X670000D02*
G03*
X680000Y125000I0J10000D01*
G01*
X705000D02*
G03*
X715000Y115000I10000J0D01*
G01*
X720000D02*
G03*
X730000Y125000I0J10000D01*
G01*
X755000D02*
G03*
X765000Y115000I10000J0D01*
G01*
X770000D02*
G03*
X780000Y125000I0J10000D01*
G01*
X805000D02*
G03*
X815000Y115000I10000J0D01*
G01*
X820000D02*
G03*
X830000Y125000I0J10000D01*
G01*
X955000Y580000D02*
G03*
X945000Y590000I-10000J0D01*
G01*
X585570Y2361290D02*
X617500Y2340000D01*
X580000Y2371690D02*
Y2390000D01*
X655000D01*
Y2340000D02*
Y2390000D01*
X792500Y2340000D02*
X824430Y2361290D01*
X830000Y2371690D02*
Y2390000D01*
X755000D02*
X830000D01*
X755000Y2340000D02*
Y2390000D01*
X930000Y177500D02*
Y190000D01*
X905000Y202500D02*
X917500D01*
X905000D02*
Y240000D01*
X917500Y252500D02*
X955000D01*
X467500Y1640000D02*
X480000D01*
X467500Y1615000D02*
X480000D01*
X467500Y1590000D02*
X480000D01*
X467500Y1565000D02*
X480000D01*
X505000Y1665000D02*
Y1677500D01*
X530000Y1665000D02*
Y1677500D01*
X555000Y1665000D02*
Y1677500D01*
X580000Y1665000D02*
Y1677500D01*
X605000Y1640000D02*
X617500D01*
X605000Y1615000D02*
X617500D01*
X605000Y1590000D02*
X617500D01*
X605000Y1565000D02*
X617500D01*
X580000Y1527500D02*
Y1540000D01*
X505000Y1527500D02*
Y1540000D01*
X530000Y1527500D02*
Y1540000D01*
X555000Y1527500D02*
Y1540000D01*
X492500Y490000D02*
Y552500D01*
X555000D01*
X630000Y500000D02*
Y542500D01*
X602500Y490000D02*
X620000D01*
X592500Y500000D02*
Y542500D01*
X602500Y552500D02*
X620000D01*
X755000Y1775000D02*
Y1855000D01*
X665000Y1765000D02*
X745000D01*
X655000Y1775000D02*
Y1855000D01*
X665000Y1865000D02*
X745000D01*
X480000Y1565000D02*
Y1590000D01*
Y1615000D01*
Y1640000D01*
Y1655000D01*
X490000Y1665000D02*
X505000D01*
X530000D01*
X555000D01*
X580000D01*
X595000D01*
X605000Y1640000D02*
Y1655000D01*
Y1615000D02*
Y1640000D01*
Y1590000D02*
Y1615000D01*
Y1565000D02*
Y1590000D01*
Y1550000D02*
Y1565000D01*
X580000Y1540000D02*
X595000D01*
X555000D02*
X580000D01*
X530000D02*
X555000D01*
X505000D02*
X530000D01*
X490000D02*
X505000D01*
X480000Y1550000D02*
Y1565000D01*
X580000Y2515000D02*
X630000D01*
X780000D02*
X830000D01*
X630000Y2452500D02*
Y2515000D01*
X592500Y2440000D02*
X617500D01*
X580000Y2452500D02*
Y2515000D01*
X780000Y2452500D02*
Y2515000D01*
X792500Y2440000D02*
X817500D01*
X830000Y2452500D02*
Y2515000D01*
X505000Y2415000D02*
X555000D01*
X505000D02*
Y2465000D01*
X555000D01*
X855000Y2415000D02*
X905000D01*
Y2465000D01*
X855000D02*
X905000D01*
X580000Y2290000D02*
Y2340000D01*
Y2290000D02*
X630000D01*
Y2340000D01*
X830000Y2290000D02*
Y2340000D01*
X780000Y2290000D02*
X830000D01*
X780000D02*
Y2340000D01*
X655000Y2290000D02*
Y2340000D01*
X680000Y2290000D02*
Y2340000D01*
X755000Y2290000D02*
Y2340000D01*
X730000Y2290000D02*
Y2340000D01*
X705000Y2290000D02*
Y2340000D01*
X480000Y2140000D02*
X580000D01*
X480000Y2240000D02*
X580000D01*
X480000Y2140000D02*
Y2240000D01*
Y1740000D02*
Y2140000D01*
Y1740000D02*
X580000D01*
Y2140000D01*
Y2240000D01*
X615000Y840000D02*
X795000D01*
X805000Y700000D02*
Y830000D01*
X615000Y690000D02*
X795000D01*
X605000Y700000D02*
Y830000D01*
X505000Y125000D02*
Y190000D01*
X515000Y115000D02*
X520000D01*
X530000Y125000D02*
Y190000D01*
X555000Y125000D02*
Y190000D01*
X565000Y115000D02*
X570000D01*
X580000Y125000D02*
Y190000D01*
X605000Y125000D02*
Y190000D01*
X615000Y115000D02*
X620000D01*
X630000Y125000D02*
Y190000D01*
X655000Y125000D02*
Y190000D01*
X665000Y115000D02*
X670000D01*
X680000Y125000D02*
Y190000D01*
X705000Y125000D02*
Y190000D01*
X715000Y115000D02*
X720000D01*
X730000Y125000D02*
Y190000D01*
X755000Y125000D02*
Y190000D01*
X765000Y115000D02*
X770000D01*
X780000Y125000D02*
Y190000D01*
X805000Y125000D02*
Y190000D01*
X815000Y115000D02*
X820000D01*
X830000Y125000D02*
Y190000D01*
X955000Y340000D02*
Y415000D01*
Y490000D02*
Y580000D01*
X905000Y590000D02*
X945000D01*
D72*
X905000Y350000D02*
G03*
X915000Y340000I10000J0D01*
G01*
Y415000D02*
G03*
X905000Y405000I0J-10000D01*
G01*
Y500000D02*
G03*
X915000Y490000I10000J0D01*
G01*
X630000Y765000D02*
G03*
X680000Y715000I50000J0D01*
G01*
X730000D02*
G03*
X780000Y765000I0J50000D01*
G01*
D02*
G03*
X730000Y815000I-50000J0D01*
G01*
X680000D02*
G03*
X630000Y765000I0J-50000D01*
G01*
X465000Y590000D02*
G03*
X455000Y580000I0J-10000D01*
G01*
Y125000D02*
G03*
X465000Y115000I10000J0D01*
G01*
X467500D02*
G03*
X480000Y127500I0J12500D01*
G01*
X505000Y190000D02*
G03*
X480000Y165000I0J-25000D01*
G01*
X905000D02*
G03*
X880000Y190000I-25000J0D01*
G01*
X905000Y127500D02*
G03*
X917500Y115000I12500J0D01*
G01*
X945000D02*
G03*
X955000Y125000I0J10000D01*
G01*
X455000Y1000000D02*
G03*
X465000Y990000I10000J0D01*
G01*
X945000D02*
G03*
X955000Y1000000I0J10000D01*
G01*
Y1480000D02*
G03*
X945000Y1490000I-10000J0D01*
G01*
X465000D02*
G03*
X455000Y1480000I0J-10000D01*
G01*
X915000Y340000D02*
X955000D01*
X905000Y350000D02*
Y405000D01*
X915000Y415000D02*
X955000D01*
X915000Y490000D02*
X955000D01*
X905000Y500000D02*
Y590000D01*
X680000Y715000D02*
X730000D01*
X680000Y815000D02*
X730000D01*
X465000Y590000D02*
X905000D01*
X455000Y125000D02*
Y580000D01*
X465000Y115000D02*
X467500D01*
X480000Y127500D02*
Y165000D01*
X505000Y190000D02*
X530000D01*
X555000D01*
X580000D01*
X605000D01*
X630000D01*
X655000D01*
X680000D01*
X705000D01*
X730000D01*
X755000D01*
X780000D01*
X805000D01*
X830000D01*
X880000D01*
X905000Y127500D02*
Y165000D01*
X917500Y115000D02*
X945000D01*
X955000Y125000D02*
Y252500D01*
Y340000D01*
Y415000D02*
Y490000D01*
X355000Y2490000D02*
X555000D01*
X855000D02*
X1055000D01*
X830000Y2340000D02*
X855000D01*
X792500D02*
X830000D01*
X780000D02*
X792500D01*
X755000D02*
X780000D01*
X730000D02*
X755000D01*
X705000D02*
X730000D01*
X680000D02*
X705000D01*
X655000D02*
X680000D01*
X630000D02*
X655000D01*
X617500D02*
X630000D01*
X580000D02*
X617500D01*
X555000D02*
X580000D01*
X555000D02*
Y2415000D01*
Y2465000D01*
Y2490000D01*
Y2540000D01*
X855000D01*
Y2490000D02*
Y2540000D01*
Y2465000D02*
Y2490000D01*
Y2415000D02*
Y2465000D01*
Y2340000D02*
Y2415000D01*
X355000Y90000D02*
X1055000D01*
X465000Y990000D02*
X945000D01*
X955000Y1000000D02*
Y1480000D01*
X465000Y1490000D02*
X945000D01*
X455000Y1000000D02*
Y1480000D01*
X355000Y90000D02*
Y2490000D01*
X1055000Y90000D02*
Y2490000D01*
%TF.MD5,5ff539b48c5a5305627f7579554fc6e1*%
M02*
