%TF.GenerationSoftware,Altium Limited,Altium Designer,21.9.2 (33)*%
G04 Layer_Color=65535*
%FSLAX26Y26*%
%MOIN*%
%TF.SameCoordinates,EB25F4C7-955C-4A9D-8DD9-FEE0DACB2CC0*%
%TF.FilePolarity,Positive*%
%TF.FileFunction,Legend,Top*%
%TF.Part,Single*%
G01*
G75*
%TA.AperFunction,NonConductor*%
%ADD48C,0.009842*%
%ADD49C,0.007874*%
%ADD50C,0.010000*%
%ADD51C,0.006000*%
%ADD52C,0.005000*%
D48*
X2244291Y749331D02*
G03*
X2244291Y749331I-4921J0D01*
G01*
X2115551Y915669D02*
G03*
X2115551Y915669I-4921J0D01*
G01*
X1389291Y854331D02*
G03*
X1389291Y854331I-4921J0D01*
G01*
X1260551Y1020669D02*
G03*
X1260551Y1020669I-4921J0D01*
G01*
X740787Y935866D02*
G03*
X740787Y935866I-4921J0D01*
G01*
X2605787Y745866D02*
G03*
X2605787Y745866I-4921J0D01*
G01*
Y425866D02*
G03*
X2605787Y425866I-4921J0D01*
G01*
Y1065866D02*
G03*
X2605787Y1065866I-4921J0D01*
G01*
X740787Y1245866D02*
G03*
X740787Y1245866I-4921J0D01*
G01*
Y535866D02*
G03*
X740787Y535866I-4921J0D01*
G01*
Y1545866D02*
G03*
X740787Y1545866I-4921J0D01*
G01*
X1260551Y1205669D02*
G03*
X1260551Y1205669I-4921J0D01*
G01*
X1389291Y1039331D02*
G03*
X1389291Y1039331I-4921J0D01*
G01*
X1649291Y1129331D02*
G03*
X1649291Y1129331I-4921J0D01*
G01*
X1520551Y1295669D02*
G03*
X1520551Y1295669I-4921J0D01*
G01*
X1938307Y1147913D02*
G03*
X1938307Y1147913I-4921J0D01*
G01*
X1642126Y705709D02*
G03*
X1642126Y705709I-4921J0D01*
G01*
D49*
X2205709Y763504D02*
Y826496D01*
X2144291Y763504D02*
X2205709D01*
X2144291Y826496D02*
X2205709D01*
X2144291Y763504D02*
Y826496D01*
Y838504D02*
Y901496D01*
X2205709D01*
X2144291Y838504D02*
X2205709D01*
Y901496D01*
X2505000Y1270000D02*
X2705000D01*
Y1370000D01*
X2505000D02*
X2705000D01*
X2505000Y1270000D02*
Y1370000D01*
X1235000Y1630000D02*
Y1830000D01*
X1135000D02*
X1235000D01*
X1135000Y1630000D02*
Y1830000D01*
Y1630000D02*
X1235000D01*
X1910000D02*
Y1830000D01*
X1810000D02*
X1910000D01*
X1810000Y1630000D02*
Y1830000D01*
Y1630000D02*
X1910000D01*
X1180000Y1410000D02*
Y1610000D01*
Y1410000D02*
X1280000D01*
Y1610000D01*
X1180000D02*
X1280000D01*
X1810000Y1410000D02*
Y1610000D01*
Y1410000D02*
X1910000D01*
Y1610000D01*
X1810000D02*
X1910000D01*
X1260591Y1825315D02*
Y1883386D01*
X1261575Y1897165D02*
X1458425D01*
Y2042835D01*
X1261575D02*
X1458425D01*
X1261575Y1897165D02*
Y2042835D01*
X1570591Y1825315D02*
Y1883386D01*
X1571575Y1897165D02*
X1768425D01*
Y2042835D01*
X1571575D02*
X1768425D01*
X1571575Y1897165D02*
Y2042835D01*
X1688504Y1315630D02*
X1751496D01*
X1688504D02*
Y1394370D01*
X1751496D01*
Y1315630D02*
Y1394370D01*
X1765276Y1305787D02*
X1798740D01*
X1437795Y1475315D02*
Y1533386D01*
X1451575Y1547165D02*
X1648425D01*
Y1692835D01*
X1451575D02*
X1648425D01*
X1451575Y1547165D02*
Y1692835D01*
X1428504Y1315630D02*
X1491496D01*
X1428504D02*
Y1394370D01*
X1491496D01*
Y1315630D02*
Y1394370D01*
X1505276Y1305787D02*
X1538740D01*
X395000Y1845000D02*
X595000D01*
X395000Y1745000D02*
Y1845000D01*
Y1745000D02*
X595000D01*
Y1845000D01*
X395000Y1965000D02*
X595000D01*
X395000Y1865000D02*
Y1965000D01*
Y1865000D02*
X595000D01*
Y1965000D01*
Y1625000D02*
Y1725000D01*
X395000Y1625000D02*
X595000D01*
X395000D02*
Y1725000D01*
X595000D01*
X2505000Y1630000D02*
X2705000D01*
Y1730000D01*
X2505000D02*
X2705000D01*
X2505000Y1630000D02*
Y1730000D01*
Y1750000D02*
X2705000D01*
Y1850000D01*
X2505000D02*
X2705000D01*
X2505000Y1750000D02*
Y1850000D01*
Y1390000D02*
X2705000D01*
Y1490000D01*
X2505000D02*
X2705000D01*
X2505000Y1390000D02*
Y1490000D01*
X1472205Y461614D02*
Y519685D01*
X1261575Y447835D02*
X1458425D01*
X1261575Y302165D02*
Y447835D01*
Y302165D02*
X1458425D01*
Y447835D01*
X1350709Y868504D02*
Y931496D01*
X1289291Y868504D02*
X1350709D01*
X1289291Y931496D02*
X1350709D01*
X1289291Y868504D02*
Y931496D01*
Y943504D02*
Y1006496D01*
X1350709D01*
X1289291Y943504D02*
X1350709D01*
Y1006496D01*
X770315Y926024D02*
X809685D01*
X770315Y803976D02*
X809685D01*
X770315D02*
Y926024D01*
X809685Y803976D02*
Y926024D01*
X2635315Y736024D02*
X2674685D01*
X2635315Y613976D02*
X2674685D01*
X2635315D02*
Y736024D01*
X2674685Y613976D02*
Y736024D01*
X2365000Y755000D02*
X2565000D01*
Y855000D01*
X2365000D02*
X2565000D01*
X2365000Y755000D02*
Y855000D01*
X875000Y665000D02*
X1075000D01*
Y765000D01*
X875000D02*
X1075000D01*
X875000Y665000D02*
Y765000D01*
Y1045000D02*
X1075000D01*
X875000Y945000D02*
Y1045000D01*
Y945000D02*
X1075000D01*
Y1045000D01*
X2635315Y416024D02*
X2674685D01*
X2635315Y293976D02*
X2674685D01*
X2635315D02*
Y416024D01*
X2674685Y293976D02*
Y416024D01*
X2365000Y335000D02*
X2565000D01*
X2365000Y235000D02*
Y335000D01*
Y235000D02*
X2565000D01*
Y335000D01*
X2365000Y435000D02*
X2565000D01*
Y535000D01*
X2365000D02*
X2565000D01*
X2365000Y435000D02*
Y535000D01*
X1950000Y610000D02*
X2050000D01*
Y410000D02*
Y610000D01*
X1950000Y410000D02*
X2050000D01*
X1950000D02*
Y610000D01*
X2635315Y1056024D02*
X2674685D01*
X2635315Y933976D02*
X2674685D01*
X2635315D02*
Y1056024D01*
X2674685Y933976D02*
Y1056024D01*
X2365000Y975000D02*
X2565000D01*
X2365000Y875000D02*
Y975000D01*
Y875000D02*
X2565000D01*
Y975000D01*
X2365000Y1075000D02*
X2565000D01*
Y1175000D01*
X2365000D02*
X2565000D01*
X2365000Y1075000D02*
Y1175000D01*
X770315Y1236024D02*
X809685D01*
X770315Y1113976D02*
X809685D01*
X770315D02*
Y1236024D01*
X809685Y1113976D02*
Y1236024D01*
X500000Y1155000D02*
X700000D01*
X500000Y1055000D02*
Y1155000D01*
Y1055000D02*
X700000D01*
Y1155000D01*
X770315Y526024D02*
X809685D01*
X770315Y403976D02*
X809685D01*
X770315D02*
Y526024D01*
X809685Y403976D02*
Y526024D01*
X770315Y1536024D02*
X809685D01*
X770315Y1413976D02*
X809685D01*
X770315D02*
Y1536024D01*
X809685Y1413976D02*
Y1536024D01*
X1989016Y1200827D02*
Y1299173D01*
X2065827Y1124016D02*
X2164173D01*
X2240984Y1200827D02*
Y1299173D01*
X2065827Y1375984D02*
X2164173D01*
X1350709Y1128504D02*
Y1191496D01*
X1289291Y1128504D02*
X1350709D01*
X1289291Y1191496D02*
X1350709D01*
X1289291Y1128504D02*
Y1191496D01*
Y1053504D02*
Y1116496D01*
X1350709D01*
X1289291Y1053504D02*
X1350709D01*
Y1116496D01*
X1549291Y1143504D02*
Y1206496D01*
X1610709D01*
X1549291Y1143504D02*
X1610709D01*
Y1206496D01*
Y1218504D02*
Y1281496D01*
X1549291Y1218504D02*
X1610709D01*
X1549291Y1281496D02*
X1610709D01*
X1549291Y1218504D02*
Y1281496D01*
X1500000Y925000D02*
X1600000D01*
X1500000D02*
Y1125000D01*
X1600000D01*
Y925000D02*
Y1125000D01*
X1868425Y1230591D02*
Y1248307D01*
X1903858D01*
X1868425Y1161693D02*
Y1179409D01*
Y1161693D02*
X1903858D01*
X2505000Y1870000D02*
Y1970000D01*
X2705000D01*
Y1870000D02*
Y1970000D01*
X2505000Y1870000D02*
X2705000D01*
X2505000Y1510000D02*
Y1610000D01*
X2705000D01*
Y1510000D02*
Y1610000D01*
X2505000Y1510000D02*
X2705000D01*
X700000Y345000D02*
Y445000D01*
X500000Y345000D02*
X700000D01*
X500000D02*
Y445000D01*
X700000D01*
Y1355000D02*
Y1455000D01*
X500000Y1355000D02*
X700000D01*
X500000D02*
Y1455000D01*
X700000D01*
X1850000Y290000D02*
Y390000D01*
X2050000D01*
Y290000D02*
Y390000D01*
X1850000Y290000D02*
X2050000D01*
X2565000Y555000D02*
Y655000D01*
X2365000Y555000D02*
X2565000D01*
X2365000D02*
Y655000D01*
X2565000D01*
X1918701Y731299D02*
Y756890D01*
X1893110Y731299D02*
X1918701D01*
Y993110D02*
Y1018701D01*
X1893110D02*
X1918701D01*
X1631299D02*
X1656890D01*
X1631299Y993110D02*
Y1018701D01*
Y731299D02*
Y756890D01*
Y731299D02*
X1656890D01*
D50*
X300977Y2115068D02*
X360957D01*
X340964Y2095074D01*
X360957Y2075081D01*
X300977D01*
X360957Y2015100D02*
Y2055087D01*
X300977D01*
Y2015100D01*
X330967Y2055087D02*
Y2035094D01*
X300977Y1995107D02*
X340964D01*
X360957Y1975113D01*
X340964Y1955120D01*
X300977D01*
X330967D01*
Y1995107D01*
X350961Y1895139D02*
X360957Y1905136D01*
Y1925129D01*
X350961Y1935126D01*
X340964D01*
X330967Y1925129D01*
Y1905136D01*
X320970Y1895139D01*
X310974D01*
X300977Y1905136D01*
Y1925129D01*
X310974Y1935126D01*
X360957Y1875146D02*
X310974D01*
X300977Y1865149D01*
Y1845155D01*
X310974Y1835158D01*
X360957D01*
X300977Y1815165D02*
X360957D01*
Y1785175D01*
X350961Y1775178D01*
X330967D01*
X320970Y1785175D01*
Y1815165D01*
Y1795171D02*
X300977Y1775178D01*
X360957Y1715197D02*
Y1755184D01*
X300977D01*
Y1715197D01*
X330967Y1755184D02*
Y1735191D01*
X300977Y1695204D02*
X360957D01*
X340964Y1675210D01*
X360957Y1655217D01*
X300977D01*
X360957Y1595236D02*
Y1635223D01*
X300977D01*
Y1595236D01*
X330967Y1635223D02*
Y1615230D01*
X300977Y1575243D02*
X360957D01*
X300977Y1535255D01*
X360957D01*
Y1515262D02*
Y1475275D01*
Y1495268D01*
X300977D01*
X264981Y1955120D02*
Y1975113D01*
Y1965116D01*
X214997D01*
X205000Y1975113D01*
Y1985110D01*
X214997Y1995107D01*
X264981Y1935126D02*
X214997D01*
X205000Y1925129D01*
Y1905136D01*
X214997Y1895139D01*
X264981D01*
X205000Y1875146D02*
X264981D01*
X244987Y1855152D01*
X264981Y1835158D01*
X205000D01*
Y1815165D02*
X264981D01*
Y1785175D01*
X254984Y1775178D01*
X234990D01*
X224994Y1785175D01*
Y1815165D01*
X264981Y1715197D02*
Y1755184D01*
X205000D01*
Y1715197D01*
X234990Y1755184D02*
Y1735191D01*
X205000Y1695204D02*
X264981D01*
Y1665213D01*
X254984Y1655217D01*
X234990D01*
X224994Y1665213D01*
Y1695204D01*
Y1675210D02*
X205000Y1655217D01*
X254984Y1595236D02*
X264981Y1605233D01*
Y1625226D01*
X254984Y1635223D01*
X244987D01*
X234990Y1625226D01*
Y1605233D01*
X224994Y1595236D01*
X214997D01*
X205000Y1605233D01*
Y1625226D01*
X214997Y1635223D01*
X2787002Y1300104D02*
X2727021D01*
X2747015Y1320097D01*
X2727021Y1340091D01*
X2787002D01*
X2727021Y1400072D02*
Y1360084D01*
X2787002D01*
Y1400072D01*
X2757012Y1360084D02*
Y1380078D01*
X2787002Y1420065D02*
X2747015D01*
X2727021Y1440059D01*
X2747015Y1460052D01*
X2787002D01*
X2757012D01*
Y1420065D01*
X2737018Y1520033D02*
X2727021Y1510036D01*
Y1490042D01*
X2737018Y1480046D01*
X2747015D01*
X2757012Y1490042D01*
Y1510036D01*
X2767008Y1520033D01*
X2777005D01*
X2787002Y1510036D01*
Y1490042D01*
X2777005Y1480046D01*
X2727021Y1540026D02*
X2777005D01*
X2787002Y1550023D01*
Y1570016D01*
X2777005Y1580013D01*
X2727021D01*
X2787002Y1600007D02*
X2727021D01*
Y1629997D01*
X2737018Y1639994D01*
X2757012D01*
X2767008Y1629997D01*
Y1600007D01*
Y1620000D02*
X2787002Y1639994D01*
X2727021Y1699975D02*
Y1659987D01*
X2787002D01*
Y1699975D01*
X2757012Y1659987D02*
Y1679981D01*
X2787002Y1719968D02*
X2727021D01*
X2747015Y1739961D01*
X2727021Y1759955D01*
X2787002D01*
X2727021Y1819936D02*
Y1779949D01*
X2787002D01*
Y1819936D01*
X2757012Y1779949D02*
Y1799942D01*
X2787002Y1839929D02*
X2727021D01*
X2787002Y1879916D01*
X2727021D01*
Y1899910D02*
Y1939897D01*
Y1919903D01*
X2787002D01*
X2822998Y1460052D02*
Y1440059D01*
Y1450055D01*
X2872982D01*
X2882979Y1440059D01*
Y1430062D01*
X2872982Y1420065D01*
X2822998Y1480046D02*
X2872982D01*
X2882979Y1490042D01*
Y1510036D01*
X2872982Y1520033D01*
X2822998D01*
X2882979Y1540026D02*
X2822998D01*
X2842991Y1560020D01*
X2822998Y1580013D01*
X2882979D01*
Y1600007D02*
X2822998D01*
Y1629997D01*
X2832995Y1639994D01*
X2852988D01*
X2862985Y1629997D01*
Y1600007D01*
X2822998Y1699975D02*
Y1659987D01*
X2882979D01*
Y1699975D01*
X2852988Y1659987D02*
Y1679981D01*
X2882979Y1719968D02*
X2822998D01*
Y1749958D01*
X2832995Y1759955D01*
X2852988D01*
X2862985Y1749958D01*
Y1719968D01*
Y1739961D02*
X2882979Y1759955D01*
X2832995Y1819936D02*
X2822998Y1809939D01*
Y1789945D01*
X2832995Y1779949D01*
X2842991D01*
X2852988Y1789945D01*
Y1809939D01*
X2862985Y1819936D01*
X2872982D01*
X2882979Y1809939D01*
Y1789945D01*
X2872982Y1779949D01*
X1880063Y2819990D02*
Y2770006D01*
X1890060Y2760010D01*
X1910053D01*
X1920050Y2770006D01*
Y2819990D01*
X1980031Y2809994D02*
X1970034Y2819990D01*
X1950041D01*
X1940044Y2809994D01*
Y2799997D01*
X1950041Y2790000D01*
X1970034D01*
X1980031Y2780003D01*
Y2770006D01*
X1970034Y2760010D01*
X1950041D01*
X1940044Y2770006D01*
X2000024Y2819990D02*
Y2760010D01*
X2030015D01*
X2040011Y2770006D01*
Y2780003D01*
X2030015Y2790000D01*
X2000024D01*
X2030015D01*
X2040011Y2799997D01*
Y2809994D01*
X2030015Y2819990D01*
X2000024D01*
X2119985Y2790000D02*
X2159973D01*
X2179966D02*
X2219953D01*
X2239947Y2760010D02*
X2269937Y2790000D01*
X2239947Y2819990D01*
X1900016Y254990D02*
Y195010D01*
Y225000D01*
X1940003D01*
Y254990D01*
Y195010D01*
X1959997Y254990D02*
Y215003D01*
X1979990Y195010D01*
X1999984Y215003D01*
Y254990D01*
X454994Y969967D02*
X464990Y979964D01*
Y999958D01*
X454994Y1009955D01*
X444997D01*
X435000Y999958D01*
Y979964D01*
X425003Y969967D01*
X415007D01*
X405010Y979964D01*
Y999958D01*
X415007Y1009955D01*
X405010Y949974D02*
X464990D01*
X444997Y929981D01*
X464990Y909987D01*
X405010D01*
Y889993D02*
X444997D01*
X464990Y870000D01*
X444997Y850006D01*
X405010D01*
X435000D01*
Y889993D01*
X464990Y830013D02*
X405010D01*
Y790026D01*
X464990Y770032D02*
X405010D01*
Y730045D01*
X464990Y559974D02*
X405010D01*
Y519987D01*
X464990Y499993D02*
X425003D01*
X405010Y480000D01*
X425003Y460006D01*
X464990D01*
Y440013D02*
X405010D01*
Y400026D01*
X464990Y1194984D02*
X425003D01*
X405010Y1174990D01*
X425003Y1154997D01*
X464990D01*
X405010Y1135003D02*
X444997D01*
X464990Y1115010D01*
X444997Y1095016D01*
X405010D01*
X435000D01*
Y1135003D01*
X464990Y1504984D02*
X425003D01*
X405010Y1484990D01*
X425003Y1464997D01*
X464990D01*
Y1445003D02*
X405010D01*
Y1415013D01*
X415007Y1405016D01*
X454993D01*
X464990Y1415013D01*
Y1445003D01*
X2985019Y580036D02*
Y620023D01*
Y600029D01*
X3045000D01*
X2985019Y680003D02*
Y640016D01*
X3045000D01*
Y680003D01*
X3015010Y640016D02*
Y660010D01*
X2995016Y739984D02*
X2985019Y729987D01*
Y709994D01*
X2995016Y699997D01*
X3005013D01*
X3015010Y709994D01*
Y729987D01*
X3025006Y739984D01*
X3035003D01*
X3045000Y729987D01*
Y709994D01*
X3035003Y699997D01*
X2985019Y759977D02*
Y799965D01*
Y779971D01*
X3045000D01*
Y904891D02*
X2985019D01*
X3005013Y924884D01*
X2985019Y944878D01*
X3045000D01*
Y964871D02*
X3005013D01*
X2985019Y984865D01*
X3005013Y1004859D01*
X3045000D01*
X3015010D01*
Y964871D01*
X2985019Y1024852D02*
Y1044845D01*
Y1034849D01*
X3045000D01*
Y1024852D01*
Y1044845D01*
Y1074836D02*
X2985019D01*
X3045000Y1114823D01*
X2985019D01*
X3045000Y285026D02*
X3005013D01*
X2985019Y305019D01*
X3005013Y325013D01*
X3045000D01*
X3015010D01*
Y285026D01*
X2985019Y374997D02*
Y355003D01*
X2995016Y345006D01*
X3035003D01*
X3045000Y355003D01*
Y374997D01*
X3035003Y384993D01*
X2995016D01*
X2985019Y374997D01*
X3045000Y404987D02*
X2985019D01*
X3045000Y444974D01*
X2985019D01*
D51*
X3125003Y1380006D02*
X3120005Y1375008D01*
Y1365011D01*
X3125003Y1360013D01*
X3144997D01*
X3149995Y1365011D01*
Y1375008D01*
X3144997Y1380006D01*
X3135000D01*
Y1370010D01*
X3149995Y1390003D02*
X3120005D01*
X3149995Y1409997D01*
X3120005D01*
Y1419994D02*
X3149995D01*
Y1434989D01*
X3144997Y1439987D01*
X3125003D01*
X3120005Y1434989D01*
Y1419994D01*
X3125003Y1680006D02*
X3120005Y1675008D01*
Y1665011D01*
X3125003Y1660013D01*
X3144997D01*
X3149995Y1665011D01*
Y1675008D01*
X3144997Y1680006D01*
X3135000D01*
Y1670010D01*
X3149995Y1690003D02*
X3120005D01*
X3149995Y1709997D01*
X3120005D01*
Y1719994D02*
X3149995D01*
Y1734989D01*
X3144997Y1739987D01*
X3125003D01*
X3120005Y1734989D01*
Y1719994D01*
X3125003Y1980006D02*
X3120005Y1975008D01*
Y1965011D01*
X3125003Y1960013D01*
X3144997D01*
X3149995Y1965011D01*
Y1975008D01*
X3144997Y1980006D01*
X3135000D01*
Y1970010D01*
X3149995Y1990003D02*
X3120005D01*
X3149995Y2009997D01*
X3120005D01*
Y2019994D02*
X3149995D01*
Y2034989D01*
X3144997Y2039987D01*
X3125003D01*
X3120005Y2034989D01*
Y2019994D01*
X3125003Y2280006D02*
X3120005Y2275008D01*
Y2265011D01*
X3125003Y2260013D01*
X3144997D01*
X3149995Y2265011D01*
Y2275008D01*
X3144997Y2280006D01*
X3135000D01*
Y2270010D01*
X3149995Y2290003D02*
X3120005D01*
X3149995Y2309997D01*
X3120005D01*
Y2319994D02*
X3149995D01*
Y2334989D01*
X3144997Y2339987D01*
X3125003D01*
X3120005Y2334989D01*
Y2319994D01*
X3125003Y2580006D02*
X3120005Y2575008D01*
Y2565011D01*
X3125003Y2560013D01*
X3144997D01*
X3149995Y2565011D01*
Y2575008D01*
X3144997Y2580006D01*
X3135000D01*
Y2570010D01*
X3149995Y2590003D02*
X3120005D01*
X3149995Y2609997D01*
X3120005D01*
Y2619994D02*
X3149995D01*
Y2634989D01*
X3144997Y2639987D01*
X3125003D01*
X3120005Y2634989D01*
Y2619994D01*
X59997Y2619994D02*
X64995Y2624992D01*
Y2634989D01*
X59997Y2639987D01*
X40003D01*
X35005Y2634989D01*
Y2624992D01*
X40003Y2619994D01*
X50000D01*
Y2629990D01*
X35005Y2609997D02*
X64995D01*
X35005Y2590003D01*
X64995D01*
Y2580006D02*
X35005D01*
Y2565011D01*
X40003Y2560013D01*
X59997D01*
X64995Y2565011D01*
Y2580006D01*
X59997Y2319994D02*
X64995Y2324992D01*
Y2334989D01*
X59997Y2339987D01*
X40003D01*
X35005Y2334989D01*
Y2324992D01*
X40003Y2319994D01*
X50000D01*
Y2329990D01*
X35005Y2309997D02*
X64995D01*
X35005Y2290003D01*
X64995D01*
Y2280006D02*
X35005D01*
Y2265011D01*
X40003Y2260013D01*
X59997D01*
X64995Y2265011D01*
Y2280006D01*
X59997Y2019994D02*
X64995Y2024992D01*
Y2034989D01*
X59997Y2039987D01*
X40003D01*
X35005Y2034989D01*
Y2024992D01*
X40003Y2019994D01*
X50000D01*
Y2029990D01*
X35005Y2009997D02*
X64995D01*
X35005Y1990003D01*
X64995D01*
Y1980006D02*
X35005D01*
Y1965011D01*
X40003Y1960013D01*
X59997D01*
X64995Y1965011D01*
Y1980006D01*
X59997Y1719994D02*
X64995Y1724992D01*
Y1734989D01*
X59997Y1739987D01*
X40003D01*
X35005Y1734989D01*
Y1724992D01*
X40003Y1719994D01*
X50000D01*
Y1729990D01*
X35005Y1709997D02*
X64995D01*
X35005Y1690003D01*
X64995D01*
Y1680006D02*
X35005D01*
Y1665011D01*
X40003Y1660013D01*
X59997D01*
X64995Y1665011D01*
Y1680006D01*
X59997Y1419994D02*
X64995Y1424992D01*
Y1434989D01*
X59997Y1439987D01*
X40003D01*
X35005Y1434989D01*
Y1424992D01*
X40003Y1419994D01*
X50000D01*
Y1429990D01*
X35005Y1409997D02*
X64995D01*
X35005Y1390003D01*
X64995D01*
Y1380006D02*
X35005D01*
Y1365011D01*
X40003Y1360013D01*
X59997D01*
X64995Y1365011D01*
Y1380006D01*
X59997Y1119994D02*
X64995Y1124992D01*
Y1134989D01*
X59997Y1139987D01*
X40003D01*
X35005Y1134989D01*
Y1124992D01*
X40003Y1119994D01*
X50000D01*
Y1129990D01*
X35005Y1109997D02*
X64995D01*
X35005Y1090003D01*
X64995D01*
Y1080006D02*
X35005D01*
Y1065011D01*
X40003Y1060013D01*
X59997D01*
X64995Y1065011D01*
Y1080006D01*
X59997Y819994D02*
X64995Y824992D01*
Y834989D01*
X59997Y839987D01*
X40003D01*
X35005Y834989D01*
Y824992D01*
X40003Y819994D01*
X50000D01*
Y829990D01*
X35005Y809997D02*
X64995D01*
X35005Y790003D01*
X64995D01*
Y780006D02*
X35005D01*
Y765011D01*
X40003Y760013D01*
X59997D01*
X64995Y765011D01*
Y780006D01*
X59997Y519994D02*
X64995Y524992D01*
Y534989D01*
X59997Y539987D01*
X40003D01*
X35005Y534989D01*
Y524992D01*
X40003Y519994D01*
X50000D01*
Y529990D01*
X35005Y509997D02*
X64995D01*
X35005Y490003D01*
X64995D01*
Y480006D02*
X35005D01*
Y465011D01*
X40003Y460013D01*
X59997D01*
X64995Y465011D01*
Y480006D01*
X1080006Y59997D02*
X1075008Y64995D01*
X1065011D01*
X1060013Y59997D01*
Y40003D01*
X1065011Y35005D01*
X1075008D01*
X1080006Y40003D01*
Y50000D01*
X1070010D01*
X1090003Y35005D02*
Y64995D01*
X1109997Y35005D01*
Y64995D01*
X1119994D02*
Y35005D01*
X1134989D01*
X1139987Y40003D01*
Y59997D01*
X1134989Y64995D01*
X1119994D01*
X780006Y59997D02*
X775008Y64995D01*
X765011D01*
X760013Y59997D01*
Y40003D01*
X765011Y35005D01*
X775008D01*
X780006Y40003D01*
Y50000D01*
X770010D01*
X790003Y35005D02*
Y64995D01*
X809997Y35005D01*
Y64995D01*
X819994D02*
Y35005D01*
X834989D01*
X839987Y40003D01*
Y59997D01*
X834989Y64995D01*
X819994D01*
X387536Y50000D02*
X407530D01*
X397533Y59997D02*
Y40003D01*
X417527Y59997D02*
X422525Y64995D01*
X432522D01*
X437520Y59997D01*
Y54998D01*
X432522Y50000D01*
X427524D01*
X432522D01*
X437520Y45002D01*
Y40003D01*
X432522Y35005D01*
X422525D01*
X417527Y40003D01*
X447517Y35005D02*
Y40003D01*
X452515D01*
Y35005D01*
X447517D01*
X472509Y59997D02*
X477507Y64995D01*
X487504D01*
X492502Y59997D01*
Y54998D01*
X487504Y50000D01*
X482506D01*
X487504D01*
X492502Y45002D01*
Y40003D01*
X487504Y35005D01*
X477507D01*
X472509Y40003D01*
X502499Y64995D02*
Y45002D01*
X512496Y35005D01*
X522493Y45002D01*
Y64995D01*
X532490Y35005D02*
Y64995D01*
X547485D01*
X552483Y59997D01*
Y50000D01*
X547485Y45002D01*
X532490D01*
X582473Y59997D02*
X577475Y64995D01*
X567478D01*
X562480Y59997D01*
Y54998D01*
X567478Y50000D01*
X577475D01*
X582473Y45002D01*
Y40003D01*
X577475Y35005D01*
X567478D01*
X562480Y40003D01*
X592470Y64995D02*
Y40003D01*
X597468Y35005D01*
X607465D01*
X612464Y40003D01*
Y64995D01*
X1832536Y50000D02*
X1852530D01*
X1842533Y59997D02*
Y40003D01*
X1862527Y59997D02*
X1867525Y64995D01*
X1877522D01*
X1882520Y59997D01*
Y54998D01*
X1877522Y50000D01*
X1872524D01*
X1877522D01*
X1882520Y45002D01*
Y40003D01*
X1877522Y35005D01*
X1867525D01*
X1862527Y40003D01*
X1892517Y35005D02*
Y40003D01*
X1897515D01*
Y35005D01*
X1892517D01*
X1917509Y59997D02*
X1922507Y64995D01*
X1932504D01*
X1937502Y59997D01*
Y54998D01*
X1932504Y50000D01*
X1927506D01*
X1932504D01*
X1937502Y45002D01*
Y40003D01*
X1932504Y35005D01*
X1922507D01*
X1917509Y40003D01*
X1947499Y64995D02*
Y45002D01*
X1957496Y35005D01*
X1967493Y45002D01*
Y64995D01*
X1977489Y35005D02*
Y64995D01*
X1992485D01*
X1997483Y59997D01*
Y50000D01*
X1992485Y45002D01*
X1977489D01*
X2027473Y59997D02*
X2022475Y64995D01*
X2012478D01*
X2007480Y59997D01*
Y54998D01*
X2012478Y50000D01*
X2022475D01*
X2027473Y45002D01*
Y40003D01*
X2022475Y35005D01*
X2012478D01*
X2007480Y40003D01*
X2037470Y64995D02*
Y40003D01*
X2042468Y35005D01*
X2052465D01*
X2057464Y40003D01*
Y64995D01*
X2700008Y464995D02*
Y440003D01*
X2705006Y435005D01*
X2715003D01*
X2720002Y440003D01*
Y464995D01*
X2729998D02*
X2749992D01*
Y459997D01*
X2729998Y440003D01*
Y435005D01*
X2700008Y784995D02*
Y760003D01*
X2705006Y755005D01*
X2715003D01*
X2720002Y760003D01*
Y784995D01*
X2749992D02*
X2739995Y779997D01*
X2729998Y770000D01*
Y760003D01*
X2734997Y755005D01*
X2744994D01*
X2749992Y760003D01*
Y765002D01*
X2744994Y770000D01*
X2729998D01*
X770008Y789995D02*
Y765003D01*
X775006Y760005D01*
X785003D01*
X790002Y765003D01*
Y789995D01*
X819992D02*
X799998D01*
Y775000D01*
X809995Y779998D01*
X814994D01*
X819992Y775000D01*
Y765003D01*
X814994Y760005D01*
X804997D01*
X799998Y765003D01*
X2700008Y1104995D02*
Y1080003D01*
X2705006Y1075005D01*
X2715003D01*
X2720002Y1080003D01*
Y1104995D01*
X2744994Y1075005D02*
Y1104995D01*
X2729998Y1090000D01*
X2749992D01*
X770008Y389995D02*
Y365003D01*
X775006Y360005D01*
X785003D01*
X790002Y365003D01*
Y389995D01*
X799998Y384997D02*
X804997Y389995D01*
X814994D01*
X819992Y384997D01*
Y379998D01*
X814994Y375000D01*
X809995D01*
X814994D01*
X819992Y370002D01*
Y365003D01*
X814994Y360005D01*
X804997D01*
X799998Y365003D01*
X770008Y1399995D02*
Y1375003D01*
X775006Y1370005D01*
X785003D01*
X790002Y1375003D01*
Y1399995D01*
X819992Y1370005D02*
X799998D01*
X819992Y1389998D01*
Y1394997D01*
X814994Y1399995D01*
X804997D01*
X799998Y1394997D01*
X770006Y1099995D02*
Y1075003D01*
X775005Y1070005D01*
X785002D01*
X790000Y1075003D01*
Y1099995D01*
X799997Y1070005D02*
X809994D01*
X804995D01*
Y1099995D01*
X799997Y1094997D01*
X1795008Y1260005D02*
Y1289995D01*
X1810003D01*
X1815002Y1284997D01*
Y1275000D01*
X1810003Y1270002D01*
X1795008D01*
X1805005D02*
X1815002Y1260005D01*
X1824998Y1289995D02*
X1844992D01*
Y1284997D01*
X1824998Y1265003D01*
Y1260005D01*
X1945008Y1070005D02*
Y1099995D01*
X1960003D01*
X1965002Y1094997D01*
Y1085000D01*
X1960003Y1080002D01*
X1945008D01*
X1955005D02*
X1965002Y1070005D01*
X1994992Y1099995D02*
X1984995Y1094997D01*
X1974998Y1085000D01*
Y1075003D01*
X1979997Y1070005D01*
X1989994D01*
X1994992Y1075003D01*
Y1080002D01*
X1989994Y1085000D01*
X1974998D01*
X1730008Y1255005D02*
Y1284995D01*
X1745003D01*
X1750002Y1279997D01*
Y1270000D01*
X1745003Y1265002D01*
X1730008D01*
X1740005D02*
X1750002Y1255005D01*
X1779992Y1284995D02*
X1759998D01*
Y1270000D01*
X1769995Y1274998D01*
X1774994D01*
X1779992Y1270000D01*
Y1260003D01*
X1774994Y1255005D01*
X1764997D01*
X1759998Y1260003D01*
X710008Y1660005D02*
Y1689995D01*
X725003D01*
X730002Y1684997D01*
Y1675000D01*
X725003Y1670002D01*
X710008D01*
X720005D02*
X730002Y1660005D01*
X754994D02*
Y1689995D01*
X739998Y1675000D01*
X759992D01*
X2340008Y1785005D02*
Y1814995D01*
X2355003D01*
X2360002Y1809997D01*
Y1800000D01*
X2355003Y1795002D01*
X2340008D01*
X2350005D02*
X2360002Y1785005D01*
X2369998Y1809997D02*
X2374997Y1814995D01*
X2384994D01*
X2389992Y1809997D01*
Y1804998D01*
X2384994Y1800000D01*
X2379995D01*
X2384994D01*
X2389992Y1795002D01*
Y1790003D01*
X2384994Y1785005D01*
X2374997D01*
X2369998Y1790003D01*
X2340008Y1905005D02*
Y1934995D01*
X2355003D01*
X2360002Y1929997D01*
Y1920000D01*
X2355003Y1915002D01*
X2340008D01*
X2350005D02*
X2360002Y1905005D01*
X2389992D02*
X2369998D01*
X2389992Y1924998D01*
Y1929997D01*
X2384994Y1934995D01*
X2374997D01*
X2369998Y1929997D01*
X2350006Y1665005D02*
Y1694995D01*
X2365002D01*
X2370000Y1689997D01*
Y1680000D01*
X2365002Y1675002D01*
X2350006D01*
X2360003D02*
X2370000Y1665005D01*
X2379997D02*
X2389994D01*
X2384995D01*
Y1694995D01*
X2379997Y1689997D01*
X1904997Y1205000D02*
X1885003D01*
X1880005Y1200002D01*
Y1190005D01*
X1885003Y1185006D01*
X1904997D01*
X1909995Y1190005D01*
Y1200002D01*
X1899998Y1195003D02*
X1909995Y1205000D01*
Y1200002D02*
X1904997Y1205000D01*
X1909995Y1214997D02*
Y1224994D01*
Y1219995D01*
X1880005D01*
X1885003Y1214997D01*
X1182511Y524995D02*
X1192507D01*
X1187509D01*
Y495005D01*
X1182511D01*
X1192507D01*
X1227496Y519997D02*
X1222498Y524995D01*
X1212501D01*
X1207502Y519997D01*
Y500003D01*
X1212501Y495005D01*
X1222498D01*
X1227496Y500003D01*
X1237493Y495005D02*
X1247489D01*
X1242491D01*
Y524995D01*
X1237493Y519997D01*
X1415008Y929995D02*
Y900005D01*
X1430003D01*
X1435002Y905003D01*
Y924997D01*
X1430003Y929995D01*
X1415008D01*
X1444998Y924997D02*
X1449997Y929995D01*
X1459994D01*
X1464992Y924997D01*
Y919998D01*
X1459994Y915000D01*
X1464992Y910002D01*
Y905003D01*
X1459994Y900005D01*
X1449997D01*
X1444998Y905003D01*
Y910002D01*
X1449997Y915000D01*
X1444998Y919998D01*
Y924997D01*
X1449997Y915000D02*
X1459994D01*
X2215008Y939995D02*
Y910005D01*
X2230003D01*
X2235002Y915003D01*
Y934997D01*
X2230003Y939995D01*
X2215008D01*
X2244998D02*
X2264992D01*
Y934997D01*
X2244998Y915003D01*
Y910005D01*
X1415008Y974995D02*
Y945005D01*
X1430003D01*
X1435002Y950003D01*
Y969997D01*
X1430003Y974995D01*
X1415008D01*
X1464992D02*
X1454995Y969997D01*
X1444998Y960000D01*
Y950003D01*
X1449997Y945005D01*
X1459994D01*
X1464992Y950003D01*
Y955002D01*
X1459994Y960000D01*
X1444998D01*
X2220008Y729995D02*
Y700005D01*
X2235003D01*
X2240002Y705003D01*
Y724997D01*
X2235003Y729995D01*
X2220008D01*
X2269992D02*
X2249998D01*
Y715000D01*
X2259995Y719998D01*
X2264994D01*
X2269992Y715000D01*
Y705003D01*
X2264994Y700005D01*
X2254997D01*
X2249998Y705003D01*
X1415008Y1094995D02*
Y1065005D01*
X1430003D01*
X1435002Y1070003D01*
Y1089997D01*
X1430003Y1094995D01*
X1415008D01*
X1459994Y1065005D02*
Y1094995D01*
X1444998Y1080000D01*
X1464992D01*
X1435008Y1149995D02*
Y1120005D01*
X1450003D01*
X1455002Y1125003D01*
Y1144997D01*
X1450003Y1149995D01*
X1435008D01*
X1464998Y1144997D02*
X1469997Y1149995D01*
X1479994D01*
X1484992Y1144997D01*
Y1139998D01*
X1479994Y1135000D01*
X1474995D01*
X1479994D01*
X1484992Y1130002D01*
Y1125003D01*
X1479994Y1120005D01*
X1469997D01*
X1464998Y1125003D01*
X1280005Y1205008D02*
X1309995D01*
Y1220003D01*
X1304997Y1225002D01*
X1285003D01*
X1280005Y1220003D01*
Y1205008D01*
X1309995Y1254992D02*
Y1234998D01*
X1290002Y1254992D01*
X1285003D01*
X1280005Y1249994D01*
Y1239997D01*
X1285003Y1234998D01*
X1675006Y1294995D02*
Y1265005D01*
X1690002D01*
X1695000Y1270003D01*
Y1289997D01*
X1690002Y1294995D01*
X1675006D01*
X1704997Y1265005D02*
X1714994D01*
X1709995D01*
Y1294995D01*
X1704997Y1289997D01*
X2900006Y334997D02*
X2895008Y339995D01*
X2885011D01*
X2880013Y334997D01*
Y315003D01*
X2885011Y310005D01*
X2895008D01*
X2900006Y315003D01*
X2929997Y339995D02*
X2910003D01*
Y325000D01*
X2920000Y329998D01*
X2924999D01*
X2929997Y325000D01*
Y315003D01*
X2924999Y310005D01*
X2915002D01*
X2910003Y315003D01*
X2959987Y339995D02*
X2949990Y334997D01*
X2939994Y325000D01*
Y315003D01*
X2944992Y310005D01*
X2954989D01*
X2959987Y315003D01*
Y320002D01*
X2954989Y325000D01*
X2939994D01*
X2900006Y654997D02*
X2895008Y659995D01*
X2885011D01*
X2880013Y654997D01*
Y635003D01*
X2885011Y630005D01*
X2895008D01*
X2900006Y635003D01*
X2929997Y659995D02*
X2910003D01*
Y645000D01*
X2920000Y649998D01*
X2924999D01*
X2929997Y645000D01*
Y635003D01*
X2924999Y630005D01*
X2915002D01*
X2910003Y635003D01*
X2959987Y659995D02*
X2939994D01*
Y645000D01*
X2949990Y649998D01*
X2954989D01*
X2959987Y645000D01*
Y635003D01*
X2954989Y630005D01*
X2944992D01*
X2939994Y635003D01*
X2900006Y414997D02*
X2895008Y419995D01*
X2885011D01*
X2880013Y414997D01*
Y395003D01*
X2885011Y390005D01*
X2895008D01*
X2900006Y395003D01*
X2929997Y419995D02*
X2910003D01*
Y405000D01*
X2920000Y409998D01*
X2924999D01*
X2929997Y405000D01*
Y395003D01*
X2924999Y390005D01*
X2915002D01*
X2910003Y395003D01*
X2954989Y390005D02*
Y419995D01*
X2939994Y405000D01*
X2959987D01*
X2370006Y394997D02*
X2365008Y399995D01*
X2355011D01*
X2350013Y394997D01*
Y375003D01*
X2355011Y370005D01*
X2365008D01*
X2370006Y375003D01*
X2399997Y399995D02*
X2380003D01*
Y385000D01*
X2390000Y389998D01*
X2394999D01*
X2399997Y385000D01*
Y375003D01*
X2394999Y370005D01*
X2385002D01*
X2380003Y375003D01*
X2409994Y394997D02*
X2414992Y399995D01*
X2424989D01*
X2429987Y394997D01*
Y389998D01*
X2424989Y385000D01*
X2419990D01*
X2424989D01*
X2429987Y380002D01*
Y375003D01*
X2424989Y370005D01*
X2414992D01*
X2409994Y375003D01*
X2900006Y734997D02*
X2895008Y739995D01*
X2885011D01*
X2880013Y734997D01*
Y715003D01*
X2885011Y710005D01*
X2895008D01*
X2900006Y715003D01*
X2929997Y739995D02*
X2910003D01*
Y725000D01*
X2920000Y729998D01*
X2924999D01*
X2929997Y725000D01*
Y715003D01*
X2924999Y710005D01*
X2915002D01*
X2910003Y715003D01*
X2959987Y710005D02*
X2939994D01*
X2959987Y729998D01*
Y734997D01*
X2954989Y739995D01*
X2944992D01*
X2939994Y734997D01*
X2375005Y714997D02*
X2370006Y719995D01*
X2360010D01*
X2355011Y714997D01*
Y695003D01*
X2360010Y690005D01*
X2370006D01*
X2375005Y695003D01*
X2404995Y719995D02*
X2385002D01*
Y705000D01*
X2394998Y709998D01*
X2399997D01*
X2404995Y705000D01*
Y695003D01*
X2399997Y690005D01*
X2390000D01*
X2385002Y695003D01*
X2414992Y690005D02*
X2424989D01*
X2419990D01*
Y719995D01*
X2414992Y714997D01*
X1035006Y844997D02*
X1030008Y849995D01*
X1020011D01*
X1015013Y844997D01*
Y825003D01*
X1020011Y820005D01*
X1030008D01*
X1035006Y825003D01*
X1064997Y849995D02*
X1045003D01*
Y835000D01*
X1055000Y839998D01*
X1059998D01*
X1064997Y835000D01*
Y825003D01*
X1059998Y820005D01*
X1050002D01*
X1045003Y825003D01*
X1074994Y844997D02*
X1079992Y849995D01*
X1089989D01*
X1094987Y844997D01*
Y825003D01*
X1089989Y820005D01*
X1079992D01*
X1074994Y825003D01*
Y844997D01*
X2900006Y974997D02*
X2895008Y979995D01*
X2885011D01*
X2880013Y974997D01*
Y955003D01*
X2885011Y950005D01*
X2895008D01*
X2900006Y955003D01*
X2924999Y950005D02*
Y979995D01*
X2910003Y965000D01*
X2929997D01*
X2939994Y955003D02*
X2944992Y950005D01*
X2954989D01*
X2959987Y955003D01*
Y974997D01*
X2954989Y979995D01*
X2944992D01*
X2939994Y974997D01*
Y969998D01*
X2944992Y965000D01*
X2959987D01*
X1035006Y924997D02*
X1030008Y929995D01*
X1020011D01*
X1015013Y924997D01*
Y905003D01*
X1020011Y900005D01*
X1030008D01*
X1035006Y905003D01*
X1059998Y900005D02*
Y929995D01*
X1045003Y915000D01*
X1064997D01*
X1074994Y924997D02*
X1079992Y929995D01*
X1089989D01*
X1094987Y924997D01*
Y919998D01*
X1089989Y915000D01*
X1094987Y910002D01*
Y905003D01*
X1089989Y900005D01*
X1079992D01*
X1074994Y905003D01*
Y910002D01*
X1079992Y915000D01*
X1074994Y919998D01*
Y924997D01*
X1079992Y915000D02*
X1089989D01*
X505007Y924997D02*
X500008Y929995D01*
X490011D01*
X485013Y924997D01*
Y905003D01*
X490011Y900005D01*
X500008D01*
X505007Y905003D01*
X529999Y900005D02*
Y929995D01*
X515003Y915000D01*
X534997D01*
X544994Y929995D02*
X564987D01*
Y924997D01*
X544994Y905003D01*
Y900005D01*
X2900006Y1054997D02*
X2895008Y1059995D01*
X2885011D01*
X2880013Y1054997D01*
Y1035003D01*
X2885011Y1030005D01*
X2895008D01*
X2900006Y1035003D01*
X2924999Y1030005D02*
Y1059995D01*
X2910003Y1045000D01*
X2929997D01*
X2959987Y1059995D02*
X2949990Y1054997D01*
X2939994Y1045000D01*
Y1035003D01*
X2944992Y1030005D01*
X2954989D01*
X2959987Y1035003D01*
Y1040002D01*
X2954989Y1045000D01*
X2939994D01*
X2370006Y1034997D02*
X2365008Y1039995D01*
X2355011D01*
X2350013Y1034997D01*
Y1015003D01*
X2355011Y1010005D01*
X2365008D01*
X2370006Y1015003D01*
X2394999Y1010005D02*
Y1039995D01*
X2380003Y1025000D01*
X2399997D01*
X2429987Y1039995D02*
X2409994D01*
Y1025000D01*
X2419990Y1029998D01*
X2424989D01*
X2429987Y1025000D01*
Y1015003D01*
X2424989Y1010005D01*
X2414992D01*
X2409994Y1015003D01*
X1035006Y444997D02*
X1030008Y449995D01*
X1020011D01*
X1015013Y444997D01*
Y425003D01*
X1020011Y420005D01*
X1030008D01*
X1035006Y425003D01*
X1059998Y420005D02*
Y449995D01*
X1045003Y435000D01*
X1064997D01*
X1089989Y420005D02*
Y449995D01*
X1074994Y435000D01*
X1094987D01*
X1035006Y1454997D02*
X1030008Y1459995D01*
X1020011D01*
X1015013Y1454997D01*
Y1435003D01*
X1020011Y1430005D01*
X1030008D01*
X1035006Y1435003D01*
X1059998Y1430005D02*
Y1459995D01*
X1045003Y1445000D01*
X1064997D01*
X1074994Y1454997D02*
X1079992Y1459995D01*
X1089989D01*
X1094987Y1454997D01*
Y1449998D01*
X1089989Y1445000D01*
X1084990D01*
X1089989D01*
X1094987Y1440002D01*
Y1435003D01*
X1089989Y1430005D01*
X1079992D01*
X1074994Y1435003D01*
X1035006Y1154997D02*
X1030008Y1159995D01*
X1020011D01*
X1015013Y1154997D01*
Y1135003D01*
X1020011Y1130005D01*
X1030008D01*
X1035006Y1135003D01*
X1059998Y1130005D02*
Y1159995D01*
X1045003Y1145000D01*
X1064997D01*
X1094987Y1130005D02*
X1074994D01*
X1094987Y1149998D01*
Y1154997D01*
X1089989Y1159995D01*
X1079992D01*
X1074994Y1154997D01*
X1040005Y524997D02*
X1035006Y529995D01*
X1025010D01*
X1020011Y524997D01*
Y505003D01*
X1025010Y500005D01*
X1035006D01*
X1040005Y505003D01*
X1064997Y500005D02*
Y529995D01*
X1050002Y515000D01*
X1069995D01*
X1079992Y500005D02*
X1089989D01*
X1084990D01*
Y529995D01*
X1079992Y524997D01*
X505007D02*
X500008Y529995D01*
X490011D01*
X485013Y524997D01*
Y505003D01*
X490011Y500005D01*
X500008D01*
X505007Y505003D01*
X529999Y500005D02*
Y529995D01*
X515003Y515000D01*
X534997D01*
X544994Y524997D02*
X549992Y529995D01*
X559989D01*
X564987Y524997D01*
Y505003D01*
X559989Y500005D01*
X549992D01*
X544994Y505003D01*
Y524997D01*
X1035006Y1534997D02*
X1030008Y1539995D01*
X1020011D01*
X1015013Y1534997D01*
Y1515003D01*
X1020011Y1510005D01*
X1030008D01*
X1035006Y1515003D01*
X1045003Y1534997D02*
X1050002Y1539995D01*
X1059998D01*
X1064997Y1534997D01*
Y1529998D01*
X1059998Y1525000D01*
X1055000D01*
X1059998D01*
X1064997Y1520002D01*
Y1515003D01*
X1059998Y1510005D01*
X1050002D01*
X1045003Y1515003D01*
X1074994D02*
X1079992Y1510005D01*
X1089989D01*
X1094987Y1515003D01*
Y1534997D01*
X1089989Y1539995D01*
X1079992D01*
X1074994Y1534997D01*
Y1529998D01*
X1079992Y1525000D01*
X1094987D01*
X505007Y1534997D02*
X500008Y1539995D01*
X490011D01*
X485013Y1534997D01*
Y1515003D01*
X490011Y1510005D01*
X500008D01*
X505007Y1515003D01*
X515003Y1534997D02*
X520002Y1539995D01*
X529999D01*
X534997Y1534997D01*
Y1529998D01*
X529999Y1525000D01*
X525000D01*
X529999D01*
X534997Y1520002D01*
Y1515003D01*
X529999Y1510005D01*
X520002D01*
X515003Y1515003D01*
X544994Y1534997D02*
X549992Y1539995D01*
X559989D01*
X564987Y1534997D01*
Y1529998D01*
X559989Y1525000D01*
X564987Y1520002D01*
Y1515003D01*
X559989Y1510005D01*
X549992D01*
X544994Y1515003D01*
Y1520002D01*
X549992Y1525000D01*
X544994Y1529998D01*
Y1534997D01*
X549992Y1525000D02*
X559989D01*
X1035006Y1234997D02*
X1030008Y1239995D01*
X1020011D01*
X1015013Y1234997D01*
Y1215003D01*
X1020011Y1210005D01*
X1030008D01*
X1035006Y1215003D01*
X1045003Y1234997D02*
X1050002Y1239995D01*
X1059998D01*
X1064997Y1234997D01*
Y1229998D01*
X1059998Y1225000D01*
X1055000D01*
X1059998D01*
X1064997Y1220002D01*
Y1215003D01*
X1059998Y1210005D01*
X1050002D01*
X1045003Y1215003D01*
X1074994Y1239995D02*
X1094987D01*
Y1234997D01*
X1074994Y1215003D01*
Y1210005D01*
X505007Y1234997D02*
X500008Y1239995D01*
X490011D01*
X485013Y1234997D01*
Y1215003D01*
X490011Y1210005D01*
X500008D01*
X505007Y1215003D01*
X515003Y1234997D02*
X520002Y1239995D01*
X529999D01*
X534997Y1234997D01*
Y1229998D01*
X529999Y1225000D01*
X525000D01*
X529999D01*
X534997Y1220002D01*
Y1215003D01*
X529999Y1210005D01*
X520002D01*
X515003Y1215003D01*
X564987Y1239995D02*
X554990Y1234997D01*
X544994Y1225000D01*
Y1215003D01*
X549992Y1210005D01*
X559989D01*
X564987Y1215003D01*
Y1220002D01*
X559989Y1225000D01*
X544994D01*
X1945006Y1424997D02*
X1940008Y1429995D01*
X1930011D01*
X1925013Y1424997D01*
Y1405003D01*
X1930011Y1400005D01*
X1940008D01*
X1945006Y1405003D01*
X1955003Y1424997D02*
X1960002Y1429995D01*
X1969998D01*
X1974997Y1424997D01*
Y1419998D01*
X1969998Y1415000D01*
X1965000D01*
X1969998D01*
X1974997Y1410002D01*
Y1405003D01*
X1969998Y1400005D01*
X1960002D01*
X1955003Y1405003D01*
X2004987Y1429995D02*
X1984994D01*
Y1415000D01*
X1994990Y1419998D01*
X1999989D01*
X2004987Y1415000D01*
Y1405003D01*
X1999989Y1400005D01*
X1989992D01*
X1984994Y1405003D01*
X1854997Y1134994D02*
X1859995Y1139992D01*
Y1149989D01*
X1854997Y1154987D01*
X1835003D01*
X1830005Y1149989D01*
Y1139992D01*
X1835003Y1134994D01*
X1854997Y1124997D02*
X1859995Y1119998D01*
Y1110002D01*
X1854997Y1105003D01*
X1849998D01*
X1845000Y1110002D01*
Y1115000D01*
Y1110002D01*
X1840002Y1105003D01*
X1835003D01*
X1830005Y1110002D01*
Y1119998D01*
X1835003Y1124997D01*
X1830005Y1080011D02*
X1859995D01*
X1845000Y1095006D01*
Y1075013D01*
X1170006Y859997D02*
X1165008Y864995D01*
X1155011D01*
X1150013Y859997D01*
Y840003D01*
X1155011Y835005D01*
X1165008D01*
X1170006Y840003D01*
X1180003Y859997D02*
X1185002Y864995D01*
X1194998D01*
X1199997Y859997D01*
Y854998D01*
X1194998Y850000D01*
X1190000D01*
X1194998D01*
X1199997Y845002D01*
Y840003D01*
X1194998Y835005D01*
X1185002D01*
X1180003Y840003D01*
X1209994Y859997D02*
X1214992Y864995D01*
X1224989D01*
X1229987Y859997D01*
Y854998D01*
X1224989Y850000D01*
X1219990D01*
X1224989D01*
X1229987Y845002D01*
Y840003D01*
X1224989Y835005D01*
X1214992D01*
X1209994Y840003D01*
X2285003Y930006D02*
X2280005Y925008D01*
Y915011D01*
X2285003Y910013D01*
X2304997D01*
X2309995Y915011D01*
Y925008D01*
X2304997Y930006D01*
X2285003Y940003D02*
X2280005Y945002D01*
Y954999D01*
X2285003Y959997D01*
X2290002D01*
X2295000Y954999D01*
Y950000D01*
Y954999D01*
X2299998Y959997D01*
X2304997D01*
X2309995Y954999D01*
Y945002D01*
X2304997Y940003D01*
X2309995Y989987D02*
Y969994D01*
X2290002Y989987D01*
X2285003D01*
X2280005Y984989D01*
Y974992D01*
X2285003Y969994D01*
X1175005Y1224997D02*
X1170006Y1229995D01*
X1160010D01*
X1155011Y1224997D01*
Y1205003D01*
X1160010Y1200005D01*
X1170006D01*
X1175005Y1205003D01*
X1185002Y1224997D02*
X1190000Y1229995D01*
X1199997D01*
X1204995Y1224997D01*
Y1219998D01*
X1199997Y1215000D01*
X1194998D01*
X1199997D01*
X1204995Y1210002D01*
Y1205003D01*
X1199997Y1200005D01*
X1190000D01*
X1185002Y1205003D01*
X1214992Y1200005D02*
X1224989D01*
X1219990D01*
Y1229995D01*
X1214992Y1224997D01*
X1355006Y1239997D02*
X1350008Y1244995D01*
X1340011D01*
X1335013Y1239997D01*
Y1220003D01*
X1340011Y1215005D01*
X1350008D01*
X1355006Y1220003D01*
X1365003Y1239997D02*
X1370002Y1244995D01*
X1379998D01*
X1384997Y1239997D01*
Y1234998D01*
X1379998Y1230000D01*
X1375000D01*
X1379998D01*
X1384997Y1225002D01*
Y1220003D01*
X1379998Y1215005D01*
X1370002D01*
X1365003Y1220003D01*
X1394994Y1239997D02*
X1399992Y1244995D01*
X1409989D01*
X1414987Y1239997D01*
Y1220003D01*
X1409989Y1215005D01*
X1399992D01*
X1394994Y1220003D01*
Y1239997D01*
X1237994Y147992D02*
X1232995Y152990D01*
X1222998D01*
X1218000Y147992D01*
Y127998D01*
X1222998Y123000D01*
X1232995D01*
X1237994Y127998D01*
X1247990Y147992D02*
X1252989Y152990D01*
X1262986D01*
X1267984Y147992D01*
Y142994D01*
X1262986Y137995D01*
X1257987D01*
X1262986D01*
X1267984Y132997D01*
Y127998D01*
X1262986Y123000D01*
X1252989D01*
X1247990Y127998D01*
X1510002Y289997D02*
X1505003Y294995D01*
X1495006D01*
X1490008Y289997D01*
Y270003D01*
X1495006Y265005D01*
X1505003D01*
X1510002Y270003D01*
X1539992Y265005D02*
X1519998D01*
X1539992Y284998D01*
Y289997D01*
X1534994Y294995D01*
X1524997D01*
X1519998Y289997D01*
X1250000Y64997D02*
X1245002Y69995D01*
X1235005D01*
X1230006Y64997D01*
Y45003D01*
X1235005Y40005D01*
X1245002D01*
X1250000Y45003D01*
X1259997Y40005D02*
X1269994D01*
X1264995D01*
Y69995D01*
X1259997Y64997D01*
X1342512Y2164995D02*
X1352509D01*
X1347511D01*
Y2135005D01*
X1342512D01*
X1352509D01*
X1387498Y2159997D02*
X1382499Y2164995D01*
X1372503D01*
X1367504Y2159997D01*
Y2140003D01*
X1372503Y2135005D01*
X1382499D01*
X1387498Y2140003D01*
X1417488Y2164995D02*
X1407491Y2159997D01*
X1397494Y2150000D01*
Y2140003D01*
X1402493Y2135005D01*
X1412490D01*
X1417488Y2140003D01*
Y2145002D01*
X1412490Y2150000D01*
X1397494D01*
X1652512Y2164995D02*
X1662509D01*
X1657511D01*
Y2135005D01*
X1652512D01*
X1662509D01*
X1697498Y2159997D02*
X1692499Y2164995D01*
X1682503D01*
X1677504Y2159997D01*
Y2140003D01*
X1682503Y2135005D01*
X1692499D01*
X1697498Y2140003D01*
X1727488Y2164995D02*
X1707494D01*
Y2150000D01*
X1717491Y2154998D01*
X1722490D01*
X1727488Y2150000D01*
Y2140003D01*
X1722490Y2135005D01*
X1712493D01*
X1707494Y2140003D01*
X1637512Y1439995D02*
X1647509D01*
X1642511D01*
Y1410005D01*
X1637512D01*
X1647509D01*
X1682498Y1434997D02*
X1677499Y1439995D01*
X1667503D01*
X1662504Y1434997D01*
Y1415003D01*
X1667503Y1410005D01*
X1677499D01*
X1682498Y1415003D01*
X1707490Y1410005D02*
Y1439995D01*
X1692494Y1425000D01*
X1712488D01*
X1357512Y1769995D02*
X1367509D01*
X1362511D01*
Y1740005D01*
X1357512D01*
X1367509D01*
X1402498Y1764997D02*
X1397499Y1769995D01*
X1387503D01*
X1382504Y1764997D01*
Y1745003D01*
X1387503Y1740005D01*
X1397499D01*
X1402498Y1745003D01*
X1412494Y1764997D02*
X1417493Y1769995D01*
X1427490D01*
X1432488Y1764997D01*
Y1759998D01*
X1427490Y1755000D01*
X1422491D01*
X1427490D01*
X1432488Y1750002D01*
Y1745003D01*
X1427490Y1740005D01*
X1417493D01*
X1412494Y1745003D01*
X1377512Y1439995D02*
X1387509D01*
X1382511D01*
Y1410005D01*
X1377512D01*
X1387509D01*
X1422498Y1434997D02*
X1417499Y1439995D01*
X1407503D01*
X1402504Y1434997D01*
Y1415003D01*
X1407503Y1410005D01*
X1417499D01*
X1422498Y1415003D01*
X1452488Y1410005D02*
X1432494D01*
X1452488Y1429998D01*
Y1434997D01*
X1447490Y1439995D01*
X1437493D01*
X1432494Y1434997D01*
X2060006Y1094997D02*
X2055008Y1099995D01*
X2045011D01*
X2040013Y1094997D01*
Y1075003D01*
X2045011Y1070005D01*
X2055008D01*
X2060006Y1075003D01*
X2089997Y1070005D02*
X2070003D01*
X2089997Y1089998D01*
Y1094997D01*
X2084999Y1099995D01*
X2075002D01*
X2070003Y1094997D01*
X2099994Y1075003D02*
X2104992Y1070005D01*
X2114989D01*
X2119987Y1075003D01*
Y1094997D01*
X2114989Y1099995D01*
X2104992D01*
X2099994Y1094997D01*
Y1089998D01*
X2104992Y1085000D01*
X2119987D01*
X1165006Y794997D02*
X1160008Y799995D01*
X1150011D01*
X1145013Y794997D01*
Y775003D01*
X1150011Y770005D01*
X1160008D01*
X1165006Y775003D01*
X1194997Y770005D02*
X1175003D01*
X1194997Y789998D01*
Y794997D01*
X1189998Y799995D01*
X1180002D01*
X1175003Y794997D01*
X1204994D02*
X1209992Y799995D01*
X1219989D01*
X1224987Y794997D01*
Y789998D01*
X1219989Y785000D01*
X1224987Y780002D01*
Y775003D01*
X1219989Y770005D01*
X1209992D01*
X1204994Y775003D01*
Y780002D01*
X1209992Y785000D01*
X1204994Y789998D01*
Y794997D01*
X1209992Y785000D02*
X1219989D01*
X1165006Y709997D02*
X1160008Y714995D01*
X1150011D01*
X1145013Y709997D01*
Y690003D01*
X1150011Y685005D01*
X1160008D01*
X1165006Y690003D01*
X1194997Y685005D02*
X1175003D01*
X1194997Y704998D01*
Y709997D01*
X1189998Y714995D01*
X1180002D01*
X1175003Y709997D01*
X1204994Y714995D02*
X1224987D01*
Y709997D01*
X1204994Y690003D01*
Y685005D01*
X2300006Y1569997D02*
X2295008Y1574995D01*
X2285011D01*
X2280013Y1569997D01*
Y1550003D01*
X2285011Y1545005D01*
X2295008D01*
X2300006Y1550003D01*
X2329997Y1545005D02*
X2310003D01*
X2329997Y1564998D01*
Y1569997D01*
X2324999Y1574995D01*
X2315002D01*
X2310003Y1569997D01*
X2359987Y1574995D02*
X2349990Y1569997D01*
X2339994Y1560000D01*
Y1550003D01*
X2344992Y1545005D01*
X2354989D01*
X2359987Y1550003D01*
Y1555002D01*
X2354989Y1560000D01*
X2339994D01*
X2300006Y1329997D02*
X2295008Y1334995D01*
X2285011D01*
X2280013Y1329997D01*
Y1310003D01*
X2285011Y1305005D01*
X2295008D01*
X2300006Y1310003D01*
X2329997Y1305005D02*
X2310003D01*
X2329997Y1324998D01*
Y1329997D01*
X2324999Y1334995D01*
X2315002D01*
X2310003Y1329997D01*
X2359987Y1334995D02*
X2339994D01*
Y1320000D01*
X2349990Y1324998D01*
X2354989D01*
X2359987Y1320000D01*
Y1310003D01*
X2354989Y1305005D01*
X2344992D01*
X2339994Y1310003D01*
X1180006Y2249997D02*
X1175008Y2254995D01*
X1165011D01*
X1160013Y2249997D01*
Y2230003D01*
X1165011Y2225005D01*
X1175008D01*
X1180006Y2230003D01*
X1209997Y2225005D02*
X1190003D01*
X1209997Y2244998D01*
Y2249997D01*
X1204998Y2254995D01*
X1195002D01*
X1190003Y2249997D01*
X1234989Y2225005D02*
Y2254995D01*
X1219994Y2240000D01*
X1239987D01*
X1105006Y1979997D02*
X1100008Y1984995D01*
X1090011D01*
X1085013Y1979997D01*
Y1960003D01*
X1090011Y1955005D01*
X1100008D01*
X1105006Y1960003D01*
X1134997Y1955005D02*
X1115003D01*
X1134997Y1974998D01*
Y1979997D01*
X1129998Y1984995D01*
X1120002D01*
X1115003Y1979997D01*
X1144994D02*
X1149992Y1984995D01*
X1159989D01*
X1164987Y1979997D01*
Y1974998D01*
X1159989Y1970000D01*
X1154990D01*
X1159989D01*
X1164987Y1965002D01*
Y1960003D01*
X1159989Y1955005D01*
X1149992D01*
X1144994Y1960003D01*
X1380006Y669997D02*
X1375008Y674995D01*
X1365011D01*
X1360013Y669997D01*
Y650003D01*
X1365011Y645005D01*
X1375008D01*
X1380006Y650003D01*
X1409997Y645005D02*
X1390003D01*
X1409997Y664998D01*
Y669997D01*
X1404998Y674995D01*
X1395002D01*
X1390003Y669997D01*
X1439987Y645005D02*
X1419994D01*
X1439987Y664998D01*
Y669997D01*
X1434989Y674995D01*
X1424992D01*
X1419994Y669997D01*
X1685003Y500005D02*
X1680005Y495007D01*
Y485010D01*
X1685003Y480011D01*
X1704997D01*
X1709995Y485010D01*
Y495007D01*
X1704997Y500005D01*
X1709995Y529995D02*
Y510002D01*
X1690002Y529995D01*
X1685003D01*
X1680005Y524997D01*
Y515000D01*
X1685003Y510002D01*
X1709995Y539992D02*
Y549989D01*
Y544990D01*
X1680005D01*
X1685003Y539992D01*
X1855003Y495007D02*
X1850005Y490008D01*
Y480011D01*
X1855003Y475013D01*
X1874997D01*
X1879995Y480011D01*
Y490008D01*
X1874997Y495007D01*
X1879995Y524997D02*
Y505003D01*
X1860002Y524997D01*
X1855003D01*
X1850005Y519999D01*
Y510002D01*
X1855003Y505003D01*
Y534994D02*
X1850005Y539992D01*
Y549989D01*
X1855003Y554987D01*
X1874997D01*
X1879995Y549989D01*
Y539992D01*
X1874997Y534994D01*
X1855003D01*
X1107506Y2114997D02*
X1102507Y2119995D01*
X1092511D01*
X1087512Y2114997D01*
Y2095003D01*
X1092511Y2090005D01*
X1102507D01*
X1107506Y2095003D01*
X1117503Y2090005D02*
X1127499D01*
X1122501D01*
Y2119995D01*
X1117503Y2114997D01*
X1142494Y2095003D02*
X1147493Y2090005D01*
X1157490D01*
X1162488Y2095003D01*
Y2114997D01*
X1157490Y2119995D01*
X1147493D01*
X1142494Y2114997D01*
Y2109998D01*
X1147493Y2105000D01*
X1162488D01*
X2102506Y744997D02*
X2097507Y749995D01*
X2087511D01*
X2082512Y744997D01*
Y725003D01*
X2087511Y720005D01*
X2097507D01*
X2102506Y725003D01*
X2112503Y720005D02*
X2122499D01*
X2117501D01*
Y749995D01*
X2112503Y744997D01*
X2137494D02*
X2142493Y749995D01*
X2152490D01*
X2157488Y744997D01*
Y739998D01*
X2152490Y735000D01*
X2157488Y730002D01*
Y725003D01*
X2152490Y720005D01*
X2142493D01*
X2137494Y725003D01*
Y730002D01*
X2142493Y735000D01*
X2137494Y739998D01*
Y744997D01*
X2142493Y735000D02*
X2152490D01*
X1770003Y497506D02*
X1765005Y492507D01*
Y482511D01*
X1770003Y477512D01*
X1789997D01*
X1794995Y482511D01*
Y492507D01*
X1789997Y497506D01*
X1794995Y507502D02*
Y517499D01*
Y512501D01*
X1765005D01*
X1770003Y507502D01*
X1765005Y532494D02*
Y552488D01*
X1770003D01*
X1789997Y532494D01*
X1794995D01*
X1382506Y749997D02*
X1377507Y754995D01*
X1367511D01*
X1362512Y749997D01*
Y730003D01*
X1367511Y725005D01*
X1377507D01*
X1382506Y730003D01*
X1392503Y725005D02*
X1402499D01*
X1397501D01*
Y754995D01*
X1392503Y749997D01*
X1437488Y754995D02*
X1427491Y749997D01*
X1417494Y740000D01*
Y730003D01*
X1422493Y725005D01*
X1432490D01*
X1437488Y730003D01*
Y735002D01*
X1432490Y740000D01*
X1417494D01*
X1582506Y2294997D02*
X1577507Y2299995D01*
X1567511D01*
X1562512Y2294997D01*
Y2275003D01*
X1567511Y2270005D01*
X1577507D01*
X1582506Y2275003D01*
X1592503Y2270005D02*
X1602499D01*
X1597501D01*
Y2299995D01*
X1592503Y2294997D01*
X1637488Y2299995D02*
X1617494D01*
Y2285000D01*
X1627491Y2289998D01*
X1632490D01*
X1637488Y2285000D01*
Y2275003D01*
X1632490Y2270005D01*
X1622493D01*
X1617494Y2275003D01*
X1497506Y1854997D02*
X1492507Y1859995D01*
X1482511D01*
X1477512Y1854997D01*
Y1835003D01*
X1482511Y1830005D01*
X1492507D01*
X1497506Y1835003D01*
X1507503Y1830005D02*
X1517499D01*
X1512501D01*
Y1859995D01*
X1507503Y1854997D01*
X1547490Y1830005D02*
Y1859995D01*
X1532494Y1845000D01*
X1552488D01*
X1492506Y2154997D02*
X1487507Y2159995D01*
X1477511D01*
X1472512Y2154997D01*
Y2135003D01*
X1477511Y2130005D01*
X1487507D01*
X1492506Y2135003D01*
X1502503Y2130005D02*
X1512499D01*
X1507501D01*
Y2159995D01*
X1502503Y2154997D01*
X1527494D02*
X1532493Y2159995D01*
X1542490D01*
X1547488Y2154997D01*
Y2149998D01*
X1542490Y2145000D01*
X1537491D01*
X1542490D01*
X1547488Y2140002D01*
Y2135003D01*
X1542490Y2130005D01*
X1532493D01*
X1527494Y2135003D01*
X2187506Y1029997D02*
X2182507Y1034995D01*
X2172511D01*
X2167512Y1029997D01*
Y1010003D01*
X2172511Y1005005D01*
X2182507D01*
X2187506Y1010003D01*
X2197503Y1005005D02*
X2207499D01*
X2202501D01*
Y1034995D01*
X2197503Y1029997D01*
X2242488Y1005005D02*
X2222494D01*
X2242488Y1024998D01*
Y1029997D01*
X2237490Y1034995D01*
X2227493D01*
X2222494Y1029997D01*
X2027504Y919997D02*
X2022506Y924995D01*
X2012509D01*
X2007511Y919997D01*
Y900003D01*
X2012509Y895005D01*
X2022506D01*
X2027504Y900003D01*
X2037501Y895005D02*
X2047498D01*
X2042499D01*
Y924995D01*
X2037501Y919997D01*
X2062493Y895005D02*
X2072490D01*
X2067491D01*
Y924995D01*
X2062493Y919997D01*
X1507506Y1459997D02*
X1502507Y1464995D01*
X1492511D01*
X1487512Y1459997D01*
Y1440003D01*
X1492511Y1435005D01*
X1502507D01*
X1507506Y1440003D01*
X1517503Y1435005D02*
X1527499D01*
X1522501D01*
Y1464995D01*
X1517503Y1459997D01*
X1542494D02*
X1547493Y1464995D01*
X1557490D01*
X1562488Y1459997D01*
Y1440003D01*
X1557490Y1435005D01*
X1547493D01*
X1542494Y1440003D01*
Y1459997D01*
X1330002Y1714997D02*
X1325003Y1719995D01*
X1315006D01*
X1310008Y1714997D01*
Y1695003D01*
X1315006Y1690005D01*
X1325003D01*
X1330002Y1695003D01*
X1339998D02*
X1344997Y1690005D01*
X1354994D01*
X1359992Y1695003D01*
Y1714997D01*
X1354994Y1719995D01*
X1344997D01*
X1339998Y1714997D01*
Y1709998D01*
X1344997Y1705000D01*
X1359992D01*
X1685002Y1584997D02*
X1680003Y1589995D01*
X1670006D01*
X1665008Y1584997D01*
Y1565003D01*
X1670006Y1560005D01*
X1680003D01*
X1685002Y1565003D01*
X1694998Y1584997D02*
X1699997Y1589995D01*
X1709994D01*
X1714992Y1584997D01*
Y1579998D01*
X1709994Y1575000D01*
X1714992Y1570002D01*
Y1565003D01*
X1709994Y1560005D01*
X1699997D01*
X1694998Y1565003D01*
Y1570002D01*
X1699997Y1575000D01*
X1694998Y1579998D01*
Y1584997D01*
X1699997Y1575000D02*
X1709994D01*
X1690002Y1714997D02*
X1685003Y1719995D01*
X1675006D01*
X1670008Y1714997D01*
Y1695003D01*
X1675006Y1690005D01*
X1685003D01*
X1690002Y1695003D01*
X1699998Y1719995D02*
X1719992D01*
Y1714997D01*
X1699998Y1695003D01*
Y1690005D01*
X2105002Y664997D02*
X2100003Y669995D01*
X2090006D01*
X2085008Y664997D01*
Y645003D01*
X2090006Y640005D01*
X2100003D01*
X2105002Y645003D01*
X2134992Y669995D02*
X2124995Y664997D01*
X2114998Y655000D01*
Y645003D01*
X2119997Y640005D01*
X2129994D01*
X2134992Y645003D01*
Y650002D01*
X2129994Y655000D01*
X2114998D01*
X1415002Y834997D02*
X1410003Y839995D01*
X1400006D01*
X1395008Y834997D01*
Y815003D01*
X1400006Y810005D01*
X1410003D01*
X1415002Y815003D01*
X1444992Y839995D02*
X1424998D01*
Y825000D01*
X1434995Y829998D01*
X1439994D01*
X1444992Y825000D01*
Y815003D01*
X1439994Y810005D01*
X1429997D01*
X1424998Y815003D01*
X1315002Y1469997D02*
X1310003Y1474995D01*
X1300006D01*
X1295008Y1469997D01*
Y1450003D01*
X1300006Y1445005D01*
X1310003D01*
X1315002Y1450003D01*
X1339994Y1445005D02*
Y1474995D01*
X1324998Y1460000D01*
X1344992D01*
D52*
X2083329Y568331D02*
X2079997Y571663D01*
X2073332D01*
X2070000Y568331D01*
Y555002D01*
X2073332Y551669D01*
X2079997D01*
X2083329Y555002D01*
X2089994Y571663D02*
Y551669D01*
Y561666D01*
X2103323D01*
Y571663D01*
Y551669D01*
X2109987Y571663D02*
X2116651D01*
X2113319D01*
Y551669D01*
X2109987D01*
X2116651D01*
X2126648D02*
Y571663D01*
X2136645D01*
X2139977Y568331D01*
Y561666D01*
X2136645Y558334D01*
X2126648D01*
X2146642Y548337D02*
X2159971D01*
X2166635Y568331D02*
X2169968Y571663D01*
X2176632D01*
X2179964Y568331D01*
Y564998D01*
X2176632Y561666D01*
X2173300D01*
X2176632D01*
X2179964Y558334D01*
Y555002D01*
X2176632Y551669D01*
X2169968D01*
X2166635Y555002D01*
X2186629Y568331D02*
X2189961Y571663D01*
X2196626D01*
X2199958Y568331D01*
Y564998D01*
X2196626Y561666D01*
X2193293D01*
X2196626D01*
X2199958Y558334D01*
Y555002D01*
X2196626Y551669D01*
X2189961D01*
X2186629Y555002D01*
X2070000Y331669D02*
Y351663D01*
X2079997D01*
X2083329Y348331D01*
Y341666D01*
X2079997Y338334D01*
X2070000D01*
X2103323Y348331D02*
X2099990Y351663D01*
X2093326D01*
X2089994Y348331D01*
Y344998D01*
X2093326Y341666D01*
X2099990D01*
X2103323Y338334D01*
Y335002D01*
X2099990Y331669D01*
X2093326D01*
X2089994Y335002D01*
X2109987Y351663D02*
Y335002D01*
X2113319Y331669D01*
X2119984D01*
X2123316Y335002D01*
Y351663D01*
X2129981Y328337D02*
X2143309D01*
X2149974Y348331D02*
X2153306Y351663D01*
X2159971D01*
X2163303Y348331D01*
Y344998D01*
X2159971Y341666D01*
X2156639D01*
X2159971D01*
X2163303Y338334D01*
Y335002D01*
X2159971Y331669D01*
X2153306D01*
X2149974Y335002D01*
X2169968Y348331D02*
X2173300Y351663D01*
X2179964D01*
X2183296Y348331D01*
Y344998D01*
X2179964Y341666D01*
X2176632D01*
X2179964D01*
X2183296Y338334D01*
Y335002D01*
X2179964Y331669D01*
X2173300D01*
X2169968Y335002D01*
X1680000Y354993D02*
Y335000D01*
X1689997D01*
X1693329Y338332D01*
Y341664D01*
X1689997Y344997D01*
X1680000D01*
X1689997D01*
X1693329Y348329D01*
Y351661D01*
X1689997Y354993D01*
X1680000D01*
X1709990D02*
X1703326D01*
X1699994Y351661D01*
Y338332D01*
X1703326Y335000D01*
X1709990D01*
X1713322Y338332D01*
Y351661D01*
X1709990Y354993D01*
X1719987Y335000D02*
Y348329D01*
X1726651Y354993D01*
X1733316Y348329D01*
Y335000D01*
Y344997D01*
X1719987D01*
X1739980Y335000D02*
Y354993D01*
X1749977D01*
X1753310Y351661D01*
Y344997D01*
X1749977Y341664D01*
X1739980D01*
X1746645D02*
X1753310Y335000D01*
X1759974Y354993D02*
Y335000D01*
X1769971D01*
X1773303Y338332D01*
Y351661D01*
X1769971Y354993D01*
X1759974D01*
X1779967Y331668D02*
X1793296D01*
X1799961Y351661D02*
X1803293Y354993D01*
X1809958D01*
X1813290Y351661D01*
Y348329D01*
X1809958Y344997D01*
X1806626D01*
X1809958D01*
X1813290Y341664D01*
Y338332D01*
X1809958Y335000D01*
X1803293D01*
X1799961Y338332D01*
X1819955Y351661D02*
X1823287Y354993D01*
X1829951D01*
X1833284Y351661D01*
Y348329D01*
X1829951Y344997D01*
X1826619D01*
X1829951D01*
X1833284Y341664D01*
Y338332D01*
X1829951Y335000D01*
X1823287D01*
X1819955Y338332D01*
X2070000Y451669D02*
Y471663D01*
X2079997D01*
X2083329Y468331D01*
Y461666D01*
X2079997Y458334D01*
X2070000D01*
X2103323Y468331D02*
X2099990Y471663D01*
X2093326D01*
X2089994Y468331D01*
Y464998D01*
X2093326Y461666D01*
X2099990D01*
X2103323Y458334D01*
Y455002D01*
X2099990Y451669D01*
X2093326D01*
X2089994Y455002D01*
X2109987Y471663D02*
Y455002D01*
X2113319Y451669D01*
X2119984D01*
X2123316Y455002D01*
Y471663D01*
X2129981Y448337D02*
X2143309D01*
X2149974Y468331D02*
X2153306Y471663D01*
X2159971D01*
X2163303Y468331D01*
Y464998D01*
X2159971Y461666D01*
X2156639D01*
X2159971D01*
X2163303Y458334D01*
Y455002D01*
X2159971Y451669D01*
X2153306D01*
X2149974Y455002D01*
X2169968Y468331D02*
X2173300Y471663D01*
X2179964D01*
X2183296Y468331D01*
Y464998D01*
X2179964Y461666D01*
X2176632D01*
X2179964D01*
X2183296Y458334D01*
Y455002D01*
X2179964Y451669D01*
X2173300D01*
X2169968Y455002D01*
X806684Y1004997D02*
Y985003D01*
X820013D01*
X826678Y1004997D02*
Y985003D01*
X836674D01*
X840006Y988336D01*
Y1001665D01*
X836674Y1004997D01*
X826678D01*
X856668D02*
X850003D01*
X846671Y1001665D01*
Y988336D01*
X850003Y985003D01*
X856668D01*
X860000Y988336D01*
Y1001665D01*
X856668Y1004997D01*
X806684Y705003D02*
Y724997D01*
X816681D01*
X820013Y721665D01*
Y715000D01*
X816681Y711668D01*
X806684D01*
X840006Y721665D02*
X836674Y724997D01*
X830010D01*
X826678Y721665D01*
Y718332D01*
X830010Y715000D01*
X836674D01*
X840006Y711668D01*
Y708336D01*
X836674Y705003D01*
X830010D01*
X826678Y708336D01*
X846671Y724997D02*
Y708336D01*
X850003Y705003D01*
X856668D01*
X860000Y708336D01*
Y724997D01*
X2580000Y245000D02*
Y264993D01*
X2589997D01*
X2593329Y261661D01*
Y254997D01*
X2589997Y251665D01*
X2580000D01*
X2613323Y261661D02*
X2609990Y264993D01*
X2603326D01*
X2599994Y261661D01*
Y258329D01*
X2603326Y254997D01*
X2609990D01*
X2613323Y251665D01*
Y248332D01*
X2609990Y245000D01*
X2603326D01*
X2599994Y248332D01*
X2619987Y264993D02*
Y248332D01*
X2623319Y245000D01*
X2629984D01*
X2633316Y248332D01*
Y264993D01*
X2580000Y565000D02*
Y584994D01*
X2589997D01*
X2593329Y581661D01*
Y574997D01*
X2589997Y571664D01*
X2580000D01*
X2613323Y581661D02*
X2609990Y584994D01*
X2603326D01*
X2599994Y581661D01*
Y578329D01*
X2603326Y574997D01*
X2609990D01*
X2613323Y571664D01*
Y568332D01*
X2609990Y565000D01*
X2603326D01*
X2599994Y568332D01*
X2619987Y584994D02*
Y568332D01*
X2623319Y565000D01*
X2629984D01*
X2633316Y568332D01*
Y584994D01*
X2580000Y885000D02*
Y904994D01*
X2589997D01*
X2593329Y901661D01*
Y894997D01*
X2589997Y891664D01*
X2580000D01*
X2613323Y901661D02*
X2609990Y904994D01*
X2603326D01*
X2599994Y901661D01*
Y898329D01*
X2603326Y894997D01*
X2609990D01*
X2613323Y891664D01*
Y888332D01*
X2609990Y885000D01*
X2603326D01*
X2599994Y888332D01*
X2619987Y904994D02*
Y888332D01*
X2623319Y885000D01*
X2629984D01*
X2633316Y888332D01*
Y904994D01*
X2580000Y499993D02*
Y480000D01*
X2593329D01*
X2599994Y499993D02*
Y480000D01*
X2609990D01*
X2613323Y483332D01*
Y496661D01*
X2609990Y499993D01*
X2599994D01*
X2629984D02*
X2623319D01*
X2619987Y496661D01*
Y483332D01*
X2623319Y480000D01*
X2629984D01*
X2633316Y483332D01*
Y496661D01*
X2629984Y499993D01*
X2580000Y819994D02*
Y800000D01*
X2593329D01*
X2599994Y819994D02*
Y800000D01*
X2609990D01*
X2613323Y803332D01*
Y816661D01*
X2609990Y819994D01*
X2599994D01*
X2629984D02*
X2623319D01*
X2619987Y816661D01*
Y803332D01*
X2623319Y800000D01*
X2629984D01*
X2633316Y803332D01*
Y816661D01*
X2629984Y819994D01*
X2580000Y1139994D02*
Y1120000D01*
X2593329D01*
X2599994Y1139994D02*
Y1120000D01*
X2609990D01*
X2613323Y1123332D01*
Y1136661D01*
X2609990Y1139994D01*
X2599994D01*
X2629984D02*
X2623319D01*
X2619987Y1136661D01*
Y1123332D01*
X2623319Y1120000D01*
X2629984D01*
X2633316Y1123332D01*
Y1136661D01*
X2629984Y1139994D01*
%TF.MD5,6e98f0e4e95b146ac8f73c74c633869f*%
M02*
