%TF.GenerationSoftware,Altium Limited,Altium Designer,21.9.2 (33)*%
G04 Layer_Color=16711935*
%FSLAX26Y26*%
%MOIN*%
%TF.SameCoordinates,EB25F4C7-955C-4A9D-8DD9-FEE0DACB2CC0*%
%TF.FilePolarity,Negative*%
%TF.FileFunction,Soldermask,Bot*%
%TF.Part,Single*%
G01*
G75*
%TA.AperFunction,ComponentPad*%
%ADD37C,0.062409*%
%ADD38C,0.063465*%
%ADD39R,0.063465X0.063465*%
%ADD40R,0.063465X0.063465*%
%TA.AperFunction,ViaPad*%
%ADD41C,0.204409*%
%ADD42C,0.063465*%
%TA.AperFunction,ComponentPad*%
%ADD43C,0.087087*%
%ADD44C,0.083150*%
%TA.AperFunction,ViaPad*%
%ADD45C,0.069409*%
%ADD46C,0.029409*%
%ADD47C,0.038409*%
D37*
X2415000Y3095000D02*
D03*
X2315000D02*
D03*
X2215000D02*
D03*
X2115000D02*
D03*
X2015000D02*
D03*
X1915000D02*
D03*
X1815000D02*
D03*
X1715000D02*
D03*
X1615000D02*
D03*
X1515000D02*
D03*
X1415000D02*
D03*
X1315000D02*
D03*
Y2495000D02*
D03*
X1415000D02*
D03*
X1515000D02*
D03*
X1615000D02*
D03*
X1715000D02*
D03*
X1815000D02*
D03*
X1915000D02*
D03*
X2015000D02*
D03*
X2115000D02*
D03*
X2215000D02*
D03*
X2315000D02*
D03*
X2515000Y3095000D02*
D03*
X2415000Y2495000D02*
D03*
X2515000D02*
D03*
X2615000Y3095000D02*
D03*
Y2495000D02*
D03*
X1215000Y3095000D02*
D03*
Y2495000D02*
D03*
X1115000Y3095000D02*
D03*
X1015000D02*
D03*
X915000D02*
D03*
X815000D02*
D03*
X715000D02*
D03*
X615000D02*
D03*
X515000D02*
D03*
X415000D02*
D03*
X315000D02*
D03*
Y2495000D02*
D03*
X415000D02*
D03*
X515000D02*
D03*
X615000D02*
D03*
X715000D02*
D03*
X815000D02*
D03*
X915000D02*
D03*
X1015000D02*
D03*
X1115000D02*
D03*
X815000Y2995000D02*
D03*
Y2795000D02*
D03*
Y2695000D02*
D03*
Y2895000D02*
D03*
Y2595000D02*
D03*
X2515000D02*
D03*
X2315000D02*
D03*
X2215000D02*
D03*
X2115000D02*
D03*
X2365000Y2970000D02*
D03*
X2265000D02*
D03*
X2165000D02*
D03*
X2065000D02*
D03*
X1965000D02*
D03*
D38*
X2555000Y1320000D02*
D03*
X1185000Y1680000D02*
D03*
X1860000D02*
D03*
X1230000Y1560000D02*
D03*
X1860000D02*
D03*
X545000Y1795000D02*
D03*
Y1915000D02*
D03*
Y1675000D02*
D03*
X2555000Y1680000D02*
D03*
Y1800000D02*
D03*
Y1440000D02*
D03*
X2415000Y805000D02*
D03*
X925000Y715000D02*
D03*
X1025000Y995000D02*
D03*
X2515000Y285000D02*
D03*
X2415000Y485000D02*
D03*
X2000000Y560000D02*
D03*
X2515000Y925000D02*
D03*
X2415000Y1125000D02*
D03*
X650000Y1105000D02*
D03*
X1550000Y975000D02*
D03*
X2555000Y1920000D02*
D03*
Y1560000D02*
D03*
X650000Y395000D02*
D03*
Y1405000D02*
D03*
X1900000Y340000D02*
D03*
X2515000Y605000D02*
D03*
D39*
X2655000Y1320000D02*
D03*
X445000Y1795000D02*
D03*
Y1915000D02*
D03*
Y1675000D02*
D03*
X2655000Y1680000D02*
D03*
Y1800000D02*
D03*
Y1440000D02*
D03*
X2515000Y805000D02*
D03*
X1025000Y715000D02*
D03*
X925000Y995000D02*
D03*
X2415000Y285000D02*
D03*
X2515000Y485000D02*
D03*
X2415000Y925000D02*
D03*
X2515000Y1125000D02*
D03*
X550000Y1105000D02*
D03*
X2655000Y1920000D02*
D03*
Y1560000D02*
D03*
X550000Y395000D02*
D03*
Y1405000D02*
D03*
X2000000Y340000D02*
D03*
X2415000Y605000D02*
D03*
D40*
X1185000Y1780000D02*
D03*
X1860000D02*
D03*
X1230000Y1460000D02*
D03*
X1860000D02*
D03*
X2000000Y460000D02*
D03*
X1550000Y1075000D02*
D03*
D41*
X3035000Y150000D02*
D03*
Y3160000D02*
D03*
X150000D02*
D03*
Y150000D02*
D03*
D42*
X925000Y1605000D02*
D03*
Y1305000D02*
D03*
Y595000D02*
D03*
X2010000Y855000D02*
D03*
X1705000Y1195000D02*
D03*
Y1095000D02*
D03*
D43*
X2015000Y1150000D02*
D03*
X2215000D02*
D03*
Y1350000D02*
D03*
X2015000D02*
D03*
D44*
X2115000Y1250000D02*
D03*
D45*
X3085000Y1400000D02*
D03*
Y1700000D02*
D03*
Y2000000D02*
D03*
Y2300000D02*
D03*
Y2600000D02*
D03*
X100000D02*
D03*
X800000Y100000D02*
D03*
X100000Y2300000D02*
D03*
Y2000000D02*
D03*
Y1700000D02*
D03*
Y1400000D02*
D03*
Y1100000D02*
D03*
Y800000D02*
D03*
Y500000D02*
D03*
X1100000Y100000D02*
D03*
X1945000D02*
D03*
X500000D02*
D03*
D46*
X2132388Y1062500D02*
D03*
X1780000Y705000D02*
D03*
X1696192Y1908808D02*
D03*
X2260000Y965000D02*
D03*
X1470000Y2085000D02*
D03*
X1255000Y1910000D02*
D03*
X1620000Y2415000D02*
D03*
X1650000Y2335000D02*
D03*
X1695000Y2185000D02*
D03*
X1725000Y2220000D02*
D03*
X1465000Y205000D02*
D03*
X1599408Y835475D02*
D03*
X1592880Y867806D02*
D03*
X1715998Y704717D02*
D03*
X1145000Y1890000D02*
D03*
X1290000Y1800000D02*
D03*
X1335000Y1785000D02*
D03*
X1950141Y727977D02*
D03*
X1567230Y722036D02*
D03*
X1400000Y780000D02*
D03*
X1142500Y1205000D02*
D03*
Y1022500D02*
D03*
X1579620Y897652D02*
D03*
X1525000Y1415000D02*
D03*
X1585000Y1440000D02*
D03*
X1640000Y1445000D02*
D03*
X1705000Y1385000D02*
D03*
X1445000D02*
D03*
X1286169Y1412372D02*
D03*
X1396101Y1270173D02*
D03*
X1950000Y845000D02*
D03*
X1961400Y922339D02*
D03*
X1875000Y1090000D02*
D03*
X1825000Y1050000D02*
D03*
X1945141Y812977D02*
D03*
X1640000Y1560000D02*
D03*
X1440000Y2140000D02*
D03*
X1480000Y2220000D02*
D03*
X1520000Y2260000D02*
D03*
X1385000Y1910000D02*
D03*
X1450000Y145000D02*
D03*
X1425000Y175000D02*
D03*
X1260000Y195000D02*
D03*
X1230000Y255000D02*
D03*
X1835000Y705000D02*
D03*
X1820000Y1305000D02*
D03*
X1760000Y1060000D02*
D03*
X1330000Y815000D02*
D03*
X1560000Y1300000D02*
D03*
X1745000Y1145000D02*
D03*
X1839961Y939961D02*
D03*
Y896654D02*
D03*
Y853346D02*
D03*
Y810039D02*
D03*
X1796654Y939961D02*
D03*
Y896654D02*
D03*
Y853346D02*
D03*
Y810039D02*
D03*
X1753347Y939961D02*
D03*
Y896654D02*
D03*
Y853346D02*
D03*
Y810039D02*
D03*
X1710039Y939961D02*
D03*
Y896654D02*
D03*
Y853346D02*
D03*
Y810039D02*
D03*
D47*
X1645000Y2675000D02*
D03*
X2300000Y1920000D02*
D03*
X1725000Y2600000D02*
D03*
X1420000Y2580000D02*
D03*
X1265000D02*
D03*
X1080000Y640000D02*
D03*
X1310000Y575000D02*
D03*
X1360000D02*
D03*
X1550000Y495000D02*
D03*
X2715000Y245000D02*
D03*
X2711706Y565998D02*
D03*
X2710407Y887284D02*
D03*
X1145000Y635000D02*
D03*
X1705000Y435000D02*
D03*
X1545000Y575000D02*
D03*
X1460000D02*
D03*
%TF.MD5,fd724a25ade1d1feb36974b3589c4d59*%
M02*
