%TF.GenerationSoftware,Altium Limited,Altium Designer,21.7.1 (17)*%
G04 Layer_Color=255*
%FSLAX26Y26*%
%MOIN*%
%TF.SameCoordinates,27FB9546-20EE-4E74-96E1-B46C9306E405*%
%TF.FilePolarity,Positive*%
%TF.FileFunction,Pads,Bot*%
%TF.Part,Single*%
G01*
G75*
%TA.AperFunction,ComponentPad*%
%ADD26C,0.058000*%
%ADD27C,0.059055*%
%ADD28R,0.059055X0.059055*%
%ADD29R,0.059055X0.059055*%
%TA.AperFunction,ViaPad*%
%ADD30C,0.200000*%
%ADD31C,0.059055*%
%TA.AperFunction,ComponentPad*%
%ADD32C,0.082677*%
%ADD33C,0.078740*%
D26*
X2415000Y3095000D02*
D03*
X2315000D02*
D03*
X2215000D02*
D03*
X2115000D02*
D03*
X2015000D02*
D03*
X1915000D02*
D03*
X1815000D02*
D03*
X1715000D02*
D03*
X1615000D02*
D03*
X1515000D02*
D03*
X1415000D02*
D03*
X1315000D02*
D03*
Y2495000D02*
D03*
X1415000D02*
D03*
X1515000D02*
D03*
X1615000D02*
D03*
X1715000D02*
D03*
X1815000D02*
D03*
X1915000D02*
D03*
X2015000D02*
D03*
X2115000D02*
D03*
X2215000D02*
D03*
X2315000D02*
D03*
X2515000Y3095000D02*
D03*
X2415000Y2495000D02*
D03*
X2515000D02*
D03*
X2615000Y3095000D02*
D03*
Y2495000D02*
D03*
X1215000Y3095000D02*
D03*
Y2495000D02*
D03*
X1115000Y3095000D02*
D03*
X1015000D02*
D03*
X915000D02*
D03*
X815000D02*
D03*
X715000D02*
D03*
X615000D02*
D03*
X515000D02*
D03*
X415000D02*
D03*
X315000D02*
D03*
Y2495000D02*
D03*
X415000D02*
D03*
X515000D02*
D03*
X615000D02*
D03*
X715000D02*
D03*
X815000D02*
D03*
X915000D02*
D03*
X1015000D02*
D03*
X1115000D02*
D03*
X815000Y2995000D02*
D03*
Y2795000D02*
D03*
Y2695000D02*
D03*
Y2895000D02*
D03*
Y2595000D02*
D03*
X2515000D02*
D03*
X2315000D02*
D03*
X2215000D02*
D03*
X2115000D02*
D03*
X2365000Y2970000D02*
D03*
X2265000D02*
D03*
X2165000D02*
D03*
X2065000D02*
D03*
X1965000D02*
D03*
D27*
X2555000Y1320000D02*
D03*
X1185000Y1680000D02*
D03*
X1860000D02*
D03*
X1230000Y1560000D02*
D03*
X1860000D02*
D03*
X545000Y1795000D02*
D03*
Y1915000D02*
D03*
Y1675000D02*
D03*
X2555000Y1680000D02*
D03*
Y1800000D02*
D03*
Y1440000D02*
D03*
X2415000Y805000D02*
D03*
X925000Y715000D02*
D03*
X1025000Y995000D02*
D03*
X2515000Y285000D02*
D03*
X2415000Y485000D02*
D03*
X2000000Y560000D02*
D03*
X2515000Y925000D02*
D03*
X2415000Y1125000D02*
D03*
X650000Y1105000D02*
D03*
X1550000Y975000D02*
D03*
X2555000Y1920000D02*
D03*
Y1560000D02*
D03*
X650000Y395000D02*
D03*
Y1405000D02*
D03*
X1900000Y340000D02*
D03*
X2515000Y605000D02*
D03*
D28*
X2655000Y1320000D02*
D03*
X445000Y1795000D02*
D03*
Y1915000D02*
D03*
Y1675000D02*
D03*
X2655000Y1680000D02*
D03*
Y1800000D02*
D03*
Y1440000D02*
D03*
X2515000Y805000D02*
D03*
X1025000Y715000D02*
D03*
X925000Y995000D02*
D03*
X2415000Y285000D02*
D03*
X2515000Y485000D02*
D03*
X2415000Y925000D02*
D03*
X2515000Y1125000D02*
D03*
X550000Y1105000D02*
D03*
X2655000Y1920000D02*
D03*
Y1560000D02*
D03*
X550000Y395000D02*
D03*
Y1405000D02*
D03*
X2000000Y340000D02*
D03*
X2415000Y605000D02*
D03*
D29*
X1185000Y1780000D02*
D03*
X1860000D02*
D03*
X1230000Y1460000D02*
D03*
X1860000D02*
D03*
X2000000Y460000D02*
D03*
X1550000Y1075000D02*
D03*
D30*
X3035000Y150000D02*
D03*
Y3160000D02*
D03*
X150000D02*
D03*
Y150000D02*
D03*
D31*
X925000Y1605000D02*
D03*
Y1305000D02*
D03*
Y595000D02*
D03*
X2010000Y855000D02*
D03*
X1705000Y1195000D02*
D03*
Y1095000D02*
D03*
D32*
X2015000Y1150000D02*
D03*
X2215000D02*
D03*
Y1350000D02*
D03*
X2015000D02*
D03*
D33*
X2115000Y1250000D02*
D03*
%TF.MD5,40d2bf320dd4c2a2b3c4d9ac96d70c52*%
M02*
