%TF.GenerationSoftware,Altium Limited,Altium Designer,22.3.1 (43)*%
G04 Layer_Color=16711935*
%FSLAX26Y26*%
%MOIN*%
%TF.SameCoordinates,25215B7F-5601-44EC-B639-707B6E2D0B24*%
%TF.FilePolarity,Positive*%
%TF.FileFunction,Other,Mechanical_13*%
%TF.Part,Single*%
G01*
G75*
%TA.AperFunction,NonConductor*%
%ADD84C,0.003937*%
D84*
X1567323Y927638D02*
G03*
X1567323Y927638I-19685J0D01*
G01*
X1152480Y2176299D02*
Y2213701D01*
X1087520Y2176299D02*
Y2213701D01*
Y2176299D02*
X1152480D01*
X1087520Y2213701D02*
X1152480D01*
X1952520Y2281299D02*
Y2318701D01*
X2017480Y2281299D02*
Y2318701D01*
X1952520D02*
X2017480D01*
X1952520Y2281299D02*
X2017480D01*
X2089016Y2329016D02*
Y2580984D01*
Y2329016D02*
X2340984D01*
Y2580984D01*
X2089016D02*
X2340984D01*
X759016Y2329016D02*
Y2580984D01*
Y2329016D02*
X1010984D01*
Y2580984D01*
X759016D02*
X1010984D01*
X1532520Y1303701D02*
X1597480D01*
X1532520Y1266299D02*
X1597480D01*
X1532520D02*
Y1303701D01*
X1597480Y1266299D02*
Y1303701D01*
X1728701Y1272520D02*
Y1337480D01*
X1691299Y1272520D02*
Y1337480D01*
X1728701D01*
X1691299Y1272520D02*
X1728701D01*
X1776535Y1312284D02*
Y1347716D01*
X1843465Y1312284D02*
Y1347716D01*
X1776535D02*
X1843465D01*
X1776535Y1312284D02*
X1843465D01*
X1891299Y1322520D02*
Y1387480D01*
X1928701Y1322520D02*
Y1387480D01*
X1891299Y1322520D02*
X1928701D01*
X1891299Y1387480D02*
X1928701D01*
X2032480Y1936299D02*
Y1973701D01*
X1967520Y1936299D02*
Y1973701D01*
Y1936299D02*
X2032480D01*
X1967520Y1973701D02*
X2032480D01*
X1317520Y1936299D02*
Y1973701D01*
X1382480Y1936299D02*
Y1973701D01*
X1317520D02*
X1382480D01*
X1317520Y1936299D02*
X1382480D01*
X1009016Y1580984D02*
X1260984D01*
Y1329016D02*
Y1580984D01*
X1009016Y1329016D02*
X1260984D01*
X1009016D02*
Y1580984D01*
Y1829016D02*
Y2080984D01*
Y1829016D02*
X1260984D01*
Y2080984D01*
X1009016D02*
X1260984D01*
X2089016Y1829016D02*
Y2080984D01*
Y1829016D02*
X2340984D01*
Y2080984D01*
X2089016D02*
X2340984D01*
X1356299Y1167520D02*
X1393701D01*
X1356299Y1232480D02*
X1393701D01*
X1356299Y1167520D02*
Y1232480D01*
X1393701Y1167520D02*
Y1232480D01*
X1422520Y1266299D02*
Y1303701D01*
X1487480Y1266299D02*
Y1303701D01*
X1422520D02*
X1487480D01*
X1422520Y1266299D02*
X1487480D01*
X1631299Y1272520D02*
X1668701D01*
X1631299Y1337480D02*
X1668701D01*
X1631299Y1272520D02*
Y1337480D01*
X1668701Y1272520D02*
Y1337480D01*
X1576575Y1808976D02*
X1602165Y1783386D01*
X1576575D02*
X1773425D01*
Y1956614D01*
X1576575D02*
X1773425D01*
X1576575Y1783386D02*
Y1956614D01*
X1821535Y1962716D02*
X1888465D01*
X1821535Y1927284D02*
X1888465D01*
X1821535D02*
Y1962716D01*
X1888465Y1927284D02*
Y1962716D01*
X1461535Y1927284D02*
X1528465D01*
X1461535Y1962716D02*
X1528465D01*
Y1927284D02*
Y1962716D01*
X1461535Y1927284D02*
Y1962716D01*
X2795551Y1529961D02*
Y1650039D01*
X2864449Y1529961D02*
Y1650039D01*
X2795551D02*
X2864449D01*
X2795551Y1529961D02*
X2864449D01*
X2795551Y1209961D02*
Y1330039D01*
X2864449Y1209961D02*
Y1330039D01*
X2795551D02*
X2864449D01*
X2795551Y1209961D02*
X2864449D01*
X2946535Y1202284D02*
X3013465D01*
X2946535Y1237716D02*
X3013465D01*
Y1202284D02*
Y1237716D01*
X2946535Y1202284D02*
Y1237716D01*
Y1602284D02*
X3013465D01*
X2946535Y1637716D02*
X3013465D01*
Y1602284D02*
Y1637716D01*
X2946535Y1602284D02*
Y1637716D01*
Y1522284D02*
X3013465D01*
X2946535Y1557716D02*
X3013465D01*
Y1522284D02*
Y1557716D01*
X2946535Y1522284D02*
Y1557716D01*
Y1282284D02*
X3013465D01*
X2946535Y1317716D02*
X3013465D01*
Y1282284D02*
Y1317716D01*
X2946535Y1282284D02*
Y1317716D01*
X2646535D02*
X2713465D01*
X2646535Y1282284D02*
X2713465D01*
X2646535D02*
Y1317716D01*
X2713465Y1282284D02*
Y1317716D01*
X2646535Y1637716D02*
X2713465D01*
X2646535Y1602284D02*
X2713465D01*
X2646535D02*
Y1637716D01*
X2713465Y1602284D02*
Y1637716D01*
X2646535Y357716D02*
X2713465D01*
X2646535Y322284D02*
X2713465D01*
X2646535D02*
Y357716D01*
X2713465Y322284D02*
Y357716D01*
X2946535Y642284D02*
X3013465D01*
X2946535Y677716D02*
X3013465D01*
Y642284D02*
Y677716D01*
X2946535Y642284D02*
Y677716D01*
X2795551Y569961D02*
Y690039D01*
X2864449Y569961D02*
Y690039D01*
X2795551D02*
X2864449D01*
X2795551Y569961D02*
X2864449D01*
X2946535Y562284D02*
X3013465D01*
X2946535Y597716D02*
X3013465D01*
Y562284D02*
Y597716D01*
X2946535Y562284D02*
Y597716D01*
X2795551Y889961D02*
Y1010039D01*
X2864449Y889961D02*
Y1010039D01*
X2795551D02*
X2864449D01*
X2795551Y889961D02*
X2864449D01*
X2646535Y997716D02*
X2713465D01*
X2646535Y962284D02*
X2713465D01*
X2646535D02*
Y997716D01*
X2713465Y962284D02*
Y997716D01*
X2946535Y882284D02*
X3013465D01*
X2946535Y917716D02*
X3013465D01*
Y882284D02*
Y917716D01*
X2946535Y882284D02*
Y917716D01*
Y962284D02*
X3013465D01*
X2946535Y997716D02*
X3013465D01*
Y962284D02*
Y997716D01*
X2946535Y962284D02*
Y997716D01*
X2646535Y677716D02*
X2713465D01*
X2646535Y642284D02*
X2713465D01*
X2646535D02*
Y677716D01*
X2713465Y642284D02*
Y677716D01*
X2795551Y249961D02*
Y370039D01*
X2864449Y249961D02*
Y370039D01*
X2795551D02*
X2864449D01*
X2795551Y249961D02*
X2864449D01*
X2946535Y242284D02*
X3013465D01*
X2946535Y277716D02*
X3013465D01*
Y242284D02*
Y277716D01*
X2946535Y242284D02*
Y277716D01*
Y322284D02*
X3013465D01*
X2946535Y357716D02*
X3013465D01*
Y322284D02*
Y357716D01*
X2946535Y322284D02*
Y357716D01*
X1957716Y1581535D02*
Y1648465D01*
X1922284Y1581535D02*
Y1648465D01*
X1957716D01*
X1922284Y1581535D02*
X1957716D01*
X1805630Y1554724D02*
Y1645276D01*
X1884370D01*
Y1554724D02*
Y1645276D01*
X1805630Y1554724D02*
X1884370D01*
X1805630Y1574409D02*
X1825315Y1554724D01*
X1412716Y1581535D02*
Y1648465D01*
X1377284Y1581535D02*
Y1648465D01*
X1412716D01*
X1377284Y1581535D02*
X1412716D01*
X1450630Y1554724D02*
Y1645276D01*
X1529370D01*
Y1554724D02*
Y1645276D01*
X1450630Y1554724D02*
X1529370D01*
X1450630Y1574409D02*
X1470315Y1554724D01*
X509016Y1580984D02*
X760984D01*
Y1329016D02*
Y1580984D01*
X509016Y1329016D02*
X760984D01*
X509016D02*
Y1580984D01*
Y2080984D02*
X760984D01*
Y1829016D02*
Y2080984D01*
X509016Y1829016D02*
X760984D01*
X509016D02*
Y2080984D01*
X2089016Y1580984D02*
X2340984D01*
Y1329016D02*
Y1580984D01*
X2089016Y1329016D02*
X2340984D01*
X2089016D02*
Y1580984D01*
X2616535Y1997284D02*
X2683465D01*
X2616535Y2032716D02*
X2683465D01*
Y1997284D02*
Y2032716D01*
X2616535Y1997284D02*
Y2032716D01*
Y2237284D02*
X2683465D01*
X2616535Y2272716D02*
X2683465D01*
Y2237284D02*
Y2272716D01*
X2616535Y2237284D02*
Y2272716D01*
X1386575Y2248386D02*
Y2421614D01*
X1583425D01*
Y2248386D02*
Y2421614D01*
X1386575Y2248386D02*
X1583425D01*
X1386575Y2273976D02*
X1412165Y2248386D01*
X548465Y947284D02*
Y982716D01*
X481535Y947284D02*
Y982716D01*
Y947284D02*
X548465D01*
X481535Y982716D02*
X548465D01*
X1707284Y2526535D02*
X1742716D01*
X1707284Y2593465D02*
X1742716D01*
X1707284Y2526535D02*
Y2593465D01*
X1742716Y2526535D02*
Y2593465D01*
X1397284Y2526535D02*
X1432716D01*
X1397284Y2593465D02*
X1432716D01*
X1397284Y2526535D02*
Y2593465D01*
X1432716Y2526535D02*
Y2593465D01*
X2003465Y1157284D02*
Y1192716D01*
X1936535Y1157284D02*
Y1192716D01*
Y1157284D02*
X2003465D01*
X1936535Y1192716D02*
X2003465D01*
X1126535Y902284D02*
Y937716D01*
X1193465Y902284D02*
Y937716D01*
X1126535D02*
X1193465D01*
X1126535Y902284D02*
X1193465D01*
X1126535Y817284D02*
Y852716D01*
X1193465Y817284D02*
Y852716D01*
X1126535D02*
X1193465D01*
X1126535Y817284D02*
X1193465D01*
X1888465Y1797284D02*
Y1832716D01*
X1821535Y1797284D02*
Y1832716D01*
Y1797284D02*
X1888465D01*
X1821535Y1832716D02*
X1888465D01*
X1936535Y742284D02*
Y777716D01*
X2003465Y742284D02*
Y777716D01*
X1936535D02*
X2003465D01*
X1936535Y742284D02*
X2003465D01*
Y827284D02*
Y862716D01*
X1936535Y827284D02*
Y862716D01*
Y827284D02*
X2003465D01*
X1936535Y862716D02*
X2003465D01*
X1572284Y701535D02*
X1607716D01*
X1572284Y768465D02*
X1607716D01*
X1572284Y701535D02*
Y768465D01*
X1607716Y701535D02*
Y768465D01*
X1657284Y701535D02*
X1692716D01*
X1657284Y768465D02*
X1692716D01*
X1657284Y701535D02*
Y768465D01*
X1692716Y701535D02*
Y768465D01*
X1742284Y701535D02*
X1777716D01*
X1742284Y768465D02*
X1777716D01*
X1742284Y701535D02*
Y768465D01*
X1777716Y701535D02*
Y768465D01*
X1331535Y822284D02*
Y857716D01*
X1398465Y822284D02*
Y857716D01*
X1331535D02*
X1398465D01*
X1331535Y822284D02*
X1398465D01*
X1331535Y902284D02*
Y937716D01*
X1398465Y902284D02*
Y937716D01*
X1331535D02*
X1398465D01*
X1331535Y902284D02*
X1398465D01*
X1331535Y987284D02*
Y1022716D01*
X1398465Y987284D02*
Y1022716D01*
X1331535D02*
X1398465D01*
X1331535Y987284D02*
X1398465D01*
X2003465Y1072284D02*
Y1107716D01*
X1936535Y1072284D02*
Y1107716D01*
Y1072284D02*
X2003465D01*
X1936535Y1107716D02*
X2003465D01*
X2062284Y1148465D02*
X2097716D01*
X2062284Y1081535D02*
X2097716D01*
Y1148465D01*
X2062284Y1081535D02*
Y1148465D01*
X1312284Y2323465D02*
X1347716D01*
X1312284Y2256535D02*
X1347716D01*
Y2323465D01*
X1312284Y2256535D02*
Y2323465D01*
Y2391535D02*
X1347716D01*
X1312284Y2458465D02*
X1347716D01*
X1312284Y2391535D02*
Y2458465D01*
X1347716Y2391535D02*
Y2458465D01*
X1622284Y2323465D02*
X1657716D01*
X1622284Y2256535D02*
X1657716D01*
Y2323465D01*
X1622284Y2256535D02*
Y2323465D01*
X1696575Y2248386D02*
Y2421614D01*
X1893425D01*
Y2248386D02*
Y2421614D01*
X1696575Y2248386D02*
X1893425D01*
X1696575Y2273976D02*
X1722165Y2248386D01*
X1622284Y2391535D02*
X1657716D01*
X1622284Y2458465D02*
X1657716D01*
X1622284Y2391535D02*
Y2458465D01*
X1657716Y2391535D02*
Y2458465D01*
X1333425Y293386D02*
Y466614D01*
X1136575Y293386D02*
X1333425D01*
X1136575D02*
Y466614D01*
X1333425D01*
X1307835D02*
X1333425Y441024D01*
X1372284Y408465D02*
X1407716D01*
X1372284Y341535D02*
X1407716D01*
Y408465D01*
X1372284Y341535D02*
Y408465D01*
X1021535Y262284D02*
Y297716D01*
X1088465Y262284D02*
Y297716D01*
X1021535D02*
X1088465D01*
X1021535Y262284D02*
X1088465D01*
X1062284Y418465D02*
X1097716D01*
X1062284Y351535D02*
X1097716D01*
Y418465D01*
X1062284Y351535D02*
Y418465D01*
X2077047Y961496D02*
X2182953D01*
Y898504D02*
Y961496D01*
X2077047Y898504D02*
Y961496D01*
Y898504D02*
X2182953D01*
X2077047Y973504D02*
X2182953D01*
X2077047D02*
Y1036496D01*
X2182953Y973504D02*
Y1036496D01*
X2077047D02*
X2182953D01*
X2242284Y1008465D02*
X2277716D01*
X2242284Y941535D02*
X2277716D01*
Y1008465D01*
X2242284Y941535D02*
Y1008465D01*
X630551Y874961D02*
X699449D01*
X630551Y995039D02*
X699449D01*
Y874961D02*
Y995039D01*
X630551Y874961D02*
Y995039D01*
Y474961D02*
X699449D01*
X630551Y595039D02*
X699449D01*
Y474961D02*
Y595039D01*
X630551Y474961D02*
Y595039D01*
X781535Y467284D02*
Y502716D01*
X848465Y467284D02*
Y502716D01*
X781535D02*
X848465D01*
X781535Y467284D02*
X848465D01*
X781535Y547284D02*
Y582716D01*
X848465Y547284D02*
Y582716D01*
X781535D02*
X848465D01*
X781535Y547284D02*
X848465D01*
X781535Y867284D02*
Y902716D01*
X848465Y867284D02*
Y902716D01*
X781535D02*
X848465D01*
X781535Y867284D02*
X848465D01*
X781535Y947284D02*
Y982716D01*
X848465Y947284D02*
Y982716D01*
X781535D02*
X848465D01*
X781535Y947284D02*
X848465D01*
X548465Y547284D02*
Y582716D01*
X481535Y547284D02*
Y582716D01*
Y547284D02*
X548465D01*
X481535Y582716D02*
X548465D01*
X1512205Y892205D02*
X1787795D01*
X1512205Y1167795D02*
X1787795D01*
X1512205Y892205D02*
Y1167795D01*
X1787795Y892205D02*
Y1167795D01*
%TF.MD5,a9625c42776400ce4587310b57598177*%
M02*
